<svg xmlns="http://www.w3.org/2000/svg" viewBox="0 0 698.11 777.73" preserveAspectRatio="none"><g data-name="图层 2"><path d="M549.41 173.58c13.22-90.19 141.12-116.32 140-143C687.71-9 605.44-1.33 561.57 5.57a269.81 269.81 0 0 0-26.9 4.94c-41.9 9.88-90.75 31.56-143.79 74-152.38 121.84 22.72 194.08 72.27 235.38s38.72 107.59-124.92 164.53c-97.07 33.78-150.5 49.34-178.88 56.51 27.63-64.11 53.64-134.66 52.58-171-1.77-60.63-42.72 56.42-105.58 159.41s-144 182.85-87 210.21 476.11 54 494.87 26.88c12-17.42-36.8-18.7-154.4-37.48 67-38 330.65-196 338-333.49 8.4-157.57-161.64-131.7-148.41-221.88zm95.69 203.86C631 516.5 325.23 664.89 234.14 706.14c-41.22-8.36-87.17-18.56-138-31.17 0 0 3.49-6.76 9.26-18.34 64.2-24.35 440.72-171.83 442.08-282.86 1.41-114.52-158.89-127.49-156.41-197.2 3-84.17 169.71-147 268-154.25l.69.07S519.36 74.77 511 170.52c-8.69 99.72 144.24 106.94 134.1 206.92z" fill="{{colors[0]}}" data-name="图层 1"/></g></svg>