<svg xmlns="http://www.w3.org/2000/svg" width="800" height="800" preserveAspectRatio="none" viewBox="0 0 800 800"><g fill-rule="evenodd" clip-rule="evenodd"><path d="M594.91 60.099c9.984 9.984 14.976 22.012 14.976 36.087v624.058c0 14.077-4.991 26.104-14.976 36.088-9.933 9.935-21.963 14.901-36.086 14.901h-297.09c-14.125 0-26.152-4.967-36.087-14.901-9.982-9.984-14.976-22.011-14.976-36.088V96.186c0-14.075 4.994-26.103 14.976-36.087 9.935-9.935 21.963-14.901 36.087-14.901h297.09c14.123-.001 26.154 4.966 36.086 14.901z" fill="{{colors[0]}}"/><path d="M594.91 60.099c9.984 9.984 14.976 22.012 14.976 36.087v624.058c0 14.077-4.991 26.104-14.976 36.088-9.933 9.935-21.963 14.901-36.086 14.901h-38.205c13.586-.29 25.199-5.257 34.844-14.901 9.985-9.984 14.976-22.011 14.976-36.088V96.186c0-14.075-4.99-26.103-14.976-36.087-9.645-9.644-21.258-14.611-34.844-14.901h38.205c14.123-.001 26.154 4.966 36.086 14.901z" fill="{{colors[1]}}"/><path fill="{{colors[2]}}" d="M257.568 147.32h305.42v490.451h-305.42z"/><path fill="{{colors[3]}}" d="M523.541 147.32h39.447v490.451h-39.447z"/><path fill="{{colors[4]}}" d="M562.988 147.32v330.694L359.766 147.32z"/><path fill="{{colors[5]}}" d="M523.541 147.32h39.447v330.694l-39.447-64.211z"/><path fill="{{colors[6]}}" d="M359.766 147.32l203.222 330.694v159.757L456.481 470.709 257.568 637.771V529.146l154.354-129.442L257.568 147.32z"/><path fill="{{colors[7]}}" d="M523.541 413.803l39.447 64.211v159.757l-39.447-61.872z"/><path d="M432.596 681.82c6.187 6.186 9.276 13.636 9.276 22.353 0 8.719-3.09 16.169-9.276 22.353-6.136 6.138-13.563 9.206-22.28 9.206s-16.168-3.068-22.354-9.206c-6.184-6.184-9.277-13.634-9.277-22.353 0-8.717 3.094-16.167 9.277-22.353 6.186-6.136 13.636-9.206 22.354-9.206s16.144 3.071 22.28 9.206z" fill="{{colors[8]}}"/><path d="M313.745 302.403c0-26.639 9.422-49.381 28.27-68.228 18.847-18.847 41.615-28.27 68.301-28.27 26.641 0 49.383 9.423 68.227 28.27 18.848 18.847 28.272 41.589 28.272 68.228 0 33.846-16.071 70.004-48.212 108.478-16.12 19.188-32.216 35.016-48.287 47.481-16.071-12.466-32.164-28.294-48.287-47.481-32.19-38.474-48.284-74.632-48.284-108.478zm69.322-27.247c-7.547 7.548-11.322 16.631-11.322 27.248 0 10.665 3.775 19.771 11.322 27.321 7.502 7.499 16.582 11.249 27.249 11.249 10.618 0 19.7-3.75 27.248-11.249 7.498-7.549 11.248-16.656 11.248-27.321 0-10.617-3.75-19.699-11.248-27.248-7.548-7.5-16.63-11.25-27.248-11.25-10.668 0-19.747 3.75-27.249 11.25z" fill="{{colors[9]}}"/><path d="M410.315 205.905c26.641 0 49.383 9.423 68.227 28.27 18.848 18.847 28.272 41.589 28.272 68.228 0 33.846-16.071 70.004-48.212 108.478-16.12 19.188-32.216 35.016-48.287 47.481-5.453-4.237-12.054-10.007-19.798-17.312 19.872-18.701 36.211-37.937 49.018-57.708 18.554-28.538 27.833-55.518 27.833-80.939 0-23.083-7.331-43.513-21.989-61.288-14.415-17.532-32.701-28.611-54.861-33.237 6.429-1.315 13.029-1.973 19.797-1.973z" fill="{{colors[10]}}"/><path d="M383.067 275.156c7.502-7.5 16.582-11.25 27.249-11.25 10.618 0 19.7 3.75 27.248 11.25 7.498 7.548 11.248 16.631 11.248 27.248 0 10.665-3.75 19.771-11.248 27.321-7.548 7.499-16.63 11.249-27.248 11.249-10.667 0-19.746-3.75-27.249-11.249-7.547-7.549-11.322-16.656-11.322-27.321 0-10.617 3.775-19.7 11.322-27.248z" fill="{{colors[11]}}"/><path d="M349.759 241.918c-16.705 16.704-25.057 36.866-25.057 60.485 0 27.076 11.614 56.271 34.844 87.586 14.222 19.188 31.12 37.23 50.694 54.128 19.53-16.802 36.454-34.845 50.771-54.128 23.23-31.363 34.846-60.559 34.846-87.586 0-23.571-8.353-43.732-25.057-60.485-16.704-16.705-36.866-25.056-60.484-25.056-23.619 0-43.804 8.352-60.557 25.056zm3.869-83.641h-76.553l48.064 78.601a109.382 109.382 0 0 1 23.889-22.791 106.415 106.415 0 0 1 30.021-14.537l-25.421-41.273zm198.403 441.948V481.082l-60.046-97.74c-7.063 11.591-15.415 23.107-25.057 34.552-10.276 12.271-21.55 24.031-33.822 35.282-6.185 5.696-11.566 10.324-16.143 13.88-2.046 1.508-4.286 2.265-6.724 2.265-2.385 0-4.6-.757-6.645-2.265-8.572-6.77-17.435-14.683-26.592-23.741L268.524 534.26v79.988l57.638-48.43c2.289-1.949 4.942-2.778 7.961-2.484 3.02.243 5.504 1.532 7.451 3.872 1.949 2.29 2.802 4.943 2.557 7.962-.291 3.019-1.581 5.502-3.87 7.451l-52.595 44.193h255.378l-89.12-139.669-79.843 67.06c-2.289 1.946-4.942 2.8-7.961 2.557-3.019-.294-5.501-1.583-7.45-3.871-1.949-2.338-2.777-5.017-2.486-8.035.246-2.972 1.513-5.455 3.801-7.451l89.411-75.095c2.632-2.145 5.527-2.947 8.692-2.41 3.361.532 5.895 2.191 7.598 4.967l86.345 135.36zm18.701-460.648c2.143 2.143 3.213 4.724 3.213 7.743v58.585c0 3.019-1.07 5.6-3.213 7.743-2.144 2.143-4.726 3.214-7.744 3.214s-5.602-1.071-7.744-3.214c-2.14-2.143-3.213-4.724-3.213-7.743v-47.628H379.415l22.72 36.963c3.604-.195 6.306-.292 8.105-.292 14.563 0 28.516 2.825 41.858 8.474 12.857 5.454 24.252 13.125 34.188 23.01 9.888 9.936 17.559 21.331 23.011 34.188 5.649 13.294 8.475 27.222 8.475 41.784 0 18.993-4.603 38.521-13.808 58.584l48.067 78.237v-189.49c0-3.02 1.073-5.601 3.213-7.744 2.143-2.143 4.726-3.214 7.744-3.214s5.601 1.071 7.744 3.214 3.213 4.724 3.213 7.744l-.074 389.643-.437 1.826-.073.219-.586 1.39-.071.071c-.391.684-.682 1.122-.876 1.317l-.148.29-1.167 1.243-1.096.948-.22.075c-.194.193-.634.462-1.315.804l-.22.146-1.532.585h-.22l-1.535.365-1.313.07H257.497l-2.266-.219-.291-.071-.805-.294-.291-.071-.805-.294-.291-.146-1.096-.655-.146-.075-1.39-1.021-.95-1.024-.947-1.313-.585-1.096-.585-1.533-.075-.146-.291-1.536-.075-223.675c0-3.021 1.073-5.601 3.216-7.744 2.143-2.142 4.722-3.213 7.741-3.213 3.022 0 5.602 1.071 7.744 3.213 2.143 2.144 3.213 4.723 3.213 7.744v90.143l93.287-78.236c-16.802-18.65-30.099-37.255-39.886-55.809-12.758-24.058-19.138-47.142-19.138-69.251 0-15.536 3.213-30.34 9.642-44.414l-43.904-71.735v185.4c0 3.019-1.07 5.599-3.213 7.744-2.143 2.141-4.722 3.214-7.744 3.214-3.019 0-5.599-1.073-7.741-3.214-2.143-2.145-3.216-4.725-3.216-7.744l.075-225.723.585-2.483.146-.219.585-1.242v-.074l.071-.072.585-.95.22-.292.805-.877.071-.146.95-.876.291-.146 1.096-.731c.879-.487 1.681-.828 2.411-1.023l.365-.073a2.268 2.268 0 0 1 1.024-.219l.291-.074c.291-.048.756-.073 1.387-.073h305.42c3.02-.001 5.602 1.071 7.745 3.214zM463.421 86.251c3.021 0 5.625 1.071 7.816 3.214 2.144 2.143 3.216 4.724 3.216 7.743s-1.072 5.6-3.216 7.743c-2.191 2.143-4.796 3.215-7.816 3.215h-54.786c-3.019 0-5.599-1.072-7.742-3.215s-3.215-4.724-3.215-7.743 1.072-5.6 3.215-7.743c2.144-2.143 4.724-3.214 7.742-3.214h54.786zm-114.028 18.7c-2.142-2.143-3.215-4.724-3.215-7.743s1.073-5.6 3.215-7.743c2.143-2.143 4.723-3.214 7.742-3.214h19.652c3.019 0 5.599 1.071 7.741 3.214 2.143 2.143 3.216 4.724 3.216 7.743s-1.073 5.6-3.216 7.743c-2.142 2.143-4.722 3.215-7.741 3.215h-19.652c-3.019 0-5.599-1.072-7.742-3.215zm60.922 619.823c5.649 0 10.494-1.998 14.536-5.992 4.043-4.041 6.063-8.912 6.063-14.609 0-5.695-2.02-10.543-6.063-14.536-4.042-4.042-8.887-6.063-14.536-6.063-5.698 0-10.566 2.021-14.61 6.063-4.04 3.993-6.063 8.841-6.063 14.536 0 5.697 2.023 10.568 6.063 14.609 4.044 3.994 8.912 5.992 14.61 5.992zm0-63.117c11.736 0 21.744 4.166 30.024 12.493 8.326 8.278 12.489 18.287 12.489 30.022 0 11.737-4.163 21.769-12.489 30.098-8.28 8.327-18.288 12.489-30.024 12.489s-21.77-4.162-30.096-12.489c-8.329-8.329-12.492-18.36-12.492-30.098 0-11.735 4.163-21.744 12.492-30.022 8.327-8.327 18.36-12.493 30.096-12.493z" fill="{{colors[12]}}"/><path d="M598.928 96.186c0-11.055-3.92-20.479-11.759-28.271-7.842-7.841-17.29-11.761-28.345-11.761h-297.09c-11.054 0-20.502 3.92-28.344 11.761-7.841 7.792-11.762 17.215-11.762 28.271v624.058c0 11.056 3.921 20.479 11.762 28.271 7.841 7.84 17.29 11.759 28.344 11.759h297.09c11.055 0 20.503-3.919 28.345-11.759 7.839-7.792 11.759-17.216 11.759-28.271V96.186zm3.726-43.757c12.124 12.078 18.188 26.663 18.188 43.757v624.058c0 17.096-6.064 31.705-18.188 43.831-12.127 12.076-26.736 18.115-43.83 18.115h-297.09c-17.095 0-31.705-6.039-43.83-18.115-12.127-12.126-18.191-26.735-18.191-43.831V96.186c0-17.094 6.064-31.679 18.191-43.757 12.125-12.126 26.734-18.189 43.83-18.189h297.09c17.094 0 31.703 6.063 43.83 18.189z" fill="{{colors[12]}}"/><path d="M390.813 282.972c-5.408 5.405-8.111 11.882-8.111 19.431 0 7.597 2.703 14.098 8.111 19.504 5.404 5.406 11.881 8.108 19.428 8.108 7.6 0 14.1-2.702 19.508-8.108 5.404-5.406 8.106-11.907 8.106-19.504s-2.702-14.075-8.106-19.431c-5.408-5.406-11.886-8.109-19.433-8.109-7.597 0-14.099 2.703-19.503 8.109zm-30.025 19.431c0-13.636 4.845-25.275 14.539-34.918 9.641-9.691 21.281-14.537 34.914-14.537 13.638 0 25.303 4.846 34.993 14.537 9.69 9.643 14.535 21.282 14.535 34.918s-4.845 25.299-14.535 34.991c-9.642 9.691-21.281 14.537-34.918 14.537s-25.299-4.846-34.989-14.537c-9.695-9.643-14.539-21.306-14.539-34.991z" fill="{{colors[12]}}"/></g></svg>