<svg data-name="图层 1" xmlns="http://www.w3.org/2000/svg" viewBox="0 0 800 800" preserveAspectRatio="none"><path d="M575.2 669.8h-346a105.3 105.3 0 0 1-35.8-6.2 93 93 0 0 1-30.5-18.2 90.6 90.6 0 0 1-21.3-28.4 86.9 86.9 0 0 1-8.1-37.8V536a152.1 152.1 0 0 1 2.9-29.8 122.4 122.4 0 0 1 11-30.7 197.8 197.8 0 0 1 20.5-32.1 387.9 387.9 0 0 1 31.1-35.5c9.8-10.6 19.9-21.3 30.1-31.8l27.7-28.9 28.1-29.1a19.5 19.5 0 0 1 14.4-6.2h205.8a20 20 0 0 1 15.3 7.1c7.6 9.1 15.9 18.5 24.6 27.9l.4.5 24.9 28.5c9 10.3 18.5 21 28.2 31.8 0 .1.1.2.2.3 12.7 14.6 23.3 27.9 31.7 39.5s15.6 23.3 20.7 33.6a130 130 0 0 1 11.2 30.5 131.4 131.4 0 0 1 3 27.8v36.4a97.5 97.5 0 0 1-7.2 38 91.8 91.8 0 0 1-19.7 29.7 89.8 89.8 0 0 1-28.8 19.4 87.7 87.7 0 0 1-34.4 6.9zM307.8 351.9c-7.1 7.5-14.5 15.1-22.1 23l-27.8 28.9c-10.1 10.5-20.1 21-29.8 31.4 0 .1-.1.2-.2.3a371.7 371.7 0 0 0-28.2 32.2 160.1 160.1 0 0 0-16.5 25.7 84.1 84.1 0 0 0-7.6 20.8 109.7 109.7 0 0 0-2.1 21.8v43.2a46.9 46.9 0 0 0 4.2 20.5 50.8 50.8 0 0 0 11.8 15.9 54.8 54.8 0 0 0 17.7 10.4 62.1 62.1 0 0 0 22 3.8h346a47.8 47.8 0 0 0 18.8-3.7 49.9 49.9 0 0 0 16.1-10.9 51.8 51.8 0 0 0 11.1-16.8 58.8 58.8 0 0 0 4.1-22.6v-36.4a92.2 92.2 0 0 0-2.1-19.4 91.2 91.2 0 0 0-7.9-21 211.2 211.2 0 0 0-17.4-28.2c-7.6-10.6-17.5-22.9-29.3-36.5-9.8-10.9-19.3-21.7-28.4-32l-24.8-28.4a918.7 918.7 0 0 1-19.6-22z" fill="{{colors[0]}}"/><path d="M399.7 570.2a97.9 97.9 0 0 1-38.6-7.8 99.3 99.3 0 0 1-31.5-21 100.5 100.5 0 0 1-21-31.5 97.9 97.9 0 0 1-7.8-38.6 95.9 95.9 0 0 1 7.8-38.4 98.4 98.4 0 0 1 52.5-52.1 97.9 97.9 0 0 1 38.6-7.8 96 96 0 0 1 38.4 7.9 99.4 99.4 0 0 1 31 21 98.2 98.2 0 0 1 21 31 96 96 0 0 1 7.9 38.4 97.9 97.9 0 0 1-7.8 38.6 97.8 97.8 0 0 1-52.1 52.4 94.3 94.3 0 0 1-38.4 7.9zm0-157.2a57.5 57.5 0 0 0-22.9 4.6 59.9 59.9 0 0 0-18.9 12.5 61 61 0 0 0-12.6 18.7 56.5 56.5 0 0 0-4.5 22.5 57.5 57.5 0 0 0 4.6 22.9 56.7 56.7 0 0 0 12.5 18.9 59.9 59.9 0 0 0 18.9 12.5 57.5 57.5 0 0 0 22.9 4.6 56.5 56.5 0 0 0 22.5-4.5 62.2 62.2 0 0 0 18.7-12.6 59.9 59.9 0 0 0 12.5-18.9 57.5 57.5 0 0 0 4.6-22.9 54.9 54.9 0 0 0-4.6-22.5 57.7 57.7 0 0 0-31.2-31.2 54.9 54.9 0 0 0-22.5-4.6zm272.2-48.4h-77.7c-16 0-30.4-5.8-41.5-17s-17-25.5-17-41.5V287H264.3v19.1c0 16-5.8 30.4-17 41.5s-25.5 17-41.5 17h-77.7a58.9 58.9 0 0 1-41.6-16.8A57.3 57.3 0 0 1 69 306.1v-40.4a41 41 0 0 1 7.4-24.2 62.9 62.9 0 0 1 13.4-13.9 95.1 95.1 0 0 1 15.7-9.9c3.9-2 7.9-4.2 11.9-6.7l1.2-.7 30.9-16.6c16.6-8.9 37.7-18.1 62.6-27.5s53.7-17.8 85.3-25 66.8-11 102.9-11c41.1 0 78.4 3.7 111 11s60.5 15.7 84.3 25.2 43.6 18.8 58.4 27.9c16.6 10.2 23.7 14.1 26.8 15.6l1.1.6c4.6 2.7 9.1 5.1 13.2 7.2a95.1 95.1 0 0 1 15.7 9.9 58.2 58.2 0 0 1 13.6 14.5 42.8 42.8 0 0 1 6.6 23.6v40.4a57 57 0 0 1-17.6 41.7 58.4 58.4 0 0 1-41.5 16.8zM244.3 247h311.4a20 20 0 0 1 20 20v39.1a18.1 18.1 0 0 0 18.5 18.5h77.7a18.5 18.5 0 0 0 13.7-5.5 16.7 16.7 0 0 0 5.4-13v-40.4a5.9 5.9 0 0 0-.2-1.9 24.4 24.4 0 0 0-4.5-4.7 61.2 61.2 0 0 0-9.1-5.6c-4.7-2.4-9.7-5.1-14.9-8.1s-15.2-8.4-29.2-17-30.4-16.2-52.2-24.9-48.3-16.5-78.4-23.3-64.1-10-102.2-10c-33.1 0-64.8 3.3-94 10s-56.8 14.7-80.1 23.5-42.8 17.3-57.9 25.3-25.2 13.4-30 16.1a170.7 170.7 0 0 1-14.9 8.4 66.8 66.8 0 0 0-9.1 5.6 28.7 28.7 0 0 0-5.2 5.3c0 .2-.1.6-.1 1.3v40.4a16.7 16.7 0 0 0 5.4 13 18.5 18.5 0 0 0 13.7 5.5h77.7a18.1 18.1 0 0 0 18.5-18.5V267a20 20 0 0 1 20-20z" fill="{{colors[0]}}"/></svg>