<svg xmlns="http://www.w3.org/2000/svg" viewBox="0 0 800 800" preserveAspectRatio="none"><linearGradient id="a" gradientUnits="userSpaceOnUse" x1="98.826" y1="412.217" x2="701.174" y2="412.217"><stop offset="0" stop-color="{{colors[0]}}"/><stop offset="1" stop-color="{{colors[1]}}"/></linearGradient><path fill="url(#a)" d="M698.33 687.81l-7.87-7.87 10.71-10.71v-35.07l-28.24 28.25-7.87-7.87 36.11-36.11v-35.07l-53.64 53.65-7.87-7.87 61.51-61.51v-35.07l-79.04 79.05-7.87-7.87 86.91-86.91v-35.07L596.73 586.21l-7.87-7.87 112.31-112.31v-35.07L571.33 560.8l-7.87-7.86 137.71-137.71v-35.07L545.93 535.4l-7.87-7.86 163.11-163.11v-35.07L520.53 510l-7.87-7.86 188.51-188.52v-35.06L495.13 484.6l-7.87-7.86 213.91-213.92v-35.06L469.73 459.2l-7.87-7.86 239.31-239.32v-35.06L444.33 433.8l-7.87-7.86 264.71-264.72v-35.06L418.93 408.4l-7.87-7.86 289.49-289.5h-35.06L393.53 383l-7.87-7.87 264.09-264.09h-35.06L368.13 357.6l-7.87-7.87 238.69-238.69h-35.06L342.73 332.2l-7.87-7.87 213.29-213.29h-35.06L317.33 306.8l-7.87-7.87 187.89-187.89h-35.06L291.93 281.4l-7.87-7.87 162.49-162.49h-35.06L266.53 256l-7.87-7.87 137.09-137.09h-35.06L241.13 230.6l-7.87-7.87 111.69-111.69h-35.06l-94.16 94.16-7.87-7.87 86.29-86.29h-35.06l-68.76 68.76-7.87-7.87 60.89-60.89h-35.07l-43.35 43.36-7.87-7.87 35.49-35.49h-35.07L139.53 129l-7.87-7.87 10.09-10.09h-39.84l290.9 290.9-7.87 7.87L98.83 123.69v28.43l4.46-4.46 7.86 7.87-12.32 12.33v35.07l29.86-29.87 7.86 7.87-37.72 37.73v35.07l55.26-55.27 7.86 7.87-63.12 63.13v35.07l80.66-80.67 7.87 7.87-88.53 88.53v35.07l106.06-106.06 7.87 7.86L98.83 371.06v35.07l131.46-131.46 7.87 7.86L98.83 421.86v35.07l156.86-156.86 7.87 7.86L98.83 472.66v35.07l182.26-182.26 7.87 7.86L98.83 523.46v35.07l207.66-207.66 7.87 7.86L98.83 574.27v35.06l233.06-233.06 7.87 7.86L98.83 625.07v35.06l258.46-258.46 7.87 7.86L98.83 675.87v35.06l283.86-283.86 7.87 7.86L112.1 713.39h35.07l260.92-260.92 7.87 7.87L162.9 713.39h35.07l235.52-235.52 7.87 7.87L213.7 713.39h35.07l210.12-210.12 7.87 7.87L264.5 713.39h35.07l184.72-184.72 7.87 7.87L315.3 713.39h35.07l159.32-159.32 7.87 7.87L366.1 713.39h35.07l133.92-133.92 7.87 7.87L416.9 713.39h35.07l108.52-108.52 7.87 7.87L467.7 713.39h35.07l83.12-83.12 7.87 7.87-75.25 75.25h35.06l57.72-57.72 7.87 7.87-49.85 49.85h35.06l32.32-32.32 7.87 7.87-24.45 24.45h35.06l6.92-6.92 6.92 6.92h19.52L406.85 431.72l7.87-7.87L701.17 710.3v-25.34z"/></svg>