<svg xmlns="http://www.w3.org/2000/svg" data-name="图层 1" viewBox="0 0 160 162.83" preserveAspectRatio="none"><path d="M21.6 135c-.06-.07-.13-.13-.2-.2a.18.18 0 0 0-.25 0 1 1 0 0 1-.39.26 1 1 0 0 0-.52.33l-.24.25a.54.54 0 0 1-.49.18l-.41-.06a.49.49 0 0 0-.27.06 5 5 0 0 0-.83.82.47.47 0 0 0-.07.19c0 .06 0 .14-.06.2a.24.24 0 0 1-.2.16h-.14c-.23 0-.32.14-.31.37s0 .36 0 .55a.55.55 0 0 1-.16.44c-.15.14-.31.28-.45.43a.41.41 0 0 0-.12.38v.14a.46.46 0 0 1-.11.39 1 1 0 0 1-.73.47h-.13a.25.25 0 0 0-.15.22 5 5 0 0 1 0 .55.63.63 0 0 0 .22.61.7.7 0 0 1 .14.16.35.35 0 0 1 0 .33.34.34 0 0 1-.27.18h-.7a.5.5 0 0 0-.37.14l-.64.64a1 1 0 0 0-.08.11.35.35 0 0 0 .2.5 3 3 0 0 0 .42 0 .46.46 0 0 0 .37-.15l.58-.59a1.17 1.17 0 0 1 .52-.32.74.74 0 0 0 .46-.29l.19-.2a.76.76 0 0 1 .42-.23.65.65 0 0 0 .2 0 .24.24 0 0 0 .15-.21v-.69c0-.23-.11-.43 0-.61a3 3 0 0 1 .42-.46c.19-.2.39-.39.59-.58a.64.64 0 0 1 .28-.19 1.68 1.68 0 0 0 .6-.33.35.35 0 0 1 .33-.05.55.55 0 0 0 .61-.2 1.18 1.18 0 0 0 .34-.52 1 1 0 0 1 .32-.52l.43-.45a.78.78 0 0 0 .31-.52.62.62 0 0 1 .17-.29.7.7 0 0 0 .21-.56 4.86 4.86 0 0 1 0-.54zm121.94-60.93a1.29 1.29 0 0 0-.34 0 .59.59 0 0 1-.51-.16.79.79 0 0 0-.75-.24h-.28c-.09 0-.34.08-.37.31a.76.76 0 0 1-.24.48c-.15.14-.3.29-.44.44a.33.33 0 0 0 0 .44c.16.17.32.32.49.49h.56a.49.49 0 0 1 .19.07.4.4 0 0 1 .1.38.36.36 0 0 1-.29.26 1.47 1.47 0 0 1-.21 0c-.44-.06-.53 0-.53.48v.34a.18.18 0 0 0 .25.14.57.57 0 0 0 .16-.11.53.53 0 0 1 .44-.17c.29 0 .59.05.89.06a1.31 1.31 0 0 0 .27-.06s.1-.12.07-.17a.27.27 0 0 0-.11-.16c-.12 0-.26-.07-.39-.11a.22.22 0 0 1-.16-.21 5.09 5.09 0 0 1 0-.55l.73-.75a.49.49 0 0 1 .3-.14l.21-.05a.25.25 0 0 0 .17-.2 1.1 1.1 0 0 0-.06-.67.28.28 0 0 0-.15-.14zm-97.86 33.82a1.07 1.07 0 0 0-.28.19.49.49 0 0 1-.43.15h-.14c-.08 0-.14.16-.08.22l.33.35a.51.51 0 0 0 .37.15h.41a.3.3 0 0 0 .26-.28 1.48 1.48 0 0 1 0-.21v-.34a.32.32 0 0 0-.44-.23zm78.12-26.48c-.1 0-.18.1-.17.23a.19.19 0 0 0 .24.16.17.17 0 0 0 .15-.18.24.24 0 0 0-.22-.21zm-68.71 19.76h-.83a1.33 1.33 0 0 0-.2 0c-.07 0-.15 0-.15.12a.27.27 0 0 0 .05.18 2 2 0 0 0 .51.45.23.23 0 0 0 .2 0 1.42 1.42 0 0 0 .55-.51.15.15 0 0 0 0-.13s-.08-.1-.13-.11zm-11.28 6.67a.2.2 0 0 0-.19.22c0 .12.11.18.24.18a.17.17 0 0 0 .16-.18.25.25 0 0 0-.21-.22zm-.13-2.53a.35.35 0 0 0-.36-.26h-2.21a.32.32 0 0 0-.28.16.28.28 0 0 0 0 .33 4.51 4.51 0 0 0 .4.47c0 .06.13 0 .19 0s.09-.1.15-.14.17-.09.24 0a1.9 1.9 0 0 0 .48.27 1.08 1.08 0 0 1 .29.18c.27.24.43.32.75 0l.15-.15a.76.76 0 0 0 .2-.86z" fill="{{colors[0]}}"/><path d="M148.3 51.08a.29.29 0 0 1 .24-.29h.76c.27 0 .38 0 .43-.34A1.13 1.13 0 0 1 150 50a.16.16 0 0 0 0-.19c-.06-.07-.13-.12-.19-.2s0-.08 0-.12a.12.12 0 0 1 .18 0 2.85 2.85 0 0 0 .26.23.31.31 0 0 0 .32 0 .44.44 0 0 0 .19-.1.65.65 0 0 1 .54-.23.33.33 0 0 0 .18-.08s0-.2-.06-.26a3.65 3.65 0 0 0-.36-.31.12.12 0 0 0-.13 0 1.73 1.73 0 0 0-.21.17.59.59 0 0 1-.51.15h-.69a.56.56 0 0 0-.44.17 1.81 1.81 0 0 1-.21.18.41.41 0 0 1-.39 0l-.2-.19c-.22-.24-.44-.48-.67-.71a1 1 0 0 1-.31-.52.45.45 0 0 0-.12-.25.89.89 0 0 1-.23-.89.5.5 0 0 0 0-.21 1.06 1.06 0 0 0-.09-.25 1.21 1.21 0 0 0-.19-.2c-.13-.13-.27-.26-.39-.4a.35.35 0 0 1 .05-.49l.16-.13a.19.19 0 0 0 0-.25l-.2-.19a.83.83 0 0 0-.69-.24h-.28c-.07 0-.15.14-.12.21a1 1 0 0 0 .12.16.59.59 0 0 1 .21.56 2.57 2.57 0 0 0 0 .48 1.2 1.2 0 0 1 0 .2c0 .09-.15.16-.21.11-.3-.25-.69-.36-1-.59-.12-.09-.3-.09-.44-.18s-.09-.3-.16-.44a.66.66 0 0 0-.12-.17l-.28-.3a1.4 1.4 0 0 0-.69-.43.66.66 0 0 1-.35-.21l-.3-.3a.55.55 0 0 0-.5-.17 2.15 2.15 0 0 1-.62 0 .38.38 0 0 1-.28-.27 1.48 1.48 0 0 1 0-.21.66.66 0 0 1 .27-.66 2.94 2.94 0 0 0 .4-.39s0-.2-.08-.22a1.44 1.44 0 0 0-.62 0 .42.42 0 0 0-.18.08 1.11 1.11 0 0 0-.48.73.32.32 0 0 1-.35.27h-.07a4.3 4.3 0 0 0-1.24 0 .38.38 0 0 1-.32-.1 2.73 2.73 0 0 1-.35-.33.47.47 0 0 1-.12-.32v-.62a.5.5 0 0 1 .18-.43.46.46 0 0 0 .15-.44 2.44 2.44 0 0 1 0-.27.23.23 0 0 1 0-.14 1.05 1.05 0 0 1 .55-.49 1.48 1.48 0 0 0 .74-.47c.17-.17.19-.32 0-.49a1.22 1.22 0 0 1-.35-.66v-.06a.33.33 0 0 0-.41-.14l-.17.12c-.09.08-.16.17-.25.24a.32.32 0 0 1-.48-.21 1.37 1.37 0 0 1 0-.35.54.54 0 0 0-.09-.39 2 2 0 0 1-.3-.46 3.2 3.2 0 0 0-.3-.54 1.62 1.62 0 0 0 .28-.4 1.6 1.6 0 0 1 .54-.78c.13-.13.27-.25.41-.37a.23.23 0 0 0 0-.36l-.05-.05a.49.49 0 0 1-.2-.54.39.39 0 0 0-.18-.48.34.34 0 0 1-.15-.3.66.66 0 0 0-.26-.47.61.61 0 0 1-.12-.16.24.24 0 0 1 0-.27l.27-.31a.18.18 0 0 0-.11-.27.93.93 0 0 1-.68-.28s-.08 0-.12-.07a.33.33 0 0 0-.36.14.5.5 0 0 0 0 .13.88.88 0 0 1-.36.64.64.64 0 0 1-.57.19.57.57 0 0 0-.51.15.68.68 0 0 1-.42.21.48.48 0 0 0-.3.15 1.18 1.18 0 0 1-.22.17.23.23 0 0 1-.26 0 .92.92 0 0 1-.22-.17.54.54 0 0 0-.43-.17h-1.04a.33.33 0 0 1-.28-.27.81.81 0 0 0-.31-.59 1.8 1.8 0 0 1-.19-.2 1.29 1.29 0 0 0-.63-.41 1 1 0 0 1-.4-.26l-.33-.35a1.75 1.75 0 0 0-.68-.46 1.1 1.1 0 0 1-.36-.21c-.19-.16-.37-.34-.55-.52a.21.21 0 0 1 0-.25c.08-.08.17-.16.24-.24a.29.29 0 0 0 0-.38.28.28 0 0 0-.11-.08 1.25 1.25 0 0 1-.68-.31.8.8 0 0 0-.33-.09 2.45 2.45 0 0 0-.27 0 .36.36 0 0 1-.35-.36v-1.38a.36.36 0 0 0-.31-.4.86.86 0 0 1-.54-.28l-.29-.29a.74.74 0 0 0-.84-.05 1.2 1.2 0 0 0-.21.17.47.47 0 0 1-.38.14.71.71 0 0 0-.74.26.4.4 0 0 1-.18.1.35.35 0 0 1-.2 0 .29.29 0 0 1-.16-.21 2.44 2.44 0 0 1 0-.27.72.72 0 0 0 0-.41c-.08-.14-.23-.12-.36-.17a1.68 1.68 0 0 1-.3-.15 1.22 1.22 0 0 0-.5-.24.32.32 0 0 1-.23-.23v-.2c0-.06-.14-.25-.29-.25h-1.57a1.56 1.56 0 0 0-.19.13 2.06 2.06 0 0 1-1 .69c-.06 0-.11.09-.17.12a.78.78 0 0 1-.9 0 1.12 1.12 0 0 0-.62-.27.16.16 0 0 1-.08-.27 1.22 1.22 0 0 0 .33-.66 1.45 1.45 0 0 1 .21-.08 1.12 1.12 0 0 0 .7-.41.2.2 0 0 0 0-.25l-.35-.34a.2.2 0 0 0-.25 0 1 1 0 0 1-.39.26 1.12 1.12 0 0 0-.42.25.49.49 0 0 1-.38.12h-1.32a.39.39 0 0 1-.3-.14l-.15-.14a2.12 2.12 0 0 1-.73-1.08 1.53 1.53 0 0 0-.25-.06 1.31 1.31 0 0 0-.28 0 .93.93 0 0 1-.83-.22.2.2 0 0 0-.26 0l-.1.09a.6.6 0 0 1-.44.17 1.93 1.93 0 0 0-.34 0 .67.67 0 0 1-.57-.2.62.62 0 0 0-.23-.14 1.39 1.39 0 0 1-.68-.45c-.17-.16-.33-.33-.49-.49a.66.66 0 0 0-.56-.21h-2.42a.78.78 0 0 1-.57-.2c-.28-.23-.38-.23-.65 0l-.11.09a.59.59 0 0 1-.44.16.69.69 0 0 1-.51-.19l-.72-.74a3.3 3.3 0 0 0-.64-.56h-2.6a.84.84 0 0 1-.7-.22.32.32 0 0 0-.18-.1 1.07 1.07 0 0 1-.55-.28.81.81 0 0 0-.59-.07l-1.66.07a.56.56 0 0 1-.43-.16l-.5-.49a.42.42 0 0 0-.31-.13h-2a.44.44 0 0 1-.38-.12.68.68 0 0 0-.63-.21.51.51 0 0 1-.44-.15c-.12-.11-.23-.23-.34-.34-.31-.32-.62-.63-.91-.95a.85.85 0 0 0-.86-.33 1.93 1.93 0 0 1-.34 0 .52.52 0 0 1-.32-.11 1.86 1.86 0 0 0-.28-.21.27.27 0 0 0-.19-.06.77.77 0 0 1-.8-.27h-.08a.53.53 0 0 0-.15.12.49.49 0 0 1-.48.21h-.96c-.18 0-.31-.2-.47-.29h-.06a2 2 0 0 1-.9-.63 3.83 3.83 0 0 1-.28-.29.52.52 0 0 0-.5-.19.63.63 0 0 1-.62-.2.65.65 0 0 0-.58-.17h-.48a.58.58 0 0 0-.24.11 1.8 1.8 0 0 0-.2.19.36.36 0 0 1-.4 0 1.71 1.71 0 0 1-.2-.18c-.25-.24-.37-.27-.64 0l-.23.26-.19.21a.2.2 0 0 1-.25 0l-.3-.26h-.62a.65.65 0 0 0-.56.22.66.66 0 0 1-.5.18h-2.79l-.21-.17-.39-.39a.63.63 0 0 0-.5-.19h-2.75l-.29-.23a.47.47 0 0 0-.38-.14.8.8 0 0 1-.76-.24c0-.05-.12-.06-.19-.08a1.32 1.32 0 0 1-.62-.42.89.89 0 0 0-.91-.35h-.42a.61.61 0 0 1-.57-.17.43.43 0 0 0-.23-.14 1.35 1.35 0 0 1-.6-.32.69.69 0 0 0-.46-.1l-.76.06a.94.94 0 0 1-.82-.26.92.92 0 0 0-.92 0l-.15.14a.67.67 0 0 1-.45.16h-.41a.51.51 0 0 1-.38-.14c-.19-.17-.36-.35-.55-.53a.4.4 0 0 0-.31-.13h-1.11a.68.68 0 0 0-.61.24.47.47 0 0 1-.37.16h-.9c-.34 0-.37 0-.47-.37A.75.75 0 0 0 57 10a1.08 1.08 0 0 0-.6-.45 1 1 0 0 1-.52-.32l-.3-.29a.49.49 0 0 0-.31-.13h-1.28a.54.54 0 0 1-.38-.15c-.14-.15-.3-.29-.44-.44a.46.46 0 0 0-.31-.13 3 3 0 0 0-.42 0 .24.24 0 0 0-.2.16 2.16 2.16 0 0 0 0 .27c0 .2-.14.29-.32.3h-.21a.78.78 0 0 1-.71-.21c-.09-.11-.2-.2-.3-.3a.63.63 0 0 0-.49-.19h-4.02a.48.48 0 0 1-.4-.12l-.1-.1-.79-.78c-.14-.14-.27-.33-.48-.38a2 2 0 0 1-.63-.38h-1a.7.7 0 0 1-.57-.2.72.72 0 0 0-.62-.16h-1.31a.63.63 0 0 1-.51-.17.81.81 0 0 0-.42-.22.72.72 0 0 1-.36-.2.71.71 0 0 0-.51-.14h-1.45a.42.42 0 0 1-.32-.11L36.38 5h-.41a.55.55 0 0 1-.43-.17.68.68 0 0 0-.63-.21h-.21a.58.58 0 0 1-.56-.18.59.59 0 0 0-.5-.18h-.21a.81.81 0 0 1-.76-.21c-.08-.08-.21-.1-.31-.16a1.58 1.58 0 0 1-.36-.2.67.67 0 0 0-.51-.15H30a.6.6 0 0 1-.5-.18l-.06-.05a.6.6 0 0 0-.5-.18h-.69a.57.57 0 0 1-.5-.17.53.53 0 0 0-.5-.18.58.58 0 0 1-.56-.18.69.69 0 0 0-.57-.2h-2.73a2.73 2.73 0 0 0-.31.27c-.12.11-.22.24-.33.35a.23.23 0 0 1-.26 0l-.35-.34a10.94 10.94 0 0 0-1-1h-1.58c-.23.15-.43.4-.76.42-.05 0-.11.07-.16.11s-.14.12-.22.17a.23.23 0 0 1-.26 0 1.17 1.17 0 0 1-.57-.67 1.14 1.14 0 0 0-.36-.57.56.56 0 0 0-.5-.19h-.41a.58.58 0 0 1-.5-.18.5.5 0 0 0-.43-.18h-1a.83.83 0 0 0-.8.29h-.05a.35.35 0 0 1-.33 0L13 1c-.34-.31-.39-.31-.74 0v.05a.7.7 0 0 1-1 0l-.53-.62a.38.38 0 0 0-.45 0l-.28.3a.33.33 0 0 1-.33 0L9.36.46a.35.35 0 0 0-.5 0c-.07.06-.13.14-.2.19a.32.32 0 0 1-.18.1.68.68 0 0 1-.71-.12A.79.79 0 0 0 7 .38h-.32a.4.4 0 0 1-.31-.12.12.12 0 0 0 0-.05C6.13.05 6 .07 5.86.26l-.21.27a.26.26 0 0 1-.37.06C5 .37 4.57.27 4.25 0H4c-.08 0-.17.2-.1.28a1.15 1.15 0 0 0 .53.42A2.38 2.38 0 0 1 5 1a.42.42 0 0 0 .33.08h.2a.38.38 0 0 1 .32.1l.09.1c.54.52.38.57 1.26.48a.46.46 0 0 1 .38.13c.25.24.5.48.73.73a.43.43 0 0 1 .1.25.82.82 0 0 1-.24.75.92.92 0 0 1-.83.38 2.44 2.44 0 0 0-.27 0 .44.44 0 0 1-.32-.13c-.2-.19-.39-.39-.6-.57a.37.37 0 0 0-.24-.1H4.8a.27.27 0 0 0-.23.22v.9a.46.46 0 0 0 .1.25c.07.09.16.17.23.25a.54.54 0 0 0 .42.18h.62c.28 0 .4.15.37.45a2.51 2.51 0 0 0 0 .27.24.24 0 0 0 .12.24c.31.11.57.3.86.42a1.59 1.59 0 0 1 .62.42 1.06 1.06 0 0 0 .59.35.71.71 0 0 1 .25.11c.25.24.49.48.73.74a.33.33 0 0 1-.15.51 2.16 2.16 0 0 1-.27 0 .28.28 0 0 0-.25.28 2.81 2.81 0 0 0 0 .41.28.28 0 0 0 .23.3 1.41 1.41 0 0 1 .5.22 1.3 1.3 0 0 0 .37.19.82.82 0 0 1 .35.2c.21.21.42.43.64.63a.42.42 0 0 0 .22.16c.37.07.62.4 1 .44a.46.46 0 0 1 .23.14l.35.34a.69.69 0 0 0 .3.18.82.82 0 0 1 .63.5 3.21 3.21 0 0 0 .35.66.14.14 0 0 1 0 .19l-.24.24a.63.63 0 0 1-.5.19 11.66 11.66 0 0 1-1.32-.06.25.25 0 0 0-.24.09c-.06.05-.05.15 0 .25a.8.8 0 0 1 .22.34 1.29 1.29 0 0 0 .57.74h.08a1 1 0 0 1 .89.26.41.41 0 0 0 .19.08 1 1 0 0 1 .56.38c.11.12.23.22.35.33a.72.72 0 0 1 .22.35.76.76 0 0 0 .29.45 1 1 0 0 1 .36.5 1.6 1.6 0 0 0 .52.8.8.8 0 0 1 .27.47.62.62 0 0 0 .17.29 6 6 0 0 0 .43.45 1 1 0 0 1 .44.67c0 .17.16.28.27.4a1.32 1.32 0 0 1 .45.68.36.36 0 0 0 .11.17l1.36 1.37a.36.36 0 0 0 .25.11h.62c.2 0 .35.06.41.28a1 1 0 0 0 .24.49.63.63 0 0 1 .17.57 7.72 7.72 0 0 0-.06.83.3.3 0 0 0 .19.27l.47.14a1.4 1.4 0 0 0 .56.93c.17.15.33.32.49.48a.62.62 0 0 0 .34.22 1.08 1.08 0 0 1 .58.36c.24.24.49.48.73.73a1.12 1.12 0 0 0 .64.38.29.29 0 0 1 .23.23 1.29 1.29 0 0 0 .24.5.57.57 0 0 1 .11.25 1 1 0 0 0 .36.57l.49.49c.18.18.37.35.54.51 0 .16-.1.22-.18.3s-.06.16 0 .19a2 2 0 0 1 .36.73.22.22 0 0 0 .17.1h.41a.4.4 0 0 1 .31.13l.14.15a2.41 2.41 0 0 0 1.1.81.91.91 0 0 1 .39.28c.32.34.42.47 1 .35h.14a.46.46 0 0 1 .38.13l.39.39 1.66 1.66a1 1 0 0 0 .59.34.8.8 0 0 1 .3.16c.2.19.39.39.58.59a.51.51 0 0 1 .15.31.36.36 0 0 0 .08.25l.49.19a2.16 2.16 0 0 0 .36.2 1.06 1.06 0 0 1 .52.33l.39.39a1.26 1.26 0 0 0 .76.44c.05 0 .1.08.14.13a.08.08 0 0 1 0 .07c0 .37.28.56.54.75a.33.33 0 0 0 .2 0 .71.71 0 0 0 .2 0 .41.41 0 0 1 .38.13l.53.54 1.18 1.17.27.22a.39.39 0 0 0 .33.07.52.52 0 0 1 .61.18 1.22 1.22 0 0 1 .38.56 1 1 0 0 0 .72.68c.25 0 .35.14.34.43a1.23 1.23 0 0 0 0 .27.48.48 0 0 0 .09.26c.23.29.49.56.93.43h.14a.67.67 0 0 1 .57.18 1.1 1.1 0 0 0 .43.22 1 1 0 0 1 .29.16c.2.17.37.35.56.53a.65.65 0 0 1 .2.56v.41a.47.47 0 0 0 .13.38l.3.29a.49.49 0 0 0 .38.13 6.2 6.2 0 0 0 .62-.06.84.84 0 0 1 .74.28.89.89 0 0 1 .3.53.5.5 0 0 0 0 .13.25.25 0 0 0 .2.17h.42a.41.41 0 0 0 .31-.12.71.71 0 0 1 .74-.25 1.88 1.88 0 0 0 .41 0c.4 0 .62-.09.68.52 0 0 0 .08.06.12a.18.18 0 0 0 .19 0s.12-.09.13-.14 0-.23 0-.34a.16.16 0 0 1 .2-.13h.06a1.09 1.09 0 0 0 .6.31.22.22 0 0 1 .17.2.7.7 0 0 0 .27.54l.28.3a1 1 0 0 0 .66.35.2.2 0 0 1 .18.18.78.78 0 0 0 .12.39 4.57 4.57 0 0 0 .45.43.39.39 0 0 0 .19.06 1.48 1.48 0 0 0 .21 0 .47.47 0 0 1 .43.16.47.47 0 0 0 .1.1.23.23 0 0 0 .26 0l.23-.25a.21.21 0 0 1 .26 0l.37.31a.73.73 0 0 1 .27.74.6.6 0 0 1-.12.24c-.05.07-.13.13-.19.2a.13.13 0 0 0 0 .18 2.83 2.83 0 0 0 .24.25.31.31 0 0 1 0 .44c-.06.07-.14.12-.2.19a.37.37 0 0 0 0 .55l.24.25c.34.35.47.28.74 0a.42.42 0 0 1 .31-.13h.35a.74.74 0 0 0 .78-.31.15.15 0 0 1 .19 0l.3.29c.16.16.33.32.49.49a.29.29 0 0 1 0 .38s-.05.08-.09.1a.69.69 0 0 0-.25.61v.62a.31.31 0 0 0 .27.27.32.32 0 0 0 .14 0 .52.52 0 0 1 .57.14.75.75 0 0 0 .63.23h.41a.5.5 0 0 0 .38-.14.61.61 0 0 1 .62-.2.41.41 0 0 0 .38-.11l.21-.18a.36.36 0 0 1 .19-.08h1.14a.46.46 0 0 1 .25.1.9.9 0 0 1 .2.19.65.65 0 0 1 .23.55v.83a.42.42 0 0 0 .09.33.84.84 0 0 1 .24.62.14.14 0 0 0 .13.14h.19a.87.87 0 0 0 .11-.09c.16-.17.25-.42.49-.48a4.94 4.94 0 0 1 .68 0h.14a.54.54 0 0 1 .32.11l.2.19c.75.74.63.44.65 1.55a.73.73 0 0 1-.25.62.6.6 0 0 0-.18.57v.27a.61.61 0 0 1-.18.57.6.6 0 0 0-.15.45v1.03a.31.31 0 0 1-.27.28.72.72 0 0 0-.49.2.49.49 0 0 1-.18.11 2.06 2.06 0 0 0-.94.68c-.11.12-.22.24-.34.35a.77.77 0 0 0-.28.53.47.47 0 0 1-.13.24l-.69.68a2.73 2.73 0 0 0-.23.25.32.32 0 0 0 .16.46 2.7 2.7 0 0 0 .41.06.52.52 0 0 0 .44-.16l.54-.54a.73.73 0 0 0 .21-.42 1.06 1.06 0 0 1 .56-.67.33.33 0 0 1 .2 0l.82.07a.5.5 0 0 0 .45-.14.65.65 0 0 1 .16-.13.42.42 0 0 1 .24-.1.9.9 0 0 0 .91-.36h.26c.36.23.67.49.59 1a.82.82 0 0 0 0 .27.66.66 0 0 1-.28.67 1.19 1.19 0 0 0-.2.19.74.74 0 0 0-.18.29 1 1 0 0 1-.4.62l-.39.39-1 1A.94.94 0 0 0 68 71c0 .15-.15.23-.21.35s-.09.31-.16.45a.72.72 0 0 1-.18.21l-.69.69a.5.5 0 0 0-.15.37 2.44 2.44 0 0 1 0 .27c0 .09 0 .21-.07.26a2 2 0 0 0-.28.55 1.1 1.1 0 0 1-.74.68.77.77 0 0 0-.25.1 1.42 1.42 0 0 1-.62.29s-.1.08-.12.14a1.31 1.31 0 0 0-.06.27.28.28 0 0 1-.24.22h-.2a.3.3 0 0 0-.26.28v.55a.65.65 0 0 1-.14.52.87.87 0 0 0-.19.37 1.15 1.15 0 0 1-.43.61.5.5 0 0 1-.37.14h-.42a.21.21 0 0 0-.18.18.8.8 0 0 1-.3.6 2.73 2.73 0 0 0-.33.35.42.42 0 0 0-.08.18 2 2 0 0 1-.32.94.25.25 0 0 0-.06.13.88.88 0 0 1-.38.62L57.81 84a1.69 1.69 0 0 0-.45.68 5.4 5.4 0 0 1-.38.81.84.84 0 0 1-.74.55.6.6 0 0 0-.24.12 1 1 0 0 0-.34.51 1 1 0 0 1-.86.77.27.27 0 0 0-.23.3 2.48 2.48 0 0 0 0 .27.49.49 0 0 1-.14.38c-.13.13-.26.26-.38.4a.75.75 0 0 0-.23.49.45.45 0 0 1-.13.23 6.17 6.17 0 0 1-.43.46l-1.62 1.61a.52.52 0 0 0-.19.27 1.19 1.19 0 0 1-.44.69 1.37 1.37 0 0 0-.23.25.37.37 0 0 0-.08.33.57.57 0 0 1-.14.57.84.84 0 0 0-.24.49.31.31 0 0 1-.32.3.55.55 0 0 0-.43.2l-.24.24a.29.29 0 0 0 0 .43c.06.07.13.12.19.19a.21.21 0 0 1 0 .31 2.73 2.73 0 0 1-.25.23.67.67 0 0 1-.58.16c-.27 0-.55 0-.82-.06s-.28 0-.3.23a1.2 1.2 0 0 1-.41.7c-.4.37-.38.34-.35.9v.83c0 .89.1.64-.55 1.31l-.15.14a.66.66 0 0 1-.17.12c-.38.09-.67.4-1.07.45 0 0-.11.09-.13.14a2.7 2.7 0 0 0 0 .28.25.25 0 0 1-.17.19c-.15.06-.32 0-.45.17a1.87 1.87 0 0 1-.61.32.75.75 0 0 0-.51.6c0 .25-.14.38-.4.37a.65.65 0 0 0-.2 0 .26.26 0 0 0-.15.22.55.55 0 0 0 .06.26c.11.15.24.28.36.42a.15.15 0 0 0 .19 0 .87.87 0 0 0 .11-.09c.19-.16.19-.16.34 0s.1.12.16.13c.39.08.65.43 1 .49a.43.43 0 0 1 .23.14c.19.17.37.35.55.53l.18.21a.62.62 0 0 0 .43.18.7.7 0 0 0 .63-.22 3.59 3.59 0 0 1 .39-.39.59.59 0 0 1 .51-.16 3.29 3.29 0 0 0 .54 0 .36.36 0 0 0 .28-.51A1.86 1.86 0 0 0 48 104a.54.54 0 0 1-.14-.38v-.2c0-.29 0-.32.35-.4a.72.72 0 0 0 .36-.2.71.71 0 0 1 .64-.17h.41a.34.34 0 0 0 .35-.27.77.77 0 0 1 .14-.39 1.14 1.14 0 0 0 .27-.55c0-.08.11-.14.16-.22a1 1 0 0 0 .1-.17.14.14 0 0 0-.08-.17.76.76 0 0 0-.26-.06h-.62a.75.75 0 0 1-.32-.1.28.28 0 0 1-.1-.36.47.47 0 0 1 .07-.12 6.14 6.14 0 0 1 .45-.43.78.78 0 0 0 .22-.42 1.94 1.94 0 0 0 0-.2.3.3 0 0 1 .22-.16c.39 0 .78 0 1.17.07a.77.77 0 0 0 .69-.23l.79-.78a.71.71 0 0 0 .25-.54.18.18 0 0 1 0-.13s.1-.11.16-.11h.41a.44.44 0 0 0 .26-.06c.32-.27.77-.32 1.06-.63.08-.09.22-.06.33 0a.65.65 0 0 1 .16.13.65.65 0 0 0 .62.22h.62a.55.55 0 0 1 .5.17l.39.39a.62.62 0 0 0 .5.2h.62a.25.25 0 0 0 .26-.19 1.49 1.49 0 0 1 .34-.66v-.07a.26.26 0 0 0 0-.12c-.11-.1-.26 0-.4-.08a.22.22 0 0 1-.19-.17.93.93 0 0 0-.25-.56c-.26-.24-.19-.44 0-.64l.21-.18a4.61 4.61 0 0 0 .67-.72v-.47a.43.43 0 0 1 .12-.32l.29-.3c.28-.27.55-.55.83-.83a.48.48 0 0 0 .17-.29c0-.34.26-.52.49-.72a.44.44 0 0 1 .26-.06h.76c.56 0 .56 0 .62-.49a.32.32 0 0 1 .36-.27 4.41 4.41 0 0 0 .89 0 .66.66 0 0 1 .32.1 1 1 0 0 1 .16.14c.18.14.25.14.41 0a1.42 1.42 0 0 0 .24-.25.2.2 0 0 0 0-.25c-.32-.36-.32-.4 0-.72l.15-.14a1 1 0 0 0 .38-.64.24.24 0 0 1 0-.13 1.94 1.94 0 0 0 .39-.72.9.9 0 0 1 .2-.28l.57-.6a.85.85 0 0 1 .54-.29.51.51 0 0 0 .29-.17.27.27 0 0 1 .24-.12 1 1 0 0 0 1 .28c.15-.16.33-.34.51-.51a3.32 3.32 0 0 1 .53-.53l.13.1.09.1c.26.26.43.25.69 0s.34-.37.52-.55a1.14 1.14 0 0 1 .66-.36.25.25 0 0 0 .21-.24.86.86 0 0 1 .81-.8.31.31 0 0 0 .13-.06.2.2 0 0 0 .08-.1 1.24 1.24 0 0 0 0-.27v-1.32a.43.43 0 0 1 .13-.3.94.94 0 0 1 .44-.33 1.68 1.68 0 0 0 1-.63c.18-.18.36-.35.53-.54a1.43 1.43 0 0 1 .63-.42.88.88 0 0 0 .34-.21.62.62 0 0 1 .39-.12h.75a.74.74 0 0 0 .13-.08.65.65 0 0 1 .68-.23.49.49 0 0 0 .44-.16c.19-.17.37-.35.54-.53.38-.38.36-.45 1-.41h.27a.5.5 0 0 0 .37-.15l.69-.69a.74.74 0 0 1 .48-.24.28.28 0 0 0 .26-.28 1.77 1.77 0 0 1 0-.2.24.24 0 0 1 .24-.2h.2a.64.64 0 0 0 .52-.14.75.75 0 0 1 .3-.17 1.25 1.25 0 0 0 .68-.44 1 1 0 0 1 .58-.35.63.63 0 0 0 .24-.13l.3-.28a1 1 0 0 1 .6-.31.21.21 0 0 0 .17-.19v-.35a.42.42 0 0 1 .12-.38c.21-.21.41-.43.64-.63a.85.85 0 0 1 .29-.17c.11 0 .23 0 .32-.15a1.14 1.14 0 0 1 .61-.87 6.51 6.51 0 0 1 1.08 0l.55.53a.91.91 0 0 1 .31.53 1.08 1.08 0 0 0 .28.47c.14.15.21.15.41 0a.9.9 0 0 1 .3-.17 1 1 0 0 0 .47-.26.72.72 0 0 1 1 0 .64.64 0 0 0 .56.19.63.63 0 0 1 .34.05 5 5 0 0 0 .73.37.8.8 0 0 1 .49.62.58.58 0 0 0 0 .14.26.26 0 0 0 .19.19 1 1 0 0 1 .55.25.63.63 0 0 0 .51.16l1-.06a.52.52 0 0 1 .33.07 1.1 1.1 0 0 1 .56.67 1 1 0 0 0 .37.56.43.43 0 0 0 .38.14.74.74 0 0 1 .74.28s.07 0 .11.08a.24.24 0 0 0 .26 0 1.48 1.48 0 0 0 .52-.44.15.15 0 0 0 0-.13 1.77 1.77 0 0 0-.12-.17c-.14-.17-.15-.21 0-.35a.68.68 0 0 0 .21-.42v-.07a.29.29 0 0 1 .27-.19h1a.48.48 0 0 0 .38-.15.75.75 0 0 1 .62-.24.51.51 0 0 0 .51-.28s.07-.06.11-.09a.15.15 0 0 1 .18 0c0 .06.09.13 0 .19a.9.9 0 0 1-.19.2.37.37 0 0 0-.16.29 1.49 1.49 0 0 0 0 .21.51.51 0 0 1-.18.49.55.55 0 0 0-.18.43v.21a.49.49 0 0 0 .14.38 2 2 0 0 1 .22.27.34.34 0 0 1-.17.46.73.73 0 0 1-.2 0 .62.62 0 0 0-.42.22l-.19.2a.39.39 0 0 0 0 .51 1.43 1.43 0 0 0 .8.51s.1.09.13.15a1.23 1.23 0 0 1 0 .2.68.68 0 0 0 0 .14c0 .11.21.17.28.08a.86.86 0 0 1 .86-.29 5.77 5.77 0 0 0 .83 0h.41a.62.62 0 0 1 .26.09.87.87 0 0 1 .22.17.65.65 0 0 0 .44.16.72.72 0 0 0 .58-.17l.11-.08c.23-.15.52-.18.72-.4 0-.06.17 0 .26-.06h.83a.72.72 0 0 1 .58.17.32.32 0 0 0 .18.1 1.31 1.31 0 0 1 .73.49l.2.19a.54.54 0 0 0 .38.14.69.69 0 0 0 .57-.19.74.74 0 0 1 .63-.21.58.58 0 0 1 .49.21.57.57 0 0 0 .22.16.28.28 0 0 0 .2 0 .39.39 0 0 0 .17-.11.75.75 0 0 1 .74-.26.46.46 0 0 1 .32.11 1 1 0 0 0 .36.2 1 1 0 0 1 .58.36c.11.11.22.23.34.34a.27.27 0 0 0 .37 0 .7.7 0 0 0 .16-.13l.37-.42a.21.21 0 0 1 .25 0l.11.08a.23.23 0 0 0 .32 0 .27.27 0 0 1 .42 0 .52.52 0 0 0 .43.18h.34a.32.32 0 0 0 .27-.28v-1.1a.37.37 0 0 1 .37-.41h1.32a.45.45 0 0 1 .32.09l.16.13c.34.33.52.19.75-.06s.25-.27.39-.4a.37.37 0 0 1 .5 0c.09.07.16.16.25.24a4.79 4.79 0 0 0 .41.36.31.31 0 0 0 .49-.19.68.68 0 0 1 .11-.39l.64-.63a.6.6 0 0 1 .24-.12 1.25 1.25 0 0 0 .48-.26.74.74 0 0 1 1.05.06c.12.11.24.22.35.34l.74.73a.4.4 0 0 0 .31.13h1.31a.59.59 0 0 0 .38-.14l.14-.15c.61-.6.35-.46 1.21-.46a.67.67 0 0 1 .44.18c.14.12.27.25.4.38a.55.55 0 0 0 .44.16h.55a.47.47 0 0 1 .26.08 4.58 4.58 0 0 1 .42.35.14.14 0 0 1 0 .19.87.87 0 0 1-.86.47h-.14a.37.37 0 0 0-.31.12c-.13.13-.26.26-.38.4a.37.37 0 0 0 .53.49.94.94 0 0 0 .1-.1.53.53 0 0 1 .54-.21.74.74 0 0 0 .21 0 .47.47 0 0 0 .25-.1.72.72 0 0 1 .8-.25.74.74 0 0 0 .21 0h2a.3.3 0 0 0 .24-.22 2.83 2.83 0 0 0 .08-.4l.35-.11a1.08 1.08 0 0 0 .3-.16c.23-.2.44-.41.65-.62a.17.17 0 0 0 0-.19l-.19-.2c-.19-.22-.19-.34 0-.54a1.11 1.11 0 0 1 .57-.38 1 1 0 0 0 .41-.24.59.59 0 0 1 .58-.13.5.5 0 0 0 .21 0 .32.32 0 0 0 .26-.27V76a.45.45 0 0 1 .16-.37c.29-.24.24-.57.21-.89a.21.21 0 0 0-.34-.1 1.8 1.8 0 0 0-.19.2.32.32 0 0 1-.49 0c-.12-.1-.23-.22-.35-.33a.17.17 0 0 1 0-.24 7.57 7.57 0 0 0 1-1 .44.44 0 0 1 .3-.15h.21a.24.24 0 0 0 .16-.2v-1.11a.53.53 0 0 0-.18-.43l-.97-.86-.17-.22a.24.24 0 0 1 0-.26l.27-.3a.35.35 0 0 0 0-.55c-.21-.21-.43-.41-.64-.63a3 3 0 0 1-.3-.38.24.24 0 0 1 0-.26.68.68 0 0 1 .17-.21l.59-.59a.85.85 0 0 0 .31-.52.7.7 0 0 1 .24-.4.59.59 0 0 1 .6-.26 1.29 1.29 0 0 0 .34 0 .62.62 0 0 1 .56.21l.34.34a.66.66 0 0 0 .5.2 3.84 3.84 0 0 1 .83 0 1.11 1.11 0 0 0 1-.31h.74c.11 0 .16-.19.09-.28a.33.33 0 0 0-.16-.11.89.89 0 0 0-.28 0 .75.75 0 0 1-.64-.18.51.51 0 0 0-.38-.12h-.56a.42.42 0 0 1-.32-.1l-.35-.33a.17.17 0 0 1 0-.19.93.93 0 0 1 .13-.15.85.85 0 0 1 .81-.29.4.4 0 0 0 .38-.13c.13-.12.26-.26.38-.39a9.19 9.19 0 0 0 0-1 .66.66 0 0 1 .2-.56.45.45 0 0 0 .16-.3 1 1 0 0 1 .3-.53.31.31 0 0 0 0-.44c-.09-.1-.19-.19-.29-.29s-.45-.34-.74 0a.56.56 0 0 1-.43.19h-1.13a.36.36 0 0 1-.24-.24.78.78 0 0 1 .21-.82 1.15 1.15 0 0 1 .46-.3 1.4 1.4 0 0 0 .48-.26.76.76 0 0 1 1 .06l.9 1a1.12 1.12 0 0 0 .2.18.15.15 0 0 0 .13 0l.17-.11a.69.69 0 0 1 1 0 .62.62 0 0 0 .17.11.15.15 0 0 0 .13 0 1 1 0 0 0 .46-.58 1.18 1.18 0 0 1 .06-.27.22.22 0 0 1 .15-.11.83.83 0 0 1 .27 0 .63.63 0 0 0 .62-.22l.15-.14a.54.54 0 0 0 .2-.43v-1.17c0-.39-.11-.56-.55-.52a.55.55 0 0 1-.34 0 6.85 6.85 0 0 0-.84-.46c-.12-.06-.2-.19-.3-.28l-.26-.23a.19.19 0 0 0-.13 0 .22.22 0 0 0-.09.1.67.67 0 0 0 0 .2c0 .21 0 .42.05.62a.42.42 0 0 1-.17.36l-.11.09a.21.21 0 0 0 0 .3c.14.13.28.24.42.36a.7.7 0 0 1 .23.56v.27a.35.35 0 0 1-.29.27h-.48a.48.48 0 0 1-.3-.15l-.19-.2a.53.53 0 0 1-.17-.5c0-.18 0-.37.05-.55a.91.91 0 0 0-.39-.9 1.8 1.8 0 0 1-.2-.19c-.29-.29-.32-.36-.86-.32H143a2.44 2.44 0 0 0-.71-.39.81.81 0 0 1-.18-.1.77.77 0 0 1-.39-.75 4.28 4.28 0 0 0 0-.62.23.23 0 0 0-.11-.16.82.82 0 0 0-.26-.1.73.73 0 0 1-.41-.23c-.18-.18-.36-.36-.52-.55a.59.59 0 0 1-.1-.26.23.23 0 0 1 .15-.27h.13a1 1 0 0 0 .8-.77.65.65 0 0 1 .12-.25c.23-.25.48-.49.73-.73a.54.54 0 0 1 .26-.09 2.44 2.44 0 0 1 .27 0h.22c.23 0 .36.07.4.29a1.13 1.13 0 0 0 .37.64.79.79 0 0 0 1 .09 1 1 0 0 1 .28-.19 2.15 2.15 0 0 0 .74-.43h.59a.33.33 0 0 0 .28-.26 1.49 1.49 0 0 0 0-.21v-.35a.82.82 0 0 1 .33-.78 1.18 1.18 0 0 1 .22-.17.23.23 0 0 1 .26 0 5 5 0 0 1 .43.34c.15.13.15.24 0 .41a.54.54 0 0 0-.19.28.79.79 0 0 1-.26.47.72.72 0 0 0-.05.84c.11.18.32.14.5.15h.1a.36.36 0 0 0 .33-.37c.01-.6-.02-.86-.03-1.11z" fill="{{colors[0]}}"/><path d="M143.63 54.31a2 2 0 0 0-.54.41.2.2 0 0 0 0 .18.29.29 0 0 0 .13.14.35.35 0 0 0 .33 0 5.73 5.73 0 0 0 .52-.44.25.25 0 0 0 .05-.13.41.41 0 0 0-.07-.11.33.33 0 0 0-.42-.05zM43.16 111.73a.41.41 0 0 0-.45 0 .47.47 0 0 0-.11.55.19.19 0 0 0 .28.07l.37-.39a.42.42 0 0 0 0-.14s-.04-.06-.09-.09zm105.16-54.52a.15.15 0 0 0 0 .13.16.16 0 0 0 .2.12.83.83 0 0 0 .16-.13c-.05-.06-.07-.13-.12-.16s-.22-.01-.24.04zm2.07-4.49a.23.23 0 0 0 .23.2.2.2 0 0 0 .17-.18.24.24 0 0 0-.19-.23c-.11 0-.23.11-.21.21zm-8.76.02l-.06.61a.24.24 0 0 0 .16.21h.19a3.59 3.59 0 0 0 .38-.4.39.39 0 0 0 0-.45.44.44 0 0 0-.36-.18.38.38 0 0 0-.31.21zM141 40.26a.3.3 0 0 0 .25-.1.25.25 0 0 0-.08-.3.93.93 0 0 0-.38-.3.21.21 0 0 0-.23.1.43.43 0 0 0 .44.6zM2.61 160.4c-.24-.27-.51-.47-.84-.36H1.5a.58.58 0 0 0-.5.18 1.8 1.8 0 0 1-.19.2.5.5 0 0 0-.14.38v.55a.53.53 0 0 1-.17.43c-.15.15-.31.28-.46.42a.19.19 0 0 0 0 .24 1.6 1.6 0 0 0 .4.38c.06 0 .22 0 .23-.09v-.27a.38.38 0 0 1 .09-.25 2.72 2.72 0 0 1 .3-.29.51.51 0 0 1 .24-.1 1.31 1.31 0 0 1 .28 0 .53.53 0 0 0 .44-.15 1.24 1.24 0 0 1 .21-.18.32.32 0 0 1 .25-.06h.34a.36.36 0 0 0 .24-.58c-.13-.12-.3-.28-.45-.45zm8.15-9.49a1.29 1.29 0 0 1-.74-.33h-.06a.83.83 0 0 0-.54 0c-.16.05-.26.19-.4.27a3.17 3.17 0 0 1-.51.2v.05l-.67.6a.17.17 0 0 0 0 .19L8 152a.71.71 0 0 1 0 .94c-.2.22-.42.43-.64.64a.46.46 0 0 1-.37.14h-.62a.38.38 0 0 0-.26.08c-.31.33-.74.57-.82 1.07a1 1 0 0 1-.15.23 1.62 1.62 0 0 0-.18.2.24.24 0 0 0 0 .27c.06.09.14.18.21.27a.29.29 0 0 1 0 .32c-.16.17-.33.33-.48.5a.81.81 0 0 1-.47.27 1.09 1.09 0 0 0-.58.35.25.25 0 0 0-.06.18c0 .06.09.1.15.14a.19.19 0 0 0 .13 0 5.09 5.09 0 0 1 1.17 0h.41c.54 0 .61-.05.6-.57a.59.59 0 0 0-.24-.54l-.09-.11a.31.31 0 0 1 0-.38 1.16 1.16 0 0 0 .36-.72s.1-.11.16-.12a.76.76 0 0 0 .59-.3l.1-.1a1 1 0 0 1 .57-.37.76.76 0 0 0 .23-.13c.28-.21.28-.22.49 0s.24.28.37.41a.34.34 0 0 0 .49 0l.15-.15a.5.5 0 0 1 .5-.16h.2a.38.38 0 0 0 .37-.34.34.34 0 0 0-.33-.37h-.48a1.93 1.93 0 0 1-.34 0 .37.37 0 0 1-.32-.32v-1.03a.6.6 0 0 1 .06-.19 1.13 1.13 0 0 1 .62-.52.86.86 0 0 0 .48-.25.4.4 0 0 1 .32-.09 2.85 2.85 0 0 0 .41 0 .34.34 0 0 0 .18-.09c.01-.03-.03-.24-.13-.25zm2.34-4.25h-.41a.89.89 0 0 0-.73.55c.08.11.16.19.22.28a.7.7 0 0 1 .06.72.87.87 0 0 1-.92.59h-.35c-.34 0-.39-.06-.44-.46a.59.59 0 0 0 0-.13.18.18 0 0 0-.23-.08 1.51 1.51 0 0 0-.42.45.33.33 0 0 0 0 .13 3.37 3.37 0 0 0 0 .55.26.26 0 0 0 .17.2.7.7 0 0 0 .14 0h1.59c.3-.26.56-.55.84-.83a.52.52 0 0 0 .15-.38v-.68a.21.21 0 0 1 .16-.2c.13 0 .27-.07.39-.12a.24.24 0 0 0 .15-.22.37.37 0 0 0-.37-.37zM42.84 110a.54.54 0 0 0 .15-.38v-.41a.6.6 0 0 1 .2-.56.45.45 0 0 0 .09-.1.19.19 0 0 0-.12-.27.82.82 0 0 0-.27 0 .58.58 0 0 1-.62-.17.55.55 0 0 0-.5-.17h-.97c-1 0-.68-.13-1.42.6-.31.3-.44.43 0 .83.07.06.06.16 0 .25s-.08 0-.1.09-.1.22 0 .31l.41.37a.26.26 0 0 0 .12.05c.4 0 .83.1 1.13-.3h.19c.03 0 .18.14.27.2a.57.57 0 0 0 .24.13 1.89 1.89 0 0 0 .75 0 2.43 2.43 0 0 0 .48-.38s-.05-.09-.03-.09zm-27.31 35c-.15.17-.29.34-.45.51a1.05 1.05 0 0 0-.3.52.84.84 0 0 1-.21.35c-.15.17-.34.31-.49.48a.41.41 0 0 0-.08.25.4.4 0 0 0 .37.33.32.32 0 0 0 .14 0 1.65 1.65 0 0 0 .53-.52c0-.36.32-.6.41-.93a1.12 1.12 0 0 1 .25-.4.66.66 0 0 0 .12-.17.35.35 0 0 0 0-.38.19.19 0 0 0-.29-.04zM130.61 27.88a.31.31 0 0 0 .13 0h.69a.33.33 0 0 1 .33.29v.7a.45.45 0 0 0 0 .26 1.23 1.23 0 0 0 .53.53.26.26 0 0 0 .27 0l.45-.42a.43.43 0 0 0 .12-.32 1.23 1.23 0 0 0 0-.2.58.58 0 0 1 .19-.5.82.82 0 0 1 .59-.31l.13-.05a.34.34 0 0 0 .15-.47.41.41 0 0 0-.4-.22h-.34a.28.28 0 0 1-.29-.24.82.82 0 0 0-.28-.54c-.18-.17-.35-.36-.53-.54s-.13-.08-.19 0a2.64 2.64 0 0 1-.65.38 3.83 3.83 0 0 1-.67.34.27.27 0 0 0-.12.06l-.71.66a.13.13 0 0 0 0 .12 1.33 1.33 0 0 0 .6.47zm5.33 2.43a.34.34 0 0 0 0 .14s0 .09.07.1a.31.31 0 0 0 .18.05c.06 0 .14-.08.14-.13v-1.63a.41.41 0 0 0-.33-.31.37.37 0 0 0-.37.25.8.8 0 0 0 .1.78.78.78 0 0 1 .21.75zm-95.72 83.21H40a.67.67 0 0 0-.56.23 1 1 0 0 0-.29.46.79.79 0 0 1-.13.31.9.9 0 0 0-.25.56c0 .12-.23.18-.33.08s-.29-.3-.44-.44a.87.87 0 0 1-.3-.53.5.5 0 0 0-.18-.29c-.65-.65-.51-.4-.53-1.32v-.42a1.23 1.23 0 0 0 0-.2.31.31 0 0 0-.43-.21 1.07 1.07 0 0 0-.55.68.56.56 0 0 1-.19.36 14 14 0 0 0-1.27 1.21.56.56 0 0 1-.55.2c-.33-.09-.52.11-.7.33a.56.56 0 0 0-.09.19 3.17 3.17 0 0 1-.28.55 4.34 4.34 0 0 0-.28.62 4.28 4.28 0 0 0-.2.44 1.1 1.1 0 0 1-.31.45l-.2.19a.63.63 0 0 0-.23.48.8.8 0 0 0 .31.73c.11.09.21.19.3.28a1.09 1.09 0 0 1 .13.17.33.33 0 0 1 0 .33 1.7 1.7 0 0 1-.19.19l-1.46 1.37c-.09.09-.12.18-.08.24s.13.11.23.12h.2c.18 0 .55.34.56.49s-.22.27-.34.4a.81.81 0 0 1-.1.09.72.72 0 0 1-.84 0 1.09 1.09 0 0 1-.49-.8.21.21 0 0 0-.2-.17 5 5 0 0 0-.55 0 .3.3 0 0 0-.25.29v.55a.56.56 0 0 1-.11.45 1.08 1.08 0 0 0-.31.61.51.51 0 0 1-.14.23l-.53.54a.53.53 0 0 1-.37.18.29.29 0 0 0-.33.27.92.92 0 0 1-.76.79.55.55 0 0 0-.3.16.69.69 0 0 1-.64.18.47.47 0 0 0-.38.12 2.76 2.76 0 0 0-.3.29.37.37 0 0 0 0 .55c.2.23.4.46.75.41h.13a.18.18 0 0 1 .07.17.25.25 0 0 1 0 .13c-.23.22-.46.45-.71.66a.51.51 0 0 1-.25.1.63.63 0 0 0-.36.19l-.55.53a.54.54 0 0 0-.17.43v.69a.2.2 0 0 1-.15.21 1.35 1.35 0 0 0-.66.34.18.18 0 0 1-.2 0 4 4 0 0 0-.26-.32 1.88 1.88 0 0 0-.24-.25.15.15 0 0 0-.19 0 .19.19 0 0 0-.11.16v.07a1.93 1.93 0 0 1 .08.47c0 .2-.22.29-.32.44s0 0 0 .06a.35.35 0 0 0 .26.52h.87a.61.61 0 0 1 .5.18.62.62 0 0 0 .58.16.54.54 0 0 1 .49.19 6.88 6.88 0 0 0 .55.53.29.29 0 0 0 .38 0 .32.32 0 0 0 .09-.17.9.9 0 0 1 .25-.56.48.48 0 0 0 .14-.44v-.21c0-.07-.07-.29-.28-.33a.81.81 0 0 1-.43-.19c-.13-.13-.27-.26-.39-.4s-.28-.24-.33-.44 0-.5 0-.75a.35.35 0 0 1 .34-.36h.21a.55.55 0 0 0 .5-.16.9.9 0 0 1 .3-.17 1.42 1.42 0 0 0 .54-.29.42.42 0 0 1 .25-.09 2.44 2.44 0 0 1 .27 0 .45.45 0 0 0 .38-.13.48.48 0 0 1 .17-.12A1.69 1.69 0 0 0 28 127a.35.35 0 0 1 .39 0 4 4 0 0 0 .3.28.33.33 0 0 0 .51-.16v-.06a.67.67 0 0 1 .21-.5.48.48 0 0 0 .15-.56.17.17 0 0 1 0-.07.32.32 0 0 1 .24-.36.81.81 0 0 0 .54-.29c.22-.23.46-.45.69-.68a.47.47 0 0 1 .44-.13h.21a.32.32 0 0 0 .19 0 1.08 1.08 0 0 0 .52-.63 1.08 1.08 0 0 1 .36-.57 1.29 1.29 0 0 0 .44-.69.7.7 0 0 1 .19-.28c.09-.1.2-.18.3-.28a1.4 1.4 0 0 0 .09-.17l-.23-.36.12-.18c.15-.22.12-.3-.15-.36h-.21a.42.42 0 0 1-.18-.08.85.85 0 0 1-.4-.9.61.61 0 0 1 0-.13c0-.09.08-.18.18-.19a.88.88 0 0 0 .65-.33c.16-.2.36-.36.53-.55a.64.64 0 0 1 .49-.22.93.93 0 0 1 .8.31.94.94 0 0 0 .1.1.2.2 0 0 1 0 .25l-.7.67c-.08.08-.19.16-.21.26a2.53 2.53 0 0 1-.38.66c0 .06 0 .2.09.23a.35.35 0 0 0 .39 0 3.66 3.66 0 0 0 .44-.44.75.75 0 0 1 .48-.25.31.31 0 0 0 .31-.3.84.84 0 0 1 .72-.74.71.71 0 0 0 .3-.15 1.23 1.23 0 0 0 .45-.68.59.59 0 0 1 .18-.29l.08-.1a.33.33 0 0 0 0-.39l-.27-.31c-.12-.12-.24-.22-.35-.34a.37.37 0 0 1 0-.45c.24-.25.48-.5.73-.74a.42.42 0 0 1 .38-.12 4 4 0 0 0 1 0c.1 0 .25-.12.25-.22a.84.84 0 0 1 .38-.69c.19-.17.37-.36.55-.54a.7.7 0 0 0 .13-.16.32.32 0 0 0 0-.33.32.32 0 0 0-.2-.27zm108.35-53.31a.32.32 0 0 0-.26.2c0 .07.06.21.17.26a.44.44 0 0 0 .4 0c.06 0 .1-.1.14-.14s0-.1 0-.14a.38.38 0 0 0-.45-.18zm2.86-2.76l-.4.08a.24.24 0 0 1-.21-.15.26.26 0 0 1 0-.19c.08-.1.2-.19.28-.3a.31.31 0 0 0 0-.32.21.21 0 0 0-.24-.1l-.93.58a.58.58 0 0 1-.38.1h-.41c-.08 0-.13.14-.1.22a.9.9 0 0 0 .28.3.51.51 0 0 0 .44.15.73.73 0 0 1 .76.35c0 .07.12.14.18.21s.22.15.4 0a.6.6 0 0 1 .29-.16l.27-.08a.29.29 0 0 0 .16-.28.41.41 0 0 0-.39-.41zM20.05 133.83v-.2a1.77 1.77 0 0 1 0-.2c0-.07-.15-.16-.21-.14a.27.27 0 0 0-.17.1.42.42 0 0 0 0 .5.35.35 0 0 0 .18.06c.15.05.15-.06.2-.12zm139.44-57.9a1.75 1.75 0 0 0-.24-.11 1.43 1.43 0 0 1-.37-.19.73.73 0 0 0-.64-.16.3.3 0 0 1-.26-.06c-.19-.21-.49-.24-.71-.39a11.3 11.3 0 0 1-1.08-.59.5.5 0 0 0-.4-.06 1.15 1.15 0 0 0-.68.43c0 .06-.06.14 0 .19.24.21.29.4 0 .61a.2.2 0 0 0-.06.12v.61c0 .2.14.15.2.12s.19-.21.41-.19c.21.21.58.26.84.5a.2.2 0 0 0 .3 0 .57.57 0 0 1 .41-.23h1.51a.75.75 0 0 1 .66.3 3.51 3.51 0 0 0 .37.4.16.16 0 0 0 .23-.06v-.07a1 1 0 0 0-.49-1.17z" fill="{{colors[0]}}"/></svg>