<svg data-name="图层 1" xmlns="http://www.w3.org/2000/svg" viewBox="0 0 631.33 800" preserveAspectRatio="none"><path d="M412.05 2.41V0h-4.82c2.77 2.7-.02 1 4.82 2.41zm284.34 281.93c6.32.28 8.18 1 12 2.41v-2.41h2.41v-2.41h-9.6v-4.82h4.8v-4.82h-4.8l-2.4-7.23h2.4v-2.41h-4.81c-5.32-5.08.42-7.25-9.64-9.64v-4.82h-4.82v-4.82h-4.82c-3-10.72-9.24-8.6-12.05-19.27h-7.23v-7.23l-7.23-2.41v-2.41c-4.87-4.28-7.55-4.47-9.64-12.05h-4.82c-1.83-6.56-.57-5.49-7.22-7.23-2.25-8.25-5.13-6.2-7.23-14.46-6-1.66-3.92-1.24-7.23-4.82h-2.41v-4.82l-19.28-16.86V147H588c-2.24-8.26-5.13-6.2-7.23-14.46h-4.87c-1.74-7-2.58-8-9.63-9.64-2.22-9.51-7.4-10.52-9.64-19.28l-7.23-2.41q-1.21-4.82-2.41-9.63c-8.91-2.44-8-7.78-14.46-12V74.7c-9.78-2.83-4.82-4.89-12-9.64v-4.82c-8.67-2.34-10.1-8.07-16.87-12.05v-4.82L496.39 41v-4.86H494v-2.41h-4.82c.8-1.6 1.6-3.21 2.41-4.81l-14.48-4.82q1.2-2.42 2.41-4.82l-14.46-4.82V9.64h-7.23V4.82l-7.23 2.41v2.41a4.17 4.17 0 0 1-4.82-2.41l-12 2.41V7.23h-9.68v2.41h2.41v2.41l-7.23-2.41V7.23h-4.82V4.82L400 7.23V2.41h-4.82c-1.45 4.81.33 2.07-2.41 4.82V2.41h-7.23q-1.2 3.62-2.41 7.23h7.23v2.41h-9.64v7.23h-9.64v-2.41h4.82c1.45-4.81-.33-2.08 2.41-4.82V9.64c-7.44.94-6.22.43-9.64 4.82h-2.4c-1.69 3 1.53 1.51 2.4 2.41-.4 8.38-3.16 4.26-4.81 7.23l2.41 4.82h-4.82q1.2 3.61 2.41 7.22h-2.41V41H359q-1.21 4.83-2.41 9.64h-2.41v9.64h-2.41q-1.21 4.82-2.41 9.64H347v9.64h-2.41q-1.2 4.82-2.41 9.64h-4.82c2.1 1.62 1.85 6.18 0 9.64h-2.41v4.81h-2.41v4.82h-2.41v4.82h-2.41v4.82h-2.42v4.82h-2.41q-1.2 4.81-2.41 9.64l-4.82 2.41c.81 1.61 1.61 3.21 2.41 4.82h-4.82c-.7 5.62-.79 6-2.41 9.64h-2.41q1.21 2.4 2.41 4.82h-7.23q-1.2 3.61-2.41 7.23h2.41v2.41l-4.81 2.41v4.81h-2.41v4.82l-7.23 2.41q1.2 2.41 2.41 4.82h-4.82c-.66 6.18-1.35 11.26-4.82 14.46h-4.82V200c6.08 3.72-3.78 4.55-4.82 7.23.8 2.41 1.61 4.82 2.41 7.23h-4.82c-1.9 7.67-3.17 8.85-12.05 9.64 1.86 2.44 3 2.37 4.82 4.82-9.2 5.62-4.66 7.13-9.64 14.45l-4.82-2.37v2.41h-2.41c-3.37 3.79 4.45 2 4.82 2.41v2.41l-9.6 2.37c-2.61 2.18 2.41 2.41 2.41 2.41q-1.2 3.62-2.41 7.23l-7.23 4.82-2.4 7.23h-4.82c-2.54 2.27 2.41 2.41 2.41 2.41-.5 4.64-3 3.57-7.23 4.82-2.25 8.25-5.13 6.2-7.23 14.46-4.81 1.45-2.08-.34-4.82 2.41h-4.82c2.37 2.38 2.78 5 0 7.22H200l2.41 4.82h-4.82v2.41c-4.75 4.21-7.84 4.43-9.64 12.05-6.55 1.84-5.48.57-7.23 7.23h-4.82v4.82c-4.81 1.45-2.07-.33-4.82 2.41h-2.41v7.23H159V347c-.95.24-4.28-.44-2.41 2.41h4.82v2.41h-7.23c-.89 8.15 0 7.76-7.23 9.64 2.28 2.91 5.45 2.61 7.23 4.82 3.28 4.07-1 3.56 4.82 7.22v2.41h-4.82c-1.49-5.84-2.55-5.29-4.82-9.63h-7.23c1.91 4.23 3.86 9.16 7.23 12v2.41h-9.64v4.82c5.68-.57 6-1 9.64-2.41l7.23 9.64-14.42-4.74v2.41h-2.41v2.41l21.69 2.41v-4.82h16.86v2.41h-9.64c4.41 5 1.42 4.14-4.81 4.82V400h9.63v-4.82h9.64c1.75-7 2.59-8 9.64-9.64v-4.82h2.41V388H188v2.41h-2.41v2.41c4.06 2 4.06-2.08 4.82-2.41 3.37.49-.91 1.67 2.41 2.41l4.82-2.41v4.82H200q1.2-4.81 2.41-9.64h7.23c-2 3.12-1.65 2.87-4.82 4.82v2.41h9.64v-2.41c4.81-1.45 2.07.34 4.82-2.41h-4.82v-4.82c4.81-1.45 2.07.34 4.82-2.41h2.41q-1.22 2.41-2.41 4.82h2.41V388c3.72.33 5.66-6.45 7.23-7.23h4.81c2.34-8.27 3.09-4.49 7.23-9.64-3.67-1.41-3.92-1.92-9.63-2.41v-2.4l12 2.4c.81-1.6 1.61-3.21 2.41-4.81h4.82l9.64-14.46h4.82v-7.23c6.56-1.84 5.49-.57 7.23-7.23h4.82c3-10.58 11.7-12.91 14.46-24.1h4.82c1.74-6.88 8.95-16.11 14.45-19.27v-2.41h-7.23v-2.41c4.32-2.77 9 1.31 12.05-2.41v-4.82h2.41v-4.87l4.82-2.41v-4.82l9.64-7.23V253l4.82-2.41v-4.82l4.82-2.41v-4.82l4.82-2.41v-4.81l7.23-4.82-2.41-4.82 4.82-2.41q1.2-4.83 2.41-9.64s9.37-.34 4.82-2.41h-2.41v-2.41h4.82l2.4-7.23h2.41v-4.82h2.41q1.22-6 2.41-12.05l4.82-2.41-2.41-4.82 9.64-7.22V159h2.41l4.82-9.64c-1.87-2.85-1.74.93-2.41-2.41 3.12 2 2.87 1.65 4.82 4.82 4.14 5.3-1 27.75 2.41 45.78h2.41l-2.37 4.86v7.23h2.41v2.41H400v7.23h2.41c.22 2.37-2.83 3.79-2.41 9.64l2.41 4.81H400c-2.85 14.13 1.39 28-2.41 33.74v2.41H400c1 5.85-1.93 6.11-2.41 9.64H400v2.41h-2.41v9.64h-2.41c-.45 3 4.32 4.1 2.41 9.63-.23.67-4.45.81-4.82 4.82h4.82v2.41h-2.41v7.23h-2.41l2.41 7.23h-4.82c1 .32 3.43 8.24 2.41 12.05h-2.41v2.41h2.41v2.41h-2.41V347H388v7.23h-2.41q1.21 2.4 2.41 4.82l-4.82 2.41q1.22 2.4 2.41 4.82h-4.82v12h-2.41v2.41c1.74 2.77 3.23-.9 2.41 2.41h-2.41v4.9h-2.46v9.64h-2.41v4.82h-2.41c.81 1.61 1.61 3.21 2.41 4.82-3.64 6.09-6.46 9.52-7.22 19.28-7.13 2.71-2.69-.39-2.41 7.22H359c.57 5.69 1 6 2.41 9.64-3.68 1.41-3.93 1.93-9.64 2.41 2.73 2.7 0 1 4.82 2.41-1 4.74-2 9.12-4.82 12.05H347c-2 2.67 4.58 1.57 4.82 4.82h-2.42v4.82H347c-2.09 3.36-1.8 4.16-2.41 9.64-5.71 1.55-4.52.68-7.23 4.82h-2.41c-3.37 3.78 4.45 2 4.82 2.41v2.41h-4.82c-.32 9.52-1.18 11-7.23 14.45 2.74 2.7 0 1 4.82 2.41v2.41h-7.24c-1.11 7.8-3.28 11.93-7.23 16.87l-4.82 2.41v9.64h-4.82c-2 7.58-5.54 8.73-7.23 16.87h-4.81c-1.6 10.93-3.07 7.2-7.23 14.45h-2.41q1.2 2.42 2.41 4.82h-4.82v4.82h-4.82q-1.22 4.83-2.41 9.64c-1.19 2.19-6.82 1.45-4.82 7.23h2.41v2.41l-4.82-2.41c-.8 2.41-1.61 4.82-2.41 7.23h-4.82v4.82h-4.82v4.82c-3.63 6.64-8 .88-9.64 14.46h-4.82l-14.45 16.86h-2.41v4.82c-4.81 1.45-2.08-.33-4.82 2.41h-2.41v7.23c-5.25 1.14-6.83 1.54-9.64 4.82h-2.41v2.41h9.64v-2.41h4.82v2.41l-16.87 7.23v-4.82h-2.41v2.41c-.2.06-8.49-.79-4.82 2.41H200c-2.59 4.26-1.63 3.21-7.23 4.82v4.82c-5.64 1.38-9 3.44-12.05 7.23h-2.41v2.41c5.25-1.14 6.83-1.54 9.64-4.82h2.41c-2.61 4.25-5.39 3.66-7.23 7.23 3 1.64 2-1 2.41 2.41h-7.23q-1.2 4.82-2.41 9.63h-12v2.41h7.22v4.82h-7.22v2.41H159c1.85 2.45 3 2.37 4.82 4.82H159v4.82c-3.68-1.41-3.93-1.92-9.64-2.41 2.75 4.06 1.46 3.36 7.23 4.82-4.11 4.27-10.66 5-19.28 4.82v2.41h12.09v2.41h-7.23c1.88 2.56 1.13 3.91 4.82 4.82 2.13-2.66-1-1.88 2.41-2.41-3.08 4.49-2.39 4.09-9.64 4.82v7.23s9.37-.34 4.82-2.41h-2.41V747c20.35.61 35.08 4.31 41-7.23H188c-2 3.12-1.65 2.87-4.82 4.82V747c4.81-1.45 2.08.33 4.82-2.41h7.23V747c-5 2.63-4.25 4-12.05 4.82v2.41h14.46v-2.41h-2.41v-2.42c2.86-1.74 8.81-.39 12-2.41h2.41l-2.41-4.82 4.82 2.41v-2.41h2.41v2.41h2.41c2.93-1.73-.94-3.05 2.41-2.41 1 .18.19 4.73 4.82 4.82v-2.41c4.29-2.32 3.89-3.22 9.63-4.82v-4.82c6.57-1.67 5.45-3.27 12.05-4.82v-4.82c9.3-2.58 7.57-7.21 16.87-9.64v-4.82h-4.82v-2.41l9.64 2.41V706h4.82v-4.8s9.37-.33 4.82-2.4h-2.41v-2.41h7.23v-4.82h4.82c-1.45-4.81.33-2.08-2.41-4.82v-2.41h12.05l-2.39-4.82h4.82l-2.41-4.82h7.22l-2.41-4.82H306v-2.41h2.41v-4.82h7.23c-1.86-2.45-3-2.37-4.82-4.82l9.64-2.41v-4.82h4.82V641h4.82v-4.82h4.82c2.57-9.89 2.31-2.61 7.23-7.22l-2.41-4.82 7.23-2.41v-2.41h2.41l-2.38-4.86h4.82l-2.41-4.82 7.23-2.41v-2.41H359l-2.37-4.82 7.23-2.41-2.41-4.82 7.22-2.41v-9.64h4.82c2-14.1 11.64-15.84 14.46-28.91h4.82v-2.41c-4.54-1.59-2.73 1.75-4.82-2.41 5.71-1.56 4.52-.68 7.23-4.82h2.41c-.8-2.41-1.61-4.82-2.41-7.23 4.81-1.45 2.07.33 4.82-2.41h2.41l-2.41-4.82c3-2.67 5.64 1.41 7.23-4.82-2.35-2.41-2.08.24-2.41-4.82h4.82c-.8-2.41-1.61-4.82-2.41-7.23h4.82V506h4.82q-1.22-3.61-2.41-7.22h2.41V494l7.23-4.82q-1.22-3.62-2.41-7.23h2.41q1.2-4.81 2.41-9.64l4.82-2.41-2.41-4.82h2.41c2.12-3.57 2.27-5.9 2.4-12.05 0 0 8.84.47 4.82-2.41h-2.41v-2.41l4.82-2.41q1.21-7.23 2.41-14.45h2.41v-4.82h2.41q1.21-7.23 2.41-14.46l4.82-2.41c-.7-3.34-1.19.77-2.41-2.41 1.5-4.14 5.6-3.57 4.82-9.64-1.28-1.74-3.65.76-2.41-2.41l4.82-2.41-2.41-4.79h4.82c.85-10.24 1.45-7.6 0-16.87h4.82l4.82-28.91h2.41v-7.23h2.41l-2.41-4.82h2.41q1.2-3.62 2.41-7.23h-2.41l4.82-12.05h-2.41c-.11-4.21 5.91-11 2.41-16.86h-2.41v-2.41l4.82 2.41q-1.21-6-2.41-12.05c.12-.55 5.26-.81 4.82-4.82l-4.82-2.41v-4.82h4.82q-1.22-3.61-2.41-7.23c0-.28 3.11-1 2.41-4.82h-2.41v-2.41h2.41q-1.22-6-2.41-12l4.82-2.41v-2.41h-7.23v-2.41h4.82v-9.63h2.41v-2.51h-2.41v-12h-2.41c-.45-3.75 4.39-3.16 4.82-4.82.68-2.68-3.73-11.85-2.41-19.28h2.41c.64-3.34-1.64.91-2.41-2.41-1.8-7.76-1.27-19.86 0-21.68v-9.64h2.41V159c10.62 3 6.38 5.73 12 12l7.23 4.82q1.21 3.61 2.41 7.23h4.82c2.18 8.57 9.34 13.37 14.46 19.28h2.41l2.41 7.23h4.82v7.23H547c2 7.85 12.87 18.15 19.28 21.68v4.82c6.8 1.8 6.92 4.31 12 7.23v4.82c7 1.75 8 2.59 9.64 9.64h4.82c1.84 6.56.57 5.49 7.23 7.23v4.82h4.82v4.82h4.82v4.82h7.23V294h14.46v2.41h-7.2v4.81l12-2.4v4.81l26.55 2.37v2.41c3.86.48 3-4.08 4.82-4.82h12v-2.39c1.65-.19 8.07 4 12.05 4.82-.37-6.17-3.6-4.35 0-7.22q2.4-1.21 4.82-2.41V294h-9.64v-2.41h12s.11 9.26 2.4 4.82V294c4.82-1.45 2.08.33 4.82-2.41l-9.63-2.41zm-542.17 96.38c4.81 1.45 2.07-.33 4.82 2.41-4.81-1.45-2.04.34-4.82-2.41zm26.5-7.23c4.81 1.45 2.08-.33 4.82 2.41-4.81-1.45-2.07.34-4.82-2.41zm28.92 7.23v-4.82c2.7 2.74 1 0 2.41 4.82zm16.87-2.41v2.41h-2.41c1.3-3.15.63.5 2.41-2.41q-1.22-2.4-2.41-4.82c2.14-2.77 1.75 2 4.82-2.41h2.41c-1.9 3.5-2 4.6-4.82 7.23zM243.37 359c4.81 1.45 2.08-.34 4.82 2.41-4.81-1.41-2.07.37-4.82-2.41zm26.51-26.51v2.41h-2.41v-4.82c4.81 1.45 2.07-.33 4.82 2.41zm7.23-9.64l2.41-4.82h2.41c2.16 1.04-4.64 4.76-4.82 4.86zm94-289.16c4.81 1.45 2.08-.33 4.82 2.41-4.84-1.41-2.1.38-4.85-2.37zm12.05-14.45c4.81 1.45 2.08-.34 4.82 2.41-4.84-1.41-2.1.35-4.85-2.37zM159 734.94c-4.81-1.45-2.08.33-4.82-2.41 4.82 1.47 2.11-.33 4.82 2.41zm4.82 9.64h-9.64v-4.82h7.23v2.41h2.41zm2.41-2.41c4.81 1.45 2.07-.34 4.81 2.41-4.77-1.45-2.04.33-4.77-2.41zm9.63-9.64c-4.21 2.06-6-1.38-7.23-2.41h7.23zm12-14.46v2.41c-4.21 2.06-6-1.38-7.23-2.41zm-7.23 7.23H188v2.41c-4.26 2.06-6.09-1.38-7.28-2.41zm9.64 12.05c-1.3-.17-10 1.4-7.23-2.41h2.41v-2.41l4.82 2.41zm16.87-16.87c-4.81-1.45-2.08.34-4.82-2.41 4.9 1.45 2.16-.33 4.91 2.41zm-4.82-41v2.41c-4.21 2.05-6-1.38-7.23-2.41zM200 722.89c-4.81-1.45-2.07.34-4.82-2.41 4.82 1.45 2.07-.33 4.82 2.41zm2.41 19.28H200v2.41c-3.49-1.9-4.6-2-7.23-4.82h9.64zm-2.41-9.64v2.41s-9.37-.34-4.82-2.41h2.41v-2.41c4.81 1.45 2.07-.33 4.82 2.41zm9.64 4.82h-4.82v-4.82h2.41v2.41h2.41zm-9.64-9.64v-2.41h9.64v-2.41h4.82v2.41zm14.46 9.64v2.41h-2.41v-4.82c4.81 1.45 2.07-.33 4.82 2.41zm2.41-16.87v-4.82c2.7 2.74 1 0 2.41 4.82zm7.23 19.28h-4.82c1.45-4.81-.34-2.07 2.41-4.82v2.41h2.41zm7.23-4.82h-4.82v-4.82h4.82zm-4.82-21.69c4.81 1.45 2.07-.33 4.82 2.41-4.82-1.45-2.08.34-4.82-2.41zm0-62.65c4.81 1.45 2.07-.33 4.82 2.41-4.82-1.45-2.08.34-4.82-2.41zm9.63-4.82v-2.41h-2.41V641h4.82c-1.45 4.77.34 2-2.41 4.78zm16.86-26.5c4.81 1.45 2.08-.34 4.82 2.41-4.82-1.45-2.06.31-4.82-2.41zm183.14-207.23c4.82 1.45 2.08-.34 4.82 2.41-4.81-1.46-2.07.33-4.82-2.41zm221.69-120.48c-4.81-1.45-2.07.33-4.82-2.41 4.81 1.45 2.08-.34 4.82 2.41zm12 7.23v2.4h-9.64v2.41h-12v-2.41h2.41v-2.4c2.94-1.48 4.82 2.4 4.82 2.4h2.41v-2.4h9.64v-2.41c4.81 1.45 2.07-.34 4.82 2.41zm9.64-4.82c4.81 1.45 2.07-.34 4.82 2.41-4.76-1.45-2.03.33-4.77-2.39zm31.32-14.46v-2.41H706c2.76 2.7 0 1.03 4.84 2.41zm-2.41 16.87v2.41h7.23v-2.41zm-50.6 14.45v-2.41H653c2.75 2.7 0 1.03 4.83 2.41zm21.69 0v-2.41h-4.77c2.73 2.7-.02 1.03 4.82 2.41zm-12 2.41h4.82v-2.41h-4.82zm26.53 4.82h7.22v-2.41H694zM139.76 375.9h-7.23v2.41h7.23zm-2.41 16.87v-2.41h-4.82c2.73 2.7-.02 1.03 4.82 2.41zm4.82 2.41l-2.41 7.23h2.41l2.41-4.82c-.37-3.39-.34.3-2.41-2.41zM200 400v-2.41c-4.12-1.57-7.57-2.39-14.46-2.41l-4.82 7.23c5.24 3.79 6.76-8.36 14.46-4.82V400zm-50.6-2.41H147c-.22 7.44-4.83 4.84 2.41 7.23zm9.64 0h-7.23V400H159zm53 0h-4.82V400h4.82zm-36.15 9.64h7.23v-2.41h-7.22zm12 2.41v-2.41h2.41v-2.41h-4.82c1.52 4.81-.27 2.07 2.52 4.82zm-53-2.41h-7.23v2.41h7.23zm9.64 2.41h4.82v-2.41h-4.82zm28.91 0h-4.82c2.74 2.7 0 1 4.82 2.41zm-41 322.89h-4.82v2.41h4.82zm4.82 7.23v4.82h2.41c-1.36-4.81.42-2.08-2.32-4.82zm-4.73 7.24h4.82v-2.41h-4.82zm86.75 0v-2.41c-7 2.52-7.71 6-16.87 7.23v2.41l19.28-2.41c-1.45-4.82.31-2.09-2.41-4.82zm-96.39 2.41V747h-4.82c2.74 2.69-.02 1 4.82 2.4zm9.64 0h-4.82v4.82h4.82zm14.47 2.4h7.23v-2.41H147zm16.87 0v2.41h16.86c-2.49-6.03-5.53-2.83-16.87-2.41zm-28.92 4.82h9.64v-2.41h-9.64zm12.05 0h7.23v-2.41H147zm19.27 2.37v-2.41l-7.27-2.37c2.79 4.05 1.5 3.35 7.27 4.78zm-45.79-2.41H106V759h14.46zm12 7.23V759c-4.81-1.45-2.07.33-4.82-2.41h-4.82c2.65 4.08 5.16 5.26 9.69 7.27zm41-7.23V759h-4.82v2.41h7.23s-.11-9.22-2.4-4.78zM159 761.45V759h-4.82c2.82 2.73.01 1.06 4.82 2.45zm48.19 0V759h-4.82c2.77 2.73.02 1.06 4.86 2.45zm-67.47 2.41h12.05v-2.41h-12.01zm-26.51 4.81h-2.41v2.41c5.69-.57 6-1 9.64-2.41.81-1.6 1.61-3.21 2.41-4.81h-4.82c-1.82 2.44-2.92 2.37-4.78 4.81zm45.79-2.4h7.23v-2.41H159zm-9.64 0v7.22h2.41q1.2-3.62 2.41-7.22zm-16.87 2.4h-4.82c2.74 2.7 0 1 4.82 2.41zm7.23 4.82v-2.41h2.41v-2.41h-4.82c1.49 4.82-.31 2.08 2.45 4.82zM94 771.08h-4.84c2.73 2.7 0 1 4.82 2.41zm65 2.41h9.63v-2.41H159zm-48.2 2.41h2.41v2.41h-2.41c-1.88 3.47 3.31 2.93 4.82 2.41v-2.41h2.41v-2.41l-7.23-2.41zm16.87 2.41h2.41c-1.45-4.81.33-2.07-2.41-4.82zm-26.51 0v-2.41h-4.77c2.73 2.7-.03 1.03 4.81 2.41zm-9.63 2.41v4.82H94c-1.47-4.81.31-2.07-2.43-4.82zm43.37 2.41v-2.41h-4.82c2.77 2.7.02 1.03 4.86 2.41zm19.28 2.41h7.23v-2.41h-7.23zm19.27 0v-2.41h-4.82c2.78 2.7.02 1.03 4.86 2.41zM84.34 788h4.82v-2.41h-4.82zm26.5 2.41v-4.82h-7.23c2.08 2.41 4.15 3.35 7.23 4.77zm14.46-4.82h-4.82c2.74 2.7 0 1 4.82 2.41zm-26.5 7.23v-2.41H94c2.71 2.65 0 .98 4.8 2.36zm60.24 0v-2.41h-4.82c2.78 2.65-.03.98 4.78 2.36zm-55.43 4.82h12v-2.41h-12zm26.51 2.36v-2.41h-4.82c2.7 2.7-.02 1.03 4.82 2.41z" transform="translate(-84.34)" fill="{{colors[0]}}" fill-rule="evenodd"/></svg>