<svg data-name="图层 1" xmlns="http://www.w3.org/2000/svg" viewBox="0 0 800 546.56" preserveAspectRatio="none"><path d="M759 126.72h-3.94V128H759zm7.9 1.31v-1.31h-2.64c1.5 1.47-.01.56 2.64 1.28zm-9.21 5.27h-2.63v2.63h2.63zm13.15 1.31c1.13 1.48-.18.21 1.32 1.32v-2.63h-2.63c1.12 1.48-.18.2 1.31 1.31zm-35.52 3.95H734c-1.12-1.48.18-.21-1.32-1.32v2.63c2.64-.79 1.15.19 2.64-1.31zm21-1.32v1.32c-1.48 1.12-.2-.18-1.31 1.31h2.63c-.74-2.62.23-1.13-1.27-2.63zm18.42 0v2.63h1.31c-.74-2.62.24-1.13-1.26-2.63zm-47.36 2.63v-1.31h-2.58c1.49 1.44-.01.56 2.63 1.31zM799.78 303l-1.31-2.63c.13-1.77 2.19-3.28 1.31-6.58h-1.31v-6.59h1.31v-5.26h-1.31v-1.32l1.31-2.63h-1.31c-.58-3.18 1.08-3.35 1.31-5.26h-1.31v-1.31h1.31v-19.73h-1.31a2.28 2.28 0 0 1 1.31-2.64 2.32 2.32 0 0 0-1.31-2.63v-1.31h1.31q-.66-3.95-1.31-7.89c.43-1.32.87-2.64 1.31-3.95h-1.31v-10.52h-1.32v-1.32c.07-.39 2.4-.16 2.63-2.63l-2.63-1.32c-.58-2.21 1.26-2.34 1.32-2.63v-5.26h-1.32l1.32-5.26h-1.32l1.32-4h-1.32v-13.1h-1.32v-1.32c.48-.85 1.94-.07 1.32-2.63h-1.32c-.76-3.06 1.46-5.76 1.32-6.57h-1.32v-2.64h-1.31l-1.32-7.89s5.06-.06 2.63-1.31h-1.31c-1.8-3.09-3.73-4.49-7.89-5.26q1.3 4.59 2.63 9.2h-6.58c2.24-2.8 2.72-.72 4-5.26h-4c-.85-3.11-.37-2.46-2.63-3.94v-1.32l4 1.32v-5.27l-4 1.32-1.32-3.95H784v-1.31l-9.21-1.32v-1.31h5.26v-1.32h1.31v-1.31h-7.89v1.31c-3.58 1-3 .31-3.94 4h5.26v1.31h-6.58v-6.57h3.95v-2.69h-3.95c1.5-2.21.8-1.83 3.95-2.63v-1.31a16.71 16.71 0 0 0-6.58 1.31l1.32 5.27h-2.64v2.63h1.32v1.31h-1.32v5.26h-3.94L759 150.4h1.32v-2.63h-2.63c.85-3.12.37-2.47 2.63-4v-1.27h-5.26v-1.31h-1.32v10.52l-2.63 1.29s2.47 5.79 1.32 7.89h-1.32c-1.12 1.48.18.21-1.32 1.32-.43-1.76-.87-3.51-1.31-5.27h1.31v-1.31c-.6-1.15-2.61-.46-2.63-2.63.78-1.06 1.72-.7 2.63-2.63l-3.94-1.32v1.32h-5.26v-1.32h-5.27v-3.94h-3.94v-1.32h-1.32v6.58l4-1.32V153c-6-1.71-2-.17-7.89 1.31V157h-1.37c.74-3.1 1.22-3.08 2.63-5.26h1.32v-1.34h-1.32v-6.58h-2.63l1.32 2.63h-1.32v5.26h-2.63v-2.63h-3.95v5.26H713V157h3.95v1.32l-6.58 1.32v2.63h5.26v1.31c-1.93.71-5.57 2.28-9.2 1.32v-1.32h-1.32v1.32c-1.48 1.12-.2-.18-1.32 1.31h2.64v2.63l-2.64 1.32c-.49 1.65 2.21 5.22 1.32 9.21h-1.32v1.31h1.32c-.11 1.91-1.76 2.07-1.32 5.26h1.32v1.32h-1.32v46h-1.31l2.63 7.89h-1.32v6.58h1.32c.46 3.09-2.22 7.06-1.32 11.84h1.32l-1.32 3.94 1.32 5.27h-1.32v1.31c.6 1 1.81 0 1.32 2.63h-1.32c-.61 3.37 1.32 3.95 1.32 3.95v9.21c-.36 1.82-1.22-.55-1.32 1.31.61 1 1.81 0 1.32 2.63h-1.32l1.32 7.9h-1.32a3.52 3.52 0 0 0 1.32 3.94V303h-1.32v13.15h-1.31c.44 1.32.88 2.63 1.31 3.95h-1.31l-1.36 7.9h-1.31l-1.32 13.15h-1.31v2.64h-1.32v6.57l-2.63 1.32c-.44 3.51-.88 7-1.31 10.52h-1.32v2.63h-1.32v5.26H688v5.27h-1.32V378h-1.31l-1.37 7.86-2.63 1.31v2.64l-6.57 5.26v2.63l-10.53 9.21v2.63H663v1.31c-3.06 2.59-2.45-1.43-4 3.95l-11.84 3.94c-.44.88-.88 1.76-1.31 2.64l-7.9 1.31c-9.7 3.69-17.46 6.51-30.25 3.95-1.5 2.21-.8 1.83-4 2.63a5.26 5.26 0 0 0 2.63 2.63c-2.48 2.18-14.2 2.94-19.73 2.63v-1.32h-1.31l-1.32 2.64h-6.58l1.32-2.64h-5.26v-1.31h-1.32v1.31H563v1.32h-1.31v-1.32l-14.47-1.31s-.12 1.7-2.63 1.31a2.26 2.26 0 0 0-2.59-1.31v1.31h-5.3v-1.31c-1.81 0-2.13 2.09-5.27 1.31v-1.31h-5.26v1.31h-19.73v-1.31l-6.58 1.31v-1.31l-3.94 1.31c-3.17.3-3.95-1.31-3.95-1.31a3.58 3.58 0 0 0-4 1.31h-5.26v-1.31l-3.94 1.31a3.54 3.54 0 0 0-3.95-1.31v1.31c-7.3 1.87-19.7-.44-25-1.31-2-.34-7.61 1.54-11.84 1.31l-4-1.31v1.31h-11.73c-.4-.09-.36-1.74-2.63-1.31v1.31h-40.78v-1.31h-1.31v1.31H357.8v1.32h-1.32v-1.32c-3-.45-7.8 1.33-7.89 1.32v-1.32h-13.16c-.42.11-.36 1.7-2.63 1.32v-1.32c-2.89-.48-3.94 1.32-3.94 1.32l-5.26-1.32v1.32h-5.27l-2.63-1.32v1.32h-22.36c-18 0-40.13-.56-48.67 1.32h-6.58v-1.32h-3.94v1.32l-4-1.32v1.32L217 434.53v1.32h-1.32v-1.32h-5.26v1.32h-1.32v-1.32c-3.19-.33-3.94 1.32-3.94 1.32-3 .62-4-1.32-4-1.32l-3.95 1.32a3.41 3.41 0 0 0-3.94-1.32v1.32h-38.05v-2.64h1.32c2.35-2.74 2.65-.82 3.94-5.26h2.63v-1.31l2.63-1.32v-2.63c2.87-3.74 6.36-1.72 7.9-7.89 3.38-.89 4.32-2.06 6.57-3.95v-1.31l3.95-1.32v-2.63h1.32c.43-.88.87-1.75 1.31-2.63h2.63l9.21-10.52h2.63c1.74-6.34 7.84-9 11.84-13.16V378l2.63-1.32V374l6.58-5.26v-2.63l2.63-1.32v-2.63h1.31l1.32-2.63 4-1.32v-1.31h2.63v-2.63c4.35-1.2 6.13-4.08 9.2-6.58v-1.29l4-1.32c-.45-6.47-2.65-5.59-4-10.52-3.58-.91-3-1.79-6.57-2.63v-5.27c-5.27-.53-4.78-1.56-9.21 0a12.86 12.86 0 0 1-1.32-5.26l-3.94-1.31v-1.32h-2.63q-1.32-3.28-2.63-6.58c-4.78 0-6-.21-7.9 2.64h-1.31c.44-1.32.87-2.64 1.31-3.95-4.06-.12-2.64-2.64-3.94 1.31h-1.32v-6.57h1.32V303c-1.27-1.36-1.32 1.31-1.32 1.31-4.71.05-7.12-.81-10.52-1.31-1.85-6.31-1.55-1.25-5.26-3.95v-1.31c-2.11-2.05-1-.82 1.31-2.64v-5.26h-1.31c-1.5-1.47 0-.56-2.63-1.31-1.45 1.74-3.62 2.42-5.27 3.94-.43.88-.87 1.76-1.31 2.63h-2.63v1.32c-1.94 1.81-1.75.66-2.63 3.95l-3.95 1.31V303h-2.63v1.31h-2.63c-.88 1.32-1.76 2.63-2.63 3.95h-4c-.44.88-.88 1.75-1.31 2.63h-2.63v1.31c-1.78 1.2-2.31 1-5.27 1.32.79 2.63-.18 1.13 1.32 2.63v1.32c-3.25.62-4.82 1.28-9.21 1.31 1.49 1.48 0 .56 2.63 1.32v2.63l-5.26 1.27v1.32l-2.63 1.31v2.64l-2.63 1.31a21.12 21.12 0 0 0-5.26 9.21h-3.95v3.95H121v2.63h-2.63v3.94c-6.29 1.75-5.58 6.24-11.84 7.89v3.95h-4c-.79 2.63.19 1.13-1.31 2.63v1.32h-4v2.63h-2.51c2.68 3.36-3.49 4.73-5.26 7.89h-4v5.26h-2.58c-.87 1.32-1.75 2.63-2.63 3.95h-2.63l-4 5.26-2.61 1.35c-.44 1.31-.87 2.63-1.31 3.94-3.07 3.28-6.49 2.55-7.89 7.89l-5.27 1.32v4l-3.94 1.31v3.95H50v1.31l-2.63 1.32v2.63l-6.58 5.26V428h-4l-1.31 3.95H34.2v2.63h-1.31c-1.78 1.93-.64 1.83-3.95 2.63v3.95h-2.63c-1.55 5.69-4.15 4.5-6.58 7.89v2.63h-1.31c-.88 1.32-1.76 2.63-2.63 3.95l-6.58-1.32v1.32H7.89v6.57l-2.63 1.32v2.63H4l-1.32 3.95H0l1.32 17.1c2.62.79 1.13-.19 2.63 1.31h1.31l1.32 9.21 3.94 1.28v1.31h2.63v1.32c2.33 1.85 3.13 3.07 6.58 3.94v2.63h1.32l7.89 9.21h2.63c3.3 2.66-.08 4.88 6.58 6.58v3.95c3.8 1 4.36 1.41 5.26 5.26 5.73 1.55 7.24 6.5 11.84 9.21V545h2.63v1.31c2.74 2.35.82 2.66 5.26 3.95v2.63l4 1.31 1.31 3.95 6.58 4c.44 1.31.88 2.63 1.31 3.94h2.64c1 3.58.31 3 3.94 3.95v2.63h2.58V574c2.75 2.35.83 2.65 5.26 3.94v2.63h2.64c1.07 4.24 3 5.05 6.57 6.58v2.63c3.8 1 4.36 1.41 5.26 5.26 4.5 1.23 8.71 6.23 11.84 9.21l1.32 2.63H121l4 6.58 3.94 2.63v1.31h2.63l2.63 4c5.51 5.41 11.58 11.88 18.42 15.79v2.63c3.58 1 3 .31 3.95 3.94h2.63V645c1.83 1.3 3.8 2.27 5.26 3.94h1.31v2.64c4.23 1.13 4.65 3.36 7.9 5.26v2.63h3.94l1.32 3.94h2.63c.88 1.32 1.75 2.64 2.63 4h2.63c-.44.88-.88 1.75-1.31 2.63h6.57v1.32h1.32q.66-3.3 1.31-6.58H196v1.32c3.58 1 3 .31 3.95 3.94h6.57s.07 5.06 1.32 2.63v-1.31c4-2.7.56-2.41 2.63-5.26h1.31v-1.32h1.32v2.63l4 1.32c.43-.88.87-1.76 1.31-2.63h-1.31v-1.32h2.63v-4c5.37 1.51 2 2.46 3.94 4l3.95-1.32v2.64c2.63-.8 1.13.18 2.63-1.32h1.32c1.14-3.15-2.1-2.77-2.64-4-1.62-3.56.46-4.08-2.63-6.57v-1.32l3.95 1.32 1.32 2.63 9.2-1.32 1.32 4h1.31c1.83-3.3 3.52-4.1 4-9.21h3.95v4c7.23-1.73 1.48-3.24 9.2 0 1.53-4.46.53-3.92 0-9.21h-2.63v-2.63c2.63-.79 1.14.18 2.63-1.32 3.08-2.88 3.21-7.94 0-10.52v-1.32a13 13 0 0 0 5.27 1.32c-.62-2.86-.84-3.73-2.63-5.26V624H267q-2.62-5.26-5.26-10.52h-2.63c.44-1.32.88-2.63 1.31-3.95-5.87-1.58-6-6.43-10.52-9.21v-2.63h-2.6c-1.5-5.37-.89-1.36-4-3.94v-1.32H242v-2.63l-6.58-4v-2.63h-2.63v-2.63l-4-1.31c-.43-1.32-.87-2.63-1.31-4l-3.86-1.23v-1.32c-2.91-2.47-4.93-5.53-9.21-6.58v-2.63h-1.31l-6.58-7.89h-2.63c-.44-.88-.88-1.75-1.31-2.63l-13.16-11.84-2.63-4h-2.63c-1.23-4.5-2.8-3.38-3.95-7.89 10 1.52 21.4-.44 30.26 1.32l15.78-1.32v1.32l3.95-1.32v1.32h9.21v-1.32H246v1.32l13.15-1.32v1.32c2.3.35 9.46-2.23 14.47-1.32v1.32l2.63-1.32h27.62c1.83-.34-.54-1.25 1.32-1.31v1.31h7.89c1.83-.34-.54-1.24 1.32-1.31v1.31c3.36.66 4.77-1.22 6.57-1.31v1.31h5.27v-1.31h1.31c.72.41.18 2.06 3.95 1.31v-1.31c2.68-.37 2.63 1.31 2.63 1.31H342c1.92-.29 2.08-1.86 5.26-1.31v1.31l7.9-1.31c4.1.93 14.45 1.49 22.36 0v-1.32l2.63 1.32h18.42v-1.32l2.63 1.32h28.94v-1.32l6.57 1.32v-1.32H438v1.32h1.31v-1.32c2.43-.34 2.63 1.32 2.63 1.32 3.2.58 3.37-1.2 5.27-1.32l2.63 1.32v-1.32a2.23 2.23 0 0 1 2.63 1.32l3.94-1.32 2.63 1.32v-1.32h19.74l14.47-1.32v2.64h1.31l1.32-3.95c1.68.38 2.63 2.63 2.63 2.63l18.49-1.3v1.32l2.63-1.32 7.9 1.32v-1.32h11.84v1.32l5.26-1.32c2.86.05 2.63 1.32 2.63 1.32h9.21v1.32h26.31s-.2-1.73 2.63-1.32v1.32c2.88.3 4.74-2.23 9.2-1.32v1.32h1.32v-1.32h4v-1.32l5.26 1.32v-1.32H609V524l27.63 2.63v-1.32h10.52c9.78-2.91 23.27-3.59 32.89-6.57h6.57v-1.34h4v-1.31h7.89l14.5-5.27 1.32-2.63 5.26-1.31 2.63-3.95 4-1.31v-1.32h2.63l2.63-3.95H734l7.89-9.2h2.63q5.93-6.58 11.84-13.16l6.58-5.26v-2.63l2.63-1.32 1.32-3.94h1.31l2.63-7.89 2.63-1.32 1.32-6.58h1.31v-3.94h1.32v-2.63l2.63-1.32v-4h1.31v-2.63h1.32q1.32-7.89 2.63-15.78h1.32v-13.11l2.63-1.31-1.32-3.95h2.63l1.32-7.89h1.31c.46-1.8-.31-.12-1.31-1.32q.66-3.94 1.31-7.89h1.32v-2.63h1.31q2-8.55 3.95-17.1l-3.95 1.32v-2.64c4.46-1.88-.41-5.08 1.32-11.83h1.32l-1.32-5.27h1.32v-7.89c-.11-.42-1.74-.35-1.32-2.63 0 0 1.33-.5 1.32-2.63l-1.32-2.63 2.63-1.32v-1.31c-2.47-3.93-.28-11.3-1.31-17.1h-1.32c-.23-2.08 2.36-1.68 2.64-2.62zm-542 335.43v1.32c-2.3 1.12-3.29-.76-3.94-1.32zM246 648.94c-2.63-.79-1.14.19-2.64-1.31 2.64.79 1.13-.18 2.64 1.31zm-53.94 14.47c-2.62-.79-1.13.19-2.63-1.31 2.62.79 1.12-.18 2.62 1.31zM570.9 434.53c2.62.79 1.13-.18 2.63 1.32-2.63-.8-1.14.15-2.63-1.32zm139.43-268.35c1.48 1.5.56 0 1.32 2.63h-1.32zm-2.63 343.33v-1.32h3.95v-1.31H713c1.11 2.35-3.22 2.44-5.3 2.63zM734 164.87c2.63.79 1.13-.19 2.63 1.31-2.63-.79-1.12.18-2.63-1.31zm10.52-4h-2.62c-.82-4.86-.92-3.44-1.31-9.21h5.26zm5.26 4c2.63.79 1.14-.19 2.64 1.31-2.62-.79-1.13.18-2.63-1.31zm13.22-5.26v1.31h-1.32V157h2.63c-.84 2.6.14 1.11-1.31 2.61zm23.68 11.83c2.62.8 1.13-.18 2.63 1.32-2.68-.76-1.18.18-2.68-1.32zm-6.58-28.94v-1.31l-3.95-1.32v2.63zm-60.51-1.31h-1.32v3.95h1.32zM738 142.5h-2.64v2.64H738zm-15.79 5.27v-2.63h-2.63v2.63zm-11.84 6.57V153h-2.67c1.49 1.5-.01.59 2.63 1.34zm84.19 1.32l-5.3-2.66v5.26a12.9 12.9 0 0 1 5.26-1.32zm-85.5 4l-2.63-1.32-1.32 2.63H709zM159.17 304.3v1.32c-1.49 1.12-.21-.18-1.32 1.31h2.63c-.79-2.62.18-1.13-1.31-2.63zm-2.63 5.26v-1.31c1.48-1.13.2.18 1.31-1.32h-2.63c.78 2.63-.22 1.14 1.32 2.63zm113.12 315.71V624H267c1.52 1.42 0 .51 2.66 1.27zm-35.51 35.51h5.26v-1.31l-5.26-1.32zm-19.74 11.84v-1.31h-2.63c1.5 1.47-.01.56 2.63 1.31z" transform="translate(0 -126.72)" fill="{{colors[0]}}" fill-rule="evenodd"/></svg>