<svg xmlns="http://www.w3.org/2000/svg" data-name="图层 1" viewBox="0 0 172.6 166.14" preserveAspectRatio="none"><path d="M172.6 9.49L155.06 0l.56 19.94 7.53-4.63c6.61 15.75 8.06 35.47 3.82 53.45-3.86 16.4-14.29 39.39-42 55.8-8.09 4.78-23.56 10.64-37.45 10a28.67 28.67 0 0 0 3.13-20.22c-1.11-5.48-4.11-9.64-8.42-11.72a13.21 13.21 0 0 0-11.83.14A16.23 16.23 0 0 0 61.82 114a15.15 15.15 0 0 0 3.64 13c4.52 5.19 10.86 8.33 18.68 9.32-3.53 5.25-8.91 10.46-16.29 15.84-16.55 12.07-52.5 17-66.59 5.43L0 159.13c5.57 4.57 14.67 7 25.64 7a80.58 80.58 0 0 0 8.21-.43c13.47-1.36 26.95-5.94 35.18-12 7.88-5.75 13.61-11.44 17.27-17.24a54 54 0 0 0 10.8-.39 82.91 82.91 0 0 0 28.84-9.85c28.36-16.76 39-40.29 43-57.07 4.35-18.47 2.83-38.79-4-55zM85.34 134.38c-7.08-.7-13.62-3.25-18.37-8.7a13.22 13.22 0 0 1-3.18-11.34 14.2 14.2 0 0 1 7.48-9.82 11.19 11.19 0 0 1 10-.12c3.74 1.8 6.34 5.46 7.33 10.32a26.74 26.74 0 0 1-3.26 19.66z" fill="{{colors[0]}}"/></svg>