<svg data-name="图层 1" xmlns="http://www.w3.org/2000/svg" viewBox="0 0 800.06 690.2" preserveAspectRatio="none"><path d="M770.11 630.22c-131.48-.5-254.91-52.17-347.53-145.5S279.23 267.58 279.73 136.09a30 30 0 0 0-29.89-30.11h-.11a30 30 0 0 0-30 29.88 552.27 552.27 0 0 0 550.16 554.32h.11a30 30 0 0 0 .11-60z" transform="translate(.01 -.02)" fill="{{colors[0]}}"/><path d="M453.52 270.83a30 30 0 1 0 41.86-43L270.24 8.53a30 30 0 0 0-42.42.57L8.51 234.21a30 30 0 0 0 43 41.88L249.86 72.42z" transform="translate(.01 -.02)" fill="{{colors[0]}}"/></svg>