<svg data-name="图层 1" xmlns="http://www.w3.org/2000/svg" viewBox="0 0 747.9 747.9" preserveAspectRatio="none"><path d="M747.8 373.9c0 30.9-60.2 53.5-67.8 82s32.7 79.2 17.8 105-78.6 15.7-99.9 37-10.8 84.7-37 99.9-75.5-25.7-105-17.8-51.1 67.8-82 67.8-53.5-60.2-82-67.8-79.2 32.7-105 17.8-15.7-78.6-37-99.9-84.7-10.8-99.9-37 25.7-75.5 17.8-105S0 404.8 0 373.9s60.2-53.5 67.8-82-32.7-79.2-17.8-105 78.6-15.7 99.9-37 10.8-84.7 37-99.9 75.5 25.7 105 17.8S343 0 373.9 0s53.5 60.2 82 67.8 79.2-32.7 105-17.8 15.7 78.6 37 99.9 84.7 10.8 99.9 37-25.7 75.5-17.8 105 67.8 51.1 67.8 82z" fill="{{colors[0]}}"/></svg>