<svg xmlns="http://www.w3.org/2000/svg" viewBox="0 0 800 800" preserveAspectRatio="none"><path d="M352.8 479L328 452.7 288.8 411c-2.8-3-5.4-6.2-7.8-9.5-16.6-23.3-20.8-53.1-12.8-79.5 4.1-13.4 11.3-25.9 21.6-36.2 16.8-16.9 38.9-25 60.8-24.5 18.2.4 36.4 6.7 51.5 18.8 22.4-16.8 51.1-20.9 76.7-12.3 13 4.4 25.2 11.9 35.4 22.8 16.5 17.6 24.7 40.4 24.5 63.1-.2 18.8-6 37.5-17.6 52.9-2.4 3.2-5 6.3-7.9 9.1l-41.6 41.8-15.3 15.3" fill="none" stroke="{{colors[0]}}" stroke-width="24" stroke-linecap="round" stroke-linejoin="round" stroke-miterlimit="10"/><path d="M382.4 476.7l-9.6-10.2-15.2-16.2c-1.1-1.2-2.1-2.4-3-3.7-6.4-9.1-8-20.7-4.8-31.1 1.6-5.2 4.5-10.1 8.5-14.2 6.6-6.6 15.2-9.9 23.8-9.7 7.1.1 14.2 2.5 20.1 7.2 8.8-6.6 20-8.3 30-5 5.1 1.7 9.8 4.6 13.8 8.8 6.4 6.8 9.6 15.8 9.4 24.6-.1 7.4-2.4 14.7-7 20.7-.9 1.3-2 2.5-3.1 3.6L428.9 468l-9.3 9.3" fill="none" stroke="{{colors[0]}}" stroke-width="20" stroke-linecap="round" stroke-linejoin="round" stroke-miterlimit="10"/><path fill="none" stroke="{{colors[0]}}" stroke-width="16" stroke-linecap="round" stroke-linejoin="round" stroke-miterlimit="10" d="M27.5 484.1H154v-80.8l32.5 80.8H253l13-40.4 32.4 40.4h47.1l41.6-3m394.4 3H654.9v-80.8l-32.4 80.8h-66.6L543 443.7l-32.5 40.4h-90.7"/></svg>