<svg data-name="图层 1" xmlns="http://www.w3.org/2000/svg" viewBox="0 0 800 800" preserveAspectRatio="none"><defs><clipPath id="a"><path fill="none" d="M108.44 122.32h581.88V704.2H108.44z"/></clipPath></defs><path fill="{{colors[0]}}" d="M108.44 122.32h581.88V704.2H108.44z"/><g clip-path="url(#a)" fill="{{colors[1]}}"><circle cx="424.09" cy="436.54" r="43.5"/><circle cx="301.82" cy="541.62" r="17.45"/><circle cx="241.15" cy="669.02" r="17.45"/><circle cx="200.75" cy="453.99" r="17.45"/><circle cx="139.8" cy="321.43" r="17.45"/><circle cx="293.13" cy="363.21" r="17.45"/><circle cx="442.88" cy="321.43" r="17.45"/><circle cx="486.38" cy="545.92" r="17.45"/><circle cx="597.88" cy="664.78" r="17.45"/><circle cx="615.33" cy="436.54" r="17.45"/><circle cx="689.1" cy="301.23" r="17.45"/><circle cx="442.88" cy="321.43" r="17.45"/><circle cx="431.59" cy="190.94" r="17.45"/><circle cx="175.24" cy="210.89" r="17.45"/><circle cx="586.83" cy="136.95" r="17.45"/><circle cx="543.33" cy="277.93" r="43.5"/><circle cx="663.88" cy="558.77" r="43.5"/><circle cx="442.88" cy="669.02" r="43.5"/><circle cx="293.13" cy="234.44" r="43.5"/><circle cx="293.13" cy="234.44" r="43.5"/><circle cx="122.35" cy="571.97" r="43.5"/></g><path fill="{{colors[2]}}" opacity=".6" d="M165.85 108.61l182.82 71.82-3.92-11.04 6.23-2.03-.62-6.36 9.45-1.98-4.9-7.66 13.06-4.74-.58-5.33 9.53-4.61-183.59-72.46 2.94 8.28-5.57 5.17-13.11.91.49 8.87-6.66 4.92-.01 11.06-5.56 5.18zm391.13 627.17l178.08-82.89-10.7-4.77 2.82-5.91-5.03-3.94 5.08-8.21-8.92-1.73 5.57-12.73-4.25-3.25 3.22-10.09-179.07 83.01 8.02 3.58-.09 7.6-8.38 10.13 6.77 5.75-1.03 8.22 8.01 7.63-.1 7.6z"/></svg>