<svg xmlns="http://www.w3.org/2000/svg" width="800" height="800" preserveAspectRatio="none" viewBox="0 0 800 800"><g fill-rule="evenodd" clip-rule="evenodd"><path fill="{{colors[0]}}" d="M766.002 758.78H43.727l107.24-259.599h507.795z"/><path fill="{{colors[1]}}" d="M619.6 499.181h39.162l107.24 259.599h-39.088z"/><path fill="{{colors[2]}}" d="M212.434 586.368l36.039-87.187h64.226l99.758 87.187h282.342l23.832 57.688H478.43L609.574 758.78H512.65L285.381 565.37l-79.922 193.41H141.23l47.374-114.724H91.098l23.832-57.688z"/><path fill="{{colors[3]}}" d="M655.637 586.368h39.162l23.832 57.688h-39.162z"/><path fill="{{colors[4]}}" d="M212.434 586.368H114.93l36.037-87.187h97.506zm482.365 0H412.457l-99.758-87.187h346.063z"/><path fill="{{colors[5]}}" d="M694.799 586.368h-39.162L619.6 499.181h39.162z"/><path fill="{{colors[4]}}" d="M285.381 565.37L512.65 758.78H205.459z"/><path d="M341.762 198.601c-17.438 17.536-26.156 38.727-26.156 63.574 0 24.849 8.719 46.064 26.156 63.646 17.438 17.536 38.485 26.303 63.139 26.303 24.655 0 45.677-8.767 63.066-26.303 17.438-17.582 26.156-38.797 26.156-63.646 0-24.848-8.719-46.039-26.156-63.574-17.39-17.582-38.411-26.374-63.066-26.374-24.654 0-45.702 8.792-63.139 26.374zm221.384-95.907c20.635 20.828 36.619 44.732 47.953 71.712 11.722 27.947 17.582 57.204 17.582 87.768 0 79.051-37.297 163.477-111.891 253.279-23.298 28.047-48.945 54.953-76.943 80.723-13.949 12.884-25.599 22.959-34.947 30.225-9.348-7.266-20.998-17.341-34.947-30.225-27.997-25.77-53.644-52.676-76.943-80.723-74.642-89.803-111.963-174.229-111.963-253.279 0-30.564 5.861-59.821 17.582-87.768 11.336-26.98 27.32-50.885 47.953-71.712 20.685-20.779 44.417-36.884 71.203-48.316 27.706-11.818 56.746-17.729 87.115-17.729 30.371 0 59.409 5.911 87.115 17.729 26.787 11.432 50.497 27.537 71.131 48.316z" fill="{{colors[6]}}"/><path d="M589.594 262.175c0-28.965-5.28-56.769-15.84-83.409-10.172-25.769-24.631-48.898-43.375-69.387-18.697-20.392-40.324-36.765-64.883-49.117-25.285-12.69-52.021-20.27-80.213-22.74 6.491-.582 13.03-.873 19.617-.873 30.371 0 59.409 5.911 87.115 17.729 26.786 11.432 50.496 27.537 71.131 48.316 20.635 20.828 36.619 44.732 47.953 71.712 11.722 27.947 17.582 57.204 17.582 87.768 0 79.051-37.297 163.477-111.891 253.279-23.298 28.047-48.945 54.953-76.943 80.723-13.949 12.884-25.599 22.959-34.947 30.225-4.988-3.876-11.527-9.349-19.617-16.42 47.711-41.657 88.593-86.172 122.645-133.543 54.442-75.805 81.666-147.225 81.666-214.263z" fill="{{colors[7]}}"/><path d="M330.646 211.024c2.664 1.405 4.456 3.537 5.377 6.395.871 2.906.604 5.692-.801 8.355-5.86 11.432-8.791 23.565-8.791 36.4 0 21.797 7.679 40.422 23.033 55.873 15.306 15.402 33.785 23.105 55.436 23.105 21.603 0 40.082-7.703 55.438-23.105 15.306-15.451 22.959-34.076 22.959-55.873 0-21.749-7.653-40.348-22.959-55.799-15.355-15.452-33.835-23.177-55.438-23.177-16.275 0-31.073 4.625-44.393 13.877-2.471 1.696-5.183 2.276-8.137 1.744-3.003-.534-5.329-2.059-6.977-4.578-1.694-2.519-2.275-5.255-1.742-8.209.532-2.954 2.033-5.304 4.504-7.048 8.38-5.764 17.365-10.172 26.955-13.223a100.013 100.013 0 0 1 29.789-4.506c27.609 0 51.199 9.857 70.768 29.572 19.568 19.713 29.354 43.496 29.354 71.348s-9.785 51.634-29.354 71.349c-19.568 19.714-43.158 29.571-70.768 29.571-13.563 0-26.543-2.64-38.943-7.92-11.964-5.134-22.572-12.352-31.824-21.651-19.617-19.763-29.426-43.545-29.426-71.349 0-16.42 3.755-31.92 11.262-46.5 1.405-2.712 3.537-4.504 6.395-5.377 2.858-.92 5.619-.678 8.283.726z" fill="{{colors[8]}}"/><path d="M711.365 655.028H507.564l106.078 92.781h136.084l-38.361-92.781zM221.734 747.81h261.271L289.668 583.388 221.734 747.81zm-16.492-172.414l26.955-65.316h-73.965l-26.955 65.316h73.965zm329.86-65.317l-9.955 12.352c-14.87 17.824-30.902 35.479-48.098 52.965h100.629c3.003 0 5.57 1.065 7.701 3.197 2.131 2.18 3.197 4.771 3.197 7.775 0 3.002-1.066 5.594-3.197 7.773-2.131 2.131-4.698 3.197-7.701 3.197h-123.08c-16.372 15.45-30.734 28.021-43.086 37.709-1.937 1.501-4.141 2.252-6.611 2.252-2.519 0-4.746-.751-6.684-2.252-10.366-8.139-22.573-18.698-36.619-31.68-27.851-25.719-53.524-52.7-77.016-80.938l-9.953-12.352h-18.891l-33.277 80.502c-.823 2.035-2.155 3.681-3.996 4.941-1.792 1.21-3.803 1.816-6.031 1.816h-90.238l-14.822 35.746h81.23c1.792 0 3.512.436 5.158 1.309a10.841 10.841 0 0 1 3.924 3.633c.969 1.501 1.55 3.172 1.744 5.014.193 1.84-.074 3.584-.801 5.23l-41.123 99.539h40.688l77.162-186.654a10.808 10.808 0 0 1 2.979-4.068c1.307-1.162 2.785-1.938 4.432-2.324 3.682-.873 6.878-.122 9.59 2.252L516.646 747.81h63.865l-109.203-95.471c-1.694-1.501-2.834-3.366-3.414-5.594-.533-2.229-.412-4.408.363-6.539.822-2.132 2.154-3.827 3.996-5.086 1.889-1.309 3.947-1.963 6.176-1.963h223.926l-14.822-35.818h-66.408c-2.954 0-5.497-1.066-7.629-3.197-2.131-2.18-3.195-4.771-3.195-7.773 0-3.005 1.064-5.596 3.195-7.775 2.132-2.132 4.675-3.197 7.629-3.197h57.326l-26.955-65.316H535.102zm35.673-415.014c21.65 21.845 38.436 46.912 50.35 75.199 12.304 29.257 18.455 59.893 18.455 91.91 0 45.193-12.036 92.444-36.109 141.752-13.563 27.804-30.758 55.897-51.586 84.281h106.877c2.18 0 4.189.606 6.031 1.816 1.839 1.26 3.173 2.906 3.996 4.941l107.24 259.602c.677 1.694.943 3.438.799 5.23a10.815 10.815 0 0 1-1.816 5.014 10.471 10.471 0 0 1-3.852 3.561 10.61 10.61 0 0 1-5.158 1.307H43.727c-1.841 0-3.561-.436-5.158-1.307a10.48 10.48 0 0 1-3.852-3.561c-.969-1.502-1.55-3.173-1.744-5.014a10.771 10.771 0 0 1 .727-5.23l17.365-42.068c1.162-2.81 3.125-4.771 5.885-5.885 2.762-1.164 5.546-1.164 8.355 0 2.762 1.162 4.723 3.147 5.887 5.957 1.112 2.762 1.09 5.546-.074 8.355L60.002 747.81h73.963l38.363-92.781H98.363L87.902 680.24c-.873 2.083-2.229 3.729-4.07 4.941-1.791 1.21-3.777 1.816-5.957 1.816-1.309 0-2.688-.268-4.141-.801-2.762-1.162-4.723-3.147-5.887-5.957-1.112-2.81-1.112-5.594 0-8.355l73.094-176.918c.822-2.035 2.154-3.682 3.996-4.941 1.839-1.21 3.85-1.816 6.029-1.816h106.877c-20.827-28.384-38.022-56.478-51.586-84.281-24.072-49.308-36.109-96.559-36.109-141.752 0-32.017 6.151-62.653 18.455-91.91 11.916-28.288 28.699-53.354 50.35-75.199 21.701-21.845 46.574-38.774 74.619-50.787 29.11-12.4 59.554-18.6 91.328-18.6s62.193 6.2 91.256 18.6c28.047 12.011 52.919 28.94 74.619 50.785zm47.08 167.11c0-29.063-5.594-56.865-16.783-83.409-10.752-25.672-25.962-48.414-45.627-68.224-19.666-19.812-42.237-35.166-67.717-46.064C461.33 53.24 433.721 47.622 404.9 47.622c-28.868 0-56.478 5.618-82.828 16.856-25.478 10.898-48.05 26.252-67.715 46.064-19.667 19.81-34.899 42.552-45.701 68.224-11.189 26.544-16.783 54.346-16.783 83.409 0 30.225 6.151 62.121 18.455 95.689 16.032 43.739 41.971 88.495 77.814 134.268l.217.219a883.164 883.164 0 0 0 12.934 16.057c18.842 22.668 39.501 44.828 61.977 66.48 14.19 13.66 28.045 26.132 41.559 37.418 13.223-10.898 27.149-23.42 41.777-37.563 22.523-21.701 43.23-43.934 62.121-66.699 5.327-6.442 9.542-11.649 12.643-15.621l.217-.291c35.845-45.773 61.783-90.529 77.816-134.268 12.302-33.568 18.452-65.465 18.452-95.689z" fill="{{colors[8]}}"/></g></svg>