<svg data-name="图层 1" xmlns="http://www.w3.org/2000/svg" viewBox="0 0 732.6 732.6" preserveAspectRatio="none"><path d="M366.3 22.1C407.7-16.3 474.4-3 498 48.3c52.9-19.6 109.5 18.2 111.7 74.6 56.3 2.1 94.2 58.7 74.6 111.6 51.2 23.6 64.5 90.4 26.2 131.8 38.3 41.3 25 108.1-26.2 131.7 19.6 52.9-18.3 109.5-74.6 111.6-2.2 56.4-58.8 94.2-111.7 74.7-23.6 51.2-90.3 64.5-131.7 26.2-41.4 38.3-108.2 25-131.7-26.2-53 19.5-109.6-18.3-111.7-74.7-56.4-2.1-94.2-58.7-74.6-111.6-51.3-23.6-64.6-90.4-26.2-131.7C-16.3 324.9-3 258.1 48.3 234.5 28.7 181.6 66.5 125 122.9 122.9c2.1-56.4 58.7-94.2 111.7-74.6C258.1-3 324.9-16.3 366.3 22.1z" fill="{{colors[0]}}"/></svg>