<svg preserveAspectRatio="none" xmlns="http://www.w3.org/2000/svg" xmlns:xlink="http://www.w3.org/1999/xlink" width="852.9999732971191" height="331.99822" version="1.1" viewBox="0 0 852.9999732971191 331.99822"><defs><path fill-rule="nonzero" id="path-3" d="M0,42.08757v-24.88368c0,-9.48598 7.71081,-17.20389 17.18867,-17.20389h24.7047v2.00179h-24.7047c-8.37482,0 -15.18854,6.8196 -15.18854,15.2021v24.88368zM811.1066,0h24.70416c9.47796,0 17.1892,7.71791 17.1892,17.20389v24.88368h-2.00012v-24.88368c0,-8.38249 -6.81372,-15.2021 -15.18908,-15.2021h-24.70416zM852.99997,289.91067v24.88365c0,9.48598 -7.71124,17.20389 -17.1892,17.20389h-24.70416v-2.00179h24.70416c8.37536,0 15.18908,-6.8196 15.18908,-15.2021v-24.88365zM41.89337,331.99822h-24.7047c-9.47785,0 -17.18867,-7.71791 -17.18867,-17.20389v-24.88365h2.00012v24.88365c0,8.38249 6.81372,15.2021 15.18854,15.2021h24.7047z"></path></defs><g><use xlink:href="#path-3" fill="{{colors[0]}}"></use></g></svg>