<svg preserveAspectRatio="none" xmlns="http://www.w3.org/2000/svg" xmlns:xlink="http://www.w3.org/1999/xlink" width="22.01198" height="4.02356" version="1.1" viewBox="0 0 22.01198 4.02356"><defs><path fill-rule="nonzero" id="path-2" d="M3.47566,2.01186c0,1.11104 -0.77806,2.0117 -1.7378,2.0117c-0.95975,0 -1.73786,-0.90066 -1.73786,-2.0117c0,-1.11123 0.77811,-2.01186 1.73786,-2.01186c0.95975,0 1.7378,0.90063 1.7378,2.01186zM12.74382,2.01186c0,1.11104 -0.77811,2.0117 -1.7378,2.0117c-0.95975,0 -1.7377,-0.90066 -1.7377,-2.0117c0,-1.11123 0.77795,-2.01186 1.7377,-2.01186c0.95969,0 1.7378,0.90063 1.7378,2.01186zM22.01198,2.01186c0,1.11104 -0.77795,2.0117 -1.7378,2.0117c-0.95975,0 -1.7377,-0.90066 -1.7377,-2.0117c0,-1.11123 0.77795,-2.01186 1.7377,-2.01186c0.95986,0 1.7378,0.90063 1.7378,2.01186z"></path></defs><g><use xlink:href="#path-2" fill="{{colors[0]}}"></use></g></svg>