<svg version="1.1" xmlns="http://www.w3.org/2000/svg" xmlns:xlink="http://www.w3.org/1999/xlink" x="0" y="0" viewBox="0 0 800 800" xml:space="preserve" preserveAspectRatio="none"><rect x="349.3" y="84.3" transform="matrix(9.948818e-03 -1 1 9.948818e-03 292.1993 489.3967)" fill="{{colors[0]}}" width="87.9" height="25.6"/><defs><rect id="a" x="349.3" y="84.4" transform="matrix(9.980684e-03 -1 1 9.980684e-03 292.187 489.4007)" width="87.9" height="25.6"/></defs><clipPath id="b"><use xlink:href="#a" overflow="visible"/></clipPath><path clip-path="url(#b)" fill="none" stroke="{{colors[1]}}" stroke-width="2.758" stroke-miterlimit="10" d="M408.8 73.7c-6 8.1-15.7 13.4-26.6 13.4-1 0-2 0-2.9-.1"/><path fill="{{colors[2]}}" d="M410.9 40.3c1.9.9 26.9 18.8 19.9 31.1 0 0-9.6 12.6-30.8-13l10.9-18.1z"/><path fill="{{colors[0]}}" d="M415.3 53.1c0 18.2-14.8 33-33 33s-33-14.8-33-33 14.8-33 33-33c18.2-.1 33 14.7 33 33z"/><path fill="{{colors[0]}}" d="M420.4 55.6c0 4-3.3 7.3-7.3 7.3s-7.3-3.3-7.3-7.3 3.3-7.3 7.3-7.3 7.3 3.3 7.3 7.3z"/><path fill="{{colors[3]}}" d="M404 47.9c.5.1 7 7 8.7 12.8l1.5-12.8H404zm-46.9-.6c-4.2 2.3-7.4 11.4-7.4 11.4s-1.3-5-.8-11.6c.1-1.6 8.2.2 8.2.2z"/><path fill="{{colors[2]}}" d="M415.3 48.7c0-18.5-11.9-33.5-33.5-33.5-18.5 0-35.4 14.1-33.5 33.5"/><path fill="{{colors[3]}}" d="M383.1 43.2c0-4.1-2.6-7.4-7.4-7.4-4.1 0-7.8 3.1-7.4 7.4"/><path fill="{{colors[4]}}" d="M365.8 56.4c0 1.1-.9 2-2.1 2-1.1 0-2-.9-2-2.1 0-1.1.9-2 2.1-2 1.1 0 2 .9 2 2.1zm24.6 0c0 1.1-.9 2-2.1 2-1.1 0-2-.9-2-2.1 0-1.1.9-2 2.1-2 1.1 0 2 .9 2 2.1z"/><rect x="326.3" y="639.9" fill="{{colors[0]}}" width="82.4" height="140.7"/><polygon fill="{{colors[0]}}" points="598.3,754.2 519.2,777.2 479.9,647 558.9,624"/><polygon fill="{{colors[5]}}" points="593.3,739.1 519.7,780.8 500.5,719.8 582.8,703"/><rect x="326.3" y="711.9" fill="{{colors[5]}}" width="82.4" height="68.7"/><path fill="{{colors[0]}}" d="M328.2 416.5c.4-.1-45.8-1.4-45.8-1.4s-6.9 55.3 42.2 56.9"/><defs><path id="c" d="M328.2 416.5c.4-.1-45.8-1.4-45.8-1.4s-6.9 55.3 42.2 56.9"/></defs><clipPath id="d"><use xlink:href="#c" overflow="visible"/></clipPath><path clip-path="url(#d)" fill="{{colors[4]}}" d="M308.6 438.7c.6 0-.2 32.4-.2 32.4h-2.1v-14.6s-6.5-.9-6.7-9.2c0 .1.3-8.8 9-8.6z"/><path fill="{{colors[4]}}" d="M324.3 456.8c0-.2-12.8-.3-12.8-.3s-1.9 11.6 6.9 11.8c-.1 0 6.3.5 5.9-11.5z"/><rect x="280.4" y="246" fill="{{colors[6]}}" width="56" height="171.2"/><path fill="{{colors[7]}}" d="M271.9 755.5c.3-.1 29.1-16.3 30.1-17.1 1-.7 5.6-5.9 5.6-5.9s17.7-11.9 33.9 3.5l67.9.7v42.8s-103 5.2-103.9 5.2"/><line fill="none" stroke="{{colors[7]}}" stroke-width="4.137" stroke-miterlimit="10" x1="243.7" y1="498.5" x2="305.1" y2="447"/><polygon fill="{{colors[8]}}" points="223.5,491 334.7,503.9 336.5,643.3 193.9,629.1 177.8,615.1"/><line fill="none" stroke="{{colors[6]}}" stroke-width="2.758" stroke-linecap="round" stroke-linejoin="round" stroke-miterlimit="10" x1="224.7" y1="508.4" x2="192" y2="608"/><line fill="none" stroke="{{colors[9]}}" stroke-width="4.137" stroke-linecap="round" stroke-linejoin="round" stroke-miterlimit="10" x1="256.2" y1="510" x2="305.1" y2="449.6"/><polygon fill="{{colors[10]}}" points="232.3,499 343.2,499 364.9,658.5 221.5,660.1 204.1,646.4"/><circle fill="none" stroke="{{colors[2]}}" stroke-width="2.758" stroke-miterlimit="10" cx="258" cy="517.1" r="5.4"/><polygon fill="{{colors[2]}}" points="477.4,315.5 323.3,323.3 320.1,680.3 414.9,682.4 413.8,431.2 485.9,677.2 579.5,663.5 481,328.9"/><path fill="{{colors[11]}}" d="M274.9 261.5l5.5-96.7s5-37.4 39.6-40.8l159.4-1.9s24.8-1.9 36.3 34.9l21 79.8-64.2 13.5 17.6 86.5H323.2l-.5-75.2h-47.8z"/><path fill="{{colors[11]}}" d="M348.5 218.6s13.9 4.1 21.9-2.6l5.1 10.6s-8.6 12.6-29.8 4.8c.1-.8 2.8-12.8 2.8-12.8z"/><path fill="{{colors[6]}}" d="M405.9 106.6s-13.8 8.3-25.6 1.3l-4.7 14.3s15.5 14.6 37.8-.1c-.2-1.1-7.5-15.5-7.5-15.5z"/><defs><path id="e" d="M405.9 106.6s-13.8 8.3-25.6 1.3l-4.7 14.3s15.5 14.6 37.8-.1c-.2-1.1-7.5-15.5-7.5-15.5z"/></defs><clipPath id="f"><use xlink:href="#e" overflow="visible"/></clipPath><polyline clip-path="url(#f)" fill="none" stroke="{{colors[7]}}" stroke-width="1.379" stroke-miterlimit="10" points="398.6,128.9 391.4,109.1 383.7,129"/><rect x="357.7" y="632.3" transform="matrix(4.064765e-03 -1 1 4.064765e-03 -313.679 1044.4166)" fill="{{colors[12]}}" width="19.6" height="94.8"/><rect x="484.8" y="663.4" transform="matrix(0.9742 -0.2258 0.2258 0.9742 -138.2725 137.7266)" fill="{{colors[12]}}" width="96.1" height="19.6"/><path fill="{{colors[5]}}" d="M233.9 802s-3-41.9 41.7-47.4c0 0 17.7 0 32.3 23.7h102V802"/><path fill="{{colors[5]}}" d="M374.7 769.9c0 1.3-1 2.3-2.2 2.3-1.2 0-2.2-1-2.2-2.3 0-1.3 1-2.3 2.2-2.3 1.2.1 2.2 1.1 2.2 2.3zm11.6 0c0 1.3-1 2.3-2.2 2.3-1.2 0-2.2-1-2.2-2.3 0-1.3 1-2.3 2.2-2.3 1.2.1 2.2 1.1 2.2 2.3z"/><polygon fill="{{colors[5]}}" points="306.2,783.1 305.1,782.1 341.3,736.1 342.8,736.1"/><defs><path id="g" d="M271.9 755.5c.3-.1 29.1-16.3 30.1-17.1 1-.7 5.6-5.9 5.6-5.9s17.7-11.9 33.9 3.5l59.1 1.4 8.8 42.1s-103 5.2-103.9 5.2"/></defs><clipPath id="h"><use xlink:href="#g" overflow="visible"/></clipPath><g clip-path="url(#h)"><path fill="{{colors[5]}}" d="M298.7 737.7l16.5 11.5c.2.2.4.8.1 1.2-.3.4-.8.5-1.1.3l-16.9-11.8 1.4-1.2zm-5 4.5l17.2 12c.2.2.4.8.1 1.2-.3.4-.8.5-1.1.3l-17.6-12.3 1.4-1.2zm-6.6 3.2l19 13.2c.3.2.5.8.2 1.2-.3.4-.9.4-1.2.3l-19.4-13.6 1.4-1.1z"/></g><path fill="{{colors[7]}}" d="M467.3 755.4c.3-.1 29.1-16.3 30.1-17.1 1-.7 5.6-5.9 5.6-5.9s17.7-11.9 33.9 3.5l56.8-.4 11.6 42.2s-103.5 6.8-104.4 6.8"/><path fill="{{colors[5]}}" d="M429.4 801.9s-3-41.9 41.7-47.4c0 0 17.7 0 32.3 23.7h102v23.7"/><path fill="{{colors[5]}}" d="M570.1 769.8c0 1.3-1 2.3-2.2 2.3-1.2 0-2.2-1-2.2-2.3 0-1.3 1-2.3 2.2-2.3 1.2 0 2.2 1 2.2 2.3zm11.6 0c0 1.3-1 2.3-2.2 2.3-1.2 0-2.2-1-2.2-2.3 0-1.3 1-2.3 2.2-2.3 1.2 0 2.2 1 2.2 2.3z"/><polygon fill="{{colors[5]}}" points="501.6,782.9 500.5,782 536.7,735.9 538.2,735.9"/><defs><path id="i" d="M467.3 755.4c.3-.1 29.1-16.3 30.1-17.1 1-.7 5.6-5.9 5.6-5.9s17.7-11.9 33.9 3.5l59.1 1.4 8.8 42.1s-103 5.2-103.9 5.2"/></defs><clipPath id="j"><use xlink:href="#i" overflow="visible"/></clipPath><g clip-path="url(#j)"><path fill="{{colors[5]}}" d="M494.1 737.5l16.5 11.5c.2.2.4.8.1 1.2-.3.4-.8.5-1.1.3l-16.9-11.8 1.4-1.2zm-5 4.6l17.2 12c.2.2.4.8.1 1.2-.3.4-.8.5-1.1.3l-17.6-12.3 1.4-1.2zm-6.6 3.1l19 13.2c.3.2.5.8.2 1.2-.3.4-.9.4-1.2.3l-19.4-13.6 1.4-1.1z"/></g><path fill="{{colors[2]}}" d="M315.7 123.8c-.9.3 11.1 0 11.1 0l30.5 100L497.6 282l3.2 23.6L464 325s-1.4 3.2-14.2-1.4l-83.5-35.4s-3.9-.6-5.7-8l-13.1-46.3-31.8-110.1z"/><polygon fill="{{colors[6]}}" points="472.6,250.1 531.1,237.8 546.2,308.7 501,412.2 451.1,381 483.1,303.4"/><path fill="none" stroke="{{colors[6]}}" stroke-width="2.758" stroke-linecap="round" stroke-linejoin="round" stroke-miterlimit="10" d="M461.5 192c0 1.6 12.6 60.5 12.6 60.5"/><line fill="none" stroke="{{colors[6]}}" stroke-width="2.758" stroke-linecap="round" stroke-linejoin="round" stroke-miterlimit="10" x1="321.3" y1="199.3" x2="321.3" y2="261.5"/><text transform="matrix(0.9284 0.3716 -0.3716 0.9284 383.1513 273.4934)" fill="{{colors[5]}}" font-family="'AlibabaPuHuiTiR'" font-size="12.256">GAO DING</text><rect x="423.1" y="219.2" transform="matrix(0.3726 -0.928 0.928 0.3726 20.2918 559.6048)" fill="{{colors[6]}}" width="1.8" height="91.2"/><rect x="465.7" y="281" fill="{{colors[5]}}" width=".9" height="8.2"/><circle fill="{{colors[5]}}" cx="466.1" cy="290.5" r="2.5"/><line fill="none" stroke="{{colors[13]}}" stroke-width="4.137" stroke-linecap="round" stroke-linejoin="round" stroke-miterlimit="10" x1="374.5" y1="66.3" x2="377.6" y2="66.3"/><line fill="none" stroke="{{colors[6]}}" stroke-width="2.758" stroke-linecap="round" stroke-linejoin="round" stroke-miterlimit="10" x1="236.7" y1="503.9" x2="217.3" y2="636.6"/><polyline fill="none" stroke="{{colors[6]}}" stroke-width="2.758" stroke-linecap="round" stroke-linejoin="round" stroke-miterlimit="10" points="207.5,643.9 217.3,636.6 220.5,649.9"/></svg>