<svg version="1.1" xmlns="http://www.w3.org/2000/svg" x="0" y="0" viewBox="0 0 107.3 54.1" xml:space="preserve" preserveAspectRatio="none"><rect fill="{{colors[0]}}" width="107.3" height="10.6"/><path fill="{{colors[1]}}" d="M54.2 36.5h-.6c-.9 0-1.6-.7-1.6-1.6v-28c0-.9.7-1.6 1.6-1.6h.6c.9 0 1.6.7 1.6 1.6v28c0 .9-.7 1.6-1.6 1.6z"/><ellipse fill="{{colors[1]}}" cx="53.9" cy="40.8" rx="6.3" ry="7.7"/><path fill="{{colors[1]}}" d="M34.7 42.1c-.7 0-1.3-.6-1.3-1.3V6.5c0-.7.6-1.3 1.3-1.3.7 0 1.3.6 1.3 1.3v34.3c0 .7-.6 1.3-1.3 1.3z"/><path fill="{{colors[1]}}" d="M39.9 38.9c0-.4-.4-.8-.9-.8h-8.7c-.5 0-.9.4-.9.8v11.5c0 2 2.3 3.6 5.2 3.6 2.9 0 5.2-1.6 5.2-3.6V38.9z"/><path fill="{{colors[2]}}" d="M31.2 41.5v8.8c0 .7 1 .7 1 0v-8.8c0-.7-1-.7-1 0zm3 0v8.8c0 .7 1 .7 1 0v-8.8c0-.7-1-.7-1 0zm3 0v8.8c0 .7 1 .7 1 0v-8.8c0-.7-1-.7-1 0z"/><path fill="{{colors[3]}}" d="M71.4 35.9V6.6c0-.7.6-1.3 1.3-1.3.7 0 1.3.6 1.3 1.3v29.2h-2.6z"/><ellipse fill="none" stroke="{{colors[2]}}" stroke-width=".797" stroke-miterlimit="10" cx="72.8" cy="43" rx="4.8" ry="7.3"/><ellipse fill="none" stroke="{{colors[2]}}" stroke-width=".797" stroke-miterlimit="10" cx="72.8" cy="43.1" rx="3.1" ry="7.2"/><ellipse fill="none" stroke="{{colors[2]}}" stroke-width=".797" stroke-miterlimit="10" cx="72.8" cy="43" rx="1" ry="7.3"/><g><circle fill="{{colors[4]}}" cx="15.6" cy="5.3" r="1.8"/><circle fill="{{colors[4]}}" cx="72.8" cy="5.3" r="1.8"/><circle fill="{{colors[4]}}" cx="91.7" cy="5.3" r="1.8"/><circle fill="{{colors[4]}}" cx="34.8" cy="5.3" r="1.8"/><circle fill="{{colors[4]}}" cx="53.8" cy="5.3" r="1.8"/></g></svg>