<svg data-name="图层 1" xmlns="http://www.w3.org/2000/svg" viewBox="0 0 800 800" preserveAspectRatio="none"><defs><linearGradient id="a" x1="-1.87" y1="423.11" x2="771.92" y2="346.38" gradientUnits="userSpaceOnUse"><stop offset=".05" stop-color="{{colors[0]}}"/><stop offset=".16" stop-color="{{colors[1]}}"/><stop offset="1" stop-color="{{colors[2]}}"/></linearGradient></defs><path d="M659 410.66C660.72 326 784.57 300.4 734.42 211s-116.77-23.35-220.91-53S475.68 29.21 346.89 37.85C245.52 44.66 246.43 137.7 218 194.73s-171.52 46-171.52 160.8c0 128.64 98.43 82.62 148.55 147s-45.51 187.18 68.91 229.59c132.51 49.12 139-98.79 219-104s156.21 76.57 206.6 5C753.57 542 657.27 495.31 659 410.66zm3.44 194.54c-47.14 63.74-116.76-7.91-190.69-2.6s-81.18 136.13-203.09 93.86C163.39 660 252.75 550.58 207 494.09s-137-15-135.87-128.68c1-101.54 133-93 159.74-143.64S257.65 88.86 351.31 82c119-8.75 56.9 79.41 152.79 104.76s158-33.61 203.49 45-69 102.3-71.37 177.15 86.18 115.23 26.22 196.29z" fill="url(#a)"/></svg>