<svg data-name="图层 1" xmlns="http://www.w3.org/2000/svg" viewBox="0 0 800 800" preserveAspectRatio="none"><path d="M110.42 322.9c-56.14 22.75-90 51-90 82.32 0 70.36 172.89 159.49 380.65 127.39 212.44-32.82 380.66-57 380.66-127.39S612.45 255.67 401 268c-99.42 5.79-190.08 21.1-258 43.1" fill="none" stroke="{{colors[0]}}" stroke-miterlimit="10" stroke-width=".75"/><path d="M79.46 492.92l-4.84-8a1.71 1.71 0 0 0-1.26-.82l-9.24-1.23A1.74 1.74 0 0 1 63 480l6.1-7a1.73 1.73 0 0 0 .4-1.46l-1.69-9.16a1.74 1.74 0 0 1 2.39-1.93l8.6 3.6a1.72 1.72 0 0 0 1.5-.07l8.19-4.44a1.75 1.75 0 0 1 2.58 1.68l-.77 9.28a1.76 1.76 0 0 0 .54 1.41l6.75 6.42a1.75 1.75 0 0 1-.8 3l-9.07 2.14a1.72 1.72 0 0 0-1.17.95l-4 8.4a1.75 1.75 0 0 1-3.09.1zm296.22-214.85l-5-1.88a1 1 0 0 0-.87.08l-4.64 2.73a1 1 0 0 1-1.52-.91l.23-5.36a1 1 0 0 0-.35-.8l-4-3.54a1 1 0 0 1 .39-1.73l5.17-1.44a1 1 0 0 0 .66-.57l2.12-4.93a1 1 0 0 1 1.76-.16l3 4.47a1 1 0 0 0 .75.45l5.35.49a1 1 0 0 1 .69 1.63l-3.34 4.2a1 1 0 0 0-.19.85l1.11 5.25a1 1 0 0 1-1.32 1.17zM232.18 529q4.06 5.87 8.43 11.53c1.49 1.92 3 3.84 4.54 5.73 1.32 1.63 2.71 4 4.86 4.59 2.69.73 4.16-1.67 5.54-3.5s2.83-3.8 4.22-5.73q4.16-5.77 8.06-11.73c1.77-2.7-2.55-5.21-4.31-2.53q-3.39 5.16-7 10.19c-1.19 1.68-2.4 3.34-3.63 5l-1.7 2.28c-.18.24-.82.82-.86 1.13-.42.46 0 .54 1.27.26a4.07 4.07 0 0 1-.41-.42c-2.67-2.91-5.06-6.16-7.46-9.31s-4.92-6.62-7.27-10a2.57 2.57 0 0 0-3.42-.89 2.52 2.52 0 0 0-.9 3.42zM461 518.21q3.72 9.18 8 18.13a2.52 2.52 0 0 0 3.42.89 2.55 2.55 0 0 0 .9-3.42q-4-8.35-7.45-16.93a2.58 2.58 0 0 0-3.08-1.74 2.51 2.51 0 0 0-1.75 3.07zm18.71-3.73L497 547.3c1.5 2.84 5.82.32 4.31-2.53L484 512c-1.5-2.85-5.82-.32-4.32 2.53zM116.34 306.44a11.18 11.18 0 0 0-7 5.79 9 9 0 0 0 .29 9.36c1.67 2.78 3.68 5.67 7 6.55 3.07.82 6.62.1 9.65-.63 6-1.44 12.21-4.64 15.45-10.14a6.85 6.85 0 0 0-.8-8.46c-2.26-2.56-5.67-3.6-8.89-4.35a34.29 34.29 0 0 0-12.28-.66c-3.33.45-6.7 1.73-8.62 4.64-.5.74 1.35 2.39 1.76 1.77 3.09-4.66 9.61-5 14.64-4.63 4.67.32 15.92 1.83 12.89 9-2.06 4.86-7.39 8.18-12.16 9.88a35.94 35.94 0 0 1-7.37 1.75 15.41 15.41 0 0 1-4.34.1 5.88 5.88 0 0 1-4-2.64 12.5 12.5 0 0 1-2.4-4.52 8.19 8.19 0 0 1 .83-5 10.62 10.62 0 0 1 6.79-5.89c.82-.2-.68-2.13-1.48-1.93z" fill="{{colors[0]}}"/><path d="M118.78 315.6c.4 0 1.26-.12 1.26-.66s-.86-.7-1.24-.7-1.25.12-1.26.66.87.7 1.24.7zm7.46-3.13a2 2 0 0 0 1.55-.75c.19-.25.5-1-.11-1a2 2 0 0 0-1.55.75c-.19.25-.5 1 .11 1zm-7.99 5.83c.26 1.57 1.92 2.34 3.36 2.47a10.16 10.16 0 0 0 5-1.09c3.07-1.42 6-3.82 6.39-7.38 0-.17-1.39-.05-1.45.39-.34 2.9-2.48 5.06-5 6.39a7.13 7.13 0 0 1-4 1.1 3.07 3.07 0 0 1-2.91-2.27c0-.28-1.51 0-1.45.39zm-16.92 21.04c-10.42 5.24-21.07 10.49-30.25 17.77a33.49 33.49 0 0 0-9.8 11.62 29.26 29.26 0 0 0-2.74 13.63 28.38 28.38 0 0 0 4.87 14.91c.53.78 3.35-.17 2.7-1.12a28.38 28.38 0 0 1-2.61-26.26c4-9.78 14-15.77 22.7-20.81 5.52-3.19 11.22-6.06 16.92-8.92.47-.24.77-.76.26-1.1s-1.55 0-2 .28zM123.85 486c5.13 6.11 12.38 9.74 19.8 12.33a188.49 188.49 0 0 0 27 6.9q8 1.51 16.12 2.48c1.27.15 3-1.65 1.07-1.88a228.93 228.93 0 0 1-27.77-5c-7.94-2-16.13-4.07-23.38-8a33.92 33.92 0 0 1-10.16-8c-.74-.88-3.52.2-2.68 1.21zm80.86-161.12a615.55 615.55 0 0 1 65.65-16.79 628.44 628.44 0 0 1 66.9-9.54 633 633 0 0 1 135.09 2.57 621.67 621.67 0 0 1 66.21 12.05l8 2a3.47 3.47 0 0 0 2-.39c.24-.12 1-.51.38-.66A623.26 623.26 0 0 0 481.68 301a635.65 635.65 0 0 0-270 20.91q-4 1.2-8 2.46c-.24.08-1.17.38-.89.74s1.59-.13 1.86-.21zm523.9 46.65a27.32 27.32 0 0 1 2.81 27.78c-2.34 4.87-6.2 8.8-10.13 12.42Q714.9 417.63 708 423q-7.8 6.09-16.13 11.47c-.53.34-.28.65.2.76a3.13 3.13 0 0 0 2-.55 224 224 0 0 0 28.66-22c4.06-3.68 8.06-7.57 10.76-12.4a27.16 27.16 0 0 0 3.36-14.28 27.5 27.5 0 0 0-5.52-15.48c-.47-.62-3.25.33-2.72 1zM327.23 502.69q24.25 2.26 48.64 2.46t48.76-1.68q24.45-1.87 48.67-5.84 24.06-3.93 47.72-9.86t46.76-13.91q2.88-1 5.73-2c.57-.21 1.38-.67 1.18-1.41s-1.16-.82-1.72-.62q-22.87 8.17-46.39 14.34t-47.21 10.31q-24 4.18-48.21 6.31-24.07 2.13-48.27 2.21t-48.62-1.92c-2-.16-4-.34-6-.53a1.87 1.87 0 0 0-1.89.89.93.93 0 0 0 .89 1.25zm238.26-234.45a28.32 28.32 0 0 1-.09 3.19c0 .3-.06.6-.1.91.06-.46 0 .08 0 .24-.08.52-.18 1.05-.29 1.57a27.47 27.47 0 0 1-.87 3.07l-.24.64c0 .09-.38.95-.17.46-.21.49-.44 1-.67 1.45a2.5 2.5 0 0 0 4.31 2.53 29.83 29.83 0 0 0 3.16-14.06 2.5 2.5 0 0 0-5 0zm21.04 3.66a45 45 0 0 1-2.7 14.89 2.5 2.5 0 0 0 1.74 3.07 2.56 2.56 0 0 0 3.08-1.75 50.3 50.3 0 0 0 2.88-16.21 2.52 2.52 0 0 0-2.5-2.5 2.55 2.55 0 0 0-2.5 2.5zm40.9 7.1c3.22 0 3.22-5 0-5s-3.22 5 0 5zM756.8 437l10.85 3.65c1.77.6 3.53 1.26 5.31 1.79 2 .6 4 .11 4.95-1.87.76-1.57.78-3.58 1-5.29l.85-5.59 1.76-11.64a2.59 2.59 0 0 0-1.75-3.08 2.52 2.52 0 0 0-3.07 1.75q-1.53 10.08-3 20.15c-.06.34-.12.69-.16 1-.08.58-.26.51.53.11 1-.48.37-.35-.19-.54l-1.28-.43-4.68-1.57-9.78-3.3a2.5 2.5 0 0 0-1.34 4.86z" fill="{{colors[0]}}"/></svg>