<svg version="1.1" xmlns="http://www.w3.org/2000/svg" x="0" y="0" viewBox="0 0 90.9 209.5" xml:space="preserve" preserveAspectRatio="none"><path fill="{{colors[0]}}" d="M80.1 72c-1.3.7-2.6 1.4-4 2.2-.6.4-.1 1.3.6 1 1.3-.7 2.6-1.4 4-2.2.7-.4.1-1.3-.6-1z"/><ellipse transform="matrix(0.3667 -0.9303 0.9303 0.3667 -13.7219 54.8482)" cx="33.4" cy="37.5" rx="5.7" ry="4.4" fill="{{colors[1]}}"/><circle fill="{{colors[2]}}" cx="45.7" cy="45.5" r=".5"/><rect x="39" y="36.8" fill="{{colors[3]}}" width="13.3" height="8.8"/><circle fill="{{colors[3]}}" cx="45.7" cy="36.8" r="6.6"/><circle fill="{{colors[2]}}" cx="45.7" cy="36.8" r=".5"/><circle fill="{{colors[3]}}" cx="45.7" cy="45.5" r="6.6"/><circle fill="{{colors[2]}}" cx="45.7" cy="45.5" r=".5"/><path fill="{{colors[4]}}" d="M52.3 36.6c0-3.2-2.3-6-5.6-6.6-3.6-.6-7 1.9-7.6 5.5-.1.4-.1.7-.1 1.1v3.6s2.1 1.4 7.7 2.5c1.7.3 5.4.6 5.6.6v-6.7z"/><path fill="{{colors[5]}}" d="M61.4 17.9c1.9 0 3.4 1.3 3.4 2.9 0 1.6-1.5 2.9-3.4 2.9m-31.6-5.8c-1.9 0-3.4 1.3-3.4 2.9 0 1.6 1.5 2.9 3.4 2.9"/><ellipse fill="{{colors[3]}}" cx="45.6" cy="21.9" rx="16.3" ry="17.1"/><ellipse fill="{{colors[0]}}" cx="55" cy="25.5" rx="4.1" ry="3.6"/><ellipse fill="{{colors[0]}}" cx="36.2" cy="25.5" rx="4.1" ry="3.6"/><ellipse fill="{{colors[6]}}" cx="41.8" cy="21.8" rx="1.3" ry="1.7"/><ellipse fill="{{colors[6]}}" cx="49.4" cy="21.8" rx="1.3" ry="1.7"/><path fill="{{colors[7]}}" d="M45.4 26.6c-.4 0-.8-.1-1.2-.1l-1.2-.3c-.3-.2-.6-.4-1-.4-.5-.1-.7.2-.6.7.1 1.5.9 2.9 2 3.6 1.1.7 2.4.8 3.5.4 1.2-.4 2.2-1.4 2.7-2.8.1-.4.5-1.4.2-1.7-.3-.4-1 0-1.4.1-.6.2-1.2.4-1.8.4-.4.1-.8.1-1.2.1z"/><path fill="{{colors[0]}}" d="M45.6 25.6c-.6 0-1.1-.5-1.1-1.1v-2.1c0-.6.5-1.1 1.1-1.1.6 0 1.1.5 1.1 1.1v2.1c0 .7-.5 1.1-1.1 1.1z"/><circle fill="{{colors[2]}}" cx="45.7" cy="36.8" r=".5"/><circle fill="{{colors[3]}}" cx="26.2" cy="54.7" r="5.7"/><circle fill="{{colors[2]}}" cx="26.2" cy="54.7" r=".5"/><circle fill="{{colors[3]}}" cx="35" cy="155.9" r="8.8"/><circle fill="{{colors[2]}}" cx="35" cy="155.7" r=".5"/><path fill="{{colors[3]}}" d="M43.8 155.8H26.2c0 2 5 45.7 5 45.7h11.2l1.4-45.7z"/><circle fill="{{colors[3]}}" cx="36.8" cy="201.4" r="5.6"/><circle fill="{{colors[2]}}" cx="36.8" cy="201.4" r=".5"/><path fill="{{colors[3]}}" d="M42.3 201.4H31.2c-1.4.7-4.5 2.4-5.5 2.9-.7.4-1.7 1-1.7 2 0 1.7 2.2 1.5 3.3 1.5H42c.2 0 .4-.2.4-.4l-.1-6z"/><circle fill="{{colors[3]}}" cx="36.7" cy="201.4" r="5.6"/><circle fill="{{colors[3]}}" cx="36.7" cy="201.4" r=".5"/><circle fill="{{colors[3]}}" cx="35" cy="155.9" r="8.8"/><circle fill="{{colors[2]}}" cx="35" cy="155.7" r=".5"/><path fill="{{colors[3]}}" d="M26.3 104.8c0 .6-1.2 17.9-1.2 29.2 0 9.7 1.1 21.8 1.1 21.8h17.6l4.8-51H26.3z"/><circle fill="{{colors[3]}}" cx="37.5" cy="104.8" r="11.2"/><circle fill="{{colors[2]}}" cx="37.5" cy="104.8" r=".5"/><circle fill="{{colors[3]}}" cx="56.4" cy="155.9" r="8.8"/><circle fill="{{colors[2]}}" cx="56.4" cy="155.7" r=".5"/><path fill="{{colors[3]}}" d="M47.6 155.8h17.6c0 2-5 45.7-5 45.7H49.1l-1.5-45.7z"/><circle fill="{{colors[3]}}" cx="54.7" cy="201.4" r="5.6"/><circle fill="{{colors[2]}}" cx="54.7" cy="201.4" r=".5"/><path fill="{{colors[3]}}" d="M49.1 201.4h11.2c1.4.7 4.5 2.4 5.5 2.9.7.4 1.7 1 1.7 2 0 1.7-2.2 1.5-3.3 1.5H49.5c-.2 0-.4-.2-.4-.4v-6z"/><circle fill="{{colors[3]}}" cx="54.7" cy="201.4" r="5.6"/><circle fill="{{colors[3]}}" cx="54.7" cy="201.4" r=".5"/><circle fill="{{colors[3]}}" cx="56.4" cy="155.9" r="8.8"/><circle fill="{{colors[2]}}" cx="56.4" cy="155.7" r=".5"/><path fill="{{colors[3]}}" d="M65.2 104.8c0 .6 1.2 17.9 1.2 29.2 0 9.7-1.1 21.8-1.1 21.8H47.6l-4.8-51h22.4z"/><circle fill="{{colors[3]}}" cx="54" cy="104.8" r="11.2"/><circle fill="{{colors[2]}}" cx="54" cy="104.8" r=".5"/><circle fill="{{colors[3]}}" cx="54" cy="104.8" r="11.2"/><circle fill="{{colors[2]}}" cx="54" cy="104.8" r=".5"/><path fill="{{colors[3]}}" d="M66.9 60.6V49.2s-3.3-1.9-8-3.5c-5-1.7-10.3-2.4-15.5-2.1-1.2.1-2.4.2-3.6.4-4.8.7-9.4 2.3-13.7 4.4-.1.1-1.6.8-1.6.8v11.3c.1 1 1.2 5.5 1.3 6.8v.1c.2 7.4.3 14 .3 19.3 0 3.8.1 18 .1 18h38.9s.1-14.2.1-18c.1-5.3.2-11.9.3-19.3v-.1c.2-1.2 1.3-5.7 1.4-6.7z"/><circle fill="{{colors[3]}}" cx="26.2" cy="54.7" r="5.7"/><circle fill="{{colors[2]}}" cx="26.2" cy="54.7" r=".5"/><circle fill="{{colors[3]}}" cx="65.3" cy="54.7" r="5.7"/><circle fill="{{colors[2]}}" cx="65.3" cy="54.7" r=".5"/><circle fill="{{colors[2]}}" cx="45.7" cy="45.5" r=".5"/><circle fill="{{colors[8]}}" cx="45.7" cy="45.5" r=".5"/><g><circle fill="{{colors[2]}}" cx="37.5" cy="104.8" r=".5"/><circle fill="{{colors[9]}}" cx="37.5" cy="104.8" r="11.2"/></g><g><circle fill="{{colors[8]}}" cx="35" cy="154.9" r="8.8"/><circle fill="{{colors[2]}}" cx="35" cy="154.7" r=".5"/><g><path fill="{{colors[8]}}" d="M26.4 104.1c0 .6-1.2 17.8-1.2 29.1 0 9.7 1.1 21.7 1.1 21.7h17.5l4.8-50.8H26.4z"/><circle fill="{{colors[8]}}" cx="37.5" cy="104.1" r="11.1"/><circle fill="{{colors[2]}}" cx="37.5" cy="104.1" r=".5"/></g></g><g><circle fill="{{colors[8]}}" cx="56.4" cy="154.9" r="8.8"/><circle fill="{{colors[2]}}" cx="56.4" cy="154.7" r=".5"/><g><path fill="{{colors[8]}}" d="M65 104.1c0 .6 1.2 17.8 1.2 29.1 0 9.7-1.1 21.7-1.1 21.7H47.6l-4.8-50.8H65z"/><circle fill="{{colors[8]}}" cx="53.9" cy="104.1" r="11.1"/><circle fill="{{colors[2]}}" cx="53.9" cy="104.1" r=".5"/></g></g><path fill="{{colors[10]}}" d="M28.1 203.2l1.8 2.3c.1.1.2.1.3.1l11.9-1.6c.2 0 .4.1.4.3v4.8c0 .2-.1.3-.3.3h-2.5c-.2 0-.3-.1-.3-.3v-1c0-.2-.2-.3-.4-.3-1.1.1-2.2.2-3.3.4-2.4.3-4.8.5-7.1.8-.8.1-3.8.5-4.6.5-1.3-.1-2.2-1.1-1.9-2.4.2-.6.7-1.1 1.2-1.4.6-.4 1.2-.7 1.8-1.1.9-.5 1.8-.9 2.6-1.4.1-.1.3-.1.4 0zm35.2 0l-1.8 2.3c-.1.1-.2.1-.3.1L49.3 204c-.2 0-.4.1-.4.3v4.8c0 .2.1.3.3.3h2.5c.2 0 .3-.1.3-.3v-1c0-.2.2-.3.4-.3 1.1.1 2.2.2 3.3.4 2.4.3 4.8.5 7.1.8.8.1 3.8.5 4.6.5 1.3-.1 2.2-1.1 1.9-2.4-.2-.6-.7-1.1-1.2-1.4-.6-.4-1.2-.7-1.8-1.1-.9-.5-1.8-.9-2.6-1.4-.1-.1-.3-.1-.4 0z"/><path fill="{{colors[11]}}" d="M63.7 170.5c.9-8 1.6-15 1.6-15.8l-17.8.4.3 7.3c5.3 3 10.2 5.3 15.9 8.1zm-20.4-.4c.1-5.8.6-14.8.6-15.5l-17.9.1.8 7.3c5.9 3 10.8 5.5 16.5 8.1z"/><g><circle fill="{{colors[8]}}" cx="26.3" cy="54.2" r="5.7"/><circle fill="{{colors[2]}}" cx="26.3" cy="54.2" r=".5"/></g><g><circle fill="{{colors[8]}}" cx="26.3" cy="54.2" r="5.7"/><circle fill="{{colors[2]}}" cx="26.3" cy="54.2" r=".5"/></g><g><circle fill="{{colors[8]}}" cx="65.1" cy="54.2" r="5.7"/><circle fill="{{colors[2]}}" cx="65.1" cy="54.2" r=".5"/></g><g><circle fill="{{colors[8]}}" cx="85.2" cy="76.7" r="5.7"/><circle fill="{{colors[2]}}" cx="85.2" cy="76.7" r=".5"/><circle fill="{{colors[8]}}" cx="65.2" cy="53.7" r="5.7"/><circle fill="{{colors[2]}}" cx="65.2" cy="53.7" r=".5"/><rect x="69.6" y="50" transform="matrix(0.7535 -0.6574 0.6574 0.7535 -24.3462 65.5411)" fill="{{colors[8]}}" width="11.3" height="30.4"/></g><g><circle fill="{{colors[8]}}" cx="5.7" cy="76.7" r="5.7"/><circle fill="{{colors[2]}}" cx="5.7" cy="76.7" r=".5"/><circle fill="{{colors[8]}}" cx="25.7" cy="53.7" r="5.7"/><circle fill="{{colors[2]}}" cx="25.7" cy="53.7" r=".5"/><rect x="10" y="50" transform="matrix(-0.7535 -0.6574 0.6574 -0.7535 -15.4094 124.702)" fill="{{colors[8]}}" width="11.3" height="30.4"/></g><path fill="{{colors[12]}}" d="M20.6 71.1L30 57.5c.2-.2.4-.5.6-.8 1.6-2.7 2.9-10.4-.2-9.8-4.2.9-5.2.3-8.8 2.6-3.6 2.4-6.5 5.8-9.5 8.9C11 59.5 10 60.6 9 61.8c.8.5 8.6 7.4 11.6 9.3zm49.9 0l-9.4-13.6c-.2-.2-.4-.5-.6-.8-1.6-2.7-2.9-10.4.2-9.8 4.2.9 5.2.3 8.8 2.6 3.6 2.4 6.5 5.8 9.5 8.9 1.1 1.1 2.1 2.2 3.1 3.4-.8.5-8.6 7.4-11.6 9.3z"/><path fill="{{colors[12]}}" d="M66.8 59.9V48.6s-3.3-1.6-8-3.2c-1.3-.4-6.4-2-6.4-2l-6.6 7.2-6.6-7.2s-5.2 1.5-6.5 2c-4.7 1.6-8 3.2-8 3.2v11.3c.1 1 1.2 5.5 1.3 6.7v.1c.2 7.3.3 13.9.3 19.2 0 3.8.1 17.9.1 17.9h38.7s.1-14.1.1-17.9c.1-5.3.2-11.9.3-19.2v-.1c.1-1.3 1.2-5.7 1.3-6.7z"/><g><path d="M45.3 50.2L42 53.5h.8c-2.4-2.8-4.8-5.7-7.3-8.5-.5-.6-1.3.3-.8.8 2.4 2.8 4.8 5.7 7.3 8.5.2.2.6.2.8 0l3.3-3.3c.6-.6-.3-1.4-.8-.8z" fill="{{colors[1]}}"/></g><g><path d="M45.1 51.5v10.7c0 .8 1.2.8 1.2 0V51.5c0-.8-1.2-.8-1.2 0z" fill="{{colors[1]}}"/></g><g><path d="M55.8 45l-7.2 8.4h.8c-1.1-1.1-2.2-2.1-3.3-3.2-.5-.5-1.4.3-.8.8 1.1 1.1 2.2 2.1 3.3 3.2.2.2.6.2.8 0l7.2-8.4c.5-.5-.3-1.4-.8-.8z" fill="{{colors[1]}}"/></g><g><circle fill="{{colors[8]}}" cx="37.5" cy="104.1" r="11.1"/><circle fill="{{colors[2]}}" cx="37.5" cy="104.1" r=".5"/></g><g><circle fill="{{colors[8]}}" cx="53.9" cy="104.1" r="11.1"/><circle fill="{{colors[2]}}" cx="53.9" cy="104.1" r=".5"/></g><circle fill="{{colors[3]}}" cx="45.7" cy="36.8" r=".5"/><path fill="{{colors[13]}}" d="M26.1 103.6h39.1s2.1 22.8 2 27.4c-.1 8.4-1 24.3-1 24.3H25.9s-1.1-16.3-1-24.2c.1-5.8 1.2-27.5 1.2-27.5z"/><path fill="{{colors[14]}}" d="M66.8 48s-2.4-1.1-7.3-2.7L45.7 61.8l-14-16.5c-5.3 1.5-7.1 2.5-7.1 2.5l.6 18.8c.2 7.3 1 13.7 1 19 0 3.8-.2 19-.1 19l39.3-.1s-.2-15.1-.1-18.9c.1-5.3.5-9.6.7-18.7-.1.1.8-18.9.8-18.9z"/><path fill="{{colors[15]}}" d="M46.5 90.3c-.4.3-1.1 1-1.1 1.6 0-.5-.7-1.2-1.1-1.6-1.6-1.4-4.6-.5-4.1 2 .5 2.6 5.2 5.4 5.2 5.6 0-.2 4.8-3 5.2-5.6.6-2.6-2.5-3.4-4.1-2z"/><g><path fill="{{colors[8]}}" d="M54.9 84.8l5.5 9.9c-3.1 2-6.6 2.8-10.2 3.5-2.6.5-4.3 1.6-4.7 0-.2-.8.8-1.8 3-3.3 2.2-1.5 1.8-3.3 1.6-3.6-1.4-2.3-3.4.9-4.3-.9-1-1.9 2.1-2.9 3.8-3.6 2.2-.8 5.3-2 5.3-2z"/><circle fill="{{colors[8]}}" cx="57.7" cy="89.8" r="5.7"/><circle fill="{{colors[2]}}" cx="57.7" cy="89.8" r=".5"/><g><circle fill="{{colors[8]}}" cx="57.7" cy="89.8" r="5.7"/><circle fill="{{colors[8]}}" cx="57.7" cy="89.8" r=".5"/><circle fill="{{colors[8]}}" cx="85.2" cy="76.7" r="5.7"/><circle fill="{{colors[8]}}" cx="85.2" cy="76.7" r=".5"/><rect x="65.8" y="68" transform="matrix(0.4291 0.9032 -0.9032 0.4291 115.9694 -16.9891)" fill="{{colors[8]}}" width="11.3" height="30.4"/></g></g><g><path fill="{{colors[8]}}" d="M36 84.9l-5.5 9.8c3.1 2 6.6 2.8 10.2 3.5 2.6.5 4.3 1.6 4.7 0 .2-.8-.8-1.8-3-3.3-2.2-1.5-1.8-3.3-1.6-3.6 1.4-2.3 3.4.9 4.3-.9 1-1.9-2.1-2.9-3.8-3.6-2.2-.8-5.3-1.9-5.3-1.9z"/><circle fill="{{colors[8]}}" cx="33.2" cy="89.8" r="5.7"/><circle fill="{{colors[2]}}" cx="33.2" cy="89.8" r=".5"/><g><circle fill="{{colors[8]}}" cx="33.2" cy="89.8" r="5.7"/><circle fill="{{colors[8]}}" cx="33.2" cy="89.8" r=".5"/><circle fill="{{colors[8]}}" cx="5.7" cy="76.7" r="5.7"/><circle fill="{{colors[8]}}" cx="5.7" cy="76.7" r=".5"/><rect x="13.8" y="68" transform="matrix(-0.4291 0.9032 -0.9032 -0.4291 103.0364 101.3753)" fill="{{colors[8]}}" width="11.3" height="30.4"/></g></g><rect x="55.5" y="63.3" fill="{{colors[16]}}" width="6.7" height="2.4"/><path d="M61.2 14.8C60.1 7.3 53.5 1.6 45.6 1.6c-2.8 0-5.6.7-8.1 2.2-2.4 1.4-4.3 3.4-5.7 5.7-.6 1-1.1 2.2-1.4 3.3-.5 1.7-.7 4.3-.7 5.2 0 .5 3.8.4 4.1.4 2.1-.2 4.2-.9 6-2 1.6-1.1 2.6-2.6 3.6-4.2 1.1 1.8 3.5 3.2 5.3 4.1 2.6 1.3 5.4 2 8.3 2.3 1.5.1 3.2.2 4.6-.3-.1-.1 0-2-.4-3.5z" fill="{{colors[1]}}"/><path fill="{{colors[17]}}" d="M27.7 18.7C27.7 8.4 35.7 0 45.6 0c9.9 0 17.9 8.4 17.9 18.7m-2.5 0c0-9-6.9-16.3-15.4-16.3S30.2 9.7 30.2 18.7"/><path fill="{{colors[18]}}" d="M30.3 16.6c-2.9 0-5.3 2.4-5.3 5.3s2.4 5.3 5.3 5.3V16.6z"/><path fill="{{colors[17]}}" d="M49.7 35c6 .5 11.3-4.3 11.8-10.6l1.7.1c-.6 7.3-6.7 12.8-13.7 12.2l.2-1.7z"/><path fill="{{colors[18]}}" d="M60.8 16.6c2.9 0 5.3 2.4 5.3 5.3s-2.4 5.3-5.3 5.3V16.6zM48.6 36.8l-.7-.1c-.7-.1-1.2-.8-1-1.5.1-.7.8-1.2 1.5-1l.7.1c.7.1 1.2.8 1 1.5-.1.7-.8 1.1-1.5 1z"/><g><path fill="{{colors[0]}}" d="M10 73c1.3.7 2.6 1.4 4 2.2.6.4 1.2-.6.6-1-1.3-.7-2.6-1.4-4-2.2-.7-.3-1.2.6-.6 1z"/></g></svg>