<svg version="1.1" xmlns="http://www.w3.org/2000/svg" x="0" y="0" viewBox="0 0 800 800" xml:space="preserve" preserveAspectRatio="none"><path fill="{{colors[0]}}" d="M126.7 563.7h335c3.9 0 7.1-3.2 7.1-7.1V322.8c0-3.9-3.2-7.1-7.1-7.1h-335c-3.9 0-7.1 3.2-7.1 7.1v233.8c.1 3.9 3.2 7.1 7.1 7.1z"/><rect x="118.7" y="587.1" fill="{{colors[1]}}" width="351.1" height="30.1"/><path fill="{{colors[2]}}" d="M123.4 517.6h341.7c2.1 0 3.8 1.7 3.8 3.8v62c0 2.1-1.7 3.8-3.8 3.8H123.4c-2.1 0-3.8-1.7-3.8-3.8v-62c.1-2.1 1.7-3.8 3.8-3.8z"/><rect x="82.1" y="439.7" fill="{{colors[1]}}" width="37.6" height="349.6"/><rect x="468.8" y="439.7" fill="{{colors[1]}}" width="37.6" height="349.6"/><rect x="82.1" y="390.7" fill="{{colors[3]}}" width="37.6" height="79.1"/><rect x="468.8" y="390.7" fill="{{colors[3]}}" width="37.6" height="79.1"/><g><path fill="{{colors[4]}}" d="M601.5 413.5s-28.5 17-28.1 45.9c0 0-23.1 63.8 6.3 93.5 0 0 43-18.3 34.5-90.6 0 .1 6-30.9-12.7-48.8z"/><path fill="{{colors[5]}}" d="M468.6 438.9s36.3 2.5 62.3 35.2c0 0 45.9 12.8 39.8 74.4 0 0-15.8 0-40.2-16.4-11.7-7.9-18.7-24.5-18.7-24.5s-43.2-24.5-43.2-68.7zm205.1 69.5l19.9-.5c31-24.8 39.9-65.7 39.9-65.7-46.2-5-88.3 44.2-88.3 44.2-31.3 19.4-21.9 56.1-21.9 56.1 43.6 11.8 59.7-24.2 61.2-28l-11.2-4.3c-.8-.4-.6-1.8.4-1.8z"/><path fill="{{colors[4]}}" d="M445.4 579.1s58-27.1 88.9 0c0 0 44.9 15.5 30.5 44.5 0 0-25.7.8-43.9-13.5-32-25.2-58.8-14.8-75.5-31zm159.9 48.4s-1.1-46.4 49.8-56.7c0 0 57.9-27.7 88.6 42.5 0 0-43.5 2.6-85.4-9.9 0 0-18 20.2-53 24.1z"/><path d="M570.7 691.8c-2.3-51.8 5.8-122.2 13.1-172.2 7.8-54.2 16.3-96.6 16.4-97.1l1 .2c-.1.4-8.6 42.9-16.4 97-7.2 50-15.4 120.4-13.1 172l-1 .1z" fill="{{colors[6]}}"/><path d="M586.2 691.9l-1-.2c6.7-38.1 5.8-74-2.8-106.7-6.9-26.2-18.6-50.3-34.9-71.9-27.7-36.7-59.5-53.1-59.8-53.3l.4-.9c.3.2 32.3 16.7 60.1 53.5 16.4 21.6 28.2 45.9 35.1 72.2 8.8 33 9.7 69 2.9 107.3z" fill="{{colors[6]}}"/><path d="M578.5 691.8h-1c0-37.9 7.6-74.1 22.5-107.7 12-26.9 28.6-52.1 49.6-74.9 35.6-38.9 71.8-57.8 72.1-58l.4.9c-.4.2-36.4 19-71.9 57.8-20.9 22.8-37.5 47.9-49.4 74.7-14.8 33.4-22.3 69.5-22.3 107.2z" fill="{{colors[6]}}"/><path d="M581.3 691.8c-.8-42.2-13-73.2-36.4-92.2-34.9-28.4-83.2-19.7-83.7-19.6l-.2-1c.5-.1 49.2-8.9 84.5 19.8 23.6 19.2 36 50.4 36.8 92.9l-1 .1zm13.3.1l-1-.1c.4-4 .7-7.9 1-11.6 3.4-39.7 5.5-63.7 48.1-90 24.1-14.9 47.6-9.7 63.1-2.8 16.7 7.5 27.9 18.7 28 18.8l-.7.7c-.1-.1-11.2-11.2-27.7-18.6-15.2-6.8-38.4-11.9-62.2 2.8-42.3 26-44.2 48.5-47.7 89.3-.2 3.6-.5 7.4-.9 11.5z" fill="{{colors[6]}}"/><polygon fill="{{colors[3]}}" points="617.4,790.8 546.9,790.8 537.2,685.9 627.1,685.9"/></g><g><circle fill="{{colors[7]}}" cx="544.4" cy="188.9" r="83"/><circle fill="{{colors[8]}}" cx="544.4" cy="188.9" r="73.6"/><rect x="543" y="115.3" width="2.9" height="17.8" fill="{{colors[6]}}"/><rect x="543" y="244.6" width="2.9" height="17.8" fill="{{colors[6]}}"/><rect x="600.2" y="187.4" width="17.8" height="2.9" fill="{{colors[6]}}"/><rect x="470.9" y="187.4" width="17.8" height="2.9" fill="{{colors[6]}}"/><polygon points="544,193.2 544,144 544.9,144 544.9,190.8 562.2,173.2 562.9,173.8" fill="{{colors[6]}}"/></g><g><path fill="{{colors[9]}}" d="M211.7 729.3c-.7 6.5-5.4 11.8-11.7 13.4l-38.1 9.5c-12.7 3.2-22.4 13.6-24.6 26.6l-1.8 10.6 96.8-.2c0-2.7 3.4-4.9 7.5-4.9 4.2 0 7.5 2.2 7.6 4.9H264l21.7-253.5h-63.4l-10.6 193.6z"/><path fill="{{colors[10]}}" d="M215.1 668.2l-3.4 61c-.7 6.5-5.4 11.8-11.7 13.4l-38.1 9.5c-12.7 3.2-22.4 13.6-24.6 26.6l-1.8 10.6 96.8-.2c0-2.7 3.4-4.9 7.5-4.9 4.2 0 7.5 2.2 7.6 4.9H264l10.1-118-59-2.9z"/><path fill="{{colors[9]}}" d="M428.2 779.8c0-13-9-24.3-21.6-27.3l-40-9.4c-5.1-1.2-8.5-6.1-7.8-11.4l10.8-196.2h-63.1l-13.6 253.4 22.5-.1c0-2.7 3.4-4.9 7.5-4.9 4.2 0 7.5 2.2 7.6 4.9l97.7-.2v-8.8z"/><path fill="{{colors[10]}}" d="M362.2 670.9h-62.9l-6.3 118 22.5-.1c0-2.7 3.4-4.9 7.5-4.9 4.2 0 7.5 2.2 7.6 4.9l97.7-.2v-8.8c0-13-9-24.3-21.6-27.3l-40-9.4c-5.1-1.2-8.5-6.1-7.8-11.4l3.3-60.8z"/><path d="M361 90.2c3.9-8.3 5.7-17.6 4.8-27.4-2.3-25.2-21.7-44.6-45.4-47.6-7.8-3.4-16.5-5-25.6-4.1-28.9 2.7-50.1 28.6-47.4 57.9.8 8.2 3.4 15.8 7.3 22.5l-3.1 1.8s-.4 10.9 8.4 16.5c6.8 3.9 13.5 4.3 18.5 3 5.7 2.6 11.9 4.1 18.4 4.5 6.8 2.4 14.3 3.5 21.9 2.8 6.6-.6 12.8-2.5 18.4-5.3 5.5 1.4 13.8.5 21.3-5.8 7.5-7.1 5.2-17.8 5.2-17.8l-2.7-1z" fill="{{colors[6]}}"/><path fill="{{colors[4]}}" d="M237.7 751.1c-25.7 7.9-40.9.1-48.1-5.8l-27.7 6.9c-12.7 3.2-22.4 13.6-24.6 26.6l-1.8 10.6 96.8-.2c0-2.7 3.4-4.9 7.5-4.9 4.2 0 7.5 2.2 7.6 4.9H264l4.5-52.8c-8 4.8-16.4 10.2-30.8 14.7zm168.9 1.4l-18.6-4.4c-5.6 5.2-13.5 9.1-24.6 9.3-26.7.4-57.7-15.3-67.6-21.5l-2.8 53 22.5-.1c0-2.7 3.4-4.9 7.5-4.9 4.2 0 7.5 2.2 7.6 4.9l97.7-.2v-8.8c-.1-13-9.1-24.3-21.7-27.3z"/><path fill="{{colors[9]}}" d="M87.6 196.6l26.1 9.4c.8.3 1.1 1.1.9 1.9l-3.3 9.1c-.3.8-1.1 1.1-1.9.9l-27.4-10c-.4-.1-.6-.6-.4-.9l3.3-9.1c.3-1.1 1.6-1.7 2.7-1.3z"/><polygon fill="{{colors[1]}}" points="374.9,535.5 390,323.3 215.1,339.3 215.8,535.5"/><polygon fill="{{colors[11]}}" points="277,143.3 335.4,142.7 337.3,348.6 253.8,348.6 239.6,165.7"/><path fill="{{colors[12]}}" d="M328.8 133.3l-19 1.7c-2.5 2.4-4.2 5.6-4.7 9.2-1.2-3.5-3.6-6.3-6.6-8.1l-18 1.7c-4.1 3.6-6.2 9.3-4.9 15 1.9 8.3 10.2 13.5 18.5 11.6 6.5-1.5 11-6.8 11.8-13 2.6 7.3 10.2 11.8 18 10 8.3-1.9 13.5-10.2 11.6-18.5-1-4.3-3.5-7.5-6.7-9.6z"/><path fill="{{colors[9]}}" d="M291.4 104.1l-2 28.1c-.7 10 7.5 18.4 17.5 18 9.6-.4 16.9-8.8 16-18.3l-2.8-30.4-28.7 2.6z"/><path d="M290.8 112.2l-.2 3.3c7 7.1 16.9 11.2 27.6 10.2 1.4-.1 2.7-.4 4-.7l-1.4-15.6-30 2.8z" fill="{{colors[6]}}"/><ellipse transform="matrix(-0.9535 0.3014 -0.3014 -0.9535 725.9655 57.7368)" fill="{{colors[9]}}" cx="358.5" cy="84.9" rx="11.4" ry="9.6"/><rect x="357" y="80.4" transform="matrix(0.213 0.9771 -0.9771 0.213 364.7695 -282.0539)" width="1" height="10" fill="{{colors[6]}}"/><ellipse transform="matrix(0.9925 0.1224 -0.1224 0.9925 12.6597 -29.9511)" fill="{{colors[9]}}" cx="250.1" cy="88" rx="11.4" ry="9.6"/><rect x="246.2" y="87.9" transform="matrix(0.9995 3.013991e-002 -3.013991e-002 0.9995 2.7775 -7.5309)" width="10" height="1" fill="{{colors[6]}}"/><ellipse transform="matrix(1.605104e-002 0.9999 -0.9999 1.605104e-002 369.6252 -235.3873)" fill="{{colors[9]}}" cx="304.4" cy="70.1" rx="51" ry="52.5"/><path d="M297.4 81.7c-1.1 0-1.9-.9-1.9-1.9l-.1-4.6c0-1.1.8-2 1.9-2 1.1 0 1.9.9 1.9 1.9l.1 4.6c.1 1.1-.7 2-1.9 2 .1 0 .1 0 0 0zm20 0c-1.1 0-1.9-.9-1.9-1.9l-.1-4.6c0-1.1.8-2 1.9-2 1.1 0 1.9.9 1.9 1.9l.1 4.6c.1 1.1-.7 2-1.9 2 .1 0 .1 0 0 0zm5-60.1c-5.9-2-12.2-3.2-18.8-3.1-29.5.5-53 24.2-52.6 52.8 0 2.5.3 4.9.7 7.3 54.3-6.4 70.4-55.9 70.7-57zm35.5 48c-.4-22.2-15.1-40.9-35.4-48 0 0-.9 44.7 35.1 54.1.2-2 .3-4 .3-6.1z" fill="{{colors[6]}}"/><path fill="{{colors[13]}}" d="M289.5 135.6l-54.4 6.8c-20 1.8-36.4 16.7-40.1 36.5l-8.6 45.9 6.7 126.4 17.6 137 34.5-3.2 18.7-157.5 25.6-191.9z"/><path fill="{{colors[13]}}" d="M186.5 224.7l-7.6 35.5-11.4-42.4-55.5 19.4 42.1 120.1c5.3 15.1 20.5 24.3 36.4 22.1 13.6-1.9 24.6-11.9 27.9-25.3l13.7-56.5-4-67.2-41.6-5.7z"/><rect x="164.2" y="278.5" transform="matrix(0.2422 0.9702 -0.9702 0.2422 409.7552 33.3445)" width="38.8" height="1" fill="{{colors[6]}}"/><path fill="{{colors[13]}}" d="M422.4 204.3l-8.4-34.8c-5.7-23.6-27.6-39.7-51.8-38.2l-38.9 2.5 5.7 343.7 55.5-5.1 13.5-78.9-18.7-180.1 43.1-9.1z"/><polygon fill="{{colors[14]}}" points="268.7,138.2 253.8,163.9 267.4,170.1 247.8,189.8 259.6,359.9 289.5,135.6"/><polygon fill="{{colors[14]}}" points="343.9,132.5 356.3,161.1 340.9,168.8 358,191.9 326.9,356.1 323.2,133.8"/><polygon fill="{{colors[15]}}" points="396.4,377.8 353,381.8 354,392.6 397.5,388.6"/><polygon fill="{{colors[15]}}" points="200.3,406.7 232.2,403.8 231.2,393 198.9,396"/><rect x="288" y="224.4" transform="matrix(0.9409 0.3387 -0.3387 0.9409 118.6432 -97.9299)" fill="{{colors[4]}}" width="103.8" height="133.2"/><rect x="290.9" y="208.2" transform="matrix(0.9409 0.3387 -0.3387 0.9409 110.4784 -83.6126)" fill="{{colors[16]}}" width="7.9" height="133.2"/><path fill="{{colors[13]}}" d="M422.4 204.3l26.5 104.3c3.5 13.8-1.2 28.4-12.1 37.5-10.3 8.6-24.4 11-36.9 6.2l-78.1-29.7 18.1-49 53 23.6 18.4-51.2-29.8-10.7-2.3-21.7 43.2-9.3z"/><rect x="326.3" y="240.8" transform="matrix(0.9409 0.3387 -0.3387 0.9409 105.9268 -106.4268)" fill="{{colors[10]}}" width="63.2" height="19"/><path fill="{{colors[9]}}" d="M339.8 273.6L304 251.3c-3.2-1.7-7.2-1.3-9.9 1.2s-3.8 5.3-1.4 10.4c0 0-9.1 2.1-5.3 11.9 0 0-9 4.2-5.5 13.6 0 0-7 6.8-1.3 14.2 4.4 5.7 41.1 20 41.1 20l18.1-49z"/><path fill="{{colors[9]}}" d="M316.5 266.7l-6.4-11.3s8.1-8.9 17.9.7c9.2 8.9 10.6 20.5 10.6 20.5l-22.1-9.9z"/><polygon fill="{{colors[9]}}" points="164.3,218.9 157.9,190 131.2,184 101.5,209.8 112,237.2"/><rect x="60.8" y="187.3" transform="matrix(0.5901 -0.8074 0.8074 0.5901 -108.6354 174.3318)" fill="{{colors[17]}}" width="113.1" height="13.7"/><rect x="138.5" y="148" transform="matrix(0.5901 -0.8074 0.8074 0.5901 -70.0427 180.6107)" fill="{{colors[18]}}" width="8.7" height="22.6"/><path fill="{{colors[9]}}" d="M122.9 211l-27.1-8.7c-.8-.2-1.2-1.1-.9-1.8l3-9.2c.2-.8 1.1-1.2 1.8-.9l27.1 8.7c.8.2 1.2 1.1.9 1.8l-3 9.2c-.2.8-1 1.2-1.8.9z"/><path fill="{{colors[9]}}" d="M126.3 203.5l-26.3-11c-.7-.3-1.1-1.2-.8-1.9l3.7-9c.3-.7 1.2-1.1 1.9-.8l26.3 11c.7.3 1.1 1.2.8 1.9l-3.7 9c-.3.7-1.1 1.1-1.9.8z"/><path fill="{{colors[9]}}" d="M128.3 197.3l-21.4-17.8c-.6-.5-.7-1.4-.2-2l6.2-7.5c.5-.6 1.4-.7 2-.2l22.5 18.7c.3.3.4.7.1 1l-6.2 7.5c-.7.9-2.1 1-3 .3z"/><path d="M130.3 195.7v-1c1.1 0 2.5-.2 3.3-1.2 2-2.4-.2-7.7-2.6-9.8l-1-.8.6-.7 1 .8c2.8 2.3 5.2 8.2 2.8 11.1-.9 1-2.3 1.6-4.1 1.6z" fill="{{colors[6]}}"/><circle cx="175.1" cy="115.1" r="44.2" fill="{{colors[6]}}"/><circle fill="{{colors[14]}}" cx="175.1" cy="115.1" r="33.1"/><path fill="{{colors[12]}}" d="M150.1 122.5c-.5-1.6-.9-3.2-1-4.9 0-.5-.1-.9-.1-1.4h1c0 .4 0 .9.1 1.3.1 1.6.5 3.2 1 4.7l-1 .3zm.3-13.2l-1-.2c1.2-6.9 5.6-12.7 11.9-15.6l.4.9c-5.9 2.7-10.2 8.3-11.3 14.9z"/><path fill="{{colors[16]}}" d="M138.3 775c-.4 1.2-.7 2.5-.9 3.7l-1.8 10.6 96.8-.2c0-2.7 3.4-4.9 7.5-4.9 4.2 0 7.5 2.2 7.6 4.9h16.6l1.2-14.3-127 .2zm154.6 13.9l22.5-.1c0-2.7 3.4-4.9 7.5-4.9 4.2 0 7.5 2.2 7.6 4.9l97.7-.2v-8.8c0-1.9-.2-3.7-.6-5.5H293.7l-.8 14.6z"/><path fill="{{colors[4]}}" d="M230.5 759.9l-5.5 5c-.5.4-1.1.4-1.6-.1L201 740.1l7.1-6.5 22.4 24.7c.5.5.5 1.2 0 1.6z"/><path d="M224.6 764.2h-.3c-1.4-.1-2.7-.7-3.7-1.7l-8.8-9.7.7-.7 8.8 9.7c.8.9 1.8 1.4 3 1.4 1.1.1 2.3-.3 3.1-1.1 1.8-1.6 1.9-4.3.3-6.1l-.1-.1.7-.7.1.1c2 2.2 1.8 5.5-.4 7.5-.8.9-2.1 1.4-3.4 1.4z" fill="{{colors[6]}}"/><path fill="{{colors[4]}}" d="M331.5 758.4l4.6 5.8c.4.5 1.1.6 1.5.2l28.5-22.4-5.9-7.6-28.5 22.4c-.5.4-.6 1.1-.2 1.6z"/><path d="M337.6 763.6h-.6c-1.4-.2-2.7-.9-3.5-2-1.7-2.2-1.4-5.3.6-7.2l.7.7c-1.7 1.5-1.9 4.1-.5 5.9 1.5 1.9 4.2 2.2 6.1.7l11.6-9.1.6.8-11.6 9.1c-1.1.7-2.3 1.1-3.4 1.1z" fill="{{colors[6]}}"/><polygon points="222.4,535.5 222.2,538.8 284.7,548.2 285.8,535.5" fill="{{colors[6]}}"/><polygon points="306.5,535.5 306,544.4 368.6,554 369.6,535.5" fill="{{colors[6]}}"/><circle fill="{{colors[11]}}" cx="224.3" cy="758.5" r="2.9"/><circle fill="{{colors[11]}}" cx="337.5" cy="758.5" r="2.9"/><rect x="362.2" y="217.2" transform="matrix(0.1035 0.9946 -0.9946 0.1035 556.9824 -182.4852)" width="35.1" height="1" fill="{{colors[6]}}"/><rect x="373" y="346.1" transform="matrix(0.9348 0.3551 -0.3551 0.9348 148.1438 -114.072)" width="23.8" height="1" fill="{{colors[6]}}"/><rect x="392.8" y="297.5" transform="matrix(0.9764 0.2158 -0.2158 0.9764 73.663 -78.5611)" width="7.5" height="1" fill="{{colors[6]}}"/><polygon points="112,237.2 111,234.6 162.5,210.6 164.3,218.9" fill="{{colors[6]}}"/><polygon points="339.8,273.6 338.3,272.7 313.7,319.3 321.7,322.6" fill="{{colors[6]}}"/><path fill="{{colors[9]}}" d="M140.2 207.1s-2.6-10.8-.2-15.5c0 0-12.9-.5-13.2-6.1-.3-5.6 15.8-14.8 26.4-6.9 0 0 6 4.1 7.4 22.8"/><path d="M139.7 207.2c-.1-.4-2.4-10.1-.5-15.1-2.8-.2-12.7-1.2-13-6.5-.1-1.4.8-3.1 2.5-4.8l.7.7c-1.5 1.4-2.2 2.8-2.2 4 .3 5.1 12.6 5.6 12.8 5.6h.8l-.3.7c-2.3 4.5.3 15 .3 15.1l-1.1.3zm-21.2 2.3c-1.2 0-2.4-.2-3.3-.5h-.2l.3-.9.2.1c1.6.5 4 .5 6 .1 2.3-.5 3.8-1.6 4.2-2.9 1-3-3.1-7.1-6.1-8.1l-15.5-5c-.8-.3-1.6-.3-2.4-.2l-.1-1c1-.1 1.9 0 2.8.3l15.5 5c3.5 1.1 7.9 5.6 6.7 9.3-.5 1.7-2.3 2.9-4.9 3.5-1 .2-2.1.3-3.2.3z" fill="{{colors[6]}}"/><path d="M125.6 201.4l-.2-1c1.3-.2 3.5-.8 4.2-2.5.5-1.3.1-3-1.1-4.8-1.1-1.7-2.8-3.1-4.3-3.7l-13.2-5.5.4-.9 13.2 5.5c3.4 1.4 7.4 6.3 5.9 9.8-.6 1.6-2.4 2.7-4.9 3.1z" fill="{{colors[6]}}"/><rect x="292.2" y="263.4" transform="matrix(0.7066 0.7076 -0.7076 0.7066 272.9043 -130.4321)" width="3" height="1" fill="{{colors[6]}}"/><rect x="287" y="275" transform="matrix(0.7238 0.69 -0.69 0.7238 269.6629 -122.7106)" width="2.2" height="1" fill="{{colors[6]}}"/><rect x="281.6" y="288.6" transform="matrix(0.7159 0.6982 -0.6982 0.7159 282.1052 -115.1575)" width="2" height="1" fill="{{colors[6]}}"/><rect x="309.6" y="256.5" transform="matrix(0.875 0.4841 -0.4841 0.875 163.5323 -119.3981)" width="6.8" height="1" fill="{{colors[6]}}"/><rect x="259.2" y="433.5" transform="matrix(0.2512 0.9679 -0.9679 0.2512 638.7264 42.3423)" width="65.6" height="1" fill="{{colors[6]}}"/><rect x="289.3" y="425.5" transform="matrix(0.4602 0.8878 -0.8878 0.4602 540.4917 -36.9923)" width="22.7" height="1" fill="{{colors[6]}}"/><path d="M125.6 250.7c-2.3 0-4.2-1.9-4.2-4.2 0-2.3 1.9-4.2 4.2-4.2 2.3 0 4.2 1.9 4.2 4.2.1 2.3-1.8 4.2-4.2 4.2zm0-7.4c-1.8 0-3.2 1.5-3.2 3.2s1.5 3.2 3.2 3.2 3.2-1.5 3.2-3.2-1.4-3.2-3.2-3.2zm211.7 79.8c-2.3 0-4.2-1.9-4.2-4.2 0-2.3 1.9-4.2 4.2-4.2 2.3 0 4.2 1.9 4.2 4.2 0 2.3-1.9 4.2-4.2 4.2zm0-7.4c-1.8 0-3.2 1.5-3.2 3.2s1.5 3.2 3.2 3.2 3.2-1.5 3.2-3.2-1.5-3.2-3.2-3.2zM194.7 379l-.3-.9c11.6-3.2 20.6-12.4 23.4-24.1 0 0 12.9-53 13.7-56.3l.9.2c-.8 3.3-13.7 56.3-13.7 56.3-2.8 12.1-12 21.6-24 24.8z" fill="{{colors[6]}}"/><rect x="195" y="253" transform="matrix(2.995527e-002 0.9996 -0.9996 2.995527e-002 477.2136 15.2507)" width="71.5" height="1" fill="{{colors[6]}}"/></g></svg>