<svg data-name="图层 1" xmlns="http://www.w3.org/2000/svg" viewBox="0 0 800 800" preserveAspectRatio="none"><defs><clipPath id="a"><path d="M202 287.88c8.93-124.67 82-174.49 198.3-174.49S588 168.25 604.77 287.88c16.11 115.22-162.39 92.26-201.06 92.26-39.54 0-210.01 23.78-201.71-92.26z" fill="none"/></clipPath></defs><path d="M202 287.88c8.93-124.67 82-174.49 198.3-174.49S588 168.25 604.77 287.88c16.11 115.22-88.14 210.65-204.47 210.65S193.7 403.92 202 287.88z" fill="{{colors[0]}}"/><path d="M419 778.28l195.19-447.35a1.53 1.53 0 0 0-2.51-1.68c-4.45 4.6-10.54 8.94-17.5 8.64-14.5-.64-34.68-17.66-58-16.4s-35.95 16.4-64.32 16.4-42-18.29-60.73-18.92S371 334.73 352 335.36s-45.4-15.8-64.95-16.41-38.45 18.94-59.91 18.3c-15.2-.44-24.06-9.15-33-13.87a4.9 4.9 0 0 0-6.68 6.56z" fill="{{colors[1]}}"/><g clip-path="url(#a)"><path d="M202.42 225.32s-16.4 66.22 27.75 38.47c0 0 14.82-15.14 23.64 12.93s24.6 18.91 37.53-9.78 25.22-11.66 32.47 4.42 26.17 17.34 35.95-8.52 30.84-24 43.95 7.89 40.23 23.64 47.17 5.67 23.33-32.79 35.94-1.26 32.48 19.87 36.89-6 21.13-30.16 41.62-9.41 43.8-4.15 43.8-13.61-35.28-136.83-210.28-132.41-190.75 91.75-196.43 111.61z" fill="{{colors[2]}}"/></g><circle cx="251.55" cy="386.44" r="14.9" fill="{{colors[3]}}"/><circle cx="277.65" cy="441.86" r="14.9" fill="{{colors[3]}}"/><circle cx="344.17" cy="441.86" r="14.9" fill="{{colors[3]}}"/><circle cx="410.7" cy="441.86" r="14.9" fill="{{colors[3]}}"/><circle cx="473.53" cy="441.86" r="14.9" fill="{{colors[3]}}"/><circle cx="537.59" cy="441.86" r="14.9" fill="{{colors[3]}}"/><circle cx="502.09" cy="501.26" r="14.9" fill="{{colors[3]}}"/><circle cx="436.79" cy="501.26" r="14.9" fill="{{colors[3]}}"/><circle cx="371.5" cy="501.26" r="14.9" fill="{{colors[3]}}"/><circle cx="306.21" cy="501.26" r="14.9" fill="{{colors[3]}}"/><circle cx="339.47" cy="569.05" r="14.9" fill="{{colors[3]}}"/><circle cx="407" cy="569.05" r="14.9" fill="{{colors[3]}}"/><circle cx="477" cy="569.05" r="14.9" fill="{{colors[3]}}"/><circle cx="444.2" cy="631.9" r="14.9" fill="{{colors[3]}}"/><circle cx="411.2" cy="697.38" r="14.9" fill="{{colors[3]}}"/><circle cx="373.5" cy="637.37" r="14.9" fill="{{colors[3]}}"/><circle cx="314.62" cy="386.44" r="14.9" fill="{{colors[3]}}"/><circle cx="377.68" cy="386.44" r="14.9" fill="{{colors[3]}}"/><circle cx="440.74" cy="386.44" r="14.9" fill="{{colors[3]}}"/><circle cx="503.8" cy="386.44" r="14.9" fill="{{colors[3]}}"/><circle cx="563.15" cy="386.44" r="14.9" fill="{{colors[3]}}"/><rect x="222.84" y="155.17" width="50.26" height="21.02" rx="10.51" transform="rotate(-21.92 247.926 165.662)" fill="{{colors[4]}}"/><rect x="245.43" y="223.69" width="50.26" height="21.02" rx="10.51" transform="rotate(68.08 270.565 234.223)" fill="{{colors[4]}}"/><rect x="304.39" y="229.13" width="50.26" height="21.02" rx="10.51" transform="rotate(-15.61 329.629 239.692)" fill="{{colors[5]}}"/><rect x="352.55" y="186.6" width="50.26" height="21.02" rx="10.51" transform="rotate(-15.61 377.786 197.164)" fill="{{colors[6]}}"/><rect x="444.43" y="187.95" width="50.26" height="21.02" rx="10.51" transform="rotate(37.97 469.536 198.432)" fill="{{colors[5]}}"/><rect x="478.67" y="237.26" width="50.26" height="21.02" rx="10.51" transform="rotate(15.96 503.81 247.776)" fill="{{colors[4]}}"/><rect x="400.71" y="247.77" width="50.26" height="21.02" rx="10.51" transform="rotate(-48.89 425.795 258.268)" fill="{{colors[5]}}"/><rect x="523.13" y="161.34" width="50.26" height="21.02" rx="10.51" transform="rotate(-56 548.208 171.855)" fill="{{colors[6]}}"/><path d="M322.1 165.58s-70.55-32.84-7.58-76.89C335.39 74.08 418 65.93 389 38.35 364.09 14.63 466.36 30.28 495.88 77c33.57 53.1 22.41 91-17.93 77.92 0 0-35.51 40.68-89.65 14.14 0-.06-49.3 18.94-66.2-3.48z" fill="{{colors[0]}}"/><path d="M395.18 45.94c-.18-.74 4.82 20.76-32.51 35.7 0 0-68.9 31.75-40.57 83.94 0 0 13.46-61.46 39.63-76.49 22.08-12.69 38.85-24.95 33.45-43.15z" fill="{{colors[7]}}"/><path d="M385.4 30.28s37.05 17.7 10.8 75.47c-19.84 43.66-7.9 63.28-7.9 63.28s-31.89-32.91-11.13-67.21c27.83-46.01 29-52.14 8.23-71.54zM478 154.89s13.6-51.08-12.27-82.74c-24.71-30.23-42-34.47-77.8-41.87-.05 0 101.84 24.42 90.07 124.61z" fill="{{colors[3]}}"/></svg>