<svg version="1.1" xmlns="http://www.w3.org/2000/svg" xmlns:xlink="http://www.w3.org/1999/xlink" x="0" y="0" viewBox="0 0 800 800" xml:space="preserve" preserveAspectRatio="none"><path fill="{{colors[0]}}" d="M416.7 183.1l23.5-140.6s.1-7.6 3.2-17.8c0 0 7.9-8.8 26.4-4.6 30.5 6.9 47.1 16.3 73.7 307.5-8.3-.1-150.6-2.2-150.6-2.2l23.8-142.3z"/><path fill="{{colors[1]}}" d="M440.4 94.2c-.1 1.8-1.9 1.6-1.9 1.6-1 0-1.9-.5-1.9-1.6V77.5c0-1.1.8-1.1 1.9-1.1 1 0 1.9 0 1.9 1.1v16.7zm0-24c0 1-.8 1.9-1.9 1.9s-1.9-.8-1.9-1.9c0-1 .8-1.9 1.9-1.9s1.9.8 1.9 1.9z"/><rect x="438.4" y="71.4" fill="{{colors[1]}}" width=".3" height="6.6"/><path fill="{{colors[2]}}" d="M479.2 62.4c-1.5 15.1-15.6 25.9-31.4 24.3-15.8-1.6-27.4-15.1-25.9-30.2s15.6-25.9 31.4-24.3c15.9 1.6 27.4 15.1 25.9 30.2z"/><path fill="{{colors[2]}}" d="M487 67c-.4 4-4.1 6.9-8.3 6.4-4.2-.4-7.3-4-6.9-8 .4-4 4.1-6.9 8.3-6.4 4.2.5 7.3 4 6.9 8z"/><polygon fill="{{colors[2]}}" points="476.3,120.3 472,290.4 393.2,298.4 429.4,120.5 443,120.4 448.7,66.2 473.5,70 467.6,120.4"/><path fill="{{colors[2]}}" d="M329.2 743.7s9.3-.9 11.9-9.4c3.1-10 2-54.9 2-54.9l75.6-.8-.5 67.2-47.2 2.8-39 6-2.8-10.9zm191.4 3.9s9.2-7.7 7.6-16.4c-1.9-10.3-23.8-49.5-23.8-49.5l65-35.9 30.1 53.8-34.4 35.7-30.4 19.3-14.1-7z"/><path fill="{{colors[3]}}" d="M472.3 288.6l12.5 36.6s12.3 42.2-6.1 80l13.4 77.4 93.7 169.1-92.8 47.2-63.7-148.7 6.4 152.2-112.3-2.8c7.7-86.6 11.1-152.3 19.3-212.8C365 323.1 366 327.7 372.6 288.6h99.7z"/><line fill="none" stroke="{{colors[4]}}" stroke-width="2.791" stroke-miterlimit="10" x1="401.7" y1="505.1" x2="394.6" y2="702.4"/><path fill="none" stroke="{{colors[5]}}" stroke-width="4.186" stroke-linecap="round" stroke-miterlimit="10" d="M393.2 371.9c1.8 127.9 6.9 130 6.9 130s4.8 6.5 29.5 48.3"/><polygon fill="{{colors[1]}}" points="472.6,266.7 403.1,266.7 402.1,144.2 504.3,148.8"/><polyline fill="{{colors[6]}}" points="306.5,266.7 287.6,287.2 282.6,300.9 318.2,326.7 337.6,312.3 333.2,308.2 347.8,294.3"/><defs><polyline id="a" points="306.5,266.7 287.6,287.2 282.6,300.9 318.2,326.7 337.6,312.3 333.2,308.2 347.8,294.3"/></defs><clipPath id="b"><use xlink:href="#a" overflow="visible"/></clipPath><g clip-path="url(#b)"><path fill="none" stroke="{{colors[5]}}" stroke-width="2.791" stroke-linecap="round" stroke-miterlimit="10" d="M295.5 294.6c-.3.1-5.8 14-5.8 14m14.5-7.1c-.3.1-5.8 14-5.8 14m14-8.2c-.3.1-5.8 14-5.8 14"/></g><path clip-path="url(#b)" fill="{{colors[0]}}" d="M333.2 308.2s-10 7.9-9.4 7.6c.7-.3 11.5-5.7 11.5-5.7l-2.1-1.9z"/><polyline fill="{{colors[2]}}" points="331.4,294.2 312.5,314.7 307.6,328.3 343.1,354.2 362.5,339.8 358.1,335.7 372.7,321.7"/><defs><polyline id="c" points="331.4,294.2 312.5,314.7 307.6,328.3 343.1,354.2 362.5,339.8 358.1,335.7 372.7,321.7"/></defs><clipPath id="d"><use xlink:href="#c" overflow="visible"/></clipPath><g clip-path="url(#d)"><path fill="none" stroke="{{colors[5]}}" stroke-width="2.791" stroke-linecap="round" stroke-miterlimit="10" d="M320.5 322c-.3.1-5.8 14-5.8 14m14.4-7c-.3.1-5.8 14-5.8 14m14-8.2c-.3.1-5.8 14-5.8 14"/></g><path clip-path="url(#d)" fill="{{colors[0]}}" d="M358.1 335.7s-10 7.9-9.4 7.6c.7-.3 11.5-5.7 11.5-5.7l-2.1-1.9z"/><rect x="484.5" y="660.7" transform="matrix(0.8625 -0.506 0.506 0.8625 -265.5193 364.1841)" fill="{{colors[4]}}" width="106.1" height="20.1"/><rect x="369.2" y="636.3" transform="matrix(2.424961e-03 -1 1 2.424961e-03 -313.9479 1069.8176)" fill="{{colors[4]}}" width="20.1" height="111.9"/><rect x="397" y="276.9" fill="{{colors[4]}}" width="75.4" height="13.6"/><path fill="{{colors[1]}}" d="M496 120.5c-1-.1-13.1-.1-27.4-.1-3.2 3.7-7.9 6.4-11.8 9-5.8 3.9-12.1 7.6-19.1 9-3.3.7-6.6.4-6.1-3.8.7-5.4 4.9-10.4 8.8-14.1-13.1.1-18.3.1-21 .1-9.7-.2-21 16.5-21 16.5l-99.3 137.5 30.9 19.9-2.5 3.6 45.9 25.2 124.8-147.5c32.9-43.2 7.4-54.1-2.2-55.3z"/><polygon fill="{{colors[7]}}" points="371.3,326.1 327.2,298.2 338.3,284.3 383,312.1"/><polygon fill="{{colors[7]}}" points="330.8,295.4 298.7,275.2 309.4,260.6 342.5,281.6"/><path fill="{{colors[0]}}" d="M455.6 42.7C456.9 43 467 61 482 59c0 0 4.3-37.6-29.2-38.3 0 0-31.9 3.6-35.9 33 1.8.1 34.5.4 36.7 0-1.3-4.6.6-11.2 2-11z"/><path fill="{{colors[1]}}" d="M482.5 94.6c-.1 1.8-1.9 1.6-1.9 1.6-1 0-1.9-.5-1.9-1.6V77.9c0-1.1.8-1.1 1.9-1.1 1 0 1.9 0 1.9 1.1v16.7zm0-24c0 1-.8 1.9-1.9 1.9-1 0-1.9-.8-1.9-1.9 0-1 .8-1.9 1.9-1.9 1 0 1.9.8 1.9 1.9z"/><rect x="480.5" y="71.8" fill="{{colors[1]}}" width=".3" height="6.6"/><path fill="none" stroke="{{colors[8]}}" stroke-width="2.791" stroke-linecap="round" stroke-linejoin="round" stroke-miterlimit="10" d="M242.1 390.4c0-4.2 39.2-93.7 39.2-93.7"/><polygon fill="{{colors[9]}}" points="231.5,370.9 344.9,381.5 355.7,530.9 340.8,536.8 199.9,516.3"/><path fill="none" stroke="{{colors[8]}}" stroke-width="2.791" stroke-linecap="round" stroke-linejoin="round" stroke-miterlimit="10" d="M345.8 394.7c0-4.2 9.9-55.4 9.9-55.4"/><polygon fill="{{colors[10]}}" points="247.8,381.5 365.9,381.5 378.7,542.1 363.8,548 221,538.7"/><path fill="{{colors[5]}}" d="M432.5 61.7c0 1.2-1 2.2-2.2 2.2-1.2 0-2.2-1-2.2-2.2 0-1.2 1-2.2 2.2-2.2 1.2 0 2.2 1 2.2 2.2zm17 0c0 1.2-1 2.2-2.2 2.2-1.2 0-2.2-1-2.2-2.2 0-1.2 1-2.2 2.2-2.2 1.3 0 2.2 1 2.2 2.2z"/><line fill="none" stroke="{{colors[11]}}" stroke-width="2.791" stroke-linecap="round" stroke-miterlimit="10" x1="445.2" y1="162.5" x2="330.5" y2="293.7"/><path fill="none" stroke="{{colors[11]}}" stroke-width="2.791" stroke-linecap="round" stroke-miterlimit="10" d="M410.5 150.6L391.7 173s-7.7 11.3-.7 32.2l-4.5 24.3"/><path fill="{{colors[12]}}" d="M398.3 722.2c-9.9.9-19 4.9-26.7 11-7.1 5.7-13.5 12.1-22.8 13.7-7.1 1.2-10.6.1-17-2.8-8.2 2.1-10.9 2.5-10.9 2.5-55.6 7.6-44.2 32.5-44.2 32.5h98.8s10.1-23.2 15.1-25.7c8.1-4 8.8 9.1 8.8 9.1l.4 16.6h18.7v-53.4c-5.6-2.5-13.8-4-20.2-3.5z"/><defs><path id="e" d="M398.3 722.2c-9.9.9-19 4.9-26.7 11-7.1 5.7-13.5 12.1-22.8 13.7-7.1 1.2-10.6.1-17-2.8-8.2 2.1-10.9 2.5-10.9 2.5-55.6 7.6-44.2 32.5-44.2 32.5h98.8s10.1-23.2 15.1-25.7c8.1-4 8.8 9.1 8.8 9.1l.4 16.6h18.7v-53.4c-5.6-2.5-13.8-4-20.2-3.5z"/></defs><clipPath id="f"><use xlink:href="#e" overflow="visible"/></clipPath><path clip-path="url(#f)" fill="{{colors[13]}}" d="M372.4 781.1l-116.2.1-.5-6.6h117c6.9-12.5 7.7-14.3 12.9-22.5 2.2-3.5 7.6-5.3 16.1-5.3 18.6-.3 18.4-.2 18.4-.2l-1.4 32.5"/><path fill="{{colors[12]}}" d="M584.1 748.1c5.6-17 15.9-10 15.9-10l14 20.3 15.5-9.6-34-55.8c-25.1 3.1-43.9 23-46 38-2.1 15-28.9 15.4-28.9 15.4-56.2 7.3-44.7 31.2-44.7 31.2h95.5l12.7-29.5z"/><g><defs><path id="g" d="M584.1 748.1c5.6-17 15.9-10 15.9-10l14 20.3 15.5-9.6-34-55.8c-25.1 3.1-43.9 23-46 38-2.1 15-28.9 15.4-28.9 15.4-56.2 7.3-44.7 31.2-44.7 31.2h95.5l12.7-29.5z"/></defs><clipPath id="h"><use xlink:href="#g" overflow="visible"/></clipPath><path clip-path="url(#h)" fill="{{colors[13]}}" d="M582.9 781.5H470.5l1.9-8.5 95.8-.1 12.8-30.5s4.8-10.6 8.2-12.1l27.8-15.1 20.9 35.3S609 770 609.3 769.2c.3-.8-13.2-16.2-13.2-16.2l-13.2 28.5z"/></g><path fill="none" d="M578.3 772.4c-1.5 3.1-2.5 5.3-2.5 5.3h-99.9s-11.5-23.9 44.7-31.2c0 0 26.7-.3 28.9-15.4 2.1-15 20.9-34.9 46-38l34.1 55.8-15.5 9.6-17-24.5s-4.6-7.9-12.1 15.9"/><path fill="{{colors[14]}}" d="M372 314.7c0 1.8-1.4 3.2-3.2 3.2-1.8 0-3.2-1.4-3.2-3.2 0-1.8 1.4-3.2 3.2-3.2 1.7 0 3.2 1.4 3.2 3.2z"/><path fill="none" stroke="{{colors[4]}}" stroke-width="2.791" stroke-linecap="round" stroke-miterlimit="10" d="M434.6 299s-3.3 25.3 18.2 29.3l.5 170.8 94.9 171.7"/><path fill="{{colors[15]}}" d="M440.6 72.1c0 .7-.4 1.2-.9 1.2h-2.6c-.5 0-.9-.5-.9-1.2s.4-1.2.9-1.2h2.6c.5 0 .9.5.9 1.2z"/><path fill="{{colors[16]}}" d="M438.6 65.8c0 .3-.3.6-.6.6s-.6-.3-.6-.6v-1.7c0-.3.3-.6.6-.6s.6.3.6.6v1.7z"/><line fill="none" stroke="{{colors[11]}}" stroke-width="2.791" stroke-linecap="round" stroke-miterlimit="10" x1="499" y1="173.3" x2="423.1" y2="265.9"/><g><polyline fill="none" stroke="{{colors[17]}}" stroke-width="2.791" stroke-linecap="round" stroke-miterlimit="10" points="360.2,541.4 366.8,523.8 375.1,535"/><path fill="none" stroke="{{colors[17]}}" stroke-width="2.791" stroke-linecap="round" stroke-miterlimit="10" d="M366.8 523.8c-.6-2.6-6.6-112.3-6.6-112.3"/></g><path fill="none" stroke="{{colors[4]}}" stroke-width="2.791" stroke-linecap="round" stroke-miterlimit="10" d="M460.1 498.7c-.2-.2-15.1-.6-15.1-.6m15.1-10c-.2-.2-15.1-.6-15.1-.6"/><path fill="none" stroke="{{colors[18]}}" stroke-width="2.791" stroke-linecap="round" stroke-linejoin="round" stroke-miterlimit="10" d="M259.8 393.4c0-4.2 22.8-96.7 22.8-96.7m73.1 95.8v-53.1"/><path fill="{{colors[18]}}" d="M263.5 392.5c0 2-1.6 3.7-3.7 3.7-2 0-3.7-1.6-3.7-3.7 0-2 1.6-3.7 3.7-3.7s3.7 1.6 3.7 3.7zm95.9 2.2c0 2-1.6 3.7-3.7 3.7-2 0-3.7-1.6-3.7-3.7 0-2 1.6-3.7 3.7-3.7 2 0 3.7 1.7 3.7 3.7z"/></svg>