<svg data-name="图层 1" xmlns="http://www.w3.org/2000/svg" viewBox="0 0 800 87.28" preserveAspectRatio="none"><path d="M779.18 433.78l-.7-.77-1.55 1.4.35.39-2.66 1.72-.36-.39 3.87-3.51.35.39.38-.35c.23.5.45 1 .67 1.51l2.63-1-.35-.39.39-.35a5.1 5.1 0 0 1 1.79 1.19l1.55-1.4-.36-.39-1.18 1.08-1-1.16-.38.35-.35-.39-1.94 1.76-2.07-3.06-1.89 1-.71-.77.39-.35c.59.73 1.68-.87 2.28-1.37l-.35-.39-2.28 1.37c-.11-.37-.21-.75-.32-1.12l-.38.35-.7-.78a11.34 11.34 0 0 1-1.2 1.79l-.35-.38 1.16-1-.35-.39c-1.67.83-1.17.16-2.6.24l-.35-.38a3.74 3.74 0 0 1-1.2 1.79l-.35-.39 1.16-1.05-.7-.77-.77.7c-1.86-1.18-1.71 0-3.62-1.65l-1.16 1.05c-.08-1.88-.94-.53-1.82-.46l-.32-1.12-.77.7-1.09-.42-.39.35-.31-1.12-.77.7c-.94-.56-.25-.38-1.09-.42-1.25-.78-.89-.8-2.21-.11-1.57-1-1.73-.24-3.27-1.26l-.77.7-1.06-1.16-.77.7c-2.48-1.56-5.15-.52-7.65-2.21l-1.16 1.05c-.89-.86-1.27-1.5-2.14-1.58l-.77.7c-.11-.37-.22-.74-.32-1.12l-1.51.67c-1.12-.73-.77-.51-1.83-.46l-.38.35c-.61-.07.25-.89.07-1.47l-.77.7-.36-.39-1.12.32-.7-.77-.39.35-.7-.78-2.6.25-.31-1.12c-1.9-.16-1.12 1.36-3.3-.53l-.78.7-.7-.77-1.16 1c-.06-.66.13-.81.07-1.47l-2.6.24-1.05-1.16-1.86.28-.7-.77-.39.35c-.75-.24-1.81-1.35-2.53-1.23-.25.24-.51.47-.77.7l-1-1.15-1.12.31a7.53 7.53 0 0 1-4-2l-1.51.67c-.66-.34-.07.28-.74 0l-.31-1.13-2.6.25-1.06-1.16-.42 1.09c-.1-.38-.21-.75-.31-1.13l-.78.71-.31-1.13-.77.7-.32-1.12-.39.35-1.44-.81-.77.71c-2.52-2.17-4.3-1-6.88-2.92 0 0-1.55 1.31-1.12.32l.38-.36-.35-.38-.77.7-1-1.16-.39.35c-1.25-.78-.89-.79-2.21-.1l-1.06-1.16-.77.7c-1.95-1.69-3.24-1.24-5-2.46l-.78.7-2.14-1.58-.38.35c-.24-.25-.47-.51-.71-.77l-.38.35a3.71 3.71 0 0 1-2.53-1.23l-.77.71c-1.34-.94-1.87-.75-3.23-2l-.77.71c-1.34-.94-1.87-.75-3.23-2l-.78.71c-1.41-.93-2.48-.91-4-2l-.78.7-2.88-1.62-.77.71-.31-1.13-.39.35-.7-.77-.77.7-.36-.38.39-.35c-.68-.28 0 .1-.74 0-.33-.06-1.47-.07-1.47-.07l-1.79-1.19-1.86.28-1.06-1.16-.38.35-1.44-.81-1.13.32-1-1.16-1.12.31c-.24-.25-.47-.51-.7-.77l-1.13.32-1-1.16-1.86.28-2.14-1.58-.78.7c-2.6-2.22-4.76-1.14-7.23-3.3l-.77.7c.13-1.88-.93-.38-1.83-.46l-.31-1.12-1.13.32a5.33 5.33 0 0 1-3.61-1.66l-.77.71c-2.12-1.75-1.91-.27-4-2l-.77.7c-.36-.38-.71-.77-1.06-1.16l-.77.7-2.32-1.76-.77.71c-3.06-2.11-6-.9-8.71-3.38l-.77.71c-1.74-1.21-3.08-1-4.71-2.08l-.77.71c-1.54-1.32-1.45-.65-2.88-1.62l-1.16 1c-.09-.62-.19-1.24-.28-1.86l-.77.7c-2.56-1.61-5.07-.36-7.66-2.21l-.77.7c-1.22-.81-1.32-.4-2.53-1.23 0 0-1.55 1.31-1.12.32l.39-.35-.35-.39-.78.7-.7-.77-1.12 1.09-.35-.38.35-.37-1.44-.81-1.16 1.05-1-1.16-1.51.67c-1.57-1-1.73-.25-3.27-1.26-1.37.73-1.66.74-3-.15-1.32.66-1 .71-2.21-.1-1.5.74-2.29.37-3.72.56l-.35-.39-1.55 1.41-1.79-1.2c-1.74 1-2.4.39-4.14 1.65l-.7-.77-3.06 2.07c-1.63-.75-1.43 1.11-3.79 2l-.35-.39-.78.7-.35-.38c-.66.31.08.17 0 .73l-1.13.32.36.39-.39.35-.35-.39-5 4.56c-5.9 2.88-11.32 9.48-14.4 15.2-1 1.19-2.09 2.37-3.13 3.55l.35.39-.77.7.35.38-1.54 1.41.35.38-2.76 2.53.35.39-1.93 1.75-.35-.38c-.72.46-.36 1-.42 1.09l-3.05 2.07-.71-.78-.77.71-.7-.78a3.51 3.51 0 0 1-3.34.21c-.16.07-1.06 1.36-1.12.32.18-.09 1.37-1 .42-1.09l-1.51.67-.7-.78-.39.36-.7-.78-.39.35-.7-.77-.38.35-.71-.77-.38.35-.7-.77-1.13.31-7.86-5.55-.39.36-1-1.16-.39.35-.31-1.13-.39.36c-.47-.52-.94-1-1.4-1.55l-.39.35-2.86-3.06-.38.35-.36-.38.39-.36-.35-.38-.39.35L469 399l-.39.36-2.1-2.32-.39.35-1.37-2.28-.38.35-1.76-1.93-.39.35c-.48-.34-.31-1.13-.31-1.13l-.35-.38-.39.35c-.86-.66-.61-1.67-1-1.9l-1.12.32-3.51-3.87-.39.36-2.45-2.71-.39.35-.35-.38.38-.36-.35-.38-.38.35-1.41-1.55-.38.36c-.51-.35-.32-1.13-.32-1.13l-.35-.38-.39.35-1.76-1.94-.39.35-3.92-3.56-.39.36-2.49-2-.39.35-.32-1.12-.77.7-2.84-2.29-1.51.67c-.47-1-.36-.28-.32-1.12a4.21 4.21 0 0 0-3 .59l-.7-.77c-.91.56-1.13.32-1.13.32l-1.93 1.75-.35-.38-2.74 3.19-.35-.39-1.55 1.41a4.51 4.51 0 0 0-1.47-.07l.7.77-4.6 3.48.35.38-1.89 1.76.35.38-.77.71.35.38-1.54 1.41.35.38-.78.7.36.39-2 2.49 1.09.42-2.31 2.15.35.39.39-.35c.09.73.06 0 0 .73 0 1-.06-.06-.77.71l.35.38c-.24.82-.38.92-1.19 1.79.65.12.82-.05 1.47.07l-1.51.67.35.39-.77.7.35.38-1.16 1.06.35.38c-1.33 2.16-2.67 4.31-4 6.46l-.35-.38s-1.47 1.37-.42 1.09l.38-.36.35.39c-1.63.4-2.71.42-4.53 2 .05-.83-.15-.16.42-1.09l-.35-.38-1.2.97-1.82-.46-1.16 1.06-.35-.39-.39.35-.31-1.12-.78.7c-1.25-.78-.89-.8-2.21-.11-2.85-2-7.1-2.09-9.76-4.53l-1.16 1.06-.63-2.25-1.51.66-.67-1.51c-.11-.05-2.27.14-2.56-.49l.39-.35s-1.42-1.45-1.09-.42l.35.39-.39.35c-1-2.09-1.58-1.58-3.54-3.13l-.39.35-.35-.38.39-.35-.7-.78c-1 .47-.29.36-1.13.32l-.38.35c-.23-.5-.45-1-.67-1.51-.62-.4-.15.41-.74 0l.39-.35-.35-.38-.39.35a16.4 16.4 0 0 1-5.34-4.32l-.77.7-.7-.77.39-.35c-.61-.43-.07.26-.74 0l-1.09-.42c-.1-.37-.21-.75-.32-1.12l-1.12.31-.31-1.12-.39.35-1.05-1.16c-.66-.33-.35.59-.74 0s.71-.45 0-.74l-1.86.28-.35-.39.39-.35-2.14-1.58-.39.35-.67-1.51-1.12.32-.32-1.13-.38.36-.7-.78c-.63-.21-.94.86-1.83-.45l.39-.36c-.72-.44-.89.08-1.48-.07-.43-.76.09-1.11-1-1.15l-.77.7-.67-1.51c-.29-.11-1.7.9-1.86.28l.77-.7a34.8 34.8 0 0 0-3.65-.92l-.32-1.12c-.34-.16-1.08.65-1.47-.07l.39-.35-.36-.39-2.28 1.37-.35-.39 1.16-1.05-.35-.39-1.51.67-1-1.16-.39.35c-1.59-.29-2.41.1-4-1.3l-.78.71-.7-.78-1.51.67-.35-.39-.77.71-.35-.39-.77.7c-.09-.93 0-.78-.71-.77l-.35-.39-.81 1.44-.35-.38c-1.58.22-2-.19-3.75 1.29-.24-.25-.47-.51-.71-.77l-2.38 2-1.09-.42-.81 1.43-.35-.38-1.16 1.05-.35-.38-5 3.08.31 1.13-.38.35-.32-1.12-2.7 2.45-.35-.38-.39.35a.85.85 0 0 1-.42 1.09l-.35-.39-2.27 2.14c-1.85.89-3.7 1.81-4.6 3.47l-.7-.77-.78.7.71.77-.39.35-1.09-.42-.81 1.44-.35-.38-.77.7-.35-.39-5 3.83-.7-.78-.39.36c.11.37.22.74.32 1.12l-1.51.67-.35-.39-2.32 2.11c-.06-.67.13-.82.07-1.48l-3 1.33.35.39-.77.7c-.06-.66.13-.81.07-1.47a5 5 0 0 0-1.89 1c-.94-.56-.25-.38-1.09-.43l-.35-.38-.81 1.44-1.09-.42.39-.35-.36-.39-1.15 1.05c-.94-.56-.25-.38-1.09-.42l-.35-.39-.42 1.09-.36-.38s-1.24 1.36-1.12.31c-.07-.11.77-.62 0-.74s-1.07.44-1.9 1c0-.83-.15-.16.42-1.09l-.35-.38-1.16 1.05-1.05-1.16-1.86.28-.7-.77c-.38-.09-.79.16-1.48-.07-1 .47-.28.36-1.12.32l.77-.71-.7-.77c-1 .47-.29.36-1.13.32l-.38.35c-.35-.39-.7-.78-1.06-1.16l-1.54 1.4-.35-.38.77-.71-.7-.77s-1.26 1.37-1.13.32c-.33-.58.71-.42 0-.74-.3-.14-.56.44-1.09-.42l.39-.35-.35-.39-1.13.32-.7-.78-.38.36-.71-.78-.38.35c-.4-.62.38-.08 0-.73l-.35-.39-.39.35-1-1.16-.38.35c-.36-.38-.71-.77-1.06-1.16l-.38.36-.36-.39.39-.35-1.79-1.2-.39.36-.66-1.51c-1.41-.82-1.85-.46-3.58-2.39-1 .32-.13.57-1.13.31l.78-.7c-.68-.75-1.3.07-1.48-.07-.83-.64.61-.61.07-1.47a16.92 16.92 0 0 1-6.77-5.13l-1.16 1.05-.35-.39 1.16-1c-1.67-.86-1.75-1.86-3.66-.91l-.35-.39 1.16-1.05c-2-.86-2.22-.89-4.28-3.16l-.77.7-.35-.39.42-1.08-.35-.39-.39.35-1.03-1.16-1.13.32-1.4-1.55-.39.35-1-1.89s-1.3 1.36-1.12.31c-.23-.35.74-.5 0-.74l-1.13.32-2.1-2.32-1.13.32-1.44-.81-.77.7-.35-.38.77-.71c-.88-.46-1.38 0-2.21-.1l-.32-1.12c-1.23-.12-.37 1.13-2.21-.11l-1.07 1.05c-.06-.66.13-.81.07-1.47l-.77.7-1.44-.81-1.12.32c.12.13.23.26.35.38l-.39.35-.35-.38.39-.35-1.44-.81-1.16 1.05s-1.42-1.45-1.09-.42l.35.39-.38.35-.32-1.12-2.63 1-.7-.77a11.77 11.77 0 0 1-1.2 1.79l-.7-.78c-2.07 1.49-4.31 2.13-5.37 4.18-.24-.26-.47-.52-.71-.77l-5.39 3.42.35.38-.78.71.36.38-.39.35c-.11-.37-.21-.75-.32-1.12a11.53 11.53 0 0 1-1.89 1 1.5 1.5 0 0 1-.81 1.44l-.35-.39-2.71 2.46.36.38-.39.35-.35-.38-1.9 1 .35.38c-1.56 2-2.73.59-2.74 3.2 0 0-1.55 1.31-1.12.31l.39-.35-.35-.38c-2.47 2.15-6.47 5-6.61 6.7 0 0-1.55 1.31-1.12.32l.39-.35-.36-.39-1.19 1.79.35.39c-.33.34-1.81.49-2.63 1l.7.77-.39.35-.7-.77a8.92 8.92 0 0 1-3.47 3.16l-.36-.39-.8 1.44-.35-.38-1.51.66.35.39-1.94 1.75-.31-1.12c-2.6 2.19-4.69 2.5-7.23 4.46l-.71-.77a6.59 6.59 0 0 0-1.58 2.14l-.35-.39-.38.35-.36-.38 1.16-1.06c-1 0-3.13 1.45-4.18 2.39a2.1 2.1 0 0 1 .08-1.48l-.36-.38-1.19 1.79c.27-2.15-2.35.08-3.34.21-.1-.38-.21-.75-.31-1.13l-1.55 1.41c-.23-.26-.46-.52-.7-.77l-.39.35c-1.42-.18-1 .46-2.56-.49l-.77.7-.7-.78-.78.71a5.21 5.21 0 0 0-2.91-.88l-.39.35-1.44-.81-.77.7-.31-1.12-.39.35-.35-.39-.77.71-1.41-1.55c-1 .47-.28.36-1.12.32l-.39.35-.66-1.51c-1 .47-.29.35-1.13.31l-.38.36-1.06-1.16-.77.7c-2.09-1.85-3.46-1.68-5.37-3.58l-1.16 1c-.2-1.15.56-.19.42-1.09l-.35-.39c-1.28.52-.92-.17-2.18-.84-.65-.35-.12.38-.73 0l.38-.36-.35-.38-1.12.31c-.83-.3.51-1-1.05-1.15l-.78.7c-.26-.05-.15-1.46-1-1.9l-.38.35-.7-.77-1.13.32-.66-1.51-.39.35-.7-.78-.39.36c-.22-.51-.44-1-.67-1.51l-.38.35-1.44-.77c0-1.17.62.06.42-1.09l-.77.7c-1.86-1.92-4.83-4.45-4.92-5.41-.66-1.31-.7-1 .11-2.21-.93-.56-.25-.38-1.09-.42l-.35-.39a1.78 1.78 0 0 0 1.54-1.4l-.1-5.55.77-.7-1.05-1.16c1-1.53 1.27-6.5.39-8.11.56-.93.38-.25.42-1.09l.39-.35-1.41-1.54.39-.35-1-1.9.39-.35c-.24-.26-.47-.52-.71-.77.14-.37.29-.73.43-1.09l-.36-.39-.38.35-1.39-2.28-.77.7-.7-.77-.78.7-.7-.77a11.28 11.28 0 0 1-3 2.07l-.36-.39-.8 1.44-.35-.38-.78.7-1.09-.42-1.93 1.75-.35-.38-1.16 1.05-.35-.39-.42 1.09-.7-.77-1.93 1.75c-.66.34-.12-.43-.74 0l.35.38-.39.36-.35-.39-1.16 1.05-.35-.38c-1.41.49-1.32.75-1.93 1.75l-.7-.77-1.19 1.79-.36-.39c-.25.24-.51.47-.77.7l-.35-.38-3.05 2.07-.36-.39-1.15 1.06-.36-.39-1.54 1.4-1.09-.42-1.24 1.03-.35-.39-.81 1.44c-.23-.26-.46-.52-.7-.77l-1.54 1.4-.35-.39-.39.35.35.39-1.16 1.05c.05-.83-.15-.16.42-1.08l-.35-.39-1.54 1.4-.35-.38-.78.7-.35-.39-1.54 1.41-.35-.39-.78.7-.35-.38-1.08 1.05c-2.18.8-4.12.9-6.42 3l-.7-.77c-2 1.65-2.43 1.19-4.15 1.64l-.77.71-.35-.39-1.16 1-1.09-.42-1.54 1.41a7 7 0 0 1-3.69-.18l-.39.35 1.06 1.16c-1 .83-1.46.66-1.9 1-.1.28.35.89-.81 1.44l-.35-.39-.77.7-.35-.38-1.2 1.79-.42-.3-1.51.67-.35-.39c-.55.29-.26 2.08-1.23 2.53l-.35-.39-1.1.32c.28 1.47-.29.72-.46 1.82l.35.39.39-.35c.37.63-.35.07 0 .74l2.11 2.31-.39.36.32 1.12-.77.7c1.15 0 4.36 4 5.68 4.71l.39-.35c.58.64 1.17 1.28 1.75 1.93l.39-.35.67 1.51.38-.35c.24.25.47.51.71.77l.38-.35c.22.5.45 1 .67 1.51l.38-.35c.36.38.71.77 1.06 1.15l.38-.35c1 .64.51 1.56 1 1.9l.39-.35.7.77.39-.35.35.39-.39.35 2.14 1.58.39-.35.31 1.12c.59.45.38-.61.74 0l-.38.35a10.86 10.86 0 0 0 3.93 2.77l.66 1.51.39-.35 2.14 1.58-.38.35 2.17.85-.77.7c.83 0 .15.17 1.12-.32.76 1 .87 1.8 2.46 2.71l.39-.36 1.75 1.94.39-.36.35.39-.39.35c.61.43.11-.35.74 0l1.4 1.54.39-.35.7.77.39-.35c1.14.64.92 1.92 1.37 2.29l.38-.36c.11.38.22.75.32 1.13l.39-.35 1.05 1.16.39-.35c.5.49 0 1.14 1 1.89l.39-.35.35.39-.38.35c.75 1 1.43.81 1.43.81.23.5.45 1 .67 1.51l.39-.36 1 1.16c.64.37.36-.6.74 0l-.39.35c.61.42.11-.35.74 0l1.4 1.55.44-.17 2.11 2.32.38-.35a.9.9 0 0 1 .32 1.12.9.9 0 0 0 1.09.42l1 1.9c.45.34.53-.67.74 0l-.39.35c1.28.83 1.7.49 2.92.88 2.18-1.87 4.87-3.46 5-4.56 1.31-.92 1.07-.88 2.25-.63l-.39.35c.6.76.53 0 1.13-.32-.47-1-.36-.28-.32-1.12s-.15-.16.42-1.09a4.1 4.1 0 0 0 1.83.46l.35.38.38-.35c-.79-1.35-.19-1.62-.28-1.86l-1.44-.81.78-.7c-1.33-.61-.52-.2-.67-1.51 0 0 1.48-1.31.42-1.09l-.77.71-.35-.39L70 428l-.7-.77c1.21.3 1.7-2.78 2.78-3.93l-.7-.78c1.74-2.71 1-6.2 2.63-8.74l-.7-.77.81-1.44-.36-.39c.45-1.68 1.16-1.9.18-3.68 1.47-2.13.47-3.18 1.72-5.1l-.7-.77c.56-.93.38-.25.42-1.09l.39-.35.31 1.13 1.55-1.41c.23 2.91-1 .67 1.33 3l1.16-1.05.35.39-.77.7 1 1.16.78-.71c.46 1 .35.29.31 1.13.91.8 1 .93 1.79 1.19l.39-.35.35.39-.39.35 1.44.81.39-.36.7.78.39-.35 2.84 2.35.39-.35.35.38.81-1.43.7.77-1.16 1.05c.68.14.75.46 1.47.07 0-.74-.42-.16 0-.74a6.25 6.25 0 0 1 .63 2.25l.39-.35.7.77 1.12-.31.35.38 1.16-1.05.35.39-.77.7.7.77.78-.7c.08 1.73 2.92 1.39 4.31 2.42l1.16-1.05.35.39-1.16 1.05c.84 0 .15.17 1.13-.32 1.25.79.89.8 2.21.11a3.46 3.46 0 0 0 2.53 1.23l.38-.35.71.77.42-1.09.35.39-.39.35 1.44.81.77-.71.71.78 4.46-.53.7.77a4.86 4.86 0 0 1 3-1.33l.7.77.42-1.08.7.77 1.94-1.76c0 .83.15.16-.43 1.09a6.19 6.19 0 0 0 3.76-1.3l.7.78a34.33 34.33 0 0 1 4.92-2.36l-.35-.38.38-.35c.11.37.21.75.32 1.12l1.93-1.76.7.78c1-.8 1.5-.69 1.9-1l-.35-.39 1.54-1.4 1.09.42 2.32-2.11.35.39 1.16-1.05.35.38 7.69-6.28.35.39 3.06-2.07a1.42 1.42 0 0 1 .81-1.44l.35.38.38-.35.42-1.09.36.39 1.15-1.05-.35-.39 1.51-.67 1.93-1.75-.35-.39c.54-.71 1-.25 1.13-.31l2.35-2.85c0 .83.15.16-.42 1.09l.35.39c1.39-.26 2.78-3.46 2.77-3.93l.39-.36.32 1.13a10.92 10.92 0 0 0 2.77-3.93l.7.77c1-1.44 1.61-2.91 3.44-2.42 0 0 1.46-1.42.43-1.09l-.39.35-.35-.39 1.51-.66.35.38 1.93-1.75.35.38 1.93-1.75 1.09.42.81-1.44.7.77c2-1 1.7.18 3.76-1.29l.7.77L190 376c1.36.86 1.16.83 2.6-.24-.05.83.15.16-.42 1.09.8.13 1.22-.37 1.86-.28 1.16.15-.08.51 1.09.42.17.11.55.75.73 0l-.7-.77.39-.35a5.48 5.48 0 0 0 2.1 2.32 4.36 4.36 0 0 1 3-.6l-.77.7.7.78.77-.71c.22.51.45 1 .67 1.51l.81-1.44.35.39.38-.35a4 4 0 0 1-.45 1.83l.35.38.38-.35.35.39.81-1.44.35.38-.8 1.44.7.78 1.16-1.06.35.39.38-.35.35.38-.77.71c1.27 1 3 2.44 4.32 2.42l.35.39.42-1.09c.15 1.05.26.75-.45 1.82 1 .25.72.33 1.86-.28 0 .83.15.16-.42 1.09l.35.39 1.16-1.05c.06.71-.53 1.36-.46 1.82l1.09.42.38-.35.35.39-.38.35 1.79 1.19.77-.7c.71-.2 0 .74 0 .74.61.7.91-.24 1.51-.67l.35.39-1.2 1.79c.9.25 1.35 0 2.21.1l-.38.35.35.39s-1.4 1.54-.42 1.09l.77-.7c.11.37.21.75.32 1.12l.38-.35s1.42 1.45 1.09.42l-.35-.38.39-.36a4.23 4.23 0 0 1 .28 1.87l.35.38 1.54-1.4.35.38-1.16 1.06.36.38-.39.35 1.44.81c1.14-.58.82-.55 1.86-.28l-1.12.32.31 1.12s.88-.43 1.09.42l-.39.35.36.39c.71-.22.42-1.09.42-1.09.95-.84 1-.45 1.86-.28l-1.51.67.66 1.51 1.16-1.06.35.39-.77.7c.47 1 .36.29.32 1.13l.35.38 1.54-1.4a3.89 3.89 0 0 1-.45 1.82l.35.39 1.16-1.05.35.38-.77.71.7.77c1.14-.58.82-.55 1.86-.28l-.39.35-.35-.39-.77.7a4.44 4.44 0 0 0 1.47.08l.35.38-.38.35.35.39.39-.35c1.83 1.08 1.24 2 3.22 2l.36.39.42-1.09.7.77-1.16 1.05a5.35 5.35 0 0 0 1.48.07l.7.78.38-.35c.11.37.21.74.32 1.12l.39-.35c1.33.58 2.62 1.7 4 2l2.6-.25.67 1.51.38-.35.71.77.38-.35c1.48.75.33.49 1.51-.67 0 .83.16.17-.42 1.09.83 0 .15.17 1.12-.31.24.25.47.51.71.77l.38-.35c-.37-.41-.24-.94.42-1.09l.36.39-.78.7c1.25.78.89.79 2.22.1l.7.78c1-.49.32-.33 1.12-.32l-.39.35.36.39 2.28-1.37.31 1.12.39-.35.35.39 1.16-1.06 1.05 1.16c.56-.93.38-.24.42-1.08l.78-.71c0 .7.29 1.24 1.05 1.16l.77-.7.35.39.78-.71.35.39 1.54-1.4c.11.37.21.75.32 1.12l1.16-1.05.35.38 1.16-1.05.35.39.77-.71.35.39 1.55-1.4.35.38 2.67-1.72.35.39 3.86-3.51c.11.37.21.75.32 1.12.64-.77 3.19-3.74 5-4.56l.35.39 4.18-2.39a1.35 1.35 0 0 1 .81-1.44l.35.39 1.16-1.06.35.39c.54-.45 0-1.23 1.19-1.79l.35.38 1.16-1.05.35.39c.57-.47-.44-.17 0-.74l2.7-2.46.35.39 2.32-2.11.35.39.77-.7.36.38 2.31-2.1.35.38.78-.7.35.39.81-1.44c-.51 1.78 2.48.29 3.33-.21l.7.77 1.16-1.05-.35-.39.39-.35.35.39-.39.35 1.44.81 1.51-.67.35.39.77-.71c.11.38.22.75.32 1.13l1.16-1.06s1.42 1.46 1.09.43l-.35-.39.38-.35.35.38-.38.36s1.42 1.45 1.09.42l-.35-.39.38-.35.35.39-.38.35 1.44.81a2.87 2.87 0 0 1 2.24-.64l-.77.71.7.77c.56-.93.38-.25.42-1.09l.39-.35.32 1.12.77-.7c-.05.83.15.16-.42 1.09 2 .52.53-.82 2.95.14l-1.13.32 1.44.8.39-.35.7.77.39-.35c.1.38.21.75.31 1.13l.78-.7 1.05 1.15 1.54-1.4.35.39-1.15 1.05 1.05 1.16a6.3 6.3 0 0 0 2.28-1.37l.35.39-1.54 1.4a4.63 4.63 0 0 0 1.47.07l2.85 2.35.38-.35.7.78.39-.36 1 1.16.39-.35c.47.52.94 1 1.4 1.55.21.06 1.2-.41 1.86-.28l-.77.7 1 1.16.39-.35c.22.18 1.23 1.8 1.44.8l-.35-.38.39-.35c.58 1.52 1.55 2.82 3.19 2.74l.35.38.81-1.44c.16 1.17.21 1-.84 2.18 1 .25.72.33 1.86-.28a2.13 2.13 0 0 1-.07 1.47c.7.29 1.12 0 1.47.07l.35.39-.38.35c1.15.95 1 .7 2.21.11l.35.38-.77.71c1.1.49.62.05 1.05 1.16l.39-.36.35.39.8-1.44a6.85 6.85 0 0 1-.07 1.48c.65 1.72 4.95 2.51 5.38 3.58l-.39.35.35.39 1.16-1.06c.94 2.11.44.49 1.75 1.93l-.38.35.35.39 1.51-.67c.94.38.72 1.86 1 1.9l1.89-1 .35.39-.77.7c.83.7 1 1.15 1.79 1.2l.77-.71.32 1.13.39-.35 1.05 1.15.77-.7c.35.39.7.78 1.06 1.16l.42-1.09 1 1.9 1.13-.32.7.78.39-.35.7.77.38-.35 1.44.8c1-.46.29-.35 1.13-.31l.38-.35c.36.38.71.77 1.06 1.16l.86-.59c.25-.08.75.59 1.47.08l-.35-.39.39-.35 1.05 1.16c2.67-1.47 4.68-.77 7.55-3.34l.7.78c1.12-1.19 2.89-3.6 5-4.57l.35.39 1.93-1.76.35.39a7.92 7.92 0 0 0 2.74-3.2l-.35-.38 1.97-1.81-.35-.38.39-.35.35.38 2.31-2.1.35.38.39-.35-.35-.39.81-1.43-.32-1.13 1.55-1.4-1.09-.42 1.16-1.06-.35-.38 1.19-1.79-.35-.39 1.12-.32c-.09-.62-.18-1.24-.28-1.86l.78-.7-.32-1.12 1.51-.67-.35-.39 1.16-1-.35-.38-1.16 1-.35-.39 2-2.49-1.08-.42 3-1.34-.36-.38.78-.7-.35-.39-1.55 1.4-.35-.38 2.32-2.11c.34 0 .47.72.73 0l-.7-.78a4.71 4.71 0 0 0 1.9-1c.47 1 .35.28.31 1.12l.36.39 1.51-.67-.36-.39.39-.35c.2.7-.13 1.14-.07 1.48.65.47.92.32 1.79 1.19l.77-.7c-.26 1.74 1.77 1 3 .14l.35.39-1.16 1.05a6.19 6.19 0 0 1 2.15 1.58 5.07 5.07 0 0 0 1.89-1l.35.39-1.16 1.05a27.85 27.85 0 0 0 7.17 4.78l.31 1.12.39-.35 1.4 1.55-.38.35a1.64 1.64 0 0 0 1.4.11c.22.5.45 1 .67 1.51l.77-.71c.44 1-.55.37-.42 1.09l.35.39.39-.35 1.75 1.93.39-.35.66 1.51.39-.35.67 1.51c.25-.24.51-.47.77-.7.49 1.39.15.5 1.44.8l-.77.71c1.58 1 1.15.27 2.56.49l-.77.7.66 1.51 1.13-.32c.32.42-.06 1.54 1 1.9l.38-.35s1.42 1.45 1.09.42l-.35-.39.39-.35.7.78-1.16 1.05c.83 0 .14.17 1.12-.32l1 1.9 1.12-.32c.52.68-.22 1-.07 1.48.64.57 1.39 0 1.48.07l.66 1.51.39-.35 1.76 1.93.38-.35 1.06 1.16.38-.35c.22.5.45 1 .67 1.51l.38-.36.71.78.38-.35.32 1.12.39-.35 3.54 3.12 1.12-.31c.23.5.45 1 .67 1.51l1.12-.32 2.85 2.36.77-.71c2.72 2.35 5.34 1.56 8 3.34l.77-.7.71.77a4.25 4.25 0 0 1 2.24-.63l.35.39.78-.71 1.08.43 2.68-1.68.35.38 1.55-1.4.35.38 1.16-1.05.35.39.81-1.44c.12.13.23.26.35.38l2.32-2.1c.14-.08.57.41 1.12-.32l-.35-.38.77-.71.35.39.39-.35-.35-.39a1.05 1.05 0 0 1 1.12-.31l1.58-2.14c.94.56.25.38 1.09.42l-.7-.78 5-3.82-.36-.39 2.71-2.45-.35-.39-1.16 1.05-.35-.38 2.28-1.37-.33-1.22 2.29-1.37c-.83 0-.15-.16-1.13.32l-.35-.39 1.9-1-.32-1.13 1.16-1-.35-.39c.94-1.77 1.91-1.87 3.48-3.16-.23-.5-.45-1-.67-1.51l1.16-1.05 1.09.42c1.29-.69.32-1.62.45-1.82l1.9-1-.7-.77 2.32-2.11.31 1.12c1.34-1.43 1.3-2.17 3.09-2.8l.35.38.42-1.09 1.09.42 3.06-2.07c0 .83.15.17-.42 1.09l.35.39 2.28-1.37 1.83.46 1.15-1.06.71.78c2.82-1.45 6 .29 8.88-.32l.7.77 1.16-1.05 1.79 1.2 1.16-1.06.32 1.13.38-.36 1.44.81c2-1 1.49.08 3.34-.21l.7.78.77-.71c1.43.93 2.16.6 3.62 1.65l.77-.7c2.51 1.61 4.81.41 7.27 2.57 2-1.05 2.22.12 4 .56l1.12-.32.7.78 1.51-.67c.23 1.13 1.83 1.65 3.23 2l1.13-.31 1.79 1.19 1.12-.32.7.78 1.12-.32c.24.26.47.52.71.77l1.12-.31.7.77.39-.35 1.44.81s1.28-1.37 1.12-.32l-.38.35.35.39 1.12-.32 1 1.16 1.86-.28.71.77 1.12-.31c.11.37.21.75.32 1.12l.38-.35a4.17 4.17 0 0 1 2.18.84l.77-.7.32 1.13 1.86-.29.7.78.42-1.09c.11.37.21.75.32 1.12l1.44.81.38-.35.71.77 1.12-.31.7.77 1.12-.32 1.06 1.16.38-.35 1.44.81c.95-.52.37-.3 1.13-.32l-.39.35.35.39 1.55-1.4.35.38-.77.7c1.41.91 2.64.86 4 1.3l.7.78 1.12-.32.71.77 1.86-.28.35.39-.39.35.7.77 1.16-1.05.35.39-.38.35.35.38.38-.35 1.09.42.39-.35c.1.38.21.75.31 1.13l1.87-.28.7.77.38-.35c1.65.46.27 1 2.22.1l.66 1.51.78-.7c.23.26.46.52.7.77l.77-.7c.22.51.44 1 .67 1.51l1.51-.66.31 1.12 1.2-1.79.35.38c0 .64-1.4 1.15-.46 1.83a1.24 1.24 0 0 1 1.09.42l.77-.7 2.14 1.58.78-.7 1 1.16c1-.47.28-.36 1.12-.32l.39-.35c.2 1.37 1.21 1 2.49 2l.77-.7a4.09 4.09 0 0 0 2.53 1.22l.39-.35 1 1.16 1.12-.31 1.8 1.19 1.12-.31 1.79 1.19 1.12-.32 1.44.81.39-.35 1.79 1.19 1.12-.31 1.44.81.39-.35 1 1.15 1.13-.31.7.77 1.35-.4.7.77 1.13-.32.7.77 1.12-.31.7.77.39-.35.7.77.39-.35.7.77.39-.35.7.78.39-.35a6.65 6.65 0 0 1 3.26 1.26l.77-.7 1.06 1.16 1.16-1.06c0 .83.15.16-.43 1.09l1.83.46.39-.35.7.77 1.12-.32 1.79 1.2 1.13-.32.7.78.38-.36 1.44.81.78-.7 2.14 1.58 1.86-.28 1.79 1.19 1.12-.31.7.77 1.13-.31.7.77 1.12-.32c.24.26.47.52.71.77l1.12-.31.7.77 1.86-.28a9.62 9.62 0 0 1 3.62 1.65l.77-.7 1.44.81.39-.35 1.44.8 1.12-.31.7.77 1.13-.31.7.77 1.12-.32.35.39.77-.7c.11.37.22.75.32 1.12l.39-.35a4.23 4.23 0 0 1 2.17.84l.78-.7a13.37 13.37 0 0 0 6.56 1.79l.35.39 1.55-1.41.35.39-1.15 1.07a6.78 6.78 0 0 0 2.6-.24l.7.77.77-.7c2.15 1.39 3.86.47 5.83 1.76l.77-.71 1.06 1.16 1.54-1.4c0 .83.16.16-.42 1.09 1.21.39 1.65 0 2.91.88 1.32-.66 1-.71 2.22.1l1.16-1-.36-.39.39-.35c.93 3-.46.53 2.11 2.32.56-.93.38-.25.42-1.09 1-.12-.1.1.7.77.63-.34 1.26-.68 1.9-1l.35.38-1.16 1 .35.39 3-2.07a3.84 3.84 0 0 1-.45 1.83l.35.38.81-1.44.7.77c.27-.13.92-1.29 1.12-.31l-.38.35c.71.18 0 .07.73 0l.35.38 1.16-1.05c-.23-.26-.46-.52-.7-.77l-.77.7-.35-.39.77-.7 1.44.81.77-.7.35.38-1.93 1.76.35.38 2.67-1.72-.35-.38.77-.7-.35-.39zm-733.6-51.34s.21.32-.43 1.09l-.7-.77a7.2 7.2 0 0 1 2.71-2.46l.35.39zm6.67-.42l-.39.35-3.23-2L49 380l-.35-.39 3-1.33c.06.93-.61 1.28-.11 2.21l.39-.35.35.39c-.26.23-.52.46-.77.7zm3.36 22.33L56 404l.35.39.39-.35.35.38-.77.7zm1.06 1.16c1-.47.28-.35 1.12-.32l-.39.36.36.38-.39.35zm3.89 3.49l-.38.35c-.22-.5-.45-1-.67-1.51l-.39.35-1.4-1.54.39-.35.7.77c1-.47.28-.35 1.12-.31l.39-.36c.22.51.44 1 .67 1.51-.56.96-.39.27-.43 1.09zm11.17 6.08c1-.47.28-.36 1.12-.32-.98.49-.28.38-1.12.34zm.56-4c1-.47.28-.35 1.12-.31-.98.44-.28.33-1.12.29zm1-6.6c1-.47.29-.35 1.13-.31-.93.44-.24.33-1.08.29zm4.47-31.56c-1 .47-.28.35-1.12.31 1.03-.49.36-.37 1.17-.33zm-.34 8.08c-1 .47-.28.35-1.12.31.98-.46.28-.31 1.12-.31zM79 402.14c-.24-.25-.47-.51-.7-.77.83.05.16-.15 1.08.42zm2.25-8.39l-.35-.38c.56-.94.38-.25.42-1.09l.38-.35c.84.33-.16 1.37-.45 1.82zm3.37 6.82c1-.47.28-.36 1.12-.32-.98.47-.28.36-1.12.32zm2.17.84c1-.47.29-.36 1.13-.32-.99.47-.29.36-1.13.32zm3 7.16l-1.06-1.16.78-.7c.46 1 .35.29.31 1.12l.35.39zm1.93-9.51c1-.47.28-.36 1.12-.32-.99.47-.29.36-1.13.32zm2.07 10.81c.19 0 1.42-.56 1.47.07-.01 0-.07.17-1.48-.07zm.6-4.77l1.15-1.1.35.39c-.38.98-1.17.7-1.51.71zm5.82 1.75l.36.39c-.38.94-1.17.66-1.51.67zm-2.35-4.91l.39-.35.7.77-.38.35zm.7 8.53c1-.47.29-.36 1.13-.32-1 .47-.3.36-1.14.32zm1 1.9c1-.47.29-.36 1.13-.32-.98.47-.28.36-1.12.32zM185 372.85c.19 0 1.42-.56 1.47.07-.03 0-.09.17-1.47-.07zm18.58-2.85l-.7-.77.38-.35.71.77zm3.4 6.08c1-.47.29-.36 1.13-.32-.98.51-.29.4-1.11.36zm8.61 5.58c1-.47.28-.35 1.12-.31-.98.51-.28.39-1.12.35zm1.47.07c1-.47.28-.35 1.12-.31-.98.51-.28.39-1.12.35zm6 5.83l1.16-1.05.35.39c-.37.98-1.17.7-1.51.7zm2.18.85c1-.47.28-.36 1.12-.32-.98.51-.28.4-1.12.36zm0 7c1-.47.29-.36 1.13-.32-.96.53-.26.42-1.1.38zm.5-10.32c1-.47.28-.36 1.12-.32-.95.53-.25.42-1.09.38zm4.38 8.7c1-.46.29-.35 1.13-.31-.95.52-.25.41-1.1.37zm6.78 5.13l1.16-1.05.35.39c-.35 1-1.14.74-1.48.74zm2.35-2.84c-.6-1.54-.45-.38.81-1.44l.35.39zm.91 4.11c1-.47.29-.36 1.13-.32-.95.53-.29.42-1.1.38zm5.13 8.74c1-.47.28-.36 1.12-.32-.95.53-.25.39-1.09.39zm3.51-3.9c1-.46.28-.35 1.12-.31-.92.53-.25.41-1.09.37zm.88 4.85c1-.47.28-.36 1.12-.32-.95.53-.25.44-1.09.38zm1 1.16c1-.47.28-.36 1.12-.32-.9.53-.2.42-1.04.38zm4.67-5c1-.47.29-.36 1.13-.32-.91.58-.21.47-1.05.43zm65.24-27.55c1-.47.29-.36 1.13-.32-.9.58-.21.47-1.05.43zm2.6-.25l1.16-1.05.35.39c-.29 1.05-1.09.77-1.43.77zm1.09 8.19c1-.47.28-.36 1.12-.32-.9.58-.2.47-1.04.43zm14.79 1.57c1-.47.28-.36 1.12-.32-.98.45-.28.32-1.12.32zm9.09 3c-1 .47-.28.35-1.12.31.96-.46.28-.31 1.12-.31zm-.31 6.64l-1.06-1.16.39-.35 1.05 1.15zm4.63 3.54c1-.47.28-.35 1.12-.31-.98.46-.28.35-1.12.31zm.32-6.63l-.32-1.13.77-.7.36.39zm6.14 10.64c1-.47.28-.36 1.12-.32-.98.47-.28.36-1.12.32zm6-1.2l1.16-1.05.35.39c-.45.94-1.2.67-1.54.67zm5.44 2.11l-.7-.77c.83 0 .16-.15 1.09.42zm1.09.42c1-.47.28-.35 1.12-.31-1.01.47-.31.35-1.15.31zm36.76-3.78l1.16-1.05.35.38c-.4.93-1.2.66-1.54.67zm1.47 7.83l-.38.35-.32-1.12 1.16-1.06.35.39-1.16 1.05zm2.5-13.55l-.35-.39 1.54-1.4.36.38zm3.2-5c-1 .46-.29.35-1.13.31.95-.49.26-.33 1.1-.33zm-.95 12.14c1-.46.28-.35 1.12-.31-1.01.45-.31.33-1.15.29zm3.23-21.27c1-.47.28-.36 1.12-.32-1.01.43-.31.34-1.15.3zm17.24 2.67c1-.47.28-.36 1.12-.32-1.04.45-.31.34-1.15.3zm11 1.27c1-.47.29-.36 1.13-.32-.99.49-.3.34-1.14.3zm19.9 24.17c1-.47.28-.36 1.12-.32-.94.51-.28.4-1.12.32zm11.79 8.32l-.7-.77.39-.35.7.77zm3.23 2l-.7-.77.39-.35.7.77zm33.78-10.95l-.7-.77.39-.35c.23.26.46.52.7.77zM763 432.27c1-.47.29-.36 1.13-.32-.99.47-.3.36-1.13.32zm1.62-2.88c1-.47.28-.36 1.12-.32-.99.47-.29.36-1.13.32zm3.4 6.08c1-.47.29-.36 1.13-.32-.99.47-.3.36-1.15.32zm9.41-3.62l.36.39-1.55 1.4-.35-.38zm-7.83 1.47c1-.46.29-.35 1.13-.31-.99.47-.3.35-1.14.31zm.95 3.38c1-.47.29-.36 1.13-.32-1 .47-.3.35-1.14.32zm.11-2.22c.19 0 1.42-.56 1.47.07-.01 0-.07.17-1.48-.07zm1.16-1.05c1-.47.28-.36 1.12-.32-.94.47-.29.36-1.13.32zm1 2.63l-.35-.38 1.93-1.76-.35-.38 1.54-1.41.35.39-1.54 1.4.32 1.13-.39.35-.33-.4zm-641.47-31.41l-.35-.39-.77.7.35.39zm32.8-21.34l-.78.7.36.39.77-.71zm10 .1c.83 0 .14.17 1.12-.31l-.35-.39zm249.25 3.43l-.77.7c.12.13.23.26.35.38l.77-.7zm-1.23 2.52l1.16-1.05-.35-.39-1.19 1.08zm-9.76 18.75l.35.39 1.54-1.41-.35-.38-1.12.31c-.08.83.17.16-.45 1.09zm109.76-8.05c.11.13.23.26.35.38l.77-.7-.35-.38zm257.57 30.42l.35.39.38-.35-.7-.78-.77.71.35.38zm1 1.9l.77-.7c-.94-.56-.25-.38-1.09-.43l-.35-.38-.77.7zm1.22-2.53l-.35-.39-.77.71.35.38zm-2.81 4.67l-1.93 1.76c.24.25.47.51.71.77.52-.72 1.05-1.43 1.58-2.14zm-2.38 3.58l.35.39 1.16-1.06-.35-.38zm3.86-3.51c-.18 1.12-.28.65-1.16 1.05l.35.39-1.16 1.05.35.39 2.71-2.46zm2.14 1.58l-.35-.39.77-.7-.35-.38-1.16 1.05s1.32 1.47 1.08.42zm-2.67 1.72c0 .83.16.16-.42 1.09l.35.39.39-.36.35.39.42-1.09-.32-1.12zm3.44-2.42l.71.77.38-.35c-.94-.56-.26-.38-1.1-.42zm1.13-.32l.35.39 1.16-1.05-.35-.39.38-.35-.35-.39-.77.7c-.09.84.14.17-.43 1.09zm-.81 1.44l-.77.7.35.39.38-.35.36.39.38-.36zm4.6-3.47l-.35-.39-.77.7c.82.04.13.17 1.11-.31zm-4.67 4.95l-.35-.39-.77.7c.82.04.13.17 1.11-.31zm1.51-.67c.83 0 .14.17 1.12-.32l-.35-.38zm2.32-2.11c.83 0 .14.17 1.12-.31l-.35-.39zm3.4-1.68l-.35-.39-1.16 1.06.35.38zm-6.6 6.7l.35.39.77-.7-.35-.39zm3.48-3.15l-.78.7c.94.56.25.38 1.09.42l-.35-.39.39-.35zm5.72-3.8l-.35-.38-1.16 1 .35.39zm-3.86 3.51c.83 0 .14.17 1.12-.31l-.35-.39zm2.25-.63l-.36-.38-.77.7c.82.03.12.17 1.12-.32zm1.58-2.14l.35.39-1.16 1.05.35.39 1.54-1.41s-1.4-1.46-1.09-.42zm-4.68 4.95l.36.39.38-.35.35.38.39-.35-.7-.77zm8.85-7.34l-1.54 1.41.35.39 1.55-1.41zm-2.38 3.59l-.35-.39-.78.7c.82.04.14.17 1.12-.31zm-1.94 1.75l-2.7 2.46.35.38 2.71-2.45zm4.57-2.74l1.54-1.4-.35-.39-1.54 1.41zm-2.35 2.85l-.35-.39-.78.7c.82.04.14.17 1.12-.31zm-2.32 2.1c.83 0 .14.17 1.12-.31l-.35-.39zm4.21-3.12c.83 0 .15.17 1.13-.32l-.35-.38zm-2.81 4.67l.35.38.78-.7-.35-.38zm4.92-2.35c-.26.23-.52.46-.77.7.83 0 .14.17 1.12-.32z" transform="translate(0 -356.36)" fill="{{colors[0]}}" fill-rule="evenodd"/></svg>