<svg data-name="图层 1" xmlns="http://www.w3.org/2000/svg" viewBox="0 0 612.9 725.7" preserveAspectRatio="none"><path fill="{{colors[0]}}" d="M0 0h612.9v695.77H0zm510.5 725.8c25.6 0 25.6-30 51.1-30H459.5c25.5 0 25.5 30 51 30zm-102.1 0c25.5 0 25.5-30 51.1-30H357.4c25.5 0 25.5 30 51 30zm-102.1 0c25.5 0 25.5-30 51.1-30H255.3c25.5 0 25.5 30 51 30zM0 725.8c25.5 0 25.5-30 51.1-30H0zm204.2 0c25.5 0 25.5-30 51.1-30H153.2c25.5 0 25.5 30 51 30z"/><path d="M561.6 695.8c25.5 0 25.5 30 51 30l.3-30zm-459.5 30c25.5 0 25.5-30 51.1-30H51.1c25.5 0 25.5 30 51 30z" fill="{{colors[0]}}"/></svg>