<svg data-name="图层 1" xmlns="http://www.w3.org/2000/svg" viewBox="0 0 733.7 733.7" preserveAspectRatio="none"><path d="M382.9 34.4l98.3-31.8a52 52 0 0 1 62.4 25.8l47 92a51.9 51.9 0 0 0 22.7 22.7l92.1 47a52.2 52.2 0 0 1 25.8 62.4l-31.9 98.3a53.3 53.3 0 0 0 0 32.1l31.9 98.4a52.1 52.1 0 0 1-25.8 62.3l-92.1 47a51.9 51.9 0 0 0-22.7 22.7l-47 92.1a52.2 52.2 0 0 1-62.4 25.8l-98.3-31.9a53.3 53.3 0 0 0-32.1 0l-98.3 31.9a52.2 52.2 0 0 1-62.4-25.8l-47-92.1a51.9 51.9 0 0 0-22.7-22.7l-92-47a52.1 52.1 0 0 1-25.9-62.3l31.9-98.4a51.8 51.8 0 0 0 0-32.1L2.5 252.5a52.2 52.2 0 0 1 25.9-62.4l92-47a51.9 51.9 0 0 0 22.7-22.7l47-92a52 52 0 0 1 62.4-25.8l98.3 31.8a51.8 51.8 0 0 0 32.1 0z" fill="{{colors[0]}}"/></svg>