<svg preserveAspectRatio="none" xmlns="http://www.w3.org/2000/svg" xmlns:xlink="http://www.w3.org/1999/xlink" width="152.8440358580902" height="240.79538390015955" version="1.1" viewBox="-1.0000168976141632 -1.0000029993180097 152.8440358580902 240.79538390015955"><defs><path fill-rule="nonzero" id="path-6" d="M144.57648,0.65211c1.79313,-1.4253 4.53583,-0.30204 5.66869,1.33305c0.56936,0.95573 0.7414,2.0969 0.47882,3.17778c-0.2785,1.14656 -0.94883,1.79315 -1.80779,2.49474l-2.61418,2.11598c-0.0816,0.07587 -0.3123,0.26123 -0.30312,0.24377c-0.06393,0.05115 -0.12931,0.10052 -0.19606,0.14803l-1.28285,1.07141c-1.58888,1.2837 -3.12898,2.59424 -4.66923,3.90478c-13.2446,11.24516 -25.8521,23.41026 -36.63708,37.04962c-1.34363,1.70339 -2.61152,3.38493 -3.90621,5.1153c-0.66863,0.9327 0.49747,-0.67804 -0.17108,0.25479c-0.14302,0.24176 -0.30981,0.46878 -0.49755,0.67791l-0.86614,1.23632l-1.72117,2.5104c-2.39462,3.56734 -4.65383,7.17719 -6.74493,10.94247c-1.90373,3.45416 -3.62446,7.00636 -5.15508,10.64161l-1.08279,2.66498c-0.02771,0.07449 -0.06001,0.16062 -0.08035,0.21484l-0.35586,0.88229l-0.45609,1.23921c-0.69432,1.96437 -1.37746,3.96664 -2.001,6.033c-1.25568,4.01612 -2.27454,8.10265 -3.05133,12.23853c-0.38628,2.0382 -0.69706,4.05416 -0.94816,6.13473c-0.04227,0.13516 -0.2189,1.21105 -0.02021,0.2107l-0.09846,0.6433l-0.14621,1.59929l-0.21883,2.89035c-0.10233,1.92858 -0.13517,3.85959 -0.09863,5.78924c4.2184,-3.52679 8.63896,-6.87265 13.55428,-9.31367c5.52589,-2.7752 11.47493,-4.61138 17.60379,-5.43313c5.50946,-0.75056 11.35464,-0.49326 16.65918,1.27382c5.79514,1.91067 10.83399,5.61633 14.38768,10.58094c3.93153,5.60922 6.28417,13.23677 5.74524,20.07113c-0.26865,3.96887 -1.45385,7.82088 -3.46226,11.25267c-2.17549,3.43744 -5.05507,6.37347 -8.44856,8.61434c-11.07814,7.45778 -26.09151,8.73397 -38.52097,4.01151c-6.3123,-2.41459 -12.13053,-6.07946 -16.475,-11.28136c-2.37937,-2.84798 -4.31848,-6.03668 -5.75279,-9.45978c-0.54199,-1.26027 -0.98176,-2.55552 -1.34831,-3.87367c-0.78635,0.76784 -1.56532,1.5441 -2.33604,2.32927c-5.85288,5.91758 -11.36337,12.1647 -16.50446,18.71123c-1.31305,1.66733 -2.61885,3.35993 -3.91724,5.07753l-0.96815,1.30712l-0.40635,0.56946l-0.26214,0.3635l-0.26206,0.36324l-0.41745,0.53156l-0.95727,1.34502c-2.38995,3.4431 -4.73104,6.91292 -7.01239,10.4471c-8.03785,12.64067 -15.17535,25.83026 -21.36044,39.47029l11.77561,-10.2476l15.10487,-13.14083c0.49251,-0.54604 1.12694,-0.94428 1.83251,-1.15025l1.09992,-0.15767c1.06646,-0.01698 2.09694,0.3885 2.86677,1.12814c0.81817,0.75885 1.2907,1.81934 1.30831,2.93536c0.02761,0.93402 -0.40657,2.2489 -1.12554,2.86864l-1.99071,1.72892l-16.2478,14.13052l-16.10796,14.04866l-4.08344,3.52865c-0.95001,0.81017 -1.86212,1.60929 -3.09056,1.88659c-1.19164,0.31967 -2.45998,0.17872 -3.55302,-0.39495c-1.10584,-0.57999 -1.93993,-1.57218 -2.3214,-2.76217c-0.34668,-1.04549 -0.3164,-2.20139 -0.35016,-3.29728l-0.09187,-2.55383l-0.11941,-5.16729c-0.1083,-6.80909 0.02065,-13.64634 0.31144,-20.49003c0.28708,-6.85646 0.81358,-13.68713 1.57941,-20.49227l0.03775,-0.01092c-0.04353,-0.70607 0.12082,-1.40925 0.4726,-2.02254l0.64183,-0.88387c0.76479,-0.78648 1.80897,-1.23908 2.90564,-1.25908c1.07727,-0.02566 2.12137,0.37574 2.90467,1.11695c0.673,0.6225 1.38286,1.93054 1.25953,2.90865c-0.38628,3.71764 -0.73496,7.42422 -0.99717,11.14633c-0.50836,6.56614 -0.79714,13.13636 -0.86673,19.71039c-0.01073,0.73303 -0.01964,1.46552 -0.02633,2.19735c0.81122,-1.77395 1.63809,-3.53883 2.47794,-5.28972c7.58249,-15.77521 16.39897,-30.96925 26.55974,-45.20426c9.00621,-12.6175 19.05984,-24.51162 30.50738,-34.98457c-0.81913,-7.81012 -0.30744,-15.72798 0.93177,-23.48397c1.48887,-8.77503 3.93264,-17.36002 7.28771,-25.60192c6.55934,-16.33625 16.55369,-30.44071 28.60672,-44.08218c12.0531,-13.64133 25.76201,-25.67785 39.94455,-37.0745zM76.4976,134.11257l0.25961,1.42901c0.32395,1.62166 0.76346,3.21806 1.31468,4.77694l0.41745,1.14775c0.14806,0.36639 0.80255,1.48584 0.13695,0.32862l0.93506,1.93857c0.71379,1.32792 1.53573,2.59463 2.45776,3.78726l0.31982,0.44735c0.00736,0.00824 0.01505,0.01688 0.02308,0.02591l0.61962,0.72002l1.49413,1.61127c0.98433,0.94367 2.50366,2.20721 3.24164,2.78095c0.03178,0.01915 0.07528,0.04627 0.13275,0.08295l0.36319,0.26242l0.97008,0.65856l1.78736,1.07497c1.29721,0.72305 2.63454,1.37148 4.00526,1.94213c0.08418,0.03742 0.15216,0.06715 0.20561,0.09021c-0.07729,-0.02999 -0.17804,-0.06735 -0.29207,-0.106l0.36631,0.13771c0.09427,0.03976 0.10573,0.04221 0.05958,0.0224l0.12585,0.04731c0.31892,0.11147 0.64909,0.26085 1.00591,0.36139l2.02743,0.63606c1.46474,0.391 2.99381,0.72213 4.50074,0.97797l1.11144,0.17101c0.14141,0.00224 0.28251,0.01424 0.42236,0.03601c0.75591,0.0658 1.51167,0.13161 2.25633,0.15951c1.50849,0.08752 3.02105,0.06962 4.52672,-0.05343c0.76043,-0.05843 1.55846,-0.12805 2.34568,-0.23518c0.12741,-0.00508 0.24798,-0.03351 0.37253,-0.04845l0.91558,-0.16436c1.48265,-0.27598 2.94554,-0.64895 4.37955,-1.11655c0.75391,-0.22044 1.49694,-0.47852 2.22886,-0.77464l0.77705,-0.31401c-0.00385,0.00287 -0.00638,0.0053 -0.00744,0.00723c0.00812,-0.00474 0.01626,-0.00944 0.02442,-0.0141l0.30382,-0.12278c0.52801,-0.22038 0.01162,-0.02922 -0.22463,0.07938c0.14079,-0.07409 0.28795,-0.13548 0.4399,-0.18335c1.39707,-0.69462 2.75736,-1.4615 4.075,-2.29733c0.6878,-0.44694 1.78861,-1.3012 1.99264,-1.44268c0.06452,-0.04474 0.14344,-0.11005 0.19889,-0.15775c-0.06329,0.05724 -0.17487,0.15932 -0.35427,0.32594l0.42389,-0.36968l1.00324,-0.90769c0.63606,-0.62934 1.23369,-1.29633 1.78928,-1.9978l0.21027,-0.27246c0.00725,-0.01231 0.01565,-0.0263 0.02529,-0.04208c0.2417,-0.30757 0.46135,-0.63185 0.65745,-0.9706c0.44136,-0.73002 0.8349,-1.48821 1.17795,-2.26956l0.19521,-0.40627c0.00225,-0.00696 0.00458,-0.01411 0.00697,-0.02145l0.32284,-0.99548c0.25111,-0.81438 0.46009,-1.64114 0.62621,-2.47711l0.09846,-0.64316c0.04535,-0.29645 0.00374,-0.38474 -0.03656,-0.34682c0.03947,-0.2543 0.10597,-0.52108 0.11111,-0.658c0.03213,-0.86966 0.01555,-1.76604 -0.03864,-2.65122l-0.067,-1.20934l-0.07906,-0.55025c-0.33039,-1.61982 -0.75695,-3.21871 -1.27707,-4.78786c-0.24443,-0.7036 -0.59003,-1.37763 -0.81346,-2.08739l-0.11879,-0.26179l-0.46438,-0.88822c-0.64228,-1.20618 -1.37657,-2.3609 -2.19651,-3.45403l-0.39161,-0.49984l0.20128,0.26874l-0.60859,-0.68225l-1.33045,-1.33134c-0.45609,-0.44009 -0.93876,-0.83162 -1.4215,-1.22289c-0.01588,-0.01004 -0.03168,-0.0202 -0.0474,-0.03047c0.12788,0.09289 0.18073,0.13215 -0.05002,-0.02309l-0.71534,-0.48721c-1.05943,-0.68633 -2.17727,-1.2779 -3.34041,-1.76775c-0.17834,-0.09773 -0.55573,-0.22672 -0.68952,-0.2709c0.07743,0.02466 0.25488,0.08035 0.58099,0.17983l-0.87073,-0.31902l-1.70844,-0.52459c-1.2026,-0.31375 -2.42193,-0.55894 -3.65215,-0.73463l-0.55633,-0.08304c-0.13211,-0.01785 -0.19258,-0.02745 -0.20495,-0.03136c-0.11327,-0.00743 -0.22671,-0.01212 -0.34019,-0.01405c-0.60593,-0.06422 -1.21519,-0.09134 -1.82422,-0.08107c-1.32801,-0.04817 -2.65757,-0.01513 -3.98143,0.09884c-0.68506,0.03646 -1.35902,0.11055 -2.07059,0.19583l-0.41183,0.06411c-0.20895,0.02328 -0.51984,0.06141 -0.65033,0.0825c-2.63166,0.48313 -5.22422,1.1588 -7.75676,2.02201c-1.25975,0.45023 -3.00313,1.20565 -3.73506,1.5015c-0.15466,0.06255 -0.22306,0.0889 -0.23676,0.09254c-0.03087,0.01402 -0.06133,0.0287 -0.09148,0.04447c-0.25777,0.11002 -0.50747,0.23781 -0.7474,0.38232c-0.61896,0.26295 -1.1781,0.59026 -1.78587,0.89072c-2.3764,1.30831 -4.65035,2.79468 -6.80237,4.44648l-2.49648,1.95884c-0.39161,0.28072 -0.7679,0.5821 -1.12739,0.90296c-0.20417,0.14148 -0.76775,0.59315 -0.03775,0.01092l-0.4991,0.39193c-1.47623,1.25589 -2.95227,2.5119 -4.41871,3.80105zM106.39449,117.66039l0.48858,-0.07605c0.29165,-0.03249 0.38469,-0.03604 -0.48858,0.07605zM126.38517,121.13721c-0.03083,-0.02547 -0.06125,-0.05145 -0.09125,-0.07794c0.00219,0.00749 0.0385,0.03745 0.09125,0.07794zM135.24843,141.89916c0.00512,0.0162 0.0108,0.03261 0.01706,0.04918c-0.00679,-0.01497 -0.01244,-0.03142 -0.01706,-0.04918zM103.94348,159.46637c-0.00896,-0.00027 -0.01493,-0.00011 -0.01727,0.00058c0.00576,-0.00021 0.01151,-0.0004 0.01727,-0.00058zM121.92294,118.83349c-0.07028,-0.02238 -0.05816,-0.01921 0,0zM135.26031,141.42859c-0.02792,0.1799 -0.04232,0.35356 -0.01189,0.47057c-0.07477,-0.23639 -0.03223,-0.42907 0.01189,-0.47057zM129.11409,152.82282c0.10759,-0.09731 0.07561,-0.06503 0,0zM122.40767,156.90393c-0.02663,0.01401 -0.05303,0.02848 -0.07919,0.0434l-0.01698,0.00686c0.01509,-0.01125 0.05037,-0.0292 0.09618,-0.05026zM95.31546,157.27156l-0.05958,-0.0224c-0.02067,-0.00872 -0.04533,-0.01923 -0.07423,-0.0317c0.06075,0.02357 0.10701,0.04259 0.13382,0.0541zM3.80903,230.92825l-0.00043,0.00018l-0.52151,0.43862c0.17428,-0.14577 0.34825,-0.29205 0.52194,-0.4388z"></path></defs><g><use xlink:href="#path-6" fill="{{colors[0]}}"></use><mask id="mask-7" x="-1" y="-1" maskUnits="userSpaceOnUse"><rect fill="#fff" width="100%" height="100%" x="-1" y="-1"></rect><use fill="#000" xlink:href="#path-6"></use></mask><use stroke-width="2" stroke-opacity="1" xlink:href="#path-6" stroke="{{colors[0]}}" fill="none" stroke-linejoin="round" mask="url(#mask-7)"></use></g></svg>