<svg data-name="图层 1" xmlns="http://www.w3.org/2000/svg" viewBox="0 0 800 800" preserveAspectRatio="none"><path d="M270 437.6c0-.7-.9-1.8-1.7-.9l.6 2.4zm-8.8.5c-.5 1.7-.8 4.2 1.1 5.5-.1-2.6.7-2 .5-5a1.4 1.4 0 0 1 2.4.4c0-.7 1.8-.5 1.5-2.1-2.2-.7-3.8.2-4.7 2.5-.7-.2-.6-.9-.8-1.3zm-93.6 61.1l.7-.2zm-42.9 56.2c-.1-.6-.4-.9-.6-.9s.4 1 .6.9zm3.5 14.7l-.4-.8c0 .4.1.7.4.8zm39.4-70.9l-1.9.6c.4.7 1.1-.1 1.9-.6zm83.7-48.2a2.4 2.4 0 0 0 .5-1.1l-.7.7zm-60.6 27.8l.5-.3a6.2 6.2 0 0 0-.2-1zm18.9-13.9c-.5.2.5 2 .8 2.8a1.9 1.9 0 0 1 .2-1.8 4.4 4.4 0 0 0-1-1zm32.9-17.7l.4-.6zM177 488.7l-.6-.4zm-16.2-232l-.2.3c.2-.1.4-.1.2-.3zm14.1 26.7l-.3-.2-.9.6zm-24.6 302zm29.1-138.7c.9 2.7-4.3-.3-2.6 3.3.2-.8 4.3-.7 2.6-3.3zm71.2 4.4l-.8.5zm-73.8-1.1l.2.4zm27 120.2l-.9-.4a1.5 1.5 0 0 0 .9.4zm-38.6 12.1l1 .2zm52.2-27.6c.5-.3.8-.2 1.1-.9h-.3c0 .4-.2.7-.8.9zm13.8-15.1h-.5l-.3.6zM95 248a5.6 5.6 0 0 1 1.5 1.4c-.7-1.2 2.3-2.6-1.5-1.4z" fill="{{colors[0]}}"/><path d="M250.7 450.1c.2.5.2.8 0 1l.5-.4a.9.9 0 0 0-.5-.6zm-43.8 93.1l2.3-2a16.6 16.6 0 0 0-2.3 2zM59.3 380.5l-.7-.4a.9.9 0 0 0 .7.4zm155.9 153.9a4.3 4.3 0 0 0 2.2-.4 1.7 1.7 0 0 0-.1-.6zm-118.7-285z" fill="{{colors[0]}}"/><path d="M119.3 241.8c-1.8-.1-2.2.5-2.2 1.4s.2 1.8-.1 2.6c-4 .8-1.9-1.9-3.4-3.1a12.1 12.1 0 0 0-3.4 2 5.8 5.8 0 0 1-2.8 1.5c-.2-.4-.6-.5-.2-1.1-1.2 1.2-3.1 1.6-5.1 2a17.3 17.3 0 0 0-2.8 1 5.5 5.5 0 0 0-2.2 1.9l-.6-.5a7.9 7.9 0 0 1 1.4 3.3c-1.4.4-2 2.3-3 .9.8-.2.7-.9.9-1.5l-1.2 1.2c-2.1-1.9 1.7-1.5 1.2-3.2a40.7 40.7 0 0 0-3.9 3 7.9 7.9 0 0 1-3.6 2c-1.4-2 4.7-2.8 1-3.6l3.7-.4c-3.9-2.6 2.2-.5-1.6-3.4a11 11 0 0 0-2.9 1l-1.9 1.2a15.8 15.8 0 0 1-4.6 2.5c-.4 1.7 1.2 1.6.9 3.2a5.3 5.3 0 0 1-3.2 2 6.7 6.7 0 0 1-2.7-.4 5.1 5.1 0 0 0-2.4-.4c-.8.1-1.4.7-2 2.1s.3 2.2.2 3.2-.6 2-2.5 2.5l-.8-2.8a3.6 3.6 0 0 0-1.7 3.7c0 1.1-.1 1.9-2.4 3.1a3.6 3.6 0 0 1 .8-2.1c.4-.6.8-1 .4-.9-1.9.4-2 1.1-1.9 1.9s.6 1.7-.2 2.6l-2.2-1.2c-3.1 4.2-4.7 9.7-6.8 14.6-.5-.6-.7-1.8-1.9-1-2.2 6.6-6.2 13-9.4 18.9l1.3 2.9c-.2.5-1.2.8-1.4.1-1.4 2.2 1.2.5 1.7 1.8s-1.6 1.5-2 .5a61.1 61.1 0 0 1 .4 8.8 28.8 28.8 0 0 1-.5 4.6 12 12 0 0 1-1.4 3.9l-.5-1c-.6 1.8.4 2.9 1.2 4s1.6 2 .6 3.7l-.4-.7c-.6 3.9-.1 8.2.3 12.1.1 1 .2 2 .3 2.9s.2 1.9.3 2.8a23.7 23.7 0 0 1-.2 5.4c1.6.2 1.9 2.2 2.3 4.1s1.3 3.7 3.2 3.1a45.9 45.9 0 0 1-.2 4.9c0 1.3.1 2.7 1.4 6 .4.8 1.3 1 2.3 1.2a5.4 5.4 0 0 1 2.9 1l-1.7 1.3 3.6.9-1 2.9 1.8 1.2c-.4-.7-.4-1.9.2-2.2a8.1 8.1 0 0 1 2.9 4c.6 1.5.8 3 .4 3.4 2.2 1.3 4.4 2.5 6.5 3.6-.7.6-1.8 0-2.9-.3 4.3.9-1 2.2 3 3 0-.7 1-.8 1.4-1.1.5 2.1 3.5 4.7 6.1 6l-1.4.8a54.1 54.1 0 0 0 6.5 4.8c2.4 1.5 4.8 3 7.1 4.7a1.8 1.8 0 0 1 2.2-2.8l-.8 2.2c1.7-.5-.9-1.7 1.9-1.8 1.6 1.5-.4 3-1.8 2.8l2.6.9c-.3.6-1 .6-1.6 1.2 1.7-.5 2.4 4.5 5 3.4l-.3.6c4.7 3.3 7.3 4.1 11.2 6.7 1.2-1.6 2.4-.2 4.5-.8 2.5 2.4 4.8 5.8 8.3 7.9s1.6-.9 3.3-1.2c-.8 1.6 2.7 3.7.2 3.6a53.8 53.8 0 0 0 11.5 5.2c-.2-1-.6-1.7 0-2s1.7 2 1.1 2.6h-.3c7.3 1.5 10.6 13 17.2 12.9h-.4l5.8 1.5c2 1.7-2 .2-1.1 2.2a13 13 0 0 1 7.1 3.4c1.8 1.5 3.3 3 5.9 3.6a5.8 5.8 0 0 0 1.9 4 20.1 20.1 0 0 0 4.1 3c3.1 1.8 6.4 3.7 7.5 6.6l.5-1.2c1.8-.2.9 1.5 1.5 2.4.5-.8-.5-1.8.6-1.8a54.4 54.4 0 0 1 13.1 11.4 166.3 166.3 0 0 1 10.9 13.9c1.2 1.5 2.7.9 4.1.6s2.7-.2 3.1 2.6l-2.7.3a19.3 19.3 0 0 1 7.1 8.9c.8 1.7 1.4 3.4 2 5s.7 1.7 1 2.4l1.1 2.3c-.6-.3-1.3-.2-1.3-.8a2.4 2.4 0 0 0-.2 2.6 2.7 2.7 0 0 0 1.7 1.6c-.3.7-1.2 0-2 .3s-.1.7.1 1.3.3 1.3-.6 1.1-.3-.5-.4-.7-.2 1.1-.5 1.8-.6 1.3.5 1.5c-2.2 1.4-3 4.9-5.5 6.1.5 2.7-4.4 3.3-2.4 5.8-2.2-2.3-5.6 2.3-5.9 4.7-.2-1.1-1.9.5-2.3-1-1.5 1.6-2.5 3.4-1.2 4.3-2.8 0-3.7 1.9-4.7 3.6s-1.9 3.1-4.2 1.9a48.9 48.9 0 0 1-13.1 12.5c-.6-1.5.8-2.2 2.1-3a5.9 5.9 0 0 0 1.6-1.3 1.4 1.4 0 0 0-.1-1.7c-1.9 1.8-3.3 3.7-4.9 5.2a11.2 11.2 0 0 1-6.1 3.2c-1.4 0 .3-1.5.6-2.2a18.5 18.5 0 0 1-7.1 2.5 32.9 32.9 0 0 0-6.9 1.7c0-.3.5-.6.9-.9s-2.1-.4-1.9 1l.9-.4c.8 1-.1 2.2-1.2 3.1s-2.6 1.8-2.7 2.3c.9-2-.3-2.3-1.3-2.8s-1.8-1.2-.4-3.6a1.9 1.9 0 0 0-1.4 1.7c-.8-.4-1-1 0-1.9l-1.8.4-1 .6-.9.4a3.6 3.6 0 0 1-1.5-.2c.2-.7.8-.8 1.3-1.5-1.6 1-3.6 1.8-5.6.3.3-.3.3-.9.9-.6-1.9-.7-3.8-.8-5.7-1.2a6.4 6.4 0 0 1-4.7-3.6c1.6-.5 1.5-.9 1.4-1.4a1.5 1.5 0 0 1 .6-2l-1.6-1.3-.8 1.3a3.9 3.9 0 0 0-.8-1.1l-1-1c-.5-.8-1.1-1.6-.8-2.5l.6.6.7.6a8.6 8.6 0 0 1-.6-1.7l-.2-.9v-.9l-.5 1.1-.3 1.1a2.4 2.4 0 0 0-2.2-.8c-.6 0-.9-.1-.5-1.7.2.3.1-.3.3-1.1a3.4 3.4 0 0 1 1.5-2.2 6.3 6.3 0 0 1-.7-2 3.1 3.1 0 0 1 .7-2.2c.9-.1 2.6 1.3 3.2 1.2a1.9 1.9 0 0 1-.5-1.5 5.7 5.7 0 0 1 .1-.9l.3-1c.4-1.3 1-2.6.3-3.9a2.9 2.9 0 0 0 1.7 1.4l-1-1.7c1.1-.6 1.4-.6 2.2.1 1-1.3.2-1.5-.5-1.7s-1.2-.5.5-1.7c-.1.3.2.4.1 1.1l1-1.1.9-1.2 1.6-2.4a13 13 0 0 1 3.7-4.2c2.6 1-1.8 2.8.7 3.4.8-1 1.5-2.2 2.3-3.3l2.3-3.6a22.8 22.8 0 0 1 5.5-6.3l-.9.5c-2-3.2 4.2-1.3 5-4.4-.3.6.7 2.1.6 1.7a16.8 16.8 0 0 0 4.1-4.1c1.3-1.7 2.6-3.8 4.4-6v1.2c2.2-.7 4.7-3.2 6.7-4.4-.1-1.2 1.1-1.9-.4-2.5 4.5-.1 6.7-2.8 8.8-5.5s4.1-5.4 8-5.5c-.6.5-1 1.7-.5 1.4l3.8-3.9c-1.3-1-1.2-.4-2.8-.7a4.8 4.8 0 0 1 1.9-3.5c-1.3 2.3 1.6 2.1 2.9 2.2-.4-.3-.5-1-.8-1.3 4 .7-1.5-2.9 2.8-3.6l.3.8c.9-1.2 1.4-2.9 2.8-3.6 1.6 1.1-.8 1.6.1 2.9 1.7-1.4 1.5-5.4 4.2-5-.5 1-1.6 1.7-2 2.7 3 .5 2.9 0 4.4-.7h-.2l3.6-1.3h-1.1c-.5-5.6 4.1-3.9 5.4-8.7-1.3 4.5.5 1.8 1.5 3.7 1.1 0 2.7-.3 2.7.4.5-2.4 3.2-.5 3.8-4 .5.5 1.6-1 2.2.7 1.6-1.7-1.1-.7-1.4-1.5 1.6-3.9 8.4-2.2 10.9-7.7 2.9-3.5 2.4-5.8 5.1-9 1.7.2.4 2.7.4 2.7a7 7 0 0 0 5-3.2c0 .7.6.9 1.6 1.2s-.4-2.7 2-3a9.5 9.5 0 0 1 .1 3.2c1.3-1.6 2.3-3.7 3.7-5.3 1.1.7-.1 2.2-.3 3.2 1.6-1.7 4.4-4.1 4-6.1l-1.6.2c.7-.5 1.2 1.1.9 1.8-.9 2.3-2.7 1-3.2.5l1-1.1c-3.4-2.6-4.6 3.7-7.2 5.1l-.5-3.1-1.2 3.7c-.9-.3-2.2-1.4-1.2-2.6-2.5-.1-1 1.9-3.4 1.5-.3-.1-.3-.3-.2-.5l-1.3 1.8c0-.7-1.4-1.5-.1-1.9-4 .6-3.8 5.1-6.2 4l.2-.3c-3.7 3.6.8 2.1-1.1 6.3l-5-3 .8 2.1c-.5.2-1.4.7-1.8-.2-.8 2.3.8.6.6 2.4-3.2-.2-5.3 4.6-7.7 2.1.2 1.9 2.7-.3 1.1 2.1-2.7-2.6-2.3 2.3-5.1 2.2-.5-2 1.9-2.4-1-2.5.6 3.4-4.1 2-5.4 3.6 1.4 2.1-2.9 3.3-5.1 5.9-.2-.4-1.6.2-3.4 1s-3.9 1.9-5.4 2.5l-.2-.4c1 2.4-1.8 3.9-3.3 5.7a2.9 2.9 0 0 1-.3-3.3l-1.7 1.3a3.5 3.5 0 0 1-1.2 2.8l-.7-1.9a22.6 22.6 0 0 0-3 3.5 8.5 8.5 0 0 1-4 3.1c.9 1.5 5.4 2.2 3 5.5-.7-.7-1.8-1.9-1.3-2.8s-.5 1.4-1.2 1.4l.2-2.2c-1.8.5.1 1.6-1 2.3-.8-1.1-1.4-.2-1.9-1.2s1.3-.3 1.4-1-3.3 1.2-4.4.8c.6.5 1.1 1.5.4 2.3s-1.8-.7-3.6-.2c.1 1.2-2 1.6-.8 3.2-.7.5-1.4-.1-2-.4-.6 1.6-5.2 4.7-2.5 5.3h.4v.2c-2.5 4.7-8.5 5.7-11.6 9.5l-.5-.5c-1.6 2.5-4.5 4.7-5 7.2-.6.6-2.3.5-2.6-.4-1.3 1.9-.9 2.6-4 4 .8-2.4-1.3-.2 1-2.2-1.3.8-2.2 1.1-2.9 1.6a5 5 0 0 0-1.8 3.1c-.2-1-1-1-1.9-.6a5 5 0 0 0-1.9 2l2.4-.7a19.3 19.3 0 0 1-3 3.2l-1.2-2.1c-3.2 1.4-4.1 4.5-4.9 7.3s-1.4 5.2-4.7 6.4c.3 1.2 1 .4 1.7-.2s1.5-1.3 1.9-.1a13.5 13.5 0 0 1-3.7 3c-1.3.9-2.5 1.7-2.7 2.1a3.9 3.9 0 0 0-.2 4.6 8.1 8.1 0 0 1 .8 2 5 5 0 0 1-.1 2.8 2.3 2.3 0 0 1 2-.2 2.2 2.2 0 0 1 1 .8 4.5 4.5 0 0 1 .8 1.7 4.7 4.7 0 0 1-.2 1 3.2 3.2 0 0 1-.3.8 3 3 0 0 1-1.1 1.1 1.6 1.6 0 0 1-2.3-.7c-.2-.8.1-1.2.3-1.2s-.7-2.5-1.6-1.1l.8.4c-.5.9-.4 2.5-.5 3.9s0 2.3-.8 1.9c1.5 2.5 1.6.7 1.5-1.2a13.1 13.1 0 0 0 .3 3.1 14 14 0 0 0 1 2.6c.8 1.6 1.8 3.1 2.8 5.3-.1-.9.4-2 .8-1.4 1.6 2.9 2.5 3.1 3.1 3a3 3 0 0 1 3 .7 1.7 1.7 0 0 1-.4 2c-.3.4-.2.7 1.8 1.5s.7 1.6.1 1.9a4.6 4.6 0 0 1-2.2.2 10.6 10.6 0 0 1 4.9 2.9 21.2 21.2 0 0 0 3.4 3l-2.3-.2a14.5 14.5 0 0 1 3.4.9l-.6-2c1.1.7 2 1.1 1.8 1.7s.8-1.1.9-1.8a2.1 2.1 0 0 1 1.8-1.8 5.2 5.2 0 0 0 2.8.9c1 .2 1.9.4 1.9 1.6-2.3-.8-2.3-.3-2.2.4s.3 1.6-1.9 1.3a6.3 6.3 0 0 1 3 .7c.1.3-.3.4-.6.5a3.7 3.7 0 0 0 2.4.9 1.9 1.9 0 0 0 1.2-.8 4.7 4.7 0 0 1 1.3-1.1 4.1 4.1 0 0 1 2.5-.4c-.7 1.2 1 2.5 1.8 2.2-2-.1-.8-2.1.9-3a3.5 3.5 0 0 0 3 0 3.9 3.9 0 0 1 1.8-.7l-1.8-.4a2 2 0 0 1 1.4-1.1l2.5-.6c.3.9-1.8.8-1 1.2 1-1.2 2.3-.8 3.8-.3a8.7 8.7 0 0 0 2.3.5 3.2 3.2 0 0 0 2.2-.7c1.6.5.7 2.2 2.1 2.5a4.2 4.2 0 0 1 3.7-1 4.4 4.4 0 0 0 3.9-1c-1.6-1.2-1.6-.7.2-3.2l-2.7 1.6-2.8 1.5c1.1-1.1 2-2.4 3-3.5a11 11 0 0 0-2.4 1.3 4.9 4.9 0 0 1-2 .9c1.4-1.8 1.3-1.4.1-2.5 1.5.9 2.6.1 3.6-.7s2-1.9 3.6-1.6l1.5 3.8a6.4 6.4 0 0 0 3.1-.9 15.6 15.6 0 0 0 2.5-2 17.4 17.4 0 0 1 5.8-4.3l-1.9.3c-.1-.9.6-1.4 1.4-1.9a6.6 6.6 0 0 0 2.4-1.7c.6 1.2 1.9 1 3 1.3-.7-.8 3.4-2.4 2-4.9h3c3.9-2.3 1.3-6.2 4.6-8.7.1 2 2.2 1.4.9 4.1 1.1-.9 2.1-1.6 1.5-2.4 1.2.1 1.5-4 3.3-4 0-.8-.9-2 .2-3s.5.5.5.5 1-2.4-1-2.5c3 0 5-2.3 6.8-4.5s3.4-4.5 6-4.7a73 73 0 0 0 5.1-9c.3.4.6.3.2.8a3 3 0 0 0 1-2.3 3.6 3.6 0 0 0-.8-1.7c-.7-1-1.4-1.9-.4-4.1s1.5-.5 1.5.3-.2 1.7.4 1c2.3 0 2.4-1.8 2-3.8s-1.3-4-.3-5.9l.4.8c.5-1.4-.2-2.9-1.3-4.4a18.8 18.8 0 0 1-2.9-4.9.8.8 0 0 0 .6-.2 11 11 0 0 1-2.3-1.6 22.2 22.2 0 0 1-2.2-2.1l-2.1-2.3-1.9-2.1c2.1 0 1.7.9 2.8-.7-1.1-1.2-2.2 1.9-4.3-.4.3-1.4-.4-3.7.9-5.1l1.9 2.4a2.2 2.2 0 0 0-.9-2.8c-.8-.6-1.9-1.1-2.2-1.8l1-.5a8.8 8.8 0 0 0-4.4-2.5 8.5 8.5 0 0 1-4.3-2.7l-.2.9c-3.8.1-.5-2.7-3.8-3l1.3-2.6c-1.7-.7-6.3-2.2-9-3.7a10.9 10.9 0 0 1 4.4.5l4.2 1.4a20.6 20.6 0 0 0-2.9-2.3c-1.2-.7-2.4-1.2-3.2-1s1.8.3 2 1.1a10.8 10.8 0 0 1-8.3-3c3.9-3.8-6-6.6-5.3-11.4-3-1.1-5.3-3-7.5-5.3a51.9 51.9 0 0 0-7.5-6.5c-.4 4.9-1.7-1.1-3.9 2.7-1.5-.7-2-1.1-1.9-1.4l-2.6-4.9c-.3-1.7 1.8.1 2.2-.8-2.8-2.3-.2-2.4-1.5-4.6-.5 1.5-2.3 1.1-3.6-.5l1.3 3.2c-5.4-.9-1.6-5.4-7-6.3l2.1-.2c-2.6-.8-7.9-5.3-11.9-3.7-.1-.7 0-2 1.1-1.6-4.9-3.8-13.4-4.3-16.3-8.6l1-.6c-1.1-.4-2.7.6-3.3-1.1s.9-.6.5-1-3.5-.1-4.5-1.4l1.7-.3c-4.2-4.4-9.2-2.5-13.7-4.6 1.7-2.6-1.6-6-3.2-7.7l.3-.3c-5.4-4.1-11-4.4-16.9-7.1a8.6 8.6 0 0 0-2.1-3.6 32.7 32.7 0 0 0-3.7-3.4c-2.8-2.2-5.9-4.6-7.7-7.3.4 1-1.6 1.8-2.7 1.3s-4.5-.9-2.5-2.9l.4.4c.9-2.8-1.8-4.1-3.5-5.7l-2.7 2.5c-.5-4-3.6-6.2-6.3-8.4s-5.2-4.2-4.1-6.9c-1.5-.5-2.4-1.9-3.9-2.5l1.7-1c-.7-1.6-1.2-2.9-1.7-4.2s-1.2-2.6-2.2-4.6l1.6.3c-.4-1.1-1.9-1.4-3.6-1.7s-3.3-.7-3.6-1.9l2.7-1.4a14.4 14.4 0 0 1-.4-3.4c0-1.1.1-2.3.1-3.4a15.5 15.5 0 0 0-.2-3.4 9.4 9.4 0 0 0-1.3-3.4c.4.1 1.3.2 1.4.9 0-1.1.5-3.1.5-4.8s-.4-3.1-2.4-2.9c2.6.2.7-4.7 0-7.5l1.9.7a19.6 19.6 0 0 1-2.2-2.7 6.1 6.1 0 0 1-.6-3.2c.4-.7 1.7-.3 1 .5a1.8 1.8 0 0 0 .1-2.3 2.2 2.2 0 0 1 .3-2.7l.9 1.4c.8-2.4.1-2.4-.9-4.1a4 4 0 0 1 1.1-2.9 3.3 3.3 0 0 1 2.6-1.4c-.9-.7-1.8-2.5-.8-3.7s.9.7 1 1A7.8 7.8 0 0 0 62 295c.1-1.5.2-2.8 1.7-3.7a1.6 1.6 0 0 0 1.3.1c-1.5 2.9-2.5 5.4-2.6 5.1 1.7.7 3-1.6 4.5 1.3a33.5 33.5 0 0 1-.8-4.6c-.1-1.7.1-3.3 1.1-4.2h.7v.3a1.8 1.8 0 0 0 .5-1.5 6.3 6.3 0 0 0 1.5-1.5c.7.3 1.3-.2 1.7-.9s.9-1.5 1.3-2c-1.7-1.1-.4-2.2-2.7-1.9.2-.1 0 .3-.4 1.1a1.5 1.5 0 0 0-.1.6v-.2l-1.7 2.7c-.3-1.4-.4-2.8 1.3-3.4a25.6 25.6 0 0 1-1.5-3.4c3.3.1 6.6-1.5 8.2-.6a14.2 14.2 0 0 1 1.6-2.6l.9-1.3 1-1.3.9-1.3.7-1.4a7.9 7.9 0 0 0 .7-3.1c.7-1 1.7.1 2.4.4s-1 1.1-1 1.7c1.3-2.1 5.4-3.8 4.7-6.3 1.6-.2 1.5.6 1.4 1s-.1.7 1.6-.3v.9a7.7 7.7 0 0 0 2.8-.3 7.4 7.4 0 0 0 2.3-1l2-1.5 1-.9 1-.9a13.6 13.6 0 0 1 4.6-2.9 8.7 8.7 0 0 1 2.9-.3 9.2 9.2 0 0 1 3.3.9c-.6-.2-1-.4-1.1-.8a60.8 60.8 0 0 0 7.6.2h7.7c5.1.2 10.4 1.3 14.3 4.7a3.2 3.2 0 0 0 2.7.7c.8-.2 1.5-.7 2.6-.9l-.3 2.2 3.7-.9a3.6 3.6 0 0 1 2.7 1.4 14.3 14.3 0 0 1 1.7 2.7 8.8 8.8 0 0 0 1.9 2.6 5.1 5.1 0 0 0 3.4 1.3l.3-1.5c.7.6 2 1.4 3 2.2s1.6 1.5 1 2 1.4-.7 1.5.4l-.7.9 2.4.9 2.3 1c1 1.6.1 2.2-.7 3s-1.3 1.6.3 3.5a11.6 11.6 0 0 0 3.5 1.5c1.3.3 2.5.4 2.5-.1a2.2 2.2 0 0 1 .2-2.8l1.6 1.2a24.1 24.1 0 0 0 4.2-2.4c1.1-1 1.8-2.5 1.1-5.3l-3.8-1.5.4-1.9 2 2.2c0-2.3-1.7-2.3-3.2-2.6a2.6 2.6 0 0 0 .2-2.3l-4.7-.3c.6-1.2 2.9-.7 1.7-2.9-2.2-.1-.8 3.1-3.4 2-.2-2.2.9-2.8-1.4-3.2.3-.8 1-1 1.9-.7-2-.4-3.9-2.7-5.7-1.9-.2-1.2-1.5-2-2.4-2.8s-1.8-1.4-.9-2.7a11 11 0 0 1-5.4-.3c2.2-.9.9-1.7-.6-2.6s-3.4-1.9-2.2-3.6a4.6 4.6 0 0 1-2.8.5 13.2 13.2 0 0 1-3.1-.7l-3.3-.9a9 9 0 0 0-3.3-.2c.3-.2.9-.6 1.1-.3-2-.9-2.4-2-3.6-3-1 2.5-4.5 2.4-6.5 3.7-1.1-1.5-.5-2.2.2-2.9s1.8-1.2 1.6-2.6c-.3 2.1-5.1 1.4-4.5 3.4-1.8-2-1.6-1-2.5-3.4-.7 3.4-2 .4-3.9 2.3-2.9-1.8-.6-3.2-4-2.3-.8-.5-.5-1.1.1-1.5a6 6 0 0 1 1.1-.7zm-63.1 42.1l.6-1.4zm-2.7 5.7l1.2-2.5c.7.1 1.2.6.9 1.2s-1.3.6-2.2 1.3zm17.8-4.3c-.2.8-.7.9-1.1.8l.6-1.4v-.2a3.3 3.3 0 0 1 .4.7z" fill="{{colors[0]}}"/><path d="M69.9 282.5a1.3 1.3 0 0 1 .1-.4l-.7.2.3.6zm98.6 216.4zM53.8 375.4l.4-.3-.7-.2.3.5zm144.7 108.8l.6.2zm11.7-7.9l2-.6zm9.5-5.3a3.5 3.5 0 0 0-.3-.8zm-56.1 98.2h.4c.8-.6.2-.3-.4 0zm-31.2-20c.2.5.5 1 .7 1.5s.4-1.2-.7-1.5zm74.3-5.8l.2-.2z" fill="{{colors[0]}}"/><path d="M133 552.7a2.5 2.5 0 0 0 .1-2 2.5 2.5 0 0 0-.1 2zM259.5 446l.5-.2v-.3zm.4-.5l.4-.5c-.3.1-.5.2-.4.5zm1.1-1.6l-.8 1.1c.4-.3.9-.5.8-1.1zm-14.1 9.1l.2.7a1.6 1.6 0 0 0-.2-.7z" fill="{{colors[0]}}"/><path d="M243.4 455.5c1-.4 3-.1 4-1.3l-.2-.6c0 1.3-3.7.4-3.8 1.9zm-20.2 2.7l3.4-1.6c-1-.3-2.2-.7-.9-1.7-5.1.6 1.7.8-2.5 3.3zm-10.1 5.4c1.4-1.4-.6-.9-.8-1.3-.6 1.3-.7 1.6.8 1.3zM148 514.9l-1.1-1.4c-.9 1.2.5.4 1.1 1.4zm-4.4 17.5l1.8-.3-.8-1.6zm-15.9.1l.2-.8c-.3 1-.7 1.9-1 2.9zm102.4 11l-2-1.1c-.3 1 1.4 2.8 2 1.1zm-10.5-60.1c.3-1.2-.4-3-2-3 .9 1.1 1.3 2.7 2 3zm-142-108.2l1.3.2-2-1zm344.1 142c-.3-.6-1.5-1.3-2-.1a16.4 16.4 0 0 1 1.1 2.2 14.7 14.7 0 0 0 .9-2.1zm-8.7 1.5a14.6 14.6 0 0 0-1.1 2.6 3.3 3.3 0 0 0 .4 3 10.4 10.4 0 0 1 1.2-2.2 4.7 4.7 0 0 0 .8-2.5 1.5 1.5 0 0 1 1.4-.3 1.3 1.3 0 0 1 1 .8c0-.4.5-.5.9-.8a1.2 1.2 0 0 0 .5-1.5c-2.4-.3-3.4.3-4.7 2.4-.5-.3-.3-1-.4-1.5zM390.1 441l-.2.6a1.1 1.1 0 0 0 .2-.6zm-41.6 3.2c.3-.4.2-.7.1-.8s-.3.8-.1.8zm-8.4 6l.5-.4c-.3.1-.6.2-.5.4zm50-9.2l.6-1.6c-.8-.1-.5.8-.6 1.6zm7.4 80.3a2.6 2.6 0 0 0 1.3.1l-1-.4zm-4.6-55.2v.5l.9.4zm1.1 18.6c0-.4-1.9-.4-2.8-.5a1.9 1.9 0 0 1 1.4.8zm5.3 27.6l.5.2zm-6.1-60l.7-.2zm-136.4-29.4h.4c-.3-.1-.4-.1-.4 0zm8.8-22.3v.3h1.1zm61.9 63.6h.1c0-.6-.1-.4-.1 0zm10.4-51.7c-.2 1.9-1.1 1.1-1.9.7s-1.5-.6-1.7 1.7c.2-.4 1.2-.2 2-.1s1.8-.3 1.6-2.3zm59.2 108.2l-.8-.6a2.2 2.2 0 0 0 .8.6zm-62.8-105.8zM312 504.4l.9-.2a1.7 1.7 0 0 0-.9.2zm13.7-28.7l-.6.6zm-2.9 47.3c.2-.4.5-.4.4-1.1h-.3c.2.4.3.7-.1 1.1zm3.2-16.1l-.4.2v.5zm-69.8-35.2a6.7 6.7 0 0 1 1.8-.6c-1.4.2-1.7-2.2-1.8.6zm141.9 48.7a1 1 0 0 1-1 .3l.6.3a.9.9 0 0 0 .4-.6zm-90.4-1.3l.8-2.5a10.6 10.6 0 0 0-.8 2.5zm-30.3-26.3v.6a.5.5 0 0 0 0-.6zm32.4 16.3a3.8 3.8 0 0 0 1.6-1.2l-.4-.4zm-51.8-38z" fill="{{colors[0]}}"/><path d="M254.4 454c-.2 2.4 2.5 1.3 3.9 1.8.6 2.9-2 1.2-3.3 2.2.6 1.8 2.9 3.4 2.7 4.7s-.6.3-1.1 0c1.9 2-.3 5.7 2.1 8.1l-.7.2a10.6 10.6 0 0 1 3.6-.1c0 1.1 1.5 2.2-.3 2.4.1-.7-.6-.8-1.1-1.1l.6 1.2c-2.5.8-.7-1.6-2.5-1.8.6 2.3 2.4 5.1 1.5 6.7-2.4.1-.5-4.1-2.7-2l1.1-2.6c-3.9 1.7.4-1.6-3.8-.1-1 3.4.9 4-.2 7.4 1.2.9 2-.1 3.2.8 1.9 5.2-6.3 3.2-3.6 7.2 1.5 1.1 4.4 1.8 2.5 4.2l-2.6-1.2c-.7 3.3 3.6 2.4 1.3 5.7-1-.8-.5-2.7-.9-2.3-2.4 2 1.3 1.8 1.1 3.6h-2.4c-.1 3.6 1 7.8.8 11.8-.7-.3-1.3-1.1-2.2-.3a20.4 20.4 0 0 1-1.2 7.7 53.2 53.2 0 0 1-3.2 7.2l1.7 2.2a.8.8 0 0 1-1.4.1c-1.1 1.7 1.3.3 1.9 1.4a1 1 0 0 1-1.9.4 23.7 23.7 0 0 1 .9 7l12.6 2.8c.2-2.3.8-4.5 2.2-5.9l.4.8c1.5-2.4-3.3-4-.8-6l.2.6a81.1 81.1 0 0 0 2.6-8.6c.9-2.8 2-5.4 4.1-7-1.3-.9-.5-2.1.1-3.4s1.1-2.5-.8-3.4c3.1-2.5 3.4-1.4 6.3-5.3.6-1.1-1.8-2.7-1.6-4.3l2 .7-1.3-2.8h2.8v-1.6a1.7 1.7 0 0 1-1.9.5c-.1-2.5 3.5-4.6 4.5-4.2.1-1.9.3-3.8.4-5.7.7.5.7 1.4.9 2.3-.9-3.5 2.3.4 1.5-2.8-.6.1-1.1-.7-1.5-.9 1.7-.7 3-3.4 3.4-5.6l1.2 1a38 38 0 0 0 2.5-5.7 48.2 48.2 0 0 1 2.6-6.1c-1.4 1.1-3.5-.4-3.1-1.7l2.3.6c-.9-1.4-1.4.8-2.1-1.5 1-1.4 2.8.2 3 1.4q.1-1.1.3-2.2c.7.2.7.8 1.5 1.3-.8-1.4 3.7-2 2.1-4.2l.6.2c2.2-3.9 2.5-6 4.3-9.2-1.7-1.1-.6-2.1-1.4-3.8 1.9-2 4.8-3.7 6.4-6.4s-1-1.5-1.4-3c1.6.9 3.2-1.8 3.4.3a45.6 45.6 0 0 0 4.3-8.7c-.9-.1-1.5.2-1.8-.5a1.6 1.6 0 0 1 2.4-.4v.3c.7-2.9 3.8-4.3 6.6-5.3s1.9 1.3 2.1-1.3v.3a10.3 10.3 0 0 1 1.4-3.3c.4.1.2.6-.1 1.3a5.5 5.5 0 0 0-.4 2.1 3.3 3.3 0 0 1 .9-1.5c.8-.5 1 .4 1.1 1s.1 1 1 .9l-1.9 2.1c-.2.3-.1.4.1.6s.1 0 .1.4v.9a10.8 10.8 0 0 1 0 1.9 4.9 4.9 0 0 1-1.4 3.3h1.3c1.1 1.2-.8 1.2-1.2 1.9s1.2-1 1.8-.3a43.4 43.4 0 0 1-2.3 14.2c-1.4 4.7-3.2 9.4-4.5 14.1s6.1 2.9 2.5 6.9l-2.1-1.6c1.7 7.5-2.4 14.3-1.3 21.6-.5-.5-1.1-.6-1-1.3-1.9 1.2-1 5.3.3 5.6-.3 1-1.3 0-2.1.6s1.4 4-.4 4.5-.5-.5-.5-.8-1 4.4 1 3.8c-1.4 2.4-.1 5.1-1.6 6.9 1.9 1.8-1.9 4.2 1 5.2-3.1-.8-3.4 4-2.3 5.9-.8-.7-1.3 1.2-2.4.3v.4l19.5 3.3c.1-1.6-.3-3.1-1.8-3 2.1-1.3 1.6-3.1 1.3-4.6s-.5-3 2-3.3a55.2 55.2 0 0 1 .6-15.5c2.9 1.2-1.4 5.2 1.9 6a53.4 53.4 0 0 0-.5-6.3 9.9 9.9 0 0 1 1.3-5.8c.8-.9 1 1.1 1.4 1.7a18 18 0 0 1 2.1-6.3c.5-1 .9-1.9 1.2-2.9a10.8 10.8 0 0 0 .7-3.1c.3.1.3.7.4 1.2s1.3-1.4 0-2v.9c-2.5.2-2.4-4.9-3.2-5.6 2.9 3.2 3-3.1 6.4 1.4a1.9 1.9 0 0 0-1.1-1.9c.6-.5 1.2-.5 1.8.8.8-2.9-1.1-2.8.3-5 .6.4.5 1 1.1 1.6-.4-1.8-.8-3.7.9-5.2.3.3.9.4.5 1a9.2 9.2 0 0 0 1-2.6l.6-2.7c.2-.9 1-3.6 2.9-4.8 1.6 2.8 1.7-.5 3.9 1l.8-2.2h-1.5a7.5 7.5 0 0 0 1.2-2.7 3.1 3.1 0 0 1 1.6-2.1l-.2 1.8 2.1-3.1-2.2.9c.4-2.4-2.6-2.1-.2-3.6-.2.6 1.4-1.5 3.3-1.2.1-1.3.2-2.6 1.8-3.2s1.8 2.3 2.4 2.5.3-2.1 1.1-3 1.6-1.9 1.3-3.2a3.3 3.3 0 0 0 1.2 1.8l-.6-1.9c1.1-.2 1.4-.1 2 .8 2.3-1.6-2.8-1.9.6-3-.1.3.2.4-.1 1a10.3 10.3 0 0 0 2-1.4l.9-.9.4-.4.3-.4a5 5 0 0 1 2.7-2.1c1.2 2.4-1.2 1.6.1 3.5.7-.8 1.5-2.3 2.8-4a5.9 5.9 0 0 1 2.2-2 1.6 1.6 0 0 1 2.1.7l-.2-.8c1.3-2.5 1.6-1.3 1.5.2s-.2 1.6-.2 2.2.1 1 .5.9-1.8 1.7-1.5 1.3a3 3 0 0 0 .9 2.3l1 1.3.6.9.3.5.3.6-1-.3a3.9 3.9 0 0 0-.3 1.4 15.2 15.2 0 0 0 0 1.7 15.5 15.5 0 0 1 0 3.2c1 .5.9 1.6 2.2.8a6.7 6.7 0 0 0-1.7 4.3 13.6 13.6 0 0 0 .9 4.1c.9 2.7 1.9 5.3-.4 7.9 0-.6-.8-1.5-.8-1l.9 4.5c1.6-.4 1-.6 2.2-1.5a3.7 3.7 0 0 1 1.7 2.9c-1.1-2-2.6 0-3.5.9s1 .1 1.5.1c-2.8 2.4 3.2.3 1.4 3.6l-.9-.2c.5 1.2 1.6 2.3 1.4 3.5-1.9.6-.9-1.2-2.4-1.3.1 1.8 3.7 3.4 1.9 5.2-.6-.7-.6-1.9-1.2-2.6-2.1 1.9-1.5 2.1-1.8 3.5l-.8 3.2.5-.9c2.5 1 2.8 2.1 3 3.4s.1 2.7 1.9 3.9c-3.4-2.5-1.8-.3-3.9-.2-.5.9-.9 2.2-1.6 2 1 .6.7 1.3.6 2.1s-.1 1.6 1.4 2.4c-.6.2.3 1.6-1.5 1.7 1 1.9 1.1-.7 1.9-.7a3.3 3.3 0 0 1 1.1 2.3 18 18 0 0 1 .1 2.9c-.1 2 .2 4.4 2.6 5.9a9.6 9.6 0 0 0 4.1 2.7 20.3 20.3 0 0 1 4.1 1.8c-.1.8-.7 1-1.3 1a3.7 3.7 0 0 1-1.2-.2 4.7 4.7 0 0 0 3.7 3.9c-.7.2-.7.8-.7 1.8s1.3.1 1.9-.1 1-.3 1.7.7a6.6 6.6 0 0 1-2.9 1.5l1.7.3h3.4l1.6-.2c.3 1.3-1.6 1.5-2.7 2a13.1 13.1 0 0 0 4.4-.1c1.4-.3 2.5-1 2.8-2l-1.4-.6c.8-.1.4 1.6-.2 2s-1.8.5-2.3-.1a2.5 2.5 0 0 1-.5-1.6l1.4-.2c-.5-2.1-1.5-2.1-3.1-1.9H401a3.9 3.9 0 0 1-2.2-.7l2.5-1.8a16.2 16.2 0 0 1-3.5.4c.1-1 .9-2.3 2.1-1.9s-.5-1.1-.9-1.2-.8-.2-.6-1.2.2-.3.4-.3l-1.6-.7c.7-.1 1.5-1.4 1.7-.5a3.2 3.2 0 0 0-2-2.6c-.9-.5-1.5-1-.8-1.9h.3c-1.3-1.5-1.8-1.4-2.4-1.1a2.8 2.8 0 0 1-3.2-.2c1.4-1.3 2.8-2.5 4.3-3.7l-2.2.3c0-.4-.1-1.3.7-1.4-1.8-1.1-.8.5-2.4 0 .7-1.3 0-2.5-.3-3.7s-.4-2.2 1.2-2.8c-1.8-.4-.8 2.2-2.4.3 1.7-.7 1.4-1.2.9-1.9s-1.3-1.5-.6-2.6 1.2 2.1 2.6.1c-1.7-.3-1.7-1.2-1.2-2.2s1.1-2.1.7-2.8c-2.6.2-1.4-3.3-2.4-5.8.4.1.7-1.2 1-2.8a37.1 37.1 0 0 1 1-4.7h.4c-2.6-.4-2.1-3-2.7-4.8a3 3 0 0 1 2.9 1.4v-1.7a2.8 2.8 0 0 1-1.6-2.1l1.9.4c-.1-2.3-2.3-4.7-1.1-7.7-1.8-.1-5 2.5-6.2-.7 1-.1 2.6-.3 3 .5s-.8-1-.4-1.5l1.7 1.2c.7-1.4-1.4-.7-1.2-1.8s1-.8 2.1-.7-.6 1 0 1.4a5 5 0 0 1 2-3.3c-.8.1-1.9.1-2.1-.9s1.6-.9 2.3-2.3c-1-.5-.1-2.1-2.1-2 0-.7.9-.9 1.5-1.2s-.6-2-1-3.2-.8-1.9-1.8-1v.1a6.7 6.7 0 0 1-1-3 22.8 22.8 0 0 1-.2-3.7v-2c0-.7-.1-1.3-.2-1.9a11.9 11.9 0 0 0-1-3.5l.5-.6a32.9 32.9 0 0 0-2.5-3.1 3.3 3.3 0 0 0-3.2-1.1c-.7-.3-1.4-1.6-.8-2.3a7.5 7.5 0 0 0-2.4.9l-1.1.4h-.7l-.9.2c1-1.3.9-1.5.8-1.5s0-.1 1.3-.4a7.2 7.2 0 0 0-2.9.6 7.6 7.6 0 0 0-3 3c.3-1.2-.3-1.5-1.2-1.2a6.1 6.1 0 0 0-2.7 1.6h2.4l-2 1.3-2 1.3c-.2-.8-.3-1.7-.5-2.6a8.9 8.9 0 0 0-2.6 1.2l-.5.3-.3.3-.6.6a14.1 14.1 0 0 0-1.8 3c-1 2.1-1.9 3.9-4.9 3.5.1 2.1 2.8-1 3.2 1.2a7.6 7.6 0 0 1-3.7.8c-1.3 0-2.4 0-2.7.3s-1.5 1.8-1.4 2.9.2 2.3-1.2 3.2a2.7 2.7 0 0 1 1.7 3.8c-1.7 1.4-4.4-.3-4-1.8s.7-.5.9-.3.7-1.7-.6-1.6l.4.8c-1.4.3-3.5 2.7-4 1.2-.6 1.8.5 1.4 1.7.8a7.2 7.2 0 0 0-2.9 2.5 12 12 0 0 1-2.7 2.8c.7-.1 1.7.2 1.4.5-1.8 1.4-1.8 2-1.5 2.6a2.1 2.1 0 0 1 .1 2.4c-2 .6-2.1-2.3-3 .8-1.8 1-2-1-2.1-2-.4 3.1-3.8 3.7-5 4.9l.3-1.6a5.2 5.2 0 0 1-1 2.2l1.9.2c-.7.6-1.1 1.2-1.7.8.4 1.3 2.7.9 3 3.2-1.4.5-1 3.4-3.1 2.6 2.5-2.7-2.1-.8-.9-3.6a3 3 0 0 1-1.1 1.9c-.3 0-.3-.3-.3-.6-3.5 2 1.3 2.7-.5 5.7-.9-1-2.5-.4-2.5.3.7-1.3 2.1.4 2.4 2-1.9 1.6-.5 2.5-1.1 3.5l1-1c.9 1 .2 1.9-.1 3.5-.9-.3.1-1.6-.6-1.2a1.3 1.3 0 0 1-.1 1.5 4.8 4.8 0 0 1-1.3 1.1c-1 .7-2.2 1.5-2 2.9s-2.2-.8-3.1-.1a2.6 2.6 0 0 1-1.2 2.7 2.8 2.8 0 0 0-1.4 2.7c1.9-.2 1.5-.5 2.3 2l.6-4.9 1.1 3.7c.5-1.3.1-3.2.7-3.9.7 1.9.4 1.6 1.9 1.5-3 .9 0 4.1-2.4 5.5l-3.9-1.5c-1.5 1.3-1.4 3-1.4 4.7a10.2 10.2 0 0 1-.9 5.7l1.1-1.2c1.4 1-.5 2.7-.2 4.2-1.3-.5-2 .3-3 .6.5.1.3.9.2 1.8a2.3 2.3 0 0 0 1.5 2.4l-2.2 1.5c-.7 1.7 0 2.9.8 4s1.7 2.3 1.3 3.9c-1.3-1.2-2.5.2-3.2-2.3-.2 1.1-.6 2.1.3 2.3-.7.4.4 2.1.4 3.3l10.2 1.7a1 1 0 0 1 .5-.9c-.5-.6-1.9-1-1.5-2.2a1.1 1.1 0 0 1 .7.1c-.7-.1-.5-2.1-2.2-1.3 4.9-2.5 1.6-9.4 5.8-11.5a61.5 61.5 0 0 1 .4-7.6c.4.2.7.1.5.5 1.8-2.7-3.6-2.5-1.5-5.7 2.5-1.3.9 2 1.9 1.1 4.6.3.1-4.2 3.1-6l.2.6c1.8-1.5-.9-4.6-.2-7.3a1.1 1.1 0 0 0 .7.1c-2-2.3-2.1-6.1-2.3-9 1.6 1.1.7 1.4 2.6 1.2-.1-1.3-2.9-.1-3-2.6 1.1-.6 2.2-2.3 4.1-2.2l-.3 2.3c2.7-.8.4-3 1-4.2l1.1.3c.2-3.6-2.5-4.1-1.8-7.9l-.9.3c-2.4-2.5 1.8-1.5.1-3.9l2.8-.2c-.5-1.5-2-5.2-2.2-7.7 1.8 1.7 2.5 4.7 3.4 6.7.2-1.4.4-4.7-.8-5.6s.8 1.4.3 1.9a7.9 7.9 0 0 1-2.3-7c5.3 1.2 2.2-6.9 6.6-8.4-.7-2.6-.2-5.1.3-7.9l.4-2.1.2-1.1V424a23.1 23.1 0 0 0-.7-6.9c-.8 1.2-1.3 1.7-1.5 1.7s-.3-.4-.5-.8-.6-2-2.5-.7a9.8 9.8 0 0 1-.7-1.6 1 1 0 0 1 0-.8 23.6 23.6 0 0 0-.5-6.7c0-1 .4-.9.9-.6s1 .9 1.3.4l-.6-1.3-.4-.9a2.3 2.3 0 0 1 0-1.2 5.5 5.5 0 0 0 .2-1.1 3.3 3.3 0 0 0-.5-1.8 1 1 0 0 1-1.5.9 9.5 9.5 0 0 1-2.7-1.7 13.8 13.8 0 0 1 2 3.7 7.5 7.5 0 0 1-4.3-3 4.9 4.9 0 0 0-1.9-1.6 4 4 0 0 0-3.5.6l2-1.6-3.1.8a19.5 19.5 0 0 0-4 2l-1 .6-1 .9-1.7 1.8-.7.9-.6 1a6.9 6.9 0 0 0-.7 2c-.7-.1-2-.5-.9-1.8a21.5 21.5 0 0 0-2.6 2.2l-1.2 1.3-.7.9c-.9 1.2-1.6 2.6-2.3 3.9s-2.7 4.9-4.9 5.9l-.6-1c-.4 1 .5 2.6-1.1 2.9s-.6-1-.9-.6-.1 3.2-1.4 3.9l-.3-1.6c-4.2 3.4-2.1 8.1-3.8 11.9-2.6-1.7-5.6 1.2-7 2.6l-.3-.3a17.9 17.9 0 0 0-2.8 7.4c-.2 1.3-.4 2.5-.6 3.8a32.9 32.9 0 0 1-.8 3.9c-4.6 1.3-6.4 9.3-10.4 13.3.9-.5 2.1 1.2 2 2.1s.5 4-2 2.7l.2-.4c-2.9-.3-3.3 2.4-4.2 4.2l3.2 1.8c-3.5 1.3-4.4 4.7-5.1 7.8s-1.1 6-3.8 6.5c.4 1.5-.1 3 .3 4.5l-1.8-.7a28.4 28.4 0 0 0-3.5 9l-1.1-1.3c-.9 2.3 4.5 4.8 3.9 6.9l-3-.3a45 45 0 0 1-2.8 5.9 8.8 8.8 0 0 0-.7 6.5c-.4-.2-1.2-.5-1.1-1.2-.6 1.9-3.9 7.1.2 7.4-2.6-.6-1.3 4.2-.7 6.7l-1.8-.8 1.4 1.7 12.2 2.7a5 5 0 0 1-1.4-3.7c.4-.6 1.6-.2 1 .5 1.4-1.9-1.5-2 .1-4.3l1 1.2c.6-2.1-.1-2.1-1.3-3.5s1.2-4 3-4c-1-.5-2.2-1.9-1.5-3.1a1.2 1.2 0 0 1 1.2.7c2-3.4-1.3-5.7 1-7.9a1.7 1.7 0 0 0 1.2-.2c-.5 2.9-1 5.1-1.1 4.9 1.8.3 2.5-2 4.6.3-1-2.1-3.4-5.8-2.2-7.9l.7-.2.2.3a1.6 1.6 0 0 0-.1-1.5 5.2 5.2 0 0 0 .8-1.8c1.5 0 1.2-2.6 1.5-3.7-2-.2-1.4-1.7-3.2-.5.2-.2.2.3.2 1a1.3 1.3 0 0 0 .1.5h-.2c-.1.8-.2 1.8-.3 2.9-.8-1.1-1.5-2.1-.3-3.3l-2.9-2.1c2.9-1.2 4.8-4 6.6-4.2-.6-3.7.3-8.5-3.1-11.1-.4-1.1 1.2-1 1.8-1.4s.2 1.3.7 1.7c-.7-2.1.3-6-2.3-6.8 1.4-2.4 2.2 1.7 2.2-1.9l.7.5c2.4-3.2 1-6.2-.3-9.2s-2.4-6.1.5-9.7c-.4.5-.5.8-1 .8a22.2 22.2 0 0 0 1.1-6.6c.1-2.2 0-4.5-.2-6.7a50.4 50.4 0 0 1 0-6.7 19.3 19.3 0 0 1 1.6-6.5c.8-2.4-.9-2.7-2.1-4.2l2.1-.5-2.4-2.5c-1.8-3.6 5.1-6.3 1.6-10.9l-1.4.6c.2-1.7-1-5.2.6-4.9-.3-.2-1.5-.5-.8-1.2h1.6l-2-3.9c.6-3.2 4.4.3 4.4-4.3-.5-1.7-3.5-4.7-4.2-4a2 2 0 0 1-1.7 1.9l-.7-1.5c-3.3-.1-6.7-1-8.7 2.8l2.1 2.5-1.5.9-.2-2.2c-1.4 1.3-.1 2 .9 2.9a2.7 2.7 0 0 0-1.7 1.2l3.2 2.4c-1.3.4-2.6-1-3.2.7 1.5 1.1 2.8-1.3 3.8.7-1.4 1.3-2.7 1-1.3 2.4a1.5 1.5 0 0 1-1.8-.6c1 1.3.6 3.4 2.3 4-1.8 1.3.6 4.4-2.5 4.3a6.6 6.6 0 0 1 2.6 3.4c-3.7-2.1-.2 4.5-4.2 3.9 3.3 1.6 1.5 5.8 3.3 8.7-.3-.2-.8-.5-.6-.7-.3 1.6-1.3 2.1-2 3.1 2.7.3 3.3 2.8 5 4.2-2.7 1.9-3.2-1.3-5.7-.7 2.2 0 2.1 3.5 4 2.9-1.7 1.5-.8 1.3-3.1 2 3.4.4.5 1.4 2.6 2.7-1.8 2.1-3.2.4-2.3 2.9-1.3 1.1-2.4-1.1-2.4-1.1zm.1 57.1zm-.8 4.7a14.9 14.9 0 0 0 .4-2c.7-.1 1.4.2 1.2.7s-.9.8-1.6 1.4zm15.1-8c.2.8-.3 1-.7 1.1a9.6 9.6 0 0 0 0-1.4h-.2z" fill="{{colors[0]}}"/><path d="M266.5 506.1c0-.1-.1-.2-.1-.3l-.5.4.6.4zm123.4-64.4l-.3.2zM276.4 498l-.5-.2.3.6.2-.4zM384 468.8l-.5.4zm-.1 11.7l-.6 1.7a7.5 7.5 0 0 0 .6-1.7zm-.1 9.3zm-46.1-8.7a.8.8 0 0 0-.1.3c0 .8.1.3.1-.3zm19.7-35.5a8.2 8.2 0 0 1-.3 1.6c.7-.4 1.1-.8.3-1.6zm-49.8 73.8zm48.3-70.8a1.9 1.9 0 0 0 1.3-1.4 2.9 2.9 0 0 0-1.3 1.4zm52.2 76.5h.6a.5.5 0 0 1 .1-.3zm.7-.2l.7-.2c-.4 0-.6 0-.7.2z" fill="{{colors[0]}}"/><path d="M410.8 524.1l-1.4.6c.5 0 1.2 0 1.4-.6zm-16.6-6.7l-.6.3zm-2.8-3.4c.4.9.3 3.1 1.7 4l.5-.3c-.7.1-.9-.9-1.1-1.8s-.4-1.8-1.1-1.9zm2.4-17.6c0 1 .1 1.9.2 2.9.6-.7 1.4-1.6 1.9-.4.6-2 .3-1.7-.4-1.4s-1.4.8-1.7-1.1zm-.4-8.9c.5 1.5 1.1-.2 1.5-.1s-1-1.1-1.5.1zm-12.8-67.6l.7-1.8c-1.7.2-.2.7-.7 1.8zm-9 15.4l1.1.5-.5-1.7zm-13.8-5.1l.2-.6-1.2 2 1-1.4zm-30.6 79.9H325c.2.8 2.6 1.5 2.2 0zm6.1-48.6c1.2-.4 2.1-1.6 1.1-2.6-.3 1-1.3 2-1.1 2.6zm-68.4 17.9l-.3-1.2c-.1.7-.1 1.3-.2 2zm191.6 50.2c-.6.1-1.9.5-1.6.6l2.3-.4zm-3.8 2.4a19.7 19.7 0 0 0 5.2-.7c-2.2.2-1.3-.1-4 .2-.3-.1.6-.5 1.5-.7s.4-.5-1-.2-1.7 1-.2 1.1zm2.1 4l-.3.2zm0-12.2zm2.3-2.3h-.1c.2.1.3 0 .1 0zm-2.3 14.5l.7-.4c-.8 0-.6.2-.7.4zm3.9-1.9h-.7l.3.2zm-1.4 7zm-10 .5l2.7.5-1.3-.3zm3.5-5.7zm6.5 2.2zM438 423.3zm9.9-4.4zm11.4 98.6c.2.1.1.1 0 0zm-3.8-34.3c-1.7.5-2.3-.5-4.2.1.8-.1 3.1.4 4.2-.1z" fill="{{colors[0]}}"/><path d="M458.4 534.2a.3.3 0 0 1 0 .2c.1-.1.1-.1 0-.2zm-7.1-50.9zm6.1 25.7l-.9.2zm-2.3 6.7l.2-.2zm-.8-9.9c.1-.1.4-.1.1-.2h-.2c.3.1.5.1.1.2zm-.2-3.5h-.3zm-15.5-68.1h1.8c-1.4-.1-1.9-.6-1.8 0zm19 100zm-18.7-27.4l.2-.6a.7.7 0 0 0-.2.6zm-.1-47zm-.1 44.8l1.3-.4h-.5zm1.7-70.5z" fill="{{colors[0]}}"/><path d="M435.9 430.2c-.1.5 2.5.3 4 .5s-1.9.2-3.2.4c.7.4 3 .8 2.9 1.1h-1.1c2 .5.1 1.3 2.6 1.8h2.9c0 .2 1.6.5-.1.5.1-.1-.6-.2-1.2-.3l.7.3c-2.4.2-.8-.4-2.6-.4.8.5 2.8 1.1 2.1 1.5-2.4 0-.8-.9-2.9-.4l.9-.6c-3.8.4.3-.4-3.7 0-.7.8 1.2.9.5 1.6 1.3.2 2 0 3.3.2s-6 .7-2.8 1.6c1.6.2 4.6.4 3 .9l-2.7-.2c-.3.7 3.9.5 2 1.2s-.9-.6-1.2-.5c-2.1.5 1.5.4 1.5.8h-2.4c.4.8 2.1 1.7 2.5 2.6a6.3 6.3 0 0 0-2.2 0c1.2 1.1-.3 2.4-1.7 3.4l2.1.4a2.6 2.6 0 0 1-1.3.1c-.8.4 1.3 0 2.1.2s-1.2.3-1.8.2c1.7.7 3.7 2.1 1.5 2.9l-.6-.2c-.8.6 4.2.7 2.3 1.2h-.4c-.9 1.3 1 2.8-2.1 3.8 3 .2-1.3 1.3 2.8 1.4-2 .8-2.8.6-4.2 1.6s2.6.4 3 .7h-2.2l2.3.5-2.6.3.6.3a3.7 3.7 0 0 1 1.6-.3c1 .5-1.5 1.3-2.6 1.3l1.8 1.2a5.1 5.1 0 0 1-1.7-.4c2.2.6-2.3.1-.2.7h1.7c-1.3.3-1.3 1-.7 1.5h-1.5c-.4.9.7 1.9.7 2.9a6.3 6.3 0 0 1 3.5-.1l-2.3.2c1.4.2.9-.3 2.6 0-.3.4-2.6.3-3.3.1l.8.4H437c1.4.2-2.3.8.2 1.1h-.7c0 1 .8 1.4.9 2.3 2 0 1.5.3 3.1.5-.6.6-2.1 1.3-2 2s1.7.1 2.8.3c-1.8.1-1.6.8-2.9.5.3.9.4 1.1 1.9 2.2a5.4 5.4 0 0 1 1.7-.2c.3.2-.7.5-1.6.5h-.2c2.7 1.1-5.1 3-1.4 3.9h-.2l2 .9c-.3.5-1.4-.2-2.5.2 3 1-.4 1.8 1.7 2.6-5.3.9.5 2.5-2.8 3.6h1.2c1.2.2-.7.3-1 .5s1.1-.3 1.8-.2c1.6 2-1.6 4.4-2.6 6.6s6.5.1 3.5 1.2h-2.3c2.9 1.4.1 3.2 2.5 4.6-.5-.1-1.2 0-1.2-.2-1.7.4 0 1.2 1.4 1.1-.1.2-1.2.1-1.9.3s2.2.7.5 1h-.7c.8.2-.1 1 1.8.7-.9.6.9 1-.2 1.6 2.2.1-1 1.1 2.1.9-3.2.2-2.5 1.2-1 1.4-1-.1-1 .4-2.3.3s.7.8 2.3.6c-3.7 1 3.2 1.3-1.6 2.1a14.5 14.5 0 0 1 3.9 3.2c-3.2.2-.4-1.2-3.7-.9 1.4 1 4.1 1.3 3.5 2.4s-1.4 0-1.9-.1c1.4.9-.1 2.1 1.7 2.8h-.8c.1.2-.4.5 1 .3h-.4c2-.5 4.4.3 5.5.3-4.1 0-.9 1-6.2 1a4.9 4.9 0 0 0 1.9.1 3 3 0 0 1-1.9.2c.8.6 2.3.2 2.4.8h-1.8c1.4.2 2.8.4 2.2.9s-1 .1-1 0 3.7 1.1 2.5 2.2c-3 0-1 .4-3.6.7l.8.4 1.2-.3c0 .5 1.9.7 1.1 1.1l-1.1-.2.6.8.9-.6c1.4.3 3.3-.4 2.6.3s0 .4-1.5.8c.8.1 1.7.3 1.1.7l-3.4.3c2.2 0 .7 1 3 1l-2.2.2h1.8a4.2 4.2 0 0 1-1.9.4c-.3.7 3.3-.5 1.9.3h-.7c-.7.8 1.3 1.3.5 2.1-2.6.5-.7-.5-2.9-.1.6.9 3.4 1.7 2.8 2.7l.3-.2c3.7-.3-1.7.9 0 1.2h-1.7c-.5.7 1.1 1.2 2.3 2.1h-1c-.8.5-.4 1.1-.8 1.5a5.2 5.2 0 0 0 2.2 0c-5.2 1.9 3.2 2.1-1.2 3.7 0-.1-.9-.2-.9-.1l1 .9a9.6 9.6 0 0 0 2.2-.6c1 0 1.7.2 1.8.4s-2.6.3-3.5.6l1.5-.2c-2.8.9 3.2-.3 1.4.6h-.8c.5.2 1.6.3 1.4.6-1.8.3-.9-.2-2.4 0 .1.2.9.3 1.5.4l3.8.6-1-.5c-.6-.3-1.1-.6-.1-.6s.5.5.9.8c2.2 0 1.7-.2 2.1-.4h-.1l1.1-.6h-.6c-2.4-.6-2.6-.9-2.5-1.2s.3-.6-1.3-1.1c3 .9 1.7.3 3.8.5a4.6 4.6 0 0 1 1.9-.2c-1.7-.5 1.4-.5-1.1-1.2.7 0 .1-.4 1.8-.2-.5-.5-1.2.1-2 0s-.4-.8.2-1.2 1.1-1-.5-1.5-3.7-.8-4.9-1.5a5.5 5.5 0 0 1 2.5 0c1-.5.7-.8-.1-1.1a5.9 5.9 0 0 0 1.8-.3c-.2-.3-2.5.1-1.6-.5h3.4c-.7-.3-2-.5-2.7-.8a6.9 6.9 0 0 1 2.6 0 3.8 3.8 0 0 0-3.1-.8l-.6.4c-.1-.1 1.6-.4 1.9-.3s-.6.7-1.2.8l-.5-.2c-2 .5-1.8.7-1.1.9s1.8.4 1.7.7h-2.9l2.5.3a7.1 7.1 0 0 1-2.8.2c-1.4.5 1.1.2-.5.7h-.5l.9.3c-.6 0-2 .2-1.6 0-1.6.7 2.2.8 0 1.2h-.2c1 .8 2.1 0 4.7.6l-5.3.5h2.1c-.1.1-.2.3-1.1.2 1.5.3.9 0 2.3.2-1.9.4.9 1.3-2.5 1.2 1.6.2 1.3-.3 2.4.2-3.7-.1.6.6-1.1.9s-.8-.5-2.6-.3c3.2.5-.8.6-.2 1 2.5.3 1 .8 1.7 1.4a1.6 1.6 0 0 0-1.1.3l6.4.2a7.9 7.9 0 0 1 1.1-1.3h.4c-2.6.2-2.1-.4-2.7-.7a8.9 8.9 0 0 1 2.9 0v-.4a2.8 2.8 0 0 1-1.6-.3h1.9c-.2-.5-2.4-.7-1.2-1.5-1.8.2-4.9 1.1-6.2.6a13.1 13.1 0 0 1 3-.2c-.1 0-.8-.1-.4-.3h1.7c.7-.4-1.4 0-1.2-.2s1-.3 2.1-.4-.5.3 0 .3a4 4 0 0 1 2-.9 4.9 4.9 0 0 1-2 0c-.2-.5 1.6-.4 2.3-.7-1 0 0-.4-2.1-.2 0-.1.9-.3 1.5-.4s-.4-1.2-2.6-.6h-.2c-2.1-.6 1-1.9 0-2.6h.7c-.8-.4-.6-1.1-2.1-1.3a4.3 4.3 0 0 1 2-.5c-.6-.3-1.3-.3-.3-1s1-.2.9.3 1.6-.8-.3-1.1c1.8 0 2.2-.6 1.6-.8l-1.2.5c-.3-.2-.2-.5 0-.7h2.3c2.7-1.3-5-1.3-.3-2.6-1.6-.1-1.1.7-3 .6.3-.5 3.5-1.3 3.5-1.5s-3.4-.3-2.6-1c-.8.2-3 .5-3.8 0s3.4-.9 4.1-.7-.2.2-.5.2a2 2 0 0 0 1.6 0h-.9c.8-.3.7-.9 2-.9a1.8 1.8 0 0 0-1.8.3c1.1-.7-.1-.9.7-1.6l-1.4.2c.9-1-1.6-.3-2-.8 1.2-.5 3-.2 1.9-.7a5.3 5.3 0 0 1 2.9-.2c-1.6-.4 1-1.1 1.2-1.5l.7.2c-.4-.1-.4-.3-.4-.4l-1.6.3a1.2 1.2 0 0 1 1-.4c-1.1-.1-2.7.4-4.3.2.8-.3-1-.6 1.2-.9-.7.8 2.2-.3 2.6.3s-.3-.2 0-.4h.6c1.9-.9-2.5-.1-2.5-.8s2.3-.4 2.1-.5-2.1.3-3 .1c.9-.5-.8-.4-.7-.7l-.4.3c-1.2 0-1.1-.2-1.5-.5s.7.2 1.1.1c-2.2-.2 2.2-1 .7-1.4.8-.3 2.3-.2 2.9-.5-1.7-.4 1.6-.7.3-1.2a4.9 4.9 0 0 1-2.9 0l1.3.9-2.5-.4c0 .3 1.1.5.8.7a4.2 4.2 0 0 0-2.3.1c2.5-.6-1.5-.7.1-1.3l4.1-.3c1.8-.8-2.2-1.1-1.2-2.1l-.7.3c-1.6 0-.3-.5-1-.8a12.2 12.2 0 0 0 2.7-.5c-1 .1 0-.7-2.7-.5l1.8-.5c.7-.8-4-.5-3.6-1.3s2.5-.3 3.6.1.2-.5-.7-.4c.9-.2-1.9-.5-.6-.8-.6-.1-2.1 0-2-.3h.7a6.5 6.5 0 0 0-2.5 0c4.2-1-.4-2 3.2-2.9a4.2 4.2 0 0 1-1.1-1.5c.4 0 .7 0 .6.1s-4-.1-2.6-1 1.2.3 2.1 0c4.5-.4-.7-.8 1.9-1.5h.3c1.5-.5-1.8-.8-1.5-1.4h.7a6.2 6.2 0 0 1-3.8-1.6 8.5 8.5 0 0 0 2.8 0c-.3-.3-2.9.2-3.4-.3a17 17 0 0 1 3.7-.8v.5c2.5-.4-.1-.6.3-.9h1.1c-.4-.7-3.1-.6-3-1.4h-.8c-2.7-.3 1.5-.5-.5-.8l2.8-.3a15.1 15.1 0 0 1-3.3-1.4 21.1 21.1 0 0 1 4.4 1.1c0-.3-.3-1-1.6-1.1.3.1 1 .2.5.4-2.2-.2-3.3-.7-3.3-1.3 5.4-.2 1.3-1.6 5.4-2.2-2-.9.8-2.1.4-3.3-4.1.6-.1-.3-4.4-.1-.3-.3-.2-.4.1-.4l2.5-1c1.2-.3 1 .2 1.9.2s1.8-.3 2.9-.8c-1.5.1-2.2-.1-1.6-.5l-1.9.6c-2.3-.8 3.6-.9 1.3-1.7l1.4.2c-.8-.4 0-1.6-3.5-1.9a4.7 4.7 0 0 1 2-.1c.5-1.1-3.7-2.2-1.7-3.1h1c-.3-.2-2-.3-.9-.6h1.1c-.4-.1-1.9-.5-1.3-.8l1.2.2c1.3-1.1-2.9-1.5-3.7-2.4 3.1-.1 4.1-.9 4.6-1.3h.4c.4-1.2-2.6-2-3.8-3.1 3.3-.8 1.3-2.4 3.2-3.5a6.4 6.4 0 0 1-2.7-.2c.6-.3-2.1-.7.7-.7h-.1c2.8-.2 2-.8 2.1-1.2h-3.7c5.4-1.2-2-2.9 2.8-3.5-.9-.3-.9-.6-1.8-.8h2c.5-.7.8-1.1.3-2l1.4.2c.1-.5-5.7-.6-5.8-1.1l3-.2c0-.9 2.5-1.8-.1-2.7a3.9 3.9 0 0 1 1.4.2c.1-.4 2-1.6-2.1-1.5 2.6 0 .3-.9-.9-1.4h1.9c-2.5-.4-3.2-.4-3.9-1s1.6-.1 1.1.1c1-.4-1.8-.4-.8-.9l1.2.2c.2-.5-.5-.4-2-.7s.5-.9 2.3-.9c-1.1-.1-2.5-.3-2-.6h.9c1.3-.8-2.3-1.2-.3-1.7h1.2c-.1.6-.2 1.1-.3 1.1 1.8 0 2.1-.5 4.6-.1-1.4-.4-4.3-1.1-3.4-1.6h.8c.2-.1 0-.2-.3-.3s.5-.2.5-.4.8-.6.9-.8c-2 0-1.6-.3-3.3 0 .1 0 .2.1.3.2a3.2 3.2 0 0 1 .1.6c-1-.2-1.8-.4-.7-.7l-3.2-.4c2.8-.3 4.2-.9 5.9-1-1.1-.8-.7-1.8-4.4-2.3-.5-.2 1.1-.2 1.6-.3s.3.3.8.4-.3-1.3-2.9-1.4c1.2-.5 2.4.4 2-.4h.8c4.1-1.4-6.5-2.5-1.2-4l-.9.2c2.4-1.8-2.1-3.9 1.7-5.6.8-.5-.9-.6-2.1-1h2.1l-2.4-.6c-1.8-.8 5.2-1.1 1.9-2.2h-1.4c.3-.3-.8-1.1.8-1-.3 0-1.5-.2-.7-.3h1.1l-1.9-.9c.8-.6 4.4.3 4.6-.7a10.1 10.1 0 0 0-3.9-1.1c-.1.1-.7.3-1.8.3l-.6-.4c-3.3-.2-6.6-.6-8.9.1l2 .7h-1.6v-.5c-1.5.2-.2.4.7.7l-1.7.2 3.1.7c-1.3 0-2.5-.4-3.2 0 1.4.3 2.9-.1 3.8.3-1.5.2-2.7.1-1.4.5a4.6 4.6 0 0 1-1.7-.2c1 .3.4.8 2.1 1-1.8.2.4 1-2.6.8a6.8 6.8 0 0 1 2.5.9c-3.7-.6-.3 1-4.2.7 3.3.5 1.4 1.3 3.2 2l-.6-.2c-.3.3-1.3.4-1.9.6 2.7.1 3.4.7 5 1.1-2.7.4-3.2-.4-5.8-.3 2.2 0 2.2.8 4.1.7a12.5 12.5 0 0 1-3.1.4c3.4.2.6.3 2.7.7-1.7.4-3.2 0-2.2.6a4.4 4.4 0 0 1-2.4-.9zm5.7 12.7zm0 1.1a.8.8 0 0 0 .1-.5c.7 0 1.4 0 1.3.1a3.9 3.9 0 0 0-1.4.4zm13.7-2.1c.3.2-.1.2-.5.2l-.2-.3h.7zm-2.7-.3zm1.9 94.6zm-16.7-77.6h.5-.5z" fill="{{colors[0]}}"/><path d="M448.4 542.7zm8.4 1.3l.8-.3zm1.2-2.1zm-16-25h-.1c-.4-.2-.2-.1.1 0zm5.4 8.7l-1-.2c-.1.2-.1.3 1 .2zm-8.6-18.7z" fill="{{colors[0]}}"/><path d="M446.5 525c-.4.2-.3.3 0 .4s.3-.3 0-.4zm12 7zm-.2 0zm-.8-.3l.5.2c0-.1.1-.2-.5-.2zm.5 3.4zm.3.9c.1-.2 1.5-.7 1-.9h-.6c1.1.1-1.6.8-.4.9zm-8.8 3.5l.6-.6c-.8.1-1.8.2-2-.1-2.2.7 1.8-.1 1.4.7zm-1.2 1.6c-.3-.3-1.1-.1-1.5-.2a2 2 0 0 0 1.5.2zm7.2-9.6l1.8-.2c-.3-.2-.7.1-1.8.2zm-9.5-1.8l-1 .4h1.6l-.6-.4zm12.6-2.9l.2.1-.7-.4.5.3zm-2.7-24l-2.2.2c.4.2 2.9.1 2.2-.2zm-2.9-10.2c1.1-.2 1.8-.5.7-.6s-1 .5-.7.6zm2.5-31.4l.7.2-.6-.4-.1.2zm-1.8-82.8c.2-.6.5-1.9.4-1.7l-.6 2.2z" fill="{{colors[0]}}"/><path d="M454.6 374.2c-.3 1.1-.8 3-1.3 5.1l1-3.8a10.4 10.4 0 0 1-.3 1.6c.2-.6-.1.5.3-.9s.4-1.8 0-.4zm-1.8-4.2zm-1.3-1.5zm.3-2.6zm1 4.1v-.7.7zm.1 9.5l.2-.6v.6zm1-11.1l.2-.9zm.7-.3l-.6 2.7.3-1.3zm.1 3.6zm-1.1-3.8zm-20.4 8.6l.2-.3zm6.5-8.8l.5-.8zm12.1-4.4c.1-.2.1-.1 0 0zm-4.6.5c-.4 1.7-.6 2.2-1 4.1.1-.8.7-3 1-4.1zm5.8 15.5zm-6.8-11.5zm4.2-3.6l-.2.8zm.3 3zm-1.3-.3c0-.1.1-.4 0-.2v.2c0-.2.1-.4 0 0zm-.4-.1v.4zm-14.2 9.8l.9-1.5c-.8 1.2-1.1 1.6-.9 1.5zm18.4 1.8l-.2.8zM446 382v-.3.3zm-6.2-3.5zm5.9 3.4l.3-1.3v1.3zm-10-6.8z" fill="{{colors[0]}}"/><path d="M432.4 378.5a37.1 37.1 0 0 0 2.3-3.3c.5-.5-1 1.6-1.7 2.8.5-.5 1.8-2.5 1.8-2.4l-.6.9c1.2-1.7.3.1 1.7-2.1l-.3.6 1.8-3c.1 0 .9-1.4 0 .1l-.6 1 .4-.6c-1.2 2.1-.5.7-1.4 2.2.5-.6 1.6-2.3 1.3-1.7s-.6.6-1.5 2.5l.4-.8c-1.8 3.3.1-.3-1.9 3.2-.2.7.8-.9.6-.2l1.6-2.8c1.3-2-2.8 5.3-1.1 2.6s2.2-4 1.6-2.5l-1.3 2.4c.1.3 1.9-3.4 1.2-1.7s-.5.7-.7 1c-.8 2 .8-1.3.9-1.3l-1 2.1a18.9 18.9 0 0 0 1.6-2c-.3.6-.6 1.3-.9 2 .7-1 .4.5.1 1.9l.8-1.9-.5 1.2c-.2.8.5-1.2.8-2a10.9 10.9 0 0 1-.6 1.7c.8-1.6 1.7-3.4 1.1-1.3l-.2.6c-.2.8 1.5-3.9 1-2.1v.3c-.1.9.8-.8-.1 2.2.9-2.8-.2 1.3 1.1-2.6-.5 2-.8 2.7-1 4s.8-2.4 1-2.8l-.6 2.1.7-2.1-.7 2.5.2-.5.4-1.5c.4-.9-.3 1.5-.6 2.6l.7-1.7-.6 1.6c.7-2.1-.6 2.2 0 .3l.5-1.6c-.3 1.3-.2 1.3 0 .8l-.4 1.4c0 .4.5-.6.6-.5s.8-3.2 1-3.4l-.6 2.2c.4-1.4.2-.8.7-2.5 0 .3-.7 2.5-.9 3.2l.3-.7-.5 1.8c.4-1.4-.5 2.2.2-.1l-.2.7c.2.1.4-.7.6-.8.5-1.9.4-1.5.9-3-.1.6-.4 2.1-.2 2s.4-1.6.8-2.7c-.5 1.7-.3 1.6-.7 2.8s.3-.3.8-1.7l.4-1.6a8.3 8.3 0 0 1-.3 1.6v.2c.8-2.6-.9 5.2.2 1.6v.2l.6-1.9c0 .3-.4 1.3-.6 2.4.9-2.9.1.5.7-1.4-1.2 5.2.4-.3-.2 3l.3-1.2c.3-1.2-.1.7-.2 1s.2-1.1.4-1.8.2 1.9.2 3.1 1.5-6.3 1-3.3l-.6 2.2c.8-2.7.4.2 1.2-2.1l-.2.8v.4c-.3 1.6.1.1.4-1.2s-.3 1.2-.4 1.9.6-2.1.2-.4l-.2.7a6 6 0 0 0 .5-1.7c-.1.9.3-.8.1.3.5-2.1-.1 1 .6-1.9-.7 3.1-.4 2.5-.1 1.1-.2.9-.2 1-.5 2.3a9.1 9.1 0 0 0 .6-2.2c-.7 3.7.9-2.9-.1 1.8.5-1.6.9-2.7 1.2-3.4-.7 3.1-.2.3-.9 3.5.4-1.2 1.1-3.9 1.1-3.1s-.3 1.3-.4 1.9c.4-1.2.2.3.7-1.3l-.2.8c0-.1 0 .5.3-.9v.4c.4-2 1-4.2 1.3-5.3-.9 4-.1 1-1.3 6.1l.4-1.9c0 .3-.1.8-.4 1.9.3-.7.5-2.2.6-2.2l-.4 1.7c.3-1.3.7-2.6.6-2l-.2.9c.2-.2 1-3.5.8-2.2-.7 2.9-.2 1-.7 3.5l.2-.7.2-1.2c0 .1.5-1.8.4-.9l-.3 1 .2-.5v-1a18.3 18.3 0 0 1 .6-2.5c-.1.3.1 0-.2 1.6.2-.8.4-1.7.3-1l-.7 3.4c.5-2.1.3-.6.8-2.8l-.5 2.1.4-1.7-.4 1.9c0 .3.7-3.2.5-1.8l-.2.7c-.1.7.4-1.1.3-.2-.5 2.6-.2.6-.7 2.8.2-.4.9-3 .9-2.4v-.3c.8-3.6-.3 1.8.1.1l-.4 1.6c0 .6.4-.9.7-2l-.2.9c-.1.8 0 .5 0 .9s.2-.8.5-2.1c-1 5.3.9-2.8.1 1.7v.8l.3-.8c.3-1.6.2-1 .4-2.2l.3-1.2.2-.5c-.3 1-.6 2.5-.7 3.4l.3-1.5c-.6 2.8.7-3.2.4-1.3l-.2.8a8.9 8.9 0 0 1 .4-1.3c-.4 1.8-.2.8-.6 2.3.1-.1.9-3.4.5-1.6l-.3 1a9.5 9.5 0 0 0-.3 2v.4c1.1-4.7.3-.8 1.1-3.9-.8 2.9-.4 1.7-.9 3.8s-.2 1.2-.4 1.8c.4-1.7-.2 1.3.4-1.1-.2.7 0 .1-.4 1.7.2-.5.3-1.2.5-2s-.5 2.8.4-.3c.4-1.3.9-3.5 1.3-4.6-.2 1.1-.6 2.4-.6 2.4s-.1.8.1.1l-.4 1.8c.1-.2.6-2.4.4-1.4l-.7 2.7.7-2.4c-.3 1.2-.5 1.7-.6 2.5a27.3 27.3 0 0 0 .8-2.8v-.7l-.5 1.9c-.4 1.4.1-.6.3-1.3v-.4c.9-3.9-.3.6-.3.4l.7-2.8-.6 2.3c.2-.7.5-2.3.7-2.7s-.3 1 0-.6v-.5l-.2.8c.2-.6.5-2 .4-1.6.3-1.7-.6 2.1-.2-.1v-.2c-.3.9-.5 2.1-1.2 4.5l1.1-5.1-.5 2.1a7 7 0 0 1 .2-1.1c-.4 1.4-.2.9-.5 2.2.4-1.9-.4.8.4-2.5-.4 1.6-.2 1.2-.5 2.3.8-3.6-.2.6.1-1.1s.3-.9.6-2.5c-.7 3.1 0-.7-.1-.1-.6 2.5-.3 1-.6 1.8.2-.8.2-1.4.3-2.3v-.4a10.1 10.1 0 0 1-.7 2.5l.7-2.8h.4l-.4 1.5.4-1.9c-.1.1-.6 2.2-.4.9-.4 1.7-1 4.9-1.4 6l.7-2.9c0 .1-.2.8-.1.4l.4-1.6c.1-.7-.3 1.3-.3 1.2l.4-2c0-.1-.1.6 0 0s.2-1.1.4-2.1c-.2.8-.4 1.8-.5 2s.3-1.6.5-2.3c-.2.9-.1 0-.5 2v-.6l.2-1a12.2 12.2 0 0 0-.7 2.4c-.6 2 0-1.2-.3-.4v-.7a13.1 13.1 0 0 0-.6 1.9v-.7l.3-1.3c-.2.5-.3 1.3-.2.1s.2-1 .2-.9.3-1.7-.2.1c.4-1.7.4-2.2.3-1.7l-.2 1.2c-.1.2-.1.1-.1-.1l.5-2.3c.5-2.8-1.3 4.7-.4 0-.4 1.6-.2 1.1-.6 3 0-.2.2-1.1.3-1.9l.3-1.7c.2-1.3-.8 3.3-.7 2.4-.2.8-.6 3-.9 3.7s.7-3.4.8-4.1a1.7 1.7 0 0 1-.1.5 13.8 13.8 0 0 0 .4-1.5l-.2.8a19.3 19.3 0 0 1 .4-2.1 12.2 12.2 0 0 0-.4 1.8c.2-1.2-.1-.1 0-.9l-.2.9v.5c.1-1-.4 1.5-.5 1.9.2-1.2.7-3 .4-1.9.1-.8.5-2.2.6-2.8-.4 1.5.1-1.1.1-1.4l.2-.6-.1.4-.3 1.6a7.2 7.2 0 0 1 .2-1c-.3 1.1-.6 2.7-.9 4.1.1-.8-.3.9.2-1.3-.1.8.5-2.2.6-2.5s-.1.2 0-.1v-.6c.3-1.9-.6 2.4-.7 2.4a18.6 18.6 0 0 0 .4-2.1v.3l-.2.8-.4 1.8c.1-1-.2.7-.2.6v.5a7.3 7.3 0 0 1-.4 1.4c.2-.9.2-.6.3-1.1-.5 2.1.4-2.2 0-.8l.6-2.8c-.4 1.6.3-1.7-.1-.4s-.2 1.2-.6 2.8l.4-1.1-.6 2.4s.3-1 .3-.7-.2.9-.5 2.3c.5-2.5-.4 1.4-.1-.3l.9-4c.3-1.8-.6 2-.5 1v.7c-.4 1.6-.1.2-.3.8.3-1.3.4-1.8.6-2.7-.2 1-.1-.1-.7 2.6l.3-1.8c.1-.7-1 3.8-1 3.3s.5-2.4.8-3.5 0-.3-.2.7c.2-.8-.5 1.8-.2.5-.1.6-.5 2-.5 1.9v-.7c-.1.7-.3.9-.6 2.4.8-4.2-.3.2.4-3.4l-.4.9v-.5c.2-1.3-.9 3.9-.7 2.4s.3-1.2.5-2c1-4.4-.3.6.3-2v-.3c.3-1.5-.5 1.7-.5 1.3l.2-.7a31.2 31.2 0 0 1-1.1 3.6c.4-1.7.2-.9.6-2.7-.1.2-.6 2.8-.8 3.3s.3-1.8.8-3.7h.1c.5-2.4-.1.1 0-.4l.3-1.1c-.2.3-.8 3-.9 2.8l-.2.8c-.7 2.6.3-1.5-.2.5l.6-2.7c-.2.6-.7 2.6-.9 3.1.5-2 .8-3 1.2-4.2s-.2.2-.5 1.5c.1-.3.3-.9.2-.5a15.5 15.5 0 0 1-.9 3.1c1.3-5.2.1-1.4 1-5.4-.6 1.9-.1-.9-.3-.6-.9 4.1-.1.1-1.1 4.3-.1.3-.1.2 0-.1l.5-2.5c.3-1.2.3-.9.5-1.8s.4-1.8.6-2.9c-.4 1.5-.6 2.1-.5 1.5l-.4 1.9c-.7 2.2.8-3.5.1-1.3l.4-1.3a13.7 13.7 0 0 0-1.1 3.2l.5-1.9c0-.5-1.2 3.5-.8 1.4l.3-1c-.1.3-.5 1.9-.3.9l.3-1.1c-.1.3-.5 1.8-.4 1.2l.3-1.1c.2-1.4-.9 2.7-1.2 3.4.8-3 1-4 1-4.5v-.4c0-.4-.9 2.4-1.3 3.5.8-3.2.1-1.4.5-3.3l-.8 2.6c.1-.6-.7 2 .1-.7.8-2.7.5-2 .5-2.1l-1.1 3.5c1.4-5.2-.9 1.8.5-2.8l-.6 1.7.6-1.9c.1-.5.1-.8-.1-.3l.5-1.3c0-.1-1.8 5.4-1.9 5.5l.9-2.8c-.1 0 .7-2.5-.3 0l.5-1.3c0-.1.6-1.9-.8 1.9.9-2.5 0-.3-.4.8l.7-1.8c-.9 2.3-1.1 3-1.4 3.6l.4-1c.3-1-.7 1.7-.4.7l.5-1.2a13.3 13.3 0 0 0-.8 1.8c-.3.7.1-.5.8-2.1a12.8 12.8 0 0 1-.8 1.8l.5-1.2c.5-1.2-1 2.1-.2.3l.5-1.1a.6.6 0 0 1-.1.3l1.8-4.2-1.4 3.2.2-.6v.1l.2-.5.4-.8v.7l-1.4 3v-.3h.1c-.4.9-.8 1.7-.3.7l-1.4 2.9c1.1-2.5 1.8-3.8 2.5-5.3a44.1 44.1 0 0 1-2.1 3.9l.8-1.4.4-.7c-.5.8-.2.3-1.5 2.5.5-1 1.2-2 .9-1.7l.4-.7c1-1.8.2-.4-.7.9s-1.6 2.3-.2.1l-.5.8c.6-1 .2-.6 0-.4s-.3.3.7-1.2l-1.1 1.6 1.2-1.6-1.3 1.8c-.9 1.3 2.8-4 1.1-1.5l-.7 1.1c.2-.2-.3.6.5-.6l-.4.5.6-.8-.9 1.4 2.3-3.4-1.9 2.8-.9 1.3-.2.4-2.9 4.4-2.6 3.8 1.2-1.9-1 1.5c-1 1.4-.2.1.4-.7l-1.1 1.6 1.9-2.9-2 2.9 2.3-3.5c-1 1.3-1.7 2.4-.9 1.3l-1.1 1.6 1.3-1.9c-1.2 1.6.2-.4-1.7 2.3l1.5-2.2-2.6 3.6 2-2.8-.4.5-1.1 1.6c1.6-2.3 2-2.8 3-4.1-1.5 2.3-1.9 2.7-3.4 4.8 1.3-1.9 1.4-1.8 2.4-3.3l-1.7 2.6a23.5 23.5 0 0 1 1.6-2.2c-.9 1.5-1.8 2.7-1.1 1.9a19 19 0 0 1-1.2 1.5zm5.5-3.7zm.2.1h-.1l.6-1.2zm5.3-12.6l-.2.5v.4z" fill="{{colors[0]}}"/><path d="M442.3 364.7h-.1l-.2.4.3-.6zm10.5 5.7zm-13.4 9l.1-.5-.1.4v.1zm12.7-2.3zm.2.5zm0 1l.2-.8zm-4.4 1.4zm2.1-4.2l-.2.9c0 .1 0 .2.2-.9zm-4 6.2zm3.8-5.4c-.1.4 0 .3 0 0s0-.2 0 0zm3.3 3.1v-.1zm.1-.2zm.2-.7zm-.4 0l-.2.7zm-.1.2c0 .2-.3 1.5-.2 1.1v-.6c-.1 1 .5-1.7.2-.5zm1.6-8.7v.6c.2-.7.4-1.7.4-1.9.4-2.3-.4 1.6-.4 1.3zm-.1-1.2c.1-.3.2-1.1.3-1.5a11.8 11.8 0 0 0-.3 1.5zm-1.9-.4l.4-1.7c-.1.2-.2.6-.4 1.7zm-2.3 9l-.2 1.1.3-1.6-.1.5zm2.5-12.6v-.2l-.1.6.1-.4zm-3.3 0l-.5 2.2a20.9 20.9 0 0 0 .5-2.2zm-1.8 1.9c.2-1.1.4-1.8.1-.7s-.2.9-.1.7zm-2.7-4.4l.2-.7-.2.5v.2zm72.3 194.5c.7.1 1.9-.4 1.4-1.2h-2.4zm2.6-6.8c-1.4-.7-3.6-1.3-5.5-.1 2.4.4 1.6.9 4.4 1.2.5.8-.3 1.7-1.2 1.8.7.1-.1 1.4 1.4 1.5 1.4-1.6 1.1-3-.7-4 .5-.5 1.1-.4 1.6-.4zM508.7 467l-.2.6a1 1 0 0 0 .2-.6zm-2.6-52c.1.4.3.5.5.6s-.3-.7-.5-.6zm2.1-9v.5c0-.2.1-.4 0-.5zm.5 61l.6-1.5c-.7 0-.4.8-.6 1.5zm2.7 73.3a1.9 1.9 0 0 0 .8.6l-.4-.6zm1.8-50.8v.4l1 .2zm3 17.2c0-.4-1.9-.2-2.8-.2.8.1 1.3.3 1.5.6zm2 27.9l.4.4zm-6.1-57.6l.7-.2zm-15-30.9l-.3-.2c.1.2.2.3.3.2zM478.6 459v-.3l-.9-.6zm31.2-69.4c.2.4.1.2 0 0zm1.8-145.5c-1.1.3-1.4-.4-1.8-1.1s-.7-1.3-2.1-.6c.4 0 .9.8 1.6 1.4a1.7 1.7 0 0 0 2.3.3zm-.1 295.7l-.2-.7a1.2 1.2 0 0 0 .2.7zm-3.7-297.4l-.3.2zm-1.1 109.8l-.8.4a1.8 1.8 0 0 0 .8-.4zm-1.4 28l.2-.7a1.5 1.5 0 0 0-.2.7zm-1.8-42.3c.1-.4.4-.5.1-1l-.2.2c.2.1.4.3.1.8zm-.4-15.1l-.4.3v.5zm15 81.3a6.6 6.6 0 0 1-1.9-.1c1.4.4 1 2.7 1.9.1z" fill="{{colors[0]}}"/><path d="M512.4 540.1c-.5 0-.8 0-.9-.2l.2.5a1.2 1.2 0 0 0 .7-.3zm-24.5-202.4l.2-2.4a9.4 9.4 0 0 0-.2 2.4zm53.9-42l.2.6a.5.5 0 0 0-.2-.6zm-54.1 32.4a3.7 3.7 0 0 0 1.3-1.4l-.5-.3zm28.5 76z" fill="{{colors[0]}}"/><path d="M513.4 420.9c1.1-2.1-1.8-2.2-2.9-3.3.6-2.8 2.3-.3 3.9-.6.2-1.9-1.4-4.1-.7-5.3s.7-.1 1 .4c-.5-1.3.1-2.5.6-3.8s.9-2.7.2-4.2h.7a11 11 0 0 1-3.4-1.1c.4-1-.7-2.4 1-2.1-.3.6.3.9.7 1.4l-.2-1.3c2.6.1.2 1.7 1.8 2.4.1-2.3-.7-5.3.6-6.6 2.3.6-.8 3.8 2 2.6l-1.9 2c4.2-.3-.9 1.3 3.5 1.3 2-2.8.4-3.9 2.3-6.8-1-1.2-1.9-.5-2.9-1.7-.5-5.3 6.9-1.4 5.2-5.8-1.2-1.4-3.8-2.7-1.6-4.5l2.3 1.7c1.3-3-3.1-3-.3-5.7.8.9 0 2.7.5 2.3 2.7-1.4-.9-2-.4-3.6l2.4.4a26.6 26.6 0 0 0 .5-5.5 36.4 36.4 0 0 1 .3-5.8c.6.4 1.2 1.2 2.1.6.3-5 2.9-9.9 5.4-14.2l-1.6-2.2a.8.8 0 0 1 1.4 0c1.2-1.6-1.2-.4-1.9-1.4s1.4-1.1 1.9-.3a23.3 23.3 0 0 1-1-6.5 9.2 9.2 0 0 1 1.9-6.1l.5.8c1.2-2.5-3.7-3.6-1.4-5.7l.3.5a27.7 27.7 0 0 0 .9-4.2c.1-.7.2-1.4.3-2.2l.2-2.1c.3-2.8.9-5.4 2.7-7.4-1.4-.6-.9-1.9-.6-3.3s.4-2.6-1.6-3c2.3-3.1 2.9-2.1 4.6-6.6.3-1.2-2.5-2-2.9-3.5h2.2l-2.2-2.1 2.6-1-.5-1.4a1.7 1.7 0 0 1-1.6 1.1c-.9-2.2 1.6-5.4 2.8-5.4-.5-1.8-1.2-3.5-1.8-5.3.9.1 1.2 1 1.7 1.7-2.2-2.8 2.3-.5.2-3.1-.5.4-1.3-.2-1.7-.2 1.3-1.3 1.2-4.2.7-6.4l1.5.4c.2-4-1.2-8.2-1.4-12.6-.6 1.6-3.2 1.5-3.5.2l2.2-.7c-1.5-.7-.7 1.4-2.6-.1.1-1.6 2.5-1.3 3.3-.4l-1-1.9c.7-.2 1.1.3 1.9.3-1.5-.7 1.9-3.7-.6-4.6l.7-.2a34.8 34.8 0 0 0-.9-5.3 42.9 42.9 0 0 1-1.2-4.6c-2 .2-1.7-1.2-3.5-2.1.1-1.3.5-2.8.7-4.3a11.7 11.7 0 0 0-.1-4.6c-1.4-2-1.8-.3-3.1-1.1a1.5 1.5 0 0 0 .9-.7l.2-.6v-.8c.2-1 .3-1.8 1.2-.6a39.8 39.8 0 0 0-2-7 15.4 15.4 0 0 0-4.2-5.7c-.1 1.2.1 2.1-.5 2.3a2.8 2.8 0 0 1-.6-1.7 2.2 2.2 0 0 1 .3-1.6h.3c-1.5-.8-2.9-2-4.6-3.1l-1.4-.7-1.4-.6a15.5 15.5 0 0 0-2.9-.8 12.6 12.6 0 0 0-3-.2 13.8 13.8 0 0 0-3 .8 8.2 8.2 0 0 0-4.6 4.1l.2-.4a16.1 16.1 0 0 0-1.2 1.5l-1 1.7-1 1.6-.5.8-.4.8c-1.1 1.1-1 .5-1-.3s.2-1.7-1-1.2a25.5 25.5 0 0 1-1.2 2.8l-.3.6-.2.5-.4.8a26.3 26.3 0 0 1-1.8 2.8c-1.2 1.7-2.4 3.4-2.4 5.8a4.8 4.8 0 0 0-3.3 2.5 13.3 13.3 0 0 0-1.3 4.4c-.6 3.2-.6 6.4-2.6 8.3h1.3c1 1.3-.9 1.2-1.3 2s1.3-1 1.9-.2a62.4 62.4 0 0 1-2 14.1c-.5 2.3-1.2 4.6-1.7 6.9s-1.1 4.6-1.5 6.9 6.4 2.2 3.2 6.2l-2.3-1.3c2.5 6.8-.4 13.8 1.9 20.4-.5-.4-1.2-.4-1.2-1.1-1.7 1.4-.1 5.2 1.3 5.2-.2 1-1.2.2-1.9.9s2.2 3.5.5 4.2-.5-.4-.7-.6-.2 4.2 1.8 3.4c-.9 2.5.9 4.7-.2 6.7 2.2 1.2-1 4.2 2.1 4.6-3.2-.1-2.5 4.4-.9 5.9-1-.5-1 1.4-2.3.8.1 1.8.7 3.4 2.3 3-3.7 3.4 3.3 6.5-1.5 8.5a103.8 103.8 0 0 1 4.2 14.7c-3.2 0-.6-5.2-3.9-4.9 1.5 4.4 4.3 6.9 3.8 11.4-.4 1.2-1.4-.6-2-.9 1.5 4.4.2 8.7 2.1 12.6-.3 0-.6-.4-.9-.8s-.4 1.8 1.1 1.7l-.4-.7c2-1.4 4.5 2.9 5.6 3-4.2-1.1-.8 4-6.1 2.2a1.9 1.9 0 0 0 2 .9c-.2.8-.8 1.1-1.9.3.9 2.8 2.4 1.7 2.5 4.2-.7 0-1-.5-1.8-.7 1.4 1.2 2.9 2.4 2.4 4.6-.4-.1-1 .2-1-.5.4 3.7 4 6.1 2.9 10.2-3.1-1-.9 1.4-3.5 1.8l.9 2.1 1.2-.9c.1 1.9 2.1 3.5 1.3 5.2l-1.2-1.4.7 3.5.9-2.1c1.5 1.8 3.3-.4 2.7 2.2-.3-.5.1 1.9-1.4 3 .9.9 1.8 1.8 1.3 3.3s-2.9-.1-3.4.2c2.2.8.9 4.4 3.3 5.5a3.4 3.4 0 0 0-2.2-.1l1.8.7c-.5.9-.8 1.1-1.9 1-.1 2.7 3.2-1.1 2 2.2-.2-.2-.4-.1-.7-.6-.5 3.2 1.5 6 .9 9-2.6 1-.8-2.5-3-1.4.8 4.2 3.8 8.5 3.5 12.6l.2-.8c3.7.3-1.6 3.2.3 5.1-.3-.5-2.1-.5-1.7-.4-.4 2.8 1.4 5.6 3 9.7l-1-.4c-.7 1.7-.1 4.4-.3 6.2s1 1.5 2.3.7c-2.4 3-1.4 5.5-.3 8s2.4 4.7.4 7.4c-.1-.6-1-1.3-.9-.8l1.4 4c1.6-.5.9-.7 2-1.7a3.4 3.4 0 0 1 2.1 2.5c-1.3-1.7-2.6.4-3.4 1.3s1.1 0 1.5-.1c-2.6 2.5 3.3-.1 1.8 3.1h-.9c.6 1 1.8 1.9 1.8 3.1-1.8.8-1-1-2.6-.9.3 1.7 4 2.7 2.4 4.5-.6-.6-.8-1.6-1.4-2.3-1.9 2-1.3 2.1-1.5 3.3l-.5 3 .5-.8c2.6.6 3 1.7 3.2 2.8s.2 2.4 2.1 3.5c-3.5-2.2-1.8-.1-3.9 0-.5.8-.9 2-1.5 1.8 1.9 1-.9 2.5 1.9 3.9-.7.2.2 1.4-1.5 1.4.9 1.6 1.1-.6 2-.6 2.8 2.2-1.5 6.8 2.4 9.9 2 3 4.4 3.1 6.2 5.8-.8 1.3-2.6-.3-2.6-.3a4.1 4.1 0 0 0 1 4.4c-.7-.2-1.1.3-1.7.9s2.6.2 2.1 2.1a10.2 10.2 0 0 1-3-.6c1 1.3 2.6 2.4 3.6 3.8-1 .7-2-.5-2.9-.8.9 1.6 2.1 4.1 4.1 4.2l.3-1.2c.3.6-1.5.7-1.9.4s.1-2.3.7-2.5l.7 1c3.6-2.1-1.7-4.1-2-6.3l3.1.2-2.9-1.6c.6-.6 2.1-1.3 2.8-.4 1-1.9-1.3-1.1-.1-2.8s.4-.2.5-.1l-1.2-1.3c.7.2 1.9-.7 1.7.3 1-3.1-3.1-3.9-1.2-5.4l.2.2c-1.8-3.5-2.2.1-5.2-2.2l4.8-3h-2.2c0-.4 0-1.2.9-1.2-1.7-1.2-.9.4-2.4-.1 1.5-2.2-1.9-5 1.4-6.1-1.7-.4-.9 2-2.4.2 3.5-1.2-1-2.2.3-4.2 2 .2 1.3 2 2.6 0-3.3-.5.1-3.4-.8-4.8-2.5.4-1.5-3-2.8-5.3.9 0 .6-4.8 1.3-7.2h.4c-2.6-.1-2.5-2.5-3.2-4.1a3.1 3.1 0 0 1 3 .9l-.2-1.6a2.6 2.6 0 0 1-1.8-1.7l2 .2c-.4-2.1-2.8-4-1.8-6.9-1.8.1-4.7 2.8-6.2 0 .9-.2 2.6-.5 3.1.2s-.9-.8-.6-1.3l1.8 1c.6-1.3-1.4-.5-1.4-1.5s.9-.9 2-.8-.5.9.1 1.3a4.3 4.3 0 0 1 1.8-3.2c-.8.2-1.8.2-2.1-.6s1.6-.9 2.1-2.2c-1-.4-.2-1.9-2.2-1.7-.1-.6.9-.8 1.4-1.1-1-1-.8-5.1-2.9-3.7v.1c-2.4-3.4.4-7.7-.8-11.2h.7c-1-2.1-.9-4.8-2.5-6.2-.1-.6 1.1-1.6 2-1.4-.6-1.6-1.4-1.7-.5-4.2 1.3 1.6 1-.7 1 1.6.4-2.2 1.5-2.8-.6-4.9 1.8.7 2.1-1.8 1.5-2.8l-1.2 1.6a8.2 8.2 0 0 1-.2-3.2l2.4.4c2.5-4.6-5.4-7.6-.8-11.2-1.7-1.1-1 2.5-3 1.5.2-2 3.4-4.4 3.4-5 1.1-2.8-3.6-2.4-2.9-5.3a2.7 2.7 0 0 1-3.9-1.2c.2-2 3.3-2.7 4.1-1.5s-.2.7-.4.7.7 1.5 1.6.6l-.8-.2c.8-1.1.5-3.8 1.9-3.3-.9-1.5-1.4-.6-1.8.6 1-2.7-.2-4.1.5-6.8-.4.5-1.4.9-1.4.5.8-4-1.7-1.6-2.2-4.3 1.2-1.6 3 .4 1.8-2.2.8-1.7 2.2-.5 2.9.1-1.7-2.3.8-4.6 1-6l.7 1.2a3.9 3.9 0 0 1-.5-2l-1.6.8c.2-.8.2-1.4.9-1.4-1.1-.7-2.7.8-4.3-.7.8-1.1-1.1-3 1.1-3.5-.6 3.2 2.2-.5 2.7 2.2a2.3 2.3 0 0 1-.1-1.9c.2-.1.5.1.6.3 1.8-3.1-2.6-1.3-2.7-4.4 1.3.3 2.3-.9 2-1.4 0 1.3-2 .7-3.1-.4.9-2.1-.8-2.1-.8-3.2l-.4 1.2c-1.3-.3-1.2-1.4-1.6-2.7s.7 1.2 1.1.7c-2.3-1.4 2.1-3.6.5-5.7.8-1 2.3-.2 2.9-1.1-1.7-2.3 1.6-2.7.1-5.2-1.6.8-1.2.9-2.9-.8l1.4 4.1-2.6-2.6c0 1.3 1.2 2.6.9 3.4-1.4-1.2-1-1.1-2.4-.4 2.4-1.9-1.6-3.4 0-5.5h4.1c1.7-3.1-2.4-5.2-1.5-9.2l-.7 1.3c-1.7-.5-.3-2.4-1-3.6 1.4.1 1.9-.8 2.7-1.3-1 .1 0-2.9-2.8-3.1l1.8-1.8c.6-3.2-4.1-3.5-3.7-6.5 1.5.9 2.5-.5 3.6 1.5 0-1 .2-1.9-.7-1.9.8-.6-1.9-2.8-.7-3.7-.6-.4-2.1-.5-2-1.7a1.1 1.1 0 0 1 .7 0c-.7 0-1-1.8-2.5-.7 4.2-3.2-.5-8.7 3.2-11.5a45.7 45.7 0 0 1-1.1-6.9c.4.1.7 0 .5.4 1.3-2.8-4-1.7-2.5-4.8 2.2-1.6 1.2 1.7 2.1.7 4.5-.4-.6-3.8 2.1-5.9l.3.5c1.6-1.6-1.7-4-1.3-6.6a1.2 1.2 0 0 0 .7 0c-2.3-1.8-3-5.3-3.6-7.9 1.8.8.9 1.2 2.7.7-.2-1.1-2.9.3-3.4-2 1-.7 1.9-2.3 3.8-2.5v1.1c2.5-1 0-2.8.5-3.9l1.1.2c-.3-3.3-3-3.4-2.6-7l-.8.3c-2.6-2.1 1.6-1.5-.3-3.6l2.8-.4c-.6-1.3-2.4-4.6-2.8-6.9 2 1.4 2.8 4.2 4 5.9.1-1.3.1-4.3-1.3-5 .2.5.9 1.2.4 1.7a6.9 6.9 0 0 1-2.8-6.3c2.7.4 3.1-1.1 3.5-3s.7-3.9 2.9-4.5a6.7 6.7 0 0 1-.2-3.2 11.4 11.4 0 0 1 1-3c.8-2 2-3.8 2.6-6-2.2.1-2.1-.2-2-.7s.3-1.1-1.7-1.8c.1-1.1.4-1.5.7-1.5l3.7-1.9c.7 0 .8.3.9.6s0 .8.5 1a1.3 1.3 0 0 1 1.7-.7 2.9 2.9 0 0 0 1.9.1c-1.5-.5-1.6-1.7-.5-2.3l-2.5.3c-.2-1.9 1-1.9 2-1.9l1.1.4c.2.1.2-.1 0-.7l.8 1.2c-.2-.4-.1-.5 0-1s.1-1.4.2-3.8a7.3 7.3 0 0 1 .2 2.5c.2 0 .4-.3.7-.8a4.7 4.7 0 0 1 1.4-1.4c1.1-.7 2.1-.1 1.4 1.5l-.9.9.9-.5c.3-.2.5-.1.1.5a4.8 4.8 0 0 0-1 .8 2.4 2.4 0 0 1 .9-.3c.3 0 .6.2.4.5l-1.1.3c-.3.4-.2.6 0 .7h.2l.2.2.2.3.9 1.1c1.2 1.4 2.8 2.6 3.4 4.4-3 .5-3.5 4-3.8 5.8H521a15.8 15.8 0 0 0 2.2 6.5 51.2 51.2 0 0 1 3.1 6.2c-2.9 3.2-.7 10-2.2 14.8.5-.7 2.4 0 2.8.8s2.2 3-.6 2.9v-.4c-2.8.9-2 3.1-2 4.9l3.7.3a5.6 5.6 0 0 0-2 3.9 14.5 14.5 0 0 0 .3 4.2c.5 2.8 1.1 5.3-1.4 6.5.9 1.2.8 2.5 1.6 3.7l-2-.2a23.6 23.6 0 0 0-.9 8.4l-1.4-.9c-.3 2.1 5.4 3.2 5.3 5.2l-3 .3c-.4 3.8-3.3 7.2-1.3 11.2-.4-.1-1.2-.4-1.3-1-.3 1.7-3 6.4 1.1 6.4-1.3-.2-1.5.7-1.3 2a25.7 25.7 0 0 0 1.1 4l-1.9-.7c2.1 2.1 2.8 2.3 3 4.9-.4.5-1.6.2-1-.5-1.4 1.7 1.5 1.8 0 3.9l-1-1.1c-.5 1.9.1 1.9 1.3 3.3s-1.4 3.5-3.2 3.4c1 .5 2.1 1.9 1.4 2.9a1.3 1.3 0 0 1-1.1-.8 4.6 4.6 0 0 0-.6 3.9c.2 1.2.3 2.2-.9 3.1a1.8 1.8 0 0 0-1.2.1l1-3.1c.2-.8.4-1.2.5-1.1-1.7-.4-2.5 1.5-4.5-.7.9 1.9 2.9 5.5 1.6 7.2h-.7v-.3a1.3 1.3 0 0 0-.1 1.3 4.2 4.2 0 0 0-1 1.5c-1.5-.2-1.4 2.1-1.8 3 1.9.5 1.2 1.7 3.1 1-.2.1-.1-.3 0-.9a1.1 1.1 0 0 0-.1-.5h.1l.6-2.5c.7 1.1 1.3 2.2-.1 3l2.6 2.4c-3.1.6-5.4 2.7-7.1 2.5 0 1.7-.4 3.5-.5 5.3a6.9 6.9 0 0 0 1.5 5.2c.1 1-1.4.6-2 .7s.1-1.2-.3-1.6c.2 2-1.6 5.2.6 6.5-1.9 1.7-1.7-2.1-2.5 1l-.6-.7c-3.1 2.1-2.6 5-2.3 8a11.6 11.6 0 0 1-.1 4.4 6 6 0 0 1-3.4 3.6c.5-.3.7-.4 1.2-.3-2.8 3-4 6.9-5.6 10.7s-3.4 7.4-6.9 9.9c-1.8 1.6-.4 2.6 0 4.4l-2.1-.6.9 3.2c-.1 3.8-7.4 2.4-6.6 7.7l1.5.2c-1 1.2-1.7 4.6-3 3.5s1 1.2.1 1.3l-1-.5-.2 4.2c-2.1 2.1-3.6-2.6-5.9 1.1-.4 1.6.7 5.5 1.6 5.3a1.9 1.9 0 0 1 2.4-.6l-.2 1.5c2.7 1.8 5.2 4.3 8.8 2.4l-.6-3.1h1.8l-.9 1.8c1.9-.3 1-1.5.7-2.7a2.7 2.7 0 0 0 2 0l-1.6-3.6c1.3.4 1.7 2.2 3.1 1.1-.7-1.7-3-.5-2.9-2.6 1.9-.3 2.7.6 2.3-1.2a1.5 1.5 0 0 1 1.2 1.4c-.3-1.5 1.2-3 0-4.4 2.2-.1 1.6-3.8 4.3-2.1-.4-.7-1-3.1-.6-4.1 2.2 3.6 2.3-3.5 5.5-1.1-2.1-3 1.5-5.5 1.2-8.8.2.3.5.8.2.9s2.1-1.1 3.1-1.6c-2.3-1.5-1.7-3.9-2.5-5.8 3.2-.4 2.3 2.5 4.8 3.3-2-1-.4-4-2.3-4.3 2.1-.5 1.3-.7 3.6-.3-2.9-1.8.1-1.5-1.2-3.5 2.5-1.1 3.1 1 3.2-1.6 1.8 0 1.9 2.4 1.9 2.4zm14.7-53.4l-.2 1.1zm1.2-4.4a13.5 13.5 0 0 0-.6 1.9c-.7 0-1.3-.4-1.2-.8s1.1-.6 1.9-1.1zm-15.7 5.3c-.1-.7.4-.9.8-.8a7.7 7.7 0 0 0-.1 1.2h.2z" fill="{{colors[0]}}"/><path d="M515.7 370.4c0 .1.1.2.1.3l.5-.3-.5-.4zm-7.2 97.3l-.3.2zm34.2-166.8h-.5l.4.4.1-.4zm-38 192.2l-.5.4zm1.1 10.7l-.5 1.6a6.4 6.4 0 0 0 .5-1.6zm.4 8.3zm-14.1-130.6v-.3c-.5-.7-.3-.2 0 .3zm6.8 38.6a6.8 6.8 0 0 1-1-1.2c-.1.7-.1 1.3 1 1.2zm-11-82.1v-.3zm10 79.1a1.8 1.8 0 0 0 .1 1.8 2.6 2.6 0 0 0-.1-1.8zM513 547.6v.4h.3zm.4.4l.3.4c0-.2-.1-.4-.3-.4zm1 1.1l-.7-.8c.1.4.1.8.7.8zm-3.2-12.4zm-.9-3.2c0 .8-1 2.3-.4 3.3h.6c-1.1-.4 1.1-2.9-.2-3.3zm5.8-15.4v2.8c.7-.6 1.5-1.4 2-.2 1.5-3.9-1.6 1-2-2.6zm-.5-8.6c.6 1.4 1.1-.2 1.5-.2s-1-1-1.5.2zm-7.3-61.2h1.8c-.3-1.1-.6 0-1.8 0zm-10.1-11.2l-1 1.2 1.7.4-.7-1.6zm12.3-7.8l.3.5-.8-1.9.5 1.4zm-5.6-103.8l-2.2.4c.4.7 2.9.8 2.2-.4zm-1.7-44.7c1.1-.4 1.9-1.6.8-2.5-.1 1-1 2-.8 2.5zm22 7.8l-.7-.9.6 1.7.1-.8zm110.5 212.9c-.3-.5-1.3-1.5-1.5-.9l1.4 1.9zm-5.3-.8a9 9 0 0 0 3.1 4.3c-1.2-2-.4-1.4-1.9-3.7.1-.5 1.1 0 1.6.6s.9-.1 0-1.4-2.3-.4-1.8 1.2a3.8 3.8 0 0 1-1-1zm-38.1 21.7l.3.2zm-24.4-3.2c.2 0 .4-.1.5-.3s-.4.1-.5.3zm-1.8-4.1v.3c.1-.3.1-.4 0-.3zm26.2 7.3l-.8-.5c.1.7.4.4.8.5zm37.5-13.3a1.4 1.4 0 0 0-.1-.7v.4zm-27.7 7.3h.2l-.3-.9zm7.3-5c-.2 0 .9 1.7 1.3 2.4s-.5-1.1-.4-1.4zm13.3-6.7v-.4c.1.1 0 .3 0 .4zm-26.3 13.9l-.3-.6zm-32.2-10.1l-.2-.3c.1.3.1.4.2.3zm-14.8-1.7v-.2l-.6-1zm14.3 2.1c.2 0 .1-.1 0 0zm7.7-66.2c-1.9-.3-1.1-2.4-3.5-2.4.7.3 2 2.7 3.5 2.4zm58 66.3l-.3.3c.2-.1.3-.1.3-.3zm-61.5-68.7zm-10.3 54.2l-.8.3zm.6 12.9v-.4a.5.5 0 0 0 0 .4zm-3.6-19.7c.2-.2.4-.2.2-.5h-.2c.2.2.3.3 0 .5zm.5-7.5h-.4v.3zm28.4 10.5l-1.5-.9c1 .9.5 2.1 1.5.9z" fill="{{colors[0]}}"/><path d="M629 508.3c.3.4.4.6.4.8v-.3zm-89.9-21.2l.3-1.5a3.6 3.6 0 0 0-.3 1.5zm71.2-53.5l.2.4c.1-.1 0-.3-.2-.4zm-70.9 47.7a3.5 3.5 0 0 0 1.4-.7l-.5-.2zm42.5 8.5z" fill="{{colors[0]}}"/><path d="M578.6 499.4c1-.8-1.2-2.3-2-3.6s1.8.9 3.1 1.5c.3-1.2-.8-3.4-.3-3.9s.5.3.8.8c-.7-2.2 2.2-2.2 1.1-4.9l.6.3a19.5 19.5 0 0 1-2.7-2.3c.4-.4-.5-1.9.9-.9-.3.2.2.7.5 1.2v-.9c2.1 1.3 0 1.2 1.3 2.4.3-1.4-.3-3.8.8-4 1.9 1.5-.9 2.1 1.5 2.6l-1.6.4c3.5 1.8-.8.4 2.8 2.5 1.8-.9.6-2.3 2.4-3.3-.7-1.2-1.6-1.2-2.3-2.4-.1-3.5 5.9 2.3 4.8-1.3-.9-1.4-3.1-3.4-1-3.5l1.8 2.1c1.3-1.3-2.4-3.2.2-3.6.6.9-.2 1.7.3 1.7 2.4.3-.7-1.6-.1-2.4l2 1.3c.9-1.8.7-4.6 1.5-6.6.5.5.9 1.2 1.8 1.2a7.3 7.3 0 0 1 2.2-3.7l1.8-1.5 1.9-1.4-1.4-1.9c.1-.2 1 0 1.3.4s-1.1-.6-1.6-1.5 1.4-.2 1.8.4a12 12 0 0 1-.5-4.2 3.2 3.2 0 0 1 2-3.1l.4.6c1.3-1.1-3.2-3.1-1-3.7l.3.4a19.3 19.3 0 0 0 1.8-4.6 5.5 5.5 0 0 1 2.9-3.8c-1.4-.6-.9-1.3-.5-2s.5-1.5-1.5-1.9c2.3-1.5 2.9-.8 4.7-3.4.3-.7-2.4-1.4-2.8-2.3l2.2.2-2.2-1.4 2.6-.6-.5-1a1.8 1.8 0 0 1-1.6.7c-.5-.7-.1-1.6.5-2.3a4.1 4.1 0 0 1 2-1.4 32.4 32.4 0 0 0-2.3-3.7c.9-.1 1.3.5 1.9 1-2.6-1.8 2.2-.9-.3-2.5-.4.4-1.3.2-1.7.2a2.9 2.9 0 0 0 .3-2.6 6.4 6.4 0 0 0-1.6-2.7l1.5-.4a11.1 11.1 0 0 0-1.6-2.6c-1.9-2.3-4.7-3.9-7.5-5.4 1 1.3-.7 3.3-1.7 3.1l.7-2.2c-1.2 1 .6 1.3-1.4 2.2-1-.7.2-2.7 1.3-3.1h-1.9c.1-.7.6-.9 1.1-1.6s-1.1-.3-1.8-.9-1.4-1.2-2.2-.1v-.7a12.8 12.8 0 0 0-4.5-.1l-1.8.3-2 .3c.2 1.9-1 1.7-1.4 3.4-1-.1-2.1-.4-3.3-.4a6 6 0 0 0-3.4.6c-1 1.6.3 1.7.3 3-.9-1.6-2.8-.3-2.4-2a12.5 12.5 0 0 0-2.3 2.1 12.6 12.6 0 0 0-1.8 3.1c.7.3 1.2.4 1.5.9s-1.4.2-1.9-.5v-.2c-.4 2.1-2.5 2.4-4.6 3s-4 1.2-3.3 3.3v3c-.9.7-.7-1.4-2.1-1.4a3.2 3.2 0 0 1-1.1 3.5c-.8.7-1.6 1.3-1.4 2.8-2.7-.7-3.5.6-4 2.2s-.9 3.3-3 3.6l1.2.5c.8 1.1-1 .3-1.5.6s1.3-.1 1.7.6a11.1 11.1 0 0 1-1.5 3.6 23.3 23.3 0 0 1-2.4 3.3l-2.8 3.2a34.1 34.1 0 0 0-2.5 3.4c-1 1.8 5.7 3.1 2.1 4.5l-2-1.4a7.6 7.6 0 0 1 .3 3.2 20.6 20.6 0 0 1-.7 2.9 17.9 17.9 0 0 0-.7 2.9 6.6 6.6 0 0 0 .3 3c-.5-.3-1.2-.5-1.1-.8-1.8.4-.7 2.9.7 3.2-.3.6-1.2-.1-2 .2s1.8 2.4.1 2.5-.5-.3-.6-.5-.6 2.4 1.4 2.2c-1.1 1.3.5 2.8-.7 3.8 1 .5.7 1 .5 1.6s-.3 1 1.3 1.3c-1.6-.2-2.3.4-2.4 1.2a2.5 2.5 0 0 0 1.1 2.2c-.9-.3-1 .8-2.3.4a1.8 1.8 0 0 0 2.3 1.9c-1.9 1-1.1 2-.4 2.9s1.2 1.6-1.2 2.3c1.9 3.1 3.5 5.8 4.9 8.4-1.5.3-1.8-.5-2.1-1.2s-.5-1.5-2.1-1.1a10.2 10.2 0 0 0 1.5 1.7l1.6 1.4a4.3 4.3 0 0 1 1.8 3.2c-.2.8-1.4 0-2-.1a10.9 10.9 0 0 1 1.9 3.8 5.7 5.7 0 0 0 2.4 3.2 1.4 1.4 0 0 1-1-.1c.3.4.1 1.3 1.4.6l-.6-.3a3.7 3.7 0 0 1 3.1-.8 7.3 7.3 0 0 0 2.7 0c-4 1.4.3 2.5-4.8 4.2a2.2 2.2 0 0 0 2-.4c0 .6-.4 1-1.5 1.2 1.7 1.1 2.6-.3 3.5 1s-1 .3-1.7.7a9.9 9.9 0 0 1 2.2 0 1.5 1.5 0 0 1 1.4 1.1c-.4.2-.7.7-.9.4a3.5 3.5 0 0 0 1.6.8l1.9.3c1.2.2 2.3.4 2.9 1.7-2.4 1.9.1 1.3-1.3 3.5l1.7.2.2-1.4a3.1 3.1 0 0 0 1.9.3c.6 0 1.2 0 1.5.6l-1.3.5 2.2.6-.7-1.5c1.7-.6 1.4-3 2.4-1.6s.9.5.9 2.1c.8-.6 1.6-1.1 2.2-.3s-1.1 2.7-1.2 3.2a1.9 1.9 0 0 1 2-.8 1.9 1.9 0 0 0 2.1-1 5.7 5.7 0 0 0-.7 2.1l.9-1.6c.4.7.4 1 .1 2 1.5.7.2-3.3 1.7-1.6-.2.1-.2.4-.5.6a3.9 3.9 0 0 0 2.7.3 3.3 3.3 0 0 1 2.6.2c.3 2.7-1.6.5-1.2 2.8a12 12 0 0 0 4-1.5 6 6 0 0 1 3.7-1l-.5-.3c0-1.9.5-1.4 1.1-.8s1.4 1.6 1.9.6a3.6 3.6 0 0 0-.1 1.7 3.4 3.4 0 0 0 2.5-.8l2.8-2.3v1c1.1.6 2.6-.1 3.7-.1s.6-1-.1-2.2c2.3 2.1 3.6.8 4.6-.5s1.8-2.8 4-1.4c-.3.2-.3 1.1-.1 1l1.7-1.9c-.9-1.3-.7-.7-1.8-1.6s0-1.9.5-2.2c-.4 1.4 1.3 2.3 2.1 2.8s-.4-.9-.7-1.4c2.5 1.9-1.4-2.9.9-2.1l.4.8c.3-.7.2-1.9.8-2.1 1.2 1.4-.1 1.1.7 2.4.8-.6-.4-4 1.3-2.9 0 .6-.5 1-.5 1.6 2 1.3 1.8.8 2.5.7h1.8l-.7-.3c-.9-2.3-.6-2.9-.1-3.2s1.2-.6.8-2.4c.6 3.3.9 1.5 2.1 3.3.7.2 1.6.4 1.8 1-.5-1.8 1.8.3 1.1-2.3.5.5.7-.4 1.6 1 .4-1-.9-.8-1.4-1.5s.9-1.4 2.1-1.5 2.2-.5 2-2.4-.8-4.1-.4-6.1c1.2.4 1.4 2.1 1.4 2.1s1.7-.5 1.8-1.6a3 3 0 0 0 1.5 1.2c.4-.6-1.4-2.1 0-2a15.3 15.3 0 0 1 1.4 2.5c.2-1-.1-2.5 0-3.5 1 .7.9 1.6 1.2 2.4.3-1 1-2.5-.1-4h-.9c.2-.3 1.3 1 1.3 1.5s-1.3.3-1.8-.1v-.7c-3.2-2.5-1.3 2.1-2.3 2.8l-1.6-2.5.8 2.6c-.7-.4-1.9-1.4-1.8-2.2-1.6-.5.2 1.3-1.5.6a.5.5 0 0 1-.3-.4v1.2c-.3-.6-1.5-1.4-.8-1.5-2.2-.2-.3 3.2-2.2 1.9v-.2c-.9 2.1 1.3 1.7 1.8 4.6l-4.2-3.3 1.2 1.8c-.2.1-.6.2-1.1-.5.3 1.6.7.6 1.2 2-2-.8-1.6 2.5-3.9 0 .7 1.5 1.5.4 1.4 1.9-2.5-2.7-.6 1.3-2.4.5s.4-1.4-1.4-2.2c1.5 2.9-1.8.5-2.1 1.4 1.5 2.1-.7 1.8-1.3 3.2-.4-.7-2.8.2-4.2 0l-.2-.4c1.1 2.3-.2 2.5-.7 3.4a4.7 4.7 0 0 1-.8-2.8l-.7.4a2 2 0 0 1-.1 1.8l-.7-1.8c-.9.6-.9 3-2.7 2.4.6 1.7 3.1 4.1 2.2 5.8-.4-.9-1.2-2.4-1-2.9s-.1.9-.5.7v-1.7c-.9-.4.2 1.4-.3 1.5s-.7-.8-1.1-1.8.6.4.6-.2a2.9 2.9 0 0 1-2.2-1.4c.3.7.7 1.7.4 2.1s-.9-1.4-1.7-1.9-.9.2-.2 2.2c-.3.1-.7-.8-.9-1.3-.2 1.1-2.3.9-1.2 2.9h.1a1.8 1.8 0 0 1-1.2 1 3.6 3.6 0 0 1-1.5-.1c-1-.2-2.1-.7-2.9-.1v-.3c-1 .9-2.3.7-3 2.3-.3 0-.8-1.2-.7-2.1s-.9 1.4-2.1.2c.8-1.2-.3-1.1.8-.9-1-.6-1.2-1.7-2.4.1a1.8 1.8 0 0 0-.2-1.7.6.6 0 0 0-.9-.1l.6 1.3a1.9 1.9 0 0 1-1.5-.2l.5-2.3c-.8-1.5-1.7-.5-2.7.3s-2 1.3-2-1.2c-1 1.4.7 1.4-.2 3.1-.4-.3-.6-1.3-.7-2.2a8.2 8.2 0 0 0-.2-1.9c-.3-.8-.8-.1-1.4.6s-1.3 1.5-1.7.8-1 3-2.3 3.1.6-3.6 1.4-4 .2.3.1.6.9-.3 1-1.2l-.5.7c0-1-1.1-1.4-.1-2.5a1.2 1.2 0 0 0-.7 1.6 1.6 1.6 0 0 0-.9-1.2c-.4-.2-.8-.3-1-1s-.6 1.4-.7 1.2c-.7-1.9-1.6.8-2.8.3.3-1.4 2.2-2.1.6-2.1.1-1.1 1.5-1.7 2.1-2-.9.2-1.1-.2-.9-.9a12.5 12.5 0 0 0 .4-1.6h.8a.7.7 0 0 1-.8-.3l-1.1 1.3c0-.4-.1-.6.4-1-1 .4-2 1.9-3.6 2.3.4-.9-1.6-.6.2-2 .2 1.5 1.7-1.4 2.7-.7s-.5-.2-.4-.6l.6-.2c1-2-2.3.9-3-.2 1.2-.5 1.9-1.4 1.6-1.5s-1.7 1.3-2.8 1.3c.5-1.2-1.1-.5-1.2-1l-.2.7c-1.2.4-1.3-.1-1.9-.6s.8.3 1.1-.1-.8-.5-.4-1.2.9-1.4.1-1.6 2.2-.8 2.6-1.4c-1.9-.5 1.3-1.6-.3-2.2s-1.1.7-2.9.4l1.7 1.5-2.7-.5c.2.6 1.3.9 1.2 1.3s-1.1-.2-2.3.5c1.1-.8.6-1.1 0-1.4s-1.3-.6-.6-1.3l4-1c.7-.9.1-1.3-.7-1.8s-1.6-1.1-1.2-2.1l-.6.7c-1.7 0-.4-1.1-1.1-1.6a6.6 6.6 0 0 0 2.6-.9c-1 .1 0-1.3-2.8-1.3l1.7-1c.7-1.5-4-1.6-3.6-3.2 1.5.4 2.5-.2 3.6.7s.3-.9-.7-.9c.9-.3-1.9-1.4-.5-1.9-.6-.2-2-.3-1.9-.9h.7c-.7 0-.9-1-2.4-.5 2.2-.7 2.2-1.8 2.1-2.9s-.2-2.2 1.8-2.7a12.7 12.7 0 0 1-.5-3.6c.4.1.7.1.5.3 1.5-1.2-3.8-1.5-2.1-2.9s1 1.1 2 .7c4.5.6-.3-2 2.6-2.6l.2.3c1.7-.5-1.3-2.3-.6-3.6l.7.2a6.4 6.4 0 0 1-2.5-4.9c1.6.9.7.8 2.5 1.1-.1-.6-2.8-.6-3-2s2.1-.7 4-.2l-.2 1.1c2.5.2.3-1.4.9-1.8l1 .4c.2-1.7-2.4-2.6-1.6-4.3h-.8c-2.2-1.9 1.7-.2.2-1.9l2.7.7c-.4-.8-1.6-3.1-1.6-4.5 1.6 1.5 2 3.1 2.8 4.4a2.4 2.4 0 0 0-.5-2.9c.1.3.6.9.1 1-1.7-1.6-2.2-3-1.6-4.2 2.4 1.2 3 .6 3.6-.2s1.2-1.8 3.2-1.2c-.4-1.4.4-2.3 1.3-3.1a8.2 8.2 0 0 0 2.6-2.6c-4-1.5.3-.7-3.4-2.9.1-.7.3-.8.6-.7h3.2c1.3.4.4 1 1.3 1.5s1.8.6 3.2.5c-1.4-.7-1.5-1.6-.6-1.9l-2.2-.3c-.8-2.8 3.8.8 3.1-2l.7 1.3c0-.6.5-1.3.8-2.2a3.6 3.6 0 0 0-.7-3.4c.5.2 1.5.8 1.5 1.3s1-2.1 1.2-3.3.7-2.3 1.9-2l.6.9c.1-.4-.8-1.9.2-1.3s.5.9.7.9-.4-2 .3-1.7l.4 1.2c1 .1 1.1-.7 1.2-1.9s.1-2.5.7-3.1a10.2 10.2 0 0 0 1.6 2.9 7.6 7.6 0 0 0 1.1 1.1v.4c.6.1 1-.6 1.6-1.4a6.2 6.2 0 0 1 2.2-2.1 4.5 4.5 0 0 0 .4 2.5c.2.3.5.6.2 1.2l-.2.3a7.5 7.5 0 0 1 2.4-1.3c-.2.3.3.1.6.2s.3.1-1 .7c-1.2.7-1.7.9-1.8 1.1s.1.3.1.5l3.6-.7c-1.2.7-1.7 1.1-1.8 1.6a2.7 2.7 0 0 0 .5 1.5c.6 1.1 1.1 2.4-1.3 2.7.9.6.7 1.3 1.6 1.9l-2-.3a5.8 5.8 0 0 0-.9 3.9l-1.3-.6c-.4.9 5.3 2.4 5.1 3.5l-2.9-.4a7.5 7.5 0 0 1-1.6 2.4 2.1 2.1 0 0 0 .1 2.9c-.4-.2-1.2-.5-1.2-.8s-.9 1-1.1 1.7 0 1.3 2 1.9c-2.5-.9-1 1.7-.3 3.1l-1.7-.9c1.9 1.8 2.6 2.1 2.7 3.5s-1.5-.4-.9-.6c-1.4.4 1.3 1.5-.2 2.1l-.9-1c-.6.8.1 1.1 1.1 2.2s-1.3 1.5-2.9.8c.9.6 1.8 1.8 1.1 2.1a2 2 0 0 1-1-.9c-2 .8.7 3.3-1.6 3.4l-1.1-.5c.7-1.1 1.4-2 1.4-1.8-1.5-.9-2.3-.2-4.1-2.2a28.1 28.1 0 0 1 1.4 2.7c.4.9.4 1.7-.2 1.9l-.6-.2v-.2c-.3.1-.3.4-.1.7s-.7.2-.9.4-1.3.5-1.7.9c1.6 1.1 1 1.5 2.7 1.9-.2 0-.1-.2 0-.6a.5.5 0 0 0 0-.3h.1l.6-1.2c.6.9 1 1.8-.2 1.6l2.2 2.5c-2.7-1-4.7-.7-6.2-1.6-.1 1-.5 1.9-.6 2.9a4.9 4.9 0 0 0 1 3.8c0 .7-1.2-.3-1.7-.5s.1-.7-.2-1.1c.1 1.3-1.5 2.4.2 4.3-1.7.1-1.3-2.1-2.1-.6l-.4-.7c-2.6-.2-2.3 1.8-2.2 3.9s0 4-3.1 3.4a1.5 1.5 0 0 1 .9.4c-2.3.6-3.5 2.4-4.9 4.1s-3 3.2-5.7 3.1-.5 1.5-.3 2.9l-1.5-1.5.5 2.7c-.2 1.2-1.6.7-2.8.3s-2.5-.7-2.4 1.3l1.1 1c-.8.2-1.6 2.1-2.4.7.1.3.6 1.4-.1.9l-.6-.9-.6 2.7c-1.7.2-2.2-3.8-4.2-2.8s-.2 4 .4 4.4 1.1.1 1.7 1l-.3.9c1.6 2.8 2.9 6 5.7 6.9V511l1.2 1.1-.9.7c1.4.9 1-.4.9-1.4a3.4 3.4 0 0 0 1.4 1.1l-.6-3.3c.8 1 .9 2.4 2.1 2.5-.3-1.5-2.1-2-1.8-3.4 1.4.9 1.9 2 1.8.5a2.2 2.2 0 0 1 .7 1.6c0-1.2 1.3-1.4.5-3 1.6 1.1 1.6-1.7 3.4.8-.2-.7-.4-2.7 0-3.2 1.3 3.7 2-1.2 4.2 2.1-1.3-3.2 1.6-3 1.6-5.5.1.3.3.8.1.7s1.7.3 2.5.4c-1.6-2.2-1-3.5-1.6-5.3 2.5 1.4 1.6 2.9 3.5 4.6-1.5-1.7 0-2.9-1.5-4.1 1.7.7 1 .1 2.8 1.6-2.1-2.7.2-.9-.7-3 2 .5 2.4 2.2 2.6.6-.3.7-.3 2.3-.3 2.3zm15.8-27l-.3.6zm1.3-2.2l-.6.9c-.6-.3-1.2-.7-1-.9s.9 0 1.6 0zm-14.2-3.3c0-.4.3-.3.7-.1a2.3 2.3 0 0 0-.1.6l.2.2z" fill="{{colors[0]}}"/><path d="M583.3 469c0 .1.1.1 0 .2h.5l-.4-.5zm9.4 53.6h-.1l.2.2zm18.4-85.6h-.5l.4.3.1-.3zm-3.5 86.6l.4.3zm5.4-2.8zm4.3-2l-.4-.7zm-70.8-5.3h-.2c-.5-.4-.2-.2.2 0zm20.4 13.5l-1.1.6c.4.3.7.5 1.1-.6zM539 487.2a1.3 1.3 0 0 1 0-.2z" fill="{{colors[0]}}"/><path d="M564.9 527.1a.7.7 0 0 0 1 .5c-.3-.3-.6-.6-1-.5zm67.9-20.7h.2l-.2-.2zm0-.3v-.3c-.1 0-.1.1 0 .3zm0-1.1v.7c.1-.1.3-.2 0-.7zm-5 4.9l.4.6zm-1.2 1.4c.4-.2 1.8.4 2-.4l-.3-.5c.5 1-2.2-.3-1.7.9zm-11.4-1.8l1.5-.5c-.7-.4-1.6-1-1.2-1.5-2.8-.6 1.4 1-.3 2zm-4.1 1.9c.4-.7-.7-.9-.9-1.2s0 1 .9 1.2zM583 522.5v-1.8c-.5.2.1.7 0 1.8zm-6.8 8.9l.5 1.2.5-1.6-1 .4zm-1.2-13.2l.2-.2-.9.4.7-.2zm-18.3-36.5h-2.2c.3.4 2.8.7 2.2 0zm3-22.5c1.1.1 2-.2 1.1-.9s-1.3.6-1.1.9zm33.7-28h-.8l.7.4zm97.7-5.8c-.1-.2-.5-.3-.6.2l.5.5zm-2.1 2.3c.1.6.4 1.3 1.1 1.2s-.1-.7-.6-1.5.5-.6.7-.5.4-.6.1-.9a1.6 1.6 0 0 0-.8 1.8c-.3.1-.4-.1-.5-.1zm17.2-22.6l-.2.2zm9.9-24.2c0 .2 0 .3.1.3s0-.3-.1-.3zm1.6-4.4zm-11.5 28.6l.5-.5c-.2-.2-.3.2-.5.5zm-17.8 28.5a1 1 0 0 0 0-.4v.4zm12.6-18.2zm-4.6 7.5c.1-.2-.3-.5-.5-.7a.6.6 0 0 1 .1.6zm-9 10.7zm16.9-23.7zm-16.9 10.8zm6.5 6.2h-.1v-.1zm24.4-59.2c.1.3.1.2 0 0zm-34.9 23.8c-.1 1-1.1-1-1.1.4.1-.2 1.2.7 1.1-.4zm4.9 42.3zm-6.1-41.9zm18.5-27.5zm14.8-1.6l-.2-.4zm-19.7 7.6c-.2.1-.3.1-.4.4h.1c.1-.1.1-.3.3-.4zm-4.2 6.6h.2v-.2zm-17.5 25.7a1.7 1.7 0 0 1-.3.6c.3-.4 1 .5.3-.6zm14 30.8a.3.3 0 0 1 .1.3v-.2zm11-60.1l-.7.8zm-44-17.3zm41.5 20.9l-.7.3v.2zm-22.8 26.3z" fill="{{colors[0]}}"/><path d="M679.2 409c-.6-.9-.9 0-1.4 0s.1-.8.2-1.4-1.6-.7-1.9-1.3 0-.2.3-.2-1.4-2.2-2.6-2.7v-.2a1.9 1.9 0 0 1-.8.7c-.3-.4-.9-.6-.6-1s.3.2.5.2l-.5-.3c.3-.8.6.5 1 .2s-1.8-1.5-2.1-2.3 1.2 1.5 1.1.3l.4 1.2c.4-1.4.3.7.9-.7s-1.2-1.3-1.9-2.8-.4.4-.9.3c-1.7-1.7.6-2.4-1-3.4s-1.4.1-1.6-1.2h.9c-.7-1.4-1.4-.3-1.7-1.9.4.1.8 1 .8.7s-.7-.5-1.1-1.2l.5-.5c-.8-1.4-2.1-2.8-3-4.4.2 0 .5.2.6-.3a15.1 15.1 0 0 1-1.5-3.3c-.4-1.2-.7-2.4-.9-3.5l-.9-.6c-.1-.2.1-.4.3-.3s-.4.1-.7-.2.1-.7.4-.5-2.6-3.7-2.5-5.4l.3.2c-.2-1.3-1.6-.9-1.5-2.2l.2.2c-.3-1.3-.8-2.7-1.3-4a9.5 9.5 0 0 1-.6-3.7c-.9-.1-.4-2.7-1.6-2.6a10.4 10.4 0 0 1 .3-1.5 3.9 3.9 0 0 0 .1-.7v-1.1c0-.2-.2-.4-.5-.5l-.5-.5h.6l-.6-.5.8.2a.7.7 0 0 1 0-.2h-.5a.3.3 0 0 1 .1-.3.6.6 0 0 1 .6 0 .7.7 0 0 1 .3.4h1.4c-.1.2-.4.3-.6.4s0 .6.9.3.2-.3.2-.4a5.6 5.6 0 0 0 1.9 1.3l-.4.2a18.5 18.5 0 0 1 3.5 3.7c-.2-.7.5-1 .9-.5l-.4.6c.5.1-.1-.6.7-.3s-.4.8-.8.6l.7.6c-.1.1-.3 0-.6.1s.2 1.6 1.1 1.8h-.1c1 1.8 1.7 2.6 2.5 4 .5-.2.7.4 1.4.6a24.8 24.8 0 0 0 1.4 4c.7.8.6.1 1.1.3s.3 1.6-.4 1.1a28.5 28.5 0 0 0 2.5 3.9c.1-.3 0-.6.3-.6s.2.9 0 1h-.1c1.8 2 1.2 6 3.1 7.4h-.1l1.4 1.7c.3.9-.6-.4-.6.4 1.7 1.7 1.4 3.4 2.6 4.9a2.4 2.4 0 0 0 0 1.6v.3l.2.4.3.8.8 1.7c.5 1.1 1 2.2 1.5 3.4a23.5 23.5 0 0 1 1.1 3.8v-.9h.1c.2-.2.3 0 .3.2s.1.5.2.5-.3-.7-.1-1a3.6 3.6 0 0 1 1.5.4l.9.7.4-.3.6-.2h2.1l.7-3.9a6.5 6.5 0 0 0-.3-3.4 3.5 3.5 0 0 1 .3-3l.4 1.3v-2.3a12.2 12.2 0 0 1 .1-1.2 24 24 0 0 1 .5-2.4 31.2 31.2 0 0 0 1.1-4.7c.1.2.3.3.2.6s.8-2.3.5-2.4.4 0 .7-.2 0-1.7.6-1.9.1.2.1.4.9-1.7.2-1.6.8-2.1 1.5-2.7 1.3-1.5.6-2.1.8 0 1.1-.5a3.7 3.7 0 0 0 .7-1.5c.1.4.6-.3.7.1s.8-1.3.4-1.5 1.2-.9 1.6-1.5.7-1.1 1.5-.9a18.1 18.1 0 0 1 5-4.6c.3.8-2.1 1.2-1.5 2l1.9-1.8 1-.7 1.2-.5c.4 0-.1.4-.2.6l.8-.4h.5l.5.3.8.8-.4-.2c.2.2.2.6.5.4l-.2-.2c.2-.3.6-.2 1 .1s.8.7.9.7.1 1.9-1.5 1.3c.1.2.4.4.6.3s-.2.5-.5.2.8.7.9 1.9-.3-.2-.5-.3a2.5 2.5 0 0 1 .8 2.1c-.1-.1-.3.1-.3-.2.1 1.7 1 3 .4 4.9-.8-.7-.4.6-1.1.6v1l.4-.3c-.2.9.2 1.8-.2 2.5l-.2-.7-.3 1.7.5-.9c.2 1 1 .1.4 1.3s-.2.9-.8 1.3a2 2 0 0 1-.2 1.7c-.3.1-.7-.4-.9-.3s-.5 2.1-.1 2.9a.6.6 0 0 0-.5-.3l.4.5c-.3.4-.4.4-.7.2s1-.1.1 1.2-.1-.1-.1-.4c-.7 1.4-.7 2.9-1.5 4.2s.3-1.2-.5-1c-.6 2-.8 4.3-1.8 6.1l.2-.3c.9.7-1.1 1.1-1.1 2.3s-.4-.5-.3-.4-1 2.6-1.6 4.6v-.4a26 26 0 0 0-1.6 2.5c.1.4-.2.8.3.7-2.6 1.6-1.7 4.9-4.1 6.3.1-.2.1-.7 0-.5l-.8 1.9c.5.1.4-.1.9-.3a2 2 0 0 1-.3 1.4c.2-.9-.6-.4-1.1-.2l.4.3c-1.3.5.7.6-.5 1.6l-.2-.2a4.4 4.4 0 0 1-.6 1.6c-.6-.1.1-.6-.2-.9s0 1.9-.9 2.3.3-.8.4-1.2a2.1 2.1 0 0 0-1.3 1l-1 1 .3-.2c.6 1.6-.9 1.9-1 3.5.1-1.6-.3-.5-.7-.9s-.8.5-.9.3-.9.7-.9 1.8-.4.6-.7.2.4 0 .6.2-2.4 2-2.8 4.1-.3 2.2-1 3.6-.3-.8-.3-.8a3.1 3.1 0 0 0-1.1 1.2l1.3.7v-.6c.1.2.3.1.6 0s-.5-.6 0-1.3a2.7 2.7 0 0 1 .5.9c.1-.8 0-1.6.1-2.3s.3.6.4.9.5-2.2.1-2.6l-.4.4c.1-.3.5 0 .5.3s-.6.9-.8.9v-.6c-1.3.1-.6 2.1-1.1 3.1l-.6-.7.2 1.3c-.3.1-.8.1-.7-.4l-.3.4.7.4c.2-.3 0-.5.6-.7s.1 0 .1.1l.3-.8c0 .2.5.3.2.6 1.2-.8.8-2.1 1.7-2.2.9-1.7-.4-.5-.1-2.1h1.8l-.4-.5c.1-.1.4-.4.6-.2s-.3-.1-.4-.6 1.3-2.3 2.2-1.9-.8.5-.5-.5.5-1.1 1.4-1.5-.4 1 .5.6 1.1-1.3 1.4-2 .6-1.5 1.1-2.7 1.6-1.7 2.4-2.6h.1c-.5-.6.2-1.5.6-2.3s.4.5.3 1l.4-.7a1.4 1.4 0 0 1 .1-1.1l.4.5c.5-1 .6-2.2 1.6-3.2s-1.8.2-1.4-1.2c.3.1.7.3.6.7s0-.5.2-.7v.7c.5-.4-.2-.5.1-.9s.4-.2.7 0-.4.3-.3.5a2.6 2.6 0 0 1 1.3-1 .4.4 0 0 1-.3-.6c.5-1 .6-.1 1.1-.6s.5-.8 0-1.1.4-.2.6-.2 1.1-2.4.3-2.1h-.1c.3-1.9 2-3.2 2.6-5h.2c.2-1.1.9-2.3.8-3.1s.6-.5.8-.3a3.2 3.2 0 0 1 .8-2c0 .9.4-.1-.1.9.6-.9 1-1 .9-2.3.3.6.9-.5.9-1.1l-.6.6a7.3 7.3 0 0 1 .6-1.5l.5.5c1.6-1.8.1-4.2 1.9-5.4-.3-.7-.7 1-1 .4s1.7-1.7 1.7-2-.5-1.5.1-2.9-.9.1-.9-1 1.3-1 1.3-.3-.1.3-.2.3 0 .8.3.5l-.2-.2c.4-.4.7-1.9 1-1.4s-.3-.4-.6.1c.6-1.2.4-2.1.8-3.4-.2.2-.5.4-.4.1.6-2-.3-.9-.3-2.3s.9.3.6-1.1.6-.2.8.2c-.4-1.3.3-2.5.4-3.2l.2.7a4.1 4.1 0 0 1-.2-1.1l-.5.4c.1-.4 0-.8.2-.8s-.8.4-1.3-.4-.5-1.6.1-1.8c.1 1.7.6-.3.9 1.1a2.8 2.8 0 0 1-.1-1c.1-.1.1 0 .2.1.3-1.8-.8-.6-1.2-2.3.4.1.5-.6.4-.9s-.5.5-.9 0-.7-1.1-1-1.7l.2.7c-.4-.1-.6-.6-1.3-1.2s.6.5.5.2-.7-.6-1.1-1.1a2.6 2.6 0 0 0-1.7-1.1h-.5c-.7-.3 0-.7-.7-.9l-1.1.3h-.7a2.1 2.1 0 0 0-1.5.5c.6.3.6.2-.2 1a11.9 11.9 0 0 1 2.2-1.1 7.5 7.5 0 0 0-1.3 1.1 6.9 6.9 0 0 1 1.9-.8c-.7.5-.6.4-.2.7a1.4 1.4 0 0 0-1.4.3 2 2 0 0 1-1.3.6l-.5-1.1c-1.7.2-2.3 1.8-4.2 2.7l.7-.2c0 .5-1 .8-1.4 1.3s-.6-.2-1-.2-1.2 1-.8 1.7l-1 .2a2.2 2.2 0 0 0-.9 1.6 2.7 2.7 0 0 1-.8 1.6c0-.6-.7-.3-.2-1.3s-.7.7-.5.9-.5 1.5-1.1 1.6.3.6-.1 1h-.2c.2.1-.3.9.3.7a4 4 0 0 0-2.1 2.2c-.5 1-1 1.9-1.8 2.3l-1.2 3.3c-.1-.1-.2-.1-.1-.2s.7 1.2-.2 2.6 0-.9-.4-.5-.5 1.9-1.5 2.7v-.3c-.7.7-.1 2.1-.6 3.4h-.2a11.5 11.5 0 0 1 .1 4.1c-.4-.5-.1-.6-.7-.5s.8 0 .7 1.2l-.6.6a.7.7 0 0 1-.7.1v-.7l-.2.2h-.1a.3.3 0 0 0 0 .2c0 .2.2.4.1.5l-.3-.2c0 .7.6 1.7.4 2.8l.2.3c.2.7.1 1 .1 1s-.4-.6-.2.6l-.5-1.6c0 .4.1 1.2.2 2.1s.1 2 0 2.7c-.2-2.5-.3-4.1-.4-5.3a10.6 10.6 0 0 0 .1 2.5c0-.4-.1-1.1 0-.9a25.9 25.9 0 0 1 .2 4.7v-.3a20.3 20.3 0 0 0-.7-4.1 7.9 7.9 0 0 1-.4-2.8c-.1.1-.1.1-.2 0a3.7 3.7 0 0 1-.3-1.2 2.8 2.8 0 0 0-.2-1c-.5.4-.5.4-.6.2s-.3-.6-.8-.3-.4-.7-.3-.8v-2c.2-.5.5.4.7.3s.3-.7.2-1.7-.8-.2-.9-.9v1.2c-1.3-1.4.3-1.9-1.1-3.3l.6.4c-.6-.8-1.5-3.2-2.8-3.7s.3-.6.5-.2c-.9-2.2-3.1-4.2-3.4-6h.3c-.3-.3-.8-.4-.8-1s.3 0 .3-.2-1-.8-1.1-1.4l.5.3c-.7-2.2-2.3-2.7-3.4-4.3.8-.4.2-2.1-.1-2.9h.1c-1.2-2.4-2.8-3.5-4.3-5.5 0-1.8-2.4-4.8-4.3-7 .2.4-.5.5-.9.2a2.2 2.2 0 0 0-1-.6c-.3-.1-.6-.3-.3-.6h.2c0-.9-1.5-1.5-2.7-1.9l-.5 1a3.4 3.4 0 0 0-1.2-.7 4.6 4.6 0 0 0-1.6-.2 5 5 0 0 0-3.5 1.7c-1.3 1.5-1.2 3.3-1.7 4.2a10 10 0 0 0 .9 2.1h-.6a22.1 22.1 0 0 0 1.1 4.3l-.5-.3c.3 1.1 2 .9 2.3 1.9l-.7.5c.6 1.9.5 4 1.8 5.5a.4.4 0 0 1-.5-.3c.2.9.6 3.5 1.6 2.8-.7.3.6 1.9 1.3 2.8h-.6c1 .6 1.2.5 1.8 1.6s-.3.4-.3 0 .8.5.9 1.7l-.5-.3c.3.9.5.8 1.1 1.2s.6 1.8.2 2.1a1.2 1.2 0 0 1 1 .9c-.1.1-.3 0-.4-.1.3 1.7 1.6 2 1.6 3.3a.4.4 0 0 0-.2.3 17.4 17.4 0 0 1-.9-2.1c-.5.2-.1 1.2-1.1.7.7.6 2.1 1.6 2.3 2.7v.2h-.1a1.1 1.1 0 0 0 .4.6 3.5 3.5 0 0 0 .2.8c-.3.3.3 1.2.6 1.7s.7.4.8-.4l-.3-.4-.2-.2h.1l-.6-1.2a1.3 1.3 0 0 1 .8 1.2l1.1.3c-.4 1-.1 2.5-.4 2.9s2 3.3 3.4 3.7 0 .6-.1.8-.4-.5-.6-.5 1.5 2.3 2.2 2.2-.9-.2 0 1.1h-.3a5.9 5.9 0 0 0 2.4 3.4 5.8 5.8 0 0 1 2.5 3.7c-.1-.3-.1-.4 0-.5 1.7 3.7 5.1 6.4 6.7 10.2.5 1 1 .8 1.7 1.1l-.3.6 1.3.5a3.4 3.4 0 0 1 1.1 2.1 4.3 4.3 0 0 0 .5 1.2 2.7 2.7 0 0 0 1.2 1v-.5c.5.6 2 1.5 1.6 1.8s.5-.2.6.2l-.2.3 2 .6c.7.4.5.7.5 1s-.1.7 1.4.9a3.5 3.5 0 0 0 1.9-.6c.5-.4.7-.7.5-.8s-1 .1-1-.3l.7-.3a4.6 4.6 0 0 0-.3-1.3 2.8 2.8 0 0 0-1-1l-.7.5v-.5h.5c-.2-.5-.4-.1-.8 0a.9.9 0 0 0-.1-.6l-1.2.4c.1-.4.7-.4.3-.9s-.1.9-.9.7.2-.8-.5-.9.3-.3.5-.2-1.1-.8-1.6-.7-1.4-1.3-.7-1.9a3.3 3.3 0 0 1-1.6-.8c1.5.1-1.3-1.6-.2-2.1-1.2 0-2-1.8-3.2-2.6s.3 0 .3.2a4.1 4.1 0 0 1-.4-1.5c-.7.4-1.5-.4-2.3-.7s1.1-.1 1.5-.8-1.4-.9-1.7-.3-.2-.6.2-1.3-.5-.4-1.3-.6.6-.7-.3-1.5 2.1.8 2.1.8zm-14.5-21.8l.3.5zm-.9-2l.4.9c-.1.2-.4.2-.4 0s-.1-.5-.1-.9zm-1.5 5.9c-.2-.3-.2-.4-.1-.5l.3.5h-.2z" fill="{{colors[0]}}"/><path d="M663.2 391.4h.1v-.2h-.2zm42.7 13.9zm-50.8-48.5h-.1l.1.1v-.1zm43.1 58.2zm-2.9 4.4l-.6.5zm-2.5 3.3l.2.2zm19.6-57.7zm1.1 17.6a4.8 4.8 0 0 1-.1-.7c-.1.4-.2.6.1.7zm-14.3-9.3zm14.4 7.8a1.4 1.4 0 0 0-.2.8 2.1 2.1 0 0 0 .2-.8zm-23.8 49.1v-.2h-.1zm0-.2v-.2c-.1.1-.1.1 0 .2zm0-.7v.5c0-.2.1-.4 0-.5zm-4.1 3.3zm.9-1.4c-.3.3-.9.5-1.2 1h.1c0-.2 1.2-.5 1.1-1zm6.1-4l-.9 1c.3-.1.7-.2.4.4 1.5-1.1-.6 0 .5-1.4zm2.7-3.4c-.3.7.3.2.3.3s.1-.6-.3-.3zm15.1-27.1l.4.3c.2-.5-.1-.1-.4-.3zm-.2-6.4l-.5.4.4.4.1-.8zm4.6-2v.2l.2-.9-.2.7zm-23.1-12.8l.6.2c.2-.4-.4-.9-.6-.2zm-5.8 19.9c-.2-.2-.3-.4-.3-.3a1.5 1.5 0 0 0 .1.5h.1c.1 0 .2 0 .1-.2zm-29.1-44.2zm84.2-5.2c-.1-.1-.5-.2-.5 0l.6.4zm-1.6 1a1.7 1.7 0 0 0 1.2 1c-.5-.5-.2-.5-.8-1s.3-.3.6-.2.3-.3-.1-.5-.7.4-.5.9zm5.4-9.5zm5.1-12.3a.2.2 0 0 0 .1.2c0-.1 0-.2-.1-.2zm1.4-2h-.1c.1.1.2.1.1 0zm-6.5 14.3l.3-.2c-.2-.2-.2 0-.3.2zm-5.6 13a.5.5 0 0 0 0-.3v.2zm3.5-7.5l.2.2z" fill="{{colors[0]}}"/><path d="M740.8 347c.1-.1-.4-.4-.6-.5s.2.3.2.4zm-4 2.9zm7.6-9.7zm-10.9-.5zm2.5 4.3h-.1zm17.2-24.8c0 .2 0 .1 0 0zm-18.1 6.5a5.9 5.9 0 0 1 .5 1 3.5 3.5 0 0 0 .5 1.1l-.4-1.1zm4 24.9zm-3-22.8zm15.7-20.5zm.6 9.2zm-4.9-9.5c-.1 0-.2-.1-.3.1h.1a.2.2 0 0 1 .2-.1zm-4.2 2.6zm-16 21l-.4.4c.4-.3.8.1.4-.4zm11.7 19.7c.1.1.1.2.1.2h-.1zm8.6-38.4zm-24.2 7.7s0 .1 0 0zm23.6-7.3h-.5v.2zM727 331z" fill="{{colors[0]}}"/><path d="M730.1 333.7c-.3-.5-.8.1-1.2.3s.3-.6.5-.9-1.1-.2-1.3-.5l.3-.2c-.7-.1-.7-1.1-1.6-1.2v-.2l-.8.6c-.1-.2-.6-.2-.3-.5s.2.1.4 0h-.3c.5-.6.4.2.8-.1s-1.3-.6-1.3-1 .7.7.9-.1v.7c.7-.9.1.4.9-.6s-.8-.6-1-1.4-.5.3-.9.3 1.1-1.6-.1-1.9-1.3.3-1.2-.4l.8-.2c-.3-.7-1.2.1-1.1-.9s.5.4.5.3-.6-.1-.7-.5l.6-.4c-.5-.7-1.3-1.3-1.7-2.1s.5 0 .6-.2-.7-1.2-.6-1.3a.4.4 0 0 1 .4-.3l-.7-.3.5.2-.8-.4.6.2a4 4 0 0 1-1-1c-.2-.4-.3-.7.1-.3l.3.3c.2.1-.3-.4-.7-1s-.8-1-.4-.7l.2.3c.1-.1 0-.3 0-.6s-.1-.6.1-.4l1 1.4c-.6-1.1-.3-.7-.2-.5s.3.3-.4-1.1l.9 1.7.6 1.3a11.1 11.1 0 0 1-.3-1.5l.3 1.1a8.6 8.6 0 0 1-.1-1l.3 1.3v-.2l-.2-.8c0-.2.2.1.3.5a3.7 3.7 0 0 1 .1.9.7.7 0 0 1 .3-.4l-.2.5c.3-.6-.2.7.1.2l.2-.5c-.1.5 0 .6.3.6l-.3.3h.1l.2.3.5.5 1.1 1.1c-.1-.4.5-.8.8-.6l-.4.5c.4-.1 0-.4.6-.4s-.4.7-.7.6l.5.2-.5.3c.4-.1 0 1 .7.8h-.1c.6.8 1.1 1.1 1.7 1.7s.6 0 1.1 0l.3 1v.2l.2.4.5.8c.7.5.5-.2.9-.2a1.3 1.3 0 0 0 .1.9c.1.3.1.5-.2.4a12.6 12.6 0 0 0 2.4 2.6c-.1-.5-.2-.8-.1-1a2.3 2.3 0 0 1 .3 1.3h.4c.6.2 1.2 1.8 2.1 3.7s1.8 3.8 1.9 3.1h.4V338c.1-.6.3 1.6.6 1.9a11.1 11.1 0 0 1-.1-3.6 6.9 6.9 0 0 0 .1-2.6c.7.8.8-.8.8-2.2s0-2.9.5-3.6h-.3c-.3-.7.3-.5.4-.8s-.4.4-.5 0a8.9 8.9 0 0 1 .8-4c.5-1 1-1.9 1.5-2.8s-1.6-1.1-.4-1.6l.5.5a3.5 3.5 0 0 1 .6-2.2 6.3 6.3 0 0 0 1-2c.1.2.2.3.1.4s.7-.9.4-1.1.3.2.5.2 0-1 .5-.8.1.2 0 .2.7-.6.1-.9.6-.9 1.1-.9.1-.4.3-.5h.1v-.4c.5.8.5.6.6 0s.1.3.1.7a2.2 2.2 0 0 0 .2-.8c0 .7.1.2.4-.1s.2 0-.2.7a.6.6 0 0 1 .7-.1l.3.2v.4h-.5c-.1-.1-.1-.2-.5.1s1.3.7 1.1 1.6-.4-.1-.5-.2-.1 1.9.3 2.8l-.2-.2c0 .2-.2.4.2.4v-.2c.6-.2 1.1.9 1.4 1s-.4.9-1.8.1a.6.6 0 0 0 .5.3c-.1.2-.3.2-.6 0s.6.5.4 1.1l-.5-.3c.3.4.6.8.3 1.2s-.3 0-.2-.2.6 1.8 0 2.6-.4.2-1.1.1v.6h.4c-.2.4.2 1-.1 1.3l-.2-.4v.9l.4-.4c.2.6.9.2.5.8s-.2.5-.7.6c.2.3.3.6 0 .9s-.8-.3-.9-.3-.2 1.1.3 1.6l-.6-.3.4.4c-.2.2-.3.2-.6 0s1 .1.3.7v-.2c-.5.7-.2 1.6-.7 2.1s.1-.7-.6-.7.1 2.3-.5 3.2h.1c.9.5-.8.5-.5 1.2s-.5-.4-.4-.3-.3 1.4-.4 2.5l-.2-.2c-.4.3-.6.9-.9 1.3s0 .4.5.5c-2 .6-.4 2.7-2.1 3.2.1-.1-.1-.4-.1-.3l-.2 1c.4.1.3 0 .7 0a.8.8 0 0 1 .1.8c-.1-.6-.7-.3-1-.3l.4.2c-1 .1.8.5-.1.9h-.2c0 .3.1.7-.1.9s-.1-.4-.5-.6.5 1.2-.2 1.3.1-.5 0-.7-.6.2-.9.4l-.6.5h.2c1 1.1-.3 1 .1 2.1-.4-1-.4-.3-.9-.7s-.5.2-.6.1-.6.3-.2 1-.2.3-.6 0 .3.1.5.2-1.5.9-1.2 2.2a2.2 2.2 0 0 0 0 .8l1.2 1a5.2 5.2 0 0 1 .1-1.4c.4 0 .4.6.4.6a1 1 0 0 0 .8-.9c.1.2.3.2.5.2s-.4-.6 0-.8a2.7 2.7 0 0 1 .4.7c.1-.4 0-1 .1-1.4s.3.5.4.7.4-1.2-.1-1.6l-.3.2c.1-.2.4.1.5.3s-.4.4-.6.3v-.3c-1.1-.3-.4 1.1-.9 1.5l-.5-.7.2.9c-.2 0-.7-.3-.6-.5s0 .5-.6.4h-.1v.4c-.1-.2-.5-.3-.2-.4s-.5.6-.6.8l1 .8c0-.2.1-.2.3-.2.3-1-.5-.4-.7-1.4l1.5.4-.5-.4a.3.3 0 0 1 .4-.1c-.2-.5-.3-.1-.5-.5s.5-1.3 1.4-.9-.5.2-.6-.4.1-.6.8-.7-.1.6.6.5.6-.6.6-1.1.1-.9.2-1.5.9-.8 1.4-1.2h.1c-.6-.4-.2-.9-.1-1.4s.5.4.6.7l.2-.4a.7.7 0 0 1-.2-.6l.4.3c.2-.5-.1-1.3.6-1.8s-1.5-.1-1.5-.9.7.3.7.5-.1-.3.1-.4l.3.5c.3-.2-.3-.3-.1-.5s.3 0 .6.1-.2.1-.2.3a1.2 1.2 0 0 1 .9-.4c-.2-.1-.5-.2-.4-.4s.5 0 .8-.2.2-.4-.3-.7.3-.1.5 0 .5-1.2-.2-1.2h-.1c-.2-1.1 1.1-1.6 1.2-2.6h.2c0-.6.4-1.2.1-1.7s.5-.2.7-.1-.2-.6.4-1 .3 0 .1.5.7-.5.4-1.2.7-.2.7-.5l-.5.2a2 2 0 0 1 .3-.8l.6.4c1.2-.8-.6-2.4 1-2.7-.3-.4-.5.5-.9 0s1.3-.7 1.4-.8-.7-.9-.2-1.6-.9-.1-.9-.7 1.1-.3 1.2.1-.1.2-.2.1.1.4.4.3h-.2c.3-.2.5-.9.8-.6s-.3-.3-.5 0 .3-1 .7-1.6-.5.1-.4 0-.3-.6-.2-1.2.8.4.7-.4.6.1.8.3.6-1.1.8-1.5v.4a1.1 1.1 0 0 1 0-.6h-.5c.1-.2.2-.3.4-.3s-.8 0-1.1-.5-.1-.8.5-.8.6 0 .6.8a.6.6 0 0 1 .1-.5h.1c.7-.7-.6-.5-.5-1.3s.7-.1.6-.2-.6.1-.8-.3-.1-.6-.1-.9l-.2.3c-.3-.1-.3-.4-.3-.8s.2.4.3.2.7-.9.3-1.5.7 0 .8-.3.5-.8.1-1.5-.3.3-.8-.2l.4 1.2-.7-.7c0 .3.3.7.2.9s-.3-.3-.7-.1-.4-.9 0-1.5h1.6c.2-.5 0-.8-.3-1.4a4.6 4.6 0 0 1-.8-1.8v.6c0 .2-.4-.8-.7-1.1s.3-.6.4-1-.5-1-1-.4 0-.7 0-1.1-.2-.5-.3-.5-1.3 1.5-1.9 1.7 0-.7.7-1.4-.7.2-.7.5-.4.1-.6.4-.5.5-.7.3-.1.7-.5.8a.3.3 0 0 1 0-.2c0 .2-.4.6-.1.8s-1.3.1-1.7.5-.8.8-1.5.6l-1.1 1.5c-.1-.1-.1-.1 0-.2s.5 1.1-.3 1.5 0-.6-.3-.5-.5.9-1.4.9v-.2c-.6.1-.2 1.2-.7 1.7h-.2a4.4 4.4 0 0 1 0 2.3c-.4-.4-.1-.4-.6-.5s.8.3.7.9-.7.4-1.3.2l.2-.5c-.8 0-.3.7-.5.9l-.3-.2c-.2.9.5 1.2.2 2h.3c.6.7-.5.3-.1.9h-.9a11.8 11.8 0 0 1 .4 1.9 4.5 4.5 0 0 1-.8-1.7c-.1.3-.2 1.1.1 1.4s-.2-.4 0-.5a1.9 1.9 0 0 1 .5 1.8c-1.5-.5-.7 1.9-1.8 1.3s.1.6 0 .6-.3 0-.3.3 0 .2 1 2.1v.3l-.6-.9c-.3-.6-.2-.7-.4-1.2a11 11 0 0 1-.7-1.6c.3.9.5 1.4.3 1.1l.4 1.2c.2.9 0 .4-.2-.2s-.4-1.3-.2-.3l-.3-1.1v.3c0 .2 0 .2.3 1.9-.1-.4-.2-1.2-.2-1.3s-.1.2-.2.4-.3.2-.3-.4v-.4c0 .1-.2.7-.2.2v-.4c0 .1-.3.5-.3.2l.2-.3c.1-.5-.7.4-1.3-.1s.4-1.4.2-1.9h.1c-.7-1.2-2-1.4-3-2.1s-1.4-2.3-1.9-3.6c0 .3-.5.4-.7.3s-1.2-.4-.7-1h.1c.2-.9-.6-1.5-1.2-2.1l-.5 1a4.5 4.5 0 0 0-2.3-2.7 4 4 0 0 1-2.1-2.1c-.2.2-.6-.1-.8.1l-.3-.9a13.7 13.7 0 0 0-2.8-2v-.6c-.4-.3-.3.3 0 1s.5 1.4.3 1.2l-1.2-1.8-.6-.5a7.6 7.6 0 0 0-.1 1.4 6.5 6.5 0 0 0 .7 2.3 3.4 3.4 0 0 1-.5-.9 3.4 3.4 0 0 0 1 3.1c-.9-.9.1 1.3.6 2.3l-.7-.7a11.1 11.1 0 0 1 1.7 2.4c0 .1-.5-.2-.4-.3s.7.8.6 1.4l-.5-.5c.2.7.4.7.9 1.2a.7.7 0 0 1-.3 1.2c.4.1.9.5.9.9a.5.5 0 0 1-.4-.1 2.2 2.2 0 0 0 .6 1.3l.3.4a.5.5 0 0 1 0 .5l-.3.2-.3-.9c-.1-.3-.1-.5-.1-.5s-.3 1-1.2.5l.6.5.5.3c.3.2.6.5.6.8h-.2a.3.3 0 0 0 .2.3 1.1 1.1 0 0 0 0 .5c-.4.2.1.7.2.9s.6.1.8-.4l-.2-.2-.3-.6c.4.1.7.2.5.6h1c-.6.7-.6 1.5-1 1.8s1.1 1.7 2.3 1.7-.1.4-.2.5-.2-.2-.4-.2.8 1.2 1.5.9-.8 0-.3.7h-.3c-.2 2 2.9 1.3 2.5 3.6 0-.2 0-.2.1-.3.5 2.1 2.7 3.2 2.9 5.5.2.6.6.4 1.1.5l-.4.5h.9c.5.2.4.7.5 1.2s.2 1.1 1 1.1l.2-.4c.2.4 1.2.6.9 1s.4-.3.4 0l-.2.3h1.2c.3.3.2.5.1.8s-.1.6.6.8 1.6-.7 1.4-.9a.5.5 0 0 1-.4-.6h.4a9.1 9.1 0 0 0 .2-1.4 2.5 2.5 0 0 0-.3-1.2l-.5.5v-.5h.3c-.1-.4-.2-.1-.5.1a1.2 1.2 0 0 0 0-.5l-.8.6c.1-.3.5-.5.4-.8s-.2.8-.7.9.3-.7-.1-.6a.6.6 0 0 1 .4-.3c-.3.1-.5-.3-1 0s-.7-.5-.1-1.1a1.3 1.3 0 0 1-1 0c1.1-.3-.5-.8.4-1.4-1 .3-1.1-.7-1.8-1h.2c-.1-.3.1-.6.1-.9s-1.2 0-1.7-.1.9-.2 1.5-.8-1-.4-1.3.1 0-.4.5-.9-.3-.2-1-.1.7-.6.2-.9.7 0 .7 0zm-7.7-10.8zm-.4-1l.2.4c-.2.1-.4.1-.4 0s.1-.2.2-.4zm-2.6 3.7c-.1-.1-.1-.2 0-.3l.2.3h-.2z" fill="{{colors[0]}}"/><path d="M720.2 325.6h.1v-.2h-.1zm24.5 12zm-21.5-17.7v-.3.3zm17.1 22.5zm-1.4 2.2l-.4.2zm-1.3 1.7l.2.2zm11.1-30.1c-.1-.3-.1-.1 0 0zm-1.1 9.5l-.2-.4c0 .1-.1.3.2.4zm0-13.8zm0 13a.4.4 0 0 0-.2.4.6.6 0 0 0 .2-.4zm-7.2 23.9zm0-.2c0-.1 0 0 0 0zm0-.4v.3c.1-.1.1-.2 0-.3zm-1.9 3zm-.6.7c.2-.1.7-.1.8-.4h-.1c.1.2-.8 0-.7.4zm.9-2.7l-.5.5c.2 0 .6 0 .5.3s-.6-.1 0-.8zm1.4-1.7c-.1.4.3.2.4.2s-.1-.4-.4-.2zm6.9-14.3l.5.2c0-.2-.2 0-.5-.2zm-1.4-3.7l-.4.1.4.3v-.4zm4.1-.4v.1-.5.4zm-6.2-20.3l.5.4c0-.2-.4-.8-.5-.4zm-6.2 10.5c-.3 0-.6.3-.4.6s.4-.4.4-.6zm-12.6-5h.3l-.6-.3.3.3z" fill="{{colors[0]}}"/></svg>