<svg data-name="图层 1" xmlns="http://www.w3.org/2000/svg" viewBox="0 0 800 800" preserveAspectRatio="none"><path d="M198.57 263.26A1505 1505 0 0 1 342 150.14q21.48-14.92 43.47-29.09l-17.81 1.32q-10.23 76.07-24.59 151.47-4.09 21.54-8.54 43c-1 5 11.75 1.41 13.57.73q31.25-11.67 62.82-22.41 15.92-5.4 31.9-10.57 3.63-1.19 7.27-2.34L454 281l1.94-.61c3.2-1-2 .62 1.22-.39q7.77-2.43 15.56-4.83 63.76-19.51 128.63-35.17 18.31-4.44 36.7-8.56l4.47-1c1.7-.38-1.45.31.25-.06l2.49-.55 9-1.94q9.45-2 18.93-4L665 221.7q-17.88 57.3-41.3 112.74-23.22 54.85-51.7 107.27-16.2 29.78-34.05 58.62c-.73 1.17.83 2.11 1.7 2.27l112 21.34 32.16 6.12.51-4.43c-55.59 36-113 67.13-171.64 97.64q-24.73 12.87-49.57 25.57c-1.82.94-6.82 4.24-2.43 5.5 4.22 1.21 10.45-.6 14.2-2.53 59.53-30.61 119.12-61.27 176.75-95.46q24.42-14.49 48.25-29.89c1.68-1.08 3.83-3.8.52-4.43l-112-21.34-32.15-6.12 1.71 2.27q31.57-51.07 58.04-105.08 26.19-53.5 47.07-109.39 11.87-31.77 21.93-64.15c1.11-3.56-6.89-2.44-8.18-2.17q-67.19 13.86-133.49 31.68Q477.6 265.46 413 287.14q-36.21 12.14-72 25.51l13.57.72q15.53-75.15 26.95-151.07 3.25-21.68 6.18-43.41c.82-6.07-15.74 0-17.81 1.33a1536.38 1536.38 0 0 0-150.11 110.24q-20.1 16.74-39.62 34.15c-3.47 3.1 3.05 3.71 4.85 3.56 4.6-.4 10-1.75 13.56-4.91zM183.28 150q-13.56 29-29.48 56.89-4.52 7.89-9.21 15.66c-.75 1.25.87 2.07 1.72 2.32a15.34 15.34 0 0 0 6.47-.08 27.84 27.84 0 0 0 7.73-2.43 9.58 9.58 0 0 0 4.12-3.26q16.56-27.43 30.81-56.17 4-8.15 7.88-16.38c.6-1.3-.72-2-1.72-2.32a15.34 15.34 0 0 0-6.47.08 27.84 27.84 0 0 0-7.73 2.43c-1.47.77-3.38 1.68-4.12 3.26zm407.4 497.52q-13.27 4.59-26.6 9.05L551 660.92l-6.79 2.22-1.64.54-.7.22c-1.22.4 2.46-.8 1.25-.4l-3.29 1.06q-7.62 2.46-15.26 4.87a22.42 22.42 0 0 0-6.86 3.07c-.76.58-2.76 2.25-2.23 3.57s2.35 1.85 3.71 2a19.28 19.28 0 0 0 7.48-.78q28.13-8.88 56.07-18.36 7.69-2.61 15.39-5.27a13.68 13.68 0 0 0 5.57-3.43c.76-.92 1.4-2.36.22-3.29-1.4-1.11-3.63-1.19-5.29-1.1a29 29 0 0 0-7.92 1.7z" fill="{{colors[0]}}"/></svg>