<svg data-name="图层 1" xmlns="http://www.w3.org/2000/svg" viewBox="0 0 800 450.32" preserveAspectRatio="none"><path d="M612.64 625.16a20.57 20.57 0 0 1-15.12-34.51l159.87-173.44-178.56-169.47a20.57 20.57 0 0 1 28.32-29.84L788.44 390a37.47 37.47 0 0 1 1.75 52.34L627.77 618.53a20.53 20.53 0 0 1-15.13 6.63zm147.48-205.35z" transform="translate(0 -174.84)" fill="{{colors[0]}}"/><path d="M505.54 472.94c-35.1 0-65.17-2.9-89.47-8.62-32.17-7.57-53.08-19.75-63.93-37.22-18.1-29.16-11.93-70.93-6-111.33 7.58-51.4 10.94-86-10.72-98.92-.27-.16-28.3-14.67-162.8 91-72 56.56-137.28 118.36-137.93 119A20.57 20.57 0 0 1 6.41 397c.67-.63 67.35-63.76 140.82-121.49 43.62-34.27 81.24-60.09 111.81-76.75 45-24.53 76-30 97.43-17.27s33.77 34.84 36.15 65.39c1.83 23.49-2 49.62-5.76 74.9-4.88 33.07-9.93 67.27.23 83.62 7.79 12.56 44.79 27 123.31 26.38 65.57-.52 142-11.73 199.33-29.25a20.57 20.57 0 1 1 12 39.34c-60.9 18.6-141.76 30.5-211 31.05z" transform="translate(0 -174.84)" fill="{{colors[0]}}"/></svg>