<svg version="1.1" xmlns="http://www.w3.org/2000/svg" x="0" y="0" width="800" height="800" xml:space="preserve" preserveAspectRatio="none" viewBox="0 0 800 800"><path fill="{{colors[0]}}" d="M788.1 403.102c-6.374-95.774-74.993-178.151-168.07-204.935-99.095-28.515-234.867 1.282-327.565 40.437-5.322 2.247-8.224 5.831-9.35 9.819-16.815 15.921-26.16 34.179-41.283 52.064-16.859 19.938-53.426 21.236-81.911 21.886-9.447-2.325-18.995-3.107-28.506-4.633-1.057-.46-2.169-.827-3.384-1.015a2882.82 2882.82 0 0 0-5.187-.805c-2.808-.688-5.611-1.304-8.396-2.357-4.743-1.803-8.885-1.564-12.333-.105-7.886.599-15.35 4.793-17.303 13.375-2.063 9.037 2.749 21.636 13.201 23.255 4.596.71 9.187 1.426 13.778 2.136 2.072.593 4.122 1.348 6.213 1.853-.96 5.076.585 10.507 6.135 14.979 21.364 17.198 29.813 37.263 40.872 61.345 5.903 12.849 13.306 22.674 21.936 31.994a124.66 124.66 0 0 1-12.538 12.343c-3.278 2.796-5.079 5.942-5.819 9.12-11.708-3.389-23.381-6.896-34.931-10.867-11.833-4.066-23.654-8.327-35.26-13.004-8.463-3.417-14.269-7.834-18.751-13.148-3.8-15.838-10.435-27.671-20.99-40.086-2.834-3.335-6.568-4.977-10.487-5.349-9.573-13.769-37.033-3.378-33.597 17.48 1.87 11.301 6 20.854 11.997 28.991-3.498 5.094-4.293 11.784.319 18.668 12.452 18.596 29.494 25.575 49.832 33.525 19.031 7.434 38.386 13.874 57.881 19.877-1.647 9.286.666 18.695 9.692 24.564 2.732 1.775 5.828 3.15 9.021 4.36.899 1.265 1.62 2.563 2.801 3.778 10.499 10.779 23.303 9.809 34.584 4.038 3.079.705 6.216.688 8.823-.333 7.698-3.018 12.35-4.998 19.245-9.559.416-.271.693-.676 1.082-.977 48.716 21.037 96.823 29.604 150.249 36.388 37.585 4.771 76.831 10.563 115.929 13.652 2.788 2.274 6.338 3.856 10.695 4.244 65.079 5.764 146.496 6.401 206.235-24.525 58.381-30.229 77.531-93.284 92.222-152.981 2.127-8.653-1.446-15.465-7.081-19.492"/><path fill="{{colors[1]}}" d="M390.815 342.277c.103-2.003-.114-4.078-.862-6.197-8.055-22.806-15.767-45.817-24.479-68.385-5.215-13.508-12.407-24.925-28.831-22.557-16.197 2.33-31.419 15.278-41.446 27.555-7.584 9.309-12.674 20.42-21.525 28.687-3.772 3.528-8.067 6.501-12.51 9.265-3.997-1.265-8.354-1.381-12.28-.105a19.783 19.783 0 0 0-9.55-2.852c-9.659-5.198-23.985-1.958-27.738 9.681-10.238 4.622-20.008 8.399-30.137 9.853-3.166-.322-6.494-.083-9.784.699-5.021-.105-10.202-.865-15.633-2.469-14.917-4.399-28.238-10.008-43.532-12.083-.077-.027-.158-.061-.239-.088 0 .016-.005.039-.005.055-1.687-.228-3.276-.604-5.016-.732-22.087-1.598-24.501 30.812-5.029 37.136 17.345 5.631 25.025 22.995 34.415 37.441 9.09 13.985 18.186 27.971 27.275 41.958 2.472 3.794 5.925 6.296 9.686 7.732-3.55 15.967 18.951 29.431 32.374 16.676 25.194-23.932 35.766-54.832 39.938-87.441 3.172 1.271 6.57 1.708 9.827 1.137 1.015.444 1.975.96 3.021 1.37 14.032 7.368 32.925 11.217 52.313 12.798 25.974 4.51 52.411 6.108 76.901-4.061.158-.039.347-.072.5-.111l-.033-.078c1.512-.638 3.057-1.093 4.548-1.825 15.401-7.535 10.26-26.857-2.169-33.059"/><path fill="{{colors[2]}}" d="M658.984 459.188c-64.324-6.674-92.881 37.025-142.849 63.67-4.808.477-9.611 1.049-14.424 1.476-.885-.122-1.745-.288-2.71-.3-43.224-.482-85.525-5.137-127.795-14.285-11.037-2.391-21.933 6.136-24.035 15.988-30.317-2.463-60.635-5.559-91.358-8.632-.543-.05-1.026-.11-1.567-.167-33.391-28.941-75.564-34.622-115.892-44.963-.575-.338-.926-.815-1.562-1.104-11.658-5.237-25.508-10.097-38.698-16.238-2.03-3.667-5.217-6.834-9.907-8.748-20.413-8.344-24.252-38.95-48.922-48.354-13.653-5.209-27.128 10.347-23.264 23.25 4.569 15.234 11.725 26.994 20.707 36.592.538 3.501 2.197 7.129 5.301 10.613 18.762 21.098 39.413 32.453 64.76 36.402 1.506 2.697 3.85 5.043 7.287 6.664 18.44 8.704 46.073 26.967 59.285 43.593 5.176 6.501 16.232 6.769 22.912 2.957 23.747-13.553 65.124-1.47 94.85 2.08 4.108.488 8.216.793 12.33 1.237 1.789 4.749 5.713 8.659 12.398 10.074a950.368 950.368 0 0 0 91.655 14.734c2.181 2.913 5.664 5.093 10.874 5.809 68.282 9.414 138.075 19.161 206.38 4.543 35.017-7.488 104.242-25.841 109.374-70.51 4.612-40.191-42.329-62.981-75.13-66.381m94.235-164.304a18.51 18.51 0 0 0-2.893-6.319c-29.771-42.195-67.212-69.489-116.442-83.213-24.035-16.938-55.365-15.489-83.747-12.41a21.006 21.006 0 0 0-8.596 2.879c-6.168-1.681-12.632-2.275-18.733-1.181-.045.005-.114.039-.165.05-1.482-.899-3.084-1.642-4.925-1.975-6.688-1.209-13.374-2.413-20.059-3.623-6.54-1.182-13.681.499-18.412 4.909-6.169-3.922-12.333-7.816-17.248-9.287-23.358-6.984-33.347 29.497-10.049 36.464 15.6 4.666 28.409 26.124 46.794 25.142 9.2-.488 14.507-8.443 22.177-9.531 25.103-3.545 16.463 7.307 33.277 22.229 6.188 5.486 12.69 10.612 21.064 11.977 14.727 5.603 31.984.377 48.047.588.478 2.702.597 5.371.741 8.05-2.319 17.686 5.941 34.667 25.927 38.318 17.848 3.262 34.521-3.207 50.797 2.135 6.657 6.075 10.24 15.733 18.234 20.499 11.997 7.151 25.614 11.356 38.276 1.342 12.813-10.13 9.07-27.71-4.065-47.043"/><path fill="{{colors[3]}}" d="M745.413 282.324c-27.335-32.126-52.586-63.948-95.561-68.314-4.291-3.417-9.295-5.936-14.568-8.01-2.077-2.002-4.554-3.739-7.888-4.688-37.153-10.535-74.256-7.373-112.423-8.97-24.332-1.016-24.284 36.797 0 37.812 15.747.66 31.402.35 46.985.683a18.592 18.592 0 0 0 5.767 4.666c16.859 8.864 30.493 9.824 46.889 5.947 5.551 2.785 10.44 7.15 14.695 13.997 4.011 6.452 4.364 13.403 9.21 19.228 10.315 12.405 26.789 17.642 41.69 11.379 14.002 6.179 28.426 11.583 38.464 23.006 16.159 18.388 42.379-8.357 26.74-26.736M62.069 387.44c-11.556-5.803-24.371-6.574-36.106-.666-11.886 5.975-20.166 18.374-19.572 31.909.438 9.865 8.386 19.379 18.906 18.906 9.273-.416 18.104-7.422 18.776-17.036.433.122.461.105.006-.066v-.062c8.929 3.9 19.6 1.731 24.773-7.117 4.908-8.387 2.379-21.269-6.783-25.868m35.432 54.55c-10.981-2.502-19.242 3.367-23.258 13.203-.197.494-.705 1.447-1.323 2.557-2.597.928-4.988 2.314-6.857 4.184-6.565 6.568-6.69 15.584-2.56 22.956l-.444-.655c2.516 13.232 22.917 19.15 31.602 8.344 6.926-8.615 11.866-17.104 16.049-27.332 3.743-9.183-4.069-21.177-13.209-23.257m101.097 53.74a20.76 20.76 0 0 0-5.641-6.475c-.933-8.854-10.042-16.665-18.779-16.277-9.431.422-15.669 6.419-17.897 14.768-.111.123-.175.184-.446.488-1.001.545-2.022 2.176-2.763 3.029-3.215 3.729-6.181 7.795-7.611 12.576-2.635 8.805-1.124 19.316 5.572 26.02 6.907 6.911 18.099 9.946 26.859 4.338 3.994-2.553 6.59-6.108 9.204-9.953.211-.322.419-.644.635-.965 1.409-.404 2.796-.927 4.085-1.682 8.988-5.258 11.764-16.913 6.782-25.867m96.052 22.379c-7.249-7.252-19.486-7.234-26.74 0-6.168 6.157-10.235 13.242-13.02 21.469-2.13 6.285.308 13.836 4.862 18.391 5.118 5.12 11.567 6.052 18.396 4.865 1.079-.189 2.158-.377 3.231-.566 8.261-1.432 13.464-9.996 13.708-18.085 6.659-7.279 6.583-19.051-.437-26.074m79.4-4.798c-6.802-3.984-16.332-2.99-22.251 2.279-1.578 0-3.138.117-4.607.521-10.668 2.935-14.917 13.154-13.203 23.256 1.325 7.816 1.842 16.055 1.903 24.365.161 21.247 31.377 25.758 37.141 5.026.047-.184.091-.35.144-.521 3.827-3.373 6.343-8.044 5.714-13.392-.216-1.804-.386-3.59-.405-5.41 0-.394.222-4.531-.044-2.535.455-3.361 1.371-5.725 2.391-7.727 4.654-9.081 2.374-20.51-6.783-25.862m121.544 48.829c-.77-8.442-1.063-16.892-1.074-25.369-.017-13.48-11.628-19.472-21.979-18.019-7.509-14.435-34.875-11.355-35.88 9.254-.731 15.262-1.941 30.961-1.078 46.233.971 17.148 13.417 22.484 28.595 24.815 14.688 2.252 33.074.754 33.568-18.63.151-5.941-1.614-12.342-2.152-18.284"/><path fill="{{colors[4]}}" d="M65.569 340.247c7.975 4.705 15.958 9.415 23.688 14.513 8.222 5.415 13.897 9.559 20.89 16.033a118.88 118.88 0 0 1 10.878 11.49c.175.21 2.083 2.663 1.363 1.697-.641-.859 1.301 1.826 1.261 1.765.602.859 1.193 1.731 1.773 2.613a86.303 86.303 0 0 1 6.136 10.961c.289.622 1.107 2.624.452.993.388.971.751 1.953 1.099 2.94.76 2.181 1.395 4.388 1.964 6.624 1.631 6.445 9.192 10.951 15.622 8.871 6.666-2.153 10.618-8.717 8.868-15.623-10.338-40.875-47.116-64.719-81.173-84.806-5.726-3.379-14.186-1.492-17.378 4.554-3.226 6.107-1.556 13.769 4.557 17.375"/><path fill="{{colors[4]}}" d="M91.443 335.021c10.857-6.729 24.479-7.534 36.634-5.675 15.838 2.414 30.995 8.061 46.622 11.434 6.699 1.442 13.736-1.997 15.623-8.871 1.739-6.335-2.136-14.168-8.865-15.622-33.705-7.268-70.228-23.417-102.834-3.196-5.825 3.611-8.085 11.345-4.557 17.375 3.403 5.814 11.528 8.183 17.377 4.555m116.542-3.995c22.75-2.186 44.569-8.66 64.635-19.683 5.828-3.201 8.202-11.716 4.558-17.375-3.808-5.908-11.142-7.977-17.372-4.555-4.194 2.302-8.568 4.771-13.068 6.413 2.965-1.082-1.254.494-1.778.693a112.3 112.3 0 0 1-2.918 1.104 149.987 149.987 0 0 1-21.497 6.097c-2.374.483-4.76.91-7.162 1.282-.519.078-1.029.155-1.548.228 1.659-.216 1.756-.233.286-.044-1.381.15-2.754.305-4.135.438-6.597.632-13.026 5.386-12.696 12.699.277 6.341 5.611 13.38 12.695 12.703"/><path fill="{{colors[4]}}" d="M279.188 320.792a1606.688 1606.688 0 0 1 15.742-21.642c2.657-3.583 5.322-7.156 8.01-10.718 1.339-1.78 2.691-3.556 4.044-5.332.807-1.064 1.618-2.13 2.43-3.189.205-.266 2.394-3.084 1.284-1.681-1.04 1.32 1.013-1.254.99-1.231.566-.705 1.134-1.403 1.714-2.097a116.315 116.315 0 0 1 3.583-4.111c2.449-2.663 5.063-5.104 7.822-7.444 1.456-1.226-2.375 1.547.383-.228.727-.472 1.437-.966 2.175-1.415a41.52 41.52 0 0 1 2.238-1.259c.335-.178 2.937-1.215 1.248-.627-1.714.599.985-.278 1.326-.377.8-.239 1.643-.355 2.436-.604 1.387-.433-2.277-.022.136-.011 1.04 0 2.076-.05 3.116-.011 6.646.244 12.998-6.014 12.696-12.698-.313-7.09-5.573-12.438-12.696-12.704-18.679-.683-33.516 12.321-44.47 26.046-12.565 15.75-24.42 32.126-36.134 48.514-3.88 5.426-1.131 14.374 4.549 17.375 6.555 3.46 13.243 1.229 17.378-4.556"/><path fill="{{colors[4]}}" d="M352.753 258.147a95.488 95.488 0 0 1 3.62 6.74c.51 1.06 1.084 2.13 1.481 3.24-1.095-3.04.422 1.16.619 1.698a93.009 93.009 0 0 1 3.875 13.73 89.88 89.88 0 0 1 .857 5.027c-.221-1.692-.244-1.809-.066-.344.197 2.38.418 4.737.5 7.123.069 2.375.044 4.76-.069 7.134a85.608 85.608 0 0 1-.289 4.061c-.069.682-.136 1.359-.222 2.036.244-1.693.254-1.809.043-.344-.521 3.512-.591 6.584 1.279 9.786 1.545 2.629 4.563 5.143 7.589 5.836 6.033 1.37 14.585-1.848 15.621-8.871 3.576-24.143-.488-48.491-12.905-69.667-3.363-5.73-11.607-8.277-17.379-4.561-5.768 3.724-8.149 11.247-4.554 17.376M151.3 413.364c-2.164 15.649 2.857 29.191 11.156 42.333 7.539 11.934 15.913 23.567 25.319 34.091 18.446 20.632 42.487 35.732 70.425 38.268 6.84.615 12.704-6.28 12.704-12.704 0-7.384-5.842-12.077-12.704-12.699-19.975-1.809-37.816-14.789-51.297-29.535-7.323-8.016-13.646-16.804-19.644-25.835-4.879-7.351-12.759-17.83-11.47-27.167.938-6.784-1.648-13.641-8.868-15.622-5.93-1.632-14.678 2.029-15.621 8.87M290.631 545.23c13.198 1.248 26.978-.35 39.51-4.688 12.94-4.477 24.773-11.15 32.642-22.667 3.753-5.504 1.216-14.324-4.558-17.375-6.44-3.406-13.366-1.31-17.377 4.554-.804 1.148-.715 1.066.292-.249-.406.493-.818.971-1.251 1.442-.869.943-1.828 1.764-2.744 2.657-1.779 1.73 1.806-1.187-.847.655a48.872 48.872 0 0 1-2.846 1.83c-2.222 1.326-4.541 2.463-6.896 3.512 2.044-.91-.319.111-1.082.394a79.064 79.064 0 0 1-4.196 1.454 86.555 86.555 0 0 1-7.518 2.008c-1.447.322-2.907.555-4.36.832-1.49.222-1.467.228.072.022-.732.089-1.465.177-2.203.244-5.54.538-11.101.499-16.64-.028-6.629-.627-12.987 6.291-12.696 12.705.332 7.417 5.597 12.023 12.698 12.698m91.661-199.147c5.772 12.538 10.576 25.563 14.157 38.9 2.971 11.084 5.567 24.221.208 35.017-5.26 10.602-16.887 16.843-24.551 25.503-9.773 11.018-15.004 23.549-12.696 38.322 1.062 6.785 9.546 10.541 15.621 8.871 7.238-1.986 9.934-8.821 8.874-15.622-1.619-10.347 12.724-19.994 19.173-25.797 10.285-9.27 18.648-20.293 20.915-34.284 4.596-28.404-8.139-58.444-19.77-83.73-2.868-6.235-11.872-7.777-17.378-4.554-6.395 3.737-7.427 11.116-4.553 17.374"/><path fill="{{colors[4]}}" d="M234.702 479.963a45.836 45.836 0 0 1 5.118-.986c-1.118.148-2.25.299-3.374.455a44.357 44.357 0 0 1 11.156.005c-1.131-.149-2.249-.306-3.381-.455 1.234.172 2.455.388 3.669.655 3.329.727 6.796.471 9.789-1.282 2.629-1.542 5.148-4.565 5.833-7.589.746-3.252.58-6.902-1.279-9.786-1.736-2.696-4.355-5.132-7.589-5.836-8.859-1.937-17.882-1.903-26.692.333-3.063.771-6.012 3.134-7.59 5.836-1.597 2.718-2.271 6.729-1.284 9.774.993 3.073 2.896 6.048 5.833 7.601 3.065 1.614 6.388 2.14 9.791 1.275m94.762-25.252a78.185 78.185 0 0 1 9.664-8.882c-.859.665-1.716 1.325-2.567 1.985a77.522 77.522 0 0 1 11.042-7.084c2.742-1.453 5.023-4.643 5.835-7.595.841-3.034.458-7.085-1.278-9.78-1.751-2.713-4.353-5.104-7.59-5.842-3.414-.776-6.666-.371-9.789 1.281-4.369 2.314-8.418 5.064-12.327 8.083-3.908 3.023-7.6 6.229-10.954 9.87-2.26 2.463-3.714 5.586-3.714 8.98 0 3.118 1.378 6.836 3.714 8.982 2.427 2.219 5.601 3.872 8.982 3.717 3.29-.143 6.693-1.225 8.982-3.715m-84.717-149.387c20.496-34.617 52.911-62.15 90.573-76.496 20.338-7.75 41.044-11.124 62.705-12.066 12.934-.565 25.818-1.076 38.634-3.079 12.277-1.914 23.616-6.413 35.427-10.047 12.755-3.927 22.717-3.767 35.338.35 12.71 4.138 25.708 8.1 38.914 3.578 15.372-5.271 8.771-29.813-6.754-24.498-10.008 3.434-20.252-2.108-29.807-4.976-12.395-3.723-24.66-3.944-37.253-.949-12.71 3.029-24.64 8.587-37.478 11.14-12.595 2.507-25.552 2.563-38.333 3.14-46.325 2.075-89.164 16.76-125.687 45.668-19.313 15.289-35.663 34.223-48.211 55.415-8.348 14.096 13.596 26.889 21.932 12.82m337.034-104.572c46.443 3.8 91.532 23.805 125.908 55.21 36.231 33.102 59.432 78.093 66.357 126.646 3.926 27.482 2.278 55.665-4.596 82.532-4.059 15.844 20.432 22.601 24.489 6.746 13.803-53.968 7.981-111.43-15.402-161.902-22.34-48.209-62.311-87.78-110.034-110.93-27.325-13.253-56.455-21.225-86.723-23.7-6.846-.56-12.695 6.236-12.695 12.699.001 7.334 5.834 12.138 12.696 12.699M171.104 468.968c-13.281 4.316-27.38 9.165-37.288 19.528-9.855 10.291-16.002 26.495-10.504 40.414 1.262 3.184 2.779 5.803 5.839 7.589 2.721 1.598 6.732 2.269 9.783 1.282 3.073-.994 6.039-2.891 7.589-5.836 1.501-2.836 2.519-6.669 1.279-9.787a22.897 22.897 0 0 1-1.334-4.948c.153 1.121.3 2.247.455 3.373-.263-2.13-.233-4.228.044-6.357-.147 1.126-.302 2.252-.449 3.384.308-1.953.829-3.789 1.468-5.652.776-2.253-1.052 2.163-.389.914.255-.488.477-.998.735-1.486a35.44 35.44 0 0 1 1.514-2.574c.309-.46.627-.91.943-1.369.985-1.415-.652.721-.771.992.353-.793 1.373-1.598 1.986-2.219a35.651 35.651 0 0 1 2.222-2.075c.222-.194 2.184-1.747.433-.399-1.739 1.349.25-.145.495-.316 1.811-1.259 3.708-2.385 5.664-3.422a69.028 69.028 0 0 1 2.977-1.471c.563-.267 1.132-.516 1.692-.766 1.576-.705-.571.184-.982.41 1.989-1.121 4.488-1.736 6.64-2.479a319.801 319.801 0 0 1 6.715-2.229c6.305-2.054 11.049-8.893 8.868-15.623-2.04-6.309-8.858-11.075-15.624-8.878"/><path fill="{{colors[4]}}" d="M147.252 510.752c-5.04 5.088-8.646 11.273-10.878 18.059-1.096 3.34-1.584 6.873-1.92 10.363-.358 3.693.12 7.262.652 10.922.427 2.93 3.409 6.176 5.836 7.59 2.727 1.598 6.738 2.269 9.786 1.281 3.073-.992 6.039-2.896 7.589-5.836.427-1.01.854-2.024 1.278-3.035a12.721 12.721 0 0 0 0-6.751c-.016-.139-.039-.283-.055-.416.147 1.126.3 2.253.455 3.378a32.396 32.396 0 0 1 0-8.388c-.15 1.121-.302 2.253-.45 3.374a33.842 33.842 0 0 1 2.203-8.1c-.424 1.009-.857 2.024-1.276 3.033a33.203 33.203 0 0 1 4.219-7.25c-.663.854-1.329 1.715-1.986 2.568a33.068 33.068 0 0 1 2.51-2.834c2.294-2.32 3.715-5.709 3.715-8.977 0-3.117-1.382-6.84-3.715-8.982-2.427-2.224-5.603-3.871-8.981-3.722-3.364.151-6.568 1.284-8.982 3.723"/><path fill="{{colors[4]}}" d="M173.776 518.147c-12.743 13.143-12.707 34.856-.272 48.159 4.543 4.865 13.422 4.938 17.955 0 4.785-5.21 4.854-12.771 0-17.957a28.427 28.427 0 0 1-1.334-1.561c.666.855 1.323 1.715 1.989 2.569a22.082 22.082 0 0 1-2.641-4.588c.424 1.01.857 2.019 1.285 3.034a24.033 24.033 0 0 1-1.496-5.52c.153 1.121.299 2.247.455 3.373a24.903 24.903 0 0 1 .006-6.557c-.153 1.125-.308 2.246-.455 3.372a23.851 23.851 0 0 1 1.49-5.52c-.428 1.01-.855 2.019-1.279 3.034a21.92 21.92 0 0 1 2.63-4.593c-.666.854-1.323 1.708-1.989 2.568a22.645 22.645 0 0 1 1.621-1.858c2.283-2.363 3.714-5.67 3.714-8.982 0-3.111-1.378-6.834-3.714-8.976-2.427-2.224-5.601-3.872-8.982-3.722-3.342.152-6.603 1.267-8.983 3.725"/><path fill="{{colors[4]}}" d="M191.243 524.877c-.7.926-1.301 1.914-1.784 2.968-.846 1.837-1.716 3.733-2.244 5.697-.568 2.108-.813 4.322-.999 6.479a18.912 18.912 0 0 0 .006 3.323c.191 2.108.436 4.271.965 6.336.516 2.03 1.42 3.96 2.267 5.863.449 1.005.987 1.97 1.625 2.868 1.22 1.726 2.521 3.484 4.055 4.948 2.391 2.28 5.647 3.723 8.981 3.723 3.113 0 6.835-1.387 8.982-3.723 2.219-2.419 3.867-5.598 3.714-8.981-.146-3.323-1.248-6.623-3.714-8.976a18.015 18.015 0 0 1-1.7-1.87c.666.854 1.326 1.709 1.983 2.568a18.331 18.331 0 0 1-2.186-3.811c.424 1.01.857 2.02 1.282 3.034a19.638 19.638 0 0 1-1.221-4.571c.147 1.127.302 2.253.455 3.379a19.573 19.573 0 0 1 .011-5.055c-.152 1.127-.302 2.253-.455 3.379a18.41 18.41 0 0 1 1.148-4.25c-.427 1.011-.852 2.025-1.279 3.035a16.765 16.765 0 0 1 2.039-3.545 9.49 9.49 0 0 0 1.506-4.721 9.667 9.667 0 0 0-.227-5.065c-.813-2.946-3.09-6.136-5.834-7.589-2.948-1.559-6.516-2.336-9.789-1.281l-3.034 1.281a12.778 12.778 0 0 0-4.553 4.557"/><path fill="{{colors[4]}}" d="M199.24 569.813c22.376 1.409 44.946-15.855 49.207-37.924.652-3.395.51-6.723-1.284-9.785-1.54-2.636-4.563-5.148-7.589-5.837-6.271-1.431-14.277 1.892-15.622 8.871a34.1 34.1 0 0 1-1.95 6.513l1.278-3.029a36.794 36.794 0 0 1-4.466 7.662c.666-.855 1.332-1.715 1.989-2.569a39.672 39.672 0 0 1-7.048 7.023c.852-.66 1.709-1.32 2.566-1.985a39.792 39.792 0 0 1-8.157 4.742c1.018-.427 2.025-.854 3.034-1.281-2.916 1.204-5.925 2.047-9.054 2.475 1.124-.155 2.25-.305 3.374-.455a34.47 34.47 0 0 1-6.277.184c-6.641-.422-12.993 6.141-12.696 12.698.315 7.238 5.582 12.247 12.695 12.697m230.453-189.574c20.376-37.896 62.033-61.129 104.957-58.805 6.858.372 12.696-6.103 12.696-12.704 0-7.19-5.822-12.327-12.696-12.698-51.364-2.785-102.55 26.118-126.885 71.392-7.744 14.396 14.18 27.233 21.928 12.815"/><path fill="{{colors[4]}}" d="M472.997 326.433c.028-.787.087-1.564.147-2.352.137-1.786.041.588-.147 1.054.506-1.259.58-2.852.966-4.177.184-.622.374-1.243.59-1.859.179-.516 1.235-2.413.207-.671-1.063 1.786.096-.188.305-.632.341-.71.704-1.409 1.081-2.103a50.749 50.749 0 0 1 2.039-3.384 37.37 37.37 0 0 1 1.123-1.626c1.49-2.08.125.344-.305.344.424 0 2.224-2.613 2.591-3.013a58.63 58.63 0 0 1 3.079-3.089 62.753 62.753 0 0 1 3.22-2.808c1.438-1.181 1.016-.388-.146.078.571-.227 1.253-.932 1.777-1.304 2.517-1.792 5.124-3.451 7.787-5.021 5.354-3.145 10.914-5.902 16.471-8.66 5.963-2.957 8.094-11.882 4.554-17.375-3.93-6.103-10.992-7.717-17.371-4.555-12.588 6.235-25.273 12.82-35.396 22.778-10.391 10.224-17.39 23.672-17.97 38.373-.267 6.646 6.027 12.999 12.699 12.699 7.105-.315 12.417-5.58 12.699-12.697m-58.102 108.633c9.385-3.439 19.042-6.103 28.881-7.877 1.09-.195 2.188-.383 3.284-.561.375-.062 4.315-.627 2.705-.416-1.615.217 2.338-.268 2.721-.311 1.102-.117 2.202-.223 3.312-.322 5.162-.455 10.344-.654 15.524-.654 6.642.006 13.005-5.842 12.696-12.699-.305-6.885-5.577-12.698-12.696-12.698-21.455-.011-43.026 3.661-63.176 11.046-6.228 2.273-11.106 8.721-8.873 15.621 1.977 6.103 8.943 11.313 15.622 8.871"/><path fill="{{colors[4]}}" d="M389.614 447.377c-1.046 24.176 2.955 48.725 11.822 71.254 2.419 6.156 8.611 11.134 15.622 8.87 5.974-1.937 11.476-9.005 8.867-15.622-4.157-10.568-7.278-21.52-9.192-32.715-.217-1.242-.401-2.49-.597-3.732-.222-1.543-.237-1.66-.055-.372a81.56 81.56 0 0 1-.222-1.881 155.02 155.02 0 0 1-.711-8.161c-.369-5.88-.394-11.761-.136-17.641.289-6.646-6.044-12.998-12.698-12.704-7.127.321-12.392 5.581-12.7 12.704"/><path fill="{{colors[4]}}" d="M360.226 499.719c20.121 21.841 49.826 28.609 78.11 32.459 17.286 2.357 34.659 3.938 52.104 4.504 15.855.512 35.493 2.924 49.992-4.748 14.451-7.65 1.628-29.58-12.823-21.924-4.527 2.385-11.281 1.426-16.213 1.48a478.45 478.45 0 0 1-23.749-.299c-15.151-.583-30.311-1.831-45.336-3.884-22.892-3.124-47.795-7.827-64.121-25.553-11.102-12.043-29.032 5.953-17.964 17.965m-203.273-36.315c-13.317-5.665-26.637-11.313-39.948-16.998-10.235-4.372-21.12-8.71-27.613-18.229-6.641-9.73-10.088-21.292-16.962-30.884-6.954-9.703-17.112-18.063-29.037-20.565-12.418-2.602-24.733 1.748-32.362 11.944-7.209 9.631-9.117 22.4-8.435 34.174 1.415 24.481 13.417 47.764 31.239 64.413 21.341 19.938 49.507 30.667 77.986 35.276 6.759 1.094 13.661-1.752 15.622-8.87 1.665-6.058-2.063-14.519-8.874-15.622-38.458-6.225-80.083-25.563-89.405-67.182-2.203-9.842-3.015-37.191 13.854-27.205 7.989 4.727 11.845 13.236 15.789 21.264 4.554 9.287 9.206 18.701 16.632 26.102 8.418 8.383 19.161 13.236 29.921 17.818 12.923 5.504 25.846 10.996 38.778 16.5 6.305 2.679 13.605 1.885 17.369-4.561 3.126-5.332 1.792-14.674-4.554-17.375m86.451 105.344c67.919 16.853 136.561 30.733 205.707 41.479 34.578 5.376 69.403 10.702 104.28 13.692 31.08 2.668 62.256.166 92.073-9.31 32.433-10.307 62.143-27.677 87.075-50.816 12.009-11.145-5.981-29.069-17.956-17.957-42.304 39.255-98.596 57.185-155.778 53.112-33.066-2.357-66.102-7.55-98.845-12.582a2331.77 2331.77 0 0 1-99.288-17.441c-37.033-7.328-73.878-15.577-110.52-24.665-15.86-3.938-22.631 20.549-6.748 24.488m514.957-37.064c17.666-20.449 30.341-44.913 36.021-71.397 1.393-6.479-1.92-14.036-8.868-15.622-6.39-1.453-14.132 1.925-15.622 8.871a149.494 149.494 0 0 1-4.706 17.092c-.963 2.801-2.037 5.547-3.132 8.299.455-1.137.455-1.043-.022.027-.294.678-.597 1.354-.904 2.025a155.577 155.577 0 0 1-2.146 4.505 146.46 146.46 0 0 1-8.847 15.366c-1.623 2.475-3.39 4.838-5.101 7.252-1.118 1.586 1.177-1.443-.038.071-.467.577-.922 1.153-1.388 1.731a135.695 135.695 0 0 1-3.209 3.816c-4.342 5.025-5.307 13.092 0 17.963 4.765 4.373 13.328 5.366 17.962.001"/></svg>