<svg version="1.1" xmlns="http://www.w3.org/2000/svg" x="0" y="0" width="800" height="800" xml:space="preserve" preserveAspectRatio="none" viewBox="0 0 800 800"><path fill="{{colors[0]}}" d="M676.398 465.093c-22.414-52.215-74.591-93.006-130.632-57.682-26.259 16.555-33.071 43.194-39.205 71.653-1.02 4.704-2.155 9.321-3.344 13.907-6.383-37.534-19.235-73.15-38.161-105.767-3.801-40.762-10.154-79.678-27.107-117.582-7.914-17.701-17.228-36.915-30.249-51.521-10.021-11.232-20.103-10.985-30.961-15.872-4.271-30.515-12.609-59.867-37.273-79.731-16.707-13.461-36.706-21.463-54.441-33.325-22.492-15.042-39.939-35.283-53.413-58.57-8.856-15.306-36.884-14.004-40.296 5.263-2.331 13.196-4.322 26.866-9.722 39.218-5.963 13.643-16.439 21.274-25.179 32.678-1.571.549-3.108 1.54-4.486 3.245-4.096 5.081-7.93 10.306-11.649 15.607-1.345 1.846-2.623 3.74-3.906 5.635-6.189.42-12.247 3.45-16.447 10.269-14.763 23.993-34.146 43.986-57.82 59.28-14.544 9.392-12.984 25.796-2.739 34.848-2.177 10.312 1.825 22.157 14.666 26.322 8.558 2.778 17.281 4.877 26.083 6.577 11.796 14.117 24.159 27.992 37.982 40.149-.151 3.342.369 6.845 1.911 10.44 11.616 26.974 43.773 39.341 74.546 43.835-9.893 22.275-15.844 44.741-13.638 70.337 2.745 31.861 10.717 63.689 17.018 95.097-19.114 28.019-26.629 59.621-29.595 93.989-1.79 20.816 1.577 40.158 6.348 60.362 1.604 6.781 17.669 59.361 19.356 57.951-19.504 16.308 2.734 41.452 23.283 35.283l.964.711c6.152 4.521 16.016 3.681 22.253 0 1.362-.807 2.724-1.604 4.08-2.411.218-.129.401-.279.611-.408.263.312.441.655.732.978 23.515 25.662 46.904 6.815 70.032-6.037 30.863-17.146 63.528 24.229 90.932-4.401.982-1.023 1.809-2.121 2.635-3.209 19.934 12.217 44.992 24.089 64.213 16.007 10.206-4.296 16.187-13.413 17.541-23.983.816-6.371-1.371-11.872-1.487-18.275-.191-10.86 3.711-22.992 5.363-33.734 3.522-22.893 3.659-45.637 1.521-68.177 31.819-.764 58.103-22.528 73.373-50.287 9.275-16.855 14.396-35.499 21.247-53.355 8.547-22.271 14.084-41.569 40.171-32.937 20.295 6.727 31.784-16.318 24.889-32.377"/><path fill="{{colors[1]}}" d="M150.912 221.197a10.358 10.358 0 0 0-3.091-1.34c-5.097-1.249-9.187.979-11.396 4.462-2.209 1.808-3.726 4.515-4.253 7.378-.062.317-.089.662-.126.996-2.692 3.169-3.671 7.669-2.223 11.226.508 2.643 1.819 5.145 3.759 6.997 7.252 6.921 21.196 4.246 22.58-6.566.29-2.277-.111-4.499-.961-6.501 4.015-5.512 1.854-14.677-4.289-16.652m115.93-108.309c-4.133-3.999-10.621-4.532-15.497-1.981-2.661-.312-5.407.13-7.646 1.68-3.09 2.147-4.413 5.807-3.823 9.278-.055.28-.127.565-.164.846-.679 3.008-.08 6.243 2.198 8.762 1.355 1.5 3.14 2.604 5.074 3.229 2.326.947 4.896 1.033 7.231-.017 2.656.722 5.522.689 8.35-.608 7.758-3.564 10.708-14.979 4.277-21.189M97.147 223.586c-12.273-7.276-28.965-6.787-42.71-8.175-3.482-.35-5.174 2.147-5.191 4.849h-2.145c-7.093 0-7.104 11.022 0 11.022h2.359a5.9 5.9 0 0 0 .996.792c14.198 8.61 29.11 15.65 44.667 21.35 1.108 1.502 2.513 2.717 4.609 3.175 4.456.979 7.637-1.825 9.087-5.678 3.947-10.495-2.622-21.968-11.672-27.335m163.32-142.979a244.853 244.853 0 0 0-43.184-55.928c-2.104-2.04-4.686-1.975-6.598-.748-2.819-.092-5.522 1.625-5.14 5.236l3.868 36.925c.717 6.813-.227 18.051 4.911 23.594 10.232 11.043 33.213 4.332 44.166-1.54 2.655-1.419 3.397-5.02 1.977-7.539m250.46 673.383c-7.868-31.861-11.17-63.657-10.249-96.453.12-4.445-1.279-7.912-3.496-10.506.986-11.883-.331-23.819-4.523-35.585-2.52-7.039-6.651-12.895-9.949-19.536-7.626-15.349-8.359-29.287-7.918-45.961 4.156-2.562 7.144-7.061 7.182-13.508.209-36.747-1.29-73.376-4.338-109.951a348.954 348.954 0 0 0-1.983-22.089c-.105-1.022-.172-2.05-.277-3.073a.359.359 0 0 1-.074.011c-.195-1.469-.299-2.933-.514-4.402-1.333-9.095-9.876-12.636-17.871-11.608a184.927 184.927 0 0 0-4.983-11.049c-.748-1.534-1.657-2.761-2.635-3.848-1.879-21.35-8.383-41.973-20.098-61.095-1.911-3.121-4.365-5.145-7.021-6.377-.326-.522-.616-1.06-.947-1.577-7.044-10.968-15.287-22.389-24.815-31.376-7.066-6.657-17.636-9.197-26.113-13.46 16.77-51.665 7.489-113.137-46.792-130.369-4.983-1.583-8.102 4.031-6.225 8.094 18.667 40.429-12.553 55.643-43.321 72.575-9.539-.512-21.106-.679-28.558 6.016-2.663 2.39-4.486 5.205-5.749 8.245-7.399 6.416-11.644 15.823-10.338 25.445-.031.092-.081.178-.116.27-.484 1.308-.352 2.417.012 3.39-10.697 46.229-60.245 57.958-100.877 42.673-5.979-2.25-8.834 6.097-4.564 9.612-.043 1.728.657 3.499 2.42 4.746.204.141.403.27.6.409 7.798 18.525 21.727 28.459 38.418 34.745 15.056 9.941 31.858 16.737 51.297 18.234 11.874.915 23.381-.092 34.529-2.492.288 28.782-6.904 55.919-12.738 83.367-16.436 26.511-27.673 53.484-29.052 86.691-.268 6.543-.216 13.088-.015 19.621-2.215 11.291.767 24.745 2.322 35.876 5.376 38.522 8.462 65.056-8.339 100.715-6.135 13.003-5.237 30.331 9.918 36.35.2.754.398 1.518.73 2.303 4.963 11.808 5.464 21.398-.883 32.744-3.35 5.994-2.993 15.272 2.585 20.04 15.241 13.015 44.138 13.101 57.104-3.271 11.948 18.922 36.007 28.856 56.405 15.068 17.537-11.851 1.008-40.514-16.687-28.546-16.727 11.303-17.238-33.021-17.547-40.632-.752-18.396-.337-36.747.848-55.121.288-4.402-.964-7.836-3.046-10.408-.816-3.294-1.621-6.577-2.441-9.892 4.25-3.487 6.496-9.021 3.977-15.984-13.514-37.308-11.958-77.014-7.567-116.322 2.85 1.7 5.821 3.337 8.665 5.402 4.892 3.563 9.036 8.794 11.155 14.402 1.95 5.178 5.785 9.343 10.601 11.15 1.974 4.693 4.045 9.344 5.969 14.047 2.051 4.995 5.694 8.116 9.833 9.709-.094 15.284 1.863 30.439 3.94 45.573-.012.086-.043.15-.06.236-3.369 21.313-4.938 41.969-1.187 63.378 4.443 25.293 16.396 49.684 10.912 75.797-4.403 20.946 24.708 28.782 31.881 8.783.843-2.335 1.688-4.671 2.524-7.008 1.61-4.487 1.195-8.363-.39-11.506.648-21.678-4.674-42.797-8.77-64.173.536-1.335.972-2.733 1.152-4.241 4.615-37.264-8.024-73.376-6.975-110.359 1.388-1.712 2.478-3.853 3.135-6.479 5.433-21.84 11.616-43.41 18.317-64.819 4.41-5.704 10.836-11.226 13.783-16.037 2.013-3.272 3.638-6.695 5.061-10.193 5.659 9.407 9.246 29.363 9.346 29.912 2.358 13.615 3.929 27.351 4.943 41.139 1.867 25.51 1.432 50.934-.553 76.411-.241 3.078.283 5.694 1.319 7.857-.566 11.389-1.362 22.743-2.327 34.099-2.115 15.802-4.717 31.538-7.941 47.242-.799 3.876-.285 7.309 1.021 10.235-.849 5.427-1.688 10.852-2.642 16.265a899.99 899.99 0 0 1-3.729 19.935 13.835 13.835 0 0 0-1.329 3.067c-12.869-4.671-29.711 8.891-20.403 23.401 18.494 28.813 47.02 7.34 53.617-17.674 1.864-7.073 3.474-14.274 4.943-21.538a18.313 18.313 0 0 0 4.072 3.767c-1.223 3.702-2.538 7.352-2.755 11.409-.494 9.547 2.678 18.611 10.649 24.369 12.259 8.869 23.779-.646 36.2 4.025 12.356 4.65 23.116-9.074 20.335-20.332m148.616-271.47c-16.307-12.884-35.149-23.454-56.73-20.655-6.585.861-12.783 3.024-18.378 6.125-4.271 1.722-8.383 4.004-12.23 7.028-17.727 13.917-21.672 55.238-50.241 46.994-10.754-5.694-28.208 3.11-24.553 18.847 2.436 10.494-.71 19.17 6.568 25.64-.078 1.065-.147 2.142-.121 3.336.583 20.042 11.64 39.535 26.303 52.603 2.235 1.99 4.613 3.175 7.017 3.811 2.212 1.087 4.723 1.776 7.635 1.884 29.764 1.086 41.826-54.411 51.141-93.139.71-1.044 1.439-2.077 2.144-3.121 5.719-8.438 14.34-17.513 17.257-27.631.076-.183.129-.388.193-.581.42-1.593.68-3.229.78-4.876 1.853-.14 3.537-.624 5.109-1.28 5.736 2.303 11.106 5.543 14.729 8.396 16.516 13.054 40.077-10.185 23.377-23.381"/><path fill="{{colors[2]}}" d="M373.06 220.777a1127.966 1127.966 0 0 0-13.981 42.161c-.137.441-.17.851-.26 1.276-7.836 21.802-17.826 42.614-35.176 58.188-30.751 27.603-72.824 35.137-112.748 36.596-14.149.516-14.213 22.561 0 22.043 43.41-1.587 87.486-9.908 122.143-37.845 23.788-19.169 36.509-45.056 46.509-72.52.291-.591.578-1.195.792-1.878.288-.925.597-1.84.883-2.761 4.585-13.029 8.659-26.338 13.094-39.4 4.585-13.502-16.56-19.137-21.256-5.86"/><path fill="{{colors[3]}}" d="M124.576 167.993c1.23-7.81 4.222-15.205 7.104-22.529.28-.72.579-1.442.864-2.168-.78 1.991.188-.441.358-.807a74.694 74.694 0 0 1 2.57-5.221 54.377 54.377 0 0 1 2.914-4.795c.299-.436 1.76-2.411.205-.404a51.12 51.12 0 0 1 1.63-1.97 61.179 61.179 0 0 1 6.939-6.786c-.005.005 2.463-1.922 1.168-.958-1.319.974.984-.694 1.241-.867a80.275 80.275 0 0 1 4.33-2.836c2.959-1.813 6.03-3.45 9.165-4.945.629-.302 1.257-.593 1.892-.883-.016.011 2.903-1.297 1.394-.635-1.521.667 1.119-.452 1.41-.57.964-.382 1.935-.754 2.898-1.12 6.014-2.271 10.791-8.417 8.608-15.155-1.9-5.866-8.7-11.054-15.155-8.605-15.214 5.759-30.475 13.443-41.309 25.94-6.289 7.25-10.416 15.241-14.022 24.068-3.245 7.965-6.616 16.156-7.968 24.697-.998 6.34 1.62 13.557 8.608 15.156 5.902 1.343 14.083-1.799 15.156-8.607m-42.296 3.933c-12.841 4.747-20.271 15.123-30.195 23.841-4.195 3.687-8.245 6.587-14.041 10.032-3.815 2.25-7.125 4.741-8.901 8.944-2.167 5.124-1.373 10.672 1.434 15.414 6.673 11.302 16.96 22.448 28.524 28.766 11.853 6.486 25.041 8.697 38.251 10.495 6.356.867 13.54-1.523 15.155-8.605 1.319-5.786-1.773-14.224-8.608-15.155-5.465-.743-10.944-1.497-16.339-2.648-2.481-.528-4.943-1.13-7.368-1.863a68.597 68.597 0 0 1-3.586-1.178c-.019-.005-3.533-1.47-1.704-.641a49.797 49.797 0 0 1-6.609-3.616c-.186-.124-3.041-2.196-1.478-.975-1.122-.883-2.192-1.845-3.229-2.831a71.817 71.817 0 0 1-5.501-5.818 77.917 77.917 0 0 1-2.346-2.874c1.211 1.555-.96-1.308-1.063-1.458-.708-.964-1.367-2.121-2.155-3.014-1.33-2.6-2.102-1.195-2.315 4.208-2.766 4.72-3.049 6.302-.834 4.757 2.188-.672 4.631-2.771 6.515-4.036a129.74 129.74 0 0 0 14.577-11.329c3.571-3.213 6.794-6.749 10.169-10.161 1.593-1.615 3.229-3.213 4.992-4.64-1.878 1.518 1.168-.71 1.604-.973.5-.297 3.912-1.739 1.598-.884 6.03-2.228 10.78-8.449 8.609-15.155-1.913-5.906-8.686-10.998-15.156-8.603"/><path fill="{{colors[3]}}" d="M183.257 91.247c.617-12.341 3.676-25.617 9.017-37.032a115.2 115.2 0 0 1 10.056-17.378 78.748 78.748 0 0 1 4.707-6.049c1.346-1.566 2.729-3.1 4.155-4.58.365-.372.724-.737 1.081-1.109 2.877-2.384.848-2.427-6.067-.124-.137-.36 2.724 1.921 2.441 1.711 1.45 1.099 2.828 2.309 4.205 3.494a173.349 173.349 0 0 1 7.51 6.829 175.165 175.165 0 0 1 13.767 14.918c8.516 10.365 15.591 22.222 21.345 34.412 2.845 6.017 11.474 7.566 16.859 4.418 6.157-3.6 7.268-10.817 4.418-16.85-7.357-15.586-16.938-29.966-28.219-42.985a174.713 174.713 0 0 0-16.485-16.629c-7.439-6.555-16.213-15.381-27.07-12.81-9.12 2.164-15.833 12.126-21.178 19.181-4.674 6.173-8.756 12.75-12.136 19.724-7.753 16.011-12.152 33.083-13.045 50.858-.333 6.652 5.904 12.32 12.325 12.32 6.94.001 11.977-5.646 12.314-12.319m-74.788 198.955c11.832 24.79 28.281 52.048 53.032 65.739 24.679 13.654 53.754 13.116 81.083 11.722 15.779-.807 15.87-25.45 0-24.638-22.607 1.152-48.101 3.008-68.651-8.363-20.993-11.609-34.218-36.005-44.188-56.896-2.866-6.006-11.455-7.578-16.856-4.419-6.14 3.59-7.297 10.828-4.42 16.855m176.953-180.446c23.842 7.313 51.982 15.5 66.148 37.85 16.808 26.521 11.889 60.126 8.074 89.538-.853 6.609 6.278 12.319 12.324 12.319 7.368 0 11.458-5.689 12.317-12.319 4.491-34.648 8.056-73.311-12.689-103.874-18.373-27.066-49.701-38.094-79.625-47.27-15.188-4.661-21.687 19.116-6.549 23.756m64.933 154.974a631.125 631.125 0 0 1-14.185 21.086 544.254 544.254 0 0 1-7.387 10.258c-.055.075-1.769 2.357-1.458 1.964.306-.398-1.497 1.808-1.562 1.889a58.493 58.493 0 0 1-4.084 4.37 51.313 51.313 0 0 1-1.83 1.684c-.231.199-2.27 1.906-.881.813-1.461 1.151-3.031 2.19-4.59 3.196-3.159 2.034-6.432 3.869-9.744 5.629-7.462 3.977-15.013 7.798-22.518 11.689-5.732 2.976-7.897 11.458-4.421 16.856 3.77 5.845 10.727 7.593 16.859 4.418 15.193-7.868 32.057-14.843 44.55-26.866 6.615-6.356 11.828-14.278 17.117-21.737a616.381 616.381 0 0 0 15.403-22.819c3.501-5.424 1.292-13.836-4.413-16.855-6.119-3.227-13.124-1.371-16.856 4.425"/><path fill="{{colors[3]}}" d="M197.233 363.912c-10.538 23.099-18.104 48.288-19.105 73.81-.988 24.831 10.739 46.66 23.068 67.358 8.105 13.616 29.417 1.238 21.277-12.432-10.128-17.007-20.518-34.466-19.713-54.927.832-20.926 7.099-42.412 15.745-61.377 2.76-6.05 1.73-13.255-4.413-16.856-5.296-3.094-14.087-1.662-16.859 4.424m20.672 178.044c14.157 62.182 42.815 122.157 42.489 186.954-.078 15.854 24.563 15.877 24.641 0 .337-67.24-28.69-129.034-43.367-193.498-3.522-15.467-27.285-8.923-23.763 6.544"/><path fill="{{colors[3]}}" d="M263.613 752.989c-8.808 17.49 2.347 35.616 19.515 41.838 15.302 5.565 34.453 3.606 49.747-.84 9.358-2.724 17.679-7.039 21.154-16.76 2.845-7.953 2.283-17.318 1.352-25.563-2.067-18.277-5.107-36.479-7.72-54.69-.937-6.587-9.319-10.203-15.155-8.6-7.083 1.948-9.545 8.547-8.603 15.154 1.902 13.251 3.792 26.5 5.694 39.751.875 6.124 1.784 12.249 1.823 18.449.012 2.022.308 7.135-.678 7.619.098-.053.827-1.656 1.152-1.248.215.27-3.585 1.615-1.423.807-10.78 4.038-23.113 5.737-34.63 3.919 1.836.291-2.327-.57-2.211-.539-1.32-.334-2.704-.666-3.955-1.216 1.299.571-1.031-.624-1.367-.828a19.456 19.456 0 0 1-1.72-1.119c.667.451.706.42.116-.098-.567-.635-.562-.549.017.258a14.803 14.803 0 0 1-.952-1.496 12.547 12.547 0 0 1-.836-1.55c.421.948.499 1.022.231.205a12.5 12.5 0 0 1-.398-1.689c.182 1.195.258 1.334.231.43.031-.914 0-.754-.106.475.42-1.367.42-1.443 0-.236 2.987-5.933 1.572-13.349-4.418-16.857-5.48-3.198-13.857-1.54-16.86 4.424m50.929-214.305c-2.977 44.282-9.717 90.372-.563 134.299 2.382 11.441 21.88 12.076 23.759 0 .177-1.12.353-2.249.529-3.38 1.026-6.565-1.676-13.25-8.603-15.155-5.846-1.604-14.124 1.991-15.155 8.6-.184 1.131-.352 2.261-.531 3.392h23.759c-4.304-20.656-3.991-41.85-2.844-62.817 1.187-21.656 2.838-43.302 4.289-64.938.443-6.651-5.981-12.323-12.319-12.323-7.042-.002-11.87 5.649-12.321 12.322m39.114-3.175c3.98 13.982 3.803 28.276 3.859 42.699.053 14.747 1.216 29.213 3.625 43.776 4.474 26.984 12.918 54.765 7.866 82.277-1.203 6.543 1.795 13.294 8.602 15.154 5.985 1.648 13.948-2.022 15.156-8.6 5.626-30.644-1.649-60.309-7-90.415-2.58-14.487-3.57-28.792-3.612-43.496-.043-16.123-.291-32.312-4.738-47.94-4.332-15.23-28.112-8.75-23.758 6.545"/><path fill="{{colors[3]}}" d="M366.169 737.436c-2.337 10.193-4.403 20.58-5.444 30.987-1.218 12.132 5.438 20.388 16.492 24.391 17.142 6.2 40.655 9.203 57.575.861 20.127-9.924 17.304-31.979 17.256-50.664a304.502 304.502 0 0 1 5.874-60.492c1.303-6.522-1.863-13.304-8.604-15.155-6.068-1.679-13.847 2.046-15.156 8.601-3.271 16.393-5.459 33.033-6.33 49.729a313.265 313.265 0 0 0-.326 24.443c.143 5.597 1.908 14.155-1.079 19.203-1.704 2.884-6.459 3.972-9.882 4.315-6.866.711-14.076 0-20.816-1.377a98.778 98.778 0 0 1-5.764-1.346c-1.251-.334-4.309-1.948-5.466-1.636-1.076.291-.793-1.551-.017 1.323 1.032 3.811.832-1.776.932-2.55 1.068-8.096 2.688-16.125 4.518-24.09 1.487-6.47-2-13.325-8.608-15.155-6.216-1.7-13.662 2.1-15.155 8.612m81.827-332.67c-.925 5.767-.483 10.955-.252 16.724a58.353 58.353 0 0 1-.146 6.857c-.043.57-.097 1.14-.159 1.711-.163 1.378-.132 1.141.105-.722.253.538-.414 2.357-.535 2.961a58.777 58.777 0 0 1-1.642 6.221c-.354 1.098-.762 2.164-1.146 3.24-.832 2.368 1.079-2.293-.263.613-1.876 4.037-4.212 7.814-6.924 11.334-1.807 2.347-1.983 6.792-1.238 9.494.785 2.862 2.997 5.951 5.658 7.362 2.86 1.518 6.321 2.271 9.497 1.249 3.261-1.056 5.29-2.972 7.361-5.662 5.924-7.696 10.179-16.985 12.279-26.469 1.122-5.091 1.805-10.397 1.834-15.617.012-2.455-.193-4.887-.377-7.32-.096-1.302-.189-2.594-.206-3.886-.01-.731.446-4.854-.083-1.549.541-3.37.546-6.429-1.246-9.486-1.494-2.556-4.425-4.994-7.363-5.667-5.918-1.344-14.057 1.804-15.154 8.612"/><path fill="{{colors[3]}}" d="M433.844 487.169a976.554 976.554 0 0 1-3.799 162.649c-.709 6.62 6.174 12.314 12.317 12.314 7.252 0 11.611-5.673 12.325-12.314a976.124 976.124 0 0 0 3.796-162.649c-.95-15.757-25.593-15.865-24.639 0m-240.991 22.519c4.123 23.281-1.636 44.83-10.36 66.304-8.355 20.559-16.191 40.353-17.762 62.73-2.815 40.214 12.483 81.05 40.588 109.812 11.104 11.354 28.52-6.071 17.424-17.428-25.3-25.885-37.783-63.559-32.652-99.487 3.05-21.366 13.399-40.547 20.639-60.61 7.963-22.076 9.977-44.767 5.886-67.865-1.162-6.555-9.177-10.258-15.155-8.611-6.916 1.905-9.771 8.577-8.608 15.155"/><path fill="{{colors[3]}}" d="M221.209 741.46c-13.403-4.337-24.848 5.78-30.084 17.201-3.351 7.319-4.365 14.659-.969 22.173 2.22 4.919 6.541 9.105 11.333 11.539 5.768 2.917 11.772 3.767 18.104 4.542 5.578.688 11.186 1.13 16.808 1.302 12.163.377 24.221-.656 36.242-2.476 6.388-.969 10.48-9.342 8.603-15.155-2.261-6.963-8.304-9.633-15.157-8.6-.309.043-3.36.473-2.375.344.789-.096-1.466.174-1.709.195-2.01.236-4.028.43-6.044.58-4.033.324-8.086.506-12.135.549-4.044.043-8.094-.053-12.142-.279a199.191 199.191 0 0 1-6.727-.506c-.894-.086-1.792-.184-2.686-.279-.291-.033-3.62-.441-2.288-.26 1.109.152-1.11-.172-1.311-.215a42.326 42.326 0 0 1-2.833-.561c-.742-.182-1.471-.408-2.208-.623-1.904-.581 0 .258-.642-.334-.185-.172-1.877-1.452-.737-.397 1.003.925-.805-1.271.506.699-.265-.398-.605-1.377-.964-1.637.501.367.821 3.37.732 1.787-.07-1.313-.59 1.013.104-.14.354-.581 1.043-2.454.268-.882.737-1.496 1.708-2.875 2.456-4.36.685-1.367-1.096.861.068-.096.732-.604 1.81-1.486.4-.527 1.114-.754 1.069-.174.08-.066-.784.088-3.486-.484-1.241.238 6.132 1.991 13.718-2.314 15.155-8.602 1.534-6.748-2.038-13.033-8.607-15.154m150.425-535.757c46.98 42.985 74.09 104.822 73.521 168.537-.142 15.86 24.503 15.871 24.641 0 .621-69.856-29.169-138.781-80.734-185.958-11.686-10.689-29.155 6.689-17.428 17.421"/><path fill="{{colors[3]}}" d="M451.021 357.702c29.799 55.123 44 117.456 41.511 180.035-.637 15.855 24.006 15.834 24.637 0 2.661-66.842-13.077-133.648-44.871-192.472-7.542-13.956-28.827-1.529-21.277 12.437"/><path fill="{{colors[3]}}" d="M495.356 567.617c11.448 28.631 17.795 58.931 17.965 89.801.146 25.272-2.683 53.807-21.078 72.902-11.005 11.431 6.399 28.878 17.428 17.426 21.923-22.753 27.818-54.765 28.274-85.312.513-34.563-6-69.286-18.83-101.362-2.47-6.178-8.229-10.505-15.155-8.61-5.864 1.615-11.089 8.944-8.604 15.155"/><path fill="{{colors[3]}}" d="M492.764 752.429c3.979 3.929 7.952 7.869 11.93 11.808 1.759 1.744 3.494 3.499 5.26 5.243 2.661 2.626-1.766-1.41.884 1.118-.378-1.14-.449-1.302-.218-.483.233.914.187.656-.129-.766.315-1.119.642-2.238.955-3.356 2.613-2.164 3.015-2.682 1.207-1.529 1.587-.021-.017.031-.921.322-.964.313-1.95.527-2.921.797-2.611.754.976.162-1.526.236a68.007 68.007 0 0 1-3.642.021c-3.423-.064 1.805.593-1.539-.172-1.185-.27-2.335-.613-3.509-.936-2.36-.637.853.549-1.525-.637-6.714-3.313-16.302-.893-18.101 7.363-.562 2.594 1.461-1.915 1.658-2.239-.737 1.174-.579.227.352-.16-.554.236-1.188.623-1.707.936.845-.506 1.527-.559.198-.139-1.563.483-3.124 1-4.684 1.505-.844.27-1.68.539-2.518.797-1.081.346-4.101.398-1.245.916 3.85.699-.73-.658.516-.141.931.398-1.361-.732-1.581-.84-1.719-.861-3.439-1.711-5.164-2.571-3.652-1.809-7.307-3.628-10.966-5.448-5.764-2.862-13.608-1.732-16.857 4.425-2.945 5.565-1.737 13.788 4.426 16.855 5.159 2.563 10.319 5.124 15.478 7.696 6.697 3.326 12.451 5.607 20.029 3.477 10.206-2.874 23.233-6.598 25.83-18.513l-18.105 7.361c7.398 3.649 15.57 5.759 23.864 4.983 8.822-.828 19.535-3.626 24.226-11.925 5.054-8.934 1.431-18.924-4.954-25.951-5.533-6.093-11.727-11.689-17.574-17.48-4.585-4.542-12.914-4.919-17.426 0-4.498 4.898-4.897 12.584-.001 17.427m26.379-297.314c1.085-15.683 17.414-27.522 29.278-35.573 14.704-9.968 31.915-18.468 50.167-17.074 36.613 2.804 53.372 43.101 62.091 73.271 4.403 15.198 28.179 8.729 23.766-6.555-6.521-22.571-15.176-44.862-30.789-62.795-14.503-16.665-35.085-28.021-57.402-28.672-23.647-.694-46.521 10.354-65.185 24.019-18.215 13.328-34.918 29.613-36.567 53.38-1.096 15.822 23.547 15.757 24.641-.001"/><path fill="{{colors[3]}}" d="M664.004 490.161c-3.573-1.754-5.592-5.025-8.428-7.738-3.385-3.219-7.146-5.802-11.549-7.373-9.138-3.272-19.434-1.54-27.84 2.981-18.649 9.999-22.991 32.076-25.841 51.148-4.87 32.614-9.23 82.417-48.469 92.062-15.394 3.778-8.873 27.545 6.547 23.756 37.446-9.203 55.12-47.026 61.449-81.771 1.819-9.945 3.074-19.999 4.612-29.999 1.286-8.374 2.331-17.458 6.152-25.133 2.389-4.812 8.304-11.915 14.702-10.085 2.552.731 4.284 3.391 5.984 5.252 2.993 3.24 6.25 6.211 10.248 8.181 14.183 6.953 26.685-14.284 12.433-21.281M199.346 242.299a5.27 5.27 0 0 0-.789-.49c-1.178-.592-2.413-1.141-3.681-1.539a5.637 5.637 0 0 0-.904-.199c-1.047-.161-2.81-.522-4.139-.484-1.367.043-2.734.285-4.066.521a5.63 5.63 0 0 0-.899.237c-1.235.458-2.513.932-3.665 1.577-1.158.651-2.21 1.609-3.208 2.417a12.372 12.372 0 0 0-3.17 5.43 12.502 12.502 0 0 0 0 6.555c.614 2.562 2.035 4.677 3.776 6.587 1.846 2.034 4.034 2.965 6.515 3.923.242.092.484.167.746.216 1.21.226 2.626.554 3.934.474 2.734-.178 5.143-.625 7.495-2.126 2.098-1.334 4.101-3.18 5.242-5.43 1.262-2.481 1.956-4.677 1.956-7.508-.005-2.826-.693-5.026-1.956-7.502-1.252-2.454-3.108-3.923-5.286-5.462a12.27 12.27 0 0 0-6.221-1.679c-2.222.006-4.3.565-6.219 1.679-.153.07-.29.15-.427.242-.789.527-1.93 1.42-2.646 2.045-.051.043-.1.086-.146.129-.963.931-1.846 2.029-2.462 3.224a2.64 2.64 0 0 0-.105.221c-.441.947-.947 2.093-1.294 3.079-.057.15-.105.307-.141.468-.021.081-.032.162-.048.243-.175 1.06-.375 2.4-.463 3.471a5.58 5.58 0 0 0-.017.5c.089 2.82.711 5.451 2.15 7.901.048.086.105.166.159.247.551.791 1.367 1.819 1.983 2.567.11.135.226.264.358.382 2.535 2.271 3.054 2.292 6.151 3.6 1.63.511 3.272.587 4.912.216 1.635-.07 3.162-.56 4.58-1.459.831-.645 1.657-1.286 2.488-1.926a12.337 12.337 0 0 0 3.176-5.436c.579-3.073.678-4.591-.017-7.659a1.96 1.96 0 0 0-.088-.301c-.347-1.011-.859-2.142-1.306-3.116a3.854 3.854 0 0 0-.331-.603c-.705-.985-1.394-2.007-2.25-2.874-.07-.075-.148-.14-.231-.21-.447-.35-.894-.699-1.343-1.039-.437-.36-.889-.705-1.346-1.038-.089-.054-.178-.108-.264-.162-.915-.495-2.145-.941-3.116-1.324a3.366 3.366 0 0 0-.71-.199 9.338 9.338 0 0 0-4.917-.221c-1.636.075-3.162.561-4.58 1.459-.831.646-1.658 1.287-2.489 1.926a12.31 12.31 0 0 0-3.17 5.441c-.533 2.691-.81 5.415.137 8.079 1.061 2.971 1.488 3.584 3.49 6 .832 1.012 2.01 1.701 3.046 2.465.983.419 1.962.833 2.945 1.249a9.311 9.311 0 0 0 4.916.221 6.205 6.205 0 0 0 3.108-.84 9.196 9.196 0 0 0 3.961-2.551c.73-.932 1.593-1.776 2.134-2.826.089-.167.999-2.088 1.3-3.122.15-.511.43-2.82.458-3.374.155-2.665-.683-4.709-1.79-7.04-.578-1.216-1.477-2.303-2.438-3.234-1.894-1.835-3.702-2.847-6.194-3.649-1.09-.355-3.345-.517-3.652-.533-.678-.038-1.345.129-2.024.215-1.982.274-1.657.188-3.482.958-2.023.855-2.327.984-4.305 2.76-.064.065-.137.13-.199.199-.495.543-1.569 1.949-1.983 2.567-.633.947-1.201 2.669-1.432 3.267-.514 1.313-.651 2.798-.619 4.208.029 1.377.145 2.832.614 4.139.307.861.88 2.207 1.278 3.031.043.097.081.183.132.269.611 1.044 1.395 2.002 2.215 2.885 1.523 1.636 2.734 2.211 4.591 2.998.735.307 1.251.603 1.961.753 1.214.253 2.548.527 3.821.436 2.75-.172 4.712-.603 7.136-1.986.111-.064.21-.135.308-.204a34.198 34.198 0 0 0 2.597-2.007c.904-.786 1.873-2.271 2.365-2.938a3.9 3.9 0 0 0 .331-.533c.439-.84.958-2.164 1.3-3.057.038-.112.089-.231.122-.35.331-1.216.474-2.519.521-3.767.1-2.417-.637-4.532-1.746-6.636a3.885 3.885 0 0 0-.215-.36c-.38-.571-1.532-2.062-1.979-2.557-.043-.054-.094-.102-.137-.15-.926-.889-1.956-1.776-3.13-2.331-2.881-1.367-3.659-1.593-6.856-1.846-1.33-.107-3.086.264-4.134.452a5.033 5.033 0 0 0-.847.227c-.867.323-2.188.877-3.027 1.281-.076.037-.159.07-.237.113-.154.081-.296.178-.441.274a43.729 43.729 0 0 0-2.72 2.12c-.099.091-.188.199-.283.307-1.819 2.174-2.656 3.278-3.503 6.049-.393 1.292-.563 2.68-.546 4.031.032 2.729.662 4.618 1.867 7.013.073.134.138.258.216.382.436.668 1.467 1.948 1.978 2.567.062.065.111.135.173.199.915.98 2.025 1.814 3.196 2.465.555.313 1.284.56 1.795.78.551.231 1.241.576 1.87.764 1.333.382 2.772.512 4.149.587 1.372.075 2.788-.227 4.109-.49.15-.026.298-.059.446-.107.083-.027.172-.064.256-.097.979-.42 1.961-.829 2.941-1.244.056-.021.11-.048.166-.075.16-.086.308-.183.458-.285.653-.463 1.973-1.448 2.562-1.986.078-.07.153-.14.226-.221a21.145 21.145 0 0 0 2.183-2.82c.049-.087.1-.178.143-.27.236-.522.457-1.049.673-1.583.231-.517.452-1.043.662-1.582.489-1.416.7-2.993.599-4.494-.226-3.332-.588-4.241-1.934-7.217-.601-1.324-1.698-2.529-2.602-3.573-.937-1.087-2.199-1.943-3.383-2.702a4.612 4.612 0 0 0-.616-.323c-.583-.258-2.344-1.162-3.495-1.41-3.318-.711-4.402-.56-7.705-.021l-2.944 1.243a9.345 9.345 0 0 0-3.46 3.17 6.18 6.18 0 0 0-1.58 2.718c-.771 1.468-1.125 3.051-1.065 4.746-.026.301-.017.592.011.893.111 1.179.255 2.422.492 3.59.032.146.07.291.116.431.191.619.522 1.287.748 1.83.242.571.484 1.244.789 1.819.073.134.143.258.227.387.64.964 1.415 1.9 2.155 2.799.169.215.357.414.567.598a39.949 39.949 0 0 0 2.745 2.12c.137.098.274.188.422.27 1.009.543 2.161.958 3.224 1.377.141.054.278.107.415.15.142.043.293.07.436.092.859.167 2.474.36 3.34.452.104.006.209.027.314.027.126.005.253 0 .379-.017 1.157-.075 2.446-.269 3.587-.479.148-.027.293-.06.436-.103.078-.027.154-.054.236-.086a46.47 46.47 0 0 0 3.061-1.292c.274-.124.527-.27.769-.441a38.586 38.586 0 0 0 2.702-2.083c.126-.112.248-.226.364-.35.431-.468.861-1.092 1.208-1.539.363-.469.843-1.013 1.173-1.562.069-.124.137-.258.2-.387.368-.802.952-2.168 1.266-3.003.033-.097.071-.193.097-.29.046-.141.073-.285.099-.426.157-.855.359-2.481.448-3.347l.015-.184c.084-1.351-.197-2.734-.499-4.047-.286-1.254-.894-2.481-1.484-3.595a2.758 2.758 0 0 0-.203-.35c-.033-.048-.064-.097-.101-.14a35.035 35.035 0 0 0-2.03-2.631 5.243 5.243 0 0 0-.552-.533c-.848-.694-2.007-1.744-3.134-2.32-2.536-1.281-4.669-1.98-7.551-2.001-.646-.006-1.478.167-1.978.236-.531.07-1.351.124-1.981.28-.594.156-1.372.555-1.795.732-.425.177-1.278.468-1.808.791-1.046.641-2.056 1.399-2.933 2.271-.422.42-.88 1.109-1.162 1.469-.337.436-.837 1.001-1.163 1.539-.06.103-.111.205-.159.313-.237.5-.552 1.287-.667 1.566-.132.328-.495 1.082-.673 1.615-.39 1.179-.517 3.17-.594 3.923-.021.227-.032.447-.021.668.075 1.157.264 2.389.468 3.53.021.135.043.264.083.393.169.598.511 1.26.721 1.754.174.431.457 1.211.742 1.744.051.086.105.167.162.252.489.722 1.41 1.9 1.983 2.573.043.049.083.103.126.15.851.91 1.907 1.664 2.965 2.304.521.322 1.311.581 1.757.77.546.231 1.208.586 1.84.732.057.016.105.016.162.026.863.156 2.513.409 3.376.452.111.006.221.006.331 0 .91-.043 2.468-.301 3.378-.452.056-.005.11-.011.167-.021.137-.037.28-.07.419-.113 2.545-.851 4.692-1.98 6.596-3.918.877-.893 1.63-1.916 2.303-2.97.072-.108.127-.216.183-.329.236-.489.595-1.415.66-1.571.184-.42.53-1.109.689-1.674.182-.608.227-1.454.293-1.949.043-.366.248-1.339.236-1.954 0-.054-.005-.107-.01-.161-.021-.495-.347-2.826-.441-3.326a7.146 7.146 0 0 0-.111-.436c-.827-2.654-1.767-3.772-3.471-5.893a4.942 4.942 0 0 0-.562-.603c-1.074-.948-2.325-2.056-3.687-2.692-1.33-.607-2.855-1.404-4.381-1.652-1.272-.204-2.586-.452-3.881-.489a5.226 5.226 0 0 0-.832.037c-1.151.124-2.414.264-3.549.479-.126.026-.255.048-.382.08-.248.064-.484.156-.727.248-1.052.431-2.171.839-3.186 1.362a3.798 3.798 0 0 0-.336.188c-.105.07-.208.141-.313.216-.92.673-1.897 1.377-2.745 2.136a13.166 13.166 0 0 0-2.807 3.628c-.059.112-.11.226-.164.344-.463 1.045-.966 2.116-1.34 3.198a4.897 4.897 0 0 0-.191.791 50.555 50.555 0 0 0-.476 3.499 5.352 5.352 0 0 0 .011 1.216c.124 1.151.272 2.4.482 3.546.021.129.048.258.075.382.067.253.15.5.242.742.446 1.167.904 2.422 1.528 3.541.375.679.931 1.298 1.389 1.889.425.555.869 1.228 1.399 1.739.094.086.188.172.288.252a33.73 33.73 0 0 0 2.755 2.12c.213.151.434.269.67.376.541.253 2.414 1.077 2.992 1.266 1.236.409-3.547.796 3.38.484.546-.075 1.089-.145 1.635-.22a6.161 6.161 0 0 0 3.108-.84c.546-.231 1.125-.42 1.649-.716 1.127-.64 2.131-1.54 3.125-2.363.247-.209.463-.447.667-.694.727-.889 1.475-1.809 2.115-2.756.073-.107.137-.22.205-.328.656-1.172 1.141-2.449 1.587-3.708.097-.285.165-.575.215-.877.203-1.173.385-2.4.479-3.595.011-.167.017-.34.006-.512-.03-.651-.167-1.362-.242-1.958-.083-.619-.146-1.362-.289-2.024a4.444 4.444 0 0 0-.121-.441c-.375-1.114-.893-2.245-1.383-3.31a5.29 5.29 0 0 0-.458-.797 54.38 54.38 0 0 0-2.087-2.702 5.217 5.217 0 0 0-.353-.393c-.93-.92-2.04-1.685-3.097-2.433a6.033 6.033 0 0 0-.866-.495c-1.03-.469-2.116-.942-3.186-1.33a4.139 4.139 0 0 0-.434-.14c-.155-.038-.304-.06-.452-.086-1.203-.199-2.454-.404-3.67-.474l-3.28.436a9.3 9.3 0 0 0-4.188 2.207 6.247 6.247 0 0 0-2.211 2.212c-1.09 1.189-1.822 2.583-2.204 4.187-.07.184-.137.372-.18.56a5.936 5.936 0 0 0-.057.29 46.488 46.488 0 0 0-.468 3.445c-.089.91.105 1.776.231 2.686.116.866.167 1.819.468 2.664a39.31 39.31 0 0 0 1.424 3.375c.081.178.175.355.28.522 1.646 2.669 3.256 4.101 5.774 5.877.162.113.326.205.498.302.088.049.174.086.264.129.937.436 2.134.948 3.103 1.308 1.334.484 3.054.538 4.3.684a9.278 9.278 0 0 0 4.75-1.065 9.129 9.129 0 0 0 3.961-2.541 9.255 9.255 0 0 0 2.549-3.967c.769-1.469 1.122-3.051 1.063-4.747-.148-1.091-.298-2.184-.441-3.276a12.36 12.36 0 0 0-3.17-5.441c-.832-.635-1.657-1.276-2.489-1.921a12.26 12.26 0 0 0-6.221-1.679l-.118-.017c1.093.151 2.185.297 3.275.441a4.266 4.266 0 0 1-1.015-.279c.982.42 1.962.834 2.944 1.249a5.247 5.247 0 0 1-1.003-.592l2.497 1.921a5.265 5.265 0 0 1-.826-.829c.638.835 1.284 1.664 1.921 2.492a5.925 5.925 0 0 1-.715-1.216c.414.979.825 1.959 1.245 2.938a5.245 5.245 0 0 1-.336-1.243c.148 1.092.293 2.179.441 3.277a4.665 4.665 0 0 1 .011-1.163l-.446 3.272c.056-.313.131-.608.247-.904-3.955 3.019-7.919 6.033-11.875 9.046.132.005.258.021.39.038-1.09-.15-2.183-.296-3.272-.441.39.06.764.167 1.135.318-.982-.409-1.964-.824-2.943-1.238.363.161.699.36 1.02.603-.832-.646-1.666-1.286-2.497-1.926.314.242.589.521.842.833-.643-.833-1.283-1.663-1.926-2.491.242.312.439.651.605 1.011-.42-.979-.832-1.958-1.246-2.944.148.371.253.743.304 1.136-.146-1.093-.293-2.185-.437-3.278.038.388.027.77-.021 1.152.148-1.088.291-2.18.441-3.273a5.527 5.527 0 0 1-.309 1.12c.412-.985.826-1.97 1.241-2.944a5.652 5.652 0 0 1-.646 1.114c.646-.84 1.284-1.663 1.93-2.498a5.374 5.374 0 0 1-.82.818c.831-.645 1.663-1.286 2.489-1.926-.202.15-.417.29-.648.409l9.488-1.244a.74.74 0 0 1-.097-.043c.979.415 1.962.829 2.941 1.243a4.164 4.164 0 0 1-.942-.56c.827.641 1.658 1.287 2.492 1.927a5.11 5.11 0 0 1-.767-.775c.646.829 1.284 1.663 1.93 2.492a5.332 5.332 0 0 1-.667-1.142c.414.98.826 1.964 1.24 2.945a5.782 5.782 0 0 1-.387-1.389c.145 1.092.293 2.18.436 3.267a5.758 5.758 0 0 1-.005-1.425c-.148 1.092-.291 2.185-.441 3.267.062-.394.161-.775.309-1.152-.414.979-.827 1.958-1.241 2.943.143-.338.326-.656.552-.947-.646.829-1.284 1.658-1.93 2.492.21-.264.441-.495.7-.705-.832.641-1.658 1.286-2.489 1.926.29-.221.605-.403.937-.554-.982.409-1.962.818-2.944 1.237a5.446 5.446 0 0 1 1.268-.354c-1.09.145-2.183.296-3.272.441a5.724 5.724 0 0 1 1.547 0c-1.09-.146-2.183-.297-3.272-.441.438.069.864.183 1.284.35-.988-.42-1.962-.829-2.95-1.243.414.172.789.388 1.141.651-.832-.641-1.664-1.281-2.497-1.927.293.231.546.49.771.775-.64-.829-1.283-1.663-1.929-2.492.116.146.215.301.309.463-.414-.979-.826-1.959-1.246-2.944.051.146.089.279.11.431-.148-1.093-.29-2.185-.441-3.278.017.183.017.35-.005.532.148-1.092.298-2.185.441-3.277a2.759 2.759 0 0 1-.132.511l1.24-2.943a2.822 2.822 0 0 1-.382.656c.646-.828 1.286-1.663 1.924-2.491a3.375 3.375 0 0 1-.552.543c.834-.64 1.666-1.281 2.497-1.926a3.814 3.814 0 0 1-.677.393c.987-.409 1.961-.823 2.948-1.238a3.164 3.164 0 0 1-.745.199c1.098-.15 2.188-.296 3.281-.441a3.066 3.066 0 0 1-.542 0l3.28.436a2.453 2.453 0 0 1-.53-.135l2.944 1.243a2.577 2.577 0 0 1-.458-.264c.827.641 1.658 1.275 2.489 1.926a2.392 2.392 0 0 1-.422-.425c.638.84 1.284 1.668 1.924 2.502a2.87 2.87 0 0 1-.341-.603l1.238 2.944a3.728 3.728 0 0 1-.181-.678c.149 1.092.291 2.18.441 3.272a3.784 3.784 0 0 1-.005-.921c-.146 1.093-.293 2.185-.437 3.278.038-.274.105-.533.205-.791a957.9 957.9 0 0 0-1.241 2.939 3.14 3.14 0 0 1 .401-.694c-.638.828-1.283 1.657-1.921 2.492.126-.156.264-.296.422-.426-.826.641-1.658 1.287-2.489 1.927.17-.13.347-.227.539-.313l-2.941 1.243c.217-.091.433-.14.665-.172l-3.272.436c.231-.021.451-.016.684.006l-3.281-.437c.31.043.6.13.888.248l-2.944-1.243c.25.118.481.253.708.414-.834-.641-1.666-1.286-2.498-1.926.253.193.474.409.673.651a465.305 465.305 0 0 1-1.929-2.493c.164.221.301.447.412.695-.412-.98-.827-1.959-1.238-2.944.105.259.169.512.216.781-.151-1.092-.293-2.18-.441-3.272.021.248.016.49-.017.737.148-1.093.296-2.185.439-3.283-.038.258-.105.49-.197.727.412-.979.832-1.958 1.243-2.944a4.526 4.526 0 0 1-.433.765c.638-.84 1.283-1.664 1.921-2.498-.208.27-.439.501-.705.722.834-.641 1.666-1.281 2.498-1.927-.274.21-.568.382-.877.522.982-.419 1.962-.829 2.943-1.243-.32.129-.64.221-.973.269 1.089-.146 2.182-.296 3.271-.441a3.523 3.523 0 0 1-.888-.011c1.098.15 2.182.296 3.28.441a3.885 3.885 0 0 1-.851-.247c.982.414 1.964.828 2.944 1.243a4.633 4.633 0 0 1-.759-.441c.832.64 1.663 1.281 2.489 1.926a4.886 4.886 0 0 1-.805-.802c.646.829 1.283 1.663 1.93 2.492a4.806 4.806 0 0 1-.579-.99c.414.979.826 1.959 1.24 2.944a5.051 5.051 0 0 1-.299-1.108c.148 1.093.299 2.185.441 3.277a4.517 4.517 0 0 1-.005-.893c-3.014 3.956-6.036 7.922-9.05 11.883.038-.005.083-.016.116-.021-1.084.146-2.182.297-3.272.441a3.48 3.48 0 0 1 .816 0c-1.093-.145-2.183-.29-3.281-.441.27.044.531.113.784.21-.982-.414-1.962-.823-2.944-1.237.326.134.624.312.904.527a459.17 459.17 0 0 0-2.489-1.927 4.7 4.7 0 0 1 .743.749c-.646-.829-1.283-1.664-1.93-2.493.215.286.393.582.53.904-.414-.979-.825-1.959-1.24-2.944.116.291.194.576.237.883-.148-1.093-.291-2.185-.441-3.278.027.264.027.522-.006.786.149-1.093.299-2.185.441-3.278a3.182 3.182 0 0 1-.183.662c.414-.979.829-1.964 1.24-2.944a2.94 2.94 0 0 1-.296.533c.638-.835 1.284-1.664 1.921-2.498a3.013 3.013 0 0 1-.438.458c.831-.646 1.658-1.292 2.489-1.927a2.995 2.995 0 0 1-.616.361l2.941-1.244a3.655 3.655 0 0 1-.885.237c1.09-.151 2.183-.296 3.271-.441a4.134 4.134 0 0 1-.93-.006c1.092.146 2.183.296 3.274.441a4.174 4.174 0 0 1-.987-.264c.982.409 1.962.829 2.944 1.243a3.838 3.838 0 0 1-.705-.403l2.494 1.921a2.698 2.698 0 0 1-.495-.495c.64.834 1.283 1.663 1.93 2.497a2.587 2.587 0 0 1-.272-.457c.414.985.829 1.964 1.24 2.944a2.459 2.459 0 0 1-.165-.608c.143 1.088.291 2.18.437 3.272a2.16 2.16 0 0 1 0-.533 408.586 408.586 0 0 0-.441 3.277 2.11 2.11 0 0 1 .153-.565c-.411.985-.825 1.964-1.245 2.943a2.47 2.47 0 0 1 .253-.425c-.644.834-1.29 1.663-1.927 2.492.154-.199.336-.371.533-.527l-2.489 1.921c.207-.151.433-.28.678-.387l-2.944 1.243c.299-.129.605-.215.931-.264l-3.28.436a3.87 3.87 0 0 1 .861-.011l-3.28-.436c.221.027.431.081.64.156-.982-.409-1.962-.824-2.944-1.238.178.075.332.161.488.274-.835-.646-1.666-1.281-2.492-1.926.126.102.236.215.341.344-.646-.834-1.284-1.664-1.93-2.497.105.145.183.291.253.446-.412-.979-.832-1.958-1.246-2.943l.035.086c-.146-1.093-.293-2.19-.436-3.272 0 .124-.006.248-.017.371.143-1.092.291-2.179.441-3.271a3.328 3.328 0 0 1-.199.715c.412-.979.827-1.958 1.241-2.943a3.24 3.24 0 0 1-.388.645c.646-.829 1.284-1.663 1.925-2.492a3.353 3.353 0 0 1-.536.522c.834-.641 1.665-1.281 2.497-1.927-.204.151-.412.27-.643.366.979-.414 1.962-.829 2.941-1.238-.193.07-.379.119-.584.151 1.093-.151 2.183-.296 3.275-.441-.167.016-.32.016-.487.005 1.097.146 2.188.285 3.28.441a2.039 2.039 0 0 1-.552-.15c.982.419 1.962.833 2.944 1.249a2.17 2.17 0 0 1-.415-.248c.827.641 1.661 1.281 2.492 1.927a2.945 2.945 0 0 1-.336-.351c.638.835 1.284 1.664 1.93 2.498a2.665 2.665 0 0 1-.298-.511c.414.985.825 1.964 1.24 2.943a3.066 3.066 0 0 1-.188-.661c.15 1.087.298 2.179.441 3.272a3.21 3.21 0 0 1 0-.679c-.143 1.088-.291 2.18-.441 3.273.035-.188.083-.366.161-.549-.42.984-.834 1.964-1.245 2.949.054-.113.121-.221.19-.322-.644.828-1.289 1.663-1.927 2.491.1-.124.21-.231.336-.329-.833.641-1.665 1.281-2.491 1.927.083-.06.158-.107.252-.156l-2.941 1.243a1.58 1.58 0 0 1 .379-.112c-1.098.145-2.182.29-3.28.441.132-.017.253-.017.388-.006-1.093-.146-2.183-.291-3.275-.441.167.027.314.07.468.124-.979-.409-1.962-.824-2.941-1.232.153.069.291.15.428.247-.831-.641-1.658-1.286-2.489-1.926.159.129.301.263.433.425-.638-.834-1.283-1.663-1.921-2.498.122.162.221.329.302.511-.412-.979-.826-1.958-1.24-2.938.056.15.094.29.124.457a408.828 408.828 0 0 1-.441-3.278 1.64 1.64 0 0 1-.011.366c.148-1.088.29-2.18.438-3.267a2.471 2.471 0 0 1-.075.27c.412-.985.831-1.964 1.24-2.944a1.163 1.163 0 0 1-.146.253c.646-.828 1.292-1.668 1.93-2.492-.021.027-.038.054-.06.081 4.976-.641 9.951-1.286 14.929-1.927-.04-.027-.072-.054-.104-.081l2.489 1.932a3.334 3.334 0 0 1-.444-.469c.638.824 1.284 1.664 1.922 2.492a3.065 3.065 0 0 1-.317-.564c.411.979.831 1.964 1.243 2.944a2.794 2.794 0 0 1-.169-.625c.142 1.087.291 2.18.436 3.272a2.969 2.969 0 0 1-.011-.646c-.15 1.092-.293 2.18-.441 3.272a3.7 3.7 0 0 1 .043-.253c-5.053 2.869-10.101 5.737-15.155 8.6.248.038.479.108.716.205-.979-.42-1.962-.829-2.941-1.244.186.092.364.194.527.318-.832-.64-1.657-1.287-2.489-1.927.197.156.375.329.533.522-.638-.839-1.284-1.663-1.921-2.498.175.237.323.479.439.754-.407-.985-.827-1.964-1.238-2.944.092.231.159.468.197.716-.148-1.092-.291-2.185-.441-3.277.024.204.03.414.008.619.148-1.098.29-2.18.438-3.272-.005.081-.021.162-.037.248 5.054-2.869 10.107-5.737 15.155-8.605a.45.45 0 0 0-.094-.043l2.945 1.243a3.566 3.566 0 0 1-.503-.296l2.492 1.921a3.227 3.227 0 0 1-.474-.468c.646.824 1.283 1.664 1.929 2.492a3.438 3.438 0 0 1-.393-.662c.414.98.829 1.959 1.241 2.944a4.04 4.04 0 0 1-.259-.947c.149 1.092.293 2.179.441 3.271a4.145 4.145 0 0 1-.005-.996c-.15 1.098-.293 2.191-.441 3.277.043-.323.126-.64.253-.947-.412.985-.827 1.964-1.247 2.943.105-.236.231-.452.394-.662a523.59 523.59 0 0 0-1.93 2.492c.137-.178.296-.328.474-.474-.832.646-1.666 1.287-2.497 1.927.166-.119.331-.216.513-.302h-12.44c.035.017.062.043.089.064-.826-.641-1.658-1.281-2.491-1.926.177.14.325.29.471.463-.646-.829-1.287-1.664-1.93-2.492.131.177.242.36.331.564l-1.24-2.944c.111.274.186.549.227.851-.15-1.093-.293-2.185-.441-3.278.026.264.026.517.005.78.143-1.093.293-2.185.437-3.278a3.324 3.324 0 0 1-.227.851c.412-.979.826-1.964 1.24-2.944a3.176 3.176 0 0 1-.326.565c.638-.829 1.285-1.663 1.925-2.492-.14.172-.293.323-.471.463.833-.646 1.665-1.286 2.497-1.926a3.178 3.178 0 0 1-.479.274l2.943-1.244a3.15 3.15 0 0 1-.629.178c1.092-.146 2.183-.296 3.275-.441a3.393 3.393 0 0 1-.767.006c1.093.146 2.183.296 3.28.441a3.755 3.755 0 0 1-.861-.231c.988.414 1.962.829 2.95 1.243a3.403 3.403 0 0 1-.673-.388c.826.641 1.657 1.287 2.492 1.927a3.283 3.283 0 0 1-.546-.533c.638.829 1.284 1.658 1.924 2.492a2.981 2.981 0 0 1-.332-.565c.412.985.832 1.964 1.246 2.944a2.964 2.964 0 0 1-.135-.425c-1.057 3.999-2.115 7.997-3.167 11.991.032-.027.064-.059.104-.086-.831.645-1.666 1.286-2.497 1.926a5.362 5.362 0 0 1 1.146-.662l-2.943 1.244a6.142 6.142 0 0 1 1.278-.344c-1.09.15-2.18.295-3.272.441a6.05 6.05 0 0 1 1.461-.006c-1.098-.15-2.188-.295-3.28-.441.484.07.953.194 1.405.382l-2.941-1.244a5.54 5.54 0 0 1 1.031.608 9.152 9.152 0 0 0 4.58 1.458 9.286 9.286 0 0 0 4.908-.221 9.258 9.258 0 0 0 4.19-2.201 9.264 9.264 0 0 0 3.173-3.461c.414-.979.829-1.958 1.24-2.938a12.4 12.4 0 0 0 0-6.555 895.79 895.79 0 0 0-1.24-2.939 12.486 12.486 0 0 0-4.422-4.409m72.807-86.776c-.975-.803-1.945-1.723-3.091-2.304-.81-.408-2.214-1.017-3.071-1.297a5.38 5.38 0 0 0-.4-.107c-2.777-.608-5.038-.646-7.82.059-1.484.372-3.003.985-4.261 1.884-.818.581-1.859 1.356-2.606 2.018a3.315 3.315 0 0 0-.321.307c-.407.446-.836 1.065-1.152 1.47-.378.489-.899 1.071-1.225 1.647-.636 1.146-1.11 2.383-1.54 3.621-.283.797-.333 1.723-.437 2.536-.116.834-.291 1.71-.281 2.567.023 1.367.325 3.062.517 4.219.099.608.236 1.206.453 1.788.541 1.463 1.141 3.218 2.071 4.568.861 1.244 1.747 2.579 2.904 3.579 2.129 1.846 3.952 3.1 6.719 3.865 2.712.737 5.121.651 7.826.054 1.471-.323 2.954-.937 4.184-1.814 2.39-1.706 3.651-2.826 5.256-5.354a14.796 14.796 0 0 0 1.808-4.295c.364-1.496.668-3.165.552-4.736-.231-3.396-.701-4.623-2.056-7.674a8.568 8.568 0 0 0-.937-1.621c-.977-1.329-2.001-2.755-3.208-3.923a20.382 20.382 0 0 0-1.338-1.184c-2.458-2.04-3.681-2.852-6.764-3.912-2.314-.797-5.279-.748-7.636-.135-3.471.904-6.41 3.213-8.223 6.292-1.764 2.992-2.089 6.485-1.674 9.837.197 1.599.331 3.493.832 5.103.489 1.593 1.119 3.202 1.983 4.634.661 1.076 1.509 2.088 2.319 3.051.205.242.415.474.658.684 1.167 1.007 2.401 2.099 3.828 2.767 2.955 1.388 4.185 1.765 7.48 2.029.274.026.544.037.827.016a35.057 35.057 0 0 0 3.423-.457c.197-.038.39-.075.583-.14 1.195-.398 2.398-.861 3.494-1.486.13-.075.253-.167.378-.253.805-.57 1.886-1.367 2.608-2.023.567-.501 1.013-1.19 1.466-1.782.541-.7 1.042-1.243 1.4-2.013.435-.941.947-2.109 1.294-3.083.056-.14.099-.28.139-.431.313-1.189.484-3.105.555-3.869.161-1.61-.202-3.359-.484-4.888-.286-1.522-1.08-3.078-1.747-4.396-.746-1.469-1.914-2.777-2.949-4.01a13.785 13.785 0 0 0-1.448-1.442c-.238-.199-.475-.398-.719-.592-.147-.113-.291-.231-.438-.345a444.352 444.352 0 0 1-2.493-1.926 12.26 12.26 0 0 0-6.221-1.679c-2.871.135-4.742.576-7.271 1.937-1.263.673-2.473 1.587-3.42 2.675-2.078 2.4-2.592 3.357-3.706 6.334-.532 1.431-.665 3.035-.721 4.542-.149 3.901 1.582 8.126 4.396 10.812 2.896 2.761 6.813 4.478 10.862 4.343 1.367-.054 3.076-.21 4.464-.721.547-.199 2.403-.889 3.405-1.469.118-.064.22-.135.326-.21a31.386 31.386 0 0 0 2.701-2.083 11.924 11.924 0 0 0 2.729-3.472c.568-1.092 1.069-2.233 1.431-3.406.038-.118.063-.253.089-.377.142-1.092.291-2.185.437-3.277.017-.091.026-.183.026-.274.005-.14 0-.279-.01-.42a35.188 35.188 0 0 0-.458-3.412c-.243-1.237-.988-2.659-1.43-3.611a3.452 3.452 0 0 0-.322-.614c-.337-.506-.81-1.061-1.13-1.475-.369-.474-.784-1.103-1.247-1.566-1.03-1.039-2.22-2.013-3.527-2.68-2.793-1.431-4.443-1.873-7.572-2.088a12.17 12.17 0 0 0-4.524.57c-2.696.872-4.527 1.911-6.588 3.859-1.999 1.883-3.807 4.94-4.297 7.663-.615 3.45-.583 4.338-.015 7.755.246 1.48.957 2.933 1.641 4.214.694 1.297 1.642 2.541 2.766 3.504.122.103 1.962 1.674 2.907 2.207.109.054.218.103.327.15 1.005.463 2.124.979 3.17 1.33 2.703.898 6.299.791 8.993 0 2.724-.792 5.633-2.352 7.567-4.467.942-1.044 1.914-2.147 2.541-3.418 1.372-2.75 1.819-4.316 1.992-7.421.074-1.48-.15-3.036-.59-4.451a4.556 4.556 0 0 0-.139-.366c-.369-.947-.838-2.152-1.294-3.062a4.73 4.73 0 0 0-.406-.667c-1.897-2.702-2.618-3.321-5.26-5.274-1.185-.877-2.828-1.425-4.105-1.916-1.421-.549-3.124-.651-4.563-.78a5.246 5.246 0 0 0-.663-.021 8.767 8.767 0 0 0-.39.043c-1.146.129-2.408.236-3.532.484-1.438.328-2.848.958-4.099 1.738-2.486 1.551-3.649 2.902-5.309 5.259-1.757 2.502-2.335 5.64-2.529 8.61a5.999 5.999 0 0 0 0 .657c.078 1.253.282 2.566.502 3.8.258 1.468 1.024 3.002 1.641 4.246 1.256 2.524 3.666 4.87 6.101 6.243a9.137 9.137 0 0 0 4.58 1.463 9.318 9.318 0 0 0 4.916-.221 9.324 9.324 0 0 0 4.188-2.196 9.374 9.374 0 0 0 3.169-3.466c.419-.979.833-1.958 1.246-2.944.59-2.179.59-4.364 0-6.549-.413-.979-.827-1.954-1.246-2.943a12.326 12.326 0 0 0-4.415-4.419 3.796 3.796 0 0 1-.544-.36c.827.641 1.658 1.286 2.489 1.926a4.313 4.313 0 0 1-.626-.641c.64.835 1.283 1.663 1.924 2.492a4.867 4.867 0 0 1-.585-.995c.412.979.832 1.958 1.245 2.938a5.235 5.235 0 0 1-.347-1.259c.15 1.092.292 2.185.441 3.277a5.999 5.999 0 0 1 .005-1.436c-.148 1.092-.291 2.185-.439 3.277a5.3 5.3 0 0 1 .302-1.125c-.412.991-.826 1.964-1.241 2.945.132-.313.299-.608.504-.883-.646.829-1.285 1.663-1.924 2.492.21-.274.446-.512.721-.727-.831.646-1.663 1.292-2.494 1.926.218-.156.443-.291.694-.398-.982.409-1.965.824-2.944 1.238.285-.118.579-.199.883-.253-1.093.156-2.184.296-3.276.441a4.795 4.795 0 0 1 1.185 0c-1.091-.146-2.184-.291-3.272-.441.395.064.783.172 1.157.323l-2.944-1.244c.415.177.798.404 1.162.678a800.471 800.471 0 0 0-2.494-1.927c.313.259.595.533.836.851-.64-.834-1.283-1.663-1.924-2.497.184.253.332.511.458.791l-1.239-2.943c.121.285.203.57.254.877-.15-1.093-.292-2.185-.441-3.278.038.313.043.614.012.921.142-1.088.291-2.18.441-3.273a4.144 4.144 0 0 1-.231.835l1.239-2.939a5.111 5.111 0 0 1-.43.743c.638-.834 1.278-1.663 1.924-2.498-.231.302-.497.56-.788.792.831-.64 1.658-1.281 2.489-1.927a5.003 5.003 0 0 1-1.091.63c.98-.414 1.962-.823 2.942-1.238a5.022 5.022 0 0 1-1.216.317c1.089-.14 2.182-.29 3.272-.436a4.755 4.755 0 0 1-1.112-.011c1.091.146 2.188.296 3.272.436a3.712 3.712 0 0 1-.821-.226c.988.414 1.968.829 2.95 1.249a3.777 3.777 0 0 1-.746-.441c.833.646 1.666 1.286 2.491 1.926a3.438 3.438 0 0 1-.545-.559c.64.833 1.283 1.663 1.924 2.497a3.613 3.613 0 0 1-.403-.689c.413.979.828 1.958 1.239 2.943a4.111 4.111 0 0 1-.279-1.033c.142 1.092.291 2.185.441 3.277a4.499 4.499 0 0 1-.005-1.082c-.15 1.092-.294 2.185-.441 3.277a4.63 4.63 0 0 1 .319-1.163c-.414.974-.828 1.959-1.24 2.938.132-.285.279-.548.473-.801-.645.839-1.288 1.663-1.929 2.497a3.88 3.88 0 0 1 .552-.565c-.826.641-1.661 1.281-2.492 1.927.216-.167.436-.302.684-.415-.98.415-1.962.824-2.944 1.238.271-.107.536-.178.823-.221-1.098.146-2.188.296-3.281.441.289-.026.557-.026.843.006-1.089-.146-2.188-.291-3.272-.437.331.049.641.14.947.27-.979-.42-1.962-.835-2.94-1.249.306.14.595.307.863.506a553.577 553.577 0 0 0-2.491-1.926c.266.204.498.431.712.688a713.117 713.117 0 0 1-1.929-2.492c.205.264.364.538.489.839-.408-.979-.82-1.958-1.24-2.938.083.216.142.436.188.667-.149-1.092-.299-2.185-.441-3.272.031.275.037.55 0 .829.147-1.093.292-2.179.441-3.272-.038.21-.094.409-.173.613.415-.979.83-1.964 1.241-2.944a3.47 3.47 0 0 1-.374.657c.638-.835 1.282-1.664 1.924-2.498a4.202 4.202 0 0 1-.63.635c.832-.646 1.666-1.286 2.498-1.932a4.49 4.49 0 0 1-.899.517l2.944-1.244c-.326.13-.656.21-.998.259 1.092-.146 2.182-.291 3.274-.441a3.771 3.771 0 0 1-.882-.011c1.091.146 2.183.296 3.272.441a3.001 3.001 0 0 1-.716-.21c.982.414 1.962.829 2.944 1.249a3.654 3.654 0 0 1-.545-.329c.832.646 1.665 1.287 2.496 1.932a3.071 3.071 0 0 1-.446-.452c.646.834 1.284 1.664 1.929 2.498a3.444 3.444 0 0 1-.309-.522c.415.98.826 1.959 1.241 2.944a3.359 3.359 0 0 1-.2-.695c.149 1.092.294 2.18.441 3.272a3.96 3.96 0 0 1 0-.979c-.142 1.092-.292 2.185-.441 3.277.056-.334.144-.646.274-.958-.412.985-.825 1.964-1.238 2.944a3.9 3.9 0 0 1 .436-.743c-.646.829-1.286 1.663-1.929 2.497.175-.226.374-.425.6-.603-.832.646-1.666 1.292-2.498 1.927.167-.119.331-.216.514-.302l-2.944 1.243c.227-.091.451-.156.694-.183-1.089.14-2.182.29-3.272.435.081-.011.165-.016.248-.016-2.906-1.2-5.81-2.406-8.707-3.605 1.025.796 2.02 1.635 2.838 2.659a598.249 598.249 0 0 1-1.929-2.493 7.72 7.72 0 0 1 .942 1.561c-.41-.979-.821-1.958-1.241-2.938.188.436.316.882.389 1.351-.146-1.087-.294-2.185-.437-3.278.053.463.06.921.005 1.384.149-1.093.291-2.18.441-3.273a5.47 5.47 0 0 1-.309 1.163c.415-.985.826-1.964 1.241-2.944a4.209 4.209 0 0 1-.437.764c.645-.829 1.283-1.657 1.929-2.486a4.24 4.24 0 0 1-.618.624l2.491-1.921a3.75 3.75 0 0 1-.651.387l2.944-1.243a3.706 3.706 0 0 1-.858.247c1.089-.145 2.182-.296 3.272-.441a3.792 3.792 0 0 1-1.048-.005c1.084.146 2.184.296 3.273.441a5.088 5.088 0 0 1-1.19-.339l2.946 1.243a5.637 5.637 0 0 1-1.088-.64c.827.64 1.66 1.281 2.491 1.926a5.808 5.808 0 0 1-.904-.883c.646.835 1.284 1.664 1.93 2.492a7.112 7.112 0 0 1-.889-1.549c.415.979.827 1.958 1.242 2.944-.321-.818-.511-1.658-.635-2.524.146 1.092.292 2.185.435 3.271-.131-1.027-.268-2.153-.147-3.186-.142 1.092-.292 2.18-.441 3.277a1.88 1.88 0 0 1 .099-.355c-.415.979-.827 1.97-1.24 2.944.045-.102.094-.193.161-.279-.645.834-1.286 1.663-1.924 2.497.05-.069.111-.134.175-.188a834.91 834.91 0 0 0-2.489 1.926c.106-.081.197-.135.317-.183-.979.414-1.962.823-2.94 1.237.075-.021.154-.048.242-.059-1.098.145-2.187.29-3.279.441.182-.021.347-.021.529-.006l-3.274-.435a4.2 4.2 0 0 1 .845.247l-2.944-1.243c.375.172.716.382 1.042.63-.832-.641-1.658-1.287-2.489-1.927.937.759 1.816 1.593 2.562 2.546-.646-.834-1.283-1.664-1.929-2.491.398.527.732 1.082.999 1.689-.42-.979-.832-1.958-1.246-2.944.164.431.296.861.358 1.313-.144-1.093-.294-2.185-.436-3.272a4.66 4.66 0 0 1-.017 1.168l.441-3.278c-.068.393-.164.77-.314 1.136.414-.979.825-1.959 1.24-2.939a4.685 4.685 0 0 1-.579.991c.642-.829 1.279-1.664 1.924-2.492a4.838 4.838 0 0 1-.588.592c.831-.64 1.658-1.287 2.489-1.927a3.235 3.235 0 0 1-.71.415c.987-.415 1.962-.829 2.949-1.243-.22.086-.437.145-.668.177 1.091-.145 2.184-.29 3.272-.436a3.554 3.554 0 0 1-.758-.006c1.089.146 2.188.297 3.272.441a3.785 3.785 0 0 1-.732-.198c.974.408 1.957.823 2.939 1.237a4.135 4.135 0 0 1-.8-.468c.831.646 1.663 1.286 2.494 1.926a5.67 5.67 0 0 1-.904-.915l1.924 2.492a7.569 7.569 0 0 1-.904-1.588c.415.979.83 1.965 1.241 2.944a9.77 9.77 0 0 1-.574-2.093c.149 1.093.299 2.185.441 3.277a7.157 7.157 0 0 1-.017-1.878c-.147 1.093-.292 2.191-.441 3.273.073-.431.184-.835.347-1.238-.408.979-.82 1.964-1.24 2.944.121-.253.258-.495.43-.732-.645.829-1.282 1.658-1.929 2.492.188-.237.394-.437.625-.625-.835.64-1.666 1.287-2.493 1.927.236-.178.484-.323.762-.453-.982.415-1.965.829-2.944 1.244.321-.135.631-.215.979-.27-1.089.146-2.187.296-3.271.441.231-.026.463-.026.699 0-1.089-.146-2.182-.296-3.273-.441.238.038.45.097.671.184l-2.942-1.244c.17.081.326.173.484.285-.831-.641-1.664-1.28-2.498-1.92l.111.091a9.252 9.252 0 0 0 3.97 2.546c1.463.77 3.046 1.125 4.744 1.06a9.262 9.262 0 0 0 4.744-1.06c1.534-.496 2.85-1.345 3.968-2.546.642-.834 1.285-1.663 1.931-2.497a12.331 12.331 0 0 0 1.679-6.216c-.148-1.093-.291-2.179-.439-3.278a12.374 12.374 0 0 0-3.171-5.431"/><path fill="{{colors[3]}}" d="M256.917 149.602c-3.196.818-5.499 2.39-7.966 4.473a7.895 7.895 0 0 0-.946.979c-.896 1.087-2.061 2.401-2.699 3.772-.545 1.157-1.377 2.789-1.646 4.209-.271 1.458-.635 3.089-.514 4.617.116 1.469.209 3.084.715 4.511.453 1.253 1.053 2.965 1.924 4.165 1.747 2.417 3.599 4.661 6.342 6.028 1.104.549 2.304 1.039 3.451 1.464.22.081.441.145.661.193 1.456.307 3.003.64 4.502.522 1.457-.113 3.055-.188 4.448-.715 2.956-1.114 3.954-1.637 6.349-3.724 2.245-1.959 3.374-4.473 4.4-7.169.08-.226.159-.457.215-.688.284-1.217.395-2.514.527-3.746.162-1.485-.21-3.256-.458-4.574-.263-1.41-.957-2.81-1.603-4.036-.678-1.292-1.615-2.536-2.734-3.488a9.194 9.194 0 0 0-3.962-2.546c-1.471-.774-3.054-1.125-4.744-1.061-1.697-.064-3.281.286-4.752 1.061a9.206 9.206 0 0 0-3.962 2.546c-.645.834-1.286 1.663-1.929 2.492a12.275 12.275 0 0 0-1.683 6.215c.152 1.099.294 2.191.441 3.278a12.327 12.327 0 0 0 3.17 5.441c.18.151.342.317.496.506-.646-.828-1.284-1.663-1.929-2.492.165.216.297.447.413.694-.42-.984-.827-1.964-1.24-2.944.132.323.225.651.274 1.001-.149-1.093-.291-2.185-.439-3.278.049.398.049.786 0 1.185.148-1.098.291-2.185.439-3.278-.064.441-.18.861-.354 1.265.419-.974.83-1.959 1.241-2.938-.159.371-.359.71-.605 1.028.643-.829 1.283-1.664 1.929-2.491-.198.247-.42.467-.667.667.826-.64 1.658-1.281 2.492-1.926a4.087 4.087 0 0 1-.818.484c.981-.415 1.963-.829 2.943-1.249a3.923 3.923 0 0 1-.904.252c1.097-.145 2.182-.291 3.281-.441a4.7 4.7 0 0 1-1.099.017c1.099.145 2.184.29 3.281.441a5.403 5.403 0 0 1-1.329-.366c.987.414 1.962.829 2.949 1.238a5.16 5.16 0 0 1-1.088-.63c.83.641 1.661 1.286 2.493 1.926a6.449 6.449 0 0 1-1.01-.979 523.59 523.59 0 0 1 1.93 2.492 5.581 5.581 0 0 1-.71-1.206l1.239 2.944a5.282 5.282 0 0 1-.297-1.076c.147 1.093.292 2.185.441 3.272a5.734 5.734 0 0 1-.007-1.329c-.147 1.092-.292 2.185-.441 3.277.073-.495.205-.969.393-1.431-.415.984-.834 1.964-1.246 2.943.227-.506.501-.974.838-1.416-.641.829-1.284 1.663-1.931 2.492a7.65 7.65 0 0 1 1.186-1.173c-.832.646-1.663 1.291-2.494 1.932a6.962 6.962 0 0 1 1.436-.834c-.98.414-1.967.829-2.942 1.243.281-.112.563-.204.859-.279a9.353 9.353 0 0 0 4.19-2.207 9.338 9.338 0 0 0 3.172-3.455 9.232 9.232 0 0 0 1.461-4.58 9.358 9.358 0 0 0-.22-4.914c-.415-.979-.827-1.965-1.241-2.944a12.34 12.34 0 0 0-4.418-4.418l-2.944-1.244a12.422 12.422 0 0 0-6.55 0m-60.959 85.114c-2.403-1.658-6.095-2.594-8.988-2.459-1.297.064-2.68.274-3.947.517-.253.049-.5.108-.749.184-1.445.468-3.043 1.043-4.332 1.921-2.656 1.797-4.9 3.896-6.469 6.738-1.036 1.868-1.969 4.01-2.316 6.146-.334 2.078-.737 4.187-.484 6.292.172 1.404.288 3.186.75 4.645.474 1.496 1.063 3.008 1.873 4.364.122.205.264.404.409.598.721.979 1.437 2.018 2.282 2.906a15.464 15.464 0 0 0 3.56 2.777c1.036.587 2.231 1.012 3.345 1.442.215.081.417.156.643.21.694.178 1.488.231 2.155.323.746.097 1.555.27 2.32.259 7.01-.087 14.044-4.624 15.701-11.711.751-3.186.436-6.63-1.241-9.494a9.3 9.3 0 0 0-3.172-3.46 9.25 9.25 0 0 0-4.189-2.201c-1.09-.15-2.183-.296-3.273-.441a12.24 12.24 0 0 0-6.219 1.679c-2.645 1.707-4.927 4.22-5.664 7.362a3.996 3.996 0 0 1-.175.56l1.244-2.938a4.28 4.28 0 0 1-.358.607c.646-.828 1.284-1.657 1.924-2.491a3.905 3.905 0 0 1-.589.603c.825-.641 1.658-1.287 2.492-1.927a4.394 4.394 0 0 1-.872.512c.982-.409 1.962-.823 2.944-1.232-.42.167-.845.279-1.297.339 1.098-.146 2.188-.296 3.28-.441a5.416 5.416 0 0 1-1.214-.005c1.093.145 2.183.296 3.275.441a5.033 5.033 0 0 1-1.163-.312c.975.414 1.962.829 2.937 1.243a4.515 4.515 0 0 1-.926-.56c.834.641 1.661 1.286 2.492 1.926a6.059 6.059 0 0 1-.893-.904c.645.829 1.283 1.663 1.924 2.491a6.646 6.646 0 0 1-.81-1.415c.412.984.821 1.964 1.241 2.944a8.63 8.63 0 0 1-.536-1.97c.148 1.092.298 2.185.447 3.272a10.731 10.731 0 0 1-.016-2.632c-.15 1.093-.293 2.185-.441 3.278.126-.952.363-1.873.726-2.761-.411.98-.831 1.959-1.245 2.945a9.06 9.06 0 0 1 1.014-1.766c-.643.828-1.284 1.663-1.929 2.492a8.115 8.115 0 0 1 1.136-1.157c-.833.646-1.664 1.286-2.495 1.926a6.235 6.235 0 0 1 1.332-.77c-.974.414-1.962.829-2.941 1.243.428-.161.853-.28 1.305-.35-1.092.146-2.183.29-3.275.441.447-.054.883-.06 1.33-.011-1.084-.151-2.183-.291-3.275-.441.382.054.74.15 1.092.279-.981-.409-1.961-.817-2.943-1.237.293.123.567.274.829.457 1.416.899 2.941 1.389 4.583 1.464 1.639.366 3.275.291 4.912-.221a9.357 9.357 0 0 0 4.189-2.201 9.283 9.283 0 0 0 3.172-3.46c1.513-2.858 2.266-6.324 1.241-9.494-.412-.979-.826-1.964-1.241-2.944a12.34 12.34 0 0 0-4.422-4.42m72.527 7.54c.179-.511.369-1.017.574-1.512l-1.24 2.939a24.23 24.23 0 0 1 3.054-5.237l-1.93 2.498a24.38 24.38 0 0 1 4.276-4.295 799.3 799.3 0 0 1-2.489 1.927c.27-.205.539-.404.816-.598-4.978-.646-9.955-1.287-14.93-1.927.038.048.076.097.116.145-.64-.829-1.286-1.663-1.924-2.492.38.506.694 1.05.947 1.631-.412-.985-.827-1.964-1.24-2.944.292.705.486 1.431.583 2.185-.142-1.087-.291-2.18-.433-3.272a9.316 9.316 0 0 1-.012 2.078c.149-1.093.291-2.185.44-3.272a8.565 8.565 0 0 1-.544 1.997c.412-.979.827-1.959 1.238-2.944a7.869 7.869 0 0 1-.947 1.604c.645-.829 1.283-1.663 1.929-2.492a8.74 8.74 0 0 1-1.451 1.426c.835-.64 1.666-1.281 2.498-1.927a9.302 9.302 0 0 1-1.762 1.028l2.94-1.243a8.173 8.173 0 0 1-2.135.57c1.089-.14 2.182-.285 3.271-.431a8.514 8.514 0 0 1-1.483.032l10.643 18.535c.094-.155.193-.307.304-.457-.645.829-1.286 1.663-1.929 2.492.198-.242.407-.452.643-.651-.832.641-1.663 1.281-2.494 1.926.296-.231.605-.408.947-.559l-2.944 1.244c.177-.07.342-.124.524-.173 1.605-.382 2.998-1.114 4.188-2.207a9.248 9.248 0 0 0 3.175-3.455 9.176 9.176 0 0 0 1.466-4.58 9.376 9.376 0 0 0-.222-4.913c-.42-.98-.832-1.964-1.245-2.944a12.385 12.385 0 0 0-4.419-4.419l-2.944-1.243a12.39 12.39 0 0 0-6.547 0c-1.531.414-3.124 1.017-4.415 1.969-.991.732-2.127 1.442-2.958 2.368-.734.824-1.471 1.809-2.105 2.708-.106.15-.21.301-.303.462-2.233 3.794-2.223 8.638 0 12.432a12.46 12.46 0 0 0 4.418 4.424 12.257 12.257 0 0 0 6.216 1.679c.437.032.868.027 1.303-.011 1.41-.123 2.888-.285 4.276-.608 1.773-.419 3.517-1.189 5.097-2.087 1.55-.872 3.003-2.013 4.254-3.272.956-.958 1.744-2.11 2.541-3.186.261-.35.502-.705.708-1.087.81-1.561 1.646-3.315 1.972-5.086.258-1.436.501-2.938.562-4.402a7.53 7.53 0 0 0-.04-1.135c-.159-1.744-.322-3.773-.969-5.479-.5-1.302-1.02-2.723-1.74-3.961-.716-1.228-1.704-2.331-2.575-3.428-.833-.64-1.658-1.287-2.489-1.927-1.418-.898-2.945-1.388-4.58-1.458a6.172 6.172 0 0 0-3.281 0c-1.636.07-3.162.561-4.58 1.458-1.834 1.303-3.676 2.68-5.295 4.252-1.625 1.577-2.982 3.417-4.337 5.226-2.137 2.842-3.593 6.189-4.75 9.531a9.398 9.398 0 0 0-.22 4.914 9.186 9.186 0 0 0 1.466 4.58 9.29 9.29 0 0 0 3.175 3.456 9.306 9.306 0 0 0 4.187 2.207c1.092.145 2.184.291 3.276.441a12.324 12.324 0 0 0 6.221-1.684c.832-.641 1.658-1.287 2.489-1.927a12.287 12.287 0 0 0 3.168-5.439"/><path fill="{{colors[3]}}" d="M258.112 244.968a46.305 46.305 0 0 0 7.626 7.708c3.623 2.873 7.288 5.521 11.469 7.502 1.418.898 2.943 1.389 4.58 1.464a9.363 9.363 0 0 0 4.916-.221 9.317 9.317 0 0 0 4.19-2.207 9.43 9.43 0 0 0 3.173-3.456c1.509-2.868 2.271-6.324 1.24-9.494-.936-2.901-2.798-6.011-5.658-7.362a46.514 46.514 0 0 1-8.439-5.156 387.96 387.96 0 0 0 2.498 1.922 46.059 46.059 0 0 1-8.167-8.127c-1.121-1.2-2.441-2.05-3.97-2.545-1.462-.77-3.046-1.125-4.743-1.061-1.698-.064-3.281.291-4.744 1.061-1.534.495-2.85 1.345-3.97 2.545-2.155 2.347-3.754 5.431-3.608 8.714.149 1.093.291 2.185.438 3.272a12.4 12.4 0 0 0 3.169 5.441"/><path fill="{{colors[3]}}" d="M270.214 256.723a20.777 20.777 0 0 1-.08 4.649c.152-1.093.299-2.185.441-3.278a21.94 21.94 0 0 1-1.466 5.302l1.241-2.944a22.125 22.125 0 0 1-2.793 4.73c.638-.829 1.278-1.663 1.924-2.492a21.515 21.515 0 0 1-3.286 3.289c.831-.646 1.666-1.281 2.492-1.927a20.51 20.51 0 0 1-4.537 2.637l2.943-1.243a22.368 22.368 0 0 1-5.11 1.367c1.097-.146 2.188-.296 3.281-.441a22.679 22.679 0 0 1-5.727-.016l3.276.436a21.512 21.512 0 0 1-4.674-1.259c.979.409 1.96.824 2.94 1.238a11.36 11.36 0 0 1-.81-.355c-3.107-1.404-6.079-2.179-9.494-1.238-2.854.786-5.952 2.993-7.362 5.662-1.512 2.858-2.266 6.324-1.241 9.494.926 2.869 2.793 6.065 5.659 7.362 5.364 2.421 11.044 3.983 16.991 3.375 5.66-.582 11.304-2.067 15.965-5.484 4.438-3.256 8.35-7.244 10.669-12.309 2.377-5.188 3.94-10.795 3.396-16.554-.315-3.342-1.162-6.27-3.611-8.714-2.13-2.136-5.643-3.745-8.707-3.611-3.184.146-6.491 1.184-8.71 3.611-2.089 2.276-3.914 5.504-3.61 8.713"/><path fill="{{colors[3]}}" d="M283.145 258.079c5.147 1.695 10.816 1.598 16.059.398 5.317-1.222 10.124-4.08 14.183-7.653 7.667-6.743 11.354-17.292 11.669-27.275.099-3.094-1.443-6.544-3.61-8.713-2.139-2.136-5.643-3.745-8.712-3.605-6.851.307-12.104 5.409-12.317 12.318a33.046 33.046 0 0 1-.227 2.945c.149-1.093.291-2.185.44-3.273a29.002 29.002 0 0 1-1.957 7.32c.415-.979.828-1.964 1.241-2.944a25.57 25.57 0 0 1-3.162 5.414c.637-.829 1.283-1.658 1.921-2.492a22.238 22.238 0 0 1-3.808 3.783c.831-.646 1.666-1.287 2.498-1.927a22.122 22.122 0 0 1-4.2 2.449c.987-.414 1.962-.828 2.949-1.243a21.364 21.364 0 0 1-5.048 1.431c1.098-.15 2.182-.296 3.281-.441a19.574 19.574 0 0 1-4.801.038c1.089.146 2.188.291 3.272.441a18.53 18.53 0 0 1-3.124-.737c-2.945-.968-6.868-.291-9.492 1.249-2.556 1.491-4.992 4.424-5.665 7.361-1.542 6.782 2.051 12.992 8.61 15.156"/><path fill="{{colors[3]}}" d="M276.336 223.818c-1.549-2.035-2.84-3.746-5.127-5.043-.617-.355-2.347-1.049-3.03-1.292-.099-.032-.193-.075-.294-.103-.621-.178-1.337-.215-1.938-.296-.423-.054-1.339-.231-1.962-.253-3.34-.097-5.896.953-8.851 2.25-1.146.506-2.288 1.061-3.36 1.707a15.42 15.42 0 0 0-1.532 1.044c-1.268.953-2.661 1.883-3.737 3.079-2.198 2.454-3.587 4.794-4.623 7.927-.489 1.469-.617 3.159-.74 4.667-.126 1.582.209 3.239.504 4.778.048.291.137.56.236.834.395 1.13.877 2.335 1.45 3.396.706 1.296 1.647 2.535 2.742 3.525 1.594 1.442 2.878 2.25 4.764 3.041 1.704.721 2.357.899 4.207 1.146 2.236.302 3.686.216 6.042-.231a6.48 6.48 0 0 0 .637-.15 19.16 19.16 0 0 0 3.443-1.454 13.788 13.788 0 0 0 3.388-2.637c1.714-1.83 2.96-3.977 3.645-6.399.583-2.185.583-4.37 0-6.555a12.335 12.335 0 0 0-3.17-5.435 12.258 12.258 0 0 1-1.995-2.007c.641.829 1.279 1.663 1.924 2.491a12.793 12.793 0 0 1-1.561-2.674l1.247 2.938a11.848 11.848 0 0 1-.742-2.712c.142 1.092.289 2.185.433 3.277a10.744 10.744 0 0 1-.028-2.541c-.142 1.099-.292 2.191-.441 3.284a9.494 9.494 0 0 1 .651-2.417c-.413.979-.825 1.964-1.24 2.943a8.657 8.657 0 0 1 .947-1.609c-.638.829-1.284 1.658-1.921 2.492a9.588 9.588 0 0 1 1.651-1.663c-.832.634-1.666 1.286-2.498 1.926a10.304 10.304 0 0 1 2.025-1.184l-2.945 1.244a9.126 9.126 0 0 1 2.229-.608c-1.092.146-2.183.291-3.276.441a8.699 8.699 0 0 1 1.825-.017l-3.274-.436c.618.08 1.201.231 1.78.463-.981-.415-1.96-.829-2.943-1.243.453.199.868.431 1.263.721-.832-.641-1.663-1.286-2.494-1.926.428.334.81.71 1.157 1.13-.646-.834-1.286-1.663-1.93-2.492a8.155 8.155 0 0 1 1.026 1.754c-.42-.979-.827-1.958-1.242-2.944.248.641.425 1.292.519 1.969-.15-1.086-.292-2.179-.441-3.266.064.602.071 1.2.006 1.813.142-1.092.289-2.185.441-3.277a6.87 6.87 0 0 1-.463 1.717l1.238-2.95a5.808 5.808 0 0 1-.701 1.189c.646-.829 1.284-1.663 1.924-2.492a6.724 6.724 0 0 1-.841.855 9.219 9.219 0 0 0-2.553 3.967c-.771 1.464-1.123 3.046-1.058 4.741 0 3.025 1.346 6.636 3.611 8.713 2.341 2.159 5.428 3.757 8.704 3.612 1.092-.156 2.191-.296 3.276-.441a12.317 12.317 0 0 0 5.438-3.17c1.213-1 2.155-2.394 3.011-3.67.18-.274.322-.56.468-.861.549-1.178 1.147-2.421 1.504-3.687.954-3.336.759-6.49.111-9.843-.42-2.163-1.378-4.392-2.702-6.167-.969-1.303-1.83-2.616-3.081-3.622-2.446-1.97-3.934-2.912-6.916-3.978-1.593-.565-3.411-.722-5.064-.84-1.762-.134-3.608.227-5.327.538-1.142.221-2.177.717-3.248 1.168-1.173.495-2.27.926-3.299 1.663-2.813 1.986-5.41 4.284-7.01 7.405-.767 1.491-1.524 3.126-1.914 4.784-.21.861-.288 1.771-.403 2.637-.132.969-.296 1.926-.286 2.901.048 3.95 1.096 7.281 2.789 10.791.805 1.674 2.071 3.153 3.218 4.58a12.252 12.252 0 0 0 2.001 2.013 7577.04 7577.04 0 0 1-3.17-11.991 3.074 3.074 0 0 1-.116.355c.415-.979.827-1.958 1.242-2.944-.1.227-.215.42-.359.613.638-.828 1.284-1.663 1.922-2.492a3.926 3.926 0 0 1-.369.372c.832-.641 1.659-1.287 2.491-1.927a3.632 3.632 0 0 1-.767.452c.984-.414 1.962-.823 2.944-1.238a4.636 4.636 0 0 1-.893.243c1.098-.146 2.188-.297 3.281-.441a4.739 4.739 0 0 1-1.135.011c1.089.145 2.182.296 3.271.441a4.756 4.756 0 0 1-1.089-.302c.974.414 1.962.829 2.936 1.243a4.685 4.685 0 0 1-.643-.377c.832.641 1.658 1.281 2.489 1.927a4.622 4.622 0 0 1-.544-.522c.643.829 1.284 1.663 1.927 2.492a4.946 4.946 0 0 1-.628-1.076c.415.979.826 1.959 1.241 2.933a5.596 5.596 0 0 1-.292-1.2c.15 1.092.292 2.185.441 3.277a7.033 7.033 0 0 1 .005-1.265c-.142 1.092-.291 2.185-.437 3.272a7.451 7.451 0 0 1 .463-1.75c-.412.985-.826 1.964-1.238 2.944.248-.56.539-1.071.909-1.566-.64.834-1.286 1.664-1.924 2.497a10.791 10.791 0 0 1 1.605-1.593 373.8 373.8 0 0 0-2.492 1.927c1.482-1.141 3.18-2.013 4.896-2.75l-2.945 1.243a8.758 8.758 0 0 1 1.836-.527c-1.091.146-2.184.291-3.276.441a4.516 4.516 0 0 1 1.114-.005c-1.089-.146-2.182-.297-3.271-.441.215.043.395.091.6.178-.988-.415-1.962-.829-2.95-1.244.127.06.243.129.354.21-.832-.641-1.658-1.286-2.489-1.927.111.086.211.183.301.291-.638-.834-1.283-1.664-1.924-2.498.046.059.089.118.134.178a9.33 9.33 0 0 0 3.174 3.456c1.191 1.092 2.591 1.824 4.189 2.207 1.637.511 3.278.586 4.916.22a9.16 9.16 0 0 0 4.578-1.464c2.628-1.695 4.945-4.219 5.661-7.361.148-1.093.291-2.185.441-3.273a12.275 12.275 0 0 0-1.684-6.218"/></svg>