<svg version="1.1" xmlns="http://www.w3.org/2000/svg" x="0" y="0" viewBox="0 0 800 800" xml:space="preserve" preserveAspectRatio="none"><g><path fill="{{colors[0]}}" d="M775.1 645L663.6 771c-5 4.4-88.6-.5-77.9 19L411.5 601.5l188.8-168.6"/><path fill="{{colors[1]}}" d="M616.1 800c-30.3 0-59.3-13-79.5-35.6L400.1 611.6c-5.6-6.3-5-15.9 1.2-21.4l188.8-168.6c3-2.7 7-4 11-3.8 4 .2 7.8 2 10.5 5L748 575.6c19 21.2 28.5 48.6 26.9 77-1.6 28.4-14.2 54.5-35.4 73.5L687 772.9c-19.5 17.5-44.7 27.1-70.9 27.1zM432.9 602.7l126.3 141.5c14.4 16.2 35.2 25.5 56.9 25.5 18.7 0 36.7-6.9 50.7-19.4l52.5-46.8c15.2-13.6 24.2-32.2 25.3-52.6 1.2-20.3-5.7-39.9-19.2-55.1L599.1 454.3 432.9 602.7z"/><path fill="{{colors[2]}}" d="M495.9 105.1C393.1-10.1 213.5-16 103.2 95.5 5.6 194.2.2 354.6 90.7 459.9c39.8 46.3 91.6 75.6 146.7 87.6 79.2 17.2 150.5 60.3 204.5 120.8 5.3 5.9 14.4 6.5 20.4 1.2l196.5-175.4c5.9-5.3 6.4-14.4 1.1-20.3-55.3-62-87.5-140.1-97.6-222.6-6.5-52.5-28.4-103.6-66.4-146.1z"/><path fill="{{colors[1]}}" d="M452.7 688.4c-8.4 0-16.5-3.6-22.1-9.9-53.2-59.5-121.1-99.7-196.4-116.1-60.7-13.2-114.3-45.2-155-92.6-95.8-111.5-90-280.7 13.2-385C146.5 30.1 218.4 0 295 0c81 0 158.4 34.6 212.3 95 38.8 43.4 63 96.8 70.1 154.3 10.2 82.8 42.7 156.9 93.9 214.3 10.9 12.2 9.8 30.9-2.4 41.7L472.4 680.8c-5.4 4.9-12.4 7.6-19.7 7.6zM295 30.4c-68.4 0-132.6 26.9-180.9 75.8-92.3 93.2-97.5 244.2-11.9 343.8 36.3 42.3 84.2 70.9 138.4 82.7 81.4 17.7 154.7 60.9 212.1 125L648 483.3c-55.1-61.9-89.9-141.5-100.9-230.2-6.3-51.4-28-99.1-62.6-137.8-48-54-117.2-84.9-189.5-84.9zm234.6 695.3c-4.2 0-8.3-1.7-11.3-5.1-5.6-6.3-5-15.9 1.2-21.4l177.3-158.3c6.3-5.6 15.9-5 21.4 1.2s5 15.9-1.2 21.4L539.7 721.9c-2.9 2.6-6.5 3.8-10.1 3.8z"/><path fill="{{colors[3]}}" d="M146.6 339.1c-4.2 0-8.3-1.7-11.3-5.1-26.8-30-28.1-97.6 10.4-136.5 5.9-6 15.5-6 21.5-.1s6 15.5.1 21.5c-29.1 29.3-23.4 79.1-9.3 94.9 5.6 6.3 5 15.9-1.2 21.4-3 2.6-6.6 3.9-10.2 3.9z"/></g></svg>