<svg data-name="图层 1" xmlns="http://www.w3.org/2000/svg" viewBox="0 0 800 800" preserveAspectRatio="none"><path d="M51 674.53l109.63-117.27C94.75 511.45 53.47 447 52.73 375.21 51.27 233.82 207.6 117.57 401.9 115.56s353 111 354.47 252.38S601.5 625.59 407.19 627.59c-57.23.59-111.37-8.8-159.31-26z" fill="{{colors[0]}}"/><path d="M435.51 308.68c0-21.88-13.78-34.85-36.88-34.85-19.46 0-35.26 8.51-50.66 25.53l-33.24-30.8c22.7-25.94 53.1-43 90.38-43 50.67 0 87.55 26.34 87.55 77.82 0 61.2-74.17 68.49-68.09 126.05h-52.29c-8.91-65.22 63.23-80.21 63.23-120.75zm-36.88 148.75c24.32 0 42.15 16.22 42.15 39.72s-17.78 40.13-42.15 40.13-42.15-16.62-42.15-40.13 17.83-39.72 42.15-39.72z" fill="{{colors[1]}}"/></svg>