<svg preserveAspectRatio="none" xmlns="http://www.w3.org/2000/svg" xmlns:xlink="http://www.w3.org/1999/xlink" width="114.54039716720581" height="159.70029258728027" version="1.1" viewBox="0 0 114.54039716720581 159.70029258728027"><defs><path fill-rule="nonzero" id="path-3" d="M0,97.11574l28.93329,-7.99144c0,0 10.21932,-1.83052 21.11758,3.87925c10.89825,5.70964 17.89467,23.74402 17.89467,23.74402l13.41903,42.95273v0l-11.51006,-43.54904c0,0 -3.64613,-18.11479 1.49363,-28.75364c5.13976,-10.63885 10.19503,-13.52499 17.71884,-17.05996c10.15644,-3.77699 25.47342,-9.00587 25.47342,-9.00587l-26.06976,7.09691c0,0 -15.43386,4.30184 -25.532,-4.59546c-10.09814,-8.89729 -13.5586,-15.75073 -16.34377,-22.13328c-2.78517,-6.38255 -14.07527,-41.69996 -14.07527,-41.69996l12.1663,42.2964c0,0 4.93599,19.98651 -0.89721,30.6626c-5.83328,10.67596 -15.45181,14.25633 -15.45181,14.25633z"></path></defs><g><use xlink:href="#path-3" fill="{{colors[0]}}"></use><mask id="mask-4"><use fill="#fff" xlink:href="#path-3"></use></mask><use stroke-width="6" stroke-opacity="1" xlink:href="#path-3" stroke="{{colors[1]}}" fill="none" stroke-linejoin="round" mask="url(#mask-4)"></use></g></svg>