<svg xmlns="http://www.w3.org/2000/svg" viewBox="0 0 491.9 790" preserveAspectRatio="none"><g data-name="图层 2"><path d="M403.65 625.43c-69.77 1.88-141 44.49-154.22-.77S323.87 436.15 295 367.25c-27.51-65.45-170-38.77-186.73-88.63C90.34 225.23 105.7 161.33 120 120.4c8.69 32.34 24.61 76.67 45.53 70.42C189.62 183.64 182.24-2.09 134.06 0S-13.33 152.44 1.49 158.54c9.71 4 54.27-27.27 83.93-49.38-17 47.83-36.19 125.51-8.8 183.32 38.94 82.2 137.11 40.9 172.94 84.28s-36.44 132.76-35.65 230.83c.76 95 59.42 81.4 138.63 58.77s112 24.18 117.74 79.28C476.34 804.42 492 804 491.9 749c-.15-69.72-18.48-125.46-88.25-123.57z" fill="{{colors[0]}}" data-name="图层 1"/></g></svg>