<svg xmlns="http://www.w3.org/2000/svg" viewBox="0 0 800 800" preserveAspectRatio="none"><path d="M583.69 697.61l-22-2a64.87 64.87 0 0 0-55.9 23.39l-14 17a64.86 64.86 0 0 1-87.41 11.81l-18.07-12.71a64.86 64.86 0 0 0-60.08-7.71l-20.73 7.81a64.86 64.86 0 0 1-81.6-33.47l-9.29-20.05A64.88 64.88 0 0 0 166.43 645l-21.8-3.64a64.86 64.86 0 0 1-53.93-69.82l2-22a64.89 64.89 0 0 0-23.37-55.89l-17.06-14a64.88 64.88 0 0 1-11.83-87.45l12.72-18.07a64.83 64.83 0 0 0 7.7-60.08l-7.75-20.69a64.87 64.87 0 0 1 33.48-81.6l20-9.29a64.88 64.88 0 0 0 36.71-48.18l3.63-21.8a64.86 64.86 0 0 1 69.79-53.93l22 2a64.87 64.87 0 0 0 55.88-23.37l14-17.06A64.86 64.86 0 0 1 396 28.32L414.18 41a64.84 64.84 0 0 0 60.08 7.7L495 41a64.87 64.87 0 0 1 81.6 33.48l9.29 20A64.88 64.88 0 0 0 634 131.21l21.79 3.63a64.86 64.86 0 0 1 53.93 69.79l-2 22a64.85 64.85 0 0 0 23.38 55.88l17.05 14.05A64.85 64.85 0 0 1 760 384l-12.7 18a64.87 64.87 0 0 0-7.71 60.08l7.75 20.7a64.86 64.86 0 0 1-33.47 81.6l-20 9.29a64.88 64.88 0 0 0-36.71 48.18l-3.63 21.79a64.87 64.87 0 0 1-69.84 53.97z" fill="{{colors[0]}}" stroke="{{colors[1]}}" stroke-miterlimit="10" stroke-width="14"/></svg>