<svg viewBox="0 0 613 80" xmlns="http://www.w3.org/2000/svg"><path d="M61.52 14.18H44.96v2.04l7.98.84.3 28.56L30.5 14.18H16.04v2.04l4.26.48 1.14 1.68-.36 37.74-5.52.84V59h16.68v-2.04l-8.04-.9-.36-34.26L50.3 59.12h5.28L56 17l5.52-.78zm18.6 45.84c10.2 0 17.04-6.84 17.04-17.58 0-10.74-7.56-17.22-17.04-17.22-9.42 0-16.98 6.6-16.98 17.22 0 10.56 6.72 17.58 16.98 17.58zm0-2.1c-4.32 0-6.72-4.92-6.72-15.36 0-10.5 2.4-15.24 6.72-15.24s6.66 4.74 6.66 15.24c0 10.44-2.34 15.36-6.66 15.36zm42.54-3.84c-1.56 1.32-2.58 1.92-4.08 1.92-2.4 0-3.96-1.38-3.96-4.62V28.7h7.44v-2.46h-7.44l.12-9.66h-6.18l-3.12 9.6-5.34.6v1.92h4.86v15.36c0 2.52-.06 4.26-.06 6.54-.06 6.66 3.24 9.42 9.36 9.42 4.62 0 7.62-1.74 9.42-4.98zm19.74 5.94c10.2 0 17.04-6.84 17.04-17.58 0-10.74-7.56-17.22-17.04-17.22-9.42 0-16.98 6.6-16.98 17.22 0 10.56 6.72 17.58 16.98 17.58zm0-2.1c-4.32 0-6.72-4.92-6.72-15.36 0-10.5 2.4-15.24 6.72-15.24s6.66 4.74 6.66 15.24c0 10.44-2.34 15.36-6.66 15.36zm52.92-27c-4.2-1.92-6.48-4.14-6.48-8.28 0-4.5 3.36-7.14 8.58-7.14 1.5 0 2.7.18 3.9.72l3.06 9.96h3.48l.54-9.78c-3.3-2.16-7.5-3.42-12.18-3.42-9.78 0-16.32 4.62-16.32 12.72 0 7.2 4.26 11.22 12.3 14.82l2.88 1.26c4.8 2.1 6.54 4.26 6.54 8.34 0 4.68-3.3 7.5-9.24 7.5-2.28 0-4.08-.24-5.88-.9l-3.18-10.44h-3.48l-.42 10.32c3.6 2.34 9.06 3.6 13.98 3.6 11.28 0 17.34-5.46 17.34-13.44 0-6.78-3.3-10.38-12.24-14.4zm30.12 9.42c.24-9.3 2.94-13.02 6.24-13.02 3.18 0 5.46 2.76 5.46 7.98 0 3.72-.72 5.1-3.54 5.1zm19.2 10.86c-1.98 2.76-4.56 4.56-8.76 4.56-5.64 0-10.14-3.84-10.44-13.2h20.4c.3-1.14.36-2.16.36-3.66 0-7.62-4.86-13.68-13.86-13.68-8.58 0-17.16 6-17.16 17.28 0 11.22 7.32 17.52 17.22 17.52 6.12 0 10.92-2.94 13.38-8.1zm18.9-25.32l-.84-.6-13.02 3.78v1.44l4.5.48c.12 2.88.18 4.86.18 8.76v4.98c0 3.36-.06 8.52-.12 12l-4.08.42V59h19.5v-1.86l-5.52-.54c-.06-3.54-.12-8.58-.12-11.88v-4.98c1.14-4.44 2.58-7.02 4.98-9.24l.54.72c1.62 2.16 3.06 3.6 5.34 3.6 3 0 4.2-2.22 4.44-4.86-.6-3.6-3-4.74-5.82-4.74-3.6 0-7.68 3.12-9.48 9.24zm26.82-6.6c2.88 0 5.22-2.04 5.22-4.86 0-2.88-2.34-4.92-5.22-4.92-2.82 0-5.16 2.04-5.16 4.92 0 2.82 2.34 4.86 5.16 4.86zm5.16 37.5c-.06-3.48-.12-8.7-.12-12.06v-9.24l.24-9.6-.84-.6-13.74 3.6v1.44l4.5.48c.12 3.06.18 5.28.18 9.12v4.8c0 3.36-.06 8.52-.12 12.06l-3.96.36V59h17.52v-1.86zm6.96-30v1.92h4.68v16.02c0 4.02-.06 8.04-.12 12.06l-4.14.36V59h19.62v-1.86l-5.46-.48c-.12-4.02-.18-7.98-.18-11.94V28.7h7.68v-2.46h-7.8c-.24-6.84.3-11.04 2.34-14.04.3-.48.78-.9 1.38-1.26l.96 1.86c1.56 3.36 3.36 4.5 5.7 4.5 2.76 0 4.32-1.74 4.32-4.08-.78-3.24-4.08-4.44-7.68-4.44-3.78 0-7.5 1.2-10.92 4.32-2.64 2.58-4.86 6.3-5.58 13.14zm62.34-12.6h-21.9v2.04l6 .54c.24 22.5.48 32.82.48 38.64 0 6.72-.84 10.62-2.4 12.54l-1.8-2.34c-1.92-2.52-3.36-3.48-5.4-3.48-2.7 0-4.92 1.8-4.98 4.5 1.5 2.64 4.02 3.84 7.62 3.84 6.36 0 11.7-3.78 14.1-10.26 1.92-3.9 2.7-9.36 2.7-18.06v-7.38c0-6.06 0-12.18.18-18.06l5.4-.48zm22.2 2.28c6.36 0 9.84 3.72 9.84 10.98 0 6.72-3.36 11.4-10.32 11.4h-1.98V35.3c0-6.36 0-12.66.12-18.84zm-.18 24.6c14.28 0 19.38-6.06 19.38-13.56 0-8.46-5.46-13.32-19.08-13.32h-18.3v2.04l5.4.48c.18 6.18.18 12.36.18 18.6v2.64c0 6.24 0 12.42-.18 18.48l-5.4.54V59h22.26v-2.04l-6.42-.66c-.12-5.4-.12-10.74-.12-15.24zm53.88 15.72c-.18-6.42-.18-13.02-.18-20.16h2.88c7.26 0 10.68 3.12 10.68 10.08 0 6.6-3.84 10.08-10.32 10.08zm2.82-40.32c6.06 0 8.58 3.12 8.58 8.58 0 5.94-3.06 9.42-9.24 9.42h-2.34c0-6.18 0-12.12.18-18zm-18.48-2.28v2.04l5.4.48c.18 6.06.18 12.18.18 18.3v2.16c0 6.48 0 12.96-.18 19.26l-5.4.54V59h19.02c16.2 0 20.4-6.6 20.4-12.48 0-6.24-4.38-10.38-15.18-11.46 9.6-1.68 12.54-5.82 12.54-10.38 0-6.06-4.14-10.5-15.66-10.5zm56.58 42.6c-.12-3.9-.18-8.16-.18-12.06V19.64l.24-9.66-.84-.54-13.44 2.58v1.56l4.38.42v30.72c0 3.84-.06 8.16-.12 12.06l-4.14.36V59h18.18v-1.86zm26.34-3.6c-2.22 1.98-3.6 2.76-5.22 2.76-2.82 0-4.5-1.68-4.5-5.28 0-4.38 2.22-7.2 6.42-8.94.72-.3 1.92-.66 3.3-1.02zm-12.84-24.42l.96-.36zM521.9 54.5c-1.14 1.8-1.8 2.28-2.7 2.28-1.14 0-1.86-.78-1.86-3.06V37.58c0-8.7-3.42-12.36-11.94-12.36-9.3 0-14.52 3.6-15 9.24.48 1.98 1.98 3.06 4.14 3.06 2.28 0 4.32-1.62 4.5-5.7l.42-4.26c.9-.18 1.68-.24 2.52-.24 4.56 0 6 1.86 6 8.1v3.66c-2.1.54-4.2 1.08-5.88 1.56-9.66 2.82-12.78 5.76-12.78 11.22 0 5.04 3.6 8.16 8.76 8.16 4.8 0 7.08-1.86 10.14-5.22.9 3.24 3.12 5.22 7.08 5.22 3.84 0 6.12-1.38 7.62-4.68zm24.84-22.44c.24 4.44 2.34 5.88 4.86 5.88 2.04 0 3.36-1.02 3.96-3.18-.78-5.4-5.58-9.54-12.36-9.54-10.02 0-18.18 6.3-18.18 17.46s7.62 17.34 16.74 17.34c6.54 0 10.92-2.76 13.68-7.74l-1.2-.78c-2.16 2.7-4.74 4.26-8.22 4.26-6.42 0-10.8-5.1-10.8-14.04 0-9.18 3.9-14.4 9.24-14.4.54 0 1.08.06 1.68.12zm45.66 24.6l-10.92-21.42 7.2-6.6 5.88-.6v-1.8H578.9v1.8l6.06.72L572 41.3V19.64l.24-9.66-.84-.54-13.44 2.58v1.56l4.38.42v30.72c0 3.12-.06 8.58-.12 12.06l-4.02.36V59h17.7v-1.86l-3.78-.36c-.06-3.48-.12-9-.12-12.54v-.42l2.7-2.46L583.22 59h13.08v-1.86z"/></svg>