<?xml version="1.0" encoding="utf-8"?>
<!-- Generator: Adobe Illustrator 24.0.0, SVG Export Plug-In . SVG Version: 6.00 Build 0)  -->
<svg version="1.1" id="图层_1" xmlns="http://www.w3.org/2000/svg" xmlns:xlink="http://www.w3.org/1999/xlink" x="0px" y="0px"
	 viewBox="0 0 390.4 80" style="enable-background:new 0 0 390.4 80;" xml:space="preserve">
<g>
	<path d="M24.1,11.4c0,4.7-0.3,8.9-0.9,12.8c-0.6,3.9-1.6,7.9-2.9,12c2.3,4.2,3.4,8.6,3.4,13.1c0,4.4-1.1,8.7-3.2,12.9h-8.4
		c1.4-2.2,2.4-4.4,3.1-6.5c0.7-2.1,1-4.2,1-6.4c0-2.2-0.3-4.4-1-6.4c-0.7-2.1-1.7-4.3-3.1-6.5c2-5.7,3.3-11.3,3.9-16.6h-4.8v49.4
		H3.3V11.4H24.1z M25.2,13.1h36.9v8.4h-3.7v47.6H41.3v-8.3h8.8V21.5H25.2V13.1z M26.7,27.4h18.9v27.3H26.7V27.4z M38.3,46.9V35.2
		h-4.1v11.7H38.3z"/>
	<path d="M121.3,11.8V44h-20.4v4.3H123v7.5h-22.1v4.5h24.9v7.7H67.4v-7.7h24.9v-4.5H70.2v-7.5h22.1V44H71.9V11.8H121.3z M92.3,24.3
		v-5.1H80.2v5.1H92.3z M92.3,36.5v-5.1H80.2v5.1H92.3z M113,24.3v-5.1h-12.1v5.1H113z M113,36.5v-5.1h-12.1v5.1H113z"/>
	<path d="M132.2,18.1h4.7l1.1-7.3h8.9l-1,7.3h10.6c0,7.6-0.3,14-0.9,19.1c-0.6,5.2-1.8,10.2-3.6,15.1l4.1,3v-6.6h21V57h-19.8v9.4
		l-8.7-6.2c-1.4,2.8-3,5.8-4.9,8.9h-10.2c3.9-5.6,6.7-10.2,8.4-13.7l-9.5-6.8l3.2-22.1h-3.4V18.1z M145.2,47.4
		c2-5.9,3.2-12.9,3.5-20.9h-5.2L141,44.4L145.2,47.4z M171.5,60.9h10.2l0.6-17.2h-23.9l2.3-24h-3.4v-8.3h30l-1.9,24h5.4l-1.3,33.6
		h-18V60.9z M177.4,35.4l1.3-15.7h-9.9l-1.5,15.7H177.4z"/>
	<path d="M197,18.1h4.7l1.1-7.3h8.9l-1,7.3h10.6c0,7.6-0.3,14-0.9,19.1c-0.6,5.2-1.8,10.2-3.6,15.1l4.1,3v-6.6h21V57h-19.8v9.4
		l-8.7-6.2c-1.4,2.8-3,5.8-4.9,8.9h-10.2c3.9-5.6,6.7-10.2,8.4-13.7l-9.5-6.8l3.2-22.1H197V18.1z M210,47.4c2-5.9,3.2-12.9,3.5-20.9
		h-5.2l-2.5,17.9L210,47.4z M236.3,60.9h10.2l0.6-17.2h-23.9l2.3-24h-3.4v-8.3h30l-1.9,24h5.4l-1.3,33.6h-18V60.9z M242.2,35.4
		l1.3-15.7h-9.9l-1.5,15.7H242.2z"/>
	<path d="M272.9,59.5l-8.4-4.2l2.1-4.7h-5.2v-7h8.2l1.7-3.8h8.2l-1.7,3.8h16.9v7h-4.4c-1.3,3-2.9,5.6-4.6,7.8l7.9,4.1v5.1
		c4-5.6,7.1-10.7,9.4-15.4L298.1,38h-4.9l0.7,1.4h-7.3c-1.6-3.3-2.7-6.8-3.4-10.4h-1.8v9.9h-7.5v-9.9h-1.8
		c-0.8,3.9-1.9,7.4-3.4,10.4h-7.3c1.8-3.2,3.1-6.7,4-10.4h-4.1v-7.4h12.6V10.6h7.5v10.9H294v7.4h-4.1c0.7,2.9,1.6,5.5,2.8,7.9
		c2.7-8.4,4.5-17.3,5.4-26.8h8c-0.1,1.6-0.4,3.7-0.7,6.4h15.4v8.4h-2.4c-0.3,4.1-0.8,8.1-1.4,12c-0.9,4.9-2.1,9.5-3.5,13.6l7.6,17.9
		h-8.4l-4-9.6c-1.2,2.4-3,5.6-5.5,9.6h-9.7V70l-13.1-6.6c-5.1,3.8-11.5,5.7-19.1,5.7v-7.2C265.9,61.7,269.8,61,272.9,59.5z
		 M270,11.3l2.5,8.7h-7.1l-2.5-8.7H270z M279.2,55.1c1.1-1.2,2.2-2.7,3.2-4.5h-7.6l-0.8,1.8L279.2,55.1z M285.3,11.3h7.1l-2.5,8.7
		h-7.1L285.3,11.3z M307.4,43.5c1.6-5.2,2.8-11.4,3.4-18.6H304l-0.8,4.3L307.4,43.5z"/>
	<path d="M330.5,58.6h9.5l-4.9,10.5h-9.5L330.5,58.6z M381.8,11.9v23.2h-21.9v2.5h22.8v8h-22.8v2.5h25.3V56h-58.8v-7.9h25.3v-2.5
		h-22.8v-8h22.8v-2.5h-21.9V11.9H381.8z M351.6,28.6V19H338v9.6H351.6z M339.5,19.8l10.5,1.9v6l-10.5-2V19.8z M345.1,58.6h8.9
		l-2.5,10.5h-8.9L345.1,58.6z M366.4,58.6l2.5,10.5H360l-2.5-10.5H366.4z M373.5,28.6V19h-13.6v9.6H373.5z M361.4,21.8l10.5-1.9v6
		l-10.5,2V21.8z M380.9,58.6l4.9,10.5h-9.5l-4.9-10.5H380.9z"/>
</g>
</svg>
