<svg xmlns="http://www.w3.org/2000/svg" viewBox="0 0 800 800" preserveAspectRatio="none"><g fill="{{colors[0]}}"><path d="M75.6 387.8c-10.5 8-19.5 19.3-19.4 33.2 0 2.6 2.3 5.1 5 5 2.7-.1 5-2.2 5-5v-1.9c0-.3 0-.6.1-.8 0-.2 0-.3.1-.5 0-.4 0-.2-.1.5-.2-.3.2-1.5.3-1.9.1-.6.3-1.2.5-1.8.2-.6.3-1.1.5-1.7.1-.3.2-.7.4-1 .3-.9-.3.6 0 0l1.8-3.6c.7-1.2 1.4-2.3 2.2-3.3.8-1.1-.7.8.2-.2.2-.3.4-.5.6-.8.5-.6 1-1.1 1.5-1.7 1-1.1 2.1-2.2 3.3-3.3.5-.5 1.1-1 1.6-1.4.3-.3.7-.6 1-.8.8-.7-.5.4.4-.3 1.1-.8 1.9-1.6 2.3-3 .3-1.2.2-2.8-.5-3.9-1.2-2.1-4.5-3.5-6.8-1.8zm33.5 4c5.8 4.1 11.6 8.3 17.4 12.4 1 .7 2.7.8 3.9.5 1.2-.3 2.4-1.2 3-2.3 1.4-2.6.5-5.2-1.8-6.8-5.8-4.1-11.6-8.3-17.4-12.4-1-.7-2.7-.8-3.9-.5-1.2.3-2.4 1.2-3 2.3-1.4 2.6-.5 5.2 1.8 6.8zm-16.8-46.2c-1 16.8-1.9 33.6-2.5 50.4-.7 16.8-1.2 33.6-1.5 50.4-.2 9.6-.3 19.1-.4 28.7 0 2.6 2.3 5.1 5 5 2.7-.1 5-2.2 5-5 .1-16.9.4-33.9.9-50.8.5-16.8 1.1-33.5 1.9-50.3.5-9.5 1-18.9 1.5-28.4.2-2.6-2.4-5.1-5-5-2.7.1-4.7 2.2-4.9 5zm53.6 39.1c1.3-.6 2.6-1.3 3.9-1.9.6-.3 1.3-.6 1.9-.8-.9.4.1 0 .3-.1l1.5-.6c2.7-1.1 5.5-2 8.3-2.9 2.8-.8 5.6-1.6 8.5-2.2.7-.2 1.5-.3 2.3-.5.4-.1 1.2-.1 1.6-.3-.1 0-1.3.1-.4.1.2 0 .4 0 .7-.1.7-.1 1.3-.1 2-.1h1.3c.3 0 .6 0 1 .1.5 0 .3.3-.4-.1.4.2 1.1.2 1.5.3.4.1 1.1.5 1.4.5-.7.1-.9-.5-.3-.1.2.1.4.2.6.4.1.1.4.3.5.3-.6-.1-.7-.7-.3-.2l.6.6c.5.5-.3 0-.2-.3 0 0 .3.4.3.5.1.2.2.4.3.5-.2-.6-.3-.7-.2-.3.1.3.2.7.3 1v-.1 1.1c0 .3-.1 1.2 0 .2-.2 1.4-.6 2.8-1 4.1-.3 1.2-.7 2.4-1.1 3.5-.2.6-.5 1.3-.7 1.9.1-.2.4-.9 0-.1-.2.4-.3.8-.5 1.1-1.3 2.7-2.8 5.4-4.5 7.8-.4.6-.8 1.1-1.2 1.7.6-.8.1-.1-.1.1-.3.4-.6.7-.9 1.1-1 1.1-2 2.2-3.1 3.3-1.9 1.8-2 5.3 0 7.1 2 1.8 5.1 2 7.1 0 4.4-4.3 8.1-9.4 10.9-14.9 1.5-3 2.7-6.1 3.7-9.2.9-3.1 1.8-6.4 1.5-9.7-.7-6.6-5.7-11-12.1-11.9-6.1-.9-12.1.5-17.9 2.1-7.5 2-14.8 4.9-21.8 8.3-2.3 1.2-3.2 4.7-1.8 6.8 1.2 2.5 4 3.1 6.5 1.9z"/><path d="M121.8 430.9c10.8-2.5 21.5-5.1 32.3-7.5 5.2-1.2 10.5-2.3 15.8-3.2 1.3-.2 2.6-.4 3.8-.6.6-.1 1.3-.2 1.9-.3.3 0 .6-.1 1-.1.1 0 1.4-.2.8-.1-.6.1.4-.1.5-.1.3 0 .6-.1 1-.1.6-.1 1.3-.2 1.9-.2 1.4-.2 2.7-.3 4.1-.4 6.1-.5 12.2-.6 18.4-.2 2.6.2 5.1-2.4 5-5-.1-2.9-2.2-4.8-5-5-22.2-1.4-44.1 3.9-65.6 8.9-6.2 1.4-12.3 2.9-18.5 4.3-2.5.6-4.3 3.7-3.5 6.2.8 2.6 3.3 4.1 6.1 3.4z"/><path d="M160.6 353.9c-.2 1.9-.4 3.8-.7 5.7-.1.4-.1.9-.2 1.3-.1 1 0 .2 0 0 0 .2-.1.4-.1.7-.1 1-.3 1.9-.4 2.9-.6 3.9-1.2 7.7-2 11.6-1.5 7.6-3.3 15.1-5.4 22.5-2.1 7.5-4.6 14.9-7.3 22.1l-2.1 5.4c-.3.8-.7 1.6-1 2.5-.1.3-.5 1.2-.2.4-.2.5-.5 1.1-.7 1.6-1.5 3.5-3.1 7-4.8 10.5-3.8 7.9-8 15.5-12.5 23-1.4 2.2-.6 5.6 1.8 6.8 2.4 1.3 5.4.6 6.8-1.8 8.3-13.7 15.4-28 21.2-42.9 5.7-14.6 10.2-29.7 13.3-45.1 1.8-9 3.2-18.1 4.1-27.2.3-2.6-2.5-5.1-5-5-2.7.2-4.5 2.2-4.8 5zm-6.1 80.8c10.8 11.5 22.4 22.2 34.8 32 3.7 3 7.5 5.8 11.4 8.6 2.1 1.5 5.7.4 6.8-1.8 1.4-2.6.5-5.2-1.8-6.8-1.6-1.2-3.2-2.3-4.8-3.5-.7-.5-1.5-1.1-2.2-1.7-.2-.2-1.1-.8-.4-.3-.4-.3-.8-.7-1.3-1-3.1-2.4-6.1-4.8-9-7.4-5.9-5-11.7-10.3-17.2-15.7-3.2-3.1-6.2-6.3-9.3-9.5-1.8-1.9-5.3-1.9-7.1 0-1.8 2.1-1.8 5.1.1 7.1zm142.4-87.5c-9.3 2.1-18.4 5.1-27.2 8.8-4.7 2-9.7 3.9-11.1 9.4-.6 2.3-.6 4.8-.6 7.2 0 2.4.1 4.7.2 7.1.3 4.9.9 9.7 1.8 14.5.8 4.4 1.8 8.9 3.4 13.1 1 2.7 2.5 5 5.3 6.1 2.7 1.1 5.5.5 8.2-.1 4.3-.9 8.5-2.1 12.7-3.4 9.7-3.2 19-7.5 27.6-12.8 2.2-1.4 3.3-4.5 1.8-6.8-1.4-2.2-4.5-3.3-6.8-1.8-3.4 2.1-6.9 4.1-10.5 5.8-1.8.9-3.6 1.7-5.5 2.5l-.6.3c.1 0 .7-.3.2-.1-.5.2-1 .4-1.4.6-1 .4-1.9.8-2.9 1.1-3.8 1.4-7.6 2.6-11.5 3.6-1.9.5-3.8.9-5.6 1.3l-1.5.3c-.1 0-.5.2-.6.1h.3s-.6.1-.6 0c0-.2 1 .3 1.1.3-.5-.3 0-.1 0 0 .3.2.3.3.1.1l.1.1c.1.5.1.2 0-.1 0 0-.3-.5-.3-.6 0 0 .3 1 .2.4 0-.2-.1-.3-.2-.5-.3-1-.6-2-.9-3.1-.6-2.1-1.1-4.1-1.6-6.2-.5-2.1-.8-4.2-1.2-6.3-.1-.5-.1-.9-.2-1.4-.1-1 0-.3 0-.1 0-.2-.1-.5-.1-.7-.1-1.1-.3-2.2-.3-3.3-.4-4.3-.5-8.5-.4-12.8 0-.4 0-.8.1-1.3 0-.2 0-.5.1-.6 0 .1-.3 1.1 0 .1.1-.2.1-.4.2-.6.1-.5-.1.2-.1.3.1-.1.4-.7 0-.2-.3.5.3-.3.4-.4-.6.6-.1.1.3-.1s.7-.4 1.1-.5c1-.5 2-.9 2.9-1.3.3-.1.6-.2.9-.4.3-.1.6-.2.1 0 .6-.2 1.2-.5 1.7-.7 1.1-.4 2.2-.9 3.3-1.3 2.2-.8 4.4-1.6 6.7-2.3 4.6-1.5 9.2-2.7 13.8-3.8 2.6-.6 4.3-3.7 3.5-6.2-1.1-2.5-3.7-3.9-6.4-3.3z"/><path d="M286.3 377.1c3.3 25 6.6 50 9.7 75 .2 1.7.5 3.5.6 5.2v.6c0 .5-.2 1.1.1-.1-.2.8.2-.3.2-.4-.4.7-.1.4 1.1-1 .5-.2 1.1-.3 1.6-.5 1.3-.1 1.9.7.9.1-.4-.2-.8-.5-1.2-.7-.8-.5-1.5-.9-2.3-1.4-1.5-.9-3.1-1.9-4.6-2.8-2.2-1.4-5.6-.6-6.8 1.8-1.3 2.4-.6 5.4 1.8 6.8 2.9 1.8 5.7 3.8 8.7 5.3 2.2 1.1 4.8 1.4 7 .1 1.7-1 2.8-2.7 3.2-4.6.7-3.2-.2-6.7-.6-9.9-.4-3.4-.8-6.8-1.3-10.1-1.7-13.5-3.4-27-5.2-40.5-1-7.7-2-15.3-3-22.9-.2-1.4-.4-2.5-1.5-3.5-.9-.9-2.3-1.5-3.5-1.5-2.3.1-5.3 2.2-4.9 5zm-37.2 55.5c-4.1 6-6.3 13.1-6.7 20.4-.1 2.6 2.4 5.1 5 5 2.8-.1 4.9-2.2 5-5 0-.9.1-1.8.2-2.8-.1.4-.1.9-.2 1.3.4-2.6 1-5.2 1.9-7.7l.3-.9c.4-1-.4.9 0 .1.3-.6.6-1.3.9-1.9.6-1.2 1.3-2.3 2-3.4 1.5-2.2.5-5.6-1.8-6.8-2.3-1.4-5.1-.6-6.6 1.7zm79.7 5.4c1 .3 2 .7 3 1.1-.4-.2-.8-.3-1.2-.5 2.9 1.2 5.6 2.8 8.2 4.6 1 .7 2.7.8 3.9.5 1.2-.3 2.4-1.2 3-2.3.6-1.2.9-2.6.5-3.9-.4-1.3-1.2-2.2-2.3-3-3.8-2.7-8-4.7-12.3-6.2-1.2-.4-2.8-.1-3.9.5-1 .6-2 1.8-2.3 3-.3 1.3-.2 2.7.5 3.9.6 1.1 1.6 1.9 2.9 2.3zm84.5-69.4c2.1 19.7 3.6 39.4 4.3 59.2.2 5.6.3 11.2.4 16.8 2.5-1.4 5-2.9 7.5-4.3-7.3-4.2-15.3-7.1-23.5-8.4-2.6-.4-5.5.7-6.2 3.5-.5 2.4.7 5.7 3.5 6.2 3.9.6 7.6 1.5 11.3 2.8.8.3 1.7.6 2.5.9.3.1.6.2.8.3-.4-.2-.5-.2-.2-.1.5.2 1 .4 1.4.6 1.8.8 3.5 1.7 5.2 2.7 3.2 1.9 7.6-.5 7.5-4.3-.3-19.8-1.3-39.5-3-59.2-.5-5.6-1-11.2-1.7-16.7-.3-2.6-2.1-5.1-5-5-2.3.2-5.1 2.3-4.8 5zm-29.6 35.2c-2.6 4.7-5.3 9.4-7.9 14.1-1.3 2.3-.6 5.6 1.8 6.8 2.4 1.3 5.5.6 6.8-1.8 2.6-4.7 5.3-9.4 7.9-14.1 1.3-2.3.6-5.6-1.8-6.8-2.4-1.2-5.5-.6-6.8 1.8zm57.1 9.2l12.9 9.6c1 .7 2.7.8 3.9.5 1.2-.3 2.4-1.2 3-2.3.6-1.2.9-2.6.5-3.9-.2-.4-.3-.8-.5-1.2-.4-.8-1-1.3-1.8-1.8l-12.9-9.6c-1-.7-2.7-.8-3.9-.5-1.2.3-2.4 1.2-3 2.3-.6 1.2-.9 2.6-.5 3.9.2.4.3.8.5 1.2.5.7 1.1 1.3 1.8 1.8zm63.4-51.6c-8.4 10-16.2 20.4-23.4 31.3-1.4 2.2-.5 5.6 1.8 6.8 2.5 1.3 5.3.5 6.8-1.8 3.4-5.2 7-10.3 10.7-15.3l2.7-3.6c.9-1.2-.3.4.2-.3.2-.3.5-.6.7-.9.5-.6 1-1.2 1.5-1.9 2-2.5 4-4.9 6-7.3 1.7-2 2.1-5.1 0-7.1-1.8-1.6-5.2-2.1-7 .1zm-6.4 27.6v47c0 2.6 2.3 5.1 5 5 2.7-.1 5-2.2 5-5v-47c0-2.6-2.3-5.1-5-5-2.7.1-5 2.2-5 5zm38.4-28.9l12.3-1.8c.9-.1 1.8-.3 2.7-.4.2 0 1.9-.2 1.1-.2-.4.1-.4.1.1 0 .6 0 .5 0-.2-.1-.6-.2-1.1-.6-1.4-1-.6-1-.1-.3 0 .1.1.2.1.5.1.7-.1-.7-.1-.8-.1-.2v1.1c0 .4 0 .7-.1 1.1-.1 1 .2-1.1-.1.2-.2.8-.4 1.5-.6 2.2-.1.2-.2.4-.3.7.1-.2.1-.4.2-.5-.1.4-.4.9-.6 1.3-.3.7-.7 1.3-1.1 1.9-.5.7-1 1.5-1.5 2.2-.8 1 .7-.8-.1.2-.2.3-.5.6-.7.9-1.1 1.4-2.3 2.7-3.5 3.9-1.8 1.9-2 5.2 0 7.1 1.9 1.8 5.2 2 7.1 0 5.7-6.1 12.1-13.7 11.3-22.6-.3-3.1-1.2-6.3-4.1-8-2.7-1.6-5.7-.9-8.6-.5-4.9.7-9.7 1.4-14.6 2.1-2.6.4-4.3 3.8-3.5 6.2 1 2.8 3.4 3.8 6.2 3.4z"/><path d="M531.1 381.7c3.4-.9 6.7-1.9 10.1-2.8 1.2-.3 2.4-1.2 3-2.3.6-1.1.9-2.7.5-3.9-.4-1.2-1.1-2.4-2.3-3-1.2-.6-2.5-.9-3.9-.5-3.4.9-6.7 1.9-10.1 2.8-1.2.3-2.4 1.2-3 2.3-.6 1.1-.9 2.7-.5 3.9.4 1.2 1.1 2.4 2.3 3 1.3.7 2.6.9 3.9.5z"/><path d="M519.3 357v90c0 2.6 2.3 5.1 5 5 2.7-.1 5-2.2 5-5v-90c0-2.6-2.3-5.1-5-5-2.7.1-5 2.2-5 5z"/><path d="M535.2 409c3.3-1 6.7-2 10-3 1.2-.4 2.3-1.2 3-2.3.6-1.1.9-2.7.5-3.9-.4-1.2-1.1-2.4-2.3-3-1.2-.6-2.5-.9-3.9-.5-3.3 1-6.7 2-10 3-1.2.4-2.3 1.2-3 2.3-.6 1.1-.9 2.7-.5 3.9.4 1.2 1.1 2.4 2.3 3 1.2.6 2.6.9 3.9.5zm-5.4 19.1c5.9 0 11.8-1.1 17.3-3.4 1.3-.5 2.3-1.1 3-2.3.6-1.1.9-2.7.5-3.9-.4-1.2-1.1-2.4-2.3-3-1.1-.6-2.6-1-3.9-.5-3.4 1.4-7 2.3-10.6 2.8.4-.1.9-.1 1.3-.2-1.8.2-3.6.3-5.3.4-2.6 0-5.1 2.3-5 5 .1 2.8 2.2 5.1 5 5.1zm35-72.9c5.1-.5 10.1-.9 15.2-1.2 2.5-.1 5.1-.3 7.6-.2.3 0 .9-.1 1.2.1-.7-.1-.7-.1-.2 0 .2.1.5.1.7.2-.6-.3-.7-.3-.2 0-.5-.4-.6-.5-.2-.1-.4-.6-.5-.7-.2-.2.2.5.2.4-.1-.3.1.2.1.4.2.6.1.5.1.4 0-.3.1.1 0 1.2 0 1.4 0 .2-.3 1.5 0 .8.2-.8-.1.6-.2.7-.5 2.2-1.2 4.4-2 6.6-.2.6-.4 1.1-.6 1.7 0 .1-.6 1.4-.2.4-.5 1.1-1 2.2-1.5 3.2-1.1 2.1-2.2 4.2-3.5 6.1-1.4 2.2-.5 5.6 1.8 6.8 2.5 1.3 5.3.6 6.8-1.8 2.4-3.7 4.3-7.5 6-11.6 1.6-3.8 2.9-7.7 3.4-11.8.5-4.3-1-9.3-5.2-11.3-4.1-2-9.1-1.3-13.5-1-5.1.2-10.2.6-15.2 1.2-2.6.3-5.1 2.1-5 5 .1 2.5 2.2 5.3 4.9 5z"/><path d="M567.2 385.1c4-.7 8-1.5 12-2.2 1.2-.2 2.4-1.3 3-2.3.6-1.1.9-2.7.5-3.9-.4-1.2-1.1-2.4-2.3-3-1.2-.7-2.5-.8-3.9-.5-4 .7-8 1.5-12 2.2-1.2.2-2.4 1.3-3 2.3-.6 1.1-.9 2.7-.5 3.9.4 1.2 1.1 2.4 2.3 3 1.3.7 2.5.8 3.9.5zm-6.4 24.7c5.6-.2 11.3-.3 16.9-.5 2.7-.1 5.3-.2 8-.2.2 0 .8-.1.9 0 0 0-1.2-.4-.2 0-.2-.1-.9-.6-.2-.1-.4-.2-.7-.4-.9-.8-.1-.1-.3-1.1-.2-.3 0-.1-.2-1.3-.1-.4.1.8-.3-.5.1-.3l-.2.8c-.4 1.2.4-.7-.2.4-.2.4-.5.9-.7 1.3-.6 1-1.2 2-1.8 2.9-.6 1-1.3 1.9-2 2.8-.3.4-.6.9-1 1.3-.4.6.5-.6 0 0-.2.3-.4.5-.6.8-2.9 3.6-6.1 6.9-9.5 9.9-.9.8-1.8 1.6-2.8 2.3-.2.2-.4.3-.6.5.9-.7-.2.1-.3.2-.5.4-1 .7-1.5 1.1-2.1 1.5-4.4 2.9-6.7 4.2-2.3 1.3-3.2 4.6-1.8 6.8 1.5 2.3 4.4 3.2 6.8 1.8 9-5.1 17.2-12 23.7-20.1 1.8-2.2 3.5-4.5 5-6.9 1.4-2.2 3-4.6 3.6-7.2.9-3.6 0-7.7-3.4-9.7-2.9-1.7-6.2-1.3-9.3-1.2l-21.1.6c-2.6.1-5.1 2.2-5 5 .3 2.6 2.3 5.1 5.1 5z"/><path d="M557 422.9c11.1 9.8 23.4 18.2 36.6 24.9 2.3 1.2 5.5.7 6.8-1.8 1.2-2.3.7-5.6-1.8-6.8-6.3-3.2-12.5-6.8-18.4-10.8-2.9-2-5.8-4-8.6-6.2.8.6-.3-.3-.4-.3-.4-.3-.7-.6-1.1-.8-.7-.6-1.4-1.1-2.1-1.7-1.4-1.1-2.7-2.3-4.1-3.5-2-1.7-5.2-2.1-7.1 0-1.6 1.8-1.9 5.1.2 7zm76.3-64.3c18.9-1.8 37.7-4.8 56.2-9 2.6-.6 4.3-3.7 3.5-6.2-.9-2.7-3.4-4.1-6.2-3.5-9 2-18 3.8-27 5.3-2.2.4-4.5.7-6.7 1-1.1.2-2.3.3-3.4.5-.2 0-1.8.2-.8.1-.6.1-1.1.1-1.7.2-4.6.6-9.2 1.1-13.8 1.6-2.6.3-5.1 2.1-5 5 .1 2.5 2.2 5.3 4.9 5z"/><path d="M644.4 346.2c-.2 18.5-.2 36.9 0 55.4.1 5.2.1 10.4.2 15.6 0 2.6 2.3 5.1 5 5 2.7-.1 5-2.2 5-5-.3-18.5-.4-36.9-.3-55.4 0-5.2.1-10.4.1-15.6 0-2.6-2.3-5.1-5-5-2.8.1-5 2.2-5 5zm17.9-6c.3 17.6.9 35.3 2 52.9.3 5 .7 10.1 1 15.1.2 2.6 2.2 5.1 5 5 2.5-.1 5.2-2.2 5-5-1.3-17.6-2.2-35.2-2.7-52.8-.1-5-.2-10.1-.3-15.2 0-2.6-2.3-5.1-5-5-2.7.1-5 2.2-5 5z"/><path d="M653.9 381.6c4.6-2.1 9.2-4.3 13.8-6.4 1.1-.5 2-1.9 2.3-3 .3-1.2.2-2.8-.5-3.9s-1.7-2-3-2.3c-1.4-.3-2.6-.1-3.9.5-4.6 2.1-9.2 4.3-13.8 6.4-1.1.5-2 1.9-2.3 3-.3 1.2-.2 2.8.5 3.9s1.7 2 3 2.3c1.4.4 2.6.1 3.9-.5zm1.9 17c.7-.6 1.4-1.3 2.2-1.8-.3.3-.7.5-1 .8 2.4-1.9 5.1-3.4 7.9-4.6-.4.2-.8.3-1.2.5.4-.1.7-.3 1.1-.4 1.3-.5 2.3-1.1 3-2.3.6-1.1.9-2.7.5-3.9-.4-1.2-1.1-2.4-2.3-3-1.1-.6-2.6-1-3.9-.5-2.4.9-4.8 2-7.1 3.4-2.2 1.4-4.3 3-6.2 4.7-.9.8-1.5 2.3-1.5 3.5 0 1.2.5 2.7 1.5 3.5 2 2 4.9 2 7 .1zm-24 32.2c16.8-4.1 33.4-9.2 49.7-15.2 2.4-.9 4.4-3.4 3.5-6.2-.8-2.4-3.5-4.5-6.2-3.5-16.3 6-32.8 11.1-49.7 15.2-2.5.6-4.3 3.6-3.5 6.2.9 2.7 3.5 4.2 6.2 3.5z"/><path d="M649.9 425.6c-2.4 4.3-4.7 8.6-7.1 12.9-.6 1.2-.9 2.6-.5 3.9.3 1.2 1.2 2.4 2.3 3 2.3 1.2 5.5.7 6.8-1.8 2.4-4.3 4.7-8.6 7.1-12.9.6-1.2.9-2.6.5-3.9-.3-1.2-1.2-2.4-2.3-3-2.3-1.2-5.4-.7-6.8 1.8zm20.9 14.8l6 3.9c.6.4 1.2.6 1.9.6.7.1 1.3.1 2-.1s1.2-.5 1.7-.9 1-.8 1.3-1.4c.6-1.2.9-2.6.5-3.9-.2-.4-.3-.8-.5-1.2-.4-.8-1-1.3-1.8-1.8l-6-3.9c-.6-.4-1.2-.6-1.9-.6-.7-.1-1.3-.1-2 .1s-1.2.5-1.7.9-1 .8-1.3 1.4c-.6 1.2-.9 2.6-.5 3.9.2.4.3.8.5 1.2.5.8 1.1 1.4 1.8 1.8zm19.2-57.2c1.3 14.6 1.5 29.3.8 44-.1 2.6 2.4 5.1 5 5 2.8-.1 4.9-2.2 5-5 .7-14.7.5-29.4-.8-44-.2-2.6-2.1-5.1-5-5-2.6.1-5.3 2.2-5 5z"/><path d="M703.9 383.6c.3-.2.7-.3 1-.5.7-.3-.7.3.1 0 .6-.2 1.3-.5 1.9-.7 1.4-.5 2.8-.9 4.2-1.3 1.3-.3 2.5-.6 3.8-.8.4-.1.8-.1 1.1-.2.2 0 1.3-.2.3 0 .8-.1 1.5-.2 2.3-.2h.8c.9-.1.1 0-.2-.1.1 0 .2.1.4.1-.4-.1-.8-.3-1-.7l-.5-.5c-.2-.6-.3-.7-.2-.4.1.6.5.6.1-.1.1.1 0 .7 0 .7 0 .8.1 1.7.1 2.5.1 3.1.2 6.1.3 9.2.3 12.1.2 24.2-.4 36.2-.3 6.9-.8 13.7-1.4 20.6 2.8-1.2 5.7-2.4 8.5-3.5-3.7-3.5-7.4-6.9-11.1-10.4-1.9-1.8-5.2-2-7.1 0-1.8 1.9-2 5.2 0 7.1 3.7 3.5 7.4 6.9 11.1 10.4 1.5 1.4 3.6 1.8 5.5 1s2.9-2.5 3.1-4.6c1.2-13.2 1.8-26.4 1.9-39.7.1-6.5 0-12.9-.2-19.4-.1-3.3-.1-6.5-.4-9.8-.1-1.8-.4-3.7-1.5-5.2-1.5-2.2-3.7-3.2-6.3-3.4-1.9-.1-3.8.2-5.6.5-1.7.2-3.3.5-5 .9-3.7.9-7.3 2.2-10.7 3.8-2.4 1.1-3.2 4.7-1.8 6.8 1.7 2.4 4.4 2.9 6.9 1.7z"/><path d="M703.6 410l12.9-5.1c1.3-.5 2.3-1.1 3-2.3.6-1.1.9-2.7.5-3.9-.4-1.2-1.1-2.4-2.3-3-1.1-.6-2.6-1-3.9-.5l-12.9 5.1c-1.3.5-2.3 1.1-3 2.3-.6 1.1-.9 2.7-.5 3.9.4 1.2 1.1 2.4 2.3 3 1.2.6 2.7 1 3.9.5zm0 16.9c5.3-1.4 10.6-2.8 16-4.1 2.5-.7 4.3-3.6 3.5-6.2-.8-2.6-3.4-4.2-6.2-3.5-5.3 1.4-10.6 2.8-16 4.1-2.5.7-4.3 3.6-3.5 6.2.9 2.7 3.5 4.2 6.2 3.5zM89 285.9c-.5 12.3.3 24.6 2.4 36.8.2 1.3 1.9 2.1 3.1 1.7 1.4-.4 2-1.7 1.7-3.1-2.1-11.7-2.8-23.6-2.2-35.4.2-3.2-4.8-3.2-5 0z"/><path d="M102.1 293.7c-3 4.6-6.4 8.8-10.4 12.6-1.2 1.2-.8 3.9 1.1 4.2 6 .8 11.9 2.4 17.4 4.9 1.2.6 2.7.4 3.4-.9.6-1.1.3-2.9-.9-3.4-5.9-2.7-12.1-4.6-18.6-5.5.4 1.4.7 2.8 1.1 4.2 4.2-4.1 8-8.7 11.2-13.6.7-1.1.2-2.8-.9-3.4-1.2-.7-2.7-.2-3.4.9zm11.7 2.1c.2 5.4.9 10.9 4.5 15.1 3.2 3.9 8.4 5.5 13.1 3.4 2.4-1.1 4.2-3.1 4.9-5.6.9-3.1-4-4.4-4.8-1.3 0 .1-.1.3-.1.4.1-.2.1-.2 0 0l-.3.6c-.3.5.2-.1-.2.2-.2.2-.4.4-.7.6l-.2.2-.6.3c-.1.1-.3.1-.4.2.2-.1.2-.1.1 0-.3.1-.5.2-.8.2-.8.2-1.5.2-2.2 0-1.1-.2-1.8-.6-2.6-1.2-.7-.5-1.6-1.6-2-2.1-.6-.9-1.1-1.9-1.5-2.9-.9-2.7-1.1-5.3-1.2-8.1 0-1.4-1.1-2.5-2.5-2.5-1.3 0-2.5 1.1-2.5 2.5z"/><path d="M129.4 293.6c.2 6.4 1.1 12.8 2.7 19 .3 1.3 1.8 2.1 3.1 1.7 1.3-.4 2.1-1.8 1.7-3.1-1.5-5.8-2.3-11.7-2.5-17.7 0-1.3-1.1-2.5-2.5-2.5-1.3.1-2.5 1.2-2.5 2.6zm29.5-4.3c-6.6-1.7-14.1 1.5-16.3 8.1-2.1 6.2 1.3 13.7 8.1 14.8 3.5.6 7.5-.4 9.8-3.2.9-1 1-2.5 0-3.5-.9-.9-2.7-1-3.5 0l-.6.6c-.1.1-.7.5-.3.3-.2.1-.4.3-.7.4-.2.1-.8.4-.3.2-.5.2-1 .3-1.6.4-.5.1 0 0 .1 0h-1.3c-.2 0-.8-.1-.3 0-.3 0-.5-.1-.8-.2-.3-.1-.5-.2-.8-.2-.4-.1-.1 0 0 0-.2-.1-.3-.1-.5-.2s-.5-.3-.7-.4c-.1 0-.4-.3-.2-.1l-.1-.1c-.2-.2-.4-.3-.5-.5l-.3-.3c.3.4-.1-.2-.1-.2-.1-.2-.3-.4-.4-.7-.1-.1-.1-.3-.2-.4-.2-.3.1.4 0 0-.2-.6-.4-1.2-.5-1.8.1.5 0-.3 0-.4v-1.2c0-.1.1-.5 0-.2v-.2c0-.2.1-.4.1-.5.1-.3.2-.6.2-.9 0-.1.1-.3.2-.4 0 .1-.2.4 0 0l.9-1.5c-.3.3.2-.3.3-.4.2-.2.4-.4.7-.6l.3-.3c-.1.1-.4.2 0 0 .3-.2.6-.4.9-.5.3-.2.6-.3.9-.5-.4.2.5-.2.6-.2.3-.1.7-.2 1-.3.1 0 .3-.1.4-.1.1 0 .7-.1.3-.1h1.8c.1 0 1.1.1.6 0 .4.1.7.1 1.1.2 1.3.3 2.8-.4 3.1-1.7.6-1.4-.1-2.8-1.4-3.2z"/><path d="M157.9 292.8c-.4 6.4-.2 12.8.5 19.2.2 1.3 1 2.5 2.5 2.5 1.2 0 2.7-1.1 2.5-2.5-.7-6.4-.9-12.8-.5-19.2.1-1.3-1.2-2.5-2.5-2.5-1.4 0-2.4 1.2-2.5 2.5zm13.9 3.7c.8 3.6 1.7 7.1 2.5 10.7.3 1.3 1.8 2.2 3.1 1.7 1.3-.4 2.1-1.7 1.7-3.1-.8-3.6-1.7-7.1-2.5-10.7-.3-1.3-1.8-2.2-3.1-1.7-1.3.5-2 1.8-1.7 3.1zm.1-11.1c3.2 0 3.2-5 0-5-3.3 0-3.3 5 0 5zm83.3-7v31.4c0 3.2 5 3.2 5 0v-31.4c0-3.3-5-3.3-5 0zm17.7 29.3c5.8-1.6 11.6-4.9 15.3-9.8 1.8-2.4 2.8-5.3 2.3-8.3-.5-3-2.5-5.6-5.5-6.5-2.8-.8-6 0-8.2 1.7-2.4 1.8-4 4.4-5.3 7-2.3 4.8-4.1 11.1-.3 15.6 2.2 2.7 5.8 3.6 9.1 3.1 3.5-.5 6.5-2.7 8.9-5.2 2.2-2.3-1.3-5.8-3.5-3.5-2.4 2.5-6.7 5.6-10.1 3-1.3-1-1.6-2.4-1.5-4 0-1.8.6-3.6 1.3-5.4 1.3-3.1 3.7-7.8 7.5-7.7 1.5 0 2.4 1 2.7 2.6.3 1.6-.4 3.4-1.5 4.8-3 3.9-7.9 6.5-12.5 7.8-3.1.8-1.8 5.6 1.3 4.8zm82.6-22.9c4.8 6.1 9.7 12.3 14.5 18.4.8 1.1 2.7.9 3.5 0 1-1 .8-2.5 0-3.5-4.8-6.1-9.7-12.3-14.5-18.4-.8-1.1-2.7-.9-3.5 0-1.1 1-.9 2.4 0 3.5z"/><path d="M367 283c-4.1 6.5-8.2 13.1-12.3 19.6-1.7 2.7 2.6 5.2 4.3 2.5 4.1-6.5 8.2-13.1 12.3-19.6 1.7-2.7-2.6-5.2-4.3-2.5zm16.9 4.6v12.3c0 1.3 1.1 2.6 2.5 2.5 1.4-.1 2.5-1.1 2.5-2.5v-12.3c0-1.3-1.1-2.6-2.5-2.5-1.4 0-2.5 1.1-2.5 2.5zm.2-12.9c3.2 0 3.2-5 0-5-3.3 0-3.3 5 0 5zm27.7 4.4c-5.3 1-10.3 4.9-11.9 10.2-1.6 5.2.9 10.9 5.6 13.5 2.8 1.5 5.9 1.7 8.8.4 1.2-.5 1.5-2.4.9-3.4-.8-1.3-2.2-1.4-3.4-.9.4-.2-.5.1-.6.1-.5.2.2 0-.3.1h-1c-.7 0 .3.1-.3 0-1.1-.3-1.7-.5-2.8-1.3.3.2-.4-.4-.5-.4-.2-.2-.4-.4-.5-.6-.2-.2-.2-.3-.1-.1-.1-.1-.2-.3-.3-.4-.1-.2-.3-.4-.4-.7-.5-.8-.7-1.7-.7-2.6 0-.7 0-.9.1-1.5.1-.3.1-.5.2-.8 0-.1.3-.9.2-.7.6-1.2 1.1-2 2-2.8 1.7-1.7 3.7-2.7 6.2-3.2 1.3-.3 2.1-1.8 1.7-3.1-.2-1.5-1.6-2.1-2.9-1.8z"/><path d="M415.3 280.7v19.9c0 3.2 5 3.2 5 0v-19.9c0-3.3-5-3.3-5 0zm16.6.4c-3.4 3.4-4.1 8.7-2.3 13 1.9 4.5 6.3 7.2 11.2 6.9 4.9-.3 9.3-3.2 11-7.9 1.6-4.5.3-9.8-2.9-13.3-3.9-4.1-11.1-5.1-15.3-.8-.9 1-1 2.6 0 3.5 1 1 2.6 1 3.5 0l.5-.5c-.4.3.1-.1.2-.1l.6-.3c.6-.3-.4.1.2-.1.4-.1.8-.2 1.3-.3-.6.1.1 0 .2 0h1.4c-.6-.1.2 0 .2.1.4.1.9.2 1.3.4.7.2-.4-.2.2.1l.6.3c.2.1.4.2.6.4.2.2.2.2 0 0 .1.1.2.1.2.2.3.3.6.5.9.8 0 .1.5.6.2.2.1.2.3.4.4.5.2.4.5.7.6 1.1 0 .1.3.7.1.2.1.3.2.5.3.8.1.3.2.7.3 1.1 0 .1.1.8.1.2 0 .2 0 .4.1.7v1.3c0 .2 0 .4-.1.6.1-.6-.1.3-.1.4-.1.4-.2.7-.3 1 0 .1-.3.7-.1.2l-.3.6-.3.6c0 .1-.5.6-.1.2-.3.4-.7.7-1 1.1 0 0-.5.4-.2.2l-.3.2c-.4.2-.7.4-1.1.6-.1 0-.7.3-.2.1-.2.1-.4.2-.6.2-.5.2-1 .3-1.4.4-.6.1.3 0-.1 0h-1.8c-.1 0-.8-.1-.2 0-.2 0-.4-.1-.6-.1-.5-.1-.9-.2-1.4-.4.5.2-.1 0-.2-.1s-.2-.1-.4-.2-.4-.2-.5-.3c-.6-.3.3.3-.2-.1l-.9-.9c-.5-.5.2.4-.1-.1-.2-.2-.3-.5-.4-.7-.1-.2-.2-.4-.3-.5 0-.1-.3-.7-.1-.2-.2-.5-.3-.9-.4-1.4 0-.2-.1-.4-.1-.6 0-.3 0-.3 0 0v-2.3c-.1.6.1-.2.1-.4s.1-.4.2-.6c0-.1.3-.9.1-.4.2-.4.4-.9.7-1.3.1-.1.5-.6.1-.2l.6-.6c1-1 1-2.6 0-3.5-1.1-1-2.7-1-3.7 0zm83.5 1.1c1.6 5.9 3.6 12.5 1.1 18.4-1 2.2-2.6 4.3-4.9 5.2-2 .8-4.8 1-6.6-.4-1.1-.8-2.5-1-3.5 0-.9.9-1.1 2.7 0 3.5 6.2 4.9 14.9 2.1 18.7-4.4 4.3-7.4 2.3-16 .1-23.6-.9-3.2-5.8-1.9-4.9 1.3zm-.4-6.7c3.2 0 3.2-5 0-5s-3.2 5 0 5zm14.4 8.2v7.7c0 1.3 1.1 2.6 2.5 2.5 1.4-.1 2.5-1.1 2.5-2.5v-7.7c0-1.3-1.1-2.6-2.5-2.5-1.4.1-2.5 1.1-2.5 2.5zm3.3-10.5c3.2 0 3.2-5 0-5-3.3 0-3.3 5 0 5zm22.7 1.5c-1.7-.7-3.5-1-5.3-.4-1.7.5-3.2 1.5-4.4 2.7-2.4 2.4-3.8 5.7-4.1 9-.4 3.3.5 6.7 2.6 9.3 1.8 2.3 4.7 3.4 7.6 3.6 3.3.2 6.6-1.3 8.4-4.2.7-1.1.2-2.8-.9-3.4-1.2-.7-2.7-.3-3.4.9-.1.1-.2.2-.2.3l.1-.1-.5.5-.3.3s.4-.2.1-.1c-.2.1-.4.3-.7.4-.5.3.2 0-.2.1-.2.1-.4.1-.7.2-.2.1-.4.1-.7.1.6-.1-.1 0-.3 0-.5 0-.9 0-1.4-.1.5.1 0 0-.2-.1-.3-.1-.5-.1-.8-.2-.2-.1-.7-.3-.2-.1l-.6-.3c-.2-.1-.4-.2-.6-.4-.1-.1-.3-.3 0 0l-.3-.3-.5-.5c-.1-.1-.2-.2-.2-.3.2.3 0 0 0-.1-.1-.2-.3-.5-.4-.7-.1-.1-.1-.2-.2-.3l-.1-.2c-.2-.5-.3-1.1-.5-1.6 0-.1 0-.2-.1-.4.1.4 0 0 0-.1v-1.9c0-.1.1-.9 0-.4.1-.6.2-1.2.4-1.8.1-.3.2-.5.3-.8 0-.1.2-.4 0-.1 0-.1.1-.2.2-.3.3-.6.6-1.1.9-1.6 0 0 .3-.4.1-.1.1-.1.2-.3.3-.4l.7-.7c.1-.1.2-.2.4-.3l.1-.1c.3-.2.5-.4.8-.5.1-.1.3-.2.4-.2-.3.1 0 0 .2 0 .1 0 .2-.1.3-.1.1 0 .7-.1.3-.1h.5c-.3 0 .9.3.4.1 1.2.5 2.7.4 3.4-.9.8-.9.5-2.8-.7-3.3z"/><path d="M558 271.5c-.8 8.1-1.1 16.3-.8 24.5.1 3.2 5.1 3.2 5 0-.3-8.2 0-16.4.8-24.5.1-1.3-1.2-2.5-2.5-2.5-1.5 0-2.4 1.1-2.5 2.5zm116.4-1.4c-5.8-3.4-12.2 2.1-13.3 7.8-1.3 6 1.5 12.5 7.1 15.3 3.2 1.5 6.7 1.9 10.1 1 3.1-.9 1.8-5.7-1.3-4.8-2.3.7-4.7.4-6.9-.8-2.2-1.2-3.6-3.2-4.2-5.7-.1-.6-.2-.9-.2-1.6 0-.6 0-1.3.1-1.7.1-.6.3-1.4.5-1.9 0-.1.3-.5.4-.7.1-.1.5-.8.4-.6.2-.2.4-.4.5-.6l.4-.4c.2-.2.3-.2.1-.1.2-.2.5-.4.8-.5.1 0 .8-.4.5-.3.3-.1.7-.2 1-.3-.4.1.3 0 .3 0 .6 0 .5 0 1.1.3 2.9 1.6 5.4-2.7 2.6-4.4z"/><path d="M676.1 272.2v29.9c0 3.2 5 3.2 5 0v-29.9c0-3.2-5-3.2-5 0zm14.6 4.7c-.8 3.5-1.1 7.1-.8 10.6.1 1.3 1.1 2.6 2.5 2.5 1.3-.1 2.6-1.1 2.5-2.5-.1-1.6-.2-3.3 0-4.9 0-.4.1-.8.1-1.1 0-.2.1-.4.1-.7v.2c0-.1 0-.2.1-.4.1-.8.3-1.6.5-2.4.3-1.3-.4-2.8-1.7-3.1-1.5-.2-3 .5-3.3 1.8zm4-9.8h.8c.3 0 .7-.1 1-.2.3-.1.6-.3.8-.5.2-.2.4-.5.5-.8.2-.3.2-.6.2-1 0-.2-.1-.4-.1-.7-.1-.4-.3-.8-.6-1.1-.2-.1-.3-.3-.5-.4-.4-.2-.8-.3-1.3-.3h-.8c-.3 0-.7.1-1 .2-.3.1-.6.3-.8.5-.2.2-.4.5-.5.8-.2.3-.2.6-.2 1 0 .2.1.4.1.7.1.4.3.8.6 1.1.2.1.3.3.5.4.4.2.8.3 1.3.3zM17.4 361c3.6 1.5 7.1 3.1 10.7 4.6.6.3 1.2.4 1.9.3.6-.2 1.2-.6 1.5-1.1.6-1.1.4-2.9-.9-3.4-3.6-1.5-7.1-3.1-10.7-4.6-.6-.3-1.2-.4-1.9-.3-.6.2-1.2.6-1.5 1.1-.5 1-.3 2.8.9 3.4zm10.1-17.2c3.1 2.6 6.1 5.1 9.2 7.7.5.4 1.1.7 1.8.7.6 0 1.3-.3 1.8-.7.8-.9 1.1-2.6 0-3.5-3.1-2.6-6.1-5.1-9.2-7.7-.5-.4-1.1-.7-1.8-.7-.6 0-1.3.3-1.8.7-.8.9-1 2.7 0 3.5zm723.2-31.2l-4.6 4.6c-.5.5-.7 1.1-.7 1.8 0 .6.3 1.3.7 1.8.5.4 1.1.8 1.8.7.7 0 1.3-.3 1.8-.7l4.6-4.6c.5-.5.7-1.1.7-1.8 0-.6-.3-1.3-.7-1.8-.5-.4-1.1-.8-1.8-.7-.7 0-1.3.2-1.8.7zm22.4 5c-2.8 4.3-5.5 8.6-8.3 12.8-.7 1.1-.3 2.8.9 3.4 1.2.7 2.7.3 3.4-.9 2.8-4.3 5.5-8.6 8.3-12.8.7-1.1.3-2.8-.9-3.4-1.2-.7-2.6-.3-3.4.9zM44.2 503.1c-3 4.5-4.7 9.6-5.2 15-.1 1.3 1.2 2.6 2.5 2.5 1.4-.1 2.4-1.1 2.5-2.5 0-.3.1-.6.1-.9 0-.3 0-.3 0 0 0-.2 0-.3.1-.5.1-.5.2-1.1.3-1.6.3-1.2.6-2.3 1-3.4.2-.5.4-1 .6-1.6-.2.4.2-.4.2-.5.1-.3.3-.6.4-.9.5-1.1 1.1-2.1 1.8-3.1.7-1.1.2-2.8-.9-3.4-1.3-.7-2.6-.3-3.4.9zm17.9 12.8c-1.1 3-2.2 6.1-3.2 9.1-.4 1.2.5 2.8 1.7 3.1 1.4.3 2.6-.4 3.1-1.7 1.1-3 2.2-6.1 3.2-9.1.4-1.2-.5-2.8-1.7-3.1-1.4-.4-2.6.3-3.1 1.7zm679.8-41.4c4.7 3.6 10.3 6.2 16.1 7.5 1.3.3 2.8-.4 3.1-1.7.3-1.3-.4-2.8-1.7-3.1-5.5-1.3-10.3-3.5-14.9-7-1-.8-2.8-.2-3.4.9-.8 1.3-.3 2.5.8 3.4zm24.7-9.4c3.6 2.3 7.7 3.5 12 3.5 1.3 0 2.6-1.2 2.5-2.5-.1-1.4-1.1-2.5-2.5-2.5-.5 0-1 0-1.5-.1-.2 0-.4 0-.6-.1h.1c-.1 0-.2 0-.4-.1-.9-.1-1.8-.3-2.6-.6-.4-.1-.9-.3-1.3-.4-.2-.1-.3-.1-.5-.2-.3-.1-.2-.1.1 0-.1 0-.2-.1-.3-.2-.8-.4-1.7-.8-2.4-1.3-1.1-.7-2.8-.3-3.4.9-.8 1.4-.4 2.8.8 3.6z"/></g></svg>