<svg xmlns="http://www.w3.org/2000/svg" data-name="图层 1" viewBox="0 0 498.63 221.7" preserveAspectRatio="none"><path d="M72.35 4.34c1.3-.15 2.66-.34 4-.55a4.65 4.65 0 0 1 1.25-.24c.17 0 .27-.06.32 0L76.31 3a1.38 1.38 0 0 1 .77.28 4.66 4.66 0 0 0-1.51-.19c-4.56.56-8.89 1.22-9.48 1.32.91.38 3.42.26 6.26-.07zM132 1.54c-7.44.29-14.85.34-22.21.05a12.08 12.08 0 0 0 1.14 1.33l20.85-1.28zM46.89 59.38l-.82-.1z" fill="{{colors[0]}}"/><path d="M498.63 102c0-6.95-5.34-3.63-7.82-6.12.16-1.16-.58-2.53.4-3.12 3 1.14 5.67-2.71 5-7.65-1.81-13.24-7.29-23.83-10.51-36.1-.29-3.37-4.25-2.14-3-6.63-1.78-4-2.95 1.44-4.74 1.31l-.13-.06c-4.3-3-10.9-4.6-15.71-5.36l3.84 2.82c-9.32 3.59-17.69-2.14-26.06-5.78-.83-3.15 1.81-1.81 2.52-3.35-5-3.18-10.83-5.79-15.88-6.06 3.32 3.69 9 3.23 12.17 7.92l-.4.85c-5.54-1.28-10.78-3.79-16.05-6.08.45-.33.91-.7 1.46-1.19-1.11-.21-4.33-.76-7.59-1.25a39.66 39.66 0 0 0-8.56-2.15l1.43 1.3c-1.59-.07-2 .16.07.93-1.13.15-6.3-1.94-7.24-3.25 4-2.5 12.54-1.7 16.26-.47-.61-.78-.34-1.47.81-2 3.67.67-10.93-2.15-10.52-2.24.49.38 6.94-3.54 10.14-4.27 0-3.18-1.86-4.51-5.64-4 .12-.09.24-.15.35-.25-1.25-.11-1.45-.37-.6-.82-.63.07-12.75-2.53-16.1-2.37a7 7 0 0 0 1.72-1.12C395 2.09 390.86 2.16 381.05.8a6.45 6.45 0 0 1 4.17 2c-.66-1.28-10.4-.85-11.61-.82a31.18 31.18 0 0 0 6.11 1.64c-2.77.17-6.44 1.19-10.93.78a27.5 27.5 0 0 0-4.84-1 23.49 23.49 0 0 1-2.44-.95 23.16 23.16 0 0 0 2.22.93 18.31 18.31 0 0 0-1.93-.2c1.79.89 3.57 1.72 5.37 2.55-3.72 1.35-4.2-.77-8.66-.62-15.29.41-23.7 4.08-32.95 4.11.34.19.81.2.53.88 0-.26-.22-.37-.44-.47V9.5h-.21a.41.41 0 0 1-.24-.29 34.29 34.29 0 0 1-11.48-2.11L312 6.88C282 4.34 252.06 3 219.82 5.13a11.47 11.47 0 0 1 3.64 1.17c-14.13 2.09-40.13.15-48.75-.71-6.86-.11-33.33 4.11-21.53-.9.28.15.76 0 1.1 0 0-.19-.3-.26-.64-.24.24-.1.39-.18.65-.28A48.15 48.15 0 0 0 143 2.12l.14-.24a3.85 3.85 0 0 0-.64-.87c2.38-.15 4.75-.29 7.14-.47l-17.87 1.1c-1.61.79-3.1.88-1.83 4.72l-7-1.67c-4.26.16-8.31 2.09-12-1.77l-5 .3a6.15 6.15 0 0 0-.23 1.69c-2.29 0-1.12.79.22 1.38a2.21 2.21 0 0 0 0 .25c-2.42-.28-4.87-.54-7.37-.77.13-.16-.12-.31-.37 0-2.39-.21-4.86-.41-7.44-.58-1.45-.61-4.34-.49-3.79-.23-1.58-.09-3.22-.17-4.91-.24l-12.68.78a4.85 4.85 0 0 1-1 1c-.55.11-.71.16-.1.1C64.84 9 57.68 9 55.68 9.78c.87.65 7.62 1.54 7.22 2a4.74 4.74 0 0 1-.63.39 3.65 3.65 0 0 1 .64.42c-8.37.86-2.45.16-1.65.8-1.34 0-5 .35-9.19.93.07-.06.14-.12.14-.21a6.46 6.46 0 0 1-1 .33A72 72 0 0 0 38.1 17.4c-12.1.78-21.91 1.38-21.76 2.84 7.21-1.19 1.65.19.75.28 2.11.38 1.1.72.53.85.75-.12 3.22-.47 9.31-1.13-3.64.53-11.1 1.85-10.28 2.45-.16 0 5.87 1.12-.65 1.18.74 0 1.95 0 3.34.08h-.25c.1.36 1.5.31 3.17.09 3.35.15 6.65.33 7 .26a10.83 10.83 0 0 0 1.19.8 39.44 39.44 0 0 0-9.74 1.47c2.25.8 7.14.41 9.8 1-2.21 1.68-11.79 5-2.06 5.19-1.44.29-1.79.53-1.12.73-.78 0-3.91.08-7.86.28a2.08 2.08 0 0 1 .67.23C20 34.27 3.22 40.7 0 42.77c14.26-.52 16.24-2.22 34.37-3.59-.89 0-1.52-.13-1.61-.46 3.72-1.18 5.64-1.29 5.73-.36a64.89 64.89 0 0 1 13.19-1.24c-.62.28-.84.62-.63 1 0 0-8.48 1.66-8.18 1.54a78 78 0 0 0 9.58-.66 6.3 6.3 0 0 0 1.3.82l-.38.12c0 .05.16 0 .46-.08a14.31 14.31 0 0 0 1.83.81c-.26.3-10.33 3-10 2.92 1.08-.42.95-.94-.41-1.54 1.15.22 1-.18 1.34-.48a1.48 1.48 0 0 1-1.92-.82c-1.32 5.26-1 .81-6.76 2.6q9.7 1.61-2.56.76c19.71 3.67-.21.88 13.49 8.1a6.32 6.32 0 0 1 1.64.16h-.06.12a53 53 0 0 1 12.06 3.48 35.78 35.78 0 0 0-12.22.28c-3.33-.75-9-2-8.69-1.93l8.66 1.93A47.69 47.69 0 0 0 45 57.52l-4-.38a14.9 14.9 0 0 0 2 1.07c-.54.19-1.07.33-1.62.55 1.28.06 2.73.18 4.29.34.64.15 1.06.22 1.28.28.45.12-.11.19-2.44.85-1.16-.85-3-1-5.59-.38l.33-.18a4.2 4.2 0 0 1-.87.31c1.38.19 6 .69 6.25.7q-3.28.76 1.1.8c-1.47 1.16-5.12.48-6.17-.07.51 3.29-10.88 6.26-13.9 6.64-1-1.29-3 8.6-5.51 7.42q1.75-.64-1.74-.77 1.59-.7-1.68-1.62c1.22 2.9 3.8 5.27 7 7.3a1.53 1.53 0 0 0 .68.41c9.25 5.6 22.93 8.49 24 12.42-2.94 1.67-6 2.65-9.68 5.39-.73 0 8.74.08 7.57 1.81-2.88-.06-8.41 1.53-9.82 2.66 3.18-.6 5.68-2.22 10-1.95-.82 1.21-1.55 1.5-2.21.91-.75.9-14.83 11.23-12.94 10.86a1.24 1.24 0 0 0-1.66.57c-4.78-2.82-4.07 4.55-2.23 4.47.23-.07-.82.35-2.33.95a4.7 4.7 0 0 0-1.45 0l1.12.12c-3.64 1.46-9.51 3.82-8.1 3.61l4.14.1-1 .16 2.43-.11a46 46 0 0 1 5.31.36c-1.26.56-1.08.94.54 1.11-9.88-.52 5.88 9.89 1.32 11a3 3 0 0 1 2.19 1.86c7.43-1.69 4.9.75 13.15-2-5.47-.39-3.75.32-6.64-.89 2.06-1.69 15-.82 19.4 1.41 4.77-1.08 12.38-4.94 18.62-1.75-1.46.16-1.55.27-.24.32 1.25 1.27-3.83-.19-.66.9.36-.38 1-.28 1.88.31-2.33.12-4.15.18-5.56.19a1 1 0 0 1 .36 1c-4.68 1.26-.92 2.63 7.18 3.86v.59c-1.58.36-3.63.89-3.3 1.09-.12-.05 1.71.07 3.27.2v1.69a39.07 39.07 0 0 0-5.54 3.25c-7.29-1.19-9.43-3.62-9.08-8.61q3.85.78-3.6-.8c.51 1 1.34 2.44 2.1 3.85a10 10 0 0 1-1.2-.3 15 15 0 0 0-1-1.57c2.28.66.38-.38-1.23-1.34a14.33 14.33 0 0 1-.34 5.93 6.09 6.09 0 0 0-1.77-.95 3.48 3.48 0 0 0 1.54.09 2.17 2.17 0 0 0-1.76-.21 10.78 10.78 0 0 0-2.59-.47 3.9 3.9 0 0 1 .38 2.62c-.37-.28-.63-.34-.06.27a6.11 6.11 0 0 1-.36 1.1c-1.74-.27-8.17-1.78-10-1.81a9.76 9.76 0 0 0 1.6 1.94c-.55-.27-1.87-.62-4.14.21 5 .44 9.88 7.18 11.07 8.4-.51.46-8.36-.95-8.5-.91 2.64 3.65 2.61 2.6 4.92 4.9-2.52 2.33-10 .3-11.61.15a20.6 20.6 0 0 0 2.89 1.9.37.37 0 0 0-.17.25 1.24 1.24 0 0 1 .37-.13c.44.24.87.49 1.32.71-.42 0-.77.06-.94.09h1c4.74 2.33 10 3.69 12.08 5.85.31-.56 1-.83 2.53 1.17-2.29.39-8.27-.25-6.47 1 1 .39 6.93-.16 7.75.25 1.2 3.26-3.32 2.64-2.85 2-.41.58-.33 1 0 1.29a33.39 33.39 0 0 0-4.24-.88c.64-.72-1.72-3.13-3.48-1.56l-2.89-.48c-.65 0 1 .34 2.77.62a2.6 2.6 0 0 0-.34.38 11.93 11.93 0 0 0 2.66 1.13c-.67.47 2.52 2.25 5.37 3.22a15.27 15.27 0 0 0-2.35-.22c1.23.07 2.69 2.57 2.84 2.56.8.09 9.23.53 13.87.84-.22-.34 4.24-.93 4.16-1.69l.54 1.32a.85.85 0 0 1-.17.06h.2a38.43 38.43 0 0 0 1.69 3.6c.1 2.6-.2 5.42-2 6.28-.47-.69-.88-.71-1.25-.08-5.26-.85-2.75-.76-6.8-1.29 1-.21.95-.55-.25-1-3.84.79 9.13 5.22 10.75 5.43-.66.11-3.12.49-4.14.56 2 .18 4 .29 6.09.29-3.79.81-5.2 1.61-5.26 2.35L71 196l-.08-.13c-.21-.19-.14 0 0 .14L82 199l.35.08c0 .1.08.19.11.3a7.84 7.84 0 0 0 0 1.21c-2.17-.21-4.28-.79-3.26-1.08-.18.22-.49.24-1 .06-1.25.91 2.62 1.85 4.48 2.49a2.72 2.72 0 0 0 .53.88c0 .05 0 .05 0 0a10.51 10.51 0 0 1-1.06 1.24c1.2-.1 1.52 0 1 .21h2c-.34.07-.67.15-1 .2l2.56-.16c1.27 0 2.52 0 3.83.09a1.73 1.73 0 0 1 .11.45c-.55-.12-1-.16-.83 0l.86.2c.14 1.9-4.37.91-3.33 5.22h6.09a15 15 0 0 0 2.5.25 25 25 0 0 0 22.88 1.25c.05.09.13.14.17.23 4.54.28 14.88-1.31 17.45-2.66-8.39 2-3.78.11-.73-.92a1.13 1.13 0 0 1-.81-.29c-2.47-.11-6.65.2-10.55.32.55-.41 1.12-.79 1.65-1.25l1.78-.35c1.56.28 1.45 1.37 3-.18-.16 0-1.93.07-3.82.08 2-.66 4-1.21 6-1.79 1.48-.15 2.5-.22 3.16-.24h.24c-3.88 1.35 1.22.37.84.06 2.64.17 3.67-.17 3.53-.59a17.6 17.6 0 0 1 7.47 1.58 1.18 1.18 0 0 1 1-.42c.53-.5 3.28-.52 6-.43 1.19 1.08 1.38 1.09.59 0 2.28.08 4.48.23 5.28.23a20.65 20.65 0 0 1-4.31-.39c1.42-.12 4.16-.29 6.82-.25-.27.48.14 1 3.26.22a5.84 5.84 0 0 1 2.42.69 3.06 3.06 0 0 1-1.68.7c2.26.73 4.18 2 8 2.56-5.64-1.94 1.12.66-1.4-1.65 7-3.3 14.7 1.28 22.34-.44-9 4.27 7.14 1.4 11.32.34a37.8 37.8 0 0 1-6.2.13 36.74 36.74 0 0 1-4.55-.47v-.08l17.59-2.17c7.28.3 14.54 1.17 16.8 1.95 7.25 2.46 17.85 1 28.39 1.89-1.49-.26-2.59-1 2-.35-.13.3-.52.41-1 .43 6.48.64 12.89 2.25 18.46 6.29.22-.37.84-.43 1.73-.32a.74.74 0 0 1 .84.13c4.73.94 15.25 5.09 27.62 4.59a11.71 11.71 0 0 1-5.07-1.85c0-1.06 3.88-.19 1.08-1.22 2.77-1.64 6.69.37 8.93 1.84a7.46 7.46 0 0 1-2.46 1.08 44.7 44.7 0 0 0 3.38-.44l.72.55c7.38 2 8.72-.24 13.55-1.43a3.36 3.36 0 0 0-.36.81 6.15 6.15 0 0 0 2 .23 3 3 0 0 0 .16 1.2c2.95-.47 14.3 1.19 17.06-2.29a55.14 55.14 0 0 0-5.71-.38c10.72-.89 14.8-2.82 25.65-4.68 10.65 1.37 21.26 2.89 31.77 4.8 3.37 4.5 8.08 2.54 12.08 4.21 3.1-7.13 8.27 1.87 12.28-.67-5.65-3.11-13.19-3.92-18.66-8 3.82-1.87 9.2-1.47 12.75-2.17 5.52.69 10.15 5.7 15.84 5.25 6.59-.22 12.24 9.21 18.59 4.32-4.14-12.82-13.63-1.45-20.31-7.21-1.84-3-4.56-1.77-6.7-4a67.77 67.77 0 0 0-8.4-1.67 7.12 7.12 0 0 0 2.44-3.62 9.11 9.11 0 0 0 2.56.32c-.54-1.16-1.69-.43-2.48-.49v-.1a2.25 2.25 0 0 1-.4 0 .81.81 0 0 1-.35-.46l.16-.09h-.17a3.75 3.75 0 0 1 1-.85 7.82 7.82 0 0 0-1 .59 3.75 3.75 0 0 1-.09-.68 21.62 21.62 0 0 1 13.09 4.09q.66 3.09 2.87 3.58c2.43-5.12 7.31-3.69 9.73-8.81a23.45 23.45 0 0 0-7.23-2.78c3-.42 4.88-.76 4.9-.76a1.16 1.16 0 0 1 0-.18 26.51 26.51 0 0 0 6.63 1.65C456.08 198 465 205.13 468 193c5.2 1.06 9.08-3.88 13.77-2.12.26-1.48-.57-2.2-1.17-3.11.51-3 2.77-.62 3.55-2.65.05-.22.07-.38.11-.59a6.66 6.66 0 0 1 .91.49c.24-.44-.45-.73-.86-.74.09-.51.18-1 .22-1.43a1.77 1.77 0 0 1 .61.14c0-.28-.25-.42-.59-.52.56-7.72-8.06.16-10-7.16 3.15-3.9-1.78-1.91-2.36-4.44l.46-.86c.62 0 1.09-.08 1.22-.37l-.62-5.53a11.1 11.1 0 0 1-2.92-.11c-.25-.2-.51-.39-.76-.62.17-1-.48-2.54.39-3.11a121.19 121.19 0 0 1 9.61 8.19 18.33 18.33 0 0 0 1.4 7.62c1.92-4.09 6.76-5.58 7.45-11.65a57.57 57.57 0 0 1-4.42-9.53c6.17-1.42.08-.15 2.72-2.47-4.29-2.78.54.66-3.4.6-.31-.91-.69-1.77-1-2.69l.65-.6a3.06 3.06 0 0 0 1.05-.2 3.12 3.12 0 0 1-.86 0l3.86-3.61c-.37-5-4.29-7.14-5.95-11 1.2-4.82-4.21-7.64-3.32-12.11 2.85 1 8.22.91 7.77-5.52 2.91 0 1.22 4.08 1.89 6.11l4.23-.46c.92-1.71 2.2-3 2.42-4.94l-2.78-2c-1.44-1.78-.25-4.66 1.42-4.84-3.24-9.01 4.45-5.3 5.93-9.17zM59.78 175.64h.69a.7.7 0 0 1 .16.13 4.13 4.13 0 0 0-.85-.13zm3.29-33.58c1.18 2.21 2.11 4.29 1.26 4.48a43.51 43.51 0 0 1-2.39-4.62 6.12 6.12 0 0 0 1.13.14zm7.76 36.87c-4-1.38-7.29-2.45-10-3.29h4.86c-.13-1.62-5.34-2.32-2.6-3.59a10.65 10.65 0 0 0 2.48 1.27 1.29 1.29 0 0 0 .3.75 1.07 1.07 0 0 0-.86.17 5.47 5.47 0 0 0 1.09 0c.53.44 1.5.75 3.39.67a4.32 4.32 0 0 1-.79-.87c.71.12 1.43.25 2.25.32.28 1.25-.06 2.79 1.08 4.45-3.2-1.46-1.2-.03-1.2.12zm2.91-1zm1.13-172.5l-.2.06zM50 16.57c5.66-1.25 12.35-2.23 17.7-2-5.33.9-11.52 1.52-17.7 2zm18.07-7.83c4.49-.3 15.85 2.11 0 0zm14.06.51a27.71 27.71 0 0 1-5.52-1c.89-.06 3.14 0 5.83.08a2.75 2.75 0 0 1-.31.92zM94.7 210.42h.77l.09.05a3 3 0 0 1-.86-.05zM142.24 4.54a5.06 5.06 0 0 1-.58-.25l.54-.9c.56.42.58.81.04 1.15zm21.24 4.72l-3.31.06c.42-.11 2.52-.73 2.47-.76-1.84.55-2.43.74-2.49.76-3.33 0-6.5.06-9.17 0a3.32 3.32 0 0 0-.15-.75c4.57-.34 10.09-.81 14.77-.74a16.48 16.48 0 0 0 1.18 1.33zm7.89 197.6c.27-.14 7.72 0 0 0zm3.52-198c1.33-.87 2.72-1.43 4.52-.25-1.31.1-2.85.18-4.52.26zM184.68 21c.79 0 1.56 0 2.38-.11-.75.01-1.58.04-2.38.11zm3.49.07a42.2 42.2 0 0 1 6.59-.23zm7.25-.11l1-.12zM254 4.18c-.22.14-5.62 0 0 0zm2.79 203.28c-1-.94.25-.34 0 0zm1.87-1.62c2.68.26.07 0 0 0zM361 14.17zm-9.77 0h-.86c.57-.78.03.02.87-.03zm1 198zM334.34 9.48zm-.77 199.18zm-1.39-197.74zm-3.93-1.65c2.19.19.23.3 0 0zm-3.63 200.48c.63 0-3.51.26-2.76.39a7.88 7.88 0 0 0-.88-.51 24.76 24.76 0 0 1 3.64.12zM316.1 7.89c0 .1-3.75-.7 0 0zm-.8 204.74a45.78 45.78 0 0 1-6.9-.41 48.78 48.78 0 0 1 6.9.41zm-8.82-2.63zm.55 2.25l-1.37.44c.11-.63.79-.44 1.34-.47zm-20.17-5.33l1.85.5-7.17-.51c1.88-.06 3.65-.06 5.32-.02zm-12.64-3.5l3.27.9c-2.06-.06-4.12-.16-6.18-.36a29.31 29.31 0 0 0 2.91-.57zm5.19 4.6c-1 .27-2.59-.42-4.15-.15a7.14 7.14 0 0 1 4.15.13zm3.09 1.65c-5.37.08-11.1-1.33-16.6-1.41 4.9-1.26 19.52 1.92 16.6 1.38zm3.9 4.67c-1.72-.73 0 0 0 0zm3.24-5.51c-3-.49 0-.08 0 0zm1.08.19l4.44.19a19.87 19.87 0 0 1-4.44-.21zm2.6 7.55c.46-.23 2.15-.52 0 0zm1.38-.41zm3.33.2c.29 0 5.35-.34 0 0zm4.41-.61c-.2.26-3.32 1.05 0 0zm1.1.79c-1.19-.33 3.08.58 0 0zm10.46-.64c2.56-.21 5.65.91 8.37 1.32.87 1.17-6.09-.42-8.37-1.32zm12.23 1a3.3 3.3 0 0 0 1-.68c.14-.33 5.09.35-1.01.7zm-5.37-1.9c-4.46 2.14-17.36-1.21-21.79-1.56 10.7-1.15 14.4 1 27.58 1.27 13.49.29-4.27.23-5.79.29zm-2.5-2.19c2.2.29 7.49 2.17 0 0zm16 3.82c-2.69-.35-.06 0 0 0zm-9.14-4.06c1.53-.23-12 .44-6.78-1.22 4.49 0 11.94.09 14.74.2q11.69 1.45-7.94 1.05zm13.56 3.83zm-.87-4.08l1.35-.13zm3.59 1.61zm-18.79-3.61c10.19 0 18.36-.08 27.83 0l.67.07zm26.73 1.75h-3.84c1.57-.07 2.6.08 3.86.03zm-.77 1.68l6.55-.3zm8.07-199.66zm2.92 197.37h.19zm-2.07-195.73c.54-.28.36-.54-.53-.8a26.32 26.32 0 0 0 5.2 1 14.41 14.41 0 0 1-4.67-.2zm8.41-3.68c-.8-.33-1.61-.61-2.42-.89 1.23-.36 2.4-.73 3.37-1.05l1.26.55a1.73 1.73 0 0 0 .31 1.54zm47.18 184.23c.43-.13 3.16-.28 0 0zm-6.46-177.62zm2.5 1.24h-4.14c2.19-.12 2.33-1.57 4.14 0zm-1.36 1c-1.29.62-14 .93 0 0zm-6.6.24a6.75 6.75 0 0 1-1.31.77v-.14zm-2.84 1.4h.12c-.38.21-.54.24-.12.02zm-.73 1.66c.23-.08 1.91.27.64.36l-.91-.14zm-1.94-17.46a.19.19 0 0 0 0 .3c-.15-.4-.2-.33 0-.3zM385.82 4l-1.38-.37c-.52.37.89-.93 1.38.37zm-3.9 0c-.15 0-4.21-.73 0 0zm-9.71 8.39a2.25 2.25 0 0 1-1.84.08 3.91 3.91 0 0 0 .69-.15l-1.14-.08c-.09 0-.19-.11-.28-.16a16.78 16.78 0 0 0 1.85 0l.1.05-.53.21 1.15.07zm6.34 3.46c-3.61.16-4.55 0 0 0zm-1.76-3.16l-1.79-.87c2.58-.27 4.82-.62 4.1-.64.53.1-5-.81-7.9-1.07l-.73-.3a15.93 15.93 0 0 1 4.52-.71 129.32 129.32 0 0 0 12.44 4.24c-2.92-.11-6.72-.34-10.64-.61zm14.9-.15c-1.12 0-1.38.29-.78.82h-2.42c-2.77-1.25-5.62-2.71-8.53-4.16 4.43.32 9.05 1 12 1.33.19 1.07-3.25 1.47-.27 2.05zm1.16 0c0-.22.48-1.53 0 0zm-.11-6.33c-3.65-1.23-10.68 0-4.44-1.82.7.66 6.19 1.22 4.44 1.87zm14.71 200.28c-1.95-.07-3.91-.1-5.9-.11a25 25 0 0 0-7.3-2.83q1.1-.34 2.49-.72c-2.14-.26.9-.78 3.07-.78 2.32-.55 4.92-1.11 7.6-1.62a18.51 18.51 0 0 1 1.95 1.22c3.17-.55 6.38.73 9.25 1.64-2.11.71-6.5 2.13-11.16 3.25zm16.45-10c2.17.32 3.4.62 0 .23a1.81 1.81 0 0 1 0-.17zm.37 2.19a13.13 13.13 0 0 1 1.8.26l-1.66-.16s-.11.01-.14-.04zm2.8.92a8.13 8.13 0 0 1-1.47-.21l1.4-.1c.09.05.23.07.3.12a2.33 2.33 0 0 0-.23.25zm4.68-.74a6 6 0 0 1 .24.61l-3.48-.3zm-1.05 1l1.33-.3a6.17 6.17 0 0 1 .34 1.05 3.42 3.42 0 0 0-1.67-.67zm1.52-3.57h-.05l.83-.29a7.58 7.58 0 0 1-.78.37zM106.09 2.6c1.36-.93 1.85-.85 3.52-1L84.94 3.72c-2-.48-1.68-1.48-7.23.79l4.36.18 23.84-1.47a3.9 3.9 0 0 1 .18-.62zM64.78 4.28c1.17.79.19.13 0 0z" fill="{{colors[0]}}"/></svg>