<svg xmlns="http://www.w3.org/2000/svg" preserveAspectRatio="none" viewBox="-4 -4 1080 604">
        
        <path fill="{{colors[1]}}" fill-rule="nonzero" stroke="{{colors[0]}}" stroke-width="8" stroke-linecap="butt" stroke-linejoin="miter" d="M57.17038893699646 90.2281665802002C57.17038893699646 90.2281665802002 423.45595479011536 147.98523902893066 302.53252136707306 1.9998493194580078C302.53252136707306 1.9998493194580078 587.7356382608414 180.0468235015869 633.6236050128937 17.343915939331055C633.6236050128937 17.343915939331055 691.7215397357941 239.9827823638916 848.5775241851807 48.80918884277344C848.5775241851807 48.80918884277344 808.0750168561935 249.63747596740723 1070.5804817676544 178.00717735290527C1070.5804817676544 178.00717735290527 901.6457086801529 292.93382835388184 1054.8779751062393 503.23887634277344C1054.8779751062393 503.23887634277344 825.8056211471558 358.41149711608887 717.8745678663254 594.0245819091797C717.8745678663254 594.0245819091797 482.77211022377014 418.28231048583984 281.8392777442932 583.7951602935791C281.8392777442932 583.7951602935791 315.38128530979156 396.5108184814453 114.81548845767975 505.79613304138184C114.81548845767975 505.79613304138184 184.10193943977356 271.5878219604492 1.002907633781433 257.73394203186035C1.002907633781433 257.73394203186035 174.4023678302765 153.43206024169922 57.17038893699646 90.2281665802002 Z" />
    </svg>