<svg xmlns="http://www.w3.org/2000/svg" preserveAspectRatio="none" viewBox="0 0 45 18">
        
        <path fill="{{colors[0]}}" fill-rule="nonzero" d="M3.6153600215911865 1.9999841451644897C4.507516384124756 1.9999841451644897 5.230747222900391 2.6995431184768677 5.230747222900391 3.562486231327057C5.230747222900391 4.425429344177246 4.507516384124756 5.124988317489624 3.6153600215911865 5.124988317489624C2.723203659057617 5.124988317489624 1.9999728202819824 4.425429344177246 1.9999728202819824 3.562486231327057C1.9999728202819824 2.6995431184768677 2.723203659057617 1.9999841451644897 3.6153600215911865 1.9999841451644897 Z M9.430711030960083 1.9999841451644897C10.322867393493652 1.9999841451644897 11.046098232269287 2.6995431184768677 11.046098232269287 3.562486231327057C11.046098232269287 4.425429344177246 10.322867393493652 5.124988317489624 9.430711030960083 5.124988317489624C8.538554668426514 5.124988317489624 7.815323829650879 4.425429344177246 7.815323829650879 3.562486231327057C7.815323829650879 2.6995431184768677 8.538554668426514 1.9999841451644897 9.430711030960083 1.9999841451644897 Z M15.8922598361969 1.9999841451644897C16.78441619873047 1.9999841451644897 17.507647037506104 2.6995431184768677 17.507647037506104 3.562486231327057C17.507647037506104 4.425429344177246 16.78441619873047 5.124988317489624 15.8922598361969 5.124988317489624C15.00010347366333 5.124988317489624 14.276872634887695 4.425429344177246 14.276872634887695 3.562486231327057C14.276872634887695 2.6995431184768677 15.00010347366333 1.9999841451644897 15.8922598361969 1.9999841451644897 Z M22.353808641433716 1.9999841451644897C23.245965003967285 1.9999841451644897 23.96919584274292 2.6995431184768677 23.96919584274292 3.562486231327057C23.96919584274292 4.425429344177246 23.245965003967285 5.124988317489624 22.353808641433716 5.124988317489624C21.461652278900146 5.124988317489624 20.73842144012451 4.425429344177246 20.73842144012451 3.562486231327057C20.73842144012451 2.6995431184768677 21.461652278900146 1.9999841451644897 22.353808641433716 1.9999841451644897 Z M28.815357446670532 1.9999841451644897C29.7075138092041 1.9999841451644897 30.430744647979736 2.6995431184768677 30.430744647979736 3.562486231327057C30.430744647979736 4.425429344177246 29.7075138092041 5.124988317489624 28.815357446670532 5.124988317489624C27.923201084136963 5.124988317489624 27.199970245361328 4.425429344177246 27.199970245361328 3.562486231327057C27.199970245361328 2.6995431184768677 27.923201084136963 1.9999841451644897 28.815357446670532 1.9999841451644897 Z M35.27690625190735 1.9999841451644897C36.16900897026062 1.9999841451644897 36.892239809036255 2.6995431184768677 36.892239809036255 3.562486231327057C36.892239809036255 4.425429344177246 36.16900897026062 5.124988317489624 35.27690625190735 5.124988317489624C34.38474988937378 5.124988317489624 33.661519050598145 4.425429344177246 33.661519050598145 3.562486231327057C33.661519050598145 2.6995431184768677 34.38474988937378 1.9999841451644897 35.27690625190735 1.9999841451644897 Z M42.38459920883179 1.9999841451644897C43.27670192718506 1.9999841451644897 43.99993276596069 2.6995431184768677 43.99993276596069 3.562486231327057C43.99993276596069 4.425429344177246 43.27670192718506 5.124988317489624 42.38459920883179 5.124988317489624C41.49244284629822 5.124988317489624 40.76921200752258 4.425429344177246 40.76921200752258 3.562486231327057C40.76921200752258 2.6995431184768677 41.49244284629822 1.9999841451644897 42.38459920883179 1.9999841451644897 Z M3.6153600215911865 7.6249688267707825C4.507516384124756 7.6249688267707825 5.230747222900391 8.32452780008316 5.230747222900391 9.18747091293335C5.230747222900391 10.050414025783539 4.507516384124756 10.749972999095917 3.6153600215911865 10.749972999095917C2.723203659057617 10.749972999095917 1.9999728202819824 10.050414025783539 1.9999728202819824 9.18747091293335C1.9999728202819824 8.32452780008316 2.723203659057617 7.6249688267707825 3.6153600215911865 7.6249688267707825 Z M9.430711030960083 7.6249688267707825C10.322867393493652 7.6249688267707825 11.046098232269287 8.32452780008316 11.046098232269287 9.18747091293335C11.046098232269287 10.050414025783539 10.322867393493652 10.749972999095917 9.430711030960083 10.749972999095917C8.538554668426514 10.749972999095917 7.815323829650879 10.050414025783539 7.815323829650879 9.18747091293335C7.815323829650879 8.32452780008316 8.538554668426514 7.6249688267707825 9.430711030960083 7.6249688267707825 Z M15.8922598361969 7.6249688267707825C16.78441619873047 7.6249688267707825 17.507647037506104 8.32452780008316 17.507647037506104 9.18747091293335C17.507647037506104 10.050414025783539 16.78441619873047 10.749972999095917 15.8922598361969 10.749972999095917C15.00010347366333 10.749972999095917 14.276872634887695 10.050414025783539 14.276872634887695 9.18747091293335C14.276872634887695 8.32452780008316 15.00010347366333 7.6249688267707825 15.8922598361969 7.6249688267707825 Z M22.353808641433716 7.6249688267707825C23.245965003967285 7.6249688267707825 23.96919584274292 8.32452780008316 23.96919584274292 9.18747091293335C23.96919584274292 10.050414025783539 23.245965003967285 10.749972999095917 22.353808641433716 10.749972999095917C21.461652278900146 10.749972999095917 20.73842144012451 10.050414025783539 20.73842144012451 9.18747091293335C20.73842144012451 8.32452780008316 21.461652278900146 7.6249688267707825 22.353808641433716 7.6249688267707825 Z M28.815357446670532 7.6249688267707825C29.7075138092041 7.6249688267707825 30.430744647979736 8.32452780008316 30.430744647979736 9.18747091293335C30.430744647979736 10.050414025783539 29.7075138092041 10.749972999095917 28.815357446670532 10.749972999095917C27.923201084136963 10.749972999095917 27.199970245361328 10.050414025783539 27.199970245361328 9.18747091293335C27.199970245361328 8.32452780008316 27.923201084136963 7.6249688267707825 28.815357446670532 7.6249688267707825 Z M35.27690625190735 7.6249688267707825C36.16900897026062 7.6249688267707825 36.892239809036255 8.32452780008316 36.892239809036255 9.18747091293335C36.892239809036255 10.050414025783539 36.16900897026062 10.749972999095917 35.27690625190735 10.749972999095917C34.38474988937378 10.749972999095917 33.661519050598145 10.050414025783539 33.661519050598145 9.18747091293335C33.661519050598145 8.32452780008316 34.38474988937378 7.6249688267707825 35.27690625190735 7.6249688267707825 Z M42.38459920883179 7.6249688267707825C43.27670192718506 7.6249688267707825 43.99993276596069 8.32452780008316 43.99993276596069 9.18747091293335C43.99993276596069 10.050414025783539 43.27670192718506 10.749972999095917 42.38459920883179 10.749972999095917C41.49244284629822 10.749972999095917 40.76921200752258 10.050414025783539 40.76921200752258 9.18747091293335C40.76921200752258 8.32452780008316 41.49244284629822 7.6249688267707825 42.38459920883179 7.6249688267707825 Z M3.6153600215911865 13.874977171421051C4.507516384124756 13.874977171421051 5.230747222900391 14.574536144733429 5.230747222900391 15.437479257583618C5.230747222900391 16.300422370433807 4.507516384124756 16.999981343746185 3.6153600215911865 16.999981343746185C2.723203659057617 16.999981343746185 1.9999728202819824 16.300422370433807 1.9999728202819824 15.437479257583618C1.9999728202819824 14.574536144733429 2.723203659057617 13.874977171421051 3.6153600215911865 13.874977171421051 Z M9.430711030960083 13.874977171421051C10.322867393493652 13.874977171421051 11.046098232269287 14.574536144733429 11.046098232269287 15.437479257583618C11.046098232269287 16.300422370433807 10.322867393493652 16.999981343746185 9.430711030960083 16.999981343746185C8.538554668426514 16.999981343746185 7.815323829650879 16.300422370433807 7.815323829650879 15.437479257583618C7.815323829650879 14.574536144733429 8.538554668426514 13.874977171421051 9.430711030960083 13.874977171421051 Z M15.8922598361969 13.874977171421051C16.78441619873047 13.874977171421051 17.507647037506104 14.574536144733429 17.507647037506104 15.437479257583618C17.507647037506104 16.300422370433807 16.78441619873047 16.999981343746185 15.8922598361969 16.999981343746185C15.00010347366333 16.999981343746185 14.276872634887695 16.300422370433807 14.276872634887695 15.437479257583618C14.276872634887695 14.574536144733429 15.00010347366333 13.874977171421051 15.8922598361969 13.874977171421051 Z M22.353808641433716 13.874977171421051C23.245965003967285 13.874977171421051 23.96919584274292 14.574536144733429 23.96919584274292 15.437479257583618C23.96919584274292 16.300422370433807 23.245965003967285 16.999981343746185 22.353808641433716 16.999981343746185C21.461652278900146 16.999981343746185 20.73842144012451 16.300422370433807 20.73842144012451 15.437479257583618C20.73842144012451 14.574536144733429 21.461652278900146 13.874977171421051 22.353808641433716 13.874977171421051 Z M28.815357446670532 13.874977171421051C29.7075138092041 13.874977171421051 30.430744647979736 14.574536144733429 30.430744647979736 15.437479257583618C30.430744647979736 16.300422370433807 29.7075138092041 16.999981343746185 28.815357446670532 16.999981343746185C27.923201084136963 16.999981343746185 27.199970245361328 16.300422370433807 27.199970245361328 15.437479257583618C27.199970245361328 14.574536144733429 27.923201084136963 13.874977171421051 28.815357446670532 13.874977171421051 Z M35.27690625190735 13.874977171421051C36.16900897026062 13.874977171421051 36.892239809036255 14.574536144733429 36.892239809036255 15.437479257583618C36.892239809036255 16.300422370433807 36.16900897026062 16.999981343746185 35.27690625190735 16.999981343746185C34.38474988937378 16.999981343746185 33.661519050598145 16.300422370433807 33.661519050598145 15.437479257583618C33.661519050598145 14.574536144733429 34.38474988937378 13.874977171421051 35.27690625190735 13.874977171421051 Z M42.38459920883179 13.874977171421051C43.27670192718506 13.874977171421051 43.99993276596069 14.574536144733429 43.99993276596069 15.437479257583618C43.99993276596069 16.300422370433807 43.27670192718506 16.999981343746185 42.38459920883179 16.999981343746185C41.49244284629822 16.999981343746185 40.76921200752258 16.300422370433807 40.76921200752258 15.437479257583618C40.76921200752258 14.574536144733429 41.49244284629822 13.874977171421051 42.38459920883179 13.874977171421051 Z" />
    </svg>