<svg xmlns="http://www.w3.org/2000/svg" preserveAspectRatio="none" viewBox="-4 -4 1080 603">
        
        <path fill="{{colors[1]}}" fill-rule="nonzero" stroke="{{colors[0]}}" stroke-width="8" stroke-linecap="butt" stroke-linejoin="miter" d="M57.586288809776306 90.20345306396484C57.586288809776306 90.20345306396484 423.8718546628952 147.9605255126953 302.9484212398529 1.9751358032226562C302.9484212398529 1.9751358032226562 588.1518342494965 180.02210998535156 634.03972697258 17.319202423095703C634.03972697258 17.319202423095703 692.1373655796051 239.95806884765625 848.993646144867 48.784475326538086C848.993646144867 48.784475326538086 808.4909167289734 249.61289405822754 1070.996529698372 177.98246383666992C1070.996529698372 177.98246383666992 902.0616825819016 292.9091148376465 1055.2940230369568 503.2141628265381C1055.2940230369568 503.2141628265381 826.221743106842 358.3869152069092 718.290541768074 593.9998683929443C718.290541768074 593.9998683929443 483.1882321834564 418.2575969696045 282.2553997039795 583.7704467773438C282.2553997039795 583.7704467773438 315.7972592115402 396.4862365722656 115.23168444633484 505.7714195251465C115.23168444633484 505.7714195251465 184.5178393125534 271.56324005126953 1.4190295934677124 257.709228515625C1.4190295934677124 257.709228515625 174.81848978996277 153.40734672546387 57.586288809776306 90.20345306396484 Z" />
    </svg>