<svg xmlns="http://www.w3.org/2000/svg" preserveAspectRatio="none" viewBox="1.0132923126220703 1.773197054862976 159.95396375656128 123.84935539960861">
        
        <path fill="{{colors[1]}}" fill-rule="nonzero" stroke="{{colors[0]}}" stroke-width="6.35" stroke-linecap="butt" stroke-linejoin="miter" d="M51.249135971069336 36.53989005088806C51.249135971069336 36.53989005088806 51.90890574455261 12.073474705219269 51.90890574455261 12.073474705219269C51.90890574455261 12.073474705219269 80.34611487388611 18.17135339975357 80.34611487388611 18.17135339975357C80.34611487388611 18.17135339975357 102.03145289421082 1.9238428473472595 102.03145289421082 1.9238428473472595C102.03145289421082 1.9238428473472595 106.16532707214355 16.09308522939682 106.16532707214355 16.09308522939682C106.16532707214355 16.09308522939682 131.90096163749695 1.773197054862976 131.90096163749695 1.773197054862976C131.90096163749695 1.773197054862976 126.53815293312073 24.995842933654785 126.53815293312073 24.995842933654785C126.53815293312073 24.995842933654785 142.2589554786682 31.19359666109085 142.2589554786682 31.19359666109085C142.2589554786682 31.19359666109085 134.5310821533203 48.881932973861694 134.5310821533203 48.881932973861694C134.5310821533203 48.881932973861694 150.16342544555664 54.63487184047699 150.16342544555664 54.63487184047699C150.16342544555664 54.63487184047699 139.1802623271942 62.68797266483307 139.1802623271942 62.68797266483307C139.1802623271942 62.68797266483307 160.96725606918335 71.00739169120789 160.96725606918335 71.00739169120789C160.96725606918335 71.00739169120789 119.73070645332336 78.98328626155853 119.73070645332336 78.98328626155853C119.73070645332336 78.98328626155853 106.50312447547913 124.15889811515808 106.50312447547913 124.15889811515808C106.50312447547913 124.15889811515808 99.53045392036438 94.27138012647629 99.53045392036438 94.27138012647629C99.53045392036438 94.27138012647629 91.75768041610718 102.65207105875015 91.75768041610718 102.65207105875015C91.75768041610718 102.65207105875015 80.74442291259766 100.75494766235352 80.74442291259766 100.75494766235352C80.74442291259766 100.75494766235352 47.81606936454773 125.62255245447159 47.81606936454773 125.62255245447159C47.81606936454773 125.62255245447159 48.77259874343872 111.40473085641861 48.77259874343872 111.40473085641861C48.77259874343872 111.40473085641861 18.6356201171875 112.06856310367584 18.6356201171875 112.06856310367584C18.6356201171875 112.06856310367584 18.443520307540894 96.59140294790268 18.443520307540894 96.59140294790268C18.443520307540894 96.59140294790268 1.0132923126220703 87.71663308143616 1.0132923126220703 87.71663308143616C1.0132923126220703 87.71663308143616 16.78720259666443 69.29349046945572 16.78720259666443 69.29349046945572C16.78720259666443 69.29349046945572 8.371718168258667 50.95579522848129 8.371718168258667 50.95579522848129C8.371718168258667 50.95579522848129 27.834470510482788 46.6387739777565 27.834470510482788 46.6387739777565C27.834470510482788 46.6387739777565 24.517650842666626 30.757159888744354 24.517650842666626 30.757159888744354C24.517650842666626 30.757159888744354 51.249135971069336 36.53989005088806 51.249135971069336 36.53989005088806 Z" />
    </svg>