<svg xmlns="http://www.w3.org/2000/svg" preserveAspectRatio="none" viewBox="0 0 45 18">
        
        <path fill="{{colors[0]}}" fill-rule="nonzero" d="M3.6153151988983154 1.999966323375702C4.507471561431885 1.999966323375702 5.2307024002075195 2.69952529668808 5.2307024002075195 3.562468409538269C5.2307024002075195 4.425411522388458 4.507471561431885 5.124970495700836 3.6153151988983154 5.124970495700836C2.723212480545044 5.124970495700836 1.9999279975891113 4.425411522388458 1.9999279975891113 3.562468409538269C1.9999279975891113 2.69952529668808 2.723212480545044 1.999966323375702 3.6153151988983154 1.999966323375702 Z M9.43071985244751 1.999966323375702C10.322876214981079 1.999966323375702 11.046107053756714 2.69952529668808 11.046107053756714 3.562468409538269C11.046107053756714 4.425411522388458 10.322876214981079 5.124970495700836 9.43071985244751 5.124970495700836C8.53856348991394 5.124970495700836 7.815332651138306 4.425411522388458 7.815332651138306 3.562468409538269C7.815332651138306 2.69952529668808 8.53856348991394 1.999966323375702 9.43071985244751 1.999966323375702 Z M15.892268657684326 1.999966323375702C16.784425020217896 1.999966323375702 17.50765585899353 2.69952529668808 17.50765585899353 3.562468409538269C17.50765585899353 4.425411522388458 16.784425020217896 5.124970495700836 15.892268657684326 5.124970495700836C15.000112295150757 5.124970495700836 14.276881456375122 4.425411522388458 14.276881456375122 3.562468409538269C14.276881456375122 2.69952529668808 15.000112295150757 1.999966323375702 15.892268657684326 1.999966323375702 Z M22.353817462921143 1.999966323375702C23.245973825454712 1.999966323375702 23.969204664230347 2.69952529668808 23.969204664230347 3.562468409538269C23.969204664230347 4.425411522388458 23.245973825454712 5.124970495700836 22.353817462921143 5.124970495700836C21.461661100387573 5.124970495700836 20.73843026161194 4.425411522388458 20.73843026161194 3.562468409538269C20.73843026161194 2.69952529668808 21.461661100387573 1.999966323375702 22.353817462921143 1.999966323375702 Z M28.81531262397766 1.999966323375702C29.70746898651123 1.999966323375702 30.430699825286865 2.69952529668808 30.430699825286865 3.562468409538269C30.430699825286865 4.425411522388458 29.70746898651123 5.124970495700836 28.81531262397766 5.124970495700836C27.92320990562439 5.124970495700836 27.199979066848755 4.425411522388458 27.199979066848755 3.562468409538269C27.199979066848755 2.69952529668808 27.92320990562439 1.999966323375702 28.81531262397766 1.999966323375702 Z M35.27686142921448 1.999966323375702C36.16901779174805 1.999966323375702 36.89224863052368 2.69952529668808 36.89224863052368 3.562468409538269C36.89224863052368 4.425411522388458 36.16901779174805 5.124970495700836 35.27686142921448 5.124970495700836C34.38470506668091 5.124970495700836 33.66147422790527 4.425411522388458 33.66147422790527 3.562468409538269C33.66147422790527 2.69952529668808 34.38470506668091 1.999966323375702 35.27686142921448 1.999966323375702 Z M42.384554386138916 1.999966323375702C43.276710748672485 1.999966323375702 43.99994158744812 2.69952529668808 43.99994158744812 3.562468409538269C43.99994158744812 4.425411522388458 43.276710748672485 5.124970495700836 42.384554386138916 5.124970495700836C41.49239802360535 5.124970495700836 40.76916718482971 4.425411522388458 40.76916718482971 3.562468409538269C40.76916718482971 2.69952529668808 41.49239802360535 1.999966323375702 42.384554386138916 1.999966323375702 Z M3.6153151988983154 7.624973833560944C4.507471561431885 7.624973833560944 5.2307024002075195 8.324532806873322 5.2307024002075195 9.18747591972351C5.2307024002075195 10.0504190325737 4.507471561431885 10.749978005886078 3.6153151988983154 10.749978005886078C2.723212480545044 10.749978005886078 1.9999279975891113 10.0504190325737 1.9999279975891113 9.18747591972351C1.9999279975891113 8.324532806873322 2.723212480545044 7.624973833560944 3.6153151988983154 7.624973833560944 Z M9.43071985244751 7.624973833560944C10.322876214981079 7.624973833560944 11.046107053756714 8.324532806873322 11.046107053756714 9.18747591972351C11.046107053756714 10.0504190325737 10.322876214981079 10.749978005886078 9.43071985244751 10.749978005886078C8.53856348991394 10.749978005886078 7.815332651138306 10.0504190325737 7.815332651138306 9.18747591972351C7.815332651138306 8.324532806873322 8.53856348991394 7.624973833560944 9.43071985244751 7.624973833560944 Z M15.892268657684326 7.624973833560944C16.784425020217896 7.624973833560944 17.50765585899353 8.324532806873322 17.50765585899353 9.18747591972351C17.50765585899353 10.0504190325737 16.784425020217896 10.749978005886078 15.892268657684326 10.749978005886078C15.000112295150757 10.749978005886078 14.276881456375122 10.0504190325737 14.276881456375122 9.18747591972351C14.276881456375122 8.324532806873322 15.000112295150757 7.624973833560944 15.892268657684326 7.624973833560944 Z M22.353817462921143 7.624973833560944C23.245973825454712 7.624973833560944 23.969204664230347 8.324532806873322 23.969204664230347 9.18747591972351C23.969204664230347 10.0504190325737 23.245973825454712 10.749978005886078 22.353817462921143 10.749978005886078C21.461661100387573 10.749978005886078 20.73843026161194 10.0504190325737 20.73843026161194 9.18747591972351C20.73843026161194 8.324532806873322 21.461661100387573 7.624973833560944 22.353817462921143 7.624973833560944 Z M28.81531262397766 7.624973833560944C29.70746898651123 7.624973833560944 30.430699825286865 8.324532806873322 30.430699825286865 9.18747591972351C30.430699825286865 10.0504190325737 29.70746898651123 10.749978005886078 28.81531262397766 10.749978005886078C27.92320990562439 10.749978005886078 27.199979066848755 10.0504190325737 27.199979066848755 9.18747591972351C27.199979066848755 8.324532806873322 27.92320990562439 7.624973833560944 28.81531262397766 7.624973833560944 Z M35.27686142921448 7.624973833560944C36.16901779174805 7.624973833560944 36.89224863052368 8.324532806873322 36.89224863052368 9.18747591972351C36.89224863052368 10.0504190325737 36.16901779174805 10.749978005886078 35.27686142921448 10.749978005886078C34.38470506668091 10.749978005886078 33.66147422790527 10.0504190325737 33.66147422790527 9.18747591972351C33.66147422790527 8.324532806873322 34.38470506668091 7.624973833560944 35.27686142921448 7.624973833560944 Z M42.384554386138916 7.624973833560944C43.276710748672485 7.624973833560944 43.99994158744812 8.324532806873322 43.99994158744812 9.18747591972351C43.99994158744812 10.0504190325737 43.276710748672485 10.749978005886078 42.384554386138916 10.749978005886078C41.49239802360535 10.749978005886078 40.76916718482971 10.0504190325737 40.76916718482971 9.18747591972351C40.76916718482971 8.324532806873322 41.49239802360535 7.624973833560944 42.384554386138916 7.624973833560944 Z M3.6153151988983154 13.874982178211212C4.507471561431885 13.874982178211212 5.2307024002075195 14.57454115152359 5.2307024002075195 15.43748426437378C5.2307024002075195 16.30042737722397 4.507471561431885 16.999986350536346 3.6153151988983154 16.999986350536346C2.723212480545044 16.999986350536346 1.9999279975891113 16.30042737722397 1.9999279975891113 15.43748426437378C1.9999279975891113 14.57454115152359 2.723212480545044 13.874982178211212 3.6153151988983154 13.874982178211212 Z M9.43071985244751 13.874982178211212C10.322876214981079 13.874982178211212 11.046107053756714 14.57454115152359 11.046107053756714 15.43748426437378C11.046107053756714 16.30042737722397 10.322876214981079 16.999986350536346 9.43071985244751 16.999986350536346C8.53856348991394 16.999986350536346 7.815332651138306 16.30042737722397 7.815332651138306 15.43748426437378C7.815332651138306 14.57454115152359 8.53856348991394 13.874982178211212 9.43071985244751 13.874982178211212 Z M15.892268657684326 13.874982178211212C16.784425020217896 13.874982178211212 17.50765585899353 14.57454115152359 17.50765585899353 15.43748426437378C17.50765585899353 16.30042737722397 16.784425020217896 16.999986350536346 15.892268657684326 16.999986350536346C15.000112295150757 16.999986350536346 14.276881456375122 16.30042737722397 14.276881456375122 15.43748426437378C14.276881456375122 14.57454115152359 15.000112295150757 13.874982178211212 15.892268657684326 13.874982178211212 Z M22.353817462921143 13.874982178211212C23.245973825454712 13.874982178211212 23.969204664230347 14.57454115152359 23.969204664230347 15.43748426437378C23.969204664230347 16.30042737722397 23.245973825454712 16.999986350536346 22.353817462921143 16.999986350536346C21.461661100387573 16.999986350536346 20.73843026161194 16.30042737722397 20.73843026161194 15.43748426437378C20.73843026161194 14.57454115152359 21.461661100387573 13.874982178211212 22.353817462921143 13.874982178211212 Z M28.81531262397766 13.874982178211212C29.70746898651123 13.874982178211212 30.430699825286865 14.57454115152359 30.430699825286865 15.43748426437378C30.430699825286865 16.30042737722397 29.70746898651123 16.999986350536346 28.81531262397766 16.999986350536346C27.92320990562439 16.999986350536346 27.199979066848755 16.30042737722397 27.199979066848755 15.43748426437378C27.199979066848755 14.57454115152359 27.92320990562439 13.874982178211212 28.81531262397766 13.874982178211212 Z M35.27686142921448 13.874982178211212C36.16901779174805 13.874982178211212 36.89224863052368 14.57454115152359 36.89224863052368 15.43748426437378C36.89224863052368 16.30042737722397 36.16901779174805 16.999986350536346 35.27686142921448 16.999986350536346C34.38470506668091 16.999986350536346 33.66147422790527 16.30042737722397 33.66147422790527 15.43748426437378C33.66147422790527 14.57454115152359 34.38470506668091 13.874982178211212 35.27686142921448 13.874982178211212 Z M42.384554386138916 13.874982178211212C43.276710748672485 13.874982178211212 43.99994158744812 14.57454115152359 43.99994158744812 15.43748426437378C43.99994158744812 16.30042737722397 43.276710748672485 16.999986350536346 42.384554386138916 16.999986350536346C41.49239802360535 16.999986350536346 40.76916718482971 16.30042737722397 40.76916718482971 15.43748426437378C40.76916718482971 14.57454115152359 41.49239802360535 13.874982178211212 42.384554386138916 13.874982178211212 Z" />
    </svg>