<svg xmlns="http://www.w3.org/2000/svg" preserveAspectRatio="none" viewBox="1.54 1.047 131.991 134.382"><path fill="{{colors[0]}}" d="M23.674 130.82l81.51-128.738 4.61-1.035L24.71 135.429l-1.035-4.608zM88.944 5.73l4.61-1.035L21.06 119.189l-1.035-4.609L88.943 5.73zM72.482 9.427l4.61-1.035-59.73 94.337-1.034-4.609L72.483 9.427zm-16.46 3.698l4.61-1.036-46.967 74.18-1.035-4.609 43.392-68.535zm-16.46 3.697l4.61-1.036L9.97 69.808 8.934 65.2l30.629-48.378zm-16.677 3.746l4.608-1.035L6.222 53.128l-1.034-4.607 17.698-27.953zM6.643 24.216l4.61-1.035-8.678 13.707L1.54 32.28l5.103-8.064zM37.656 132.52l75.047-118.525 1.035 4.61-71.474 112.88-4.608 1.035zm17.559-3.944l61.432-97.023 1.034 4.608-57.858 91.38-4.608 1.035zm17.665-3.968l47.735-75.39 1.035 4.611-44.159 69.744-4.61 1.035zm17.559-3.944l34.12-53.887 1.034 4.608-30.546 48.244-4.608 1.035zm17.775-3.992l20.338-32.117 1.035 4.608-16.762 26.473-4.61 1.036zm17.559-3.944l6.722-10.617 1.035 4.608-3.15 4.974-4.607 1.035z"/></svg>