<svg xmlns="http://www.w3.org/2000/svg" preserveAspectRatio="none" viewBox="1.855224609375 1.5895423889160156 39.191463470458984 37.44318771362305">
        
        
        <path fill="{{colors[1]}}"  fill-rule="evenodd" stroke="{{colors[0]}}" stroke-width="3" stroke-linecap="round" stroke-linejoin="round" d="M21.450956344604492 3.0895423889160156C21.450956344604492 3.0895423889160156 27.4155216217041 13.913793563842773 27.4155216217041 13.913793563842773C27.4155216217041 13.913793563842773 39.546688079833984 16.245670318603516 39.546688079833984 16.245670318603516C39.546688079833984 16.245670318603516 31.10199737548828 25.26747703552246 31.10199737548828 25.26747703552246C31.10199737548828 25.26747703552246 32.63488578796387 37.53273010253906 32.63488578796387 37.53273010253906C32.63488578796387 37.53273010253906 21.450956344604492 32.28365898132324 21.450956344604492 32.28365898132324C21.450956344604492 32.28365898132324 10.266883850097656 37.53273010253906 10.266883850097656 37.53273010253906C10.266883850097656 37.53273010253906 11.799724578857422 25.26747703552246 11.799724578857422 25.26747703552246C11.799724578857422 25.26747703552246 3.355224609375 16.245670318603516 3.355224609375 16.245670318603516C3.355224609375 16.245670318603516 15.486200332641602 13.913793563842773 15.486200332641602 13.913793563842773C15.486200332641602 13.913793563842773 21.450956344604492 3.0895423889160156 21.450956344604492 3.0895423889160156" />
    </svg>