<svg xmlns="http://www.w3.org/2000/svg" preserveAspectRatio="none" viewBox="1.3307437896728516 1.2837982177734375 48.23930549621582 46.05400848388672">
        
        
        <path fill="{{colors[1]}}"  fill-rule="evenodd" stroke="{{colors[0]}}" stroke-width="3" stroke-linecap="round" stroke-linejoin="round" d="M25.450420379638672 2.7837982177734375C25.450420379638672 2.7837982177734375 32.90610313415527 16.31410026550293 32.90610313415527 16.31410026550293C32.90610313415527 16.31410026550293 48.07004928588867 19.229005813598633 48.07004928588867 19.229005813598633C48.07004928588867 19.229005813598633 37.51420974731445 30.50620460510254 37.51420974731445 30.50620460510254C37.51420974731445 30.50620460510254 39.43028450012207 45.837806701660156 39.43028450012207 45.837806701660156C39.43028450012207 45.837806701660156 25.450420379638672 39.276432037353516 25.450420379638672 39.276432037353516C25.450420379638672 39.276432037353516 11.470317840576172 45.837806701660156 11.470317840576172 45.837806701660156C11.470317840576172 45.837806701660156 13.386392593383789 30.50620460510254 13.386392593383789 30.50620460510254C13.386392593383789 30.50620460510254 2.8307437896728516 19.229005813598633 2.8307437896728516 19.229005813598633C2.8307437896728516 19.229005813598633 17.99449920654297 16.31410026550293 17.99449920654297 16.31410026550293C17.99449920654297 16.31410026550293 25.450420379638672 2.7837982177734375 25.450420379638672 2.7837982177734375" />
    </svg>