<svg xmlns="http://www.w3.org/2000/svg" preserveAspectRatio="none" viewBox="1.3673877716064453 1.2837982177734375 48.23930549621582 46.05400848388672">
        
        
        <path fill="{{colors[1]}}"  fill-rule="evenodd" stroke="{{colors[0]}}" stroke-width="3" stroke-linecap="round" stroke-linejoin="round" d="M25.487064361572266 2.7837982177734375C25.487064361572266 2.7837982177734375 18.031333923339844 16.31410026550293 18.031333923339844 16.31410026550293C18.031333923339844 16.31410026550293 2.8673877716064453 19.229005813598633 2.8673877716064453 19.229005813598633C2.8673877716064453 19.229005813598633 13.423227310180664 30.50620460510254 13.423227310180664 30.50620460510254C13.423227310180664 30.50620460510254 11.507152557373047 45.837806701660156 11.507152557373047 45.837806701660156C11.507152557373047 45.837806701660156 25.487064361572266 39.276432037353516 25.487064361572266 39.276432037353516C25.487064361572266 39.276432037353516 39.467119216918945 45.837806701660156 39.467119216918945 45.837806701660156C39.467119216918945 45.837806701660156 37.55104446411133 30.50620460510254 37.55104446411133 30.50620460510254C37.55104446411133 30.50620460510254 48.106693267822266 19.229005813598633 48.106693267822266 19.229005813598633C48.106693267822266 19.229005813598633 32.94298553466797 16.31410026550293 32.94298553466797 16.31410026550293C32.94298553466797 16.31410026550293 25.487064361572266 2.7837982177734375 25.487064361572266 2.7837982177734375" />
    </svg>