<svg xmlns="http://www.w3.org/2000/svg" preserveAspectRatio="none" viewBox="1.8907966613769531 1.5895423889160156 39.191415786743164 37.44318771362305">
        
        
        <path fill="{{colors[1]}}"  fill-rule="evenodd" stroke="{{colors[0]}}" stroke-width="3" stroke-linecap="round" stroke-linejoin="round" d="M21.486528396606445 3.0895423889160156C21.486528396606445 3.0895423889160156 15.521963119506836 13.913793563842773 15.521963119506836 13.913793563842773C15.521963119506836 13.913793563842773 3.390796661376953 16.245670318603516 3.390796661376953 16.245670318603516C3.390796661376953 16.245670318603516 11.835439682006836 25.26747703552246 11.835439682006836 25.26747703552246C11.835439682006836 25.26747703552246 10.30259895324707 37.53273010253906 10.30259895324707 37.53273010253906C10.30259895324707 37.53273010253906 21.486528396606445 32.28365898132324 21.486528396606445 32.28365898132324C21.486528396606445 32.28365898132324 32.67060089111328 37.53273010253906 32.67060089111328 37.53273010253906C32.67060089111328 37.53273010253906 31.137712478637695 25.26747703552246 31.137712478637695 25.26747703552246C31.137712478637695 25.26747703552246 39.58221244812012 16.245670318603516 39.58221244812012 16.245670318603516C39.58221244812012 16.245670318603516 27.451236724853516 13.913793563842773 27.451236724853516 13.913793563842773C27.451236724853516 13.913793563842773 21.486528396606445 3.0895423889160156 21.486528396606445 3.0895423889160156" />
    </svg>