<svg xmlns="http://www.w3.org/2000/svg" preserveAspectRatio="none" viewBox="1.1428413391113281 1.1534919738769531 82.70366477966309 73.69296836853027">
        
        
        <path fill="{{colors[1]}}"  fill-rule="nonzero" stroke="{{colors[0]}}" stroke-width="3" stroke-linecap="round" stroke-linejoin="round" d="M29.179210662841797 2.653491973876953C29.179210662841797 2.653491973876953 64.82235908508301 2.653491973876953 64.82235908508301 2.653491973876953C74.50067520141602 2.653491973876953 82.34650611877441 10.499465942382812 82.34650611877441 20.178020477294922C82.34650611877441 20.178020477294922 82.34650611877441 55.82193183898926 82.34650611877441 55.82193183898926C82.34650611877441 65.50048637390137 74.50067520141602 73.34646034240723 64.82235908508301 73.34646034240723C64.82235908508301 73.34646034240723 29.179210662841797 73.34646034240723 29.179210662841797 73.34646034240723C19.50094223022461 73.34646034240723 11.655111312866211 65.50048637390137 11.655111312866211 55.82193183898926C11.655111312866211 55.82193183898926 11.655111312866211 55.33508110046387 11.655111312866211 51.44785690307617C11.655111312866211 50.01143264770508 2.642841339111328 44.621503829956055 2.642841339111328 42.92873191833496C2.642841339111328 41.31473350524902 11.655111312866211 37.92976188659668 11.655111312866211 36.2142448425293C11.655111312866211 26.832378387451172 11.655111312866211 20.178020477294922 11.655111312866211 20.178020477294922C11.655111312866211 10.499465942382812 19.50094223022461 2.653491973876953 29.179210662841797 2.653491973876953 Z" />
    </svg>