<svg xmlns="http://www.w3.org/2000/svg" preserveAspectRatio="none" viewBox="-0.2097275761339028 1.8580474361866264 23.582394674603368 47.61638046342795">

    
        
        <path fill="{{colors[1]}}"  fill-rule="nonzero" stroke="{{colors[0]}}" stroke-width="4" stroke-linejoin="round" d="M5.362281084060669 34.80111759901047C3.8919477462768555 26.874509930610657 2.726206064224243 1.5969951748847961 15.236404418945312 4.021139144897461C23.637673139572144 5.649113595485687 25.555828094482422 16.108643412590027 7.0443480014801025 35.24828380346298C6.2981038093566895 36.019866943359375 5.4542272090911865 35.2969086766243 5.362281084060669 34.80111759901047 Z M6.374171257019043 39.911249339580536C8.571544170379639 40.2415332198143 10.100027799606323 42.19161891937256 9.788086891174316 44.26694220304489C9.476199626922607 46.342242658138275 7.441958665847778 47.756861209869385 5.244532108306885 47.42657732963562C3.047212839126587 47.096293449401855 1.5187292098999023 45.1462077498436 1.8306701183319092 43.070907294750214C2.142557382583618 40.99558401107788 4.176798343658447 39.58096545934677 6.374171257019043 39.911249339580536 Z" /><path fill="{{colors[1]}}"  fill-rule="nonzero" stroke="{{colors[0]}}" stroke-linejoin="round" d="M5.362281084060669 34.80111759901047C3.8919477462768555 26.874509930610657 2.726206064224243 1.5969951748847961 15.236404418945312 4.021139144897461C23.637673139572144 5.649113595485687 25.555828094482422 16.108643412590027 7.0443480014801025 35.24828380346298C6.2981038093566895 36.019866943359375 5.4542272090911865 35.2969086766243 5.362281084060669 34.80111759901047 Z M6.374171257019043 39.911249339580536C8.571544170379639 40.2415332198143 10.100027799606323 42.19161891937256 9.788086891174316 44.26694220304489C9.476199626922607 46.342242658138275 7.441958665847778 47.756861209869385 5.244532108306885 47.42657732963562C3.047212839126587 47.096293449401855 1.5187292098999023 45.1462077498436 1.8306701183319092 43.070907294750214C2.142557382583618 40.99558401107788 4.176798343658447 39.58096545934677 6.374171257019043 39.911249339580536 Z" />

    </svg>