<svg xmlns="http://www.w3.org/2000/svg" preserveAspectRatio="none" viewBox="1.712 1.711 85.566 78.586"><path fill="{{colors[1]}}" fill-rule="evenodd" stroke="{{colors[0]}}" stroke-width="4" d="M55.763 5.134c1.095-.361 2.326-.651 3.613-.98 7.939-1.798 18.926 1.723 23.938 13.556l1.292 4.046c2.702 11.798-2.25 28.979-24.024 55.398-.752.958-2 1.344-3.23 1.044C24.291 69.39 10.335 58.304 5.65 47.164l-1.292-4.046c-2.82-12.555 4.06-21.85 11.63-24.984a39.95 39.95 0 0 1 3.527-1.34c8.954-2.859 14.364-.743 20.948 2.891 3.161-6.806 6.386-11.636 15.3-14.55"/></svg>