<svg xmlns="http://www.w3.org/2000/svg" preserveAspectRatio="none" viewBox="-0.8177893161773682 -0.15763550996780396 26.554481029510498 25.82446390390396">

    
        
        <path fill="{{colors[1]}}"  fill-rule="nonzero" stroke="{{colors[0]}}" stroke-width="4" stroke-linejoin="round" d="M20.140332221984863 22.919055461883545C20.140332221984863 22.919055461883545 13.016224145889282 20.415034294128418 13.016224145889282 20.415034294128418C13.016224145889282 20.415034294128418 6.200891971588135 23.666828393936157 6.200891971588135 23.666828393936157C6.200891971588135 23.666828393936157 6.380868196487427 16.117622792720795 6.380868196487427 16.117622792720795C6.380868196487427 16.117622792720795 1.1822106838226318 10.640704274177551 1.1822106838226318 10.640704274177551C1.1822106838226318 10.640704274177551 8.41752314567566 8.479066133499146 8.41752314567566 8.479066133499146C8.41752314567566 8.479066133499146 12.019890785217285 1.842364490032196 12.019890785217285 1.842364490032196C12.019890785217285 1.842364490032196 16.311586141586304 8.055573165416718 16.311586141586304 8.055573165416718C16.311586141586304 8.055573165416718 23.73669171333313 9.430789589881897 23.73669171333313 9.430789589881897C23.73669171333313 9.430789589881897 19.153762102127075 15.432422995567322 19.153762102127075 15.432422995567322C19.153762102127075 15.432422995567322 20.140332221984863 22.919055461883545 20.140332221984863 22.919055461883545 Z" /><path fill="{{colors[1]}}"  fill-rule="nonzero" stroke="{{colors[0]}}" stroke-linejoin="round" d="M20.140332221984863 22.919055461883545C20.140332221984863 22.919055461883545 13.016224145889282 20.415034294128418 13.016224145889282 20.415034294128418C13.016224145889282 20.415034294128418 6.200891971588135 23.666828393936157 6.200891971588135 23.666828393936157C6.200891971588135 23.666828393936157 6.380868196487427 16.117622792720795 6.380868196487427 16.117622792720795C6.380868196487427 16.117622792720795 1.1822106838226318 10.640704274177551 1.1822106838226318 10.640704274177551C1.1822106838226318 10.640704274177551 8.41752314567566 8.479066133499146 8.41752314567566 8.479066133499146C8.41752314567566 8.479066133499146 12.019890785217285 1.842364490032196 12.019890785217285 1.842364490032196C12.019890785217285 1.842364490032196 16.311586141586304 8.055573165416718 16.311586141586304 8.055573165416718C16.311586141586304 8.055573165416718 23.73669171333313 9.430789589881897 23.73669171333313 9.430789589881897C23.73669171333313 9.430789589881897 19.153762102127075 15.432422995567322 19.153762102127075 15.432422995567322C19.153762102127075 15.432422995567322 20.140332221984863 22.919055461883545 20.140332221984863 22.919055461883545 Z" />

    </svg>