<svg xmlns="http://www.w3.org/2000/svg" preserveAspectRatio="none" viewBox="1.9818925857543945 1.6362859010696411 68.16077828407288 18.323701322078705">

    
        
        <path fill="{{colors[0]}}"  fill-rule="nonzero" d="M1.9818925857543945 1.6362859010696411C1.9818925857543945 1.6362859010696411 12.558540105819702 1.6362859010696411 12.558540105819702 1.6362859010696411C12.558540105819702 1.6362859010696411 19.022127389907837 10.803809463977814 19.022127389907837 10.803809463977814C19.022127389907837 10.803809463977814 12.558540105819702 19.959987223148346 12.558540105819702 19.959987223148346C12.558540105819702 19.959987223148346 1.9818925857543945 19.959987223148346 1.9818925857543945 19.959987223148346C1.9818925857543945 19.959987223148346 8.445426225662231 10.859579682350159 8.445426225662231 10.859579682350159C8.445426225662231 10.859579682350159 1.9818925857543945 1.6362859010696411 1.9818925857543945 1.6362859010696411 Z M19.022127389907837 1.6362859010696411C19.022127389907837 1.6362859010696411 29.598774909973145 1.6362859010696411 29.598774909973145 1.6362859010696411C29.598774909973145 1.6362859010696411 36.06230854988098 10.803809463977814 36.06230854988098 10.803809463977814C36.06230854988098 10.803809463977814 29.598774909973145 19.959987223148346 29.598774909973145 19.959987223148346C29.598774909973145 19.959987223148346 19.022127389907837 19.959987223148346 19.022127389907837 19.959987223148346C19.022127389907837 19.959987223148346 25.485607385635376 10.859579682350159 25.485607385635376 10.859579682350159C25.485607385635376 10.859579682350159 19.022127389907837 1.6362859010696411 19.022127389907837 1.6362859010696411 Z M36.06230854988098 1.6362859010696411C36.06230854988098 1.6362859010696411 46.63895606994629 1.6362859010696411 46.63895606994629 1.6362859010696411C46.63895606994629 1.6362859010696411 53.102489709854126 10.803809463977814 53.102489709854126 10.803809463977814C53.102489709854126 10.803809463977814 46.63895606994629 19.959987223148346 46.63895606994629 19.959987223148346C46.63895606994629 19.959987223148346 36.06230854988098 19.959987223148346 36.06230854988098 19.959987223148346C36.06230854988098 19.959987223148346 42.52584218978882 10.859579682350159 42.52584218978882 10.859579682350159C42.52584218978882 10.859579682350159 36.06230854988098 1.6362859010696411 36.06230854988098 1.6362859010696411 Z M53.102489709854126 1.6362859010696411C53.102489709854126 1.6362859010696411 63.67919087409973 1.6362859010696411 63.67919087409973 1.6362859010696411C63.67919087409973 1.6362859010696411 70.14267086982727 10.803809463977814 70.14267086982727 10.803809463977814C70.14267086982727 10.803809463977814 63.67919087409973 19.959987223148346 63.67919087409973 19.959987223148346C63.67919087409973 19.959987223148346 53.102489709854126 19.959987223148346 53.102489709854126 19.959987223148346C53.102489709854126 19.959987223148346 59.56602334976196 10.859579682350159 59.56602334976196 10.859579682350159C59.56602334976196 10.859579682350159 53.102489709854126 1.6362859010696411 53.102489709854126 1.6362859010696411 Z" />

    </svg>