<svg xmlns="http://www.w3.org/2000/svg" preserveAspectRatio="none" viewBox="1.0112247467041016 1.986959457397461 745.9774971008301 202.02603340148926">
        
        <clipPath id="clipPath"><path d="M1.0112247467041016 20.647981643676758C1.0112247467041016 20.647981643676758 746.9887218475342 20.647981643676758 746.9887218475342 20.647981643676758C746.9887218475342 20.647981643676758 746.9887218475342 29.572847366333008 746.9887218475342 29.572847366333008C746.9887218475342 29.572847366333008 1.0112247467041016 29.572847366333008 1.0112247467041016 29.572847366333008C1.0112247467041016 29.572847366333008 1.0112247467041016 20.647981643676758 1.0112247467041016 20.647981643676758 Z M1.0112247467041016 9.289100646972656C1.0112247467041016 9.289100646972656 746.9887218475342 9.289100646972656 746.9887218475342 9.289100646972656C746.9887218475342 9.289100646972656 746.9887218475342 14.968564987182617 746.9887218475342 14.968564987182617C746.9887218475342 14.968564987182617 1.0112247467041016 14.968564987182617 1.0112247467041016 14.968564987182617C1.0112247467041016 14.968564987182617 1.0112247467041016 9.289100646972656 1.0112247467041016 9.289100646972656 Z M1.0112247467041016 1.986959457397461C1.0112247467041016 1.986959457397461 746.9887218475342 1.986959457397461 746.9887218475342 1.986959457397461C746.9887218475342 1.986959457397461 746.9887218475342 4.421022415161133 746.9887218475342 4.421022415161133C746.9887218475342 4.421022415161133 1.0112247467041016 4.421022415161133 1.0112247467041016 4.421022415161133C1.0112247467041016 4.421022415161133 1.0112247467041016 1.986959457397461 1.0112247467041016 1.986959457397461 Z M1.0112247467041016 185.35197067260742C1.0112247467041016 185.35197067260742 746.9887218475342 185.35197067260742 746.9887218475342 185.35197067260742C746.9887218475342 185.35197067260742 746.9887218475342 176.42710494995117 746.9887218475342 176.42710494995117C746.9887218475342 176.42710494995117 1.0112247467041016 176.42710494995117 1.0112247467041016 176.42710494995117C1.0112247467041016 176.42710494995117 1.0112247467041016 185.35197067260742 1.0112247467041016 185.35197067260742 Z M1.0112247467041016 196.71085166931152C1.0112247467041016 196.71085166931152 746.9887218475342 196.71085166931152 746.9887218475342 196.71085166931152C746.9887218475342 196.71085166931152 746.9887218475342 191.03138732910156 746.9887218475342 191.03138732910156C746.9887218475342 191.03138732910156 1.0112247467041016 191.03138732910156 1.0112247467041016 191.03138732910156C1.0112247467041016 191.03138732910156 1.0112247467041016 196.71085166931152 1.0112247467041016 196.71085166931152 Z M1.0112247467041016 204.01299285888672C1.0112247467041016 204.01299285888672 746.9887218475342 204.01299285888672 746.9887218475342 204.01299285888672C746.9887218475342 204.01299285888672 746.9887218475342 201.57892990112305 746.9887218475342 201.57892990112305C746.9887218475342 201.57892990112305 1.0112247467041016 201.57892990112305 1.0112247467041016 201.57892990112305C1.0112247467041016 201.57892990112305 1.0112247467041016 204.01299285888672 1.0112247467041016 204.01299285888672 Z" /></clipPath>
        <path fill="{{colors[1]}}"  fill-rule="nonzero" clip-path="url(#clipPath)" d="M1.0112247467041016 20.647981643676758C1.0112247467041016 20.647981643676758 746.9887218475342 20.647981643676758 746.9887218475342 20.647981643676758C746.9887218475342 20.647981643676758 746.9887218475342 29.572847366333008 746.9887218475342 29.572847366333008C746.9887218475342 29.572847366333008 1.0112247467041016 29.572847366333008 1.0112247467041016 29.572847366333008C1.0112247467041016 29.572847366333008 1.0112247467041016 20.647981643676758 1.0112247467041016 20.647981643676758 Z M1.0112247467041016 9.289100646972656C1.0112247467041016 9.289100646972656 746.9887218475342 9.289100646972656 746.9887218475342 9.289100646972656C746.9887218475342 9.289100646972656 746.9887218475342 14.968564987182617 746.9887218475342 14.968564987182617C746.9887218475342 14.968564987182617 1.0112247467041016 14.968564987182617 1.0112247467041016 14.968564987182617C1.0112247467041016 14.968564987182617 1.0112247467041016 9.289100646972656 1.0112247467041016 9.289100646972656 Z M1.0112247467041016 1.986959457397461C1.0112247467041016 1.986959457397461 746.9887218475342 1.986959457397461 746.9887218475342 1.986959457397461C746.9887218475342 1.986959457397461 746.9887218475342 4.421022415161133 746.9887218475342 4.421022415161133C746.9887218475342 4.421022415161133 1.0112247467041016 4.421022415161133 1.0112247467041016 4.421022415161133C1.0112247467041016 4.421022415161133 1.0112247467041016 1.986959457397461 1.0112247467041016 1.986959457397461 Z M1.0112247467041016 185.35197067260742C1.0112247467041016 185.35197067260742 746.9887218475342 185.35197067260742 746.9887218475342 185.35197067260742C746.9887218475342 185.35197067260742 746.9887218475342 176.42710494995117 746.9887218475342 176.42710494995117C746.9887218475342 176.42710494995117 1.0112247467041016 176.42710494995117 1.0112247467041016 176.42710494995117C1.0112247467041016 176.42710494995117 1.0112247467041016 185.35197067260742 1.0112247467041016 185.35197067260742 Z M1.0112247467041016 196.71085166931152C1.0112247467041016 196.71085166931152 746.9887218475342 196.71085166931152 746.9887218475342 196.71085166931152C746.9887218475342 196.71085166931152 746.9887218475342 191.03138732910156 746.9887218475342 191.03138732910156C746.9887218475342 191.03138732910156 1.0112247467041016 191.03138732910156 1.0112247467041016 191.03138732910156C1.0112247467041016 191.03138732910156 1.0112247467041016 196.71085166931152 1.0112247467041016 196.71085166931152 Z M1.0112247467041016 204.01299285888672C1.0112247467041016 204.01299285888672 746.9887218475342 204.01299285888672 746.9887218475342 204.01299285888672C746.9887218475342 204.01299285888672 746.9887218475342 201.57892990112305 746.9887218475342 201.57892990112305C746.9887218475342 201.57892990112305 1.0112247467041016 201.57892990112305 1.0112247467041016 201.57892990112305C1.0112247467041016 201.57892990112305 1.0112247467041016 204.01299285888672 1.0112247467041016 204.01299285888672 Z" />
    </svg>