<svg xmlns="http://www.w3.org/2000/svg" preserveAspectRatio="none" viewBox="1.4141674041748047 1.8952388763427734 30.143573760986328 28.832414627075195">
        
        
        <path fill="{{colors[1]}}"  fill-rule="evenodd" stroke="{{colors[0]}}" stroke-width="3" stroke-linecap="round" stroke-linejoin="round" d="M16.48595428466797 3.3952388763427734C16.48595428466797 3.3952388763427734 12.012554168701172 11.513439178466797 12.012554168701172 11.513439178466797C12.012554168701172 11.513439178466797 2.9141674041748047 13.262382507324219 2.9141674041748047 13.262382507324219C2.9141674041748047 13.262382507324219 9.247661590576172 20.028701782226562 9.247661590576172 20.028701782226562C9.247661590576172 20.028701782226562 8.098007202148438 29.22765350341797 8.098007202148438 29.22765350341797C8.098007202148438 29.22765350341797 16.48595428466797 25.29083824157715 16.48595428466797 25.29083824157715C16.48595428466797 25.29083824157715 24.87404441833496 29.22765350341797 24.87404441833496 29.22765350341797C24.87404441833496 29.22765350341797 23.724390029907227 20.028701782226562 23.724390029907227 20.028701782226562C23.724390029907227 20.028701782226562 30.057741165161133 13.262382507324219 30.057741165161133 13.262382507324219C30.057741165161133 13.262382507324219 20.959545135498047 11.513439178466797 20.959545135498047 11.513439178466797C20.959545135498047 11.513439178466797 16.48595428466797 3.3952388763427734 16.48595428466797 3.3952388763427734" />
    </svg>