<svg xmlns="http://www.w3.org/2000/svg" preserveAspectRatio="none" viewBox="1.3796958923339844 1.8952388763427734 30.143573760986328 28.832414627075195">
        
        
        <path fill="{{colors[1]}}"  fill-rule="evenodd" stroke="{{colors[0]}}" stroke-width="3" stroke-linecap="round" stroke-linejoin="round" d="M16.45148277282715 3.3952388763427734C16.45148277282715 3.3952388763427734 20.924882888793945 11.513439178466797 20.924882888793945 11.513439178466797C20.924882888793945 11.513439178466797 30.023269653320312 13.262382507324219 30.023269653320312 13.262382507324219C30.023269653320312 13.262382507324219 23.689775466918945 20.028701782226562 23.689775466918945 20.028701782226562C23.689775466918945 20.028701782226562 24.83942985534668 29.22765350341797 24.83942985534668 29.22765350341797C24.83942985534668 29.22765350341797 16.45148277282715 25.29083824157715 16.45148277282715 25.29083824157715C16.45148277282715 25.29083824157715 8.063440322875977 29.22765350341797 8.063440322875977 29.22765350341797C8.063440322875977 29.22765350341797 9.213094711303711 20.028701782226562 9.213094711303711 20.028701782226562C9.213094711303711 20.028701782226562 2.8796958923339844 13.262382507324219 2.8796958923339844 13.262382507324219C2.8796958923339844 13.262382507324219 11.97793960571289 11.513439178466797 11.97793960571289 11.513439178466797C11.97793960571289 11.513439178466797 16.45148277282715 3.3952388763427734 16.45148277282715 3.3952388763427734" />
    </svg>