<svg xmlns="http://www.w3.org/2000/svg" preserveAspectRatio="none" viewBox="1.68 1.788 66.05 56.56"><path fill="{{colors[1]}}" fill-rule="evenodd" stroke="{{colors[0]}}" stroke-width="4" d="M48.295 3.8c.86-.034 1.805.01 2.797.037 6.075.336 13.28 5.067 14.518 14.488l.12 3.137c-.417 8.928-7.423 20.126-28.39 34.47-.734.529-1.709.55-2.535.086C12.768 43.051 4.941 32.344 3.8 23.481l-.12-3.136c.483-9.49 7.299-14.696 13.377-15.385a30.133 30.133 0 0 1 2.807-.236c7.018-.213 10.49 2.388 14.501 6.306 3.64-4.193 6.928-6.969 13.93-7.23"/></svg>