<svg xmlns="http://www.w3.org/2000/svg" preserveAspectRatio="none" viewBox="-0.2504401206970215 -0.036152660846710205 25.096861362457275 24.538073480129242">

    
        
        <path fill="{{colors[1]}}"  fill-rule="nonzero" stroke="{{colors[0]}}" stroke-width="4" stroke-linejoin="round" d="M22.846421241760254 14.071395099163055C22.846421241760254 14.071395099163055 16.110106945037842 16.223856151103973 16.110106945037842 16.223856151103973C16.110106945037842 16.223856151103973 12.854924440383911 22.50192081928253 12.854924440383911 22.50192081928253C12.854924440383911 22.50192081928253 8.726253747940063 16.76048755645752 8.726253747940063 16.76048755645752C8.726253747940063 16.76048755645752 1.7495598793029785 15.604653775691986 1.7495598793029785 15.604653775691986C1.7495598793029785 15.604653775691986 5.9341278076171875 9.90380972623825 5.9341278076171875 9.90380972623825C5.9341278076171875 9.90380972623825 4.877444744110107 2.911438822746277 4.877444744110107 2.911438822746277C4.877444744110107 2.911438822746277 11.592408657073975 5.129554867744446 11.592408657073975 5.129554867744446C11.592408657073975 5.129554867744446 17.915984630584717 1.9638473391532898 17.915984630584717 1.9638473391532898C17.915984630584717 1.9638473391532898 17.8814914226532 9.03554755449295 17.8814914226532 9.03554755449295C17.8814914226532 9.03554755449295 22.846421241760254 14.071395099163055 22.846421241760254 14.071395099163055 Z" /><path fill="{{colors[1]}}"  fill-rule="nonzero" stroke="{{colors[0]}}" stroke-linejoin="round" d="M22.846421241760254 14.071395099163055C22.846421241760254 14.071395099163055 16.110106945037842 16.223856151103973 16.110106945037842 16.223856151103973C16.110106945037842 16.223856151103973 12.854924440383911 22.50192081928253 12.854924440383911 22.50192081928253C12.854924440383911 22.50192081928253 8.726253747940063 16.76048755645752 8.726253747940063 16.76048755645752C8.726253747940063 16.76048755645752 1.7495598793029785 15.604653775691986 1.7495598793029785 15.604653775691986C1.7495598793029785 15.604653775691986 5.9341278076171875 9.90380972623825 5.9341278076171875 9.90380972623825C5.9341278076171875 9.90380972623825 4.877444744110107 2.911438822746277 4.877444744110107 2.911438822746277C4.877444744110107 2.911438822746277 11.592408657073975 5.129554867744446 11.592408657073975 5.129554867744446C11.592408657073975 5.129554867744446 17.915984630584717 1.9638473391532898 17.915984630584717 1.9638473391532898C17.915984630584717 1.9638473391532898 17.8814914226532 9.03554755449295 17.8814914226532 9.03554755449295C17.8814914226532 9.03554755449295 22.846421241760254 14.071395099163055 22.846421241760254 14.071395099163055 Z" />

    </svg>