<svg xmlns="http://www.w3.org/2000/svg" preserveAspectRatio="none" viewBox="1.992809772491455 1.9967983961105347 137.00278401374817 39.01159876585007">

    <defs>undefined<clipPath id="clipPath"><path stroke-linecap="butt" stroke-linejoin="miter" d="M1.992809772491455 1.9967983961105347C1.992809772491455 1.9967983961105347 117.25468039512634 1.9967983961105347 117.25468039512634 1.9967983961105347C117.25468039512634 1.9967983961105347 138.99559378623962 20.320408403873444 138.99559378623962 20.320408403873444C138.99559378623962 20.320408403873444 117.25468039512634 41.0083971619606 117.25468039512634 41.0083971619606C117.25468039512634 41.0083971619606 1.992809772491455 41.0083971619606 1.992809772491455 41.0083971619606C1.992809772491455 41.0083971619606 1.992809772491455 1.9967983961105347 1.992809772491455 1.9967983961105347 Z" /></clipPath></defs>
        
        <path fill="{{colors[1]}}"  fill-rule="nonzero" stroke="{{colors[0]}}" stroke-width="4" stroke-linecap="butt" stroke-linejoin="miter" clip-path="url(#clipPath)" d="M1.992809772491455 1.9967983961105347C1.992809772491455 1.9967983961105347 117.25468039512634 1.9967983961105347 117.25468039512634 1.9967983961105347C117.25468039512634 1.9967983961105347 138.99559378623962 20.320408403873444 138.99559378623962 20.320408403873444C138.99559378623962 20.320408403873444 117.25468039512634 41.0083971619606 117.25468039512634 41.0083971619606C117.25468039512634 41.0083971619606 1.992809772491455 41.0083971619606 1.992809772491455 41.0083971619606C1.992809772491455 41.0083971619606 1.992809772491455 1.9967983961105347 1.992809772491455 1.9967983961105347 Z" />

    </svg>