<svg xmlns="http://www.w3.org/2000/svg" preserveAspectRatio="none" viewBox="-0.6005680561065674 -0.831831157207489 26.554481029510498 25.82446390390396">

    
        
        <path fill="{{colors[1]}}"  fill-rule="nonzero" stroke="{{colors[0]}}" stroke-width="4" stroke-linejoin="round" d="M20.357553482055664 22.24485981464386C20.357553482055664 22.24485981464386 13.233391761779785 19.740838646888733 13.233391761779785 19.740838646888733C13.233391761779785 19.740838646888733 6.418059587478638 22.992632746696472 6.418059587478638 22.992632746696472C6.418059587478638 22.992632746696472 6.5980894565582275 15.443449974060059 6.5980894565582275 15.443449974060059C6.5980894565582275 15.443449974060059 1.3994319438934326 9.966508626937866 1.3994319438934326 9.966508626937866C1.3994319438934326 9.966508626937866 8.63474440574646 7.8048704862594604 8.63474440574646 7.8048704862594604C8.63474440574646 7.8048704862594604 12.237112045288086 1.168168842792511 12.237112045288086 1.168168842792511C12.237112045288086 1.168168842792511 16.528807401657104 7.3814003467559814 16.528807401657104 7.3814003467559814C16.528807401657104 7.3814003467559814 23.95391297340393 8.756616771221161 23.95391297340393 8.756616771221161C23.95391297340393 8.756616771221161 19.370983362197876 14.758250176906586 19.370983362197876 14.758250176906586C19.370983362197876 14.758250176906586 20.357553482055664 22.24485981464386 20.357553482055664 22.24485981464386 Z" /><path fill="{{colors[1]}}"  fill-rule="nonzero" stroke="{{colors[0]}}" stroke-linejoin="round" d="M20.357553482055664 22.24485981464386C20.357553482055664 22.24485981464386 13.233391761779785 19.740838646888733 13.233391761779785 19.740838646888733C13.233391761779785 19.740838646888733 6.418059587478638 22.992632746696472 6.418059587478638 22.992632746696472C6.418059587478638 22.992632746696472 6.5980894565582275 15.443449974060059 6.5980894565582275 15.443449974060059C6.5980894565582275 15.443449974060059 1.3994319438934326 9.966508626937866 1.3994319438934326 9.966508626937866C1.3994319438934326 9.966508626937866 8.63474440574646 7.8048704862594604 8.63474440574646 7.8048704862594604C8.63474440574646 7.8048704862594604 12.237112045288086 1.168168842792511 12.237112045288086 1.168168842792511C12.237112045288086 1.168168842792511 16.528807401657104 7.3814003467559814 16.528807401657104 7.3814003467559814C16.528807401657104 7.3814003467559814 23.95391297340393 8.756616771221161 23.95391297340393 8.756616771221161C23.95391297340393 8.756616771221161 19.370983362197876 14.758250176906586 19.370983362197876 14.758250176906586C19.370983362197876 14.758250176906586 20.357553482055664 22.24485981464386 20.357553482055664 22.24485981464386 Z" />

    </svg>