<svg xmlns="http://www.w3.org/2000/svg" preserveAspectRatio="none" viewBox="-0.4018650203894625 1.6262805387535852 23.58236299991465 47.61638057928631">

    
        
        <path fill="{{colors[1]}}"  fill-rule="nonzero" stroke="{{colors[0]}}" stroke-width="4" stroke-linejoin="round" d="M5.170089960098267 34.569328010082245C3.699756622314453 26.642720341682434 2.534014940261841 1.3652284145355225 15.04421329498291 3.7893723845481873C23.44548201560974 5.417346835136414 25.363690614700317 15.876853823661804 6.852210521697998 35.01649421453476C6.105912685394287 35.7881001830101 5.262036085128784 35.065119087696075 5.170089960098267 34.569328010082245 Z M6.181980133056641 39.67948257923126C8.379406690597534 40.00976645946503 9.907890319824219 41.959852159023285 9.595949411392212 44.03515261411667C9.284008502960205 46.110475897789 7.249821186065674 47.52509444952011 5.052448272705078 47.194810569286346C2.8550753593444824 46.86452668905258 1.3265917301177979 44.914440989494324 1.6385326385498047 42.83914053440094C1.9504199028015137 40.76381725072861 3.9846608638763428 39.3491986989975 6.181980133056641 39.67948257923126 Z" /><path fill="{{colors[1]}}"  fill-rule="nonzero" stroke="{{colors[0]}}" stroke-linejoin="round" d="M5.170089960098267 34.569328010082245C3.699756622314453 26.642720341682434 2.534014940261841 1.3652284145355225 15.04421329498291 3.7893723845481873C23.44548201560974 5.417346835136414 25.363690614700317 15.876853823661804 6.852210521697998 35.01649421453476C6.105912685394287 35.7881001830101 5.262036085128784 35.065119087696075 5.170089960098267 34.569328010082245 Z M6.181980133056641 39.67948257923126C8.379406690597534 40.00976645946503 9.907890319824219 41.959852159023285 9.595949411392212 44.03515261411667C9.284008502960205 46.110475897789 7.249821186065674 47.52509444952011 5.052448272705078 47.194810569286346C2.8550753593444824 46.86452668905258 1.3265917301177979 44.914440989494324 1.6385326385498047 42.83914053440094C1.9504199028015137 40.76381725072861 3.9846608638763428 39.3491986989975 6.181980133056641 39.67948257923126 Z" />

    </svg>