<svg xmlns="http://www.w3.org/2000/svg" preserveAspectRatio="none" viewBox="1.999603271484375 1.699981689453125 520.458545865792 120.60001182556152">
        
        
        <path fill="{{colors[1]}}"  fill-rule="nonzero" stroke="{{colors[0]}}" stroke-width="3" stroke-linecap="round" stroke-linejoin="round" d="M3.499603271484375 11.199974060058594C3.499603271484375 6.781696319580078 7.081317901611328 3.199981689453125 11.499595642089844 3.199981689453125C11.499595642089844 3.199981689453125 512.9270553588867 3.199981689453125 512.9270553588867 3.199981689453125C515.7514572143555 3.199981689453125 518.1604385375977 4.522489547729492 519.6766376495361 6.905435562133789C521.1928367614746 9.288333892822266 521.3702201843262 12.030767440795898 520.1736927032471 14.589189529418945C520.1736927032471 14.589189529418945 501.9627094268799 53.52699661254883 501.9627094268799 53.52699661254883C499.35622215270996 59.10007858276367 499.35622215270996 64.89984893798828 501.9627094268799 70.47293090820312C501.9627094268799 70.47293090820312 520.1736927032471 109.41078567504883 520.1736927032471 109.41078567504883C521.3702201843262 111.96920776367188 521.1928367614746 114.71159362792969 519.6766376495361 117.09453964233398C518.1604385375977 119.47748565673828 515.7514572143555 120.79999351501465 512.9270553588867 120.79999351501465C512.9270553588867 120.79999351501465 13.499641418457031 120.79999351501465 13.499641418457031 120.79999351501465C7.976770401000977 120.79999351501465 3.499603271484375 116.32282638549805 3.499603271484375 110.79995536804199C3.499603271484375 110.79995536804199 3.499603271484375 11.199974060058594 3.499603271484375 11.199974060058594 Z" />
    </svg>