<svg xmlns="http://www.w3.org/2000/svg" preserveAspectRatio="none" viewBox="1.874953269958496 1.9999931454658508 22.625023126602173 277.5624870657921">

    
        
        <path fill="{{colors[0]}}"  fill-rule="nonzero" d="M2.2676286697387695 192.99997878074646C2.2676286697387695 192.99997878074646 24.49997639656067 192.99997878074646 24.49997639656067 192.99997878074646C24.49997639656067 192.99997878074646 24.49997639656067 195.56248676776886 24.49997639656067 195.56248676776886C24.49997639656067 195.56248676776886 2.2676286697387695 195.56248676776886 2.2676286697387695 195.56248676776886C2.2676286697387695 195.56248676776886 2.2676286697387695 192.99997878074646 2.2676286697387695 192.99997878074646 Z M9.999954462051392 213.9999885559082C9.999954462051392 213.9999885559082 24.49997639656067 213.9999885559082 24.49997639656067 213.9999885559082C24.49997639656067 213.9999885559082 24.49997639656067 216.5624965429306 24.49997639656067 216.5624965429306C24.49997639656067 216.5624965429306 9.999954462051392 216.5624965429306 9.999954462051392 216.5624965429306C9.999954462051392 216.5624965429306 9.999954462051392 213.9999885559082 9.999954462051392 213.9999885559082 Z M9.999954462051392 234.99999833106995C9.999954462051392 234.99999833106995 24.49997639656067 234.99999833106995 24.49997639656067 234.99999833106995C24.49997639656067 234.99999833106995 24.49997639656067 237.5624834895134 24.49997639656067 237.5624834895134C24.49997639656067 237.5624834895134 9.999954462051392 237.5624834895134 9.999954462051392 237.5624834895134C9.999954462051392 237.5624834895134 9.999954462051392 234.99999833106995 9.999954462051392 234.99999833106995 Z M9.999954462051392 129.99999511241913C9.999954462051392 129.99999511241913 24.49997639656067 129.99999511241913 24.49997639656067 129.99999511241913C24.49997639656067 129.99999511241913 24.49997639656067 132.56248027086258 24.49997639656067 132.56248027086258C24.49997639656067 132.56248027086258 9.999954462051392 132.56248027086258 9.999954462051392 132.56248027086258C9.999954462051392 132.56248027086258 9.999954462051392 129.99999511241913 9.999954462051392 129.99999511241913 Z M9.999954462051392 150.99998205900192C9.999954462051392 150.99998205900192 24.49997639656067 150.99998205900192 24.49997639656067 150.99998205900192C24.49997639656067 150.99998205900192 24.49997639656067 153.56249004602432 24.49997639656067 153.56249004602432C24.49997639656067 153.56249004602432 9.999954462051392 153.56249004602432 9.999954462051392 153.56249004602432C9.999954462051392 153.56249004602432 9.999954462051392 150.99998205900192 9.999954462051392 150.99998205900192 Z M9.999954462051392 171.99999183416367C9.999954462051392 171.99999183416367 24.49997639656067 171.99999183416367 24.49997639656067 171.99999183416367C24.49997639656067 171.99999183416367 24.49997639656067 174.56249982118607 24.49997639656067 174.56249982118607C24.49997639656067 174.56249982118607 9.999954462051392 174.56249982118607 9.999954462051392 174.56249982118607C9.999954462051392 174.56249982118607 9.999954462051392 171.99999183416367 9.999954462051392 171.99999183416367 Z M1.874953269958496 108.99998533725739C1.874953269958496 108.99998533725739 24.49997639656067 108.99998533725739 24.49997639656067 108.99998533725739C24.49997639656067 108.99998533725739 24.49997639656067 111.56249332427979 24.49997639656067 111.56249332427979C24.49997639656067 111.56249332427979 1.874953269958496 111.56249332427979 1.874953269958496 111.56249332427979C1.874953269958496 111.56249332427979 1.874953269958496 108.99998533725739 1.874953269958496 108.99998533725739 Z M9.999954462051392 45.999978840351105C9.999954462051392 45.999978840351105 24.49997639656067 45.999978840351105 24.49997639656067 45.999978840351105C24.49997639656067 45.999978840351105 24.49997639656067 48.562486827373505 24.49997639656067 48.562486827373505C24.49997639656067 48.562486827373505 9.999954462051392 48.562486827373505 9.999954462051392 48.562486827373505C9.999954462051392 48.562486827373505 9.999954462051392 45.999978840351105 9.999954462051392 45.999978840351105 Z M9.999954462051392 66.99998861551285C9.999954462051392 66.99998861551285 24.49997639656067 66.99998861551285 24.49997639656067 66.99998861551285C24.49997639656067 66.99998861551285 24.49997639656067 69.56249660253525 24.49997639656067 69.56249660253525C24.49997639656067 69.56249660253525 9.999954462051392 69.56249660253525 9.999954462051392 69.56249660253525C9.999954462051392 69.56249660253525 9.999954462051392 66.99998861551285 9.999954462051392 66.99998861551285 Z M9.999954462051392 1.9999931454658508C9.999954462051392 1.9999931454658508 24.49997639656067 1.9999931454658508 24.49997639656067 1.9999931454658508C24.49997639656067 1.9999931454658508 24.49997639656067 4.562478303909302 24.49997639656067 4.562478303909302C24.49997639656067 4.562478303909302 9.999954462051392 4.562478303909302 9.999954462051392 4.562478303909302C9.999954462051392 4.562478303909302 9.999954462051392 1.9999931454658508 9.999954462051392 1.9999931454658508 Z M9.999954462051392 22.999980092048645C9.999954462051392 22.999980092048645 24.49997639656067 22.999980092048645 24.49997639656067 22.999980092048645C24.49997639656067 22.999980092048645 24.49997639656067 25.562488079071045 24.49997639656067 25.562488079071045C24.49997639656067 25.562488079071045 9.999954462051392 25.562488079071045 9.999954462051392 25.562488079071045C9.999954462051392 25.562488079071045 9.999954462051392 22.999980092048645 9.999954462051392 22.999980092048645 Z M9.999954462051392 87.99999839067459C9.999954462051392 87.99999839067459 24.49997639656067 87.99999839067459 24.49997639656067 87.99999839067459C24.49997639656067 87.99999839067459 24.49997639656067 90.56248354911804 24.49997639656067 90.56248354911804C24.49997639656067 90.56248354911804 9.999954462051392 90.56248354911804 9.999954462051392 90.56248354911804C9.999954462051392 90.56248354911804 9.999954462051392 87.99999839067459 9.999954462051392 87.99999839067459 Z M9.999954462051392 255.99998527765274C9.999954462051392 255.99998527765274 24.49997639656067 255.99998527765274 24.49997639656067 255.99998527765274C24.49997639656067 255.99998527765274 24.49997639656067 258.56249326467514 24.49997639656067 258.56249326467514C24.49997639656067 258.56249326467514 9.999954462051392 258.56249326467514 9.999954462051392 258.56249326467514C9.999954462051392 258.56249326467514 9.999954462051392 255.99998527765274 9.999954462051392 255.99998527765274 Z M1.999997854232788 276.9999950528145C1.999997854232788 276.9999950528145 24.49997639656067 276.9999950528145 24.49997639656067 276.9999950528145C24.49997639656067 276.9999950528145 24.49997639656067 279.56248021125793 24.49997639656067 279.56248021125793C24.49997639656067 279.56248021125793 1.999997854232788 279.56248021125793 1.999997854232788 279.56248021125793C1.999997854232788 279.56248021125793 1.999997854232788 276.9999950528145 1.999997854232788 276.9999950528145 Z" />

    </svg>