<svg xmlns="http://www.w3.org/2000/svg" preserveAspectRatio="none" viewBox="0.4999450445175171 0.4997997283935547 714.3128249645233 172.05123710632324">

    <defs>undefined<filter id="shadow"><feDropShadow dx="0" dy="10"  stdDeviation="2.23606797749979" flood-color="#EBAFA8"/></filter></defs>
        
        <g filter="url(#shadow)"><path fill="{{colors[1]}}"  fill-rule="nonzero" d="M713.3127700090408 125.92297744750977C713.3127700090408 150.8464584350586 693.1082656383514 171.0510368347168 668.1847106218338 171.0510368347168C649.307249546051 171.0510368347168 633.1520557403564 159.45395469665527 626.4205275774002 142.99978256225586C626.4205275774002 142.99978256225586 88.89218747615814 142.99978256225586 88.89218747615814 142.99978256225586C82.1606593132019 159.45395469665527 66.00546550750732 171.0510368347168 47.12800443172455 171.0510368347168C22.20444941520691 171.0510368347168 1.999945044517517 150.8464584350586 1.999945044517517 125.92297744750977C1.999945044517517 108.9914665222168 11.329815983772278 94.2463436126709 25.12363374233246 86.52535247802734C11.329815983772278 78.80449295043945 1.999945044517517 64.05937004089355 1.999945044517517 47.127859115600586C1.999945044517517 22.204378128051758 22.20444941520691 1.9997997283935547 47.12800443172455 1.9997997283935547C66.36576449871063 1.9997997283935547 82.77369320392609 14.045003890991211 89.26433110237122 30.99980926513672C89.26433110237122 30.99980926513672 626.0483099222183 30.99980926513672 626.0483099222183 30.99980926513672C632.5390218496323 14.045003890991211 648.9469505548477 1.9997997283935547 668.1847106218338 1.9997997283935547C693.1082656383514 1.9997997283935547 713.3127700090408 22.204378128051758 713.3127700090408 47.127859115600586C713.3127700090408 64.05937004089355 703.9828990697861 78.80449295043945 690.1890813112259 86.52535247802734C703.9828990697861 94.2463436126709 713.3127700090408 108.9914665222168 713.3127700090408 125.92297744750977 Z" /></g>

    </svg>