<svg xmlns="http://www.w3.org/2000/svg" preserveAspectRatio="none" viewBox="-1.7028541564941406 -1.3526288270950317 365.07397270202637 83.07964670658112">

    
        
        <path fill="{{colors[1]}}"  fill-rule="nonzero" stroke="{{colors[0]}}" stroke-width="6" stroke-linejoin="round" d="M1.2971458435058594 10.016236901283264C1.2971458435058594 10.016236901283264 322.75973534584045 1.6473711729049683 322.75973534584045 1.6473711729049683C322.75973534584045 1.6473711729049683 360.3711185455322 38.35453903675079 360.3711185455322 38.35453903675079C360.3711185455322 38.35453903675079 322.5211796760559 70.41088616847992 322.5211796760559 70.41088616847992C322.5211796760559 70.41088616847992 3.0859646797180176 78.72701787948608 3.0859646797180176 78.72701787948608C3.0859646797180176 78.72701787948608 1.2971458435058594 10.016236901283264 1.2971458435058594 10.016236901283264 Z" /><path fill="{{colors[1]}}"  fill-rule="nonzero" stroke="{{colors[0]}}" stroke-linejoin="round" d="M1.2971458435058594 10.016236901283264C1.2971458435058594 10.016236901283264 322.75973534584045 1.6473711729049683 322.75973534584045 1.6473711729049683C322.75973534584045 1.6473711729049683 360.3711185455322 38.35453903675079 360.3711185455322 38.35453903675079C360.3711185455322 38.35453903675079 322.5211796760559 70.41088616847992 322.5211796760559 70.41088616847992C322.5211796760559 70.41088616847992 3.0859646797180176 78.72701787948608 3.0859646797180176 78.72701787948608C3.0859646797180176 78.72701787948608 1.2971458435058594 10.016236901283264 1.2971458435058594 10.016236901283264 Z" />

    </svg>