<svg preserveAspectRatio="none" xmlns="http://www.w3.org/2000/svg" xmlns:xlink="http://www.w3.org/1999/xlink" width="292.75819373056504" height="383.9998232744497" version="1.1" viewBox="0 0 292.75819373056504 383.9998232744497"><defs><path fill-rule="nonzero" id="path-62" d="M120.98817,0c-4.02771,-0.00009 -8.05103,2.81501 -9.61685,4.04477c-0.83111,-0.58793 -2.42107,-1.40807 -5.22864,-1.91219c-0.63397,-0.11229 -1.25511,-0.16001 -1.85287,-0.16001c-3.30411,-0.00009 -5.89614,1.45868 -6.02413,1.53228c-0.31071,0.1771 -0.48757,0.50682 -0.49138,0.85753l-0.33871,0.19411l0.37884,0.09419c0.09956,0.33672 0.35942,0.60464 0.70751,0.69223c2.72765,0.67972 5.1934,2.00188 7.23483,3.86636c-14.02661,0.58893 -25.79395,6.88608 -35.00385,18.74176c-7.8158,10.0504 -15.09574,22.32331 -15.45049,43.87778c-0.59432,2.35249 -2.06943,5.32451 -4.3853,8.83747c-0.19704,0.2981 -0.21023,0.67381 -0.05364,0.98964l-0.10257,0.15581l0.18545,-0.01771c0.18416,0.25812 0.47405,0.42402 0.78862,0.42402c0.03696,0 0.07408,-0.00231 0.11142,-0.00699c0.59524,-0.05561 2.29324,-0.28212 3.89881,-1.11036c0.16769,1.58588 0.32299,3.68654 0.07623,5.97084c-0.5461,4.92212 -4.12878,11.21338 -4.1651,11.27597c-0.17751,0.30951 -0.17048,0.68762 0.00633,0.99485l-0.05676,0.0991l0.11389,-0.0118c0.18963,0.25981 0.48891,0.41591 0.80869,0.41591c0.03213,0 0.06432,-0.0016 0.09683,-0.00479c1.54088,-0.15542 3.54803,-1.52947 6.01142,-3.30875c0.131,-0.0946 0.25835,-0.1864 0.38184,-0.2755c0.37841,2.02768 1.28075,4.32798 2.25016,6.08044c-2.54842,1.19594 -6.5064,4.27467 -6.93335,11.9546c-0.38463,6.98367 2.84631,13.01231 9.09612,16.97538c2.75785,1.75387 7.22845,3.34283 11.45614,3.34283c1.90035,0 3.74908,-0.3291 5.37375,-1.10164c5.25166,12.0947 10.48095,20.15722 17.85327,27.53542c-0.03439,0.10191 -0.06373,0.20801 -0.0633,0.32211c0.07274,18.58767 -1.42066,28.00153 -3.02736,31.09707c-0.18738,-0.16841 -0.42894,-0.25981 -0.6779,-0.2599c-0.05713,0 -0.11453,0.00489 -0.17198,0.01459c-1.43605,0.26682 -2.36914,0.44351 -3.00568,0.56462c-1.1165,0.21183 -1.28821,0.24422 -1.68421,0.28632c-1.61415,0.19411 -3.23297,0.42952 -4.8099,0.69703c-24.0725,4.06958 -50.33562,17.77623 -63.86645,33.33167c-10.30596,11.85299 -16.96545,31.61539 -16.96545,50.34775c0,12.2029 2.8735,27.40461 9.03524,47.81224v52.60184h-11.87704c-0.55264,0 -1.00062,0.44733 -1.00062,1.00005c0,0.5527 0.44798,1.00012 1.00062,1.00012h48.22719c4.64285,2.75703 9.73824,4.14078 15.32437,4.14078c5.58602,0 11.6653,-1.39177 18.25962,-4.14078h177.17396v0.90025c0,0.55273 0.44782,1.00005 1.00057,1.00005c0.55275,0 1.00073,-0.44733 1.00073,-1.00005v-0.90025h2.84137c0.55291,0 1.00062,-0.44742 1.00062,-1.00012c0,-0.55273 -0.44771,-1.00005 -1.00062,-1.00005h-2.84631c-0.07762,-20.09942 -0.98078,-38.22865 -3.19333,-64.1807c0.92971,-0.28102 1.77047,-0.57494 2.50631,-0.87755l0.11201,-0.0557l0.07451,-0.03748c0.09425,-0.0533 0.17751,-0.11971 0.24918,-0.19973l0.02409,-0.02399c0.14511,-0.1732 0.23695,-0.39272 0.23695,-0.63733l-0.00971,-0.07159l0.00139,-0.01151c-0.22032,-2.63392 -0.50077,-5.90824 -0.85171,-9.5909c-0.63858,-6.77196 -1.78404,-18.06973 -3.30255,-29.6107c0.67377,-1.17923 1.05422,-2.4903 1.09397,-3.89175c0.0581,-2.06379 -0.61471,-3.92547 -1.51625,-5.22681c7.34249,0.04139 16.47997,0.087 22.91915,0.087c1.44544,0 2.75543,-0.0031 3.87724,-0.00801c5.94973,-0.03411 8.31785,-3.59084 8.53747,-6.62615c0.25797,-3.56375 -2.36421,-7.79053 -7.73281,-8.60197c-6.32808,-0.95944 -19.25386,-1.37195 -31.43683,-1.53894c-0.70065,-3.19084 -1.43289,-6.01015 -2.19222,-8.26904c-4.38643,-13.09724 -14.02511,-25.28904 -26.44535,-33.45067c-10.49076,-6.87629 -32.70337,-13.06484 -48.1169,-15.07572c-2.35471,-0.3114 -4.45139,-0.50892 -6.23302,-0.58793c-0.04297,-0.00199 -0.08578,-0.00299 -0.12869,-0.00299c-0.71454,0 -1.40805,0.28262 -1.92207,0.77562l-0.03401,0.04002c-0.8288,-2.90042 -1.4831,-10.64113 -0.93416,-23.26145c9.8399,-6.89818 15.64216,-18.88827 18.72584,-38.69198c4.27013,-0.2258 8.26185,-2.51361 11.29886,-6.54657c3.86399,-5.13221 5.34151,-11.98478 3.76335,-17.45749c-0.94569,-3.29174 -3.20932,-5.66544 -6.18469,-6.59668c12.29675,-11.54925 13.87019,-39.6871 -3.22745,-64.33121c2.81959,-0.20811 5.70903,-1.95598 7.39104,-3.93286c0.23121,-0.272 0.29107,-0.64313 0.1744,-0.97604l0.11426,-0.1343l-0.17622,-0.00621c-0.1678,-0.31061 -0.48226,-0.51732 -0.83948,-0.52983c-1.28639,-0.04589 -9.58487,-2.19937 -11.96609,-3.43883c-1.73984,-1.57816 -12.65177,-8.51775 -18.12894,-10.99726c-12.30351,-5.56972 -25.03724,-6.97007 -34.73091,-6.97018c-7.07733,-0.00009 -12.53353,0.74613 -15.0223,1.16106c0.62125,-2.80741 1.46486,-3.96966 4.2086,-5.42882c0.31709,-0.16841 0.50399,-0.49223 0.51852,-0.84215l0.43715,-0.23201l-0.4828,-0.10892c-0.10686,-0.33391 -0.37202,-0.59692 -0.72184,-0.67552c-0.5711,-0.1291 -1.14954,-0.1871 -1.72793,-0.1871"></path></defs><g><use xlink:href="#path-62" fill="{{colors[0]}}"></use></g></svg>