<svg preserveAspectRatio="none" xmlns="http://www.w3.org/2000/svg" xmlns:xlink="http://www.w3.org/1999/xlink" width="596.6946259430671" height="287.325608253479" version="1.1" viewBox="0 0 596.6946259430671 287.325608253479"><defs><path fill-rule="nonzero" id="path-9" d="M96.79792,22.39219c18.55259,0 35.56449,5.78163 48.81832,15.40138c9.36943,-6.9733 21.50538,-11.18038 34.76307,-11.18038c15.40802,0 29.30097,5.68252 39.09685,14.78573c25.81088,-25.25884 65.19713,-41.39892 109.32576,-41.39892c45.46945,0 85.90394,17.13575 111.64066,43.7263c15.07201,-6.6502 32.42035,-10.43748 50.88179,-10.43748c57.97369,0 104.97061,37.34692 104.97061,83.41663c0,11.95355 -3.16397,23.31985 -8.8627,33.59891c9.06241,15.73613 11.92017,33.53105 6.58024,50.4907c-11.43203,36.30798 -56.28438,55.6051 -101.94273,44.80904c-29.69271,25.44433 -75.17665,41.7215 -126.1623,41.7215c-36.06625,0 -69.37948,-8.1449 -96.2976,-21.91801c-13.62651,10.91724 -31.77099,17.57728 -51.69093,17.57728c-21.44072,0 -40.82456,-7.71581 -54.73165,-20.15116c-8.94516,3.20625 -18.7366,4.97364 -28.9993,4.97364c-26.88038,0 -50.52785,-12.12492 -64.20329,-30.47166c-39.96959,-7.33929 -69.98473,-38.39467 -69.98473,-75.59165c0,-20.29545 8.93565,-38.76253 23.54839,-52.54655c-2.17265,-6.22199 -3.3417,-12.82831 -3.3417,-19.67394c0,-37.07562 34.29108,-67.13136 76.59123,-67.13136z"></path></defs><g><use xlink:href="#path-9" fill="{{colors[0]}}"></use><mask id="mask-10"><use fill="#fff" xlink:href="#path-9"></use></mask><use xlink:href="#path-9" fill="none" stroke-width="10.14" stroke="{{colors[1]}}" stroke-dasharray="" stroke-linecap="butt" stroke-linejoin="miter" mask="url(#mask-10)"></use></g></svg>