<svg preserveAspectRatio="none" xmlns="http://www.w3.org/2000/svg" xmlns:xlink="http://www.w3.org/1999/xlink" width="558.0013294219971" height="313.00019150972366" version="1.1" viewBox="-1 -1 558.0013294219971 313.00019150972366"><defs><path fill-rule="nonzero" id="path-66" d="M517.06912,192.35657c7.43862,-31.21285 24.1085,-51.80426 38.93221,-61.79505c-22.2265,-9.6863 -32.45344,-18.79707 -41.32351,-38.27348c-7.27152,-15.96624 -6.89896,-37.72014 -3.69587,-53.99155c-20.37916,7.69638 -58.00154,13.87003 -82.46672,8.76889c-20.57329,-4.2897 -47.87464,-24.0542 -59.44585,-47.06538c-18.86886,23.0181 -54.18068,37.68884 -79.06004,37.31708c-25.3281,-0.37845 -54.33147,-9.74061 -78.8092,-36.91142c-14.51842,28.55579 -37.4843,41.94815 -63.68197,45.46302c-35.75889,4.79777 -78.92046,-17.70146 -82.30804,-22.92019c4.12551,18.70179 0.89967,55.20793 -7.98038,74.80795c-10.90001,24.05819 -31.08616,45.55301 -57.22976,50.03901c33.75549,6.90035 52.21075,27.66885 60.17214,42.31702c8.86749,16.3154 7.79359,48.68573 -0.61814,71.77031c31.02066,-9.66242 62.06954,-8.21114 85.04335,0c18.85067,6.73738 36.78199,25.56394 46.48885,45.22876c27.52832,-28.99035 69.4366,-34.71731 93.83848,-34.71731c33.22774,0 70.05769,6.5318 101.72653,38.60596c37.12317,-53.81888 82.01133,-66.90447 147.02668,-42.73138c-0.18244,-0.26639 -24.88065,-41.20312 -16.60877,-75.91224z"></path></defs><g><use xlink:href="#path-66" fill="{{colors[0]}}"></use><use xlink:href="#path-66" fill="none" stroke-width="2" stroke="{{colors[1]}}" stroke-dasharray="" stroke-linecap="butt" stroke-linejoin="round"></use></g></svg>