<svg preserveAspectRatio="none" xmlns="http://www.w3.org/2000/svg" xmlns:xlink="http://www.w3.org/1999/xlink" width="37.388110000000005" height="30.483960000000003" version="1.1" viewBox="0 0 37.388110000000005 30.483960000000003"><defs><path fill-rule="nonzero" id="path-11" d="M3.64062,24.2652c2.01064,0 3.64062,1.39211 3.64062,3.10937c0,1.71728 -1.62998,3.10939 -3.64062,3.10939c-2.01069,0 -3.64062,-1.39211 -3.64062,-3.10939c0,-1.71726 1.62992,-3.10937 3.64062,-3.10937zM0.00456,0h7.29437l-0.91184,19.98642h-5.47074zM19.14062,24.2652c2.01064,0 3.64062,1.39211 3.64062,3.10937c0,1.71728 -1.62998,3.10939 -3.64062,3.10939c-2.01069,0 -3.64062,-1.39211 -3.64062,-3.10939c0,-1.71726 1.62992,-3.10937 3.64062,-3.10937zM15.50505,0h7.29432l-0.91179,19.98642h-5.47074zM33.73436,24.2652c2.01064,0 3.64062,1.39211 3.64062,3.10937c0,1.71728 -1.62998,3.10939 -3.64062,3.10939c-2.01069,0 -3.64062,-1.39211 -3.64062,-3.10939c0,-1.71726 1.62992,-3.10937 3.64062,-3.10937zM30.09374,0h7.29437l-0.91179,19.98642h-5.47074z"></path></defs><g><use xlink:href="#path-11" fill="{{colors[0]}}"></use></g></svg>