<svg preserveAspectRatio="none" xmlns="http://www.w3.org/2000/svg" xmlns:xlink="http://www.w3.org/1999/xlink" width="556.9235193023076" height="310.98949999999996" version="1.1" viewBox="0 0 556.9235193023076 310.98949999999996"><defs><path fill-rule="nonzero" id="path-68" d="M512.44869,38.29547v0v0M370.48618,0.00002c-18.64173,22.73242 -53.32779,37.32317 -78.15877,37.32317c-0.31151,0 -0.62082,-0.00231 -0.92912,-0.00692c-25.33754,-0.37884 -54.3511,-9.74045 -78.8372,-36.91059c-14.52357,28.55517 -37.49776,41.94706 -63.70482,45.46161c-3.40818,0.45714 -6.88614,0.66662 -10.38793,0.66662c-33.25253,0 -68.8832,-18.86469 -71.9487,-23.5861c4.12652,18.70142 0.89929,55.2059 -7.98343,74.80549c-10.9042,24.05756 -32.3829,39.54978 -58.53621,44.03551c33.76729,6.90044 53.51527,33.66944 61.47945,48.31696c8.87082,16.31492 7.79638,48.68432 -0.61836,71.76798c14.88905,-4.6358 29.78459,-6.71325 43.79109,-6.71325c15.18618,0 29.32717,2.44209 41.28225,6.71325c18.85754,6.73744 34.85895,26.91088 44.56898,46.57507c27.53803,-28.98972 71.39772,-36.0637 95.80802,-36.0637c33.23987,0 70.08263,6.53126 101.76301,38.60438c25.27258,-36.62473 56.51709,-54.40238 94.39713,-54.40238c17.7816,0 37.02221,3.91569 57.79924,11.6378c-0.1826,-0.26655 -19.20274,-31.10903 -19.55073,-68.96062c-0.27578,-30.043 19.94013,-55.80791 36.10983,-74.08639c0.17075,-0.19267 0.09806,-0.50364 -0.13813,-0.60662c-21.89637,-9.52529 -31.73676,-12.95195 -40.5454,-32.286c-7.27442,-15.96578 -6.90175,-37.71882 -3.69769,-53.98984c-15.20512,5.73997 -40.00606,10.63305 -61.78442,10.63305c-7.42103,0 -14.49112,-0.56813 -20.71095,-1.86446c-20.5808,-4.28967 -47.8917,-24.05324 -59.46715,-47.06404"></path></defs><g><use xlink:href="#path-68" fill="{{colors[0]}}"></use></g></svg>