<svg preserveAspectRatio="none" xmlns="http://www.w3.org/2000/svg" xmlns:xlink="http://www.w3.org/1999/xlink" width="223.75722000000002" height="108.25621999999998" version="1.1" viewBox="0 0 223.75722000000002 108.25621999999998"><defs><path fill-rule="nonzero" id="path-10" d="M132.46446,0.27979l17.67312,17.67314l17.9529,-17.95293l18.02316,18.02313l-18.02316,18.02313l-17.67312,-17.67314l-17.60785,17.60787l17.67806,17.67808l-18.02311,18.02313l-18.02311,-18.02313l17.67806,-17.67808l-17.67806,-17.67808zM205.73411,0.01002l18.02311,18.02301l-17.98812,17.98814l17.65415,17.65412l-18.02316,18.02313l-18.02311,-18.02313l17.98812,-17.98815l-17.6541,-17.65412zM168.14847,36.05199l18.02311,18.02313l-18.02311,18.02313l-18.02311,-18.02313zM18.02311,0.27979l17.67312,17.67314l17.95291,-17.95293l18.02316,18.02313l-18.02316,18.02313l-17.67312,-17.67315l-17.60786,17.60788l17.67806,17.67808l-18.02311,18.02313l-18.02311,-18.02313l17.67806,-17.67809l-17.67806,-17.67808zM91.29276,0.01002l18.02316,18.02301l-17.98817,17.98814l17.65415,17.65412l-18.02316,18.02313l-18.02311,-18.02313l17.98812,-17.98815l-17.6541,-17.65412zM53.70712,36.05199l18.02316,18.02313l-18.02316,18.02313l-18.02311,-18.02313zM132.46446,71.79404l18.02311,18.02313l-18.02311,18.02313l-18.02311,-18.02313zM205.40008,71.81013l18.02316,18.02313l-18.02316,18.02313l-18.02311,-18.02313zM168.14847,72.20996l18.02311,18.02313l-18.02311,18.02313l-18.02311,-18.02313zM18.02311,71.79404l18.02311,18.02313l-18.02311,18.02313l-18.02311,-18.02313zM90.95874,71.81013l18.02316,18.02313l-18.02316,18.02313l-18.02311,-18.02313zM53.70712,72.20996l18.02316,18.02313l-18.02316,18.02313l-18.02311,-18.02313z"></path></defs><g><use xlink:href="#path-10" fill="{{colors[0]}}"></use></g></svg>