<svg xmlns="http://www.w3.org/2000/svg" width="800" height="800" preserveAspectRatio="none" viewBox="0 0 800 800"><path fill="{{colors[0]}}" d="M242.154 128.398c.398-48.958 40.404-88.326 89.361-87.929 48.953.396 88.32 40.407 87.926 89.365-.396 48.954-40.408 88.319-89.365 87.922-48.953-.396-88.318-40.403-87.922-89.358z"/><circle fill="{{colors[1]}}" cx="330.799" cy="129.115" r="56.453"/><path fill="{{colors[2]}}" d="M330.693 222.335c-51.398-.418-92.875-42.572-92.459-93.971.416-51.4 42.572-92.878 93.971-92.462 51.398.417 92.875 42.573 92.459 93.973-.418 51.4-42.57 92.877-93.971 92.46zm1.436-177.288c-46.355-.375-84.373 37.033-84.75 83.392-.375 46.357 37.031 84.375 83.389 84.752 46.355.375 84.379-37.032 84.754-83.39.374-46.358-37.036-84.379-83.393-84.754z"/><path fill="{{colors[0]}}" d="M527.766 664.891c8.151-9.634 25.799-35.12 32.914-73.263 3.564-19.117 10.563-74.258 10.832-107.541.475-58.377-5.816-151.828-5.816-151.828.15-18.788-12.666-33.914-34.268-34.089-10.797-.087-18.932 3.616-24.324 9.649-5.449 6.088-8.162 14.504-8.236 23.899l-.324 40.163.324-40.163.186-23.067c.078-9.39-3.682-17.918-9.764-24.156-6.137-6.182-14.6-10.076-23.996-10.152-18.787-.152-34.16 14.973-34.311 33.758l-.512 63.229.633-84.466c.154-18.799-14.963-34.162-33.76-34.314-18.799-.152-34.16 14.964-34.313 33.762l-.629 84.467h-.055l1.66-204.877c-.471-18.232-5.678-61.486-31.533-61.696-34.943-.283-36.412 52.931-36.486 62.326l-2.215 273.114s-8.898 54.723-67.475 3.551c-40.414-35.303-61.84-52.209-85.678-50.682-27.186 1.735-19.732 19.424-8.535 33.188l56.383 96.969c14.707 24.646 43.13 54.593 69.69 85.823 28.094 33.043 42.292 43.173 53.383 55.908 0 0 16.535 11.359 106.649 8.205 66.953-2.344 109.576-7.717 109.576-7.717z"/><path fill="{{colors[2]}}" d="M388.417 676.661h-.006c-63.369-.001-77.452-8.414-78.85-9.374l-.367-.251-.292-.335c-3.997-4.59-8.366-8.792-13.898-14.113-9.152-8.803-21.686-20.859-39.513-41.827-6.554-7.706-13.279-15.4-19.784-22.841-20.063-22.953-39.014-44.633-50.246-63.455l-56.267-96.77c-6.573-8.129-13.491-19.589-9.614-28.458 2.651-6.066 9.655-9.503 20.815-10.216a50.411 50.411 0 0 1 3.175-.102c23.46 0 43.924 15.735 85.028 51.641 15.946 13.93 29.362 20.994 39.875 20.993 16.981-.001 21.337-19.843 21.799-22.236l2.212-272.814c.059-7.467.826-22.04 5.302-35.736 6.426-19.667 18.324-30.063 34.407-30.063l.306.001c31.723.258 34.724 54.279 35.004 65.105l.001.06-.8 98.738c6.851-9.414 17.945-15.559 30.354-15.559l.31.001c10.027.082 19.421 4.063 26.453 11.21 6.926 7.04 10.744 16.319 10.779 26.176 6.837-9.435 17.941-15.594 30.408-15.594l.309.001c9.977.081 19.371 4.054 26.452 11.187 6.854 7.03 10.656 16.175 10.778 25.853a31.824 31.824 0 0 1 1.944-2.397c6.324-7.076 15.51-10.816 26.562-10.816l.398.001c22.352.181 37.854 15.587 37.74 37.484.268 4.019 6.277 95.121 5.816 151.961-.273 33.645-7.338 89.096-10.893 108.154-7.787 41.75-27.75 67.871-33.682 74.882l-.881 1.041-1.354.171c-.428.054-43.547 5.42-109.889 7.742-10.526.369-20.585.555-29.891.555zm-74.625-15.002c2.171 1.085 18.223 8.001 74.619 8.002h.006c9.226 0 19.201-.186 29.651-.552 59.445-2.08 100.098-6.609 107.896-7.527 6.521-7.977 24.148-32.397 31.273-70.596 3.516-18.853 10.504-73.683 10.773-106.928.469-57.574-5.746-150.631-5.809-151.565l-.01-.131.002-.131c.145-18.129-12.231-30.411-30.797-30.561l-.342-.001c-9.003 0-16.383 2.934-21.344 8.483-4.735 5.29-7.274 12.752-7.346 21.584v.011l-.324 40.163-7-.057.51-63.23c.066-8.114-3.047-15.815-8.77-21.685-5.75-5.792-13.4-9.03-21.52-9.096l-.252-.001c-16.701 0-30.396 13.586-30.529 30.287l-.512 63.23-7-.057v-.026l.633-84.438c.066-8.159-3.047-15.854-8.769-21.668s-13.364-9.054-21.52-9.12l-.253-.001c-16.578 0-30.271 13.483-30.528 30.06l-.013 1.651-.644 86.519h-7.002l-.026-3.528 1.66-204.818c-.166-6.221-2.327-58.018-28.061-58.227l-.249-.001c-12.944 0-22.282 8.491-27.753 25.236-4.338 13.276-4.911 27.933-4.956 33.619l-2.217 273.383-.043.265c-1.595 9.805-9.656 28.346-28.751 28.347-12.256.001-27.221-7.644-44.48-22.722-38.84-33.928-59.436-49.912-80.423-49.912-.902 0-1.819.029-2.729.087-5.731.366-12.958 1.709-14.848 6.034-1.921 4.395 1.289 12.213 8.804 21.452l.311.45 56.383 96.969c10.887 18.244 29.635 39.692 49.485 62.4 6.52 7.459 13.261 15.171 19.846 22.914 17.601 20.7 29.484 32.131 39.033 41.316 5.266 5.065 9.835 9.461 13.935 14.117z"/><text transform="translate(298.876 793.691)" font-family="'SimHei'" font-size="104">点击</text></svg>