<svg xmlns="http://www.w3.org/2000/svg" width="800" height="800" preserveAspectRatio="none" viewBox="0 0 800 800"><g fill-rule="evenodd" clip-rule="evenodd"><path d="M139.017 526.113c-9.128 9.174-13.694 20.229-13.694 33.17 0 12.938 4.566 23.972 13.694 33.1 9.175 9.127 20.231 13.692 33.171 13.692 12.938 0 23.971-4.565 33.099-13.692 9.129-9.128 13.691-20.161 13.691-33.1 0-12.94-4.563-23.996-13.691-33.17-9.128-9.129-20.161-13.693-33.099-13.693-12.94 0-23.997 4.564-33.171 13.693zm33.171-84.268c15.948 0 31.194 3.081 45.731 9.245 14.022 5.929 26.443 14.303 37.265 25.125 10.822 10.868 19.197 23.313 25.126 37.335 6.164 14.538 9.245 29.783 9.245 45.733 0 41.122-19.551 85.067-58.648 131.835-19.574 23.337-39.146 42.581-58.719 57.731-19.574-15.15-39.123-34.395-58.649-57.731-39.146-46.768-58.72-90.713-58.72-131.835 0-15.904 3.084-31.147 9.247-45.733 5.928-14.021 14.303-26.467 25.123-37.335 10.822-10.822 23.243-19.196 37.265-25.125 14.586-6.164 29.829-9.245 45.734-9.245z" fill="{{colors[0]}}"/><path d="M172.188 441.845c15.948 0 31.194 3.081 45.731 9.245 14.022 5.929 26.443 14.303 37.265 25.125 10.822 10.868 19.197 23.313 25.126 37.335 6.164 14.538 9.245 29.783 9.245 45.733 0 41.122-19.551 85.067-58.648 131.835-19.574 23.337-39.146 42.581-58.719 57.731-5.08-3.952-11.41-9.41-18.987-16.373 24.702-22.727 45.241-46.204 61.613-70.436 24.515-36.323 36.772-70.576 36.772-102.758 0-28.984-9.434-54.462-28.302-76.435-18.632-21.736-41.993-34.887-70.084-39.451 6.448-1.034 12.777-1.551 18.988-1.551z" fill="{{colors[1]}}"/><path d="M612.016 284.742c-8.656 8.705-12.986 19.173-12.986 31.407 0 12.28 4.33 22.749 12.986 31.406 8.704 8.657 19.175 12.987 31.406 12.987 12.279 0 22.75-4.33 31.407-12.987 8.656-8.657 12.984-19.125 12.984-31.406 0-12.234-4.328-22.703-12.984-31.407-8.657-8.656-19.128-12.985-31.407-12.985-12.232-.001-22.702 4.329-31.406 12.985zm133.953-11.927c5.834 13.785 8.751 28.23 8.751 43.334 0 39.004-18.537 80.667-55.614 124.99-18.583 22.161-37.146 40.416-55.684 54.767-18.537-14.351-37.076-32.605-55.614-54.767-37.123-44.322-55.684-85.985-55.684-124.99 0-15.104 2.917-29.549 8.751-43.334 5.646-13.315 13.598-25.102 23.854-35.358 10.257-10.257 22.045-18.209 35.358-23.855 13.787-5.834 28.231-8.751 43.334-8.751s29.549 2.917 43.333 8.751c13.315 5.646 25.103 13.598 35.359 23.855 10.258 10.256 18.21 22.043 23.856 35.358z" fill="{{colors[0]}}"/><path d="M745.969 272.815c5.834 13.785 8.751 28.23 8.751 43.334 0 39.004-18.537 80.667-55.614 124.99-18.583 22.161-37.146 40.416-55.684 54.767-5.128-3.952-11.457-9.409-18.984-16.374 23.338-21.549 42.698-43.827 58.083-66.835 22.821-34.111 34.229-66.293 34.229-96.547 0-27.29-8.822-51.309-26.467-72.059-17.502-20.514-39.451-33.029-65.846-37.546a105.918 105.918 0 0 1 18.984-1.694c15.103 0 29.549 2.917 43.333 8.751 13.315 5.646 25.103 13.598 35.359 23.855 10.258 10.256 18.21 22.043 23.856 35.358z" fill="{{colors[1]}}"/><path d="M208.675 108.232c-11.151 0-20.679 3.952-28.584 11.856-7.903 7.858-11.857 17.386-11.857 28.583 0 11.151 3.954 20.679 11.857 28.583 7.905 7.904 17.433 11.857 28.584 11.857 11.198 0 20.727-3.953 28.584-11.857 7.903-7.904 11.856-17.432 11.856-28.583 0-11.198-3.953-20.726-11.856-28.583-7.858-7.904-17.386-11.856-28.584-11.856zm93.441.988c5.318 12.563 7.976 25.714 7.976 39.452 0 35.523-16.891 73.47-50.674 113.839-16.938 20.186-33.852 36.817-50.743 49.897-16.892-13.081-33.783-29.712-50.674-49.897-33.783-40.369-50.675-78.315-50.675-113.839 0-13.738 2.66-26.89 7.977-39.452 5.129-12.139 12.375-22.89 21.737-32.253 9.315-9.363 20.042-16.608 32.185-21.737 12.56-5.316 25.711-7.975 39.45-7.975 13.786 0 26.959 2.659 39.522 7.975 12.092 5.129 22.819 12.375 32.183 21.737s16.608 20.114 21.736 32.253z" fill="{{colors[0]}}"/><path d="M302.116 109.22c5.318 12.563 7.976 25.714 7.976 39.452 0 35.523-16.891 73.47-50.674 113.839-16.938 20.186-33.852 36.817-50.743 49.897-5.175-4.046-11.505-9.552-18.985-16.515 21.08-19.714 38.487-39.97 52.227-60.766 20.091-30.537 30.136-59.354 30.136-86.456 0-24.561-7.856-46.227-23.574-65-15.525-18.584-35.121-30.113-58.788-34.582a98.67 98.67 0 0 1 18.985-1.835c13.786 0 26.959 2.659 39.522 7.975 12.092 5.129 22.819 12.375 32.183 21.737s16.607 20.115 21.735 32.254z" fill="{{colors[1]}}"/><path d="M172.188 431.327c17.313 0 33.898 3.366 49.756 10.095 15.291 6.444 28.864 15.597 40.722 27.453 11.811 11.81 20.939 25.36 27.385 40.651 6.727 15.856 10.091 32.441 10.091 49.757 0 42.958-19.62 88.291-58.86 135.999-19.854 24.138-40.745 44.769-62.672 61.896-1.88 1.458-4.023 2.188-6.421 2.188-2.448 0-4.613-.73-6.493-2.188-21.878-17.127-42.745-37.758-62.603-61.896-39.238-47.708-58.859-93.041-58.859-135.999 0-11.529 1.506-22.82 4.517-33.876 3.061-11.104 7.505-21.574 13.34-31.406 1.459-2.495 3.623-4.095 6.493-4.801 2.823-.753 5.48-.376 7.976 1.13 2.491 1.505 4.116 3.671 4.868 6.493.707 2.823.307 5.481-1.199 7.976-9.928 16.749-14.893 34.911-14.893 54.484 0 34.064 14.799 70.764 44.395 110.099 17.83 23.666 38.65 45.592 62.459 65.774 23.807-20.229 44.627-42.18 62.459-65.847 29.596-39.334 44.392-76.01 44.392-110.026 0-14.492-2.798-28.349-8.397-41.57-5.412-12.749-13.056-24.065-22.937-33.947-9.882-9.88-21.198-17.525-33.949-22.936-13.22-5.601-27.077-8.399-41.567-8.399-12.233 0-23.996 1.977-35.288 5.929s-21.714 9.716-31.265 17.291c-2.306 1.836-4.895 2.587-7.765 2.259-2.917-.33-5.27-1.624-7.058-3.882-1.836-2.306-2.589-4.894-2.257-7.765.328-2.915 1.622-5.269 3.881-7.058 11.292-8.986 23.808-15.879 37.546-20.678 13.688-4.799 27.756-7.2 42.203-7.2z" fill="{{colors[2]}}"/><path d="M114.809 559.283c0-15.81 5.623-29.313 16.867-40.512 11.197-11.244 24.7-16.867 40.512-16.867 15.809 0 29.336 5.623 40.581 16.867 11.198 11.199 16.797 24.702 16.797 40.512 0 15.808-5.599 29.335-16.797 40.581-11.245 11.197-24.772 16.797-40.581 16.797-15.812 0-29.314-5.6-40.512-16.797-11.244-11.246-16.867-24.773-16.867-40.581zm21.101 0c0 9.974 3.554 18.515 10.658 25.618 7.104 7.104 15.645 10.657 25.619 10.657s18.514-3.553 25.618-10.657c7.106-7.104 10.656-15.645 10.656-25.618 0-10.021-3.55-18.563-10.656-25.619-7.104-7.105-15.644-10.658-25.618-10.658s-18.516 3.553-25.619 10.658c-7.104 7.057-10.658 15.598-10.658 25.619zm619.798-290.491c6.4 15.057 9.598 30.842 9.598 47.357 0 26.348-8.021 54.014-24.065 82.998-1.411 2.54-3.529 4.211-6.352 5.011-2.775.8-5.458.493-8.047-.918-2.54-1.412-4.209-3.529-5.01-6.352-.799-2.775-.496-5.458.917-8.046 14.305-25.642 21.456-49.874 21.456-72.693 0-13.645-2.635-26.701-7.904-39.17-5.129-12.045-12.352-22.726-21.668-32.042-19.713-19.667-43.451-29.501-71.211-29.501-13.644 0-26.699 2.635-39.168 7.905-12.047 5.128-22.727 12.326-32.043 21.596-9.27 9.316-16.468 19.996-21.596 32.042-5.27 12.469-7.904 25.525-7.904 39.17 0 32.041 13.902 66.6 41.708 103.674 16.798 22.444 36.466 43.241 59.003 62.391 8.045-6.775 16.21-14.304 24.489-22.585 11.998-12.044 22.75-24.254 32.253-36.628 1.743-2.306 4.072-3.646 6.988-4.023 2.87-.423 5.482.259 7.832 2.047 2.309 1.788 3.647 4.117 4.024 6.987.377 2.917-.329 5.527-2.117 7.833-12.986 16.892-27.854 33.219-44.605 48.979-14.442 12.61-21.899 19.104-22.372 19.479-1.976 1.459-4.141 2.188-6.492 2.188-2.305 0-4.447-.729-6.424-2.188-5.221-4.092-11.385-9.387-18.489-15.879-14.068-12.892-27.006-26.396-38.817-40.511-38.723-46.251-58.084-90.173-58.084-131.765 0-16.515 3.2-32.3 9.6-47.357 6.164-14.585 14.867-27.501 26.112-38.746 11.246-11.246 24.162-19.95 38.746-26.113 15.058-6.4 30.842-9.599 47.356-9.599 16.514 0 32.299 3.199 47.357 9.599 14.584 6.163 27.523 14.867 38.815 26.113 11.246 11.246 19.951 24.162 26.114 38.747z" fill="{{colors[2]}}"/><path d="M667.348 292.293c-6.588-6.634-14.563-9.95-23.926-9.95-9.314 0-17.268 3.316-23.854 9.95-6.634 6.587-9.952 14.54-9.952 23.856 0 9.363 3.318 17.338 9.952 23.925 6.587 6.633 14.54 9.95 23.854 9.95 9.362 0 17.338-3.317 23.926-9.95 6.635-6.587 9.951-14.562 9.951-23.925 0-9.316-3.317-17.269-9.951-23.856zm-78.834 23.856c0-15.151 5.365-28.09 16.092-38.817 10.728-10.727 23.666-16.091 38.816-16.091 15.151 0 28.112 5.364 38.887 16.091 10.729 10.727 16.092 23.666 16.092 38.817 0 15.197-5.362 28.16-16.092 38.887-10.727 10.729-23.689 16.092-38.887 16.092-15.15 0-28.089-5.363-38.816-16.092-10.727-10.775-16.092-23.737-16.092-38.887zM244.738 112.608c9.976 9.975 14.964 21.996 14.964 36.064 0 14.068-4.988 26.066-14.964 35.993-9.974 9.976-21.995 14.962-36.063 14.962-14.022 0-26.02-4.987-35.994-14.962-9.974-9.927-14.962-21.925-14.962-35.993 0-14.068 4.988-26.089 14.962-36.064 9.928-9.976 21.926-14.962 35.994-14.962s26.09 4.986 36.063 14.962zm-65.917 36.064c0 8.234 2.915 15.268 8.751 21.102 5.835 5.835 12.868 8.751 21.103 8.751s15.292-2.917 21.173-8.751c5.833-5.834 8.75-12.868 8.75-21.102 0-8.233-2.917-15.291-8.75-21.173-5.833-5.834-12.891-8.751-21.173-8.751-8.234 0-15.268 2.917-21.103 8.751-5.836 5.882-8.751 12.939-8.751 21.173z" fill="{{colors[2]}}"/><path d="M287.79 69.557c10.351 10.303 18.351 22.161 23.995 35.57 5.882 13.879 8.823 28.395 8.823 43.545 0 38.111-17.715 78.315-53.144 120.614-10.774 12.846-22.584 25.173-35.43 36.982-6.445 5.929-12.068 10.75-16.867 14.47-1.883 1.457-4.047 2.187-6.493 2.187-2.4 0-4.541-.729-6.423-2.187-7.059-5.458-15.01-12.446-23.853-20.962-17.551-16.892-32.584-34.252-45.101-52.084-1.692-2.4-2.281-5.035-1.764-7.905.471-2.869 1.905-5.152 4.306-6.846 2.397-1.646 5.034-2.235 7.903-1.764 2.871.518 5.128 1.976 6.777 4.375 9.174 13.034 20.02 26.042 32.534 39.028 8.421 8.705 16.962 16.75 25.619 24.138 20.562-17.644 38.416-36.605 53.566-56.884 24.843-33.359 37.264-64.413 37.264-93.16 0-25.078-8.868-46.485-26.606-64.224-17.737-17.738-39.146-26.606-64.224-26.606-25.031 0-46.415 8.869-64.152 26.606-17.788 17.785-26.678 39.193-26.678 64.224 0 16.42 4.141 33.688 12.42 51.803 1.177 2.682 1.248 5.388.212 8.116-1.035 2.682-2.87 4.634-5.506 5.858-2.633 1.223-5.315 1.318-8.045.282-2.729-1.035-4.706-2.869-5.927-5.504-9.507-20.985-14.259-41.17-14.259-60.555 0-15.15 2.941-29.666 8.822-43.545 5.694-13.363 13.693-25.219 23.996-35.57 10.352-10.352 22.209-18.35 35.57-23.996 13.881-5.881 28.396-8.823 43.546-8.823s29.665 2.941 43.546 8.823c13.365 5.644 25.222 13.642 35.573 23.994zm41.993 293.807c2.729-1.082 5.434-1.036 8.115.141l12.846 5.647c2.682 1.176 4.563 3.105 5.646 5.787 1.034 2.729.965 5.435-.213 8.115-.846 1.931-2.164 3.481-3.953 4.658-1.739 1.083-3.644 1.623-5.715 1.623-1.411 0-2.823-.281-4.234-.846l-12.846-5.646c-2.682-1.177-4.539-3.105-5.575-5.787-1.081-2.729-1.034-5.435.14-8.116 1.178-2.683 3.109-4.541 5.789-5.576zm206.364 90.196c2.729-1.082 5.411-1.034 8.044.141l12.916 5.647c2.682 1.176 4.54 3.105 5.576 5.786 1.081 2.729 1.035 5.436-.143 8.116-.846 1.929-2.164 3.482-3.95 4.659a10.637 10.637 0 0 1-5.718 1.622c-1.412 0-2.823-.282-4.234-.846l-12.844-5.646c-2.684-1.177-4.565-3.105-5.646-5.788-1.082-2.728-1.036-5.434.141-8.115 1.177-2.683 3.129-4.541 5.858-5.576zM286.309 340.92l12.844 5.647c2.683 1.176 4.565 3.105 5.646 5.788 1.036 2.729.965 5.434-.212 8.115-.847 1.976-2.165 3.529-3.951 4.659a10.302 10.302 0 0 1-5.718 1.694c-1.506 0-2.894-.307-4.162-.918l-12.916-5.646c-2.684-1.176-4.541-3.106-5.576-5.788-1.082-2.73-1.036-5.434.142-8.116 1.176-2.635 3.104-4.495 5.787-5.577 2.728-1.081 5.433-1.034 8.116.142zm-38.747-16.867c2.681 1.176 4.563 3.105 5.646 5.788 1.083 2.729 1.035 5.434-.141 8.117-.846 1.929-2.187 3.48-4.021 4.657a10.62 10.62 0 0 1-5.718 1.624c-1.411 0-2.799-.283-4.164-.847l-12.916-5.647c-2.681-1.177-4.54-3.104-5.575-5.787-1.082-2.729-1.034-5.435.141-8.116 1.178-2.681 3.105-4.54 5.787-5.575 2.729-1.082 5.436-1.036 8.116.141l12.845 5.645zm361.137 157.808c2.682 1.176 4.541 3.129 5.575 5.857 1.083 2.729 1.036 5.41-.142 8.046-.847 1.976-2.164 3.529-3.953 4.657a10.28 10.28 0 0 1-5.715 1.694c-1.459 0-2.869-.305-4.234-.918l-12.846-5.575c-2.682-1.176-4.563-3.129-5.646-5.856-1.082-2.73-1.034-5.411.143-8.046 1.223-2.683 3.176-4.565 5.856-5.647 2.729-1.081 5.411-1.035 8.046.142l12.916 5.646zm-97.747-31.194c-.849 1.975-2.165 3.528-3.954 4.657a10.29 10.29 0 0 1-5.716 1.694c-1.458 0-2.869-.307-4.234-.918l-12.846-5.646c-2.681-1.177-4.563-3.105-5.646-5.786-1.033-2.729-.964-5.412.212-8.046 1.177-2.683 3.105-4.564 5.787-5.647 2.729-1.081 5.412-1.034 8.047.143l12.915 5.646c2.681 1.177 4.541 3.129 5.576 5.858 1.082 2.728 1.034 5.41-.141 8.045zm-78.34-22.726c-2.683-1.177-4.565-3.105-5.646-5.788-1.037-2.729-.965-5.434.211-8.116s3.105-4.541 5.788-5.575c2.729-1.083 5.435-1.035 8.115.142l12.845 5.646c2.684 1.176 4.54 3.105 5.574 5.787 1.084 2.729 1.037 5.435-.141 8.115-.846 1.931-2.163 3.483-3.951 4.66a10.624 10.624 0 0 1-5.717 1.623c-1.412 0-2.822-.282-4.234-.848l-12.844-5.646zm-24.842-22.373c-.849 1.977-2.165 3.528-3.953 4.658a10.3 10.3 0 0 1-5.717 1.693c-1.459 0-2.869-.307-4.234-.918l-12.844-5.646c-2.684-1.176-4.563-3.104-5.647-5.787-1.034-2.729-.965-5.435.213-8.116 1.178-2.634 3.104-4.492 5.786-5.575 2.73-1.082 5.435-1.034 8.117.142l12.844 5.646c2.683 1.176 4.541 3.105 5.576 5.787 1.081 2.73 1.033 5.434-.141 8.116zM221.659 725.489c2.589-1.364 5.272-1.623 8.048-.776 2.822.847 4.915 2.564 6.28 5.15 1.363 2.589 1.624 5.271.776 8.046-.847 2.776-2.563 4.848-5.152 6.213l-12.422 6.632c-1.599.849-3.245 1.271-4.941 1.271-1.926 0-3.715-.493-5.361-1.481a9.644 9.644 0 0 1-3.953-4.164c-1.365-2.588-1.623-5.271-.776-8.046.801-2.777 2.494-4.846 5.083-6.21l12.418-6.635zm57.733-27.243c2.823.848 4.917 2.564 6.281 5.152 1.364 2.54 1.622 5.199.776 7.976-.847 2.823-2.564 4.917-5.153 6.281l-12.42 6.634a10.63 10.63 0 0 1-4.939 1.2c-1.93 0-3.718-.47-5.364-1.411-1.741-1.035-3.059-2.425-3.953-4.165-1.363-2.586-1.622-5.27-.776-8.046.8-2.776 2.494-4.845 5.081-6.209l12.423-6.636c2.586-1.363 5.266-1.623 8.044-.776zm41.639-25.688c2.589-1.365 5.271-1.624 8.046-.776 2.823.8 4.894 2.494 6.21 5.08 1.364 2.589 1.647 5.27.848 8.046-.848 2.824-2.564 4.918-5.152 6.282l-12.421 6.634a10.639 10.639 0 0 1-4.94 1.199c-1.929 0-3.741-.494-5.435-1.481a10.343 10.343 0 0 1-3.953-4.093c-1.364-2.589-1.623-5.271-.774-8.046.846-2.824 2.563-4.894 5.15-6.211l12.421-6.634zm235.582-107.417a10.356 10.356 0 0 1-3.952-4.094c-1.364-2.587-1.623-5.27-.774-8.046.846-2.822 2.563-4.916 5.15-6.281l12.42-6.563c2.59-1.365 5.271-1.624 8.047-.777 2.823.8 4.895 2.494 6.211 5.082 1.363 2.588 1.647 5.269.847 8.045-.847 2.824-2.563 4.917-5.151 6.282l-12.422 6.563c-1.599.847-3.246 1.27-4.941 1.27-1.928 0-3.741-.494-5.435-1.481zm55.119-24.984c-1.927 0-3.739-.495-5.434-1.482-1.693-.989-3.012-2.377-3.951-4.165-1.365-2.54-1.624-5.198-.778-7.974.848-2.823 2.565-4.918 5.153-6.283l12.42-6.633c2.59-1.364 5.271-1.623 8.047-.777 2.823.848 4.895 2.564 6.212 5.152 1.364 2.589 1.646 5.271.847 8.046-.847 2.776-2.564 4.848-5.153 6.211l-12.421 6.634c-1.602.847-3.246 1.271-4.942 1.271zm-91.958 26.465c2.587-1.363 5.268-1.622 8.044-.775 2.775.848 4.847 2.54 6.212 5.082 1.364 2.586 1.646 5.269.846 8.044-.846 2.824-2.564 4.918-5.152 6.281l-12.42 6.634a10.635 10.635 0 0 1-4.94 1.201c-1.929 0-3.719-.495-5.365-1.483-1.739-.986-3.057-2.353-3.951-4.092-1.363-2.588-1.622-5.27-.776-8.046.8-2.823 2.494-4.895 5.08-6.211l12.422-6.635zm-149.057 79.399c2.588-1.365 5.27-1.622 8.046-.776 2.823.847 4.894 2.564 6.211 5.151 1.364 2.59 1.646 5.271.847 8.047-.847 2.823-2.564 4.893-5.153 6.21l-12.42 6.634c-1.601.848-3.246 1.271-4.94 1.271-1.929 0-3.74-.495-5.436-1.482a10.325 10.325 0 0 1-3.95-4.094c-1.366-2.588-1.625-5.269-.777-8.046.846-2.823 2.563-4.916 5.151-6.281l12.421-6.634zm99.369-52.932c2.59-1.365 5.271-1.624 8.048-.776 2.823.847 4.895 2.564 6.21 5.151 1.364 2.588 1.647 5.271.848 8.046-.848 2.775-2.563 4.846-5.152 6.211l-12.422 6.634a10.624 10.624 0 0 1-4.941 1.201c-1.927 0-3.717-.472-5.361-1.413-1.742-1.035-3.059-2.423-3.953-4.163-1.365-2.588-1.625-5.27-.776-8.047.801-2.775 2.494-4.846 5.083-6.209l12.416-6.635zm-49.684 26.467c2.589-1.366 5.27-1.624 8.045-.777 2.823.846 4.893 2.563 6.211 5.152 1.364 2.588 1.647 5.27.847 8.046-.847 2.774-2.564 4.845-5.151 6.211l-12.421 6.634c-1.6.846-3.247 1.27-4.94 1.27-1.931 0-3.717-.493-5.365-1.482a9.643 9.643 0 0 1-3.951-4.163c-1.363-2.541-1.622-5.199-.776-7.977.8-2.822 2.494-4.916 5.08-6.28l12.421-6.634z" fill="{{colors[2]}}"/></g></svg>