<svg xmlns="http://www.w3.org/2000/svg" viewBox="0 0 800 800" preserveAspectRatio="none"><path fill="{{colors[0]}}" d="M318.23 489.02c29.22-46.56 64.72-89.02 105.49-125.9 20.08-18.16 41.41-35.79 64.28-50.36 10.91-6.95 23.65-12.81 36.65-8.38 10.47 3.57 19.12 12.66 22.73 23.04 7.24 20.82-9.03 41.83-30.23 43.93-23.77 2.35-37.95-21.91-38.86-42.83-1.18-27.32 15.95-52.05 31.68-72.87 15.33-20.28 32.87-38.93 51.95-55.7 42.74-37.55 93.86-65.31 148.75-80.3 6.2-1.69 3.57-11.34-2.66-9.64-54.05 14.75-104.37 41.62-147.18 77.72-21.32 17.97-40.6 38.25-57.58 60.36-17.46 22.73-35.95 49.76-34.99 79.73.75 23.59 14.84 49.91 40.29 53.29 21.9 2.91 45.45-12.72 49.88-34.69 4.91-24.31-13.85-50.05-38.37-53.3-14.89-1.97-28.83 5.36-40.78 13.43-12.27 8.28-24.11 17.25-35.65 26.51-46.78 37.51-87.79 82.14-121.51 131.72-4.3 6.32-8.47 12.73-12.53 19.2-3.43 5.46 5.22 10.48 8.64 5.04zm71.66 146.29c30.41-19.82 64.86-33.06 100.85-38.12 15.95-2.24 35.32-3.47 48.93 6.84 11.15 8.44 17.87 26 7.21 37.48-5.12 5.51-12.87 8.7-20.31 9.24-6.25.45-14.59-.94-16.91-7.75-2.65-7.77 2.69-16.68 7.08-22.76 4.54-6.29 10.46-11.64 16.88-15.95 25.87-17.41 59.93-22.18 90.46-19.8 36.19 2.82 71.41 17.18 99.02 40.76 4.87 4.16 11.97-2.88 7.07-7.07-28.98-24.74-65.07-39.8-102.98-43.42-35.22-3.36-75.99 2.7-104.44 25.16-12.62 9.96-28.64 29.06-22.45 46.45 6.15 17.28 28.89 16.59 42.64 10.1 16.11-7.6 23.37-25.08 16.84-41.73-6.84-17.42-23.29-26.5-41.23-28.51-22.73-2.54-47.38 3.28-68.96 9.96-22.86 7.08-44.68 17.4-64.72 30.46-5.4 3.52-.39 12.18 5.02 8.66zm387.68 16c-4.44-5.36-8.88-10.71-13.32-16.07-1.74-2.1-5.27-1.76-7.07 0-2.08 2.04-1.71 5 0 7.07 4.44 5.36 8.88 10.71 13.32 16.07 1.74 2.1 5.27 1.76 7.07 0 2.08-2.03 1.71-5 0-7.07zm-41.32-542.8c9.28-2.66 18.68-4.65 28.24-5.99 6.35-.89 3.65-10.52-2.66-9.64-9.56 1.34-18.96 3.33-28.24 5.99-6.18 1.76-3.55 11.42 2.66 9.64zM210.09 420.92c-33.78-51.2-55.28-118.79-30.46-178.28 2.83-6.78 6.68-14.01 12.95-18.18 5.78-3.84 14.19-5.15 19.54.13 5.26 5.2 6.93 14.05 8.15 21.01 1.42 8.1 2.09 17.35.42 25.47-.56 2.71-1.75 6.69-5.16 6.78-3 .08-5.82-3.06-7.54-5.17-4.92-5.99-7.15-14.29-9.35-21.59-4.87-16.15-7.24-32.88-8.08-49.7-1.9-38.08 3.33-76.04 5.37-114.01.35-6.43-9.66-6.41-10 0-2.13 39.71-7.79 79.48-5.06 119.31 1.33 19.41 4.68 38.8 11.49 57.08 2.87 7.7 6.4 15.31 13.19 20.34 5.8 4.29 13.66 5.3 19.3.06 6.2-5.75 6.54-15.43 6.62-23.3.1-9.75-1.28-19.8-4.3-29.08-2.42-7.43-6.43-14.79-13.7-18.4-7.16-3.56-15.61-2.69-22.68.63-15.84 7.45-22.36 27.4-26.53 43.05-4.61 17.28-6.1 35.41-4.86 53.22 2.9 41.5 19.29 81.19 42.04 115.66 3.54 5.36 12.2.36 8.65-5.03zM199.46 58.84c.79-6.26 2.41-12.36 4.55-18.29 2.2-6.06-7.46-8.67-9.64-2.66-2.47 6.82-4 13.75-4.91 20.94-.34 2.7 2.54 4.97 5 5 2.98.04 4.66-2.32 5-4.99zM429.3 712.91c16.93-2.39 34.36.36 49.79 7.68 5.78 2.74 10.86-5.88 5.05-8.63-18.11-8.59-37.67-11.48-57.5-8.68-6.34.88-3.64 10.52 2.66 9.63zm-36.85-198.58c11.51-11.08 25.3-19.1 40.62-23.65 6.16-1.83 3.53-11.48-2.66-9.64a109.683 109.683 0 0 0-45.03 26.22c-4.65 4.47 2.43 11.54 7.07 7.07zm71.88-32.76c6.43 0 6.45-10 0-10-6.43 0-6.44 10 0 10zm34.99-7.92c15.84-5.55 32.23-8.27 49.01-8.06 6.44.08 6.44-9.92 0-10-17.6-.22-35.06 2.6-51.67 8.42-6.03 2.11-3.43 11.78 2.66 9.64zm84.59-11.85c6.43 0 6.45-10 0-10-6.44 0-6.45 10 0 10zm34.59-1.92c12.97-.3 25.75 1.01 38.37 3.99 6.26 1.48 8.93-8.16 2.66-9.64-13.46-3.18-27.2-4.66-41.03-4.35-6.43.14-6.45 10.14 0 10zm66.21 7.85h.99c1.28 0 2.63-.56 3.54-1.46.87-.87 1.52-2.29 1.46-3.54-.06-1.29-.48-2.63-1.46-3.54-.98-.9-2.18-1.46-3.54-1.46h-.99c-1.28 0-2.63.56-3.54 1.46-.87.87-1.52 2.29-1.46 3.54.06 1.29.48 2.63 1.46 3.54.98.89 2.18 1.46 3.54 1.46zM504.2 729c6.43 0 6.45-10 0-10-6.43 0-6.44 10 0 10zm27.1 9.28c15.05 2.31 28.84 8.5 42.52 14.91 5.79 2.71 10.88-5.91 5.05-8.63-14.43-6.75-29.04-13.48-44.91-15.92-6.3-.97-9.01 8.67-2.66 9.64zM602.42 765c6.43 0 6.45-10 0-10-6.43 0-6.45 10 0 10zM274.46 334.31c-10.79 20.5-8.91 43.74-6.33 65.98.73 6.32 10.74 6.39 10 0-2.34-20.21-4.88-42.22 4.97-60.93 2.99-5.69-5.64-10.75-8.64-5.05zm18.41-25.23c6.43 0 6.45-10 0-10-6.43 0-6.44 10 0 10zm21.23-91.41a117.449 117.449 0 0 0-18.07 44.13c-1.17 6.29 8.47 8.99 9.64 2.66 2.8-15.05 8.51-29.05 17.06-41.75 3.61-5.34-5.05-10.35-8.63-5.04zm19.69-19.05c6.43 0 6.45-10 0-10-6.44 0-6.45 10 0 10zM69.18 379.35c6.05 17.22 14.94 32.95 26.5 47.06 4.08 4.98 11.12-2.13 7.07-7.07-10.41-12.7-18.49-27.15-23.93-42.64-2.11-6.04-11.78-3.44-9.64 2.65zm-7.4-21.25c6.43 0 6.45-10 0-10-6.44 0-6.45 10 0 10zm-25.13-73.36c1.64 14.44 5.4 28.17 11.37 41.42 2.64 5.86 11.26.78 8.63-5.05a122.317 122.317 0 0 1-10.01-36.37c-.71-6.32-10.72-6.39-9.99 0zm-1.28-29.16c6.43 0 6.45-10 0-10-6.44 0-6.45 10 0 10zm321.26-86.33c5.78-11.31 13.12-21.47 22.1-30.45 4.55-4.56-2.52-11.63-7.07-7.07-9.53 9.55-17.52 20.46-23.66 32.48-2.93 5.71 5.7 10.77 8.63 5.04zm36.02-45.71c6.43 0 6.45-10 0-10-6.44 0-6.45 10 0 10z"/></svg>