<svg data-name="图层 1" xmlns="http://www.w3.org/2000/svg" viewBox="0 0 800 800" preserveAspectRatio="none"><path d="M134.41 385.22c20.94-25.57 42.53-51.45 70.32-69.89 12.64-8.4 26.52-15.12 41.29-18.78 14.27-3.55 31.42-5 43.39 5.21 5.51 4.73 9.74 12 8.79 19.53a19.24 19.24 0 0 1-3.93 9.5c-1.63 2-4 4.19-6.27 4.31l2.26.46c-4.19-2.58-1.9-8.63-.55-12.22 2.09-5.61 4.23-11.2 6.74-16.63 5-10.9 11.72-20.77 21.57-27.84 9-6.45 19.55-10.51 30.11-13.6a176.94 176.94 0 0 1 29.72-5.94 190.86 190.86 0 0 1 60.86 3.17 203.35 203.35 0 0 1 57.75 21.76 190.17 190.17 0 0 1 48.26 38.68q2.58 2.9 5 5.9c1.54 1.86 9.83-1.09 8.15-3.14-23.33-28.46-55.18-49.32-90-60.88a205.7 205.7 0 0 0-110.16-5.6c-19.49 4.45-40.31 11.52-54.75 25.95-7.38 7.37-12.5 16.67-16.61 26.17-2.09 4.83-4 9.75-5.79 14.7-1.24 3.43-2.49 8.24.07 11.4 1.55 1.92 3.71 1.8 6 1.52a25.51 25.51 0 0 0 8.13-2.5 22.71 22.71 0 0 0 9.45-8.9c4.67-8 3-17.35-2.41-24.47-13.55-17.74-40.23-14.35-59.08-9.24-43.93 11.89-77 44.67-105.38 78.55q-5.48 6.54-10.86 13.15c-1.25 1.52 1.08 1.9 2.17 1.86 1.81-.06 4.55-.69 5.78-2.19zm-12.85 47.96a71.62 71.62 0 0 0-45 19.32A60.24 60.24 0 0 0 63 471.29a26.62 26.62 0 0 0-2.71 13 16.56 16.56 0 0 0 4.41 9.76c5.43 5.92 14.06 8.23 21.62 10l1-2.64c-12.49 7.15-26.53 17.35-27.1 33.15-.26 7.27 2.63 14.24 7 20 4.74 6.24 11.4 10.57 18.69 13.31 8.88 3.34 18.5 4.26 27.93 4.23 1.85 0 4.54-.72 5.79-2.18s-1.16-1.8-2.16-1.8a72.6 72.6 0 0 1-21.92-3 41 41 0 0 1-18.24-11.33A32 32 0 0 1 69 535.35a26.17 26.17 0 0 1 6-18.4 45 45 0 0 1 8-7.71q2.31-1.75 4.74-3.33c.86-.56 1.73-1.11 2.61-1.64-.37.23.52-.31.66-.39l1.48-.85c.68-.4 3-2.16 1-2.64-6.3-1.44-13-3.17-18.15-7.24a16 16 0 0 1-5.44-7.3 18.9 18.9 0 0 1 .32-12.07c2.24-7 6.54-13.4 11.5-18.76a58.19 58.19 0 0 1 7.64-6.94q2.07-1.56 4.26-3l.63-.39.23-.14.39-.23.48-.28c.81-.46 1.62-.9 2.44-1.33s1.88-.94 2.84-1.38c0 0 .61-.26.18-.08l.52-.22 1.37-.55c.92-.36 1.85-.69 2.78-1 .2-.07.85-.27-.08 0l.71-.22 1.42-.41c1-.27 1.91-.51 2.87-.73h-.09l.73-.15 1.64-.29c1-.16 2-.29 2.93-.41h-.16l.92-.08c.56 0 1.11-.08 1.67-.11 1.88-.11 4.5-.67 5.79-2.18s-1.13-1.86-2.16-1.8zm514.93-67.61c1.52-.41 3.06-.78 4.61-1.08l1.16-.21c-1.06.19.23 0 .38-.06.91-.14 1.82-.25 2.73-.35 1.44-.15 2.89-.25 4.33-.31.79 0 1.58 0 2.37-.05h1.97.06a68.87 68.87 0 0 1 9.4 1.1c.78.14 1.55.3 2.32.48.39.08.77.18 1.16.27.1 0 .75.19.13 0q2.49.65 4.92 1.49a60.34 60.34 0 0 1 29.05 21.17 64.76 64.76 0 0 1 12.58 33.83c.82 13.21-2.81 25.55-8 37.5-6.11 14.08-14 27.35-19.27 41.79a2.73 2.73 0 0 0 1.7 3.65c5.73 1.76 11.53 1 17.16-.8 2.51-.79 5-1.71 7.5-2.51 1.28-.4 2.57-.78 3.89-1.09.51-.12 1-.22 1.56-.32-1.05.2.24 0 .38-.05l1.18-.12c.57 0 1.13 0 1.69-.06.72 0-1-.09.17 0l.74.07c.61.06 1.22.16 1.83.27l.72.16c-.8-.18.43.13.59.18a25.44 25.44 0 0 1 3.26 1.3c.67.31.28.14.13.06.33.17.65.37 1 .56.53.33 1 .67 1.53 1s1 .75 1.44 1.16c.19.16.37.33.55.5.85.77-.36-.45.4.41a22.65 22.65 0 0 1 2.27 2.9 14.31 14.31 0 0 1 1.36 2.55 21 21 0 0 1 1.15 3.82 14.8 14.8 0 0 1 .36 3.67 21.6 21.6 0 0 1-.41 4.17 11.79 11.79 0 0 1-.36 1.53c-.22.67-.45 1.33-.72 2a20.48 20.48 0 0 1-.9 1.89c-.12.23-.25.45-.38.67.29-.48-.46.66-.54.77-1.15 1.61-.84 3.76 1.2 4.47s4.86.16 6.15-1.65c6.67-9.36 6.49-22.83-1.76-31.22a26.55 26.55 0 0 0-14.81-7.67c-6-1-12 .56-17.65 2.5a89.56 89.56 0 0 1-8.8 2.73l-1.14.24c-1 .19.74-.06-.33 0-.76.07-1.51.16-2.27.17h-.76c1 0-.59-.08-.76-.1l-.76-.12-.75-.16c.38.09.35.08-.12-.06l1.71 3.65c9.43-25.86 28.42-49.63 27.85-78.33A69.8 69.8 0 0 0 711 387a67.09 67.09 0 0 0-30.71-25 71.86 71.86 0 0 0-45.51-2.78c-1.79.49-4.07 2.19-3.49 4.33s3.41 2.48 5.19 2zM61 274.93a129.11 129.11 0 0 1 40.38 30.66c1.11 1.25 6.6-.78 5.43-2.11a131.2 131.2 0 0 0-41.12-31c-1.14-.55-3 .1-4.07.65-.75.4-1.79 1.28-.62 1.84zm43.67-12.73a114.25 114.25 0 0 1 29.15 30.91 116.89 116.89 0 0 1 6 10.57c.71 1.44 6.27-.58 5.79-1.55a114.72 114.72 0 0 0-35.45-41.91c-.91-.66-2.81 0-3.74.31-.35.13-2.56 1.06-1.72 1.67zm424.44-25.33a74.5 74.5 0 0 1 18-23.78c1-.9-.89-1.18-1.43-1.15a6.4 6.4 0 0 0-3.86 1.44 76.63 76.63 0 0 0-18.41 24.43c-.5 1 2 .81 2.37.75 1-.17 2.85-.61 3.37-1.69zm9.24 20.62a107.39 107.39 0 0 1 31.2-20.38c.58-.25 1.89-1.13.71-1.52s-3 .28-4 .74a114 114 0 0 0-33.1 21.59c-1 .89.84 1 1.37 1a6.76 6.76 0 0 0 3.87-1.39zM617.31 325q22.07-16.64 44.94-32.17t46.47-29.91q13.32-8.1 26.85-15.84c.89-.51 1.62-1.7.49-2.36s-3-.1-4.11.52q-24 13.71-47.29 28.6t-45.82 30.9q-12.71 9-25.16 18.42c-.78.59-1.7 1.65-.48 2.36a4.47 4.47 0 0 0 4.11-.52zm37.28-1.71L702.31 303l13.47-5.74c.58-.25 1.87-1 .74-1.4s-3 .33-4 .77l-47.72 20.31-13.47 5.74c-.58.25-1.87 1-.74 1.4s3-.33 4.05-.77zm112.47 83.03a17.64 17.64 0 0 0 6.81-1.35c1.53-.65 3.78-1.88 4.66-3.4.65-1.13 1.08-2.54 0-3.61a6.88 6.88 0 0 0-4.7-1.54 17.55 17.55 0 0 0-6.82 1.36c-1.52.65-3.77 1.87-4.65 3.4-.65 1.12-1.08 2.54 0 3.6a6.88 6.88 0 0 0 4.7 1.54zM56.43 376.76a12.69 12.69 0 0 0 6.57-2.37c1.28-.94 3-2.72 3.08-4.45.28-4.5-4.5-5.35-7.94-5.35a12.62 12.62 0 0 0-6.56 2.41c-1.28.94-3 2.72-3.09 4.46-.27 4.49 4.5 5.34 7.94 5.34zM244 216.06a20.3 20.3 0 0 0 6.79-1.47c1.47-.56 3.76-1.56 4.79-2.88.63-.8 1.27-1.92.21-2.74-1.23-.95-3.07-.86-4.51-.86a20.29 20.29 0 0 0-6.79 1.46c-1.47.57-3.77 1.56-4.8 2.89-.62.8-1.27 1.91-.2 2.73 1.23.95 3.07.87 4.51.87z" fill="{{colors[0]}}"/></svg>