<svg data-name="图层 1" xmlns="http://www.w3.org/2000/svg" viewBox="0 0 635.8 635.8" preserveAspectRatio="none"><path d="M635.8 608.9v-35.8a26.8 26.8 0 1 1 0-53.6v-37.2a26.9 26.9 0 1 1 0-53.7v-37.1a26.9 26.9 0 1 1 0-53.7v-37.1a26.9 26.9 0 1 1 0-53.7v-37.2a26.8 26.8 0 1 1 0-53.6V119a26.9 26.9 0 1 1 0-53.7V26.8A26.9 26.9 0 0 1 608.9 0h-37.1a26.9 26.9 0 0 1-53.7 0H481a26.9 26.9 0 0 1-53.7 0h-37.1a26.9 26.9 0 0 1-53.7 0h-37.2a26.8 26.8 0 0 1-53.6 0h-37.2a26.9 26.9 0 0 1-53.7 0h-37.1A26.9 26.9 0 0 1 64 0H26.9A26.8 26.8 0 0 1 0 26.8v38.5A26.9 26.9 0 1 1 0 119v37.2a26.8 26.8 0 1 1 0 53.6V247a26.9 26.9 0 1 1 0 53.7v37.1a26.9 26.9 0 1 1 0 53.7v37.1a26.9 26.9 0 1 1 0 53.7v37.2a26.8 26.8 0 1 1 0 53.6v35.8a26.8 26.8 0 0 1 26.9 26.8H64a26.9 26.9 0 0 1 53.7 0h37.1a26.9 26.9 0 0 1 53.7 0h37.2a26.8 26.8 0 0 1 53.6 0h37.2a26.9 26.9 0 0 1 53.7 0h37.1a26.9 26.9 0 0 1 53.7 0h37.1a26.9 26.9 0 0 1 53.7 0h37.1a26.9 26.9 0 0 1 26.9-26.8z" fill="{{colors[0]}}"/><rect x="43.6" y="45.9" width="551.5" height="544.04" rx="17.6" fill="none" stroke="{{colors[1]}}" stroke-linecap="round" stroke-miterlimit="10" stroke-width="3.08" stroke-dasharray="21"/></svg>