<svg data-name="图层 1" xmlns="http://www.w3.org/2000/svg" viewBox="0 0 610.6 610.6" preserveAspectRatio="none"><path d="M383.9 70c0 81.5-48.4 202.4-78.6 202.4S226.8 151.5 226.8 70c0-48.1 10.1-59.8 30.7-68.1S284.9 19 305.3 19C324 19 328-2.3 350.6.2s33.3 19 33.3 69.8z" fill="{{colors[0]}}"/><path d="M194.5 83.4C252.1 141 303.4 260.6 282 282s-141-30-198.6-87.5c-34-34.1-35.1-49.4-26.4-70s31.5-7.2 45.9-21.6.9-31.1 18.7-45.4 36.9-10.1 72.9 25.9z" fill="{{colors[0]}}"/><path d="M70 226.7c81.5 0 202.4 48.4 202.4 78.6S151.5 383.8 70 383.8c-48.1 0-59.7-10.1-68.1-30.7S19 325.7 19 305.3C19 286.6-2.3 282.6.2 260s19-33.3 69.8-33.3z" fill="{{colors[0]}}"/><path d="M83.4 416.1C141 358.5 260.7 307.2 282 328.6s-29.9 141-87.5 198.6c-34 34-49.4 35.1-70 26.4s-7.2-31.5-21.6-45.9-31.1-.9-45.4-18.7-10.1-36.9 25.9-72.9z" fill="{{colors[0]}}"/><path d="M226.7 540.6c0-81.5 48.4-202.4 78.6-202.4s78.5 120.9 78.5 202.4c0 48.1-10 59.8-30.7 68.1s-27.4-17.1-47.8-17.1c-18.7 0-22.6 21.3-45.3 18.8s-33.3-19-33.3-69.8z" fill="{{colors[0]}}"/><path d="M416.1 527.2c-57.6-57.6-108.9-177.3-87.5-198.6s141 30 198.6 87.5c34 34 35.1 49.4 26.4 70s-31.5 7.2-45.9 21.6-.9 31.1-18.7 45.4-36.9 10.1-72.9-25.9z" fill="{{colors[0]}}"/><path d="M540.6 383.9c-81.4 0-202.4-48.4-202.4-78.6s121-78.5 202.4-78.5c48.1 0 59.8 10 68.1 30.7s-17.1 27.4-17.1 47.8c0 18.7 21.3 22.7 18.8 45.3s-18.9 33.3-69.8 33.3z" fill="{{colors[0]}}"/><path d="M527.2 194.5C469.6 252.1 350 303.4 328.6 282s30-141 87.5-198.6c34.1-34 49.4-35.1 70-26.4s7.2 31.5 21.6 45.9 31.1.9 45.4 18.7 10.1 36.9-25.9 72.9z" fill="{{colors[0]}}"/></svg>