<svg version="1.1" xmlns="http://www.w3.org/2000/svg" x="0" y="0" width="800" height="800" xml:space="preserve" preserveAspectRatio="none" viewBox="0 0 800 800"><path fill="{{colors[0]}}" d="M333.254 345.641c-7.786-28.382-32.925-46.45-59.726-55.454-1.521-6.253-4.036-12.199-8.292-16.516-4.478-4.541-10.823-6.795-17.13-5.371a19.992 19.992 0 0 0-4.865 1.796l-.081.035c-1.044-2.142-2.079-4.289-3.149-6.418-6.504-12.943-13.617-20.652-27.287-26.048-11.665-4.604-22.962-5.588-33.521 2.167-9.512 6.988-18.658 14.543-27.835 22.01-6.91-.385-13.728 3.552-18.75 8.524-9.784 9.687-14.353 22.246-14.642 35.396-8.769-2.475-18.924 2.202-24.164 11.047-4.697 7.93-4.648 17.261-2.231 25.901-.547.153-1.087.316-1.621.491-1.575-.145-3.255.019-5.038.661-19.458 7.018-23.8 30.921-9.554 45.563 10.48 10.771 25.45 13.418 39.694 11.306-4.937 8.802-5.85 19.47-.729 29.148a27.217 27.217 0 0 0 6.403 8.002c-1.018 1.777-1.622 3.936-1.615 6.49.034 13.701 8.17 23.258 18.971 30.764 13.089 9.094 27.966 16.182 41.834 24.023 7.789 4.404 15.158.072 18.136-6.188.342.182.682.367 1.025.547-5.522 4.652-6.614 11.785-3.221 19.672 3.75 8.721 18.619 8.34 22.501 0 6.28-13.492 22.85-14.666 29.049-27.654.999-2.09 1.708-4.4 2.231-6.84 11.124-.273 21.911-4.979 29.483-13.652 2.306-2.641 4.041-5.428 5.392-8.309 18.229-6.258 24.843-22.066 24.887-39.994 23.321-12.213 30.298-47.574 23.845-71.099"/><path fill="{{colors[1]}}" d="M577.197 258.654c-3.1-1.563-6.186-1.322-8.563.072-11.594-5.261-22.918-6.588-35.596-3.997-2.105.431-3.82 1.212-5.188 2.235-5.768 1.619-11.291 4.091-16.623 6.924-5.834-7.786-16.992-9.423-26.498-5.902-5.334 1.976-9.604 5.394-14.334 8.421-5.355 3.425-7.736 2.038-13.963 1.971-11.941-.128-21.279 6.562-26.787 16.25-5.348 3.388-8.574 10.111-4.498 17.19 3.752 6.519 9.018 10.74 14.703 14.333-.436.793-.627 1.756-.424 2.852.758 4.081 3.348 4.817 6.332 4.568a27.847 27.847 0 0 0 2.242 2.825c1.93 2.123 4.297 3.847 6.684 5.419 1.037.637 2.078 1.266 3.121 1.889.383.297.672.499.916.663 2.359 4.039 6.08 6.956 10.652 7.251 1.922 4.712 2.836 9.86 3.195 14.93.309 4.362.176 8.773-.113 13.132-.133 1.906-.32 3.807-.529 5.706a60.718 60.718 0 0 1-2.848 3.046c-8.014 7.964-2.693 18.601 6.066 21.284a57.555 57.555 0 0 0 5.883 15.526c.592 1.074 1.414 1.756 2.324 2.166.1.982.203 1.965.305 2.949.119 1.146.596 2.277 1.365 3.1v.006c-2.369 1.463-2.514 4.135-2.107 6.658a54.923 54.923 0 0 0-1.75 7.393c-.504 1.486-1.004 2.977-1.441 4.496-.148.516.053.91.387 1.131-.043.193-.105.365-.146.563-.275 1.365 1.816 1.949 2.094.578.049-.316.148-.619.211-.93.449.105.953-.021 1.182-.467 1.885-3.656 3.613-9.145 6.861-11.65 1.477-1.141 3.006-1.322 4.119-2.67.141.057.285.059.43.066.471.291 1.094.264 1.381-.389.654-1.484.994-2.996.953-4.625-.02-.787-.719-1.117-1.32-1.014.023-.123.033-.26.066-.373.514-1.873 2.381-2.969 2.959-4.459.279-.727.455-1.006.521-1.344 1.08.672 2.49-.764 1.422-1.592l-1.977-1.531a6.635 6.635 0 0 0-.094-.873c-.27-1.486-.986-2.635-2.074-3.502.287-.162.496-.453.479-.895a23.316 23.316 0 0 1 .188-3.979c.08-.598-.291-.918-.742-.996a9.155 9.155 0 0 0 .617-4.27c.373.075.773-.063 1.029-.536 1.021-1.883 2.334-3.496 3.873-4.978.098-.091.211-.209.32-.318 1.441-.701 2.705-1.751 3.596-3.155.52-.301 1.027-.489 1.494-.478a.949.949 0 0 0 .68-.242c4.982 1.612 10.498-1.578 11.268-8.031.326-2.729 3.467-4.448 5.621-6.468a71.725 71.725 0 0 1 4.771-1.137c.828-.161 1.016-1.266.48-1.813-.457-.471-.982-.697-1.627-.769-.406-.045-.883.029-1.318-.001.531-1.613.816-3.436.77-5.003-.145-4.918-2.102-8.479-.605-13.605 1.273-4.369 3.797-8.264 6.313-11.995 4.459-6.619 9.508-12.719 12.746-20.083 1.574-3.581 2.559-7.007 3.113-10.875.119-.835.168-5.338.383-7.326 6.627-6.363 14.479-11.46 23.236-14.75 6.811-2.558 16.244-2.829 18.602-11.143 2.829-9.985-7.76-13.887-14.788-17.429"/><path fill="{{colors[0]}}" d="M499.684 523.379c1.156.75 2.434.074 2.725-1.209.266-1.154.014-2.541-.689-3.5-.547-.744-1.285-1.371-1.934-2.029l-2.176-2.211c-1.424-1.443-2.846-2.889-4.27-4.334l-4.834-4.908c-.98-.998-2.518.537-1.535 1.535a40693.915 40693.915 0 0 1 11.44 11.615c.574.582 1.373 1.207 1.689 1.834.195.389.266.855.229 1.346-.012.135-.014.145-.002.025a2.047 2.047 0 0 1-.047.191c-.068.193.107-.047-.029.059.16-.125.24-.262.479-.252.219.012.289.117.051-.037-1.177-.762-2.267 1.117-1.097 1.875"/><path fill="{{colors[0]}}" d="M505.717 505.939c-1.279-.609-4.061-1.377-4.918-2.508-.77-1.018-.695-2.855-.842-4.086-.613-5.133-1.848-9.826-5.91-13.367-3.264-2.846-9.08-4.932-13.494-4.768-1.572.059-.557-.777-.43.346.145 1.307.492 1.584.709.129.346-2.307.494-4.457 1.355-6.689 1.941-5.047 8.215-8.6 8.215-14.16 0-6.555-6.135-11.35-12.467-10.367-6.555 1.018-9.904 7.148-9.762 13.357.139 6.006 3.033 11.408 6.873 15.838 7.344 8.459 19.586-3.873 12.287-12.285-1.174-1.352-2.148-3.184-1.508-4.801l-2.234 3.836-.117.086-4.385 1.186-.455.039-3.832-2.234.611.627c-.746-1.277-1.49-2.555-2.234-3.832l.16.861 2.234-8.451c-10.326 9.768-20.619 35.91-1.686 42.66 2.82 1.006 5.852 1.148 8.752 1.83-.65-.154-.332-2.816-.143.045.084 1.27.352 2.615.51 3.883 1.127 8.994 5.961 14.033 13.941 17.826 4.234 2.014 9.375 1.172 11.885-3.117 2.215-3.786 1.141-9.862-3.115-11.884"/><path fill="{{colors[0]}}" d="M489.061 466.979c5.65-11.238 13.604-18.912 23.176-26.82 9.814-8.107 15.584-22.549 5.506-32.977-5.629-5.824-14.174-.979-14.828 6.143-.281 3.072-1.539 6.168-3.508 8.555 4.549 3.508 9.096 7.018 13.645 10.527 1.885-3.123 2.754-6.35 2.732-10.01-.035-6.119-5.492-9.27-10.996-8.375-5.912.963-10.488 6.711-8.68 12.756 1.861 6.219 8.932 8.049 14.275 5.297 2.486-1.279 4.576-4.656 4.303-7.5a35.012 35.012 0 0 0-.045-.455c-.449-4.67-3.67-8.686-8.688-8.686-4.348 0-9.135 3.988-8.684 8.686l.043.455c1.434-2.5 2.867-5 4.303-7.5-.139.07-.275.141-.414.213l4.385-1.186-.596-.035 4.383 1.186c-.168-.096-.336-.189-.506-.285 1.332 1.73 2.662 3.461 3.992 5.191-.047-.18-.094-.359-.143-.539-.293 2.23-.584 4.463-.875 6.695.186-.293.373-.582.559-.873l-3.117 3.117.123.215-10.996-8.377c.182.496.063.908-.361 1.24-4.963 8.225 7.238 18.291 13.643 10.527 5.139-6.23 7.857-12.789 8.596-20.84l-14.83 6.143c3.287 3.396-11.75 13.342-13.783 15.213-7.225 6.654-13.209 14.766-17.615 23.531-5.009 9.963 9.971 18.769 15.001 8.768"/><path fill="{{colors[0]}}" d="M509.32 399.927l-.754.106h4.617c1.127.177 2.76 2.14 3.047 3.195.777 2.855-1.381 2.805-2.1 4.879-.25.725-.965-.756-.072.104.105.102.541-.01 1.121.113 3.984.842 7.549 2.332 11.723 2.357 11.182.072 11.193-17.3 0-17.373-4.146-.026-8.072-2.368-12.348-2.474-4.914-.121-9.813 1.729-12.881 5.644-3.152 4.021-3.459 9.705-1.049 14.193 2.771 5.16 7.785 6.779 13.313 6.01 4.652-.648 7.195-6.584 6.068-10.686-1.376-5.006-6.021-6.715-10.685-6.068"/><path fill="{{colors[0]}}" d="M518.906 414.227c3.939-2.701 6.791-6.139 8.764-10.488 1.387-3.06 2.613-7.655 4.283-9.79 1.428-1.829 3.701-.83 5.428 1.329 2.873 3.593 3.346 9.261 4.088 13.609.789 4.629 6.486 7.223 10.686 6.068 4.896-1.346 6.857-6.043 6.066-10.686-1.295-7.596-3.162-15.436-8.555-21.277-4.902-5.307-12.318-8.383-19.52-7.13-6.289 1.096-11.203 5.44-14.074 11.039-1.723 3.363-3.449 10.618-5.934 12.322-3.865 2.649-5.605 7.629-3.117 11.885 2.241 3.831 7.999 5.783 11.885 3.119"/><path fill="{{colors[0]}}" d="M550.131 398.902c-.32 1.18-1.688 1.113-2.041 1.843-.984-.571-.887-.362.293.63.287.537.584 1.068.889 1.596 1.623 2.922 2.385 6.504 3.119 9.727 1.764 7.746 1.842 15.889.365 23.688-.871 4.605 1.283 9.371 6.066 10.686 4.242 1.164 9.809-1.436 10.688-6.068 2.855-15.082 2.039-31.516-4.639-45.566-2.951-6.211-8.406-11.513-15.561-12.001-7.242-.494-14.006 3.718-15.934 10.849-2.917 10.804 13.839 15.415 16.755 4.616"/><path fill="{{colors[0]}}" d="M522.02 397.103c9.213 30.131 20.389 59.602 33.311 88.334 1.924 4.279 8.143 5.307 11.885 3.117 4.402-2.574 5.049-7.59 3.115-11.885-12.303-27.361-22.787-55.498-31.557-84.185-3.26-10.66-20.036-6.114-16.754 4.619"/><path fill="{{colors[0]}}" d="M540.947 409.096c2.598 13.348 7.1 26.133 13.139 38.307 1.898 3.83 7.146 5.182 10.848 3.553 4.121-1.811 5.904-5.887 5.029-10.246l-2.045-10.184c-.922-4.602-6.391-7.246-10.686-6.066-4.793 1.316-6.992 6.07-6.066 10.686l2.045 10.184 15.875-6.693c-5.375-10.836-9.078-22.291-11.385-34.156-.896-4.608-6.41-7.244-10.686-6.068-4.814 1.32-6.966 6.062-6.068 10.683"/><path fill="{{colors[0]}}" d="M565.178 424.838c-1.867.801-.119-.117.65.42.855.598 1.592.912 2.234 1.758 1.6 2.104 1.791 5.254 1.857 7.781.229 8.484-1.273 16.496.691 24.922 2.535 10.885 19.289 6.277 16.752-4.617-1.383-5.932-.16-12.076-.059-18.086.094-5.688-.684-11.375-3.125-16.551-5.066-10.75-17.004-15.254-27.77-10.629-4.313 1.852-5.277 8.191-3.117 11.885 2.609 4.457 7.559 4.974 11.887 3.117"/><path fill="{{colors[0]}}" d="M571.016 458.721c4.463-.027 8.363.982 12.223 3.217 8.363 4.834 17.961-6.844 10.527-13.645-2.549-2.33-5.098-4.662-7.646-6.994-2.047 4.943-4.094 9.887-6.143 14.83 2.783-.102 4.527 2.488 5.053 5.086 1.09 5.379-2.33 11.59-4.553 16.242-2.02 4.229-1.168 9.377 3.117 11.885 3.791 2.217 9.855 1.135 11.885-3.117 4.545-9.52 9.299-20.42 5.822-31.096-3.018-9.264-11.215-16.74-21.324-16.373-7.152.26-11.934 9.531-6.141 14.828l7.645 6.994c3.51-4.547 7.018-9.096 10.527-13.643-6.461-3.736-13.529-5.635-20.992-5.588-11.174.069-11.2 17.442 0 17.374"/><path fill="{{colors[0]}}" d="M589.709 464.611c-2.684-.104-.553-1.268-.639.047-.023.354-.369-1.082-.088.67.363 2.266-1.033 5.205-1.723 7.289-1.475 4.453 1.709 9.488 6.066 10.686 4.729 1.299 9.207-1.598 10.686-6.066 2.08-6.277 3.48-12.945.846-19.287-2.643-6.357-8.242-10.439-15.148-10.711-11.18-.436-11.162 16.939 0 17.372"/><path fill="{{colors[0]}}" d="M588.732 488.252c3.211 1.293 4.992 6.008 4.385 8.898-.961 4.586 1.348 9.389 6.068 10.686 4.313 1.184 9.717-1.455 10.686-6.066 2.768-13.201-4.191-25.297-16.52-30.271-4.352-1.756-9.545 1.912-10.686 6.066-1.362 4.96 1.7 8.923 6.067 10.687"/><path fill="{{colors[0]}}" d="M492.252 507.477c-.756 15.115 14.043 20.758 26.361 22.672 14.188 2.205 28.379 4.76 42.641 6.455 12.484 1.482 25.844.33 35.553-8.463 8.943-8.098 11.971-20.211 7.051-31.217-1.916-4.283-8.148-5.301-11.885-3.115-4.408 2.578-5.039 7.584-3.115 11.883 1.857 4.158-2.84 9.453-6.105 11.416-6.951 4.182-16.451 2.875-24.064 1.77-9.998-1.453-19.969-3.084-29.949-4.629-3.959-.613-19.414-.779-19.113-6.771.557-11.177-16.816-11.146-17.375-.001"/><path fill="{{colors[0]}}" d="M597.035 482.23c1.854.219.619.27-.033-.697a34.496 34.496 0 0 1-1.662-2.695c-1.426-2.604-2.543-5.361-3.998-7.947-3.262-5.785-7.723-11.086-12.752-15.412-5.152-4.432-10.828-8.232-16.918-11.246-5.502-2.723-11.623-4.268-16.99-7.195-2.428-1.324-2.846-2.17-3.842-4.639-1.434-3.547-3.824-6.408-7.432-7.893-7.271-2.994-14.465.945-20 5.535-11.074 9.189-20.559 20.676-28.02 32.953-3.703 6.098-9.629 14.453-7.719 21.91 1.951 7.607 8.66 7.834 14.311 10.734 3.988 2.049 6.641 6.92 9.281 10.451 3.854 5.158 8.037 10.115 13.977 12.938 6.953 3.307 14.592 3.891 22.166 4.439a548.025 548.025 0 0 0 25.238 1.242c7.783.201 17.902 1.979 23.604-4.574 4.467-5.133 4.346-13.787 3.516-20.166-1.9-14.631-11.031-27.686-24.488-33.936-6.018-2.793-12.586-4.531-18.32-7.91-5.955-3.51-6.863-9.176-7.4-15.658-.588-7.109-9.279-11.955-14.828-6.143l-21.688 22.715c-5.891 6.17-17.578 14.447-14.68 24.26 1.625 5.508 5.816 5.752 9.998 8.193 3.078 1.795 5.598 4.326 8.111 6.824 5.555 5.514 11.08 11.322 18.326 14.604 8.422 3.814 17.648 4.58 26.795 4.145 9.508-.451 21.219-1.209 22.42-13.102.465-4.613-1.023-8.678-3.336-12.613-.764-1.303-1.664-2.521-2.084-3.953-.691-2.34-.672-4.457-1.977-6.695-2.082-3.574-5.748-5.732-9.676-6.699-4.045-.996-7.047-1.566-10.711-3.76-8.936-5.354-18.814-13.383-29.807-12.92-11.553.484-19.836 10.229-17.988 21.549.607 3.715 4.863 6.365 8.377 6.379 7.619.027 14.133 4.184 20.461 7.994 7.918 4.77 15.813 9.576 23.719 14.367.693-5.293 1.385-10.584 2.076-15.877-11.568 1.965-22.807-3.637-29.811-12.645-2.883-3.705-9.258-3.027-12.285 0-3.66 3.658-2.891 8.568 0 12.283 11.014 14.166 29.35 20.063 46.715 17.113 7.709-1.309 7.984-12.297 2.074-15.877-8.813-5.338-17.57-10.777-26.449-16.004-8.176-4.809-16.85-8.693-26.5-8.729l8.377 6.377c.387 2.365.039.205 1.234.441 3.318.65 5.559 1.27 8.631 3.045 5.691 3.291 11.119 7.258 17.064 10.078 3.059 1.453 5.801 2.086 9.064 2.715l1.141.221c1.787.639 1.551.211-.709-1.285-.447.152.158 2.273.225 2.549.74 3 2.389 5.443 3.836 8.1.08.148 1.373 2.66 1.234 2.588-1.855-.943 5.398-3.086.844-3.432-5.838-.447-11.707 1.021-17.621.215-5.211-.711-9.816-2.719-13.813-6.117-8.82-7.512-15.471-16.742-27.07-20.234 2.02 2.023 4.043 4.047 6.066 6.068l.01.148c-.395 1.463-.789 2.924-1.186 4.385 1.293-3.066 4.555-5.469 6.85-7.871l8.674-9.086 17.35-18.172-14.826-6.143c.775 9.41 2.297 18.773 9.371 25.664 5.998 5.84 14.002 8.535 21.625 11.52 6.363 2.492 11.969 5.807 15.602 11.773 1.893 3.109 3.197 6.465 3.77 10.076.404 2.545.854 6.959-.625 8.99l3.115-3.115c.568-.393.596.053-.664.141-1.488.105-3.021-.02-4.514-.039a552.386 552.386 0 0 1-22.549-.752c-7.822-.424-19.305.58-26.049-4.174-5.205-3.672-8.338-10.289-12.418-15.047-2.285-2.662-5.016-5.156-8.098-6.863-1.629-.904-3.428-1.621-5.193-2.205-.924-.305-3.037-1.107-2.965-1.02l2.232 3.832c-.584 1.918-.477 1.936.32.053a127.648 127.648 0 0 1 9.486-16.054c4.01-5.785 8.615-11.133 13.611-16.092 2.471-2.451 5.131-5.381 8.045-7.328.486-.322 1.492-.498 1.646-1.025-.406 1.387-3.195-4.342-2.631-.566 1.068 7.123 9.852 11.719 15.699 14.117 11.623 4.77 22.754 9.439 31.16 19.232 3.891 4.533 5.771 10.043 8.787 15.1 3.777 6.336 8.703 10.055 16.088 10.922 4.666.549 8.686-4.385 8.686-8.688.003-5.149-4.003-8.134-8.683-8.685"/><path fill="{{colors[0]}}" d="M537.018 423.352c-4.656-3.994-6.643-8.777-6.174-14.906h-17.375l4.906 38.947c.586 4.652 3.572 8.686 8.688 8.686 4.238 0 9.275-4 8.686-8.686l-4.904-38.947c-1.375-10.926-16.502-11.394-17.375 0-.779 10.203 3.498 20.527 11.262 27.189 3.561 3.053 8.791 3.496 12.287 0 3.124-3.125 3.573-9.215-.001-12.283"/><path fill="{{colors[2]}}" d="M773.203 323.704c-.117-8.207-2.902-16.466-8.363-23.434-5.428-6.926-12.703-11.268-20.551-14.782-.281-.237-.549-.484-.857-.695-7.336-5.025-13.963-10.85-20.055-17.326-.219-.231-.451-.389-.676-.589-1.719-3.681-3.742-7.232-6.193-10.581-4.531-6.194-10.619-12.475-18.143-14.783-3.748-1.151-7.74-1.317-11.553-.268-1.541.423-3.805 1.835-6.092 3.079a60.6 60.6 0 0 0-9.205 1.559 9.146 9.146 0 0 0-3.516-.972c-.426-.033-.848-.028-1.271-.055-3.74-.97-7.324-1.744-7.922-1.788-7.125-.501-14.586.429-21.482 2.199-13.426 3.447-25.275 10.761-34.934 20.61-1.674 1.706-2.389 3.607-2.465 5.469-2.945 3.067-5.719 6.339-8.242 9.848a53.898 53.898 0 0 0-27.447 11.704c-2.717.634-5.26 1.906-7.635 3.923-3.533 2.999-5.623 7.562-5.834 12.17a55.83 55.83 0 0 0-6.859 23.29 47.69 47.69 0 0 0-5.051 4.527c-8.947 9.287-16.705 24.15-7.434 35.573 1.76 2.168 5.143 2.908 7.988 2.333 1.465 2.979 3.861 5.559 6.982 7.399 6.086 3.591 14.998 2.698 19.893 6.613-.254 1.133-.318 2.307-.086 3.475.758 3.822 2.188 6.684 4.389 9.488.002.381.025.756-.02 1.152.031 3.502 2.65 7.734 6.377 8.377 13.244 2.279 4.455 22.156 12.822 29.795 4.527 4.135 9.914 4.254 13.531 9.928 3.721 5.842 4 13.398 4.037 20.334-1.453.334-2.703 1.375-3.127 2.912-.584 2.131.717 4.607 2.92 5.141.561.137 1.119.271 1.678.408.303 1.451 1.014 2.896 2.313 4.225 3.496 3.576 3.432 7.912 5.545 12.15 2.619 5.26 7.316 10.063 10.857 14.686 5.822 7.596 11.754 18.539 21.092 22.234 10.064 3.984 20.186-.951 28.539-8.451 8.291 3.09 19.158.844 26.111-6.682 4.865-5.27 8.264-12.1 10.617-19.631 8.283-1.58 11.861-11.807 13.838-21.172.383-.152.766-.279 1.152-.492a30.523 30.523 0 0 0 4.162-2.734c5.086-2.09 9.076-6.363 11.303-11.422 2.523-5.746 2.492-11.746 1.801-17.766.588-11.426-1.881-23.477-5.359-33.014 4.395.309 8.879.043 13.426-.979 16.736-3.762 40.396-20.22 41.52-38.812 1.049-17.379-6.968-38.988-22.521-48.173M138.316 480.787c-.258-.613-.581-1.184-.885-1.768.133-1.27.229-2.541.27-3.822.018-.553-.315-.879-.723-.992a1.727 1.727 0 0 0-.871-.715c-.881-.35-1.604-.133-2.175.346-1.687-1.854-3.682-3.414-6.006-4.557-4.544-5.688-9.542-12.348-9.608-19.875-.032-3.924 2.518-7.846.989-11.648-.907-2.256-2.721-3.705-4.612-5.104l-3.795-16.867c.649.324 1.654-.049 1.627-.939a40.026 40.026 0 0 1 .292-6.088c.7-1.025.845-2.225.555-3.35.258-1.213.558-2.424.933-3.635.267-.86-.567-1.462-1.336-1.334-3.599.592-7.22.903-10.87.819-2.854-.064-7.716.26-9.98-1.749-.497-.44-1.101-.315-1.49.028l-17.492-8.707c.164-.354.141-.786-.234-1.142-2.815-2.674-4.973-5.86-6.347-9.495-.193-.511-.636-.723-1.073-.724a29.599 29.599 0 0 1-1.293-9.162c.14-8.278 3.53-16.699 9.852-22.19 4.325-3.756 9.918-5.874 12.72-11.184 3.556-6.737 1.909-13.433 7.63-19.524 4.101-4.366 9.369-7.494 13.81-11.479.177-.16.348-.324.523-.485h1.917c2.272 0 4.447-1.997 4.343-4.342a4.735 4.735 0 0 0-.574-2.03c.991-1.439 1.854-2.968 2.533-4.615 2.33-5.662.688-15.549 5.948-19.241.22-.155.402-.328.582-.501.928-.067 1.829-.428 2.56-1.212.219-.233.436-.469.655-.703 1.63-1.75 1.664-4.388 0-6.142-7.332-7.729-30.4-.748-38.964 1.987-15.273 4.877-29.414 13.414-40.758 24.761-11.014 11.016-21.273 26.034-23.464 41.755-.791 5.673-.604 11.389-.595 17.111-6.05.684-10.655 8.758-13.242 13.911-5.62 11.196-7.962 24.21-5.905 36.618 3.41 20.563 19.126 36.8 38.869 41.198 3.048 6.701 6.795 13.156 12.219 15.973 3.8 1.973 8.143 1.682 12.263 2.076 7.538.721 11.691 5.229 15.292 10.916-.218.93-.09 1.971.599 3.037 7.997 12.373 23.97 17.271 37.291 11.826 2.861 3.453 7.949 3.93 11.497.352.235-.236.433-.479.631-.723.96.447 1.86-.254 2.409-1.26.151-.023.295-.023.452-.066 2.035-.561 3.945-3.166 3.031-5.344"/><path fill="{{colors[3]}}" d="M478.604 440.43c3.227-10.775 3.057-21.176-.635-31.816-.672-1.934-2.238-2.844-3.855-2.961-2.943-7.29-7.121-14.144-12.471-20.38-.131-.153-.271-.27-.41-.396 7.793-7.441 11.713-18.64 9.756-29.813-2.846-16.242-16.699-27.26-31.957-31.315a64.818 64.818 0 0 0-11.566-16.521c-7.355-7.642-25.488-22.33-36.619-15.632a4.653 4.653 0 0 0-.864.679c-3.458-1.053-6.897-2.26-10.418-2.73-5.053-.673-10.311-.245-15.209 1.184-5.182 1.512-8.689 5.004-13.354 7.188-3.563 1.669-6.314 1.089-8.958-.131-2.288-1.956-5.074-3.28-8.432-4.009-1.655-.36-3.013.143-3.957 1.051-5.614-1.225-11.329-.323-16.878 4.329-1.993 1.67-1.715 3.875-.433 5.409a4.62 4.62 0 0 0 1.855 3.724c.369.518.897.975 1.66 1.308.176.076.335.166.508.243.338 3.328 2.103 5.632 5.094 8.522.491.473.989.923 1.489 1.365 8.154 18.675 15.482 36.794 10.464 58.011-2.44 10.318-6.029 22.239-13.763 29.87-5.266 5.191-12.021 6.377-10.838 14.699.072.506.34 1.006.708 1.467-1.82 4.992-2.935 10.563-3.555 12.039-2.469 5.891-6.231 9.828-10.375 13.656a4.453 4.453 0 0 0-1.586.434c-.659.316-1.282.666-1.879 1.037-.872-.17-1.807-.031-2.704.59-3.727 2.588-5.89 6.268-5.543 10.898.017.236.06.457.105.672-1.14 2.293-2.274 4.684-3.606 6.721-1.427.008-2.76.813-3.682 2.049l-1.466 1.967a3.035 3.035 0 0 0-.433.84c-.049.016-.094.037-.143.051-2.98.861-4.435 5.037-1.917 7.26 8.682 7.662 17.119 15.838 26.213 23.002 3.721 2.93 9.288 4.775 13.641 7.551.016.066.02.127.039.193 3.39 11.674 8.95 23.68 22.781 24.281 8.358.363 16.938-2.924 25.165-7.104 5.585 4.705 14.038 4.605 19.743.541 1.452.361 3.079.08 4.182-1.037a56.117 56.117 0 0 0 7.353-9.219c6.383-.188 13.123-2.521 17.865-5.363 7.303-4.381 10.502-11.105 11.99-18.598.703.123 1.42.223 2.148.299 8.504.898 23.756 1.838 31.613-2.375 3.143-1.686 4.342-4.283 4.881-7.236.949-.479 1.682-1.334 1.887-2.648 2.152-13.961 7.355-26.32 15.832-37.619 1.311-1.752.898-3.521-.27-4.748.352-.413.63-.903.804-1.479"/><path fill="{{colors[0]}}" d="M98.577 339.246c-.922-3.163-1.023-6.261-.114-9.507 1.51-5.392-6.868-7.693-8.376-2.309-1.346 4.806-1.298 9.858.23 14.607-1.132 1.046-1.425 2.339-1.776 3.877a4.658 4.658 0 0 0-.087 1.323c-.546-.889-1.42-1.588-2.532-1.995-3.94-1.442-8.014 1.081-9.989 4.424-.902 1.522-1.927 3.545-1.799 5.346.239 3.369 4.105 5.988 7.18 3.866 1.508-1.041 2.445-2.925 2.053-4.705.023-.039.042-.083.065-.123.045-.075.127-.257.183-.385v-.001c-.017.04-.033.077-.056.137a.704.704 0 0 1 .091-.156l.024-.012c2.128.729 4.794-.909 5.281-3.048.1-.436.12-.852.107-1.257.534.935 1.384 1.672 2.513 1.929a4.76 4.76 0 0 0 1.155.097c-.266 1.071-.559 2.137-.795 3.219-1.186 5.448 7.187 7.776 8.376 2.309a115.092 115.092 0 0 1 3.446-12.438c1.22-3.611-2.263-5.811-5.18-5.198m32.486-66.953c-7.111 3.784-10.417 10.939-13.4 18.026-.511 1.215-.13 2.542.647 3.589-.811 2.975-1.313 5.771-2.496 8.512-1.304.151-2.533.869-3.212 2.079l-.748 1.329a4.367 4.367 0 0 0-.524 1.706l-.502 1.202c-.518 1.241-.083 2.704.78 3.798.028.169.039.329.082.503.791 3.199 3.767 4.13 5.686 6.417 3.597 4.287 9.715-1.885 6.143-6.143-.416-.495-2.733-2.576-2.719-2.267-.038-.827 3.235-4.669 3.646-5.728 2.328-6.013 2.057-12.366 6.313-17.658 1.196-1.485 1.239-3.185.661-4.607 1.13-1.279 2.431-2.408 4.029-3.258 4.935-2.626.551-10.127-4.386-7.5m192.428 54.361c-1.089-5.359-4.761-9.53-8.135-13.655-4.074-4.981-9.439-7.162-15.712-8.184-5.468-.891-7.821 7.477-2.31 8.376 4.903.799 8.698 2.042 11.88 5.951 2.433 2.988 5.115 5.954 5.9 9.822 1.115 5.472 9.489 3.156 8.377-2.31"/><path fill="{{colors[1]}}" d="M467.32 387.596c-.066-.008-.275.03-.49.079a.936.936 0 0 0-.586-.383c-1.037-.222-1.992.633-1.67 1.721a1.43 1.43 0 0 0 1.045.972c.627.151 1.127-.286 1.701-.216 1.385.169 1.373-2.004 0-2.173"/><path fill="{{colors[3]}}" d="M439.359 323.966c-2.582-6.651-5.303-13.58-10.578-18.609-4.768-4.545-12.139-9.019-18.752-9.559-3.273-.269-4.598 2.614-4.023 5.133-1.941.913-3.904 2.147-6.041 3.518-4.688 3.011-.338 10.531 4.384 7.501 1.592-1.022 3.508-2.746 5.287-3.35 2.963-1.007 6.43.299 8.824 2.089 2.912 2.178 5.523 6.431 6.992 9.784.887 2.027 2.525 2.542 4.088 2.15.5 1.222.975 2.448 1.439 3.652 2.005 5.155 10.408 2.914 8.38-2.309m39.375 129.782c-.479-4.635-2.381-8.471-7.553-9.777-2.047-.516-4.178.488-5.072 2.352-1.098 1.092-1.676 2.693-1.223 4.248-1.137 4.447-2.059 8.928-2.695 13.496-.693 4.98-.115 11.73-3.223 15.783-1.607 1.076-3.258 2.119-4.871 3.215-3.813 2.594-1.57 9.709 3.348 7.938 3.361-1.209 6.061-2.957 8.078-5.295 4.953-3.627 9.207-7.664 11.477-14.041 2.016-5.661 3.324-12.122 1.734-17.919m-16.449-73.366c-1.215-1.116-2.828-1.47-4.291-1.051-.244-.103-.486-.212-.744-.284-1.725-.495-3.248-.245-4.832.518-2.053.988-2.76 4.079-1.559 5.941 1.045 1.623 2.701 2.287 4.41 2.031.17.072.35.141.518.204.553.213 1.068.297 1.662.377 1.813.242 3.512-.329 4.836-1.595 1.647-1.571 1.701-4.58 0-6.141"/><path fill="{{colors[0]}}" d="M510.211 512.313c.012-.24.021-.477.053-.721l-.068.496c.148-2-.119-3.916-1.205-5.771-1.188-2.027-3.512-3.961-5.84-4.492-2.504-.57-5.313-.445-7.531.984-.057.037-.111.08-.168.117-1.596.465-3.135 1.309-4.184 2.451-1.707 1.861-2.977 4.307-2.861 6.908.111 2.486.918 5.217 2.861 6.91.338.293.654.6.957.918.293.469.568.949.809 1.455 1.191 2.119 3.508 3.848 5.838 4.49 2.34.645 5.455.354 7.529-.984 2.088-1.346 3.924-3.35 4.49-5.84l.352-2.6a9.712 9.712 0 0 0-1.032-4.321m103.008-25.161c-1.186-2.027-3.51-3.959-5.84-4.492-4.766-1.084-11.063 1.445-12.02 6.826-.113.631-.277 1.232-.447 1.846-.098.139-.191.27-.248.361-.021.035-.051.08-.082.129-.217.221-.463.424-.66.656-.006.004-.006.006-.008.012-1.842 1.402-3.271 3.076-3.914 5.41-.645 2.34-.352 5.455.986 7.529 2.67 4.145 8.896 6.65 13.369 3.506 4.861-3.416 8.781-8.252 9.85-14.254.469-2.64.414-5.138-.986-7.529"/><path fill="{{colors[3]}}" d="M307.318 502.428c-4.027-.189-6.498-4.123-6.073-7.865.256-2.246-2.103-4.18-4.179-4.18-2.472 0-3.923 1.926-4.179 4.18-.959 8.428 6.232 15.836 14.431 16.223 5.377.255 5.364-8.104 0-8.358m39.409-203.308a56.96 56.96 0 0 0-8.687-3.192c-3.506-1.545-7.682-1.896-11.631-1.907-2.811-.007-4.129 2.17-4.012 4.306a170.56 170.56 0 0 0-9.514.118c-5.36.218-5.387 8.578 0 8.359 8.329-.339 16.794.772 25.139.583 1.625 1.947 4.398 1.349 5.945-.396a52.762 52.762 0 0 0 1.762-.233c3.467-.529 4.134-6.189.998-7.638"/><path fill="{{colors[1]}}" d="M547.385 305.063c-.248-5.356-8.607-5.386-8.359 0 .199 4.275-.27 8.358-1.191 12.526-.371 1.67-.66 4.736-1.506 7.015-1.418.207-2.721 1.109-3.236 2.894l-.656 2.27c-1.09 3.762 2.994 6.191 6.141 4.72 4.424-2.072 5.432-6.979 6.512-11.311 1.486-5.952 2.582-11.957 2.295-18.114m25.357-45.341c-9.316-7.033-21.445-9.074-32.615-5.825-3.814 1.111-4.141 7.12 0 8.062a174.687 174.687 0 0 1 16.926 4.757c2.879.967 4.832-1.167 5.082-3.522a31.525 31.525 0 0 1 6.389 3.747c4.292 3.239 8.462-4.016 4.218-7.219"/><path fill="{{colors[2]}}" d="M589.113 280.255c-.855 1.244-1.34 2.444-1.529 3.772-2.387 2.118-8.488 2.406-10.615 2.796-3.684.676-7.93.943-11.25 2.847-7.172 4.112-6.008 15.738-6.773 22.769-.58 5.341 7.781 5.299 8.359 0 .26-2.383.52-4.766.777-7.149.236-2.174-.066-5.888 1.359-7.686 2.064-2.597 9.043-2.589 12.164-3.165 4.33-.797 8.455-1.962 11.357-4.463 1.664-.374 3.033-1.658 2.904-3.891a13.32 13.32 0 0 0 1.035-3.72c.601-4.508-5.719-5.112-7.788-2.11m84.598-36.651l-9.219-1.631c-2.219-.393-4.502.599-5.141 2.918-.555 2.02.684 4.746 2.92 5.142l9.217 1.631c2.221.393 4.504-.6 5.141-2.919.557-2.019-.682-4.746-2.918-5.141m97.809 64.329c-.383-.858-1.133-1.427-1.998-1.743-2.379-5.006-6.117-9.305-11.004-12.487-4.52-2.944-8.715 4.29-4.217 7.217 5.887 3.834 9.475 10.129 9.789 17.145.084 1.912 1.209 3.132 2.602 3.683.271.148.559.275.873.361 2.113.582 4.625-.711 5.141-2.918.915-3.921.439-7.61-1.186-11.258m-18.413 115.784c-1.66-7.063-7.412-10.088-13.764-12.307-5.086-1.777-7.275 6.295-2.221 8.061 1.457.51 2.869 1.049 4.096 1.742-1.102.643-1.947 1.754-2.072 3.352a65.621 65.621 0 0 0 .07 11.121c-.439.016-.889.049-1.363.111-2.252.311-3.439 3.17-2.918 5.141.637 2.42 2.916 3.225 5.141 2.92.055-.006.674 2.787.705 3.486.104 2.143-.084 4.281-.477 6.389-.977 5.256 7.078 7.51 8.059 2.221.719-3.857 1.029-8.982-.115-13.115 3.393-5.814 6.484-12.22 4.859-19.122m-116.283 89.75c-2.703-1.563-4.107-4.027-4.537-7.08-.316-2.236-3.166-3.461-5.141-2.918-2.406.662-3.236 2.898-2.92 5.143.715 5.066 3.986 9.533 8.379 12.074 4.665 2.697 8.879-4.524 4.219-7.219"/><path fill="{{colors[4]}}" d="M110.431 464.178a2.695 2.695 0 0 0-.473-1.545 130.01 130.01 0 0 1 .237-16.861c.253-3.189-4.644-3.699-5.472-.74l-.986 3.514a3.262 3.262 0 0 0-2.059.377c-.333-10.475-7.108-19.271-9.554-29.492-.419-1.756-3.177-1.783-3.582 0-2.816 12.408 6.263 21.967 9.269 33.27a1.88 1.88 0 0 0 .274 1.109c.123.543.237 1.088.328 1.641.131.793.625 1.191 1.207 1.295a1260.58 1260.58 0 0 1 1.032 56.354c0 .162.022.309.044.455-.012.088-.035.17-.04.262a842.091 842.091 0 0 0-1.407 53.742c.009 1.422 1.273 2.904 2.787 2.787 2.107-.162 3.876.029 5.892.668 1.725.549 3.542-.93 3.526-2.686-.34-34.719-.682-69.433-1.023-104.15m-17.363-31.949c1.047 2.305 2.086 4.609 2.944 6.945-1.106-2.297-2.153-4.602-2.944-6.945m120.527-64.425c-5.266 4.048-9.579 8.857-12.72 14.594a555.098 555.098 0 0 1-.223-11.248c-.017-2.112-1.131-3.359-2.544-3.815.052-1.277.088-2.556.147-3.832.255-5.515-7.683-5.165-8.359 0-.547 4.179-.667 8.288-.45 12.414a686.684 686.684 0 0 0-.187 30.681c.008.496.104.934.241 1.338l-.033 30.234c-1.856-6.549-3.949-13.053-7.051-19.021a173.124 173.124 0 0 0-1.722-5.607c-.634-1.938-2.197-2.82-3.797-2.889a43.888 43.888 0 0 0-2.125-2.451c-1.483-1.572-3.893.428-2.917 2.252.368.688.77 1.33 1.189 1.953-.614.865-.851 2.008-.411 3.357a171.219 171.219 0 0 1 6.405 26.59c.289 1.836 1.453 2.748 2.806 2.961a10851.9 10851.9 0 0 1 1.8 7.758c-1.918.613-3.357 2.389-2.495 4.85a93.469 93.469 0 0 1 4.277 17.309c.354 2.381 2.17 3.229 3.997 2.975l-.033 29.023a4.083 4.083 0 0 0-.617 2.146l-.843 56.783c-.034 2.262 1.942 4.178 4.179 4.18l7.418.004c3.146 0 4.441-2.854 3.908-5.227.372-20.373.189-40.746-.517-61.105.303-.57.482-1.25.445-2.068a657.385 657.385 0 0 1-.645-35.908c.009-1.004-.274-1.82-.744-2.449.358-20.031.438-40.064.2-60.1 5.711-9.988 11.425-19.974 17.138-29.963 1.914-3.344-2.226-8.402-5.717-5.719m165.916 98.868a141.018 141.018 0 0 0-15.872 24.25l-.897-14.773c-.269-4.42-7.312-6.012-8.21-1.111-.015.086-.035.172-.051.258-2.351-1.063-5.821.215-6.192 3.645l-.176 1.633c-.591-1.316-1.183-2.631-1.772-3.949-1.659-3.695-8.241-1.939-7.788 2.111l3.504 31.275c.162 1.451.918 2.494 1.907 3.154-1.666 17.287 1.5 35.033-2.4 52.174-.622 2.732 1.241 5.158 4.029 5.289 4.308.205 8.556.127 12.852-.238 2.237-.189 4.199-1.76 4.179-4.18l-.225-26.736c-.04-4.754-.085-9.506-.12-14.26-.031-4.174-.34-8.471 1.665-12.285 3.679-6.996 9.277-12.982 13.101-19.98 3.865-7.074 6.981-14.539 9.451-22.211 1.226-3.81-4.321-7.353-6.985-4.066m155.098 10.098c-1.154-3.428-6.443-3.93-7.838-.188-2.471-1.553-6.729-.119-6.602 3.461l.879 25.004c.041 1.125.451 2 1.055 2.654l.252 9.295a191.929 191.929 0 0 1-5.963 46.598c-.738 2.885 1.346 4.965 4.029 5.291a58.88 58.88 0 0 0 13.959.043c2.045-.232 4.451-1.732 4.18-4.178-3.137-28.113-2.115-56.5 3.238-84.283.907-4.701-4.579-6.737-7.189-3.697m162.19-90.574a84.045 84.045 0 0 0-8.965 16.162 864.875 864.875 0 0 0-2.461-16.584c-.521-3.284-4.123-3.634-6.393-2.116a63.348 63.348 0 0 1-.182-6.393c.104-4.833-6.807-5.515-8.211-1.112-.195.616-.395 1.232-.59 1.849-.182-1.281-.361-2.563-.543-3.843-.662-4.702-8.311-3.52-8.209 1.11l.518 23.279c.041 1.885 1.104 3.097 2.451 3.662l-.1 11.256c-2.537-2.689-4.234-6.363-6.004-9.518-2.855-5.085-6.234-9.862-11.639-12.43-.975-.464-1.928-.574-2.789-.426-.059-.043-.111-.094-.17-.136-3.643-2.611-7.473 2.322-5.717 5.718 1.486 2.881 3.297 5.598 5.248 8.245 1.795 3.85 4.205 7.359 6.801 10.779.248.676.492 1.342.736 1.994.813 2.174 1.92 4.148 3.217 5.986.08.545.285 1.109.68 1.684 2.527 3.664 5.053 7.332 7.58 10.996.418.605.91 1.047 1.441 1.363-.092 1.752.117 3.43.6 5.143.082.285.184.543.301.785-.41 7.859.09 15.648 1.373 23.453.148.914.523 1.588 1.016 2.074.121 3.402.211 6.807.283 10.209-.332.578-.533 1.273-.514 2.117a639.384 639.384 0 0 1-3.283 83.551c-.238 2.26 2.105 4.168 4.178 4.182 3.389.018 6.773.037 10.16.059 2.063.012 4.447-1.936 4.18-4.18a403.506 403.506 0 0 1-1.074-10.168c.789-8.01 1.264-16.064 1.541-24.105.395-11.402.291-22.809-.258-34.199.266-3.691.678-7.373 1.066-11.061.303-2.58.586-5.162.846-7.748a4.134 4.134 0 0 0-.063-1.215c.168-2.754.254-5.514.158-8.285-.059-1.713-.955-2.877-2.137-3.498.141-5.154.213-10.307.211-15.459.613-.645 1.053-1.492 1.16-2.574.643-6.436 1.334-12.871 1.928-19.314.018-.172.031-.342.045-.512 2.143.877 4.684.326 5.133-2.639.297-1.959.67-3.893 1.102-5.803a628.308 628.308 0 0 0 12.561-28.114l.004-.006-.002-.001c.141-.332.285-.663.424-.997 1.94-4.656-5.107-6.793-7.638-3.22"/><path fill="{{colors[5]}}" d="M188.081 358.1l-.905 82.011c-.301 27.338-.604 54.674-.906 82.012l-.511 46.332c-.027 2.393 3.688 2.395 3.715 0 .301-27.338.602-54.674.905-82.01l.906-82.012.511-46.333c.027-2.391-3.688-2.392-3.715 0m10.694 2.772a3495.74 3495.74 0 0 1 3.719 207.585c-.028 2.393 3.687 2.395 3.715 0a3491.457 3491.457 0 0 0-3.719-207.585c-.113-2.38-3.828-2.394-3.715 0M99.07 472.348l-2.447 77.176-.689 21.721c-.076 2.391 3.639 2.389 3.715 0l2.447-77.176.688-21.721c.077-2.393-3.638-2.389-3.714 0m11.039 4.146l.883 73.936.248 20.797c.029 2.387 3.744 2.395 3.715 0-.295-24.645-.59-49.293-.883-73.938l-.249-20.795c-.028-2.389-3.743-2.394-3.714 0m230.813 22.279a350.051 350.051 0 0 1-.246 57.229 340.737 340.737 0 0 1-1.768 16.064c-.134.994.238 1.996 1.297 2.285.865.236 2.15-.297 2.284-1.297 2.58-19.174 3.633-38.531 3.039-57.871a353.949 353.949 0 0 0-.891-16.41c-.183-2.367-3.9-2.386-3.715 0m22.051-29.74c-3.964 28.563-4.789 57.523-2.309 86.258.169 1.963.355 3.926.554 5.887.2 1.957.293 3.988.66 5.92.537 2.834 4.642 5.381 6.056 1.711.361-.938-.399-2.037-1.298-2.285-1.048-.287-1.923.357-2.285 1.299-.001-.025-.003-.053-.003-.08l.665-.666c1.721-1.252 1.155.533.841-.135-.059-.123-.211-.256-.28-.396-.24-.492-.192-1.207-.253-1.748a383.976 383.976 0 0 1-2.265-34.03 383.156 383.156 0 0 1 3.5-60.748c.137-.99-.241-1.994-1.297-2.283-.869-.241-2.147.296-2.286 1.296m155.775 20.024c1.387 21.287.607 42.732-2.441 63.848a310.299 310.299 0 0 1-3.102 17.771c-.477 2.332 3.104 3.332 3.582.986 4.32-21.156 6.469-42.756 6.332-64.352a311.473 311.473 0 0 0-.654-18.254c-.156-2.372-3.873-2.39-3.717.001m21.387-15.797c-5.707 25.088-7.887 50.975-6.375 76.66a279.011 279.011 0 0 0 2.172 21.785c.137.996 1.408 1.537 2.285 1.297 1.07-.293 1.434-1.287 1.297-2.285a268.549 268.549 0 0 1 .275-75.438 270.15 270.15 0 0 1 3.93-21.031c.529-2.328-3.053-3.322-3.584-.988m119.377-42.701a575.513 575.513 0 0 1 4.6 54.367 574.112 574.112 0 0 1-.574 54.332 580.196 580.196 0 0 1-2.613 30.715c-.113 1 .932 1.859 1.855 1.859 1.1 0 1.746-.857 1.859-1.859a574.675 574.675 0 0 0 3.496-54.449 573.246 573.246 0 0 0-4.908-84.965c-.131-.994-.76-1.857-1.857-1.857-.903-.001-1.991.855-1.858 1.857m25.472-50.168a4381.698 4381.698 0 0 0-4.504 188.052c-.004 2.393 3.711 2.395 3.715 0a4383.699 4383.699 0 0 1 2.824-146.848 4460.285 4460.285 0 0 1 1.68-41.205c.11-2.39-3.605-2.384-3.715.001"/><path fill="{{colors[5]}}" d="M689.643 410.576c4.666-9.275 9.336-18.549 14.004-27.825 1.07-2.13-2.133-4.014-3.209-1.875-4.668 9.274-9.334 18.549-14.002 27.825-1.073 2.131 2.13 4.012 3.207 1.875m.058 21.811a155.65 155.65 0 0 1 15.354-38.478c1.174-2.085-2.033-3.96-3.209-1.874a159.533 159.533 0 0 0-15.727 39.366c-.584 2.318 3 3.308 3.582.986m-25.5-20.649a252.47 252.47 0 0 0-22.078-27.229c-1.633-1.75-4.256.882-2.627 2.629a245.377 245.377 0 0 1 21.498 26.475c1.363 1.944 4.586.088 3.207-1.875m-28.484-13.331c7.332 11.146 13.629 22.976 18.707 35.314.383.928 1.234 1.586 2.287 1.297.877-.24 1.68-1.352 1.295-2.285-5.203-12.645-11.566-24.771-19.08-36.2-1.309-1.991-4.526-.13-3.209 1.874m-430.394-11.859c4.231-11.773 11.694-22.212 21.353-30.146 1.849-1.519-.792-4.135-2.626-2.628-10.161 8.346-17.866 19.423-22.308 31.787-.811 2.253 2.778 3.225 3.581.987m1.271 13.042a256.006 256.006 0 0 1 15.203-27.88c1.277-2.029-1.937-3.896-3.207-1.874a256 256 0 0 0-15.204 27.879c-.425.908-.255 2.003.667 2.541.805.472 2.115.247 2.541-.666m-18.195 37.906c-.181-12.936-5.382-25.547-14.37-34.854-1.663-1.723-4.288.906-2.626 2.627 8.309 8.604 13.114 20.27 13.281 32.227.033 2.391 3.748 2.397 3.715 0m-16.819-17.457l13.205 52.768c.58 2.318 4.164 1.336 3.583-.988l-13.205-52.768c-.581-2.319-4.165-1.336-3.583.988m196.499 75.086c4.485-10.977 10.924-21.146 18.879-29.936 1.602-1.768-1.018-4.4-2.627-2.625-8.415 9.295-15.095 19.971-19.835 31.574-.379.93.412 2.041 1.297 2.283 1.065.296 1.905-.362 2.286-1.296m-2.835 22.27a111.404 111.404 0 0 1 20.33-35.475c1.542-1.811-1.073-4.451-2.627-2.627a116.21 116.21 0 0 0-21.286 37.115c-.788 2.262 2.799 3.235 3.583.987m-263.47-50.62c-1.343-14.045-5.591-27.682-12.535-39.971-1.176-2.082-4.386-.211-3.208 1.875 6.606 11.689 10.749 24.723 12.027 38.096.095.998.785 1.857 1.857 1.857.932.001 1.955-.853 1.859-1.857m-12.513-49.443a332.02 332.02 0 0 1 12.167 30.32c.775 2.244 4.365 1.279 3.583-.988a342.256 342.256 0 0 0-12.542-31.209c-.42-.91-1.736-1.137-2.542-.666-.936.549-1.087 1.627-.666 2.543"/><path fill="{{colors[5]}}" d="M106.131 450.033a21.68 21.68 0 0 1 2.652-10.178c.468-.852.237-2.064-.665-2.541-.871-.461-2.043-.244-2.542.666a25.566 25.566 0 0 0-3.161 12.053c-.009.973.861 1.902 1.857 1.857 1.016-.044 1.849-.814 1.859-1.857m3.932 14.365l3.011-12.482c.235-.977-.309-2.014-1.298-2.287-.945-.258-2.048.318-2.285 1.299l-3.011 12.484c-.234.975.309 2.01 1.297 2.283.947.26 2.051-.318 2.286-1.297m128.061-205.591c-4.123-10.795-12.331-19.995-22.815-24.967-10.649-5.049-22.674-5.215-33.483-.535-5.122 2.218-9.847 5.547-13.563 9.721-1.92 2.156-3.615 4.535-4.958 7.095-1.19 2.274-2.186 5.259-4.945 5.965-1.417.363-2.91.338-4.356.507a45.396 45.396 0 0 0-4.288.691c-2.738.589-5.383 1.485-7.956 2.584-5.128 2.191-9.826 5.363-13.88 9.184-8.154 7.686-13.658 18.144-14.807 29.328a40.66 40.66 0 0 0-.203 4.085c-.003 2.816 4.374 2.821 4.376 0 .021-20.608 17.433-39.886 38.064-41.625 3.199-.271 6.326-.616 8.569-3.191 1.854-2.128 2.812-4.817 4.271-7.2 2.691-4.394 6.496-8.053 10.872-10.753 8.995-5.554 20.027-7.008 30.081-3.672 11.238 3.729 20.588 12.917 24.802 23.947.421 1.104 1.474 1.862 2.69 1.527 1.057-.29 1.953-1.581 1.529-2.691m-139.132 51.16c-11.241 5.895-17.043 20.257-13.031 32.305l2.11-2.769c-6.388-.841-12.381 2.873-16.339 7.618-3.873 4.646-6.326 10.401-7.256 16.364-1.845 11.823 1.932 24.415 12.356 31.102 6.462 4.146 14.217 5.568 21.657 6.856 1.163.203 2.357-.309 2.69-1.528.29-1.054-.356-2.489-1.527-2.691-5.982-1.036-12.194-2.068-17.691-4.772-4.908-2.416-8.744-6.091-11.094-11.049-4.292-9.056-3.023-20.76 2.404-29.06 3.246-4.968 8.543-9.288 14.8-8.464 1.391.183 2.517-1.548 2.11-2.771-3.424-10.279 1.42-22.328 11.019-27.362 2.496-1.308.287-5.086-2.208-3.779m12.653 102.931c-5.863 8.484-3.019 21.027 5.186 26.906.962.688 1.993 1.191 3.057 1.695.229.109 1.05.393 1.143.631.084.219-.671 1.211-.878 1.533a17.142 17.142 0 0 0-2.52 6.652c-.73 4.799.295 9.74 2.713 13.941 2.704 4.697 7.242 8.439 12.641 9.461 1.159.221 2.359-.322 2.689-1.527.295-1.068-.36-2.471-1.527-2.691-8.105-1.533-13.476-10.471-12.255-18.291.331-2.121 1.111-3.877 2.255-5.666.876-1.373 1.55-2.914 1.118-4.564-.397-1.512-1.682-2.541-3.03-3.189-2.036-.98-3.776-2.014-5.301-3.713-1.345-1.496-2.381-3.316-3.039-5.217-1.595-4.604-1.291-9.674 1.526-13.752.672-.973.181-2.43-.786-2.994-1.085-.636-2.319-.191-2.992.785m34.626 62.034c.236 7.705 5.045 14.99 11.972 18.365 1.683.82 3.463 1.457 5.313 1.764 2.208.363 4.71.119 6.804.996 3.419 1.428 5.018 5.426 8.445 6.941 3.545 1.568 8.577 1.035 9.827-3.229.795-2.707-3.427-3.863-4.219-1.164-.112.381-.08.35-.36.541-.296.201-.744.314-1.253.326a4.86 4.86 0 0 1-2.974-.893c-1.303-.924-2.333-2.271-3.448-3.402-1.3-1.318-2.738-2.488-4.467-3.188-1.936-.781-4.031-.85-6.085-1.027a16.048 16.048 0 0 1-4.555-1.076c-2.778-1.115-5.271-3.088-7.101-5.445-2.115-2.725-3.417-6.055-3.521-9.51-.088-2.808-4.465-2.82-4.378.001m104.061-203.837c4.358-1.657 9.367.061 12.235 3.691 1.541 1.95 1.99 4.108 2.063 6.537.102 3.405.508 6.628 3.441 8.787 1.349.993 2.982 1.561 4.511 2.215 1.839.786 3.677 1.573 5.516 2.358l10.605 4.536c6.615 2.828 13.513 5.37 19.691 9.094 5.415 3.264 9.658 7.777 12.806 13.242 3.126 5.428 5.149 11.398 6.719 17.441 2.924 11.254 4.347 23.008 3.267 34.623-1.012 10.879-4.575 21.88-11.928 30.161a45.255 45.255 0 0 1-2.93 2.996c-2.061 1.93 1.039 5.02 3.094 3.096 8.73-8.17 13.679-19.425 15.498-31.115 1.893-12.159.922-24.631-1.739-36.603-2.759-12.415-7.321-25.726-17.501-34.043-5.712-4.665-12.538-7.441-19.253-10.313l-22.274-9.524c-1.365-.584-3.189-1.096-4.181-2.27-.897-1.061-.902-2.645-.946-3.958-.102-2.979-.383-5.744-1.934-8.363-2.797-4.722-8.406-7.912-13.927-7.623-1.365.072-2.719.329-3.997.813-1.104.42-1.862 1.476-1.527 2.691.29 1.06 1.58 1.952 2.691 1.531m53.806 147.682c4.448 9.744-.905 22.328-10.261 26.998-2.645 1.32-5.684 1.418-8.308 2.756-1.627.83-2.773 2.246-3.346 3.967-.539 1.623-.453 3.387-.783 5.055-1.096 5.52-4.563 10.395-9.152 13.594-5.194 3.623-11.709 5.34-17.933 3.738-2.728-.701-3.892 3.52-1.163 4.219 12.837 3.303 26.738-4.701 31.438-16.854a21.475 21.475 0 0 0 1.189-4.449c.222-1.428.002-3.703 1.03-4.842.935-1.037 2.687-1.232 3.969-1.527a24.23 24.23 0 0 0 4.611-1.564c5.514-2.51 9.904-7.416 12.301-12.926 2.84-6.529 3.171-13.836.187-20.373-.491-1.076-2.047-1.34-2.994-.785-1.105.646-1.277 1.913-.785 2.993m-60.443 68.868c-2.588 6.746-8.874 11-15.858 11.99-3.589.508-7.526 1.105-9.586 4.482-1.166 1.914-1.179 4.105-1.542 6.24a12.53 12.53 0 0 1-1.769 4.621c-2.06 3.27-5.461 5.41-9.269 5.955-1.171.168-1.813 1.656-1.528 2.691.345 1.258 1.518 1.699 2.691 1.529 3.805-.547 7.412-2.582 9.969-5.439a17.704 17.704 0 0 0 3.198-5.07c.784-1.891.99-3.791 1.283-5.799.264-1.809.819-3.246 2.6-3.963 1.603-.645 3.422-.789 5.115-1.027 3.912-.557 7.622-1.971 10.797-4.35 3.695-2.766 6.463-6.387 8.119-10.697.423-1.104-.468-2.4-1.529-2.693-1.233-.338-2.265.422-2.691 1.53m68.457-184.863c5.229-6.752 14.305-9.85 22.65-8.283 2.029.381 4.028.993 5.873 1.923a22.122 22.122 0 0 1 2.838 1.707c1.002.713 1.882 1.615 2.962 2.213 1.342.742 2.846.985 4.3.426 1.372-.527 2.231-1.611 3.162-2.684a19.546 19.546 0 0 1 5.595-4.453c4.677-2.503 10.246-3.083 15.316-1.527 2.698.829 3.853-3.396 1.164-4.219-5.045-1.549-10.63-1.326-15.558.559a25.341 25.341 0 0 0-6.944 3.976 21.035 21.035 0 0 0-2.667 2.57c-.532.614-1.231 2.024-2.158 1.574-1.042-.507-1.906-1.451-2.84-2.125a22.14 22.14 0 0 0-2.96-1.796 26.14 26.14 0 0 0-6.77-2.336c-4.647-.902-9.509-.688-14.045.686-5.066 1.537-9.754 4.487-13.011 8.695-.724.933-.911 2.184 0 3.093.752.755 2.364.941 3.093.001m79.306-10.196c17.844-2.02 36.036 8.133 43.889 24.256 1.051 2.157 1.58 4.741 3.047 6.65 1.656 2.151 4.262 2.681 6.699 3.497 4.256 1.424 8.273 3.722 11.697 6.622 6.988 5.919 11.98 14.347 13.018 23.525 1.217 10.784-2.279 21.937-9.732 29.873-1.928 2.052 1.162 5.153 3.094 3.095 7.223-7.69 11.271-18.123 11.258-28.669-.014-10.168-4.004-19.903-10.857-27.377-3.336-3.639-7.361-6.736-11.77-8.966a42.322 42.322 0 0 0-6.855-2.736c-.941-.286-2.037-.53-2.795-1.198-.926-.815-1.217-2.333-1.66-3.43-3.645-9.027-10.162-16.602-18.303-21.901-8.994-5.855-20.018-8.832-30.729-7.619-1.174.132-2.188.911-2.188 2.188 0 1.082 1.005 2.323 2.187 2.19m77.075 106.091c6.789 5.159 10.955 13.59 11.617 22.024.332 4.236-.145 8.473-1.553 12.494-.855 2.441-2.322 4.707-2.803 7.271-.578 3.109.504 5.686 1.676 8.498 3.506 8.422 2.252 18.008-2.063 25.893-4.67 8.539-12.76 14.496-21.867 17.652-5.305 1.838-10.867 2.826-16.473 3.051-5.023.199-11.361.389-15.33-3.244-2.074-1.898-5.178 1.189-3.096 3.096 4.154 3.799 9.834 4.529 15.248 4.574 5.488.045 11.027-.57 16.35-1.922 10.338-2.621 20-8.209 26.352-16.908 5.906-8.088 8.715-18.689 6.594-28.57-.572-2.664-1.732-5.027-2.65-7.572-.422-1.176-.709-2.332-.482-3.58.283-1.566 1.08-2.998 1.711-4.439a33.873 33.873 0 0 0 2.865-14.027c-.131-10.91-5.182-21.449-13.887-28.067-.941-.718-2.447-.151-2.992.784-.66 1.123-.16 2.275.783 2.992m-52.039 105.594c-1.025 3.953-3.602 7.338-7.041 9.52a17.016 17.016 0 0 1-5.846 2.355c-2.063.41-4.086.164-6.16.01-2.314-.172-4.748.027-6.57 1.615-1.896 1.654-1.931 4.1-2.694 6.309-1.035 2.99-3.796 5.391-6.752 6.484-3.598 1.332-7.428 1.225-10.629-1-.972-.674-2.431-.178-2.994.785-.637 1.088-.188 2.318.784 2.994 7.02 4.877 17.244 2.129 22.032-4.566 1.273-1.777 1.869-3.768 2.367-5.865.205-.859.399-1.826 1.299-2.195.911-.375 2.032-.264 2.989-.197 2.449.168 4.727.348 7.17-.092 2.33-.418 4.611-1.316 6.648-2.512 4.658-2.74 8.254-7.227 9.617-12.48.708-2.727-3.513-3.891-4.22-1.165m-144.836-21.5c2.022 6.189 7 11.203 13.27 13.072 1.465.438 3.059.627 4.456 1.266 1.438.66 2.03 1.861 2.508 3.301 1.044 3.143 2.287 5.943 4.618 8.367a18.486 18.486 0 0 0 8.209 4.928c1.574.445 3.182.566 4.806.682 1.267.092 2.358.27 2.796 1.578.464 1.389.438 2.92.689 4.352.259 1.482.741 2.893 1.339 4.27 1.173 2.701 2.993 5.154 5.17 7.137 5.081 4.621 12.032 6.904 18.825 5.531 1.16-.236 1.826-1.609 1.528-2.693-.331-1.205-1.529-1.762-2.691-1.527-5.079 1.029-10.499-.811-14.333-4.195-1.947-1.719-3.574-3.807-4.607-6.199a15.192 15.192 0 0 1-1.063-3.797c-.204-1.396-.234-2.842-.688-4.191-.526-1.561-1.487-2.949-2.978-3.723-1.516-.783-3.213-.863-4.882-.973a13.672 13.672 0 0 1-7.543-2.912c-2.223-1.76-3.774-4.08-4.644-6.764-.493-1.521-.956-3.115-1.9-4.428-1.045-1.455-2.462-2.385-4.119-3.02-1.616-.617-3.345-.855-4.979-1.414-1.468-.504-2.866-1.283-4.109-2.211a15.629 15.629 0 0 1-5.458-7.6c-.872-2.665-5.098-1.524-4.22 1.163M542.426 374.93c-5.828-3.47-13.598-3.515-19.328.221-5.418 3.53-8.719 9.931-8.377 16.399.924-.705 1.848-1.407 2.77-2.112-6.701-2.493-14.684.103-18.814 5.875-4.318 6.033-3.459 14.742 1.389 20.177 1.879 2.105 4.963-.998 3.094-3.094-3.568-4.002-3.932-10.561-.703-14.875 3.145-4.207 9.041-5.66 13.871-3.862 1.301.484 2.842-.775 2.771-2.109-.26-4.909 2.041-9.904 6.209-12.621 4.465-2.91 10.355-2.933 14.91-.221 2.423 1.444 4.628-2.337 2.208-3.778m10.699 10.488c7.238 1.373 12.91 8.121 12.709 15.554-.061 2.227-.324 4.516.891 6.522 1.123 1.857 3.033 2.844 4.996 3.586 1.652.623 3.295 1.082 4.807 2.02a14.311 14.311 0 0 1 3.809 3.48c2.41 3.17 3.662 7.359 2.939 11.316-.211 1.16.318 2.357 1.529 2.691 1.063.291 2.479-.359 2.691-1.527 1.545-8.453-3.037-17.496-11.027-20.895-1.705-.725-3.799-1.043-5.299-2.182-1.619-1.229-.969-3.59-.953-5.343.041-4.219-1.471-8.419-4.01-11.77-2.928-3.864-7.111-6.761-11.918-7.675-1.16-.221-2.361.324-2.693 1.53-.293 1.069.363 2.471 1.529 2.693m34.133 57.119c4.943 2.877 10 5.809 13.805 10.168 3.137 3.594 5.193 8.65 4.309 13.473-.443 2.412-1.592 4.029-3.088 5.891-1 1.242-1.609 2.648-1.295 4.266.279 1.447 1.25 2.643 2.344 3.582 1.834 1.572 3.662 3.014 5.16 4.938 1.502 1.926 2.742 4.141 3.369 6.51.504 1.906.578 3.967-.254 5.789-1.008 2.207-3.17 3.443-4.781 5.15-.916.973-1.689 2.074-2.113 3.352-.553 1.664-.338 3.373-.18 5.08.215 2.303.012 4.521-.709 6.721-3.035 9.252-13.199 14.885-22.047 17.209-13.264 3.488-27.738 2.393-40.309-3.115-1.082-.475-2.348-.318-2.992.785-.543.928-.305 2.518.783 2.992a67.274 67.274 0 0 0 38.49 4.689c10.791-1.871 22.152-6.953 28.088-16.631 1.344-2.188 2.365-4.65 2.818-7.184.221-1.232.357-2.488.35-3.742-.01-1.615-.508-3.32-.268-4.924.357-2.365 3.217-3.813 4.707-5.418 1.846-1.99 2.891-4.428 3.127-7.121.473-5.414-2.641-10.777-6.174-14.625a25.008 25.008 0 0 0-2.676-2.52c-.551-.447-2.5-1.559-2.459-2.381.018-.307.377-.627.564-.842.49-.564.982-1.125 1.422-1.736.803-1.119 1.402-2.375 1.85-3.676 1.998-5.826.279-12.688-3.293-17.537-4.203-5.713-10.309-9.412-16.338-12.92-2.441-1.42-4.646 2.361-2.21 3.777m-56.424-73.949c-2.453-6.301-2.225-13.205.188-19.483a26.91 26.91 0 0 1 5.063-8.283c1.098-1.222 2.303-2.373 3.623-3.353 1.436-1.066 3.025-1.843 4.535-2.789 1.813-1.138 3.254-2.58 4.027-4.603.734-1.926.678-4.076.494-6.096-.318-3.535-.455-6.954.283-10.452 1.428-6.767 5.076-12.903 10.084-17.64 5.561-5.262 12.877-8.678 20.584-8.856 2.813-.065 2.822-4.441 0-4.375-15.322.352-28.916 11.558-33.811 25.82-1.197 3.483-1.838 7.204-1.83 10.888.002 1.982.314 3.934.408 5.909.088 1.82-.008 3.666-1.479 4.936-1.391 1.205-3.213 1.898-4.734 2.932a29.593 29.593 0 0 0-4.309 3.556 31.103 31.103 0 0 0-6.205 8.97c-3.428 7.51-4.168 16.31-1.141 24.083.426 1.102 1.467 1.864 2.689 1.528 1.052-.289 1.963-1.584 1.531-2.692m63.645-88.395c8.477-15.648 23.258-27.338 40.047-32.989 8.424-2.836 17.311-4.186 26.199-3.778 4.594.211 8.973 1.063 13.453 2.036 3.064.667 5.773.604 8.639-.747 2.338-1.104 4.432-2.306 7.068-2.569 12.422-1.237 21.051 9.671 27.703 18.502.709.943 1.889 1.431 2.994.785.928-.543 1.5-2.044.785-2.994-6.615-8.778-14.166-18.438-25.713-20.381-2.842-.478-5.715-.504-8.535.14-1.271.291-2.496.746-3.678 1.294-1.26.586-2.441 1.399-3.773 1.814-2.598.807-5.406-.367-7.961-.891a72.177 72.177 0 0 0-7.064-1.073c-18.639-1.932-37.979 3.798-53.002 14.887-8.578 6.333-15.852 14.36-20.941 23.755-1.343 2.477 2.435 4.689 3.779 2.209m147.273 1.538c3.432 5.098 8.396 8.648 13.455 11.988 4.734 3.124 9.65 6.218 13.139 10.798 1.635 2.146 2.896 4.604 3.371 7.276.543 3.081-.307 6.216.365 9.298.67 3.057 2.869 5.369 5.109 7.406 2.203 2.006 4.309 4.075 6.209 6.373 7.346 8.879 11.723 20.42 11.266 31.997-.43 10.986-5.455 21.784-13.762 29.016-10.635 9.259-25.48 9.796-38.174 14.582-1.105.418-1.861 1.479-1.529 2.693.293 1.059 1.58 1.945 2.693 1.527 12.1-4.563 25.822-5.352 36.645-12.996 9.547-6.745 15.998-17.498 17.891-29 2.004-12.166-1.053-24.697-7.641-35.041a57.588 57.588 0 0 0-5.508-7.288c-2.053-2.314-4.426-4.257-6.582-6.461-.811-.83-1.592-1.74-2.055-2.819-.701-1.625-.504-3.501-.432-5.219.141-3.286-.275-6.34-1.615-9.361-2.736-6.175-8.271-10.617-13.744-14.289-5.479-3.679-11.553-7.087-15.322-12.688-1.564-2.324-5.355-.136-3.779 2.208m3.529 151.753c2.1 8.902 3.063 18.949-.934 27.492-1.623 3.465-3.914 6.609-6.904 9.023a19.072 19.072 0 0 1-4.564 2.729c-1.924.805-4.098 1.035-5.881 2.174-3.824 2.447-3.318 6.893-3.242 10.824.066 3.295-1.059 5.381-3.504 7.459-2.373 2.018-5.283 3.512-7.838 5.361-3.242 2.344-5.617 5.014-7.121 8.768-.912 2.279-1.479 4.695-2.607 6.887a20.633 20.633 0 0 1-3.676 5.063c-3.057 3.094-6.961 5.125-11.234 5.904-1.164.213-1.824 1.625-1.529 2.691.334 1.225 1.525 1.742 2.691 1.527 8.457-1.541 15.584-7.65 18.693-15.607.83-2.121 1.352-4.383 2.396-6.414.816-1.584 1.898-2.824 3.254-3.986 2.492-2.141 5.465-3.652 8.115-5.58 2.76-2.006 5.281-4.426 6.271-7.793.57-1.943.488-3.984.396-5.984-.064-1.48-.352-3.504.58-4.797 1.051-1.457 3.631-1.59 5.195-2.197 1.895-.736 3.689-1.67 5.33-2.875 3.4-2.492 6.182-5.74 8.188-9.445 5.387-9.943 4.66-21.721 2.143-32.385-.645-2.741-4.866-1.581-4.218 1.161m-124.107 70.862c2.26 13.584 12.621 25.004 25.391 29.715 3.625 1.336 7.469 2.059 11.33 2.182 2.816.092 2.814-4.287 0-4.377-12.23-.391-23.549-8.117-29.211-18.83-1.633-3.086-2.719-6.41-3.293-9.854-.193-1.166-1.635-1.816-2.689-1.527-1.241.339-1.723 1.521-1.528 2.691M426.445 291.797c3.061-11.07 12.582-19.627 23.578-22.493a30.47 30.47 0 0 1 8.34-.997c3.328.068 6.889 1.434 10.029-.127 1.48-.736 2.617-1.996 3.809-3.107a24.636 24.636 0 0 1 3.447-2.685 28.45 28.45 0 0 1 8.326-3.644c6.467-1.682 13.541-1.158 19.545 1.843 2.512 1.255 4.73-2.519 2.209-3.779-12.096-6.042-27.379-3.739-37.123 5.648-1.105 1.063-2.105 2.177-3.746 2.129-1.74-.051-3.463-.492-5.205-.601-3.137-.195-6.313.101-9.383.764-6.174 1.333-11.936 4.329-16.736 8.405-5.373 4.56-9.428 10.676-11.307 17.481-.751 2.719 3.467 3.879 4.217 1.163m89.213-27.315c8.273-7.062 19.004-11.188 29.863-11.621 10.531-.419 20.873 2.737 29.541 8.694a48.304 48.304 0 0 1 12.24 12.149c.674.968 1.918 1.415 2.992.785.961-.561 1.465-2.019.787-2.994-6.502-9.343-15.861-16.41-26.602-20.172-11.033-3.864-23.287-3.768-34.328.024a54.109 54.109 0 0 0-17.588 10.039c-.9.768-.789 2.305 0 3.095.892.892 2.195.769 3.095.001"/><path fill="{{colors[5]}}" d="M103.345 263.812c-17.268.064-34.389 5.949-48.068 16.481-13.608 10.477-23.44 25.446-27.902 42.019a79.927 79.927 0 0 0-2.323 12.748c-.217 2.133-.309 4.267-.375 6.408-.061 2.029-.147 4.149-1.31 5.895-1.066 1.602-2.785 2.745-4.247 3.95a48.594 48.594 0 0 0-4.312 4.028 53.21 53.21 0 0 0-7.11 9.433C-.34 378.34-2.463 395.488 3.144 410.348c5.455 14.453 17.137 26.221 31.583 31.713a49.35 49.35 0 0 0 5.428 1.707c2.731.691 3.898-3.529 1.164-4.221C27.263 435.99 15.347 425.938 9 412.959c-6.508-13.308-5.955-29.268.573-42.466 1.631-3.298 3.597-6.468 5.926-9.322 2.461-3.017 5.281-5.557 8.275-8.027 1.541-1.272 3.036-2.714 3.917-4.537.99-2.052 1.255-4.302 1.343-6.554.16-4.093.398-8.131 1.125-12.171 2.872-15.984 10.88-30.953 22.836-41.981 12.042-11.107 27.948-18.088 44.275-19.455a76.058 76.058 0 0 1 6.076-.257c2.815-.012 2.82-4.388-.001-4.377"/><path fill="{{colors[5]}}" d="M40.547 424.947c-4.323 4.535-3.926 11.02-1.864 16.521 2.128 5.678 5.652 11.068 9.904 15.385 4.112 4.174 9.698 7.592 15.778 6.887 1.535-.178 3.423-1.027 4.954-.633.955.246 1.593 1.074 2.099 1.889 1.451 2.338 2.258 4.969 3.926 7.191 4.145 5.52 10.897 8.898 17.838 8.555 2.803-.139 2.819-4.516 0-4.377-5.326.264-10.465-2.066-13.87-6.16-3.039-3.656-3.698-10.221-9.118-11.383-2.972-.641-5.851.973-8.862.549-2.546-.359-4.922-1.619-6.939-3.172-4.22-3.246-7.536-7.889-9.982-12.572-2.342-4.486-4.83-11.324-.769-15.584 1.942-2.041-1.148-5.139-3.095-3.096m75.348 65.317c5.938 3.514 13.44 3.648 19.542.473 1.048-.547 1.362-2.01.786-2.994-.622-1.063-1.942-1.332-2.995-.783-4.728 2.461-10.535 2.244-15.123-.473-2.431-1.438-4.635 2.343-2.21 3.777M57.101 344.176c-6.786.277-13.214 3.919-16.817 9.708-3.854 6.193-3.875 14.29-.428 20.65l.785-2.995c-9.377 6.145-12.955 18.822-8.371 29.001.485 1.079 2.05 1.336 2.993.786 1.109-.649 1.272-1.913.786-2.992-3.57-7.93-.43-18.277 6.801-23.016 1.012-.664 1.374-1.909.786-2.993-2.722-5.023-2.595-11.367.427-16.232 2.764-4.449 7.826-7.327 13.039-7.541 2.805-.116 2.821-4.492-.001-4.376m56.132-77.631c1.253-.592 2.863-1.106 4.432-1.366 1.173-.194 3.224-.174 4.434.073 3.578.731 6.488 3.006 8.573 6.08.662.977 1.926 1.41 2.995.785.968-.566 1.451-2.011.784-2.994-2.662-3.926-6.443-7.124-11.188-8.091-4.198-.855-8.402-.079-12.238 1.734-1.069.505-1.345 2.037-.786 2.994.64 1.094 1.922 1.291 2.994.785M86.034 572.57H749.1c2.816 0 2.82-4.377 0-4.377H86.034c-2.817 0-2.822 4.377 0 4.377m413.48-154.59c-5.869 2.721-8.17 10.141-5.588 15.875.436-1.072.871-2.143 1.309-3.215-8.814 1.316-15.707 9.299-16.236 18.088-.172 2.813 4.205 2.803 4.375 0 .422-7 6.193-12.848 13.023-13.869 1.535-.229 1.816-2.084 1.309-3.213-1.67-3.707.488-8.252 4.018-9.887 1.072-.498 1.342-2.045.785-2.994-.646-1.099-1.919-1.283-2.995-.785m-36.436 74.649c3.342 7.631 12.99 10.857 20.428 7.592l-3.293-1.891c.096 7.262 1.668 14.834 5.684 20.982 4.389 6.721 11.289 10.512 19.152 11.613 4.656.654 9.338.59 14.023.398 2.807-.115 2.82-4.49 0-4.375-7.186.291-15.072.588-21.652-2.809-5.814-3.004-9.434-8.604-11.244-14.758-1.059-3.6-1.537-7.307-1.586-11.053-.023-1.797-1.809-2.539-3.293-1.887-5.432 2.383-12.143-.775-14.439-6.023-.473-1.082-2.059-1.332-2.992-.785-1.12.654-1.262 1.91-.788 2.996M189.116 284.915c5.762-4.439 12.968-6.57 20.219-5.792 6.875.738 13.274 4.351 17.767 9.54.641.741 1.843.786 2.651.341 8.382-4.601 19.5-2.463 25.751 4.698 1.855 2.125 4.94-.98 3.095-3.095-7.548-8.647-21.042-10.877-31.055-5.381l2.652.342c-5.216-6.024-12.607-9.83-20.495-10.78-8.005-.964-16.421 1.44-22.794 6.348-.936.719-1.436 1.881-.786 2.994.539.92 2.053 1.511 2.995.785m68.018 35.568c9.719-.546 19.766.706 28.607 4.975 8.282 4 15.139 10.585 18.842 19.073a30.213 30.213 0 0 1 2.45 14.432c-.092 1.181 1.072 2.188 2.188 2.188 1.261 0 2.096-1.005 2.188-2.188.772-9.911-3.268-19.626-9.753-26.99-6.8-7.724-16.398-12.505-26.381-14.587-5.957-1.243-12.072-1.619-18.141-1.278-2.801.156-2.82 4.533 0 4.375"/><path fill="{{colors[5]}}" d="M294.158 360.819c5.435-.477 10.739 1.639 14.624 5.429 3.943 3.845 6.219 8.981 7.289 14.325.231 1.159 1.61 1.826 2.691 1.528 1.208-.331 1.761-1.529 1.528-2.692-1.232-6.157-4.075-12.165-8.684-16.518-4.632-4.372-11.035-7.012-17.447-6.448-1.178.104-2.188.932-2.188 2.189 0 1.103 1.004 2.292 2.187 2.187m-165.716-24.257c-5.336-1.117-10.862.17-15.086 3.638-4.006 3.288-6.263 8.489-6.229 13.634l3.294-1.889c-4.959-3.273-11.157-3.642-16.887-2.841-5.574.779-11.657 4.048-11.697 10.43-.017 2.817 4.359 2.819 4.377 0 .027-4.508 5.506-5.917 9.078-6.269 4.467-.439 9.086-.071 12.919 2.458 1.402.925 3.304-.296 3.292-1.89-.056-8.284 7.577-14.768 15.775-13.05 2.748.576 3.923-3.641 1.164-4.221m-43.239-37.52c6.443-7.034 17.755-8.393 25.696-3.123 2.352 1.563 4.546-2.225 2.208-3.778-9.497-6.303-23.303-4.593-30.998 3.807-1.9 2.073 1.186 5.176 3.094 3.094m264.088 33.809c1.092-6.675 7.339-10.159 13.386-11.624 6.499-1.576 13.477-1.927 19.176 2.065 2.518 1.763 4.641 4.329 5.827 7.173.675 1.62 2.267 2.042 3.656.965 2.967-2.301 7.128-2.489 10.598-1.411 3.566 1.107 7.918 4.328 7.813 8.463-.07 2.816 4.305 2.814 4.377 0 .15-6.057-5.424-10.828-10.732-12.589-5.176-1.717-10.834-.902-15.15 2.442l3.658.966c-2.753-6.604-8.606-11.798-15.734-13.14-4.334-.815-8.765-.371-13.058.495-3.957.796-7.945 2.156-11.21 4.587-3.412 2.542-6.126 6.174-6.825 10.444-.19 1.166.303 2.354 1.528 2.692 1.044.288 2.499-.356 2.69-1.528m61.9 41.524c1.074-4.53 2.34-9.704 5.881-12.996 4.619-4.293 11.236-1.661 16.256.39 1.643.671 3.031-1.238 2.691-2.691-.818-3.496 1.137-7.232 4.158-9.024 3.688-2.186 8.373-1.497 11.896.656 2.41 1.472 4.611-2.312 2.211-3.779-4.914-3.001-11.588-3.66-16.598-.481-4.568 2.897-7.135 8.47-5.889 13.792.898-.896 1.797-1.794 2.693-2.691-3.512-1.434-7.166-2.806-11.01-2.873a13.549 13.549 0 0 0-9.055 3.212c-4.439 3.729-6.17 9.907-7.455 15.323-.648 2.738 3.573 3.906 4.221 1.162m19.274 42.893c4.682-1.313 9.906-.412 13.771 2.596 3.83 2.98 5.979 7.764 5.906 12.578-.023 1.564 1.914 2.859 3.293 1.891 2.592-1.822 5.887-1.441 8.676-.244 2.246.963 6.25 3.523 4.633 6.518-1.338 2.479 2.439 4.689 3.777 2.207 2.748-5.086-1.158-10.039-5.662-12.25-4.199-2.063-9.584-2.855-13.633-.008l3.291 1.887c.096-6.074-2.674-12.125-7.469-15.895-4.973-3.91-11.658-5.207-17.746-3.498-2.706.759-1.556 4.981 1.163 4.218m60.933-27.455c1.873-7.712 9.119-13.59 17.08-13.706 1.098-.016 2.305-.993 2.189-2.188-1.287-13.238-.689-28.461 8.576-38.957 1.857-2.105-1.227-5.212-3.096-3.095-10.086 11.427-11.268 27.53-9.857 42.052l2.188-2.188c-9.846.143-18.969 7.322-21.301 16.918-.663 2.735 3.555 3.903 4.221 1.164m-36.841-83.723c4.301-8.727 13.666-14.446 23.387-14.481a23.641 23.641 0 0 1 3.158.179c1.432.186 2.852.694 4.307.547 3.203-.324 3.709-3.48 5.357-5.636 2.928-3.828 7.879-5.984 12.59-6.425 7.178-.671 14.211 1.886 20.684 4.707 1.084.471 2.35.318 2.994-.787.543-.926.305-2.519-.783-2.993-6.383-2.779-13.047-5.284-20.098-5.403-5.713-.096-11.471 1.624-15.932 5.251-2.154 1.752-3.662 3.91-4.922 6.354-.064.126-.211.5-.324.588-.027.022.506.114-.262.01-.602-.084-1.197-.23-1.801-.332a30.162 30.162 0 0 0-4.154-.426c-5.395-.148-10.814 1.283-15.535 3.863-5.289 2.891-9.773 7.355-12.445 12.775-.521 1.06-.285 2.368.785 2.994.964.565 2.468.28 2.994-.785m88.683-29.045c7.682-.885 15.373.798 21.936 4.901 2.395 1.496 4.594-2.289 2.209-3.78-7.146-4.466-15.768-6.463-24.145-5.497-1.176.135-2.188.909-2.188 2.188.001 1.078 1.005 2.324 2.188 2.188M521.041 412.09c2.822-8.869 13.066-13.485 21.557-9.504 1.07.502 2.359.299 2.994-.785.557-.95.289-2.491-.785-2.994-5.625-2.638-12.094-2.721-17.711.005-4.926 2.389-8.627 6.936-10.273 12.116-.856 2.689 3.366 3.84 4.218 1.162m26.813 26.037c.051-.127.996-.314 1.18-.348.873-.158 1.787-.145 2.67-.186 2.313-.104 4.631-.158 6.943-.002 3.854.256 7.717 1.229 10.855 3.566 1.307.973 2.445 2.193 3.266 3.602.859 1.482.979 3.469 2.256 4.676 1.502 1.422 3.541.926 5.391 1.213 1.643.256 3.205.852 4.631 1.701 3.207 1.914 5.477 5.039 6.215 8.703.234 1.158 1.609 1.826 2.691 1.527 1.207-.33 1.764-1.527 1.529-2.691-.828-4.109-3.299-7.693-6.611-10.213a17.68 17.68 0 0 0-5.244-2.74c-.965-.314-1.945-.506-2.951-.635a14.86 14.86 0 0 0-1.459-.131c-.322-.01-.949.104-1.248.004-.135-.045.201.211.109.111-.055-.059-.164-.543-.189-.623a16.397 16.397 0 0 0-.451-1.258c-.408-.996-.893-1.947-1.518-2.828-1.266-1.781-2.82-3.258-4.621-4.492-3.9-2.67-8.645-3.668-13.299-3.906a62.261 62.261 0 0 0-8.475.158c-2.584.225-4.877 1.066-5.889 3.629-.436 1.098.475 2.402 1.527 2.691 1.244.343 2.256-.425 2.692-1.528m-38.672 11.084c-5.842.066-11.607 2.744-15.389 7.217-4.523 5.35-5.182 12.107-5.477 18.85-.125 2.814 4.252 2.809 4.377 0 .236-5.438.508-11.395 4.193-15.758 3.063-3.621 7.529-5.879 12.295-5.934 2.815-.031 2.823-4.406.001-4.375m63.164-90.877c1.434-12.583 7.852-26.808 21.844-28.812 3.279-.47 6.707-.035 9.674 1.47 1.445.732 3.307-.153 3.291-1.89-.107-13.726 10.477-26.339 23.93-28.827 1.162-.214 1.822-1.622 1.527-2.691-.336-1.221-1.525-1.745-2.691-1.529-11.9 2.199-21.775 11.582-25.555 22.939a31.403 31.403 0 0 0-1.586 10.107c1.098-.629 2.195-1.259 3.293-1.89-6.693-3.393-14.551-2.633-21.066.827-6.848 3.637-11.434 10.201-14.111 17.33-1.564 4.172-2.422 8.549-2.926 12.965-.133 1.176 1.104 2.188 2.189 2.188 1.292.001 2.052-1.008 2.187-2.187m47.763-82.237c8.984-9.905 23.609-8.049 35.281-5.298 1.191.281 2.311-.368 2.691-1.528 2.119-6.473 8.336-11.412 15.143-11.929 1.18-.09 2.189-.941 2.189-2.188 0-1.115-1.004-2.278-2.189-2.189-8.824.67-16.604 6.714-19.363 15.141l2.693-1.528c-7.43-1.751-15.082-3.083-22.713-1.985-6.311.91-12.496 3.633-16.826 8.408-1.888 2.083 1.198 5.187 3.094 3.096m98.961 12.016c7.324-.456 14.82 2.763 19.258 8.686.709.944 1.893 1.429 2.994.785.93-.544 1.498-2.042.785-2.994-5.352-7.142-14.066-11.41-23.037-10.853-1.18.073-2.189.953-2.189 2.188 0 1.128 1.004 2.262 2.189 2.188m41.08 55.4c5.82 2.688 9.355 8.641 10.047 14.906.777 7.045-2.068 13.867-6.584 19.182-2.758 3.243-6.018 5.993-9.592 8.292-2.361 1.52-.17 5.31 2.209 3.78 7.135-4.591 13.283-10.86 16.504-18.808 2.947-7.272 2.57-15.724-1.322-22.585-2.078-3.663-5.211-6.771-9.053-8.547-1.072-.493-2.357-.304-2.994.786-.551.945-.291 2.496.785 2.994m-65.908-8.919c2.764-5.126 8.039-8.916 13.896-9.503 6.107-.613 12.104 2.024 15.969 6.741 1.277 1.558 3.672.188 3.736-1.548.178-4.946 4.721-8.537 9.268-9.475 5.973-1.232 12.072 1.938 16.695 5.407.945.709 2.445.152 2.994-.786.654-1.118.162-2.282-.785-2.993-5.789-4.345-13.383-7.562-20.705-5.701-6.25 1.585-11.604 6.908-11.844 13.547l3.736-1.547c-4.604-5.614-12.174-8.79-19.408-7.985-7.254.805-13.859 5.198-17.33 11.634-1.337 2.48 2.44 4.693 3.778 2.209m-77.586 49.428c-2.93-3.97-7.42-6.526-12.404-6.657-4.789-.126-9.619 2.172-12.553 5.949l3.656.965c-1.213-4.039-4.357-7.32-8.4-8.587-4.283-1.341-9.02-.061-12.287 2.921-2.086 1.901 1.016 4.987 3.094 3.093 4.451-4.057 11.654-1.99 13.375 3.737.424 1.415 2.592 2.335 3.656.964 2.199-2.83 5.473-4.664 9.102-4.67 3.453-.006 6.926 1.705 8.984 4.493.701.949 1.896 1.428 2.992.784.938-.547 1.492-2.036.785-2.992m-273.639 110.49l-1.82-20.434c-.089-1-.79-1.859-1.857-1.859-.937 0-1.947.854-1.858 1.859l1.82 20.434c.089 1 .791 1.857 1.858 1.857.935 0 1.946-.851 1.857-1.857m178.266-12.578l-2.033-11.113c-.176-.957-1.389-1.588-2.283-1.295-1.027.33-1.486 1.256-1.299 2.283l2.033 11.113c.176.957 1.387 1.588 2.285 1.297 1.026-.33 1.485-1.258 1.297-2.285m140.588-107.523c-.199 10.76.656 21.51 2.494 32.111.172.99 1.387 1.547 2.285 1.299 1.045-.287 1.469-1.293 1.297-2.285-1.783-10.274-2.553-20.699-2.361-31.125.045-2.392-3.67-2.392-3.715 0"/><path fill="{{colors[5]}}" d="M644.18 360.883c3.121 5.743 8.289 10.184 14.406 12.462 6.816 2.541 14.51 1.952 21.021-1.176-.91-.369-1.818-.74-2.729-1.109 1.045 3.992 3.875 7.53 7.66 9.238 4.203 1.896 9.105 1.591 13.063-.765 2.053-1.223.186-4.436-1.875-3.209-5.932 3.531-13.523.414-15.266-6.252-.322-1.236-1.672-1.617-2.727-1.111-5.652 2.714-12.295 2.984-18.16.803-5.213-1.938-9.547-5.898-12.186-10.755-1.139-2.101-4.348-.228-3.207 1.874m-84.594 116.578c-2.326 2.457-5.986 2.787-9.021 1.531-1.68-.697-3.154-1.836-4.412-3.133-.68-.701-1.23-1.625-2.041-2.178-.922-.631-1.982-.66-3.027-.354-1.832.537-3.402 1.039-5.346.914-1.77-.113-3.5-.697-4.996-1.639-2.857-1.801-4.709-5.049-4.926-8.4-.152-2.375-3.869-2.393-3.715 0 .438 6.768 5.414 12.6 12.221 13.598 1.752.256 3.486.221 5.225-.127.783-.156 1.6-.373 2.33-.703.254-.113.467.014.215-.137.115.066.242.299.326.402.275.334.557.662.852.98 2.268 2.439 5.303 4.443 8.631 5.008 3.721.631 7.668-.348 10.313-3.137 1.64-1.734-.983-4.365-2.629-2.625m-236.306-6.963c7.568 4.998 16.917 8.746 26.005 5.828 2.041-.656 3.956-1.627 5.657-2.93.824-.633 1.313-1.211 2.389-.924 1.228.328 2.399.648 3.674.754 4.517.375 8.607-1.783 11.209-5.402 3.186-4.432 3.494-10.105 3.7-15.365.094-2.389-3.622-2.385-3.715 0-.166 4.227-.307 8.709-2.514 12.451-1.927 3.268-5.357 5.141-9.18 4.541-2.179-.342-4.031-1.379-6.169-.191-.78.434-1.429 1.086-2.168 1.588a15.432 15.432 0 0 1-2.585 1.428c-3.569 1.525-7.687 1.695-11.454.906-4.715-.988-8.985-3.256-12.975-5.893-2.001-1.32-3.863 1.895-1.874 3.209m76.912 16.162c-3.264-.133-5.672-2.943-7.154-5.596-1.879-3.365-2.871-7.215-2.9-11.066-.016-2.008.4-4.021.094-6.02-.288-1.883-1.365-3.389-2.184-5.061-1.273-2.604-1.642-5.703-1.216-8.557.519-3.479 2.142-6.674 4.73-9.061 1.762-1.623-.87-4.242-2.626-2.625-5.35 4.926-7.397 13.156-4.976 20.025.632 1.787 1.83 3.33 2.432 5.105.671 1.979-.002 4.348.031 6.398.075 4.484 1.268 8.984 3.493 12.887 2.171 3.805 5.701 7.096 10.275 7.283 2.393.101 2.387-3.612.001-3.712m-206.15-138.863c.196 6.176-5.107 12.073-11.376 12.193-2.001.037-3.96.119-5.188 1.948-.969 1.442-1.168 3.329-1.711 4.952-1.144 3.42-3.031 6.816-5.938 9.048-2.956 2.27-7.251 3.369-10.764 1.766-.912-.415-2-.26-2.541.668-.467.798-.251 2.122.667 2.54 3.87 1.767 8.078 1.514 11.911-.232 3.794-1.729 6.696-5.066 8.558-8.733a30.528 30.528 0 0 0 2.228-5.856c.157-.581.237-1.722.707-2.153.547-.503 1.863-.209 2.554-.248 3.715-.211 7.225-1.906 9.864-4.504 3.022-2.978 4.88-7.117 4.745-11.388-.075-2.387-3.791-2.397-3.716-.001m37.344 1.44c-7.3 5.106-12.745 14.272-12.077 23.402.156 2.135.679 4.333 1.959 6.086.638.872 1.375 1.55 2.259 2.168.362.253.727.522 1.09.771a.78.78 0 0 1 .238.267c-.102-.242-.167.163-.289.417-2.248 4.644-3.569 9.716-2.367 14.863 1.152 4.936 4.756 9.221 9.624 10.776 2.283.729 3.259-2.857.988-3.582-3.6-1.15-6.105-4.429-6.989-8.017-.531-2.151-.483-4.444-.035-6.606.467-2.261 1.416-4.199 2.335-6.29.985-2.237-.137-4.007-1.962-5.296-1.5-1.06-2.417-2.097-2.872-3.929-.916-3.688.11-7.962 1.563-11.379 1.767-4.16 4.706-7.85 8.41-10.441 1.946-1.362.09-4.583-1.875-3.21m46.123 79.552c.999 6.479-1.688 13.301-6.677 17.502-5.132 4.32-12.531 5.361-18.772 3.137-.903-.32-2.093.367-2.286 1.299-1.03 4.988-2.655 10.127-6.001 14.08-2.997 3.543-7.255 6.068-11.985 6.008-2.393-.031-2.394 3.684 0 3.715 5.529.07 10.774-2.715 14.376-6.82 3.938-4.488 6.002-10.225 7.193-15.996-.761.434-1.523.865-2.285 1.299 5.861 2.088 12.454 1.563 18.008-1.189 5.513-2.732 9.571-7.846 11.347-13.697 1.021-3.361 1.199-6.865.666-10.324-.153-.99-1.398-1.541-2.284-1.297-1.061.289-1.453 1.287-1.3 2.283m-142.133-19.941c3.495 5.557 10.526 8.221 16.754 5.863a14.902 14.902 0 0 0 4.216-2.43c.611-.502 1.095-1.143 1.7-1.641.677-.557 1.416-.078 2.159.213 3.103 1.207 6.699 1 9.54-.822 3.181-2.041 5.037-5.793 4.753-9.56-.178-2.369-3.895-2.388-3.714 0 .254 3.371-1.728 6.466-5.087 7.273-1.854.447-3.352-.088-5.085-.701-2.019-.715-3.793-.389-5.327 1.1-1.21 1.176-2.342 2.225-3.925 2.9a10.48 10.48 0 0 1-4.986.793c-3.183-.27-6.106-2.184-7.792-4.861-1.269-2.018-4.485-.157-3.206 1.873m11.697 38.136c-1.896 6.313-.441 13.346 3.799 18.387 4.088 4.865 10.773 7.438 17.064 6.697l-1.858-1.855c.077 5.633 3.359 11.004 8.439 13.504 2.137 1.051 4.022-2.152 1.875-3.209-3.929-1.934-6.539-5.893-6.599-10.295-.012-.918-.845-1.977-1.857-1.857-5.311.623-10.661-1.299-14.208-5.342-3.556-4.055-4.605-9.939-3.073-15.043.689-2.295-2.895-3.274-3.582-.987m198.756-53.875a38.704 38.704 0 0 1-13.516 22.231c-.655.531-.642 1.57-.29 2.25 2.802 5.438 3.196 11.799 1.248 17.576-.764 2.27 2.822 3.246 3.583.986 2.268-6.725 1.62-14.146-1.623-20.438l-.29 2.252c7.374-5.996 12.555-14.564 14.471-23.871.48-2.333-3.101-3.331-3.583-.986"/></svg>