<svg data-name="图层 1" xmlns="http://www.w3.org/2000/svg" viewBox="0 0 800 800" preserveAspectRatio="none"><path d="M35.71 727.59l116.57-124.71C82.22 554.17 38.32 485.63 37.53 409.3 36 259 202.21 135.34 408.83 133.2s375.37 118 376.93 268.37-164.69 274-371.31 276.1c-60.85.63-118.42-9.36-169.4-27.59z" fill="{{colors[0]}}"/><path d="M327.57 532.33L267 534.56a6.3 6.3 0 0 1-6.2-8.3l19-56.55a6.27 6.27 0 0 1 2.15-3L534.32 274.3a6.31 6.31 0 0 1 8.83 1.19l41.45 54.35a6.31 6.31 0 0 1-1.19 8.83L331.16 531a6.33 6.33 0 0 1-3.59 1.33z" fill="{{colors[1]}}"/><path fill="{{colors[0]}}" d="M476.786 318.176l24.65-18.799 49.088 64.368-24.65 18.799z"/></svg>