<svg data-name="图层 1" xmlns="http://www.w3.org/2000/svg" viewBox="0 0 800 800" preserveAspectRatio="none"><path d="M32.13 613.63l90.81-95.16c-53.59-38.09-86.88-91.25-86.88-150.07 0-115.86 129.08-209.78 288.3-209.78s288.29 93.92 288.29 209.78-129.08 209.79-288.29 209.79c-46.9 0-91.18-8.16-130.32-22.62z" fill="{{colors[0]}}"/><path d="M712.48 587.39c36-25.57 58.3-61.24 58.3-100.72 0-65.64-61.73-120.79-145.24-136.38a155.62 155.62 0 0 1 2.43 27.3c0 93.17-83.48 172.14-199 199.51 35.5 30.78 88.75 50.37 148.3 50.37a253.18 253.18 0 0 0 87.46-15.18l108.67 39z" fill="{{colors[0]}}"/></svg>