<svg xmlns="http://www.w3.org/2000/svg" data-name="图层 1" viewBox="0 0 187.72 118.95" preserveAspectRatio="none"><path d="M144.75 73.36a.88.88 0 0 0-.65.14.7.7 0 0 1-.38.11h-.39v.06l.47.25a.21.21 0 0 0 .13 0 3.65 3.65 0 0 1 .66 0 .17.17 0 0 0 .12-.06 2 2 0 0 0 .24-.54.09.09 0 0 0-.07-.1zm-1.18 1.88h-.12a.37.37 0 0 0-.32.21.13.13 0 0 0 0 .12 5.09 5.09 0 0 0 .5.3.22.22 0 0 0 .23-.09v-.19a2.5 2.5 0 0 0-.29-.35zM128.76 86a.41.41 0 0 0-.29.25c0 .1.14.31.27.33s.26-.14.27-.24-.14-.34-.25-.34zm58.9-86s-.13 0-.15.07a.12.12 0 0 0 .05.16h.06l.1-.12c-.03-.02-.04-.11-.06-.11zm-41.2 72.31a.58.58 0 0 0-.45 0 .25.25 0 0 0-.11.15c0 .06.07.18.14.19h.46a.15.15 0 0 0 .09-.21.26.26 0 0 0-.13-.13zm-31.23 21.98h-.53a.22.22 0 0 0-.19.29l.31.57a1.6 1.6 0 0 0 .55-.58c.04-.1-.05-.28-.14-.28zm.97-.86a.21.21 0 0 0-.35.13 1.55 1.55 0 0 0 0 .17.39.39 0 0 1 0 .09.24.24 0 0 0 .34.19.69.69 0 0 0 .23-.22.2.2 0 0 0 0-.18.62.62 0 0 0-.22-.18zm-1.03-.85c-.33.28-.33.4 0 .68l.11.08h.16s.1-.1.09-.13a2.82 2.82 0 0 1-.15-.57.12.12 0 0 0-.21-.06zm.68-4.23a.23.23 0 0 0 .11.29.16.16 0 0 0 .12 0 .25.25 0 0 0 .19-.24c0-.11-.09-.19-.22-.2a.17.17 0 0 0-.2.15zm70.8-86.86l-.21.25a.56.56 0 0 0 0 .13l.43.13a.14.14 0 0 0 .1-.07.41.41 0 0 0-.09-.42c-.08-.07-.17-.09-.23-.02zM186 2.85a.31.31 0 0 0-.19 0l-.3.27a.76.76 0 0 0-.25.59.25.25 0 0 0 .14.2.3.3 0 0 0 .19 0 .22.22 0 0 0 .1-.15.74.74 0 0 1 .28-.58.62.62 0 0 0 .11-.17.13.13 0 0 0 0-.06l-.08-.1z" fill="{{colors[0]}}"/><path d="M184.8 4.61a.34.34 0 0 0-.18.09 2.22 2.22 0 0 1-.48.27c-.06.22 0 .48-.21.68v.19a1.34 1.34 0 0 1 0 .2.24.24 0 0 1-.32.15 1.65 1.65 0 0 1-.25-.15l-.51.26a.5.5 0 0 0 0 .46l.26.46s.1.06.16.08a.86.86 0 0 1-.3.42.24.24 0 0 1-.31 0 .68.68 0 0 0-.42-.19c-.18 0-.23 0-.19.22A.28.28 0 0 1 182 8l-.1.09-.11.08a.8.8 0 0 0-.34.7.88.88 0 0 1-.19.76 1.88 1.88 0 0 0-.05.33.77.77 0 0 1-.18.56c-.07.06-.06.16-.05.25a1.34 1.34 0 0 1 0 .2s-.12.1-.16.07a.91.91 0 0 0-.77-.13.43.43 0 0 0-.14.13.28.28 0 0 0 0 .13 1.27 1.27 0 0 1-.23.82v.13a.54.54 0 0 1-.39.33.55.55 0 0 0-.42.4 1.4 1.4 0 0 1-.44.58.23.23 0 0 1-.31 0 .25.25 0 0 0-.36 0 .48.48 0 0 1-.49.14h-.07s-.09 0-.1.07a.12.12 0 0 0 0 .12c.09.1.2.19.29.29a.67.67 0 0 1-.05.86c-.17.14-.29.34-.49.43h-.62c-.11.21-.22.4-.32.6v.13l.13.24a1.3 1.3 0 0 0-.1.25.86.86 0 0 1-.51.59c-.05 0-.09.09-.12.13a.45.45 0 0 0 .06.14.26.26 0 0 1 0 .36 1.79 1.79 0 0 1-.88.46c-.23.07-.41-.15-.62-.22a1.69 1.69 0 0 1-.29-.17.58.58 0 0 0-.17-.06 1 1 0 0 0-.41.45c-.15.3-.32.6-.44.91a.39.39 0 0 1-.42.25 1.24 1.24 0 0 0-.27 0 .69.69 0 0 0-.35.2v.17c0 .01.13.06.19 0a.67.67 0 0 1 .59.38.13.13 0 0 1 0 .13.61.61 0 0 1-.55.42.6.6 0 0 0-.49.19.79.79 0 0 1-.2.17.24.24 0 0 1-.26 0l-.53-.3a.69.69 0 0 0-.32-.08.34.34 0 0 0-.37.22 2 2 0 0 1-.35.65 7.67 7.67 0 0 1-.56.58 4.83 4.83 0 0 1-.58.54h-.64l-.25.22a.58.58 0 0 1-.68.13A2.41 2.41 0 0 1 166 23a.27.27 0 0 1-.08-.1.58.58 0 0 1 .19-.61 1 1 0 0 1 .18-.09.81.81 0 0 0 .54-.55.58.58 0 0 1 .31-.34l.12-.05a.28.28 0 0 0 .2-.25 1 1 0 0 0-.18-.77.22.22 0 0 1 0-.25.39.39 0 0 1 .08-.1c.21-.23.52-.26.76-.43h.46a.24.24 0 0 0 .18-.17.2.2 0 0 0-.09-.23 2.88 2.88 0 0 1-.31-.13c-.51-.31-.53-.19-.5-.89v-.34a.36.36 0 0 1 .06-.19.91.91 0 0 0 .16-.64v-.6c0-.2.11-.16.18-.17a.15.15 0 0 1 .18.07 2.12 2.12 0 0 1 .25.47 1.3 1.3 0 0 0 .32.5 2.57 2.57 0 0 0 .73.48s.13-.05.14-.12 0-.1 0-.13a4.33 4.33 0 0 1-.39-.7c-.08-.11-.1-.25-.18-.36s-.21-.22-.33-.35v-1.08c0-.36.08-.38.33-.42a.52.52 0 0 0 .22-.14.79.79 0 0 1 .59-.28c.11 0 .19-.12.2-.24a.68.68 0 0 0-.12-.44.21.21 0 0 1 0-.19 1.06 1.06 0 0 1 .17-.2.63.63 0 0 0 .21-.48c0-.18 0-.2.28-.2a.43.43 0 0 0 .36-.15 6.66 6.66 0 0 1 .55-.76v-.12a.67.67 0 0 0-.06-.12.29.29 0 0 1 0-.37 1 1 0 0 0 .17-.64 1.34 1.34 0 0 1 .11-.65c0-.05 0-.13-.1-.14a2.44 2.44 0 0 1-.27 0 .29.29 0 0 1-.24-.28c0-.11.08-.24 0-.33a4.43 4.43 0 0 0-.3-.67A.21.21 0 0 0 171 8a1 1 0 0 0-.27.2.8.8 0 0 1-.46.27 1.05 1.05 0 0 0 .05.19.31.31 0 0 1 0 .43.43.43 0 0 0-.09.49c0 .08-.11.18-.19.15l-.29-.14c-.07 0-.13 0-.18.06a.17.17 0 0 0-.06.11.34.34 0 0 1-.25.29.2.2 0 0 0-.15.12 1.05 1.05 0 0 1-.2.34 1 1 0 0 0-.29.45 1.65 1.65 0 0 1-.19.27l-.22.26a.15.15 0 0 0 0 .19 1 1 0 0 0 .15.21.14.14 0 0 0 .12 0 1.06 1.06 0 0 0 .19-.06.13.13 0 0 1 .17.13.69.69 0 0 1-.08.4.56.56 0 0 1-.62-.08.44.44 0 0 0-.51 0 1.2 1.2 0 0 1-.3.15.4.4 0 0 0-.29.33.4.4 0 0 1-.21.25l-.3.15a.65.65 0 0 0-.37.53.55.55 0 0 1-.1.31 1.4 1.4 0 0 1-.61.52 1 1 0 0 0-.61.59 1.77 1.77 0 0 1-.4.54l-.33.33a.92.92 0 0 1-.56.36.51.51 0 0 0-.16.11.88.88 0 0 0-.41.87.88.88 0 0 1 0 .21c-.12.12-.23.26-.37.38a1.3 1.3 0 0 1-1 .42 1.29 1.29 0 0 0-.34 0 .58.58 0 0 0-.24.11 1.73 1.73 0 0 0-.24.23 1.51 1.51 0 0 1-.49.33 2.15 2.15 0 0 0-.88.61 3.55 3.55 0 0 1-.42.39.56.56 0 0 1-.42.18.25.25 0 0 0-.3.2c0 .11-.1.21-.23.21a.85.85 0 0 0-.59.28c-.18.2-.38.38-.57.57a.57.57 0 0 0-.16.22 2 2 0 0 1-.49.63.2.2 0 0 1-.25 0 .93.93 0 0 1-.14-.14c-.18-.16-.22-.16-.37 0l-.93 1a.84.84 0 0 1-.28.18 10.86 10.86 0 0 0-1.13.57.85.85 0 0 1-.59.61.9.9 0 0 0-.65.52.68.68 0 0 1-.22.26 3.87 3.87 0 0 1-1 .84c-.05 0-.08.1-.12.15a1.62 1.62 0 0 1-.1.18.59.59 0 0 1-.51.28 1.3 1.3 0 0 0-.87.28 4.43 4.43 0 0 0-.26.54.88.88 0 0 1-.5.52.69.69 0 0 0-.33.22 8.68 8.68 0 0 1-1 1 .3.3 0 0 1-.42 0 1.7 1.7 0 0 0-.22-.15.15.15 0 0 0-.12 0 .46.46 0 0 0-.11.16 1 1 0 0 1-.57.55l-.3.14a.7.7 0 0 0-.34.21 1.12 1.12 0 0 1-.21.17.32.32 0 0 1-.24.07.28.28 0 0 0-.37.2 1.67 1.67 0 0 1-.25.4 9.45 9.45 0 0 1-.93 1 .9.9 0 0 1-.53.27 1.67 1.67 0 0 0-.84.39 1 1 0 0 0-.43.59.58.58 0 0 1-.26.3.21.21 0 0 1-.24 0l-.29-.18s-.07.08-.08.12a.43.43 0 0 1-.22.32l-.43.2a1.09 1.09 0 0 0-.23.14 6.07 6.07 0 0 0-.7.73c.07.12.15.23.21.35a.31.31 0 0 1 0 .32.54.54 0 0 1-.58.24.53.53 0 0 1-.19-.06c-.13-.09-.24-.05-.38 0a1.41 1.41 0 0 0-.64.46c-.07.09-.12.19-.24.23h-.42a.75.75 0 0 0-.19.35.37.37 0 0 1-.25.3 1.74 1.74 0 0 0-.56.36 1.3 1.3 0 0 1-.34.21 2.37 2.37 0 0 0-.48.23c-.23.2-.5.17-.77.23l-.62.62-1 1a.32.32 0 0 1-.31.08c-.16 0-.25.06-.32.18s-.07.17-.11.27a1.63 1.63 0 0 0-.45.07 2 2 0 0 0-.37.28.81.81 0 0 1-.18.1 1 1 0 0 0-.44.3 2 2 0 0 1-.35.31 2.24 2.24 0 0 0-.89.89.6.6 0 0 1-.55.34.41.41 0 0 0-.31.12.35.35 0 0 1-.31.08.33.33 0 0 0-.25.08l-.52.53a1.19 1.19 0 0 1-.44.3c-.11 0-.2.11-.3.15s-.34.12-.38.35c0 0-.09.09-.15.11a.82.82 0 0 0-.35.2 1 1 0 0 1-.26.21 2.56 2.56 0 0 0-.67.56 3.7 3.7 0 0 0-.28.28c-.23.31-.62.35-.9.57a1.39 1.39 0 0 0-.46.08 1.81 1.81 0 0 0-.4.34h-.07a.84.84 0 0 0-.38.26c-.39.38-.77.77-1.15 1.15l-.34.33a.42.42 0 0 1-.37.11 1.42 1.42 0 0 1-.2 0 .26.26 0 0 0-.27.15.29.29 0 0 0 0 .13.22.22 0 0 1-.18.18.55.55 0 0 0-.28.17 2 2 0 0 0-.52.7.48.48 0 0 1-.49.29 1 1 0 0 0-.7.15h-.65a1.07 1.07 0 0 0-.15.17 1.81 1.81 0 0 1-.8.7.88.88 0 0 0-.23.14c-.2.19-.39.38-.7.33-.06 0-.13 0-.19.07a5.07 5.07 0 0 1-.65.35c-.23.09-.4.29-.66.32-.08 0-.15.1-.21.16l-.34.33a1.69 1.69 0 0 1-1.25.57c-.15 0-.22.09-.28.22a.7.7 0 0 1-.62.45 1.92 1.92 0 0 0-.66.32s-.06.06-.08.1a.7.7 0 0 1-.5.5 1 1 0 0 0-.28.18 1.22 1.22 0 0 1-.38.26 1.27 1.27 0 0 0-.34.23c-.1.07-.2.16-.31.25h-.35a.48.48 0 0 0-.42.16.86.86 0 0 1-.26.21 1.79 1.79 0 0 0-.53.41l-.29.26-.18.14a.81.81 0 0 0-.72.29.36.36 0 0 1-.29.14.63.63 0 0 0-.53.25.6.6 0 0 1-.52.25.55.55 0 0 0-.42.2 5.24 5.24 0 0 1-.5.44.93.93 0 0 0-.28.28 1.7 1.7 0 0 1-1.3.85.5.5 0 0 0-.33.21 7.68 7.68 0 0 1-.55.59.18.18 0 0 1-.25 0h-.06a.29.29 0 0 0-.37 0 2.31 2.31 0 0 0-.45.29 1.8 1.8 0 0 1-.68.42c-.31.13-.59.31-.9.45a3.74 3.74 0 0 1-.73.34.66.66 0 0 0-.22.15 1.4 1.4 0 0 0-.44.58.75.75 0 0 1-.18.28.55.55 0 0 1-.23.14 3.78 3.78 0 0 0-.65.14 2.32 2.32 0 0 1-.59 0l-.41.38a.37.37 0 0 1-.37.1.5.5 0 0 0-.55.16 2.13 2.13 0 0 1-.85.63.28.28 0 0 0-.11.08 3.12 3.12 0 0 1-.74.45c-.24.13-.49.23-.73.35a1.6 1.6 0 0 0-.55.38.62.62 0 0 1-.5.18.59.59 0 0 0-.25.07 3.38 3.38 0 0 0-.41.24.65.65 0 0 1-.38.11h-.2a.76.76 0 0 0-.73.26.59.59 0 0 1-.28.18c-.4.2-.81.39-1.19.62a1 1 0 0 1-.26.07h-.19c-.21.13-.47.17-.64.36s-.16.16-.24.24a.64.64 0 0 1-.53.26.42.42 0 0 0-.25.06c-.2.15-.45.21-.62.41s-.51.26-.76.41c-.36 0-.62.25-.93.36a4.3 4.3 0 0 0-.48.24.81.81 0 0 1-.25.08.7.7 0 0 0-.53.26c-.44.44-.34.41-.93.42a.9.9 0 0 0-.16 0 2.32 2.32 0 0 1-.28.24 1.55 1.55 0 0 1-1 .39.49.49 0 0 0-.27 0 5.59 5.59 0 0 0-.75.43 6.34 6.34 0 0 1-1.27.71 2.23 2.23 0 0 0-.74.45.54.54 0 0 1-.22.15 1.64 1.64 0 0 0-.55.38.56.56 0 0 1-.45.1c-.14 0-.16-.14-.21-.23a1 1 0 0 0-.14-.16 2.65 2.65 0 0 0-.68.44.73.73 0 0 1-.28.19 1.44 1.44 0 0 0-.41.21.27.27 0 0 1-.26 0 .49.49 0 0 0-.45.07 2.11 2.11 0 0 1-.3.16.31.31 0 0 0-.12 0 .9.9 0 0 1-.63.18.51.51 0 0 0-.42.16 2.32 2.32 0 0 1-.74.47l-.84.42a.3.3 0 0 1-.18.06.55.55 0 0 0-.44.13.35.35 0 0 1-.24.08.67.67 0 0 0-.59.27 1.06 1.06 0 0 1-.21.16.19.19 0 0 1-.13 0 .75.75 0 0 1-.12-.07c-.16-.08-.21-.07-.34.06-.11.19-.25.14-.4.06l-.44.16a.27.27 0 0 0-.12.06.73.73 0 0 1-.57.16h-.54a.31.31 0 0 0-.29.24.37.37 0 0 1-.07.12c-.2.07-.45 0-.63.19s-.12 0-.18 0a.31.31 0 0 0-.32 0l-.41.23a.36.36 0 0 1-.31.09.61.61 0 0 0-.62.14c-.07.05-.17.06-.24.11a1 1 0 0 1-.64.18.53.53 0 0 0-.43.15.46.46 0 0 1-.32.1.5.5 0 0 0-.31.1.54.54 0 0 1-.51.07 2.44 2.44 0 0 0-.47 0 .5.5 0 0 0-.37.13 1 1 0 0 0-.14.15.65.65 0 0 1-.6.23h-.42a.63.63 0 0 1-.66.22s-.08 0-.11.06a.64.64 0 0 1-.43.18.4.4 0 0 0-.3.12c-.12.1-.24.2-.37.29s-.35 0-.52 0h-.07c-.22 0-.47-.07-.66 0a1.66 1.66 0 0 0-.68.73.66.66 0 0 1-.08.13h-1.68a.79.79 0 0 0-.62.5.2.2 0 0 1-.25 0l-.22-.13-.54.45h-.95a3.73 3.73 0 0 1-1-.2.56.56 0 0 0-.52 0 1 1 0 0 1-.7.18 2.51 2.51 0 0 1-.61 0 .2.2 0 0 0-.18 0 .72.72 0 0 1-.56.18.46.46 0 0 0-.24.1.57.57 0 0 1-.37.14.56.56 0 0 0-.37.15.22.22 0 0 1-.3 0 .66.66 0 0 0-.5-.16h-1.15a1.07 1.07 0 0 0-.62.2 1.06 1.06 0 0 1-.94.23.61.61 0 0 0-.27 0 .59.59 0 0 1-.45-.09.59.59 0 0 0-.64 0 .84.84 0 0 1-.51.1h-2.18a.52.52 0 0 1-.33 0 .84.84 0 0 0-.51-.12c-.14 0-.27 0-.4-.06a.9.9 0 0 0-.69-.2.4.4 0 0 1-.35-.16l-.13-.15a.17.17 0 0 0-.24 0 .38.38 0 0 1-.5 0c-.28-.23-.65-.29-.94-.51a.54.54 0 0 0-.19-.07 1.19 1.19 0 0 1-.45-.11.21.21 0 0 0-.19 0 .59.59 0 0 1-.32.09h-1.14l-.55-.55c-.07 0-.16 0-.19.08A2.77 2.77 0 0 1 29 81a.2.2 0 0 1-.3-.16.57.57 0 0 1 0-.26 1 1 0 0 1 .14-.23.58.58 0 0 0-.49-.88 1.34 1.34 0 0 1-.65-.12h-.18a.32.32 0 0 1-.43-.06l-.36-.29a.65.65 0 0 0-.35-.2.58.58 0 0 1-.37-.26.22.22 0 0 1 0-.3c.11-.15.23-.28.34-.42a.25.25 0 0 0 0-.36l-.35-.28h-1.13a.3.3 0 0 1-.31-.21.26.26 0 0 0-.24-.19h-.27a.94.94 0 0 1-.7-.19.41.41 0 0 0-.45 0l-.11.08a.3.3 0 0 1-.37 0l-.78-.38h-1.35a.65.65 0 0 0-.44.14.4.4 0 0 1-.31.1h-.48a.56.56 0 0 1-.37-.13c-.14-.12-.27-.08-.42 0a1 1 0 0 0-.46.47c0 .14-.32.18-.48.1a4 4 0 0 0-.35-.2.47.47 0 0 1-.27-.28.53.53 0 0 0-.49-.39.58.58 0 0 1-.41-.2l-.15-.14a.53.53 0 0 0-.44-.14.58.58 0 0 1-.55-.15.42.42 0 0 0-.39-.08.59.59 0 0 1-.45-.07.73.73 0 0 0-.37-.14.61.61 0 0 1-.37-.15.54.54 0 0 0-.25-.09.78.78 0 0 1-.44-.15c-.14-.11-.3 0-.45-.06a.27.27 0 0 1-.12-.06.61.61 0 0 0-.5-.15h-.41a.76.76 0 0 1-.5-.15.44.44 0 0 0-.56 0 1 1 0 0 1-.63.18h-.88a.53.53 0 0 1-.35-.14.59.59 0 0 0-.44-.13h-.37a.52.52 0 0 1-.37-.12.46.46 0 0 0-.37-.16 2.41 2.41 0 0 0-.54 0 .74.74 0 0 1-.74-.19 1.11 1.11 0 0 0-.37-.27H2.52a2.15 2.15 0 0 0-1.6-.69c-.19-.1-.38-.22-.58-.32s-.21 0-.23.12a1.87 1.87 0 0 1-.07.4.31.31 0 0 0 .15.44 1.79 1.79 0 0 1 .24.12 1.38 1.38 0 0 1 .58.64.94.94 0 0 0 .23.32.7.7 0 0 1 .21.35.2.2 0 0 0 .17.18.88.88 0 0 1 .38.3c.08.09.17.16.24.24a1.91 1.91 0 0 0 .88.6 1.05 1.05 0 0 1 .3.15c.23.22.45.44.66.67a.39.39 0 0 1 0 .45c-.06.12-.19.2-.2.37a9.12 9.12 0 0 1 .4.83 1.59 1.59 0 0 0 .42.6l.39.37a.28.28 0 0 1 .08.11.41.41 0 0 1 0 .19c0 .09-.07.1-.14.12h-.2a.67.67 0 0 1-.66-.25.43.43 0 0 0-.35-.16.93.93 0 0 1-.7-.19.36.36 0 0 0-.12-.05 1.22 1.22 0 0 0-.27 0 .81.81 0 0 1-.43-.14.16.16 0 0 0-.12 0 .62.62 0 0 0 0 .19v.06a1.84 1.84 0 0 1 .47.72.75.75 0 0 0 .18.28 5.77 5.77 0 0 0 .44.42.66.66 0 0 1 .23.32.57.57 0 0 0 .36.38 1.12 1.12 0 0 1 .32.24c.15.14.29.29.43.43a1 1 0 0 1 .27.38 1.94 1.94 0 0 0 .29.53 3.74 3.74 0 0 1 .55.92 2.25 2.25 0 0 0 .7 1 2.57 2.57 0 0 1 .28.29 2.37 2.37 0 0 1 .64.86 4.69 4.69 0 0 1 1.11.87c.25.25.45.57.82.68 0 0 .07.06.1.09l.9.91a.66.66 0 0 1 .15.22.63.63 0 0 0 .49.49c.13 0 .22.16.35.2a.56.56 0 0 1 .33.31c.12.25.19.55.51.66.05 0 .08.11.11.17a1.7 1.7 0 0 0 .15.22c.25.26.5.51.76.76a.88.88 0 0 0 .23.14.59.59 0 0 1 .26.3 1.27 1.27 0 0 1 .16.64.36.36 0 0 0 .31.44.7.7 0 0 1 .27.19l.72.72a.94.94 0 0 1 .33.49s.08.12.13.13a.75.75 0 0 1 .4.24c.12.13.3.23.34.41s.26.23.39.34l.39.37 1.24 1.24a1 1 0 0 0 .61.39 4 4 0 0 1 1.08.79c.13.16.3.28.43.44a1.19 1.19 0 0 0 .47.36.51.51 0 0 1 .31.33c0 .09.06.18.15.21a1.9 1.9 0 0 1 .72.6 1.59 1.59 0 0 0 .54.39c.29.13.56.28.85.42a.43.43 0 0 1 .23.23c0 .08.07.16.12.24a.45.45 0 0 0 .34.2h.2a.19.19 0 0 1 .19.15.33.33 0 0 0 .28.26.29.29 0 0 1 .23.22 1 1 0 0 0 .73.71.74.74 0 0 1 .23.14.47.47 0 0 0 .32.1 2.44 2.44 0 0 1 .27 0 .21.21 0 0 1 .2.15.35.35 0 0 0 .32.29.79.79 0 0 1 .23.14c.08.07.15.18.25.22.36.14.57.51 1 .62.07 0 .13.11.2.17a2.65 2.65 0 0 0 .29.29.58.58 0 0 0 .23.13.75.75 0 0 1 .44.27l.91.91a1.32 1.32 0 0 0 .65.46c.08 0 .14.11.21.17s.1.15.25.12l.22-.2c.09-.09.18-.13.29-.06a.58.58 0 0 0 .38.13.48.48 0 0 1 .39.22 1.62 1.62 0 0 1 .1.18.47.47 0 0 0 .28.27.67.67 0 0 1 .43.48.61.61 0 0 0 .14.3.83.83 0 0 1 .17.21c.08.27.31.43.48.64a.4.4 0 0 0 .35.15.41.41 0 0 1 .41.29.28.28 0 0 0 .16.12 2.25 2.25 0 0 1 1.11.58 1.84 1.84 0 0 0 .66.32.62.62 0 0 0 .58-.09.25.25 0 0 1 .36 0 1.38 1.38 0 0 1 .22.26v.18a.28.28 0 0 1-.08.11.21.21 0 0 0 0 .3.43.43 0 0 0 .29.16.63.63 0 0 1 .43.15 1.56 1.56 0 0 0 .34.23 1.47 1.47 0 0 1 .85.89c0 .07.18.11.24.07a.62.62 0 0 0 .17-.11.46.46 0 0 1 .5-.09.31.31 0 0 0 .25 0 .79.79 0 0 0 .31-.26.29.29 0 0 0 0-.37.65.65 0 0 0-.26-.2l-.25-.1a.33.33 0 0 1-.13-.35 1.57 1.57 0 0 1 .55-.67c.16-.12.35-.07.53-.07h.2a4.51 4.51 0 0 0 .39.37 1.22 1.22 0 0 0 .32.24.38.38 0 0 1 .27.47 1.29 1.29 0 0 0 0 .34.53.53 0 0 0 .15.36.81.81 0 0 0 .2.18 3 3 0 0 1 .71.51h1.08c.11.17.21.31.3.46s.37.17.53.29h.05a.43.43 0 0 0 .44.06.31.31 0 0 1 .32.07 2.71 2.71 0 0 0 1 .59 7.09 7.09 0 0 1 .72.38 2.34 2.34 0 0 0 .6.28c.24.06.47.16.7.21a1.25 1.25 0 0 1 .5.18s.17 0 .17-.06a.31.31 0 0 0 0-.19.73.73 0 0 0-.4-.33c-.34-.12-.37-.17-.63-.57a4.13 4.13 0 0 1 .38-.25.44.44 0 0 1 .24-.09h1.55c.06 0 .12.06.16.11a1.06 1.06 0 0 1 .06.19.12.12 0 0 0 .17.06.43.43 0 0 1 .65.09 1.72 1.72 0 0 1 .37.55s.08.05.12 0 .08 0 .11-.06a.28.28 0 0 1 .37 0c.1.09.22.17.24.31s.14.22.27.27a.29.29 0 0 1 .14.13c.07.12.11.25.19.36a.41.41 0 0 0 .23.13 6 6 0 0 0 .74 0 .26.26 0 0 0 .18-.07 3.49 3.49 0 0 0 .35-.32c.2-.21.4-.38.68-.11h.06a1.07 1.07 0 0 0 .78-.09.29.29 0 0 1 .46.07 4.13 4.13 0 0 1 .32.46h.45a.39.39 0 0 1 .19.06 1.22 1.22 0 0 1 .61.69s.14.08.18.06a.42.42 0 0 1 .55 0h.47a.3.3 0 0 1 .3.22.24.24 0 0 0 .25.18h.95a.27.27 0 0 0 .24-.38 1.06 1.06 0 0 1-.1-.46c0-.13 0-.28.08-.38s.21-.08.32-.1a.78.78 0 0 0 .35-.18.25.25 0 0 1 .35.1.41.41 0 0 1 0 .19c0 .09 0 .17-.06.26a.28.28 0 0 0 .23.29h.67a.28.28 0 0 1 .27.25v.53c0 .17.11.1.16.09a.37.37 0 0 0 .24-.1.32.32 0 0 1 .17-.09c.38 0 .77-.12 1 .26l.1.09h.05a.08.08 0 0 0 .07 0 .18.18 0 0 0 .07-.09c-.06-.17-.08-.31.14-.37a.16.16 0 0 0 .1-.08c.1-.17.19-.35.28-.53a1.65 1.65 0 0 0-.1-.19.22.22 0 0 1 0-.31l.23-.24a.48.48 0 0 1 .43-.15c.12 0 .21 0 .31-.09l1.38-.71a.52.52 0 0 1 .25-.07.57.57 0 0 1 .26 0s.08.11.11.17.24.18.35 0 .11-.17.18-.19c.28-.07.48-.34.8-.31a.21.21 0 0 0 .13 0c.2-.2.35-.11.5.07s.22.22.34.33a.43.43 0 0 0 .56.06l.62-.37c.05 0 .11 0 .12.08a.94.94 0 0 0 .53.49.17.17 0 0 0 .17-.08.4.4 0 0 0 0-.32c0-.12-.11-.24-.16-.34a3.15 3.15 0 0 1 .22-.45c.09-.12.22-.22.32-.34a.25.25 0 0 0 0-.36l-.72-.71a.13.13 0 0 0-.18 0 .29.29 0 0 0-.01.59 1.18 1.18 0 0 0 0 .26.26.26 0 0 1-.24.27h-.88a.25.25 0 0 1-.22-.13c-.07-.14-.13-.29-.19-.43a.15.15 0 0 1 0-.12.45.45 0 0 1 .32-.23H73a.86.86 0 0 0 .69-.19.15.15 0 0 1 .13 0c.21.08.34 0 .47-.17l.33-.33a.42.42 0 0 1 .48-.16c.08 0 .17 0 .21-.13s.15-.27.24-.41a1.71 1.71 0 0 1 .22-.25.17.17 0 0 1 .24 0l.28.16c.46-.33.48-.34.67-.75a1.06 1.06 0 0 1 .22-.33c.11-.11.23-.22.33-.34a.66.66 0 0 0 .11-.24 1.23 1.23 0 0 0 0-.2.44.44 0 0 1 .31-.4.53.53 0 0 1 .33 0 .6.6 0 0 1 .39.35.93.93 0 0 1-.06.78c-.16.25-.14.31.07.51s.18.12.29 0a.65.65 0 0 1 .38-.13.83.83 0 0 0 .39 0 2 2 0 0 1 .71-.17c.16 0 .23 0 .27.23a.68.68 0 0 0 0 .26 1.85 1.85 0 0 1 .28.54s.1.08.16.09a.82.82 0 0 0 .27 0 .11.11 0 0 0 .1-.14c-.11-.2-.21-.4-.31-.6s-.08-.12-.07-.18-.08-.34-.14-.52.13-.33.21-.48a1.07 1.07 0 0 1 .47-.47.26.26 0 0 1 .19 0h1a.69.69 0 0 0 .56-.19.37.37 0 0 1 .17-.1c.29 0 .59-.1.84.11a.88.88 0 0 0 .57.16.44.44 0 0 0 .36-.13 1.7 1.7 0 0 0 .19-.19.33.33 0 0 0 .09-.31 2 2 0 0 1 0-.74c0-.12-.14-.24-.28-.24h-.33a.33.33 0 0 1-.29-.48.45.45 0 0 1 .06-.12l.43-.43a.15.15 0 0 1 .18 0c.39.21.44.14.44.65a1.62 1.62 0 0 0 0 .2.29.29 0 0 0 .19.17.71.71 0 0 0 .2 0 .51.51 0 0 1 .5.09.55.55 0 0 0 .25.1h.49a3.84 3.84 0 0 1 .29-.27.62.62 0 0 1 .21-.15c.28 0 .47-.26.74-.36a1.78 1.78 0 0 0 0-.4c0-.14-.17-.27-.19-.42a3.27 3.27 0 0 1 .05-.53.39.39 0 0 0-.29-.4l-.5-.19a.16.16 0 0 1 0-.28.32.32 0 0 1 .17-.09 1 1 0 0 1 .66.08 4.27 4.27 0 0 0 .61.29.78.78 0 0 0 .46-.45A1.9 1.9 0 0 1 90 105a.27.27 0 0 1 .37 0 .66.66 0 0 0 .55.18h.21a.56.56 0 0 0 .43-.14h.06s.15.06.15.11v.41c0 .14.11.28.14.43a.16.16 0 0 1 0 .13l-.34.32a.93.93 0 0 0-.13.15v.17c0 .01.14.06.19 0a.63.63 0 0 1 .58.08.24.24 0 0 0 .34-.1.64.64 0 0 0 .1-.18.71.71 0 0 1 .42-.49l.34-.19.2.09a.18.18 0 0 0 .23-.08.23.23 0 0 0 .06-.25 1.89 1.89 0 0 1-.18-.06.3.3 0 0 1-.17-.38.5.5 0 0 1 .05-.13 1 1 0 0 1 .34-.32 2.27 2.27 0 0 0 .79-.62.42.42 0 0 1 .5 0 .83.83 0 0 1 .33.49c0 .12.13.17.26.18a.45.45 0 0 0 .37-.11l.4-.37.61-.05a.2.2 0 0 0 .13-.26c-.06-.12-.19-.2-.19-.35v-.54c0-.18 0-.11.06-.12.21 0 .34-.21.53-.27a.19.19 0 0 1 .18.07 1.5 1.5 0 0 1 .3 1 .61.61 0 0 0 0 .13.07.07 0 0 0 .05 0h.11c.02 0 .09-.22.17-.28a.87.87 0 0 0 .3-.85 1.2 1.2 0 0 1 0-.27.6.6 0 0 1 .12-.24.85.85 0 0 1 .25-.21c.18-.09.37-.16.55-.24a.45.45 0 0 1 .12.06.68.68 0 0 0 .76 0l.8-.37a.24.24 0 0 0 .13-.22c0-.16 0-.31-.18-.39h-.06a1.43 1.43 0 0 0-.83-.23c-.14 0-.25-.07-.38-.13s-.12 0-.18 0-.08 0-.12.06a.21.21 0 0 1-.3-.17.54.54 0 0 1 0-.39 1.67 1.67 0 0 0 .18-.28 1.17 1.17 0 0 1 .38-.55.41.41 0 0 1 .54 0 3.38 3.38 0 0 1 .79.62c.15.16.32.32.48.47a.46.46 0 0 0 .42.16 1.45 1.45 0 0 1 1.16.2.36.36 0 0 0 .38 0 2.66 2.66 0 0 0 .38-.28.24.24 0 0 0 .09-.3.72.72 0 0 1-.11-.45c0-.09 0-.17.12-.22a3.12 3.12 0 0 0 .35-.2.42.42 0 0 1 .32-.23.84.84 0 0 1 .75.17h.12a.11.11 0 0 0 0-.12c-.13-.28-.27-.56-.4-.83a.54.54 0 0 1 .34-.32.15.15 0 0 1 .13 0 .6.6 0 0 1 .37.52v.4a.21.21 0 0 0 .23.19h.2c.07 0 .16 0 .17-.09a5.22 5.22 0 0 1 .26-.47 2.4 2.4 0 0 0 .06-.4.44.44 0 0 1 .36-.35 1 1 0 0 0 .62-.21.44.44 0 0 1 .26-.06h.47a.27.27 0 0 0 .26-.17.54.54 0 0 1 .13-.22c.11-.09.21 0 .31 0h.41c.15 0 .26.21.39.33a.21.21 0 0 0 .25 0 2.29 2.29 0 0 0 .4-.36.84.84 0 0 1 .43-.31l.11-.07a.18.18 0 0 0 0-.24 1.48 1.48 0 0 0-.66-.55 1 1 0 0 1-.33-.23.4.4 0 0 1-.12-.43.63.63 0 0 1 .52-.47.68.68 0 0 0 .65-.5.31.31 0 0 1 .24-.2s.09 0 .1-.08a.63.63 0 0 1 .41-.4s.06-.07.07-.11a.65.65 0 0 0 0-.2 1.14 1.14 0 0 1 .2-.89 4.6 4.6 0 0 0 .32-.67c.21-.42.5-.79.75-1.19a.88.88 0 0 1 .25-.22.21.21 0 0 1 .19 0 .88.88 0 0 1 .25.22.76.76 0 0 0 .59.22 3.14 3.14 0 0 1 .24.35 2.42 2.42 0 0 1 .4 1 .25.25 0 0 0 .27.24 7.31 7.31 0 0 0 .81 0 .71.71 0 0 1 .45.09 1.12 1.12 0 0 0 .24.13.38.38 0 0 1 .21.25 1.12 1.12 0 0 0 .1.18 1 1 0 0 0 .18-.1 1.8 1.8 0 0 1 .67-.45.41.41 0 0 1 .19 0c.1 0 .19.12.3.11l.37-.19a1.42 1.42 0 0 0 .23-.14.46.46 0 0 0 .2-.4v-.27c-.35-.13-.6-.41-1-.48-.21.11-.42.25-.64.34a1.22 1.22 0 0 0-.55.37.17.17 0 0 1-.24 0 .56.56 0 0 1-.17-.66 2.85 2.85 0 0 1 .16-.3c0-.07 0-.21-.1-.21h-.47a.28.28 0 0 0-.3.21c0 .19-.18.23-.36.22s-.32 0-.47 0a.42.42 0 0 1-.3-.13.87.87 0 0 1-.19-.28 1.1 1.1 0 0 0-.47-.55l-.29-.17a2.51 2.51 0 0 1-.31-.26.42.42 0 0 1-.08-.5 3.1 3.1 0 0 1 .69-1 .57.57 0 0 0 .22-.32 5.44 5.44 0 0 1 .27-.54.2.2 0 0 1 .22-.11.34.34 0 0 0 .46-.12c.06-.06.13-.12.19-.19a.58.58 0 0 1 .48-.21.91.91 0 0 0 .58-.11.59.59 0 0 1 .2 0 5.15 5.15 0 0 1 .79 0 .83.83 0 0 1 .3.41c0 .1-.12.21-.19.32l-.19.35a.15.15 0 0 0 .15.23l.33-.05a.3.3 0 0 1 .36.25v.07a.32.32 0 0 1-.24.41l-.55.25a.22.22 0 0 0 0 .35.45.45 0 0 0 .12.06c.24 0 .49 0 .72.11h.19a1.91 1.91 0 0 1 .33-.06.8.8 0 0 0 .56-.16c.18-.18.45 0 .64-.19a.74.74 0 0 1 .82 0l.48.25a.28.28 0 0 1 .12.35c0 .06-.07.12-.09.18a.2.2 0 0 0 .14.26c.1 0 .27 0 .29-.11s0-.22 0-.33a.48.48 0 0 1 .23-.39.3.3 0 0 1 .26 0l.17.11a.2.2 0 0 0 .25 0c.15-.14.29-.28.43-.43s.34-.25.57 0a.8.8 0 0 0 .63.17c.23 0 .35-.1.36-.31s0-.5 0-.74a.56.56 0 0 1 .25-.45c.13-.1.3-.12.36-.23l.16-.62c0-.06-.05-.16-.1-.16a3.26 3.26 0 0 0-.61.07l-.17.2a.76.76 0 0 1-.16.11.12.12 0 0 1-.12 0v-.11a2.83 2.83 0 0 0 .65-1 .43.43 0 0 1 .26-.28 1.34 1.34 0 0 0 .56-.37 1.92 1.92 0 0 1 .29-.28.55.55 0 0 1 .25-.1 1.82 1.82 0 0 1 .33 0 .68.68 0 0 1 .51.14.42.42 0 0 0 .18.08.42.42 0 0 1 .31.32.25.25 0 0 0 .27.16 2.48 2.48 0 0 1 .27 0 4.87 4.87 0 0 1 .54 0 .25.25 0 0 1 .23.21l.08.2.42.19a.12.12 0 0 0 .11 0c.1-.17.2-.34.29-.52s0-.08 0-.12a.25.25 0 0 0-.22-.13h-.47a.24.24 0 0 1-.15-.27v-.12c0-.03.24-.27.37-.39a.27.27 0 0 1 .37 0 .24.24 0 0 0 .36 0l.34-.33a.29.29 0 0 1 .31 0 .13.13 0 0 0 .17 0c0-.18.19-.23.32-.32.32-.22.43-.28.74.05a.77.77 0 0 0 .41.23.31.31 0 0 0 .36-.23 1 1 0 0 1 .11-.45.78.78 0 0 0 .13-.51.22.22 0 0 1 .18-.18 1.32 1.32 0 0 1 1 .14c.06 0 .2 0 .2-.11v-.41c0-.14.16-.26.2-.41a1.49 1.49 0 0 0 0-.21.67.67 0 0 1 .6-.62.6.6 0 0 1 .6.21 1.37 1.37 0 0 0 .25.23h.18a.26.26 0 0 0 0-.41 3.55 3.55 0 0 1-.34-.33.86.86 0 0 1-.15-.22.31.31 0 0 1 0-.32l.12-.17a.21.21 0 0 0 0-.25c-.16-.25-.09-.58-.3-.81a.3.3 0 0 1 0-.19.81.81 0 0 1 .18-.7.87.87 0 0 0 .14-.29 10.82 10.82 0 0 1 2 0 1.31 1.31 0 0 1 .58.71 1 1 0 0 0 .1.18.57.57 0 0 1 .15.43c0 .28.17.41.4.48a.38.38 0 0 0 .38-.07c.13-.12.26-.25.38-.38a.21.21 0 0 0 0-.3.27.27 0 0 1 0-.41l.67-.68a.58.58 0 0 0 .08-.18s0-.15-.1-.14l-.19.05a.16.16 0 0 1-.12 0 .39.39 0 0 1 .06-.49 1 1 0 0 1 .18-.09.28.28 0 0 0 .19-.31.32.32 0 0 0-.17-.34h-.13a.25.25 0 0 1-.18-.26 1.41 1.41 0 0 0 0-.2.53.53 0 0 1 .18-.42.68.68 0 0 1 .28-.17.7.7 0 0 0 .35-.21l.28-.28a.57.57 0 0 1 .42-.19.31.31 0 0 0 .13 0 .25.25 0 0 0 .15-.32 1.16 1.16 0 0 0-.14-.24.4.4 0 0 1 .05-.49l.57-.58a1.76 1.76 0 0 0 .51-.7.24.24 0 0 1 .21-.15h.61a.66.66 0 0 1 .56.19h.18a.21.21 0 0 0 .19-.17c0-.06 0-.15-.06-.17-.26-.14-.53-.26-.79-.39a.47.47 0 0 1-.25-.38.22.22 0 0 1 .07-.17 1.16 1.16 0 0 0 .54-.38 3.47 3.47 0 0 1 .36-.31.37.37 0 0 1 .49 0 .93.93 0 0 1 .15.13.62.62 0 0 0 .6.24 1.14 1.14 0 0 0 .26 0c.06 0 .15 0 .16-.1s.23-.35.15-.57a.19.19 0 0 1 0-.13 1.47 1.47 0 0 0 .14-.85.58.58 0 0 1 .12-.38.77.77 0 0 0 .13-.51v-.27c0-.09.05-.3.24-.31a.76.76 0 0 0 .39-.08c.11-.07.27-.08.37-.16a.84.84 0 0 1 .63-.18.55.55 0 0 0 .43-.16.56.56 0 0 1 .17-.09c.14 0 .17-.14.11-.26a.25.25 0 0 1 .06-.25 1.59 1.59 0 0 1 .6-.42 1.32 1.32 0 0 1 .64-.16h.74c.25 0 .28-.08.31-.28s0-.22 0-.29a3.51 3.51 0 0 0 .37-.23.28.28 0 0 0 .08-.31.61.61 0 0 0-.09-.18c-.18-.27-.29-.33-.5-.06-.1.12-.22.22-.33.33a.3.3 0 0 1-.43 0 1.53 1.53 0 0 1-.4-.44v-.13a1 1 0 0 0 .41-.59 1.45 1.45 0 0 1 .28 0 .42.42 0 0 0 .35-.16.59.59 0 0 0 .19-.42.48.48 0 0 1 .15-.36 1.6 1.6 0 0 1 .65-.47 2.27 2.27 0 0 0 .54-.27.61.61 0 0 0 .15-.13.11.11 0 0 0 0-.17 1.79 1.79 0 0 0-.87-.31c-.07 0-.16-.12-.17-.19a2 2 0 0 1 0-.74c.16-.1.3-.2.46-.28a.31.31 0 0 1 .19 0s.07 0 .11.08a.42.42 0 0 0 .5 0l.42-.22a.48.48 0 0 1 .45 0 .19.19 0 0 0 .17-.06 1 1 0 0 1 .42-.32 1.26 1.26 0 0 0 .32-.25.26.26 0 0 0 0-.36c-.09-.1-.19-.2-.27-.3-.22-.31-.19-.39 0-.66a.47.47 0 0 1 .41-.2h.34a.42.42 0 0 0 .18-.08 1.88 1.88 0 0 0 .57-.65.67.67 0 0 1 .43-.39.28.28 0 0 0 .2-.32.42.42 0 0 1 .16-.41 4.2 4.2 0 0 0 .49-.55c.09-.14.14-.28.32-.3s.37-.33.54-.51a1.4 1.4 0 0 1 .66-.44c.08 0 .11-.16.07-.23s0 0 0-.06c-.16-.28-.16-.29.08-.49a.61.61 0 0 0 .18-.27 1 1 0 0 1 .26-.39.64.64 0 0 0 .23-.53.59.59 0 0 1 .07-.26 4.32 4.32 0 0 1 .33-.5 2.11 2.11 0 0 0 .26-.4.84.84 0 0 1 .18-.28 1 1 0 0 0 .27-.45c0-.06.08-.11.13-.14a4.29 4.29 0 0 1 .5-.19c.14 0 .24-.12.26-.27a.58.58 0 0 1 .28-.37.53.53 0 0 1 .39 0h.14a.26.26 0 0 0 .26-.18 6.39 6.39 0 0 1 .36-.69l.22-.06a.2.2 0 0 0 .11-.32q-.14-.16-.27-.3a.51.51 0 0 1-.15-.37v-.68l-.41-.24a.17.17 0 0 1 0-.24.24.24 0 0 1 .3 0 1.12 1.12 0 0 1 .21.17.61.61 0 0 0 .48.21 1.13 1.13 0 0 1 .26 0 .3.3 0 0 1 .26.18 1.63 1.63 0 0 0 .09.19.22.22 0 0 0 .29.07 1.75 1.75 0 0 0 .47-.47v-.13a.6.6 0 0 0-.06-.11c-.11-.19-.1-.22 0-.36s.29-.28.43-.43.09-.17 0-.3l-.12-.24c.15-.16.23-.35.41-.46a.59.59 0 0 0 .25-.31c.08-.26.31-.46.25-.76v-.12a2.27 2.27 0 0 1 .32-.52 3.06 3.06 0 0 0 .45-.73 1 1 0 0 0 .14-.58v-.54a1.64 1.64 0 0 0 .14-.22c0-.11 0-.22.07-.33s0-.19.06-.25a.89.89 0 0 0 .2-.56c0-.12.11-.19.24-.21h.2a.22.22 0 0 0 .2-.15 1.51 1.51 0 0 1 .09-.18c.08-.17.08-.24-.1-.31a.74.74 0 0 1-.35-.3c-.1-.15-.18-.31-.26-.45.09-.18.17-.34.24-.51a.59.59 0 0 1 .23-.24 1 1 0 0 1 .18-.07.68.68 0 0 0 .41-.42.92.92 0 0 1 .17-.29.42.42 0 0 1 .34-.18h.47a.22.22 0 0 0 .18-.18.66.66 0 0 0-.06-.39c-.12-.19-.21-.4-.32-.59s0-.22.17-.2.22 0 .33 0A.38.38 0 0 0 171 34c.11-.07 0-.16 0-.24a.41.41 0 0 1 0-.19 1.17 1.17 0 0 1 .14-.3.28.28 0 0 1 .27-.16 2.69 2.69 0 0 0 .4 0c.06 0 .18-.12.19-.18s0-.35 0-.53a1.13 1.13 0 0 0-.21-.78 5.55 5.55 0 0 1 .42-.42c.21-.19.25-.47.4-.7a.82.82 0 0 0 .06-.39.76.76 0 0 1 .23-.54 1.76 1.76 0 0 0 .45-.95.28.28 0 0 1 .19-.25c.06 0 .14-.06.17-.11a3.78 3.78 0 0 0 .27-.53 2.17 2.17 0 0 0 .07-.33c0-.11.14-.18.08-.34s-.19-.21-.29-.33a.25.25 0 0 1 0-.36.88.88 0 0 1 .4-.25.57.57 0 0 0 .31-.24c.1-.18.17-.37.25-.55v-.12c-.12-.28-.12-.29 0-.47l.19-.19a.52.52 0 0 1 .42-.19.33.33 0 0 0 .36-.24 3.84 3.84 0 0 1 .18-.35c.08-.13 0-.27 0-.4a.47.47 0 0 1 .13-.15h.12c.04 0 .26-.2.21-.36a.68.68 0 0 0-.09-.25 3.84 3.84 0 0 1-.3-.61 2.64 2.64 0 0 1 .25-.47 6.51 6.51 0 0 1 .51-.54 1.11 1.11 0 0 1 .34-.22.28.28 0 0 0 .18-.32 3.14 3.14 0 0 1 0-.53.23.23 0 0 1 .19-.25c.26 0 .32-.2.31-.43s0-.22 0-.34 0-.3.22-.36a.72.72 0 0 0 .39-.36.3.3 0 0 0 0-.19s0-.07-.07-.11c-.18-.26-.18-.31 0-.51l.1-.1a.78.78 0 0 0 .28-.59c0-.07.06-.16.11-.23l.17-.21a.17.17 0 0 0 0-.24 1.67 1.67 0 0 0-.23-.12 1 1 0 0 1-.18-.09.11.11 0 0 1 0-.12 2.72 2.72 0 0 1 .67-.91c.12-.1.2-.27.37-.25a.89.89 0 0 1 .29.15.13.13 0 0 0 .17-.06c.05-.15.07-.3.28-.34a.22.22 0 0 0 .16-.19 1.13 1.13 0 0 1 .18-.57.32.32 0 0 0 .07-.19 2 2 0 0 1 .25-.75h.14c.06 0 .13.05.18 0a.25.25 0 0 0 .1-.16v-.61a.28.28 0 0 1 .23-.29l.13-.05a.17.17 0 0 0 .05-.23 1 1 0 0 0-.11-.17.26.26 0 0 1 0-.41.41.41 0 0 0 .11-.31.48.48 0 0 1 .29-.49 3.88 3.88 0 0 0 1-.88.18.18 0 0 0 0-.29c-.07-.05-.16-.07-.23-.12a.22.22 0 0 1-.08-.24.13.13 0 0 1 .13-.12h.54c.18 0 .14-.1.12-.13a.54.54 0 0 1 .05-.51.53.53 0 0 0 0-.25c.21 0 .35-.18.56-.18a.76.76 0 0 0 .29-.35h-.3a.32.32 0 0 1 0-.19.68.68 0 0 1 .17-.21l.44-.41v-.61a.65.65 0 0 1 .15-.44.37.37 0 0 0 .05-.11.07.07 0 0 0 0-.11s-.21-.09-.24-.08z" fill="{{colors[0]}}"/><path d="M113.46 96.11a.41.41 0 0 1-.49 0 .19.19 0 0 0-.13 0 .83.83 0 0 0-.15.11.15.15 0 0 0 0 .19 1.12 1.12 0 0 0 .38.37.17.17 0 0 0 .12 0 .83.83 0 0 0 .44-.48v-.06c0-.06-.13-.15-.17-.13zm-37.07 17.54h-.1a.65.65 0 0 0 0 .19.19.19 0 0 0 .06.11.38.38 0 0 0 .17-.08c.05-.04-.01-.16-.13-.22zm-.55.79c0-.06-.08-.13-.13-.12a.33.33 0 0 0-.25.26c0 .07.11.18.18.15a.27.27 0 0 0 .2-.29zm1.28.41a.21.21 0 0 0-.27-.13l-.16.13-.43.42a.49.49 0 0 1-.49.15.63.63 0 0 0-.19 0 .25.25 0 0 0-.16.1.17.17 0 0 0 0 .18 2.2 2.2 0 0 0 .18.28.26.26 0 0 1 0 .31 1 1 0 0 1-.5.31.2.2 0 0 0-.11.22.24.24 0 0 0 .18.18h.53a.23.23 0 0 0 .12-.06.6.6 0 0 0 .31-.48.84.84 0 0 1 0-.27.4.4 0 0 1 .33-.29 2.68 2.68 0 0 1 .4 0c.23 0 .3-.1.31-.35v-.35s-.03-.2-.05-.35zM73 117a.24.24 0 0 0-.07.23.23.23 0 0 0 .07.1h.06l.12-.16a1 1 0 0 0-.11-.15L73 117zm3.44-.37a.36.36 0 0 0-.07.1.15.15 0 0 0 0 .23.18.18 0 0 0 .23 0 .84.84 0 0 0 .08-.19s-.06-.13-.11-.14a.25.25 0 0 0-.13 0zM171.77 7.8c.07 0 .2-.09.21-.15s0-.22 0-.33a.26.26 0 0 1 .25-.26h.32l.27.06a.23.23 0 0 0 .2-.15 1.43 1.43 0 0 1 .21-.63s0-.13-.05-.17A.86.86 0 0 0 173 6a.23.23 0 0 0-.25 0l-.44.42a.53.53 0 0 1-.28.18c-.18 0-.25.13-.29.31a1.47 1.47 0 0 1-.18.28.58.58 0 0 0 0 .39.26.26 0 0 0 .21.22zm.85.73a.25.25 0 0 0-.19 0 1.22 1.22 0 0 0-.2.25.21.21 0 0 0 .06.24.43.43 0 0 0 .49.07c.06 0 .08-.1.12-.15a.48.48 0 0 0-.28-.41zM43.89 114.47a1 1 0 0 1-.65 0h-.08a.36.36 0 0 0-.08.09v.11a5.12 5.12 0 0 0 .52.27.36.36 0 0 0 .45-.29c.03-.08-.05-.2-.16-.18zm58.2-12.34a.63.63 0 0 0-.35.29.17.17 0 0 0 0 .12l.13.09.36-.25a.13.13 0 0 0 0-.18.14.14 0 0 0-.14-.07zm-6.35 3.41c-.18.14-.34.29-.5.44s0 .09 0 .13a.14.14 0 0 0 .1.07.68.68 0 0 0 .72-.38v-.12c0-.04-.23-.22-.32-.14zM82 110.73a.39.39 0 0 0-.06.11h.11a.06.06 0 0 0 0-.1c.01-.02-.05-.04-.05-.01zm25.32-10.62a.16.16 0 0 0-.18 0c0 .06-.06.13 0 .18a1 1 0 0 0 .2.16c.07.05.18 0 .17-.11a.27.27 0 0 0-.19-.23zM78.2 113.84a.14.14 0 0 0-.1 0s0 .13.1.12 0-.05.07-.08-.04-.03-.07-.04zM175.14 3.39a1.26 1.26 0 0 0 .2-.27 2.17 2.17 0 0 1 .4-.54v-.12c0-.04-.1 0-.12 0a2.94 2.94 0 0 0-.67.74v.07a.15.15 0 0 0 .08.16.08.08 0 0 0 .11-.04zM78.34 112a1.32 1.32 0 0 1-.69-.23.36.36 0 0 0-.32 0 .65.65 0 0 0-.34.31 1.73 1.73 0 0 1-.14.31.51.51 0 0 1-.44.25h-.67v.12c0 .01.32.16.48.24l.29-.16a.17.17 0 0 1 .18.06c0 .08.06.17.1.25a.26.26 0 0 0 .33.15h.13a.32.32 0 0 1 .31.07.45.45 0 0 0 .17.11s.15-.06.15-.09v-.6a.51.51 0 0 1 .15-.36c.11-.15.29-.2.42-.31s0-.08 0-.12z" fill="{{colors[0]}}"/></svg>