<svg data-name="图层 1" xmlns="http://www.w3.org/2000/svg" width="659.52" height="776.13" preserveAspectRatio="none" viewBox="0 0 659.52 776.13"><path d="M327.81 331.67c-.13.38-.13 35.6-.13 35.6m-84.4 122.86c2.81-1.88 5.54-3.49 8.11-4.89a66.13 66.13 0 0 0-8.11 4.89z" fill="none" stroke="{{colors[0]}}" stroke-linecap="round" stroke-linejoin="round" stroke-width="14"/><path d="M243.28 490.13a66.13 66.13 0 0 1 8.11-4.89l.13-1.35a198.35 198.35 0 0 1-20.91-10c-11.84 15-26.9 24.48-42.67 30.27-7.58 8.14-18.17 21.81-21.94 37.89 0 0 26.71-.14 40.71-9.39a105.63 105.63 0 0 1 36.57-42.53z" fill="none" stroke="{{colors[0]}}" stroke-linecap="round" stroke-linejoin="round" stroke-width="14"/><path d="M243.28 490.13a105.63 105.63 0 0 0-36.56 42.5c.15-.28 14.94-27.32 36.56-42.5zm-12.47-16.55c-.08.1-.16.19-.23.29a198.35 198.35 0 0 0 20.91 10v-.16c-3.84-1.75-14.34-6.58-20.68-10.13zm-48.17-102.51c.51-.13 1-.27 1.48-.42q-1.87-5.91-3.55-11.87.96 6.15 2.07 12.29zm-46.11-88.94c-.68.53-1.36 1.1-2.05 1.75-11.44 10.67-9.41 46.61 6.5 69 6.36 9 14.93 15.75 25.76 17.89 6.5 1.29 11.59 1.28 15.57.36a245.7 245.7 0 0 1-36.5-92.75 16.37 16.37 0 0 0-9.28 3.75zm388.76 1.76a26.78 26.78 0 0 0-3.48-2.76c-4.24-2.77-4.3-4-8-3 0 0-20.49 45.17-25 61.58-2.87 10.43-8.12 21.19-11 31.51 3.93.84 8.92.83 15.26-.43 9.74-1.93 17.64-7.66 23.74-15.29 17.7-22.11 20.37-60.52 8.48-71.61zm-48.77 87.02c.36.1.74.2 1.13.28q1.49-6.81 2.74-13.64-1.81 6.71-3.87 13.36zM408.6 483.13l-.57-6.15-5.78 5.83-4.44 4.49-11.49 11.6a95.58 95.58 0 0 1-31.66 15.92 89.93 89.93 0 0 1-51-.42 95.7 95.7 0 0 1-30.12-15.47l-10.73-10.86-5.66-5.7-5-5.07-.59 6.43v.16l-.13 1.35-.41 4.5-2.55 27.78 52.07 47.8 28.41 26.08.86-.27.85.23L358 566.27l53.75-49.34-2.82-30.68z" fill="none" stroke="{{colors[0]}}" stroke-linecap="round" stroke-linejoin="round" stroke-width="14"/><path d="M473.32 352.86a121.77 121.77 0 0 0-2.06-20.43 123.19 123.19 0 0 0-16.24-42.14c-8.11-13.13-18.62-24.61-27.41-37.28s-12.32-25.68-17.53-39.88c-3-8.2-13.64-29.17-9-37.66-.06.12-53.6 98.92-161.57 132.53 0 0 13.14-42.2 16.55-71.21-.49 4.17-10.21 12.13-12.85 15.08a257.68 257.68 0 0 1-28.59 27.88c-13.12 10.77-26.43 25.44-33.25 42.13a63.29 63.29 0 0 0-3.91 13.54q1.33 11.67 3.15 23.33 1.68 6 3.55 11.87c10.64 33.61 26.2 65.68 49 87.45l19 19.2 5 5.07 5.66 5.7 10.78 10.86a95.7 95.7 0 0 0 30.12 15.47 89.93 89.93 0 0 0 51 .42 95.58 95.58 0 0 0 31.66-15.92l11.43-11.57 4.41-4.45 5.78-5.83 18.81-18.89c23.33-20.5 39.09-52.84 49.74-87.18q2.06-6.64 3.87-13.36 2.45-13.46 4-26.94a134 134 0 0 1-11.1 22.21zm-266.6 179.77a139.23 139.23 0 0 0-12.19 41.39l1.29-.39 1.05-.32 21.28-6.6v-1.69l28.53-49.06 1.7 1.56 2.55-27.78.41-4.5c-2.57 1.4-5.3 3-8.11 4.89-21.57 15.18-36.36 42.22-36.51 42.5zm202.16-46.34l2.82 30.68 1.1-1 28.53 49.06c0 .57 0 1.13.05 1.69l21.26 6.59 1.17.36c-7.4-51.41-35-76.06-54.93-87.38z" fill="none" stroke="{{colors[0]}}" stroke-linecap="round" stroke-linejoin="round" stroke-width="14"/><path d="M487.02 267.6c-.74-29.08-9-62.58-20.93-89.17l-.76-1.65c-.58-1.27-1.18-2.54-1.79-3.81a210.1 210.1 0 0 0-25.42-40.48 175.92 175.92 0 0 0-16.87-18.21c-15.67-14.68-33-25.19-50.95-31.51a125.15 125.15 0 0 0-41.59-7.18q-5.55 0-11.09.5t-11 1.5a127.21 127.21 0 0 0-20.81 5.63q-4.44 1.62-8.82 3.56c-1.33.6-2.66 1.22-4 1.86q-2.28 1.11-4.53 2.31c-1.25.66-2.48 1.34-3.72 2q-3 1.73-6 3.61-2.16 1.38-4.3 2.85t-4.27 3l-.15.12a161.51 161.51 0 0 0-14.81 12.6q-5.17 4.92-10.09 10.43l-.68.78c-1.74 2-3.45 4-5.14 6.11-.31.39-.61.78-.92 1.16q-1.37 1.74-2.69 3.48-3.12 4.14-6 8.33c-.15.24-.32.47-.48.71q-3.81 5.66-7.16 11.41c-16.84 28.83-29.61 63.38-29.26 96.79.21 19.66.92 39.18 2.46 58.63q.88 11.24 2.16 22.45a63.29 63.29 0 0 1 3.91-13.54c6.82-16.69 20.13-31.36 33.25-42.13a257.68 257.68 0 0 0 28.59-27.88c2.64-2.95 12.36-10.91 12.85-15.08-3.41 29-16.55 71.21-16.55 71.21 108-33.61 161.51-132.41 161.57-132.53-4.6 8.49 6 29.46 9 37.66 5.21 14.17 8.73 27.17 17.53 39.85s19.3 24.15 27.41 37.28a123.19 123.19 0 0 1 16.24 42.14 121.77 121.77 0 0 1 2.06 20.43 134 134 0 0 0 11.06-22.25q1.23-10.78 1.91-21.62 1.34-20.51.78-41.35z" fill="none" stroke="{{colors[0]}}" stroke-linecap="round" stroke-linejoin="round" stroke-width="14"/><path d="M334.98 7.26a209.44 209.44 0 0 0-70.37 15.27 176.06 176.06 0 0 0-74.9 59.46c-33.26 45.85-49.31 102.41-47.72 158.33a262.66 262.66 0 0 0 3.82 38.06 245.7 245.7 0 0 0 36.5 92.75l.47.73c-.05-.27-.09-.54-.14-.81q-1.11-6.13-2.07-12.29-1.81-11.65-3.15-23.33-1.29-11.2-2.16-22.45c-1.54-19.45-2.25-39-2.46-58.63-.35-33.41 12.42-68 29.26-96.79q3.36-5.74 7.16-11.41c.16-.24.33-.47.48-.71q2.87-4.2 6-8.33 1.32-1.74 2.69-3.48c.31-.38.61-.77.92-1.16 1.69-2.1 3.4-4.13 5.14-6.11l.68-.78q4.91-5.45 10.08-10.45a161.51 161.51 0 0 1 14.89-12.57l.15-.12q2.13-1.56 4.27-3t4.3-2.85q3-1.89 6-3.61c1.24-.7 2.47-1.38 3.72-2q2.25-1.2 4.53-2.31c1.32-.64 2.65-1.26 4-1.86q4.38-2 8.82-3.56a127.21 127.21 0 0 1 20.74-5.63q5.5-1 11-1.5t11.09-.5a125.15 125.15 0 0 1 41.59 7.18c18 6.32 35.28 16.83 50.95 31.51a175.92 175.92 0 0 1 16.87 18.21A210.1 210.1 0 0 1 463.55 173c.61 1.27 1.21 2.54 1.79 3.81l.76 1.65c12 26.59 20.19 60.09 20.93 89.17q.54 20.86-.73 41.39-.68 10.84-1.91 21.62-1.55 13.5-4 26.94-1.25 6.82-2.74 13.64c-.25 1.12-.48 2.23-.73 3.34.25-1.1.54-2.2.85-3.31 2.9-10.32 8.15-21.08 11-31.51 6-21.73 14.78-43.34 24.46-63.67 1.43-3 3.15-6.22 6.24-7.42 2.09-.81 4.42-.53 6.64-.28a153 153 0 0 0 76.75-11.43c-7.62-7.56-10.4-18.58-13.05-29-10.39-40.74-23.81-81.35-47.1-116.36a235.49 235.49 0 0 0-103.65-85.89A241.49 241.49 0 0 0 334.98 7.26zm-.17 651.8a73 73 0 0 1-3.25-24.41h-3.49a73.46 73.46 0 0 1-3.26 24.41c-10.44 33.78-42.78 55.06-55.1 62.13a224.7 224.7 0 0 0 40.85 23.34l19.25 8.5 19.24-8.5a224.79 224.79 0 0 0 40.86-23.34c-12.37-7.06-44.72-28.35-55.1-62.13zm-45-24.99a63.16 63.16 0 0 1 10-8.57 16.4 16.4 0 0 1-2.46-4.21c-.14-.37-.27-.73-.38-1.09a14.46 14.46 0 0 1-.59-2.77 53.59 53.59 0 0 1-23.54 4.53c-22.68-.76-44.12-15.44-51.78-37.06a51.7 51.7 0 0 1-3-18v-.18l-21.28 6.6a146.12 146.12 0 0 0 4.41 52.81c9.45 35.12 31.74 66.93 63.51 91.36-.4-44.31 11.67-69.36 25.11-83.42zm172.85-60.76l-21.26-6.59v.18a51.8 51.8 0 0 1-3 18c-7.66 21.61-29.1 36.29-51.79 37.05a53.64 53.64 0 0 1-23.54-4.53 14.07 14.07 0 0 1-1 3.86c-.13.33-.28.65-.43 1a16.31 16.31 0 0 1-2 3.25 62.67 62.67 0 0 1 10 8.57c13.46 14.1 25.54 39.11 25.14 83.41 32.63-25.1 55.27-58 64.25-94.24a146.27 146.27 0 0 0 3.63-49.96z" fill="none" stroke="{{colors[0]}}" stroke-linecap="round" stroke-linejoin="round" stroke-width="14"/><path d="M212.17 462.26s-53.69-22.58-118.7 45.32c0 0 50.07 12.84 94.47-3.44 15.77-5.79 30.83-15.25 42.67-30.27.07-.1.15-.19.23-.29s-9-4.72-16.4-9.72c-.78-.53-1.54-1.07-2.27-1.6zm87.7 163.24a63.16 63.16 0 0 0-10 8.57c-13.46 14.1-25.53 39.11-25.13 83.41 0 2.07.05 4.16.12 6.32 0 0 1.83-.88 4.85-2.61 12.32-7.07 44.66-28.35 55.1-62.13a73.46 73.46 0 0 0 3.25-24.41c-10.25.05-22.25-1.72-28.19-9.15zm69.82 8.57a62.67 62.67 0 0 0-10-8.57c-6 7.43-17.92 9.2-28.15 9.15a73 73 0 0 0 3.27 24.41c10.43 33.78 42.78 55.06 55.1 62.13 3 1.73 4.84 2.61 4.84 2.61.08-2.16.11-4.25.13-6.32.35-44.3-11.73-69.35-25.19-83.41z" fill="none" stroke="{{colors[0]}}" stroke-linecap="round" stroke-linejoin="round" stroke-width="14"/><g fill="none" stroke="{{colors[0]}}" stroke-linecap="round" stroke-linejoin="round" stroke-width="14"><path d="M141.99 240.32a359.12 359.12 0 0 0-5.46 41.81 16.37 16.37 0 0 1 9.32-3.76 262.66 262.66 0 0 1-3.86-38.05zm72.45 223.54c7.39 5 16.4 9.72 16.4 9.72 6.31 3.53 16.81 8.38 20.69 10.15l.59-6.43-19-19.2c-22.76-21.77-38.32-53.84-49-87.45-.48.15-1 .29-1.48.42 0 .27.09.54.14.81l-.47-.73c-4 .92-9.07.93-15.57-.36-10.83-2.14-19.4-8.94-25.76-17.89 12.17 56.32 43.95 90.6 73.46 110.96zM516.81 355.5c-6.12 7.66-14 13.36-23.8 15.29-6.34 1.26-11.33 1.27-15.26.43-.31 1.11-.6 2.21-.85 3.31.25-1.11.48-2.22.73-3.34-.39-.08-.77-.18-1.13-.28-10.63 34.34-26.39 66.68-49.69 87.22l-18.75 18.93.57 6.15c33.18-13.97 90.07-48.78 108.18-127.71zM183.54 577.33l-50.28 15.18-30.68 176.62h454.36l-30.68-176.62-50.28-15.18"/><path d="M330.61 591.4l-.8-.27-.85.23.85.78zm-33.2 29.89a16.4 16.4 0 0 0 2.46 4.21c6 7.43 17.91 9.2 28.15 9.15h3.49c10.23.05 22.18-1.72 28.15-9.15a16.31 16.31 0 0 0 2-3.25c.15-.31.3-.63.43-1a14.07 14.07 0 0 0 1-3.86c-.65-.29-1.3-.6-2-.92a53.45 53.45 0 0 1-4.83-2.68l-9.89-5.77-16.56-9.66-17.3 10.06-9.27 5.41a54.81 54.81 0 0 1-6 3.24l-.79.36a14.46 14.46 0 0 0 .59 2.77c.1.36.23.72.37 1.09z"/></g><path d="M48.41 661.58L7 769.13h95.58l30.69-176.62c-62.09 13.45-75.55 35.96-84.86 69.07zm562.71 0c-9.32-33.11-22.77-55.62-84.86-69.07l30.69 176.62h95.57zM272.9 621.96a53.59 53.59 0 0 0 23.54-4.53l.79-.36a54.81 54.81 0 0 0 6-3.24l9.27-5.41 17.31-10.06 16.64 9.7 9.89 5.77a53.45 53.45 0 0 0 4.83 2.68c.66.32 1.31.63 2 .92a53.64 53.64 0 0 0 23.54 4.53c22.69-.76 44.13-15.44 51.79-37.05a51.8 51.8 0 0 0 3-18v-.18c0-.56 0-1.12-.05-1.69l-28.64-49.08-1.1 1-53.75 49.34-27.35 25.1-.85.78-.85-.78-28.41-26.08-52.07-47.8-1.7-1.56-28.53 49.06v1.87a51.7 51.7 0 0 0 3 18c7.61 21.63 29.02 36.31 51.7 37.07z" fill="none" stroke="{{colors[0]}}" stroke-linecap="round" stroke-linejoin="round" stroke-width="14"/></svg>