<svg data-name="图层 1" xmlns="http://www.w3.org/2000/svg" viewBox="0 0 800 800" preserveAspectRatio="none"><path d="M642.66 128H72a47.46 47.46 0 0 0-47.46 47.46v359A47.46 47.46 0 0 0 72 581.9h134.2v101.47L327 581.9h315.66a47.46 47.46 0 0 0 47.46-47.46v-359A47.46 47.46 0 0 0 642.66 128z" fill="{{colors[0]}}"/><path d="M745.22 302.7H709.7v249.8a47.46 47.46 0 0 1-47.47 47.5H346.61l-53.74 45.13a36 36 0 0 0 16.74 4.1h240.95l92.21 77.46v-77.5h102.45A36.23 36.23 0 0 0 781.45 613V339a36.23 36.23 0 0 0-36.23-36.3z" fill="{{colors[0]}}"/><rect x="140.72" y="279.79" width="433.26" height="27.9" rx="13.59" fill="{{colors[1]}}"/><rect x="140.72" y="351.18" width="433.26" height="27.9" rx="13.59" fill="{{colors[1]}}"/><rect x="140.72" y="422.57" width="433.26" height="27.9" rx="13.59" fill="{{colors[1]}}"/></svg>