<svg data-name="图层 1" xmlns="http://www.w3.org/2000/svg" viewBox="0 0 739.43 420.03" preserveAspectRatio="none"><path d="M22.11 4.5h561.16A129.13 129.13 0 0 1 712.4 133.63v228.2a17.61 17.61 0 0 1-17.61 17.61H133.63A129.13 129.13 0 0 1 4.5 250.31V22.11A17.61 17.61 0 0 1 22.11 4.5z" fill="{{colors[0]}}" stroke="{{colors[1]}}" stroke-miterlimit="10" stroke-width="9"/><path d="M44.64 40.59H605.8a129.13 129.13 0 0 1 129.13 129.13v228.2a17.61 17.61 0 0 1-17.61 17.61H156.16A129.13 129.13 0 0 1 27 286.4V58.2a17.61 17.61 0 0 1 17.64-17.61z" fill="{{colors[2]}}" stroke="{{colors[1]}}" stroke-miterlimit="10" stroke-width="9"/></svg>