<svg xmlns="http://www.w3.org/2000/svg" data-name="图层 1" viewBox="0 0 200 123.23" preserveAspectRatio="none"><path d="M195.3 8.64a7.27 7.27 0 0 1-1.36-.39.61.61 0 0 0-.42 0 1 1 0 0 0-.48.28c-.15.19.07.31.19.44a1.06 1.06 0 0 1 .18.37 3.59 3.59 0 0 1 .08.53c1.12.74 1.13.74 1.8-.27a2.65 2.65 0 0 0 .26-.5.46.46 0 0 0-.25-.46zm3.32-6.81a2.25 2.25 0 0 0 .66-.24l.41-.35c.12-.36.21-.74.31-1.11l-.37-.13c-.24.19-.48.38-.7.59a.35.35 0 0 1-.18.23l-.11.07-.1.17a3.2 3.2 0 0 1-.64.77 3.47 3.47 0 0 1-.18.33 1.11 1.11 0 0 1-.8.57.45.45 0 0 0-.32.24c-.09.41-.42.47-.73.59-.05 0-.06.15-.09.24.4.24.59.7 1 .92s.48.69.25 1.13l-.27-.11c-.5-.3-.54-.31-.86 0a2.67 2.67 0 0 1-.57.43c-.11.07-.16.23-.25.35l.32.5.14.25a.64.64 0 0 0 1 .1 5 5 0 0 0 .46-.47h.75s.11-.19.1-.19c-.52-.33-.36-.71-.09-1.11a5.49 5.49 0 0 0 .34-.63 1.31 1.31 0 0 1 .77-.62 3 3 0 0 1 .43-.07.38.38 0 0 0 .21-.47l-.2-.37-.87-1.33c-.03-.02.06-.24.18-.28zM194 14.14v-.58a.74.74 0 0 1 .43-.69c.09-.06.12-.24.13-.38s-.19-.18-.35-.12l-2.07.83c-.19-.11-.45-.24-.69-.39a.5.5 0 0 1-.23-.5.63.63 0 0 1 .31-.61 1.2 1.2 0 0 0 .57-.42.66.66 0 0 0 .09-.27c0-.16-.2-.41-.35-.41a.52.52 0 0 0-.38.15 1.29 1.29 0 0 0-.24.5.79.79 0 0 1-.36.59 3.21 3.21 0 0 0-1.5 2 .6.6 0 0 1-.11.26 14.87 14.87 0 0 1-1.35 1.5 2.43 2.43 0 0 0-.73.87 10.68 10.68 0 0 1-.6 1 4.85 4.85 0 0 0-.93 1.62.81.81 0 0 1-.44.55 5.37 5.37 0 0 0-1.51 1.53c-.61.81-1.07 1.72-1.66 2.54a2.08 2.08 0 0 0-.35.79 1.06 1.06 0 0 1-.73.82c-.18.07-.34.18-.52.25a.84.84 0 0 0-.52.47c-.19.39-.36.79-.56 1.26h-.05a5.26 5.26 0 0 0-2.06 2.17 1.61 1.61 0 0 1-.46.55 3.27 3.27 0 0 0-.94 1.27 1.08 1.08 0 0 1-.47.52 2.63 2.63 0 0 0-.53.47c-.45.45-.85.94-1.33 1.35a3.42 3.42 0 0 0-1 1.23 1.65 1.65 0 0 1-.95 1l-1.34 1.33c-.07.38-.52.42-.66.73s-.55.53-.86.76a1.65 1.65 0 0 0-.5.52 7.41 7.41 0 0 1-1.49 1.76c-.57.6-1.17 1.17-1.7 1.79a1.87 1.87 0 0 1-.66.53 1.42 1.42 0 0 0-.75.64c-.24.48-.88.59-1.07 1.13 0 0-.07.08-.11.1l-.4.14c-.19.06-.39.1-.47.3a3.28 3.28 0 0 1-.81 1c-.26.29-.52.57-.75.88a1.25 1.25 0 0 1-.84.51.73.73 0 0 0-.38.16 5.68 5.68 0 0 1-1.77 1.77.23.23 0 0 0-.09.12c-.2.42-.61.59-.95.85-.53.4-1.15.69-1.46 1.36a1.92 1.92 0 0 1-.93.89 4.05 4.05 0 0 0-1 .81l-1 1a5.94 5.94 0 0 1-2.15 1.67.4.4 0 0 0-.13.07c-.66.71-1.62 1.06-2.22 1.84a1.93 1.93 0 0 1-.94.66A5.25 5.25 0 0 0 144 61a1.2 1.2 0 0 0-.16.4.59.59 0 0 0 0 .14c-.17.59-.52.83-1.07.6a.8.8 0 0 0-.92.06 6.68 6.68 0 0 0-1.39 1 20.43 20.43 0 0 1-2.38 1.63 5.08 5.08 0 0 0-1.3.91 2.83 2.83 0 0 1-1.45.88 1.69 1.69 0 0 0-.85.52 4.57 4.57 0 0 1-1.59 1 2.73 2.73 0 0 0-1.07.73 4 4 0 0 1-1.4 1 8.17 8.17 0 0 0-1.37.8c-.46.34-1.12.3-1.52.76a.21.21 0 0 1-.14 0 .34.34 0 0 1-.14 0 1.33 1.33 0 0 0-.93.33 3.53 3.53 0 0 1-1.91.94c-.34.18-.68.35-1 .54a2.58 2.58 0 0 1-.62.35 2.92 2.92 0 0 0-1.61.92 1.19 1.19 0 0 1-.91.37.83.83 0 0 0-.67.21 1.41 1.41 0 0 1-.88.4 6 6 0 0 0-1.64.52 2.54 2.54 0 0 0-1.34 1 1 1 0 0 1-.2.21 1 1 0 0 1-.64.31 5.56 5.56 0 0 1-.58 0 2.23 2.23 0 0 0-1.5.4 1.13 1.13 0 0 1-.67.23 5.43 5.43 0 0 0-1.4.27 1.92 1.92 0 0 0-1.29.55.74.74 0 0 1-.39.18c-.56.1-1.13.21-1.7.27a1.38 1.38 0 0 0-.91.39.83.83 0 0 1-.65.26 1.12 1.12 0 0 0-.8.29c-.1.1-.23.23-.36.23-.54 0-1 .35-1.53.36a3.11 3.11 0 0 0-2 .74.86.86 0 0 1-.67.21 1 1 0 0 0-.77.35 2.86 2.86 0 0 1-.92.69.59.59 0 0 1-.56.05 3.51 3.51 0 0 0-.51-.51c-.24-.15-.24-.53-.64-.57a5.12 5.12 0 0 0-.5.46.84.84 0 0 1-.92.25 12.86 12.86 0 0 0-1.52 0 1 1 0 0 0-.86.46 1.11 1.11 0 0 1-.33.27.75.75 0 0 1-.8.11c-.25-.13-.56-.16-.82-.27a1 1 0 0 0-1 0 .54.54 0 0 1-.41 0 1.54 1.54 0 0 0-1.38.22 5.15 5.15 0 0 1-.76.35 4.39 4.39 0 0 0-3 0 2.65 2.65 0 0 1-1.84 0 1.33 1.33 0 0 0-1.24 0 1.88 1.88 0 0 1-1 .12H74a2.42 2.42 0 0 1-1.27-.23c-.17-.1-.37 0-.55.07a1.88 1.88 0 0 1-2-.26.47.47 0 0 0-.4 0 .92.92 0 0 1-1-.07 2.12 2.12 0 0 0-1-.21 10.14 10.14 0 0 1-2-.33c-.37-.1-.75-.17-1.12-.26a6.09 6.09 0 0 1-2-.46 1.34 1.34 0 0 0-.57-.08h-.87a1 1 0 0 1-.77-.34 1.34 1.34 0 0 0-1-.47c-.36 0-.7-.37-1.07-.4a2.1 2.1 0 0 1-.51-.1.93.93 0 0 1-.24 0 2.63 2.63 0 0 1-1.41-.43.4.4 0 0 1-.39-.17.94.94 0 0 0-1-.46 1.23 1.23 0 0 0-.73.17.71.71 0 0 1-.09.07.94.94 0 0 1-.32.11c-.29.11-.54.16-.65-.09a1.19 1.19 0 0 1-.35-.32l-.36-.24-.16-.05-.21.07a1 1 0 0 1-1.1-.41l-1-.28a.93.93 0 0 1-1 .35 6.81 6.81 0 0 1-2.29-1.13 1.22 1.22 0 0 1-.43-.53l-.82-.38a.89.89 0 0 1-1-.47l-.07-.11a10.43 10.43 0 0 1-1.48-1.08c-2.77-1.32-5.73-2.5-7.37-4.89a1.07 1.07 0 0 1-1.16.11 1 1 0 0 1-.46-.94 1 1 0 0 1-.58-.47l-.3-.17-.68-.41a.91.91 0 0 1-1.52-.5c-.1-.58-.59-.86-1-1.24a4.24 4.24 0 0 1-.46-.49l-1.06-.87-.1-.05a2 2 0 0 0-1-.38 1 1 0 0 1-1-1 .78.78 0 0 1 0-.26l-.38-.3a.93.93 0 0 1-.71-.11 4.3 4.3 0 0 1-1.6-1.86c-.37-.34-.72-.69-1.06-1a7.73 7.73 0 0 1-3.28-3.93 1.74 1.74 0 0 1-1.69-1.7c-.13-1.07-1.91-1.91-2.51-2.78a4.57 4.57 0 0 1-.65-1.41H14a1.75 1.75 0 0 1-1.7-1.7l-.09-1a15.16 15.16 0 0 1-3.36-6.25 1.89 1.89 0 0 1-.81-.8c-.38-.62-.82-1.19-1.24-1.79-.11-.15-.28-.31-.3-.48a1.37 1.37 0 0 0-.11-.36 6.5 6.5 0 0 1-1.53-1.88.47.47 0 0 1-.49 0A3.14 3.14 0 0 0 4 36c-.72 1.73-1.75 3.25-2.49 4.92a1.65 1.65 0 0 1 .07.2.76.76 0 0 1-.27.74.56.56 0 0 1-.2.11 9.37 9.37 0 0 0-.38 1.54 1.25 1.25 0 0 1-.41.78c.33 1.14 1.75 3.16.56 3.15a2.66 2.66 0 0 0-.07 2.76 2.06 2.06 0 0 1-.37 1.95 5.27 5.27 0 0 1 .34 1.64A1.73 1.73 0 0 1 0 55.28c.05.17.12.33.16.5s0 .09 0 .13a.48.48 0 0 0 .08.54c.37.31.22.7.19 1.11l.65.51.07.14c.1.41-.06.88.31 1.24v.17a.62.62 0 0 1 .21.68.35.35 0 0 1-.57.13.52.52 0 0 1-.11-.1c0 .15.08.28.33.55.09.11.2.21.29.32a2 2 0 0 1 .11 1.67.1.1 0 0 1 0 .07c1.38 2 1.79 4.44 2.55 6.84a1.13 1.13 0 0 1 .8 1.22 2.82 2.82 0 0 0 1 2.16c-.31-.11-.61-.15-.42 0a1.33 1.33 0 0 1 .2 1.58 1.57 1.57 0 0 1 .4.33 1.3 1.3 0 0 1 1 1.59.53.53 0 0 1 0 .12c.17.84.34 1.67.45 2.51a1 1 0 0 1 .23.19 1.73 1.73 0 0 1 .4.94 1.27 1.27 0 0 1 .49 1 2.8 2.8 0 0 1-.09.58c.19.18.41.34.59.52a.62.62 0 0 1 0 .17l-.04.31a1.39 1.39 0 0 1 .81 1.23v.39a1 1 0 0 0 .49.42 1 1 0 0 1 .63.73 1.93 1.93 0 0 0 .45.89.48.48 0 0 1 0 .54c-.06.13-.14.3-.1.4.24.57.23 1.25.83 1.64a.75.75 0 0 1 .27.34c.18.59.7.76 1.18 1 .17.07.37.08.55.15.46.19.53.56.16.86-.12.09-.24.16-.35.26s-.05.39.1.49a1.38 1.38 0 0 0 .84.18 1.28 1.28 0 0 1 1.09.6 2 2 0 0 1 .34.64 3.15 3.15 0 0 0 .85 1.48c.13.11.16.34.24.51s0 .2.1.23a.94.94 0 0 1 .57.77 1.16 1.16 0 0 0 .25.51 15.16 15.16 0 0 0 1.68 2 2.61 2.61 0 0 1 .37.44.47.47 0 0 1 0 .54c0 .05-.05.09-.07.13-.19.45-.16.62.21.84a1.79 1.79 0 0 0 .65.29 1.29 1.29 0 0 1 .87.46 5.78 5.78 0 0 0 1.11.92c.41.24.63.78 1.18.78s.71.6 1.1.86a.25.25 0 0 0 .13 0c.43 0 .68.33 1 .59.46.42.8 1 1.48 1.1.08 0 .16.11.21.18s.2.34.28.51a.7.7 0 0 0 .79.5.93.93 0 0 1 1 .43.43.43 0 0 0 .65 0 1 1 0 0 1 1-.47.67.67 0 0 0 .39-.16 7.23 7.23 0 0 0 .63-.61 3.74 3.74 0 0 1 1.59-1.07 5.65 5.65 0 0 0 .78.54 9.73 9.73 0 0 0 1.15.37c.12-.1.29-.2.43-.32a1 1 0 0 1 .65-.27 2 2 0 0 0 1.24-.31.31.31 0 0 1 .26.06 2.23 2.23 0 0 1 .74 1.52 1.57 1.57 0 0 0 .31 1.09.53.53 0 0 1 0 .54c-.08.23-.18.45-.24.68a.31.31 0 0 0 .08.26.32.32 0 0 0 .27 0c.31-.14.59-.33.91-.46.11 0 .27 0 .4.06s.08.06.11.09a3.48 3.48 0 0 0 1.36.88.76.76 0 0 1 .23.17.41.41 0 0 1 .11.52 1.28 1.28 0 0 1-.17.22c-.36.38-.15.6.21.76.17.08.38.09.55.17a.6.6 0 0 1 .32.28c.15.44.45.86.2 1.37a.74.74 0 0 0 .07.69c.07.13.18.25.11.41-.2.44.16 1-.17 1.4-.06.08.1.31.21.33a1.35 1.35 0 0 0 .29 0c.4 0 .45 0 .41-.48a.55.55 0 0 1 .16-.52 1 1 0 0 0 .41-.88 2.12 2.12 0 0 1 .06-.43.43.43 0 0 1 .55-.31c.43.21.86.43 1.28.67a.71.71 0 0 1 .25.77A3 3 0 0 0 48 117c.18.26.34.5.53.73a.31.31 0 0 0 .24.1.32.32 0 0 0 .2-.18 1.2 1.2 0 0 0 .07-.42 2 2 0 0 1 .55-1.45 1.06 1.06 0 0 1 .47-.33 3.34 3.34 0 0 1 .84-.21 1.26 1.26 0 0 1 1.31.41 1.52 1.52 0 0 0 .33.28.4.4 0 0 0 .52 0l.24-.17a.38.38 0 0 1 .52.05 1.83 1.83 0 0 0 1.8.67 1.71 1.71 0 0 1 .43.08c.13.21.26.41.37.63a.73.73 0 0 1-.23.9c-.2.14-.42.24-.62.37a.35.35 0 0 0 0 .51 1 1 0 0 0 .36.23 4.3 4.3 0 0 0 .72 0c.28 0 .41.14.43.46v.29a.49.49 0 0 0 .91.33 4.17 4.17 0 0 1 .38-.61c.66-.71.92-.64 1.55 0a.46.46 0 0 1 .16.51.84.84 0 0 0-.06.14.74.74 0 0 0 .54.74c.52.1 1.07-.08 1.57.2a1.2 1.2 0 0 0 1.24 0l.13-.07a.62.62 0 0 1 .76.48c0 .34.06.67.09 1a1.8 1.8 0 0 1 1.23.26.91.91 0 0 0 .26.13c.75.18 1.51.39 2.16-.27a.83.83 0 0 1 .52-.21 1.07 1.07 0 0 0 .72-.45 4.74 4.74 0 0 0 .39-.6c.19-.31.4-.51.82-.4a.28.28 0 0 0 .39-.3 2.06 2.06 0 0 0 0-.43c-.07-.36.14-.54.42-.66a1.88 1.88 0 0 1 .55-.15h1a.76.76 0 0 1 .7.43 1.24 1.24 0 0 1 .23.82c-.05.28.2.41.38.56a.2.2 0 0 0 .33-.12 1.35 1.35 0 0 0 0-.28.78.78 0 0 1 .67-.82c.28-.06.55-.15.73-.2l1.47.83a.48.48 0 0 1 .2.62c0 .13-.13.26-.17.4a.59.59 0 0 0 .36.69 1 1 0 0 0 .85 0 2.54 2.54 0 0 1 1.4-.25 1.05 1.05 0 0 0 .79-.29 1.36 1.36 0 0 1 .92-.36c.29 0 .58-.12.86-.1a1.5 1.5 0 0 1 1.18.39c.36.41.43.4.81.06l.52-.48a2.27 2.27 0 0 0 .87.09 4.37 4.37 0 0 0 2.2-1 .67.67 0 0 1 .92 0c.12.08.33.18.39.13.35-.28.87-.17 1.18-.5a1.48 1.48 0 0 1 1.19-.42h.87c.17 0 .33-.13.3-.25a.69.69 0 0 0-.16-.37 3 3 0 0 0-.46-.34.55.55 0 0 1-.08-.77.84.84 0 0 1 .87-.4 7.13 7.13 0 0 1 .86.28l1.18-.52.38.13a1.43 1.43 0 0 0 1.26 0 4.75 4.75 0 0 0 1-.63.6.6 0 0 1 .55-.08c.14 0 .28.15.4.13a7 7 0 0 0 1.53-.4 4.06 4.06 0 0 1 1.66-.41.39.39 0 0 0 .37-.38 1.54 1.54 0 0 1 .75-1.33 2 2 0 0 1 .24-.16.83.83 0 0 0 .36-.6 1.93 1.93 0 0 1 .19-.38.47.47 0 0 1 .51-.16.9.9 0 0 0 1 0 13.27 13.27 0 0 1 3.32-1.39.42.42 0 0 0 .13-.07 1.18 1.18 0 0 0 .29-.3 3.22 3.22 0 0 0 .18-.55.71.71 0 0 1 .92-.47c.18 0 .36.14.54.2.38.12.56.6 1 .58s.69-.3 1.1-.26a.74.74 0 0 0 .82-.46c.3-.72.76-1.1 1.58-.8a1.62 1.62 0 0 0 .58 0 .81.81 0 0 1 .72.39c.06.08.11.17.17.24a.33.33 0 0 0 .39 0c.18-.16.36-.32.53-.49a.66.66 0 0 0 .17-.78c-.22-.63-.17-.7.41-1l.28-.11.55.16a12.77 12.77 0 0 1 2-.86.37.37 0 0 0 .21-.18.66.66 0 0 1 .83-.39 1 1 0 0 0 .7-.08c.25-.12.56-.14.81-.28a7.6 7.6 0 0 0 .81-.59 6.42 6.42 0 0 1 1-.78 4.89 4.89 0 0 0 1.37-1.06 1.23 1.23 0 0 1 .61-.34 4.13 4.13 0 0 1 1.55-.28 3.11 3.11 0 0 0 .59-.06c.13-.38.28-.73.38-1.1 0-.17-.07-.37 0-.56a.87.87 0 0 1 .66-.84 14.17 14.17 0 0 0 1.42-.53c.1 0 .28.13.44.22a.59.59 0 0 0 .68-.07 2.91 2.91 0 0 0 .31-.3c.37-.37.36-.46-.07-.88a.44.44 0 0 1-.08-.11c-.08-.1 0-.34.1-.36l.83-.16.51-.87c.07-.12.13-.25.2-.38a1 1 0 0 0 0-.71.67.67 0 0 1-.06-.41.65.65 0 0 1 .29-.3.27.27 0 0 1 .26 0 3 3 0 0 1 1.08 1.15c.08.16.11.36.34.4s.32-.26.5-.28a2.1 2.1 0 0 0 1.22-.72c.47-.48 1-.93 1.45-1.41a.89.89 0 0 0 .28-.78 2.22 2.22 0 0 1 0-.44 1.16 1.16 0 0 1 .42-.1 2.1 2.1 0 0 0 1.38-.35c.46-.27.89-.58 1.32-.88a.51.51 0 0 0 .14-.52.93.93 0 0 0-.12-.27 1.9 1.9 0 0 1-.09-1.13.42.42 0 0 1 .06-.14c.17-.35.33-.43.68-.27a7.12 7.12 0 0 1 1 .79.53.53 0 0 0 .41 0 3.14 3.14 0 0 0 .58-.3 1 1 0 0 0 .07-.21v-.87c0-.58.18-.86.72-.87a2.25 2.25 0 0 0 1.08-.37c.18-.1.21-.27.22-.49 0-1 .46-1.59 1.4-1.63a5.63 5.63 0 0 0 1.63-.51c.09 0 .16-.28.11-.39a3.39 3.39 0 0 0-.18-.39c-.11-.19-.38-.34-.27-.62s.49-.22.76-.24h1.33l.55-.46.1-.1c.09-.1 0-.34-.08-.36a1.7 1.7 0 0 1-.95-.28.49.49 0 0 1 .07-.84 1.24 1.24 0 0 1 .4-.16c.28 0 .58 0 .86-.07a.44.44 0 0 0 .38-.52c0-.09-.08-.17-.1-.27-.12-.56.13-.78.73-.62 0 0 .08 0 .13.06a.69.69 0 0 0 .78-.48c.09-.22-.06-.36-.2-.49s-.15-.13-.21-.2c-.52-.59-.46-1 .2-1.39l.53-.25a4.76 4.76 0 0 0 1.56-1 .83.83 0 0 1 .49-.27 1.41 1.41 0 0 0 1.13-.82 3.68 3.68 0 0 1 1.27-1.3l.2-.93c.3 0 .58-.06.86-.12a1.21 1.21 0 0 0 .53-.19 3.54 3.54 0 0 0 .65-.57c.2-.22.6 0 .7-.43a3.07 3.07 0 0 1-.24-.35 1.35 1.35 0 0 1 .37-1.91 2.33 2.33 0 0 1 1.19-.49 1.36 1.36 0 0 0 .92-.36 5.56 5.56 0 0 1 .58-.41v-.16a1.53 1.53 0 0 1 .15-1.63 1.83 1.83 0 0 0 .21-.39 1 1 0 0 1 .58-.61 1.37 1.37 0 0 0 1.05-1.65 1 1 0 0 1 0-.29 1 1 0 0 1 .77-.76l.86-.07a.65.65 0 0 0 .49-.48c0-.48.05-1 .08-1.46.21-.21.38-.5.63-.6.48-.19.64-.71 1.09-.92s.48-.82.78-1.19l.36-.44a2.85 2.85 0 0 0 0-.29 2 2 0 0 0-1.37-1.93 1.49 1.49 0 0 1-.84-.94.78.78 0 0 1 .52-1 16.6 16.6 0 0 0 1.85-.31 1.71 1.71 0 0 1 .71 0 .68.68 0 0 1 .36.22 4 4 0 0 1 .34.47c.35-.13.45-.48.63-.74s-.08-.45-.1-.68a1.08 1.08 0 0 1 .08-.71l1.13-.65a.93.93 0 0 1 .69-.11.88.88 0 0 0 .28 0 .35.35 0 0 0 .2-.47.41.41 0 0 0-.58-.26c-.18.06-.35.22-.54.13a6.38 6.38 0 0 1-.84-.55.27.27 0 0 1 0-.25 1 1 0 0 1 .28-.32c.47-.26.94-.49 1.41-.74a3 3 0 0 0 .7.23 2.46 2.46 0 0 0 .71 0c.15 0 .23-.35.18-.49s-.42-.28-.5-.49c-.15-.37-.49-.4-.76-.56.07-.26.31-.36.47-.54s.66-.47.71-.88a2.88 2.88 0 0 0-.18-.83 1.38 1.38 0 0 1 0-.29.9.9 0 0 0-.48-.68l-1-.55a10.23 10.23 0 0 1-.33-1.13 1.11 1.11 0 0 1 .11-.55.5.5 0 0 1 .47-.26.72.72 0 0 1 .27.09c.28.24.56.39.89.07a1 1 0 0 1 .67-.22 8.44 8.44 0 0 0 .87 0 1.61 1.61 0 0 0 .39-.16c.16-.07.17-.37 0-.5a1 1 0 0 0-.5-.27 3.8 3.8 0 0 1-.54-.18.52.52 0 0 1-.19-.51 2.06 2.06 0 0 1 .44-.72 1 1 0 0 1 .27-.09 1.78 1.78 0 0 0 1.45-.51.66.66 0 0 1 .69-.1 3.29 3.29 0 0 0 .39.17.31.31 0 0 0 .26-.08c.3-.25.34-.7.66-.85.34 0 .62.1.9.11s.5-.26.44-.47c-.15-.46-.3-.91-.47-1.36a.52.52 0 0 0-.62-.23 2 2 0 0 1-1.27.17.55.55 0 0 1-.35-.22.92.92 0 0 1 .18-1.07c.35-.25.71-.49 1.08-.71a1 1 0 0 1 .4-.13h1a1.16 1.16 0 0 0 1-.64.37.37 0 0 0-.17-.48 3.78 3.78 0 0 0-.57-.1h-1.16a.77.77 0 0 1-.53-1.12 2 2 0 0 1 1.33-1 .9.9 0 0 0 .4-.13 1.08 1.08 0 0 1 1.11-.08c.36.16.54 0 .69-.29a.74.74 0 0 1 .52-.45 3.36 3.36 0 0 0 .67-.24c.17-.06.21-.18.1-.31a.43.43 0 0 1-.06-.53l.46-.74c.06-.11-.05-.34-.17-.34h-.72a.44.44 0 0 1-.38-.51.55.55 0 0 1 .27-.48 1 1 0 0 0 .38-.42c.12-.23.08-.4-.14-.43l-.58-.07s-.1-.07-.1-.1a.49.49 0 0 1 .08-.25.7.7 0 0 1 .25-.15c.21-.08.5 0 .63-.28s0-.56-.14-.82-.24-.53-.35-.77c.11-.34.22-.66.31-1a.73.73 0 0 1 .31-.47c.44-.29.89-.57 1.34-.84a.44.44 0 0 1 .64.09c.39.36.61.72.27 1.26a1.62 1.62 0 0 0-.07 1.13.45.45 0 0 0 .27.3.58.58 0 0 0 .4-.06.28.28 0 0 0 .1-.38 3.54 3.54 0 0 1-.23-.53.58.58 0 0 1 .18-.66 1.59 1.59 0 0 0 .9-1.21c0-.13.16-.24.26-.35a.78.78 0 0 0 .17-.93.5.5 0 0 1 .15-.64c.33-.27.68-.52 1-.77a.79.79 0 0 0 0-.32.82.82 0 0 1 .21-1.05 2.3 2.3 0 0 0 .75-1.24l-.53-.44a.83.83 0 0 1-.24-.81z" fill="{{colors[0]}}"/></svg>