<svg version="1.1" xmlns="http://www.w3.org/2000/svg" x="0" y="0" width="800" height="800" xml:space="preserve" preserveAspectRatio="none" viewBox="0 0 800 800"><path fill="{{colors[0]}}" d="M682.117 717.467c-8.27-8.753-16.046-17.769-23.543-26.941.5-1.504 1.076-2.911 1.406-4.593 17.714-88.608 3.706-180.607-46.234-256.954-19.658-30.056-46.843-66.097-79.193-83.332-26.901-14.338-47.679-5.211-73.703-24.372-24.729-18.208-27.614-25.62-23.902-54.913 2.465-19.417 11.789-56.162 43.756-46.016 4.637 1.472 8.924 1.846 12.961 1.643-2.122 6.341-4.658 12.53-6.83 18.162-7.39 19.161 10.631 31.002 26.76 28.433 4.722 2.799 10.556 4.047 17.338 2.517 18.539-4.199 35.375-14.463 48.228-28.367 5.765-1.458 11.274-4.534 15.949-9.547 56.757-60.905 35.89-151.788-33.905-193.02C503.144 5.873 422.797 3.698 364.738 38.49c-73.127 4.791-102.227 56.772-107.112 119.912-20.34 42.467-23.396 90.33-4.892 134.256 5.201 12.347 17.13 16.828 27.814 15.567a402.821 402.821 0 0 0 7.921 20.58c-6.016 2.641-11.555 7.208-15.838 14.285-.622 1.229-1.367 2.352-2.04 3.535-5.954 1.333-11.977 4.277-17.677 9.324-45.752 40.483-90.343 85.126-117.306 140.768-11.223 23.163-19.216 47.173-22.68 72.74-1.34 9.948.174 104.424-5.713 103.833-47.1.663-45.191 67.286 0 71.839 8.949.908 16.874.507 23.892-.985 63.754-4.015 124.015-20.192 183.308-41.383 3.861 3.508 7.642 7.155 11.628 10.461 27.606 22.938 50.132 23.353 84.215 29.042 40.654 6.796 78.897 25.18 120.313 31.909 42.113 6.84 83.608 7.938 126.148 4.612 30.72-2.397 47.765-37.656 25.398-61.318"/><path fill="{{colors[1]}}" d="M499.666 120.508c-4.238-.216-8.557-.111-12.903.145-9.313-.216-18.234 1.34-26.734 4.317-35.688 9.324-70.043 32.185-87.146 61.76-24.583 42.507-31.961 105.016-7.428 149.237 24.443 44.045 80.242 62.385 123.613 35.115 22.01-13.838 8.204-53.119-18.454-43.769-25.461 8.93-38.149-9.449-39.336-32.125-.571-11 2.279-23.353 5.142-33.847 2.517-9.225 5.565-18.943 10.293-27.295 4.006-9.475 10.612-16.151 19.832-20.028 13.643-12.767 24.618-6.406 32.917 19.082-15.048 23.728 17.753 45.628 36.237 29.937 11.062-.164 22.072-7.859 23.774-23.058 4.565-40.85-6.773-116.718-59.807-119.471m154.775 633.624c-.161-8.732-5.183-16.52-17.267-18.34-32.896-4.94-49.422-31.804-65.153-58.468-.416-.696-1.002-1.274-1.5-1.925 10.267-17.965-10.333-45.432-33.078-32.664-105.746 59.368-227.52 44.938-316.149-38.013-19.749-18.49-48.312 5.329-39.678 25.712-.841 2.13-1.514 4.384-1.836 6.866-3.545 27.479-19.164 50.354-42.087 65.328-.963.631-1.771 1.333-2.612 2.018-8.585.967-17.179 1.938-25.797 2.747-30.427 2.851-30.722 50.779 0 47.895 28.597-2.681 57.104-6.117 85.481-10.586 25.36-3.994 55.865-5.625 78.582-18.142 7.133-3.937 12.146-12.499 11.863-20.679-.046-1.32-.243-2.615-.424-3.916a307.268 307.268 0 0 0 107.658 23.938c.815 6.176 4.353 12.011 11.801 15.836 54.759 28.104 113.083 43.091 173.287 43.92 18.799 5.546 38.252 8.877 59.569 6.919.282.032.538.092.821.118-.008-.065-.02-.132-.02-.197 2.119-.21 4.218-.335 6.393-.663 20.912-3.083 20.933-24.846 10.146-37.704"/><path fill="{{colors[2]}}" d="M493.989 264.2c26.524-4.567 39.859-36.764 24.069-58.547-18.284-25.225-50.559-16.624-70.597 1.479-36.059 32.591-37.457 93.313-.188 125.379 20.938 18.017 48.796 25.836 75.91 20.021 15.178-3.252 8.762-26.52-6.413-23.267-30.131 6.459-63.63-13.155-71.37-43.25-3.7-14.383-1.561-30.371 5.208-43.538 6.656-12.938 20.793-29.438 36.864-28.899 6.901.23 13.09 5.776 13.554 12.859.532 7.983-6.311 13.26-13.457 14.495-6.426 1.104-10.024 9.002-8.425 14.837 1.872 6.795 8.4 9.535 14.845 8.431"/><path fill="{{colors[2]}}" d="M495.833 263.155c17.702 19.93 46.338 19.456 69.302 9.87 22.894-9.554 41.046-27.973 53.554-49.137 25.052-42.388 27.656-96.67 7.133-141.32C604.157 35.415 555.468 7.127 505.67-.896 452.034-9.53 396.363.274 347.501 23.522c-60.994 29.023-109.93 89.232-98.378 159.995 1.055 6.479 9.028 9.968 14.844 8.423 6.855-1.8 9.465-8.437 8.422-14.837-8.492-52.009 27.441-98.662 70.04-123.631 40.552-23.773 89.278-35.502 136.199-33.15 42.443 2.142 86.533 17.722 113.241 52.356 24.809 32.171 29.33 76.696 17.003 114.695-6.693 20.652-19.154 40.588-36.468 53.993-15.905 12.327-43.864 22.341-59.506 4.725-10.335-11.631-27.354 5.487-17.065 17.064M232.37 243.732c5.707 49.918 32.197 94.876 73.38 123.755 5.346 3.746 13.411.966 16.513-4.331 3.519-6.019 1.026-12.748-4.333-16.505-33.528-23.511-56.776-62.174-61.432-102.919-.733-6.473-5.013-12.065-12.064-12.065-5.946 0-12.804 5.547-12.064 12.065"/><path fill="{{colors[2]}}" d="M249.878 332.354c-45.881 28.524-84.396 68.055-112.119 114.419-26.799 44.833-46.568 99.548-46.89 152.313-.095 15.094 2.454 31.127 10.845 43.985 4.218 6.466 9.913 11.27 14.923 17.007 1.199 1.365 3.246 3.83 3.646 4.999 1.669 4.882-3.84.815 2.721 2.169-15.153-3.134-21.635 20.119-6.413 23.268 13.552 2.806 24.565-6.098 27.229-19.345 2.888-14.324-6.794-24.739-16.04-34.201-19.305-19.733-13.053-52.331-8.223-76.774 10.645-53.835 35.522-104.813 71.511-146.269 20.563-23.675 44.35-44.176 70.988-60.734 13.162-8.189 1.055-29.071-12.178-20.837M63.245 702.438c-9.008 9.901-10.382 22.952-5.105 35.102 5.704 13.148 17.89 21.172 31.751 23.761 15.878 2.97 32.391 1.07 48.404.394 17.906-.749 35.812-1.504 53.714-2.254 28.524-1.202 59.174-1.991 84.554-16.722 11.584-6.729 19.282-18.123 30.485-25.003 12.052-7.385 26.329 6.124 37.015 11.078 31.875 14.791 67.709 18.057 101.736 9.271 15.024-3.884 8.661-27.164-6.413-23.273-25.932 6.702-53.277 5.118-78.233-4.725-11.988-4.737-22.386-12.905-34.664-16.921-12.475-4.072-25.085-1.286-35.454 6.439-9.348 6.979-16.474 16.388-26.652 22.295-10.431 6.053-22.475 9.009-34.322 10.745-27.992 4.106-57.032 3.481-85.251 4.665-15.747.663-33.091 3.409-48.716.71-5.625-.973-11.545-2.919-14.775-7.926-1.885-2.918-3.696-7.628-1.008-10.579 10.427-11.458-6.588-28.576-17.066-17.057m416.473 74.652c50.573 17.748 104.8 25.515 158.322 22.139 23.832-1.505 50.911-3.478 69.271-20.607 17.402-16.229 20.84-42.146 5.025-60.584-7.756-9.041-18.62-14.725-28.635-20.862-8.821-5.414-20.879-14.744-16.188-26.224 2.48-6.079-2.701-13.194-8.428-14.844-6.883-1.972-12.392 2.432-14.84 8.424-11.479 28.109 17.938 47.323 37.754 59.788 8.726 5.494 19.074 12.893 16.241 24.595-3.298 13.563-17.379 19.692-29.673 22.505-28.965 6.624-61.365 5.501-90.754 2.8-31.288-2.879-62.06-10-91.683-20.396-14.682-5.153-20.992 18.148-6.412 23.266m74.388-392.655c68.968 54.722 105.795 143.231 95.958 230.724-.742 6.53 6.068 12.004 12.064 12.063 7.115.079 11.335-5.612 12.063-12.063 10.448-92.926-29.763-189.663-103.021-247.782-5.142-4.08-12.025-4.928-17.064 0-4.245 4.152-5.092 13.016 0 17.058M306.75 429.596c10.576 16.066 24.457 29.648 40.883 39.695 5.381 3.298 13.504 1.354 16.503-4.331 3.11-5.881 1.429-12.984-4.324-16.506a118.154 118.154 0 0 1-10.56-7.261c.809.624 1.63 1.255 2.445 1.886a118.121 118.121 0 0 1-20.686-20.652c.634.815 1.259 1.63 1.894 2.444a117.07 117.07 0 0 1-5.317-7.451c-3.466-5.263-10.835-7.99-16.506-4.33-5.256 3.384-8.039 10.868-4.332 16.506"/><path fill="{{colors[2]}}" d="M352.4 416.776a196710.158 196710.158 0 0 1-58.962 31.632c-5.563 2.99-7.764 11.171-4.325 16.506 3.647 5.657 10.549 7.53 16.503 4.33 19.657-10.553 39.31-21.086 58.964-31.632 5.572-2.989 7.77-11.171 4.326-16.506-3.647-5.658-10.549-7.524-16.506-4.33"/></svg>