<svg viewBox="1.9999635219573975 1.9999732971191406 96.00002646446228 13.999963760375977" height="13.999963760375977" width="96.00002646446228" xmlns="http://www.w3.org/2000/svg" preserveAspectRatio="none"> <path fill="{{colors[0]}}" fill-rule="evenodd" stroke="none" stroke-width="0" d="M31.99998104572296,1.9999732971191406C31.99998104572296 1.9999732971191406 95.99994933605194 1.9999732971191406 95.99994933605194 1.9999732971191406C97.1045355796814 1.9999732971191406 97.99998998641968 2.895427703857422 97.99998998641968 3.9998741149902344C97.99998998641968 3.9998741149902344 97.99998998641968 13.99990463256836 97.99998998641968 13.99990463256836C97.99998998641968 15.104482650756836 97.1045355796814 15.999937057495117 95.99994933605194 15.999937057495117C95.99994933605194 15.999937057495117 31.99998104572296 15.999937057495117 31.99998104572296 15.999937057495117C30.895394802093506 15.999937057495117 29.999940395355225 15.104482650756836 29.999940395355225 13.99990463256836C29.999940395355225 13.99990463256836 29.999940395355225 3.9998741149902344 29.999940395355225 3.9998741149902344C29.999940395355225 2.895427703857422 30.895394802093506 1.9999732971191406 31.99998104572296 1.9999732971191406ZM3.9999301433563232,1.9999732971191406C3.9999301433563232 1.9999732971191406 12.999927997589111 1.9999732971191406 12.999927997589111 1.9999732971191406C14.104514241218567 1.9999732971191406 14.999968647956848 2.895427703857422 14.999968647956848 3.9998741149902344C14.999968647956848 3.9998741149902344 14.999968647956848 13.99990463256836 14.999968647956848 13.99990463256836C14.999968647956848 15.104482650756836 14.104514241218567 15.999937057495117 12.999927997589111 15.999937057495117C12.999927997589111 15.999937057495117 3.9999301433563232 15.999937057495117 3.9999301433563232 15.999937057495117C2.8954179286956787 15.999937057495117 1.9999635219573975 15.104482650756836 1.9999635219573975 13.99990463256836C1.9999635219573975 13.99990463256836 1.9999635219573975 3.9998741149902344 1.9999635219573975 3.9998741149902344C1.9999635219573975 2.895427703857422 2.8954179286956787 1.9999732971191406 3.9999301433563232 1.9999732971191406Z"></path></svg>
        