<svg viewBox="1.999954104423523 1.9997901916503906 184.00003838539124 22.000093460083008" height="22.000093460083008" width="184.00003838539124" xmlns="http://www.w3.org/2000/svg" preserveAspectRatio="none"> <path fill="{{colors[0]}}" fill-rule="evenodd" stroke="none" stroke-width="0" d="M76.99996089935303,1.9997901916503906C76.99996089935303 1.9997901916503906 180.99992787837982 1.9997901916503906 180.99992787837982 1.9997901916503906C183.76135647296906 1.9997901916503906 185.99999248981476 4.238426208496094 185.99999248981476 6.999805450439453C185.99999248981476 6.999805450439453 185.99999248981476 18.999868392944336 185.99999248981476 18.999868392944336C185.99999248981476 21.761247634887695 183.76135647296906 23.9998836517334 180.99992787837982 23.9998836517334C180.99992787837982 23.9998836517334 76.99996089935303 23.9998836517334 76.99996089935303 23.9998836517334C74.2385323047638 23.9998836517334 71.9999703168869 21.761247634887695 71.9999703168869 18.999868392944336C71.9999703168869 18.999868392944336 71.9999703168869 6.999805450439453 71.9999703168869 6.999805450439453C71.9999703168869 4.238426208496094 74.2385323047638 1.9997901916503906 76.99996089935303 1.9997901916503906ZM6.999944686889648,1.9997901916503906C6.999944686889648 1.9997901916503906 18.999966502189636 1.9997901916503906 18.999966502189636 1.9997901916503906C21.76139509677887 1.9997901916503906 23.99995708465576 4.238426208496094 23.99995708465576 6.999805450439453C23.99995708465576 6.999805450439453 23.99995708465576 18.999868392944336 23.99995708465576 18.999868392944336C23.99995708465576 21.761247634887695 21.76139509677887 23.9998836517334 18.999966502189636 23.9998836517334C18.999966502189636 23.9998836517334 6.999944686889648 23.9998836517334 6.999944686889648 23.9998836517334C4.238516092300415 23.9998836517334 1.999954104423523 21.761247634887695 1.999954104423523 18.999868392944336C1.999954104423523 18.999868392944336 1.999954104423523 6.999805450439453 1.999954104423523 6.999805450439453C1.999954104423523 4.238426208496094 4.238516092300415 1.9997901916503906 6.999944686889648 1.9997901916503906ZM41.99995279312134,1.9997901916503906C41.99995279312134 1.9997901916503906 53.999974608421326 1.9997901916503906 53.999974608421326 1.9997901916503906C56.76140320301056 1.9997901916503906 58.99996519088745 4.238426208496094 58.99996519088745 6.999805450439453C58.99996519088745 6.999805450439453 58.99996519088745 18.999868392944336 58.99996519088745 18.999868392944336C58.99996519088745 21.761247634887695 56.76140320301056 23.9998836517334 53.999974608421326 23.9998836517334C53.999974608421326 23.9998836517334 41.99995279312134 23.9998836517334 41.99995279312134 23.9998836517334C39.238524198532104 23.9998836517334 36.99996221065521 21.761247634887695 36.99996221065521 18.999868392944336C36.99996221065521 18.999868392944336 36.99996221065521 6.999805450439453 36.99996221065521 6.999805450439453C36.99996221065521 4.238426208496094 39.238524198532104 1.9997901916503906 41.99995279312134 1.9997901916503906Z"></path></svg>
        