<svg data-name="图层 1" xmlns="http://www.w3.org/2000/svg" viewBox="0 0 800 800" preserveAspectRatio="none"><path d="M250.81 445c.12.07.29 0 .27.21-.13.52-.73.65-.87 1.17l.18.14c-.27.3-.58.6-.88.91-.35.69-.68 1.39-1 2.09.08 0 .15.06.14.14a6.5 6.5 0 0 1-.65 1l-.07.2a.25.25 0 0 0 .11.15c-.11.17-.23.32-.33.46-.78 2.16-1.55 4.39-2.48 6.76a9.23 9.23 0 0 1-.44 1.59 17 17 0 0 1-1.43 2c.71.34 0 2.05.86 2.19-.29.41-.74 1-.58 1.16a2.25 2.25 0 0 1 .44 2.54c-.23.48-.92 1-.92 1.2s.77-.28.78.08a98 98 0 0 0 6.42-9.61c.21-.65 1.48-2.9 2.79-5.26s2.68-4.83 3.3-5.8l.09-.19a13.43 13.43 0 0 0 1.53-3.55c.06-.51.09-1.06.12-1.59-.22.14-.43.27-.63.38a2.59 2.59 0 0 0 .45-1.11c.17-1.1-.44-.74-1.1-.61-.34.15-.48-.36-.9-.06l.4-.72c-.18-.13-.35 1-.57.59.22-.24.25-.62.41-.91-.32 0-.61 1-.85.79 0-.19.77-.65.47-.87-.06 0-.22.25-.3.39.35-1 .29-1.61-.48-1a7.51 7.51 0 0 0 .6-.94c-.09.14-.28.37-.36.51l.28-.51h-.19a1.82 1.82 0 0 0-.27.35l.18-.33a2.59 2.59 0 0 0-.45.14c-.41.3-.92.53-1 .74-1.09 1.79-2.11 3.48-3.07 5.18z" fill="{{colors[0]}}"/><path d="M260.19 453.54c0-.13 0-.28.11-.32.45-.05.72.45 1.18.4l.06-.21c.32.14.65.32 1 .47q1 .11 2 .12c0-.08 0-.16.06-.18a4.48 4.48 0 0 1 1 .17h.17a.3.3 0 0 0 .08-.16 2.76 2.76 0 0 1 .47.1c1.95-.23 3.92-.58 6-1a7.64 7.64 0 0 1 1.32-.45 13.53 13.53 0 0 1 2 .13c-.08-.78 1.39-1.16 1.09-2 .4 0 1 0 1-.18a2.15 2.15 0 0 1 1.4-1.85c.4-.11 1 .15 1.16 0s-.54-.45-.32-.67c-1.49-.06-2.95 0-4.41 0h-4.43a22 22 0 0 1-4.57 0 37.83 37.83 0 0 1-5.08-.74h-.17a9.22 9.22 0 0 0-3-.25c-.41.1-.83.24-1.25.36.15.17.28.33.4.48-.39-.1-.77-.2-.94-.09-.89.13-.52.62-.32 1.21.18.28-.22.56.1.87l-.65-.18c-.08.21.83.08.57.39-.24-.14-.55-.08-.81-.15 0 .31.88.32.78.6-.16 0-.65-.57-.78-.22 0 .07.23.14.36.18-.83-.08-1.37.15-.71.72a5.37 5.37 0 0 0-.87-.33c.13 0 .35.17.47.21l-.46-.13a1.54 1.54 0 0 0 .05.17 1.29 1.29 0 0 0 .33.17l-.31-.09a2.42 2.42 0 0 0 .19.4c.31.31.59.74.79.79a36 36 0 0 0 4.94 1.26zm-1.28 15.22v-.34c0-.06.31.35.5.23v-.22l.42.34a4.88 4.88 0 0 0 .84-.13v-.19c0-.03.27 0 .44.05h.07a1 1 0 0 0 0-.17h.2a26 26 0 0 0 2.39-1.54 3 3 0 0 1 .49-.54 2.32 2.32 0 0 1 .83 0c-.12-.77.42-1.22.21-2 .15 0 .39 0 .37-.23a3.1 3.1 0 0 1 .29-1.88c.14-.12.41.12.44 0s-.27-.43-.22-.65a30.18 30.18 0 0 0-3.26.39 3.82 3.82 0 0 1-1.7.4 6.88 6.88 0 0 1-1.93-.07h-.06a1.47 1.47 0 0 0-1.14.22c-.16.17-.33.38-.5.57.05.14.1.27.14.4-.14 0-.29-.06-.37.07-.36.29-.23.7-.16 1.24.06.25-.11.59 0 .84l-.26-.06c0 .21.34-.07.23.27-.1-.09-.23 0-.34 0 0 .3.36.16.31.45-.06.06-.25-.44-.32-.07 0 .07.1.09.15.11a.5.5 0 0 0-.32.83c-.11 0-.24-.2-.37-.17.06 0 .15.11.2.12l-.19-.05v.16a.36.36 0 0 0 .14.11h-.13c0 .12 0 .24.07.35s.23.62.32.64a7.93 7.93 0 0 0 2.22.52zm9.2 11.1v-.39c0-.08.06 0 .06.08v.11l.1-.32a1.08 1.08 0 0 1-.12.44c.05-.06.13-.17.29-.35l.28-.38c.08-.09.06 0 0 0l-.1.19h.06l.32-.24a1 1 0 0 1-.09.18c.26-.11.49 0 .64.38a2.72 2.72 0 0 1 .16.79v.42l-.06.52c-.05.36-.11.71-.16 1.07a10.24 10.24 0 0 1-.14 1.86 8.62 8.62 0 0 1-.5 1.32c-.22.45-.44.89-.61 1.27.77.18.29 2.25 1.17 2.19-.25.52-.63 1.3-.46 1.43.54.4 1.06 1.14.7 2.74-.2.59-.89 1.3-.87 1.56s.78-.49.81-.09a41.92 41.92 0 0 0 3-6.19c.42-1.07.82-2.14 1.18-3.23.19-.54.37-1.09.55-1.64.09-.27.18-.55.26-.82l.3-.94c.07-.37.2-1 .39-1.78.09-.4.21-.85.32-1.33l.33-1.52c.05-.27.12-.56.17-.83l.16-.85c.11-.57.22-1.17.33-1.78.22-1.21.46-2.48.69-3.76.12-.66.24-1.32.37-2l.09-.49v-.36l-.11.06-.86.46-3.23 1.7-1.44.75-.67.35-.66.38-2.13 1.18-.39.24c-.58.33-1.19.68-1.81 1.05l-.93.56-.47.28-.23.14-.12.08a12.93 12.93 0 0 0-1.68 1.31c-.39.44-.76.92-1.14 1.39h.81a3.36 3.36 0 0 0-1.13.78c-.88.9-.09.89.58 1.11.41 0 .2.57.77.51l-.83.46c.07.21.95-.69.91-.25a6 6 0 0 0-1 .62c.26.19 1.19-.57 1.29-.28-.14.16-1.13.19-1 .54 0 .07.36-.11.53-.2-1 .69-1.34 1.32-.21 1.12a8.43 8.43 0 0 0-1.18.56c.18-.09.51-.19.67-.28l-.59.32a.75.75 0 0 0 .18.07 1.75 1.75 0 0 0 .48-.18l-.39.22a3.4 3.4 0 0 0 .5.1 6.56 6.56 0 0 0 1.44-.15c1-.51 2.08-1 3.11-1.57l.77-.4.38-.21h.09zm22.63-18.71c.14 0 .29 0 .32.12.05.42-.46.66-.41 1.08l.21.07c-.15.29-.33.59-.49.91-.07.61-.13 1.23-.15 1.84.08 0 .16 0 .18.07a4.53 4.53 0 0 1-.19.95v.17a.3.3 0 0 0 .16.08c0 .16-.07.3-.11.44.18 1.83.48 3.68.81 5.65a6.74 6.74 0 0 1 .41 1.25 11.88 11.88 0 0 1-.21 1.89c.78 0 1.1 1.34 1.9 1.1 0 .37-.08.93.14 1a2.15 2.15 0 0 1 1.79 1.39c.08.38-.2 1-.07 1.1s.47-.49.68-.28c.27-2.78.13-5.47.41-8.27a19.79 19.79 0 0 1 .17-4.3 35.28 35.28 0 0 1 .82-4.74v-.15a8.14 8.14 0 0 0 .27-2.78c-.09-.39-.23-.79-.35-1.19-.16.13-.33.25-.48.35.1-.35.2-.71.1-.88-.13-.84-.62-.5-1.21-.34-.28.16-.55-.21-.86.07l.18-.6c-.21-.09-.08.77-.39.52.14-.22.08-.51.15-.75-.31 0-.33.81-.6.71 0-.15.56-.59.22-.73-.07 0-.14.22-.18.34.08-.78-.15-1.29-.71-.7a4.61 4.61 0 0 0 .32-.8c0 .12-.17.32-.2.44l.13-.43h-.17a1.05 1.05 0 0 0-.17.31l.09-.28a2 2 0 0 0-.4.16c-.32.28-.74.53-.79.71a32.86 32.86 0 0 0-1.32 4.5zm14.71-4.15c.05-.13.05-.28.14-.31s.18.1.2.2 0 .21.1.2l.15-.16a2.26 2.26 0 0 1 0 .52 4.14 4.14 0 0 1 .55 1.36h.19a4 4 0 0 1 .06 1.16l.05.2a.27.27 0 0 0 .17.07 6 6 0 0 1 0 .62 73.11 73.11 0 0 1 1.17 8 10.15 10.15 0 0 1 .31 1.83 18 18 0 0 1-.48 2.77c.8 0 .82 2.11 1.66 1.84-.12.57-.31 1.41-.1 1.5.61.26 1.28.86 1.31 2.48 0 .63-.56 1.47-.48 1.72s.65-.66.77-.28a41.19 41.19 0 0 0 1.45-6.69c.32-2.25.5-4.52.65-6.84-.12-.8-.07-3.85-.24-7.05a22.85 22.85 0 0 0-.29-2.7 10.79 10.79 0 0 0-.94-2.9 8 8 0 0 0-1.86-2.37 8.16 8.16 0 0 0-1.84-1.18l-.37-.13a7.61 7.61 0 0 0-3.43-.5 7 7 0 0 0-1.62.33 6 6 0 0 0-1.27.57 8.51 8.51 0 0 0-1.64 1.51 5.3 5.3 0 0 1 .93-.09 3.24 3.24 0 0 0-1.29.92c-.47.54-.45.77-.26.88a4.94 4.94 0 0 0 .93.18c.41 0 .24.54.8.45-.31.19-.46.3-.76.51.05.1.25-.09.46-.25s.39-.27.39-.05c-.34.12-.57.46-.86.68.14.07.4-.1.65-.24s.47-.26.53-.12c-.11.14-1 .24-.86.58 0 .06.32-.14.46-.24a1.77 1.77 0 0 0-.65.94c0 .22.18.29.66.15a5.11 5.11 0 0 0-.93.66c.14-.12.41-.27.53-.37l-.45.39h.18a2.5 2.5 0 0 0 .39-.23l-.3.25h.48a8.22 8.22 0 0 0 1.18-.21 6.15 6.15 0 0 1 2-.8 3.4 3.4 0 0 1 .78 0 2.43 2.43 0 0 1 .64.24z" fill="{{colors[0]}}"/><path d="M299.32 468.32c0-.13-.07-.26 0-.33s.41.28.6.13v-.22l.53.27a7.77 7.77 0 0 0 .91-.26.24.24 0 0 1 0-.19c.12-.07.31 0 .49 0h.08a1.09 1.09 0 0 0 0-.18.85.85 0 0 1 .23 0c.86-.53 1.72-1.14 2.66-1.74a2.78 2.78 0 0 1 .57-.57 3.22 3.22 0 0 1 1 0c-.13-.77.55-1.22.32-2 .2 0 .49 0 .48-.23a2.52 2.52 0 0 1 .52-1.89c.2-.11.54.13.59 0s-.31-.44-.22-.66a28.22 28.22 0 0 0-4.47.52 15.37 15.37 0 0 1-4.85.87h-.08a2.32 2.32 0 0 0-1.46.47c-.17.2-.34.44-.51.68l.29.35c-.2 0-.4 0-.46.16-.38.38-.1.74.12 1.25.14.22 0 .59.22.8h-.32c0 .22.38-.15.33.22-.13-.08-.26.07-.39.08.08.29.46.06.48.36-.07.07-.41-.36-.4 0 0 .08.14.07.2.07-.39.16-.57.53-.16.89-.13 0-.33-.13-.45-.07.07 0 .19.07.25.06h-.23l.06.15a.26.26 0 0 0 .18.06h-.15c.05.11.1.22.16.33s.42.54.52.54a12.75 12.75 0 0 0 2.36.08zm-.86 12.8c0-.14-.09-.26 0-.34s.47.26.68.1v-.22l.61.23a8.91 8.91 0 0 0 1-.35v-.18c0-.03.35-.05.56-.07l.09-.06a1 1 0 0 0 0-.17h.26c.93-.64 1.82-1.38 2.76-2.16a2.88 2.88 0 0 1 .52-.67A3.55 3.55 0 0 1 306 477c-.28-.73.33-1.33-.06-2 .2 0 .5-.13.45-.34a2.5 2.5 0 0 1 .08-2c.16-.16.56 0 .58-.16s-.42-.34-.38-.58c-1.49.3-2.78 1-4.26 1.39a6.38 6.38 0 0 1-2.17.88 12.15 12.15 0 0 1-2.58.43h-.08a2.48 2.48 0 0 0-1.46.5c-.17.2-.35.44-.53.67a4.57 4.57 0 0 1 .29.36c-.2 0-.41 0-.47.15-.41.37-.13.74.09 1.25.14.22 0 .59.22.81h-.36c0 .22.43-.15.36.22-.14-.07-.28.08-.43.08.08.29.51.07.51.36-.07.08-.44-.36-.43 0 0 .08.14.08.21.08-.43.14-.65.51-.21.88-.14 0-.36-.14-.5-.08a2.86 2.86 0 0 0 .28.07h-.26l.06.15a.37.37 0 0 0 .2.07H295a2.55 2.55 0 0 0 .17.33c.22.22.45.56.56.56a13.4 13.4 0 0 0 2.73.04zM330 451.13c.13 0 .3-.1.31.16 0 .83-.64 1.38-.75 2.24l.2.12c-.28.63-.6 1.28-.92 2-.38 1.35-.74 2.71-1.08 4.06.09 0 .16 0 .15.13a20.78 20.78 0 0 1-.68 2.11l-.08.36a.26.26 0 0 0 .13.18c-.12.36-.23.67-.35 1-.39 2-.76 4.05-1.14 6.14l-.15.78-.27 1.21c-.17.79-.35 1.59-.53 2.39a8.86 8.86 0 0 0-.24 2.11 8.73 8.73 0 0 0 .15 1.61 3.23 3.23 0 0 0 .66 1.17 2.28 2.28 0 0 0 1.36.73 4.17 4.17 0 0 0 2.25-.36 12.42 12.42 0 0 0 2.09-1.17c-.09-.41.62-1.32 1.07-2.09a3.72 3.72 0 0 0 .48-1c.07-.27 0-.44-.18-.53l.42-.37c.19-.16.37-.33.53-.48.32-.32.53-.58.48-.69-.3-.63-.31-1.62 1-3.49.55-.69 1.67-1.49 1.78-1.81.18-.5-1.11.52-.93 0-1.15 1.14-2.3 2.26-3.47 3.34l-.88.8-.35.32a.11.11 0 0 1-.07.11c-.05 0-.05 0 0-.05a.11.11 0 0 1-.12 0v-.06c.1-.4.22-.82.34-1.27.48-1.8 1.11-4 1.78-6.3s1.35-4.59 2-6.58 1.14-3.8 1.4-4.9l.08-.4a17.44 17.44 0 0 0 .41-4.07c0-.35 0-.71-.08-1.06a9 9 0 0 0-.16-1.06 10.62 10.62 0 0 0-.57-1.85 11.14 11.14 0 0 0-1.84-2.72 6.31 6.31 0 0 1 .27 1.35 5.64 5.64 0 0 0-1.36-2.09q-.32-.28-.54-.45a2 2 0 0 0-.37-.2c-.19-.06-.27 0-.3.11s.14.77.16 1.23c.08.28-.08.34-.2.42s-.23.19-.1.57c-.16-.23-.27-.4-.4-.56l-.2-.26-.26-.27c-.1.05.22.33.47.63s.43.59.17.54a4.2 4.2 0 0 0-1.09-1.21c0 .08.06.2.15.35s.25.32.36.49c.25.34.43.69.29.73a6.27 6.27 0 0 1-.4-.75c-.16-.3-.38-.54-.54-.45s0 .13.14.24l.15.19.14.18a2.35 2.35 0 0 0-1.33-.82c-.26 0-.24.23.08.76a3.59 3.59 0 0 0-1.1-.87 3.74 3.74 0 0 1 .32.22 2.4 2.4 0 0 0 .3.24l-.3-.2-.31-.17v.19c0 .06.26.24.41.34a4 4 0 0 0-.38-.24l.14.48c.3.47.37 1 .53 1.24a7.1 7.1 0 0 1 1.2 3.3v.46a3.76 3.76 0 0 1 0 .48v1a17.36 17.36 0 0 1-.33 2.04zm16 5.68c0-.14-.13-.26 0-.34.4-.2.82.18 1.22 0v-.23c.35 0 .71.1 1.08.12.62-.17 1.25-.34 1.85-.57 0-.07-.06-.15 0-.19a4.56 4.56 0 0 1 1-.19l.15-.08a.32.32 0 0 0 0-.19l.47-.06c1.7-.9 3.36-1.92 5.11-3.06a5.94 5.94 0 0 1 1-.9 12.85 12.85 0 0 1 1.87-.63c-.37-.69.8-1.59.23-2.2.36-.13.9-.34.84-.55a2.15 2.15 0 0 1 .51-2.23c.31-.25 1-.25 1-.43s-.65-.21-.55-.49c-1.33.51-2.61 1.07-3.88 1.63s-2.58 1.1-3.94 1.54a18.17 18.17 0 0 1-4.1 1.56 30.18 30.18 0 0 1-4.81 1h-.15a13.56 13.56 0 0 0-1.45.27 5.31 5.31 0 0 0-1.31.47c-.34.22-.68.49-1 .74.18.11.36.22.51.33-.38 0-.75.06-.88.21-.77.41-.28.75.09 1.25.25.21 0 .6.36.79h-.65c0 .22.79-.19.64.18-.25-.05-.52.11-.78.12.12.29.91 0 .9.32-.13.09-.77-.33-.79 0 0 .08.26.07.4.06-.8.19-1.22.58-.44.91a3.88 3.88 0 0 0-.9 0c.14 0 .38.05.5.05h-.46l.09.15a1.12 1.12 0 0 0 .36.05h-.31a2.91 2.91 0 0 0 .3.31c.39.21.78.52 1 .51a31.27 31.27 0 0 0 4.92-.23z" fill="{{colors[0]}}"/><path d="M347.75 457c.14 0 .27-.25.34.14a6.88 6.88 0 0 1-.07 1.71 6.07 6.07 0 0 0 0 1.71l.23.08c-.06.95-.11 1.93-.14 2.94q.27 2.78.75 5.48c.08-.06.15-.09.2.09a13.6 13.6 0 0 1 .22 2.5c0 .13 0 .25.05.37a.25.25 0 0 0 .17.13v.52c0 .16 0 .3-.07.44a5.27 5.27 0 0 1-.09 1.13 2.45 2.45 0 0 1-.29.75 1.57 1.57 0 0 1-.57.51 2.28 2.28 0 0 1-1 .22 4.54 4.54 0 0 1-1.36-.22h-.24l-.22-.07a3.48 3.48 0 0 1-.44-.21 3 3 0 0 1-.86-.69 2.08 2.08 0 0 1-.52-1.12 1.43 1.43 0 0 1 0-.77 1.47 1.47 0 0 1 1.11-.86 4.21 4.21 0 0 1 1-.07h1.13a22.17 22.17 0 0 1 2.61.32c-.05-.4.89-.56 1.81-.55s1.83.19 1.63-.37a14.66 14.66 0 0 1 1.65 1.08c.48.34.85.58.95.52a2.25 2.25 0 0 1 1.39-.2c.31 0 .67.09 1 .15h.51a4.52 4.52 0 0 0 .52 0 3.06 3.06 0 0 1 .57.06.3.3 0 0 0 0 .08c0 .06 0 0 0 0l-.14-.13v-.06c0-.01-.06 0-.11 0l.28.26s-.14-.28-.06-.11v-.08a1 1 0 0 0 0-.1c0-.06-.06-.17-.08-.25a2.84 2.84 0 0 1-.06-.31 1.15 1.15 0 0 1-.28 0 2.47 2.47 0 0 1-.42-.17l-.1-.05-.15-.09-.34-.23c-.5-.35-1.11-.87-1.9-1.48-.4-.3-.85-.62-1.36-.93a12.49 12.49 0 0 0-1.64-.81 14.42 14.42 0 0 0-3.26-.85 26.16 26.16 0 0 0-2.94-.22h-2.26a9.27 9.27 0 0 0-2.36.34 6 6 0 0 0-3.39 2.37c-.08.15-.19.3-.26.46a4.44 4.44 0 0 0-.24.49 4.29 4.29 0 0 0-.19.5 4.94 4.94 0 0 0-.13.52 5.87 5.87 0 0 0-.05 2.13 8 8 0 0 0 2.06 4 11.7 11.7 0 0 0 2.86 2.06 5.6 5.6 0 0 0 .55.27l.46.19c.31.12.65.23 1 .33a9.78 9.78 0 0 0 2.51.36 7.87 7.87 0 0 0 3.1-.61c.27-.12.53-.25.8-.39s.5-.33.75-.51.45-.38.67-.58.42-.45.61-.68a8.11 8.11 0 0 0 1.52-3.11 12.64 12.64 0 0 0 .34-3 21.46 21.46 0 0 0-.17-2.61c0-.42-.1-.82-.16-1.2l-.14-1.08c-.2-1.41-.34-2.78-.45-4.05-.21-2.55-.24-4.68-.22-5.92v-.45c0-2.7.09-6 0-8.29 0-.53-.09-1.07-.14-1.61s-.1-1.09-.14-1.63c-.19.48-.37.92-.54 1.31.07-.54.14-1.09.19-1.55a4.39 4.39 0 0 0 0-1.06c0-1.18-.13-1.46-.37-1.34a5.65 5.65 0 0 0-.86 1.05c-.32.62-.55-.31-.92.68.11-.73.15-1.11.29-1.85-.22-.11-.21 2.3-.5 1.74.18-.7.15-1.52.29-2.26-.35.21-.49 2.56-.76 2.4 0-.41.68-2 .35-2.23a3.64 3.64 0 0 0-.25 1.07c.23-2.31.12-3.64-.63-1.6.12-.73.47-1.74.55-2.52-.09.39-.28 1-.35 1.4.09-.44.17-.88.26-1.32a1.8 1.8 0 0 0-.19.2 8 8 0 0 0-.27 1l.17-.87a5.38 5.38 0 0 0-.47.68 18.12 18.12 0 0 0-1 2.54 76.25 76.25 0 0 0-1.33 14.04zm34.76-15.14c.06-.12 0-.28.17-.29.37 0 .45.53.82.54 0-.07.07-.13.1-.2l.65.61c.49.16 1 .31 1.5.43 0-.08 0-.15.1-.16a3.15 3.15 0 0 1 .74.34h.14a.36.36 0 0 0 .11-.14 1.69 1.69 0 0 1 .33.19c1.57.16 3.18.25 4.91.41a4.69 4.69 0 0 1 1.16-.08 8.29 8.29 0 0 1 1.48.69c.22-.75 1.47-.66 1.54-1.48.3.13.74.34.85.15a2.09 2.09 0 0 1 1.78-1.25c.35 0 .73.49.89.41s-.23-.59 0-.72c-2.25-1.16-4.61-1.8-7-2.75-.93 0-6.39-2-7.72-2.73h-.13a6 6 0 0 0-2.44-.64c-.36.05-.74.14-1.12.22.09.17.17.34.24.5-.3-.13-.6-.27-.77-.19-.77.05-.55.56-.5 1.15.1.29-.28.52-.09.86l-.49-.23c-.11.19.66.14.39.42-.16-.15-.43-.12-.63-.21 0 .31.66.39.52.65-.14 0-.42-.6-.6-.28 0 .07.17.16.27.21-.67-.15-1.14 0-.72.64-.2-.09-.42-.35-.64-.38.1.05.25.2.34.24l-.35-.16a1 1 0 0 0 0 .17 1.06 1.06 0 0 0 .23.19l-.23-.11a2.83 2.83 0 0 0 .08.4c.19.33.33.76.47.83a35.56 35.56 0 0 0 3.62 1.75z" fill="{{colors[0]}}"/><path d="M386.66 435.59c.13.05.27.05.3.15 0 .3-.49.33-.47.63l.2.1c-.17.16-.36.31-.55.47-.14.38-.25.77-.36 1.17.08 0 .15.05.15.1a1.76 1.76 0 0 1-.31.56v.12a.76.76 0 0 0 .14.11 1.55 1.55 0 0 1-.19.24c-.16 1.26-.32 2.59-.64 4a3.52 3.52 0 0 1-.06 1 5.07 5.07 0 0 1-.85 1.06c.67.4.37 1.45 1.11 1.76-.18.22-.46.54-.3.69a2.07 2.07 0 0 1 .74 2c-.13.29-.65.48-.62.65s.62 0 .67.26a16 16 0 0 0 2.2-2.67c.64-1 1.22-2 1.84-3a27.24 27.24 0 0 1 1.42-3.28c.67-1.45 1.32-3 1.64-3.61v-.12a4.71 4.71 0 0 0 .48-2.26c-.08-.33-.21-.68-.33-1l-.47.24c.1-.28.21-.55.1-.7-.14-.68-.62-.45-1.19-.39-.27.1-.54-.22-.85 0 .07-.18.1-.26.16-.44-.2-.08-.05.58-.36.35.13-.14.06-.37.12-.54-.31 0-.28.57-.56.46 0-.11.53-.38.18-.51-.06 0-.12.14-.15.23 0-.57-.22-.95-.74-.58.06-.17.28-.36.28-.55 0 .09-.15.22-.18.3l.11-.3h-.17a.46.46 0 0 0-.14.2l.06-.2-.37.08c-.3.17-.7.29-.74.41-.46.93-.9 1.86-1.3 2.81z" fill="{{colors[0]}}"/><path d="M377.71 451.78c.05-.12 0-.28.17-.29.44 0 .6.57 1.05.6l.1-.19.86.66c.62.19 1.24.36 1.87.51 0-.08 0-.15.1-.16a4.84 4.84 0 0 1 .94.39h.18a.36.36 0 0 0 .11-.14 3.45 3.45 0 0 1 .43.21c1.91.22 3.88.37 6 .55a6.52 6.52 0 0 1 1.38-.06 12.28 12.28 0 0 1 1.89.72c.16-.77 1.68-.68 1.64-1.52.37.14.94.35 1 .15a2.14 2.14 0 0 1 1.95-1.29c.42 0 .95.49 1.13.41s-.38-.61-.1-.74c-2.86-1.15-5.76-1.8-8.7-2.82a26.29 26.29 0 0 1-4.56-1.22c-2-.66-4.14-1.45-5-1.84l-.16-.05a9.27 9.27 0 0 0-3-.8c-.42 0-.87.1-1.32.15a5.63 5.63 0 0 1 .33.54c-.37-.16-.74-.32-.93-.25-.92 0-.61.54-.5 1.16.14.3-.29.51 0 .87l-.62-.27c-.11.19.81.19.51.46-.21-.17-.53-.15-.78-.26 0 .31.83.45.68.7-.16 0-.55-.65-.74-.32 0 .06.21.17.34.23-.81-.2-1.37-.05-.81.6a5.23 5.23 0 0 0-.81-.44c.12.06.32.22.44.27l-.44-.19v.17a1.06 1.06 0 0 0 .31.21l-.29-.13a2.58 2.58 0 0 0 .12.42c.26.36.47.82.65.9a47.84 47.84 0 0 0 4.58 2.1z" fill="{{colors[0]}}"/><path d="M372.7 454.47c.13 0 .25-.1.32-.08s-.24.35-.08.45h.22c-.07.14-.15.28-.23.42a4.2 4.2 0 0 0 .3.6.34.34 0 0 1 .19 0c.07.08 0 .22 0 .35l.05.05h.17a1 1 0 0 1 0 .17 25.16 25.16 0 0 1 1.71 1.88 2.49 2.49 0 0 1 .53.45c.1.24 0 .54-.06.77.78-.06 1.17.52 2 .41 0 .16-.05.41.17.43a2.49 2.49 0 0 1 1.81.68c.08.19-.21.47-.08.54s.48-.22.69-.1a13.35 13.35 0 0 0-.15-4.23 8.7 8.7 0 0 1-.68-2.09c-.23-.95-.5-1.93-.54-2.35v-.07a1.87 1.87 0 0 0-.72-1.23c-.23-.1-.5-.19-.76-.28-.09.12-.19.24-.28.34-.05-.17-.09-.34-.25-.35-.44-.22-.73.12-1.17.43-.19.17-.56.18-.74.4l-.06-.26c-.21.07.22.26-.15.32 0-.12-.12-.18-.15-.28-.26.15 0 .38-.25.47-.08 0 .27-.41-.08-.3-.07 0-.05.12 0 .17a.53.53 0 0 0-.88.13c0-.09.07-.28 0-.35v.21-.17l-.13.09a.23.23 0 0 0 0 .15v-.11l-.28.22c-.17.21-.45.45-.43.52a9.19 9.19 0 0 0-.01 1.6z" fill="{{colors[0]}}"/><path d="M385.55 457.25c.05.12.14.23.09.32s-.51-.16-.68 0l.06.21-.63-.12c-.33.13-.64.29-1 .44 0 .07.06.14 0 .18a1.42 1.42 0 0 1-.55.1l-.09.05a.55.55 0 0 0 0 .18 1.22 1.22 0 0 1-.27 0 21.12 21.12 0 0 1-3.15 1.86 3.37 3.37 0 0 1-.76.51 3.92 3.92 0 0 1-1.23-.11c0 .79-.93 1.1-.82 1.9-.26 0-.66-.11-.7.11a2 2 0 0 1-1.26 1.67c-.32 0-.73-.31-.85-.2s.3.53.1.71a12.58 12.58 0 0 0 3.39.45c1.13 0 2.26-.08 3.41-.17a7 7 0 0 1 1.26-.36c.61-.15 1.36-.32 2.12-.52 1.52-.38 3.07-.93 3.72-1.09l.11-.06a5.91 5.91 0 0 0 1.07-.47 3.56 3.56 0 0 0 .85-.71 10.22 10.22 0 0 0 .46-.94c-.17-.06-.34-.11-.49-.18.26-.11.52-.23.54-.4.35-.59-.14-.76-.59-1.11-.24-.13-.23-.54-.56-.64.16-.06.23-.11.39-.18-.1-.2-.4.36-.47 0 .18 0 .27-.21.42-.29-.2-.23-.56.19-.68-.08.05-.09.6.12.45-.21 0-.07-.18 0-.25 0 .38-.36.42-.79-.16-.91.13-.07.4 0 .52-.17a2.64 2.64 0 0 0-.3.07l.25-.12-.13-.11a.4.4 0 0 0-.22 0l.16-.08-.31-.22c-.3-.1-.64-.3-.74-.25-.81.37-1.65.69-2.48.94z" fill="{{colors[0]}}"/><path d="M371.81 466.15c0-.13 0-.29.13-.32.46 0 .69.5 1.14.48l.09-.21.94.56c.64.14 1.29.25 1.94.35 0-.08 0-.15.09-.16a4.58 4.58 0 0 1 1 .31h.18a.36.36 0 0 0 .11-.15 3.08 3.08 0 0 1 .44.18c2 .13 4 .24 6.19.48a6.92 6.92 0 0 1 1.44 0 12 12 0 0 1 1.95.83c.19-.76 1.78-.53 1.79-1.38.4.18 1 .46 1.1.26a2.11 2.11 0 0 1 2.18-1c.45.1 1 .63 1.18.57s-.35-.66 0-.75a35.79 35.79 0 0 0-4.64-2c-1.57-.57-3.17-1.09-4.8-1.64-.6 0-2.78-.63-5.07-1.22s-4.68-1.18-5.64-1.48h-.18a10.21 10.21 0 0 0-3.36-.39c-.45.1-.92.24-1.38.37a5.1 5.1 0 0 1 .46.48 1.86 1.86 0 0 0-1-.09c-1 .17-.52.64-.27 1.23.21.27-.19.56.15.86l-.69-.15c-.07.21.88 0 .62.36-.25-.13-.58-.05-.85-.11 0 .31.94.28.85.57-.16 0-.71-.54-.83-.18 0 .07.25.13.39.16-.88 0-1.4.22-.69.75a4.65 4.65 0 0 0-.92-.27c.14 0 .38.16.51.18l-.48-.1a1.09 1.09 0 0 0 .05.17 1.61 1.61 0 0 0 .36.15l-.32-.07a2.82 2.82 0 0 0 .21.38c.35.3.65.71.85.75 1.55.39 3.16.84 4.78 1.24zm-1.42 10.25c0-.13 0-.28.11-.32.39-.06.6.44 1 .38l.06-.21c.27.14.55.32.84.46a14 14 0 0 0 1.71.09c0-.08 0-.16.06-.18a3.36 3.36 0 0 1 .89.16h.15a.37.37 0 0 0 .07-.16 3.42 3.42 0 0 1 .4.09 49.84 49.84 0 0 0 5.16-1.11 4.84 4.84 0 0 1 1.12-.48 9.86 9.86 0 0 1 1.72.07c-.09-.78 1.14-1.2.86-2 .34 0 .84 0 .85-.22a2.17 2.17 0 0 1 1.08-1.89c.33-.12.87.12 1 0s-.47-.42-.3-.65c-1.24 0-2.44.06-3.65.13s-2.43.12-3.67.06a14.49 14.49 0 0 1-3.81.07 25.36 25.36 0 0 1-4.22-.65h-.13a6.6 6.6 0 0 0-2.48-.21c-.35.11-.71.25-1.08.38a5.41 5.41 0 0 1 .31.47c-.32-.1-.63-.19-.79-.09-.76.14-.48.62-.35 1.2.13.28-.22.56 0 .86l-.55-.17c-.08.21.71.07.46.38-.19-.13-.46-.07-.68-.14 0 .31.74.32.63.59-.14 0-.52-.56-.66-.21 0 .07.2.14.31.17-.72-.07-1.19.16-.67.72-.22-.07-.48-.31-.73-.32.11.05.29.17.4.21l-.39-.13a.51.51 0 0 0 0 .17.74.74 0 0 0 .27.16l-.26-.08c0 .13.08.26.13.39.26.32.47.73.64.79a25.31 25.31 0 0 0 4.19 1.22z" fill="{{colors[0]}}"/><path d="M373.84 469.46c.12.05.28 0 .29.16 0 .38-.54.47-.56.85l.2.1c-.19.22-.42.44-.63.66-.18.51-.34 1-.49 1.54.08 0 .15 0 .16.1a3.16 3.16 0 0 1-.38.76v.14a.53.53 0 0 0 .14.12 2.37 2.37 0 0 1-.21.33c-.25 1.6-.48 3.27-.81 5a5.19 5.19 0 0 1-.06 1.2 8.45 8.45 0 0 1-.87 1.48c.73.29.46 1.58 1.27 1.74-.18.3-.46.74-.28.87a2.08 2.08 0 0 1 1 2c-.11.36-.63.72-.58.9s.64-.18.73.1a54.58 54.58 0 0 0 3.81-7.22 31 31 0 0 1 1.47-3.95c.73-1.76 1.49-3.6 1.87-4.32l.05-.14a6.88 6.88 0 0 0 .7-2.64c-.06-.39-.14-.79-.22-1.19a5.2 5.2 0 0 1-.52.27c.14-.32.28-.64.2-.82-.06-.81-.58-.55-1.17-.46-.29.11-.53-.27-.86-.05l.22-.53c-.19-.1-.13.7-.42.43.16-.18.11-.46.2-.67-.3 0-.37.7-.64.57 0-.14.6-.47.27-.63-.07 0-.16.17-.2.28.13-.7-.07-1.18-.66-.72.09-.2.34-.44.37-.68 0 .11-.19.27-.23.37l.15-.37h-.16a.76.76 0 0 0-.19.25l.1-.24a2.88 2.88 0 0 0-.4.09c-.33.22-.75.38-.82.54-.68 1.32-1.31 2.53-1.84 3.78zm32.92-5.06c.06-.12 0-.3.21-.27.67.14 1 .76 1.66.86l.12-.19c.44.26.89.53 1.35.78.91.25 1.79.44 2.63.61 0-.08 0-.15.1-.16a6.79 6.79 0 0 1 1.27.43h.22a.29.29 0 0 0 .13-.14l.57.24a73 73 0 0 1 7.75 1.5 9.29 9.29 0 0 1 1.79.29 17.32 17.32 0 0 1 2.44 1.35c.26-.75 2.22-.1 2.25-1 .48.29 1.2.74 1.35.57.44-.49 1.21-.94 2.72-.46.57.24 1.18 1 1.43 1 .4 0-.39-.81 0-.81a58.47 58.47 0 0 0-11.77-6.26c-.78-.14-3.57-1.17-6.55-2.06l-2.22-.64-2-.57a17.3 17.3 0 0 1-2.55-1l-.18-.07c-.53-.26-1.08-.52-1.58-.78s-1-.52-1.4-.7a11.07 11.07 0 0 1-1.29-.46l.06.66c-.29-.34-.54-.7-.74-.76-.41-.3-.6-.33-.75-.17a2.26 2.26 0 0 0-.32.82c0 .4-.57.23-.45.8a7.67 7.67 0 0 1-.51-.83c-.1 0 .06.29.23.51s.31.42.08.42c-.16-.36-.5-.65-.69-1-.1.13.05.46.21.75s.32.55.18.61a1.79 1.79 0 0 1-.28-.63c-.1-.26-.19-.5-.38-.45s.13.4.25.58a4.86 4.86 0 0 0-.95-1.06c-.21-.13-.37.06-.24.74-.21-.41-.31-1.08-.51-1.52a7.37 7.37 0 0 0 .22.87 7.35 7.35 0 0 1-.27-.79 1.14 1.14 0 0 0-.1.19 2.32 2.32 0 0 0 .15.63 3.35 3.35 0 0 1-.19-.53 2.06 2.06 0 0 0-.15.58 5.05 5.05 0 0 0 .28 1.85 13.67 13.67 0 0 0 6.42 5.67z" fill="{{colors[0]}}"/><path d="M422.61 461.81c.12.06.26.07.28.18 0 .32-.54.29-.56.6l.18.13q-.28.21-.63.42c-.21.37-.39.76-.6 1.14.07 0 .13.08.13.13s-.28.33-.45.52v.11a.5.5 0 0 0 .1.14 1.64 1.64 0 0 1-.25.21 17.9 17.9 0 0 1-2.09 3.85 3.9 3.9 0 0 1-.52.95 2 2 0 0 1-.67.4l-.7.3a1.31 1.31 0 0 1 0 1.08 1 1 0 0 0 .07 1c-.31.14-.79.29-.73.51a2.33 2.33 0 0 1 .07 1.06 1.78 1.78 0 0 1-.66 1.1c-.35.21-1 .13-1.09.29s.61.3.46.57A14.71 14.71 0 0 0 419 475a30.45 30.45 0 0 0 3.6-2.5 11.64 11.64 0 0 1 1.11-1.26l.87-1c.32-.34.62-.74.94-1.13.62-.78 1.22-1.62 1.7-2.36.25-.36.45-.71.63-1s.35-.55.46-.73l.06-.14a9.38 9.38 0 0 0 .62-1.36 5.31 5.31 0 0 0 .25-1.39c-.06-.41-.16-.82-.26-1.22a5.7 5.7 0 0 1-.5.31c.12-.34.25-.67.15-.84-.14-.82-.63-.49-1.2-.37-.27.12-.54-.22-.86 0a4.16 4.16 0 0 0 .16-.5c-.2-.08-.05.66-.36.42.14-.17.05-.43.12-.62-.31 0-.28.66-.57.55 0-.12.53-.45.19-.58-.07 0-.13.17-.16.26 0-.64-.22-1-.74-.59.05-.18.27-.4.27-.61 0 .1-.15.25-.18.33l.1-.32h-.16a.62.62 0 0 0-.15.22l.07-.21-.38.11c-.3.2-.69.34-.73.47-.44.97-.92 1.93-1.44 2.87z" fill="{{colors[0]}}"/><path d="M404.49 460.48c.13.06.32 0 .27.23-.22.79-.9 1.21-1.12 2l.18.14-1.08 1.67a38.94 38.94 0 0 0-1.32 3.67c.09 0 .16 0 .15.14-.13.56-.46 1.3-.68 2.16 0 .12 0 .26-.05.39a.25.25 0 0 0 .14.17c-.08.4-.16.75-.23 1.08a13.38 13.38 0 0 0 .35 3.39 13.07 13.07 0 0 0 1.18 3.11 16.23 16.23 0 0 0 4.09 4.95c.78.52 1.56 1 2.29 1.41 1 .71 2.27 1.67 3.31 2.26.11-.38.84-.31 1.52-.3s1.3 0 1.22-.5c.67.34 1.71.79 1.85.61.42-.55 1.21-1 3.21-.72.76.18 1.81.84 2.12.81.49-.06-.81-.78-.33-.84a73.74 73.74 0 0 1-7.56-3.21c-.56-.3-1.1-.61-1.62-1-.26-.17-.5-.35-.75-.52s-.48-.35-.7-.54a12.3 12.3 0 0 1-1.28-1.22 11.82 11.82 0 0 1-1.08-1.37 7.07 7.07 0 0 1-1.34-2.16 7.37 7.37 0 0 1-.48-1.85 7.06 7.06 0 0 1 .05-2.14 22.8 22.8 0 0 1 1.73-5c.71-1.65 1.34-3 1.74-3.79l.12-.3a36.14 36.14 0 0 0 2.16-5.42c.15-.74.28-1.52.41-2.29-.27.26-.52.5-.76.69a5.8 5.8 0 0 0 .7-1.68c.42-1.61-.34-1-1.09-.63-.41.31-.46-.4-1 .14l.58-1.14c-.17-.15-.59 1.47-.76 1a11.43 11.43 0 0 0 .65-1.42c-.34 0-.88 1.55-1.11 1.35.06-.28 1-1.12.71-1.37-.06-.06-.29.4-.41.63.59-1.47.67-2.41-.33-1.29a17.05 17.05 0 0 0 .88-1.51c-.13.23-.4.61-.51.83l.42-.81-.21.08a3.77 3.77 0 0 0-.38.57l.28-.53a3 3 0 0 0-.54.31 8.88 8.88 0 0 0-1.32 1.34c-1.5 2.77-2.96 5.57-4.27 8.42z" fill="{{colors[0]}}"/><ellipse cx="563.43" cy="429.68" rx="76.99" ry="45.69" transform="rotate(-12.75 563.591 429.76)" fill="{{colors[1]}}"/><circle cx="618.95" cy="350.16" r="20.96" fill="{{colors[1]}}"/><path d="M252.93 375.49c0-.06-.07 0 0 0zm31-26.98v-.06l-.54-.41zm5.68-8.86h.09c-.15-.08-.3-.15-.09 0zm-15.85 30.41c-.07.06-.05.13 0 .21a.38.38 0 0 1 0-.21zM248.31 360v.05a1.11 1.11 0 0 1 .16-.12zm.46.18c-.18.24-.38 0-.44-.14-.34.28-.35.54-.17.79.4-.03.31-.52.61-.65zM250 324.9l.14.14a.62.62 0 0 0-.14-.14zm40.34 56.49v.21a.16.16 0 0 0 0-.21zM248.5 330.3l.62.18a3.06 3.06 0 0 0-.62-.18zm34.91 17.7l-.2-.17zm9.78-17.34a2.84 2.84 0 0 0 .49.1zM304 384.44a1.27 1.27 0 0 0 .23-.12h-.51a.41.41 0 0 0 .28.12zm2.56-37.01a1.87 1.87 0 0 0 .22.07 2.55 2.55 0 0 0 .42-1.52l-.78-.15z" fill="{{colors[0]}}"/><path d="M288 363.31l1.48-1.84c.26 1.36.42 2.53.52 3.61s.09 2.06.18 3a13.79 13.79 0 0 0 1.46 5.9l-.39-.19c-.11.37.73.48 1.26 1.5s.74 2.91-.23 7.19l-.15.05c.1.25.41.15.15.79l.56-1.56c.62.64 1.51 1.07 2 2a1.13 1.13 0 0 1-.62.54l1.09 2.32-.69 1.1c.82.54 2.71-.59 2.36 1.78 1.11-1.29 1.22.6 1.83.07-.13.16-.3.49-.47.77.67 1.05 2 3 2.95 3.12 0 0 .22-1.42.58-3a16 16 0 0 1 1.47-4.24c.22 1.64.33.31.68-.17l-.39.05c0-1 .88-1.37 1-1.9l-.24.12h.14a.52.52 0 0 1-.37.11c-.18.08-.35.1-.39-.16h.11a2.67 2.67 0 0 1-.39-1.31l.75-.28c-.83-.07-.68-1.38-.32-2.73a15.4 15.4 0 0 0 .89-3.22c.69-1.13-.75-1.9-.55-3.12-.18-1.8.92-1.13 1.41-2.14.27-1.19-.87.41-1 0l.82-1.52c.25.73.64.22.91 0-.12-1.14 1.07-3.1-.55-3.19.52-1.61 1.14-1.69 1.16-2.34-.27.25-.49.71-.8.76.63-.69-.21-.27-.33 0-.4-.41.19-1.7.66-2.84s.91-2.16 0-2.2h.32c-1.31-.13-2.55.3-3.31-.31l.55-.47-.6-.63a.84.84 0 0 1 .91-.27c-.62-1 .06-2.56.23-3.84-1.2.44-2.36.91-3.54 1.4.76-1.16 2.53-3.12 1.38-3.37l1.21-.62c2.37-2.08-.9-1.59-.16-2.44l1.37-1-.1 1.08a8.84 8.84 0 0 1 2.13-2.18.3.3 0 0 1-.2.08v-.15a1.3 1.3 0 0 1-.87-1.55c.28-1-.51-2 1.13-3.5l-1.24-.66c.32-.39.67-.76 1-1.13l1 .21a11.91 11.91 0 0 0-.28 2.45c-.06.94-.11 1.93-.16 2.73l.48.09a19.29 19.29 0 0 1 0-2.66c.26-.28 1.47-.84 2.09-.18l-.93-.74c.48-3.05.41-3.15 2.39-5.93l-.58.13c-.1-.48-.19-1 0-1.19l-16.45-4.89a.69.69 0 0 1-.57.15 8.17 8.17 0 0 1-3.78 4.46l1.08.69c-.21.38-2.19.33-.62 1.13l.19 1c-.3.52.24 1.11-.67 1.47l-.18.06h.1c-1 1 1 .4-.19 1.55-1 .11 1.27 1.1.71 1.68h-1.93c-1.46.83.08 1.74-.7 3.53a2.91 2.91 0 0 1-3.52-.77c1.14 1.44.81.79 1.06 2.13-.68-.13-.76-.3-1.21-.78-1.13.55.29.81-.07 1.46 1.05.75 2.75 1.86 2.72 2.12l.48-.09a2 2 0 0 1-.86 2.52l-.55-.32-.17 1-.75-.33-.45 1.38.29-.07c-.06.35-.34 1.45-1 1.79l-.38-.24c-2.09.85-1.2 3-2.16 4.89l-.65-.71c-1.15.12 1.12.9.29 1.38l-1-.56c.88 1.42-.78.65-1.53.77l1.39.59-.77.65c-1 .62-1.94-.48-2.51-1l.6 1.23-1.18-.6c1 1.27-.49.29-.3 1.5-.45-.21-.56-.56-.91-.43l.72 2.25-.18-1.19 1.53 1.17c.67 1.6-.89.92-.83 1.76l-.2-.7c-.24 1.13-.94.71-1.62.92.39.07 1 .16.94.65-.1.31-.65-.27-1-.17 1 .83 1.07 1.84.18 2a1.5 1.5 0 0 1-.33-.35c.06.26.26.53-.16.57l-1-1 .71 1.28c-.53 0-.09 1.11-.79.45l-.09-.34c-.67.63-1.35 1.22-2 1.75l-.84-.76c.94 1.29-1.36.52.05 1.87-1.06-.46-.85 1.78-2.09-.08-.62.41-.75 1.12-1 1.78a1.55 1.55 0 0 1-1.66 1.16c-1.32-1.38-2.21-.33-3.13-.29a14.94 14.94 0 0 1-2 1.48 6.47 6.47 0 0 1-2.17.9c-.25-1.37-.65-1.22-1.2-1s-1.22.4-1.11-.45c-.26.24-.52.47-.81.69.28-.84 0-.94-.37-1.21s-.76-.6-.36-1.46a1.37 1.37 0 0 1-.77-.05c0 .07-.16.24-.71.6.24-.52-.62-.86.59-1.42h.09c.6-.27.36-.42.06-.62s-.61-.52-.17-.9l-1.22.73v-.77l.32.1c-2-1-2.09-2.58-2-4a5.37 5.37 0 0 0-1.34-4.7c1.59.39-.88-.71.79-.94 2-1.24-.62-1.92-1.23-2.77a1 1 0 0 1-.32 0l.11-1.56c2.18.81-1.82-1 0-.26 1.37-4.06-.24-9.26.77-13.89l-.56.17c.19-1.16-.39-2.69.57-3.5s-1.21-2.08-1.25-2.45c-.83-1.09 1.13-1.77 1-1.36-.15-1.07-1.93-2.31-.91-3.67 1.85-.21-1.12-4.26.91-4h-.17c1.73-1.59-.31-3.81 1.4-5.53a1.54 1.54 0 0 1 .26.17c-1.72-1.79-3.37-3.63-5-5.54q-3.43-.25-6.88-.43c-2.11.83-4.19 1.72-6.28 2.66q-.59 5.55-.75 11.07c-1.13 2.8-2.13 5.65-3.09 8.55a146.87 146.87 0 0 0 .65 21.6l1.65 1.41c-1.19 2.14-.82 4.81-.16 7.47s1.62 5.41 1.7 8.45l1.28-.33c.62 1.46-.13 1.68-.2 2.15a29.28 29.28 0 0 0 7.55 10.37 25.93 25.93 0 0 0 5.86 3.82 26.33 26.33 0 0 0 6.46 2.1 33.38 33.38 0 0 0 12.14-.05A47.6 47.6 0 0 0 275.5 395a7 7 0 0 0 3.13-1.24c1.12-.66 2.17-1.34 2.85-1.3a68.86 68.86 0 0 1 7.65-9.89v.2l.88-1.55a.35.35 0 0 1 .3.2c.26-2.27 2.9-4 4.53-5.68v.19a95.06 95.06 0 0 0 8.88-17.15c2.47-5.85 4.72-11.69 7.72-17.57a14.66 14.66 0 0 0 2.34-4.57L291 329.83c-1.51 5-1.34 10.54-3.19 15.8-.75.6-1.19 4.74-1.07 8.86s.86 8.2 1.26 8.82z" fill="{{colors[0]}}"/><path d="M294.14 384.32v-.05c-.55.18-.33.19 0 .05zm10.4-29.76l-.01.08.79-.29-.78.21zm2.05 16.04c0-.75-.11-.75-.31-.61a.75.75 0 0 0 .31.61zm-8.94 20c.15.44.38.15.61-.24l-.38-.69c-.03.33-.2.64-.23.93zm6.29-4.55h.47c-.2-.23-.34-.16-.47 0zm33.15-32.88c.06 0 0-.08 0 0zm3.45 25.07l.29-.6zm2.65 2.24v.07c.02-.16.04-.32 0-.07zm-8.58-6.01s-.06-.05-.15 0a.33.33 0 0 1 .15 0zm5.39-30.55l.16.06zm.33.36a.42.42 0 0 1-.3-.32c-.34-.14-.43-.06-.37.13.34.24.4.04.67.19zm9.19-3.44l-.12.1zm-33.84 40.3a1.49 1.49 0 0 0-.14-.12c.01.08.07.11.14.12zm32.68-41.54l-.27.59c.11-.25.19-.43.27-.59zm-7.52 38.04l.11-.23zm6.61 2.92c0 .19.08.35.11.48zm31.97-2.56a2.53 2.53 0 0 0-.13-.22l.09.47a.34.34 0 0 0 .04-.25zm-24.14 3.2a2.25 2.25 0 0 0 0-.22c-.21-.16-.56-.08-1 .1l.24.76z" fill="{{colors[0]}}"/><path d="M371.78 394.15l-1.62-1c2.53-2.07 4.41-1.23 6.19-3.55v.37c.5.17-.91-3.15 4.79-1.08l.07.15c.12-.09 0-.38.42-.13l-1.08-.55c.21-.56.2-1.41.67-1.76a1.67 1.67 0 0 1 .5.6l1.15-.87.85.73c.13-.69-1-2.56.56-2-1.06-1.17.11-1.07-.36-1.7.14.14.38.33.59.52.54-.47 1.51-1.42 1.45-2.26a32.32 32.32 0 0 1-5.2-2.78c1-.07.15-.28-.25-.65l.11.36c-.69-.07-1.11-.93-1.49-1l.13.23v-.13a.68.68 0 0 1 .15.35c.1.17.15.33 0 .35v-.1c-.15.23-.6.28-.79.3l-.36-.71c.29 1.55-3.62-.79-4.16-.58-1-.64-1.05.81-1.92.68-1.15.28-1-.79-1.87-1.15-.87-.12.55.77.31.95l-1.27-.61c.41-.31-.05-.62-.27-.85-.73.21-2.44-.57-1.94.95-1.24-.23-1.53-.8-1.95-.68.26.2.63.31.78.59-.68-.44-.1.25.12.31-.26.91-4.15-1.18-3.46.42l-.14-.28c.45 1.23 1.21 2.27 1.14 3.1l-.5-.4-.13.71a1.29 1.29 0 0 1-.53-.78c-.35.82-1.52.58-2.32.75l2.26 2.87c-1-.43-2.81-1.47-2.48-.36l-.85-.93c-2.14-1.57-.51 1.28-1.28.85l-1.12-.95.64-.23a7.23 7.23 0 0 1-2.06-1.27.53.53 0 0 1 .13.16l-.08.06c.16.63 0 1.17-.46 1.29-.67.06-.87 1.12-2.27.13l.15 1.35c-.33-.17-.65-.35-1-.54l-.29-1a21 21 0 0 0 2.82-1.33l-.15-.46c-.54.21-1 .84-1.38.86a2.5 2.5 0 0 1-.91-1.84v1.09c-1.67.61-1.74.71-3.69-.1l.26.49c-.28.37-.58.76-.82-.08a3.33 3.33 0 0 1-1.52-.43 3.62 3.62 0 0 1-1.19-1.44v1.26c-.21 0-.52-1.91-.54-.18l-.36.54c-.24-.09-.41.62-.66-.09v-.15.11c-.46-.61-.07 1.11-.59.33-.09-.9-.37 1.56-.65 1.25 0-.6-.05-1.19 0-1.8-.23-1.13-.65.67-1.32.49a7.83 7.83 0 0 1 .82-3.44c-.69 1.51-.4 1-.95 1.66a6.87 6.87 0 0 1 .54-1.32c.08-.78-.33.51-.48.41a24.69 24.69 0 0 1-1.55 3l-.07.41c-.53.47-1.06.67-1-.12l.33-.54-.47.08.42-.7h-.56l-.07.22a.41.41 0 0 1-.54-.48l.3-.35c.23-.74-.06-.75-.43-.76s-1 .16-1.28-.07l.77-.52c.59-.76-1.14.85-.95.31l.89-.7c-1.33.7.07-.45.46-.87l-1.19.9.07-.43c.24-.58 1.51-1.16 2.18-1.55l-1.1.43 1.12-.7c-1.4.63.16-.23-.69-.05a4.31 4.31 0 0 0 .86-.48 13.3 13.3 0 0 1-1.86.37l.86-.06-1.75.79c-1.46.27 0-.54-.59-.56l.6-.05c-.59-.21.14-.51.48-.88-.32.19-.78.49-1.07.4-.14-.1.62-.3.79-.48-1.22.39-2 .25-1.49-.21l.47-.11c-.22 0-.55 0-.3-.17l1.4-.31-1.39.12c.34-.27-.71-.29.23-.49h.29c0-.48 0-.91.07-1.39l1.12-.2c-1.56.1.5-.81-1.43-.51.51-.2.29-.43.21-.63s0-.39 1.13-.4c.06-.47-.45-.8-.86-1.19a1 1 0 0 1-.1-1.47c1.84-.39 1.34-1.61 1.58-2.4a20.15 20.15 0 0 1-1.44-4.71c2.75-.51-.33-2.83 1.42-3.64l-.92-.58c1.78-.28.2-2.09 2.08-2.68a2.2 2.2 0 0 1-.46-.65c-.06 0-.27 0-.91-.14.54-.15.2-.95 1.43-.48l.1.12c1.23.46-.27-1.07.91-1l-1.38-.31c.13-.16.28-.3.42-.45l.2.24c-1-1.72-.35-2.42.32-3s1.35-1 .65-2.58c1.17 1-.49-.77.95.12 2 .81.07-.93-.12-1.59a2 2 0 0 1-.23-.21 4.82 4.82 0 0 1 .57-.39c1.38 1.65-1-1.5.11-.06a3.49 3.49 0 0 0 2.29-1.25 1.74 1.74 0 0 1 1.64-.75l-.22-.5c.34 0 .7-.76 1.11.06s.44-1.47.6-1.54c.34-1 .64.91.49.81.27-.24.85-2.16 1.25-1.25-.06.88.25.55.67.21s.81-.56.42.38l.07-.16c0 .8.29.63.67.58s.8-.08.63.62l-.21.2a13.75 13.75 0 0 1 2.56-1.67 14.19 14.19 0 0 1 2.84-1.06 58.58 58.58 0 0 0 4.53-5.12 18.32 18.32 0 0 0 .79-3.33 20.74 20.74 0 0 0 .25-3.53 21.32 21.32 0 0 0-5.35-2.59 22.36 22.36 0 0 0-5.81-1 26.4 26.4 0 0 0-8.93-1.89 27.06 27.06 0 0 0-10.24 4.82 31.83 31.83 0 0 0-6.61 7.15c.14.66.33 1.3.52 1.93-2.09.65-3 2.43-3.64 4.17s-1.08 3.5-2.53 4.65l1.21.52c-.25.86-1 .52-1.27.65a45.45 45.45 0 0 0-1.4 5.76c-.36 2-.66 3.95-.91 5.92-.51 3.94-.95 7.78-1.81 11.66a3.07 3.07 0 0 0-.61 1.9c-.06.77-.11 1.53-.55 1.87a13.21 13.21 0 0 1 1.83 4c.2.68.4 1.39.55 2.08s.26 1.4.45 2.11l-.17-.07.63 1.22a.45.45 0 0 1-.34.14 4.1 4.1 0 0 1 1.38 2.55c.13.54.19 1.11.3 1.68s.25 1.13.4 1.64h-.19a24 24 0 0 0 5.86 7.13 28.36 28.36 0 0 0 7.8 4.44 38 38 0 0 0 8.34 2.08c1.35.16 2.74.37 4 .45s2.64.21 4 .32a8.41 8.41 0 0 0 3.78.3 19.07 19.07 0 0 0 3.6-1c2.35-.86 4.54-1.9 7.07-1.9.65.47 3.13-.41 5.35-1.59s4.22-2.64 4.43-3.09z" fill="{{colors[0]}}"/><path d="M381.75 387.22c.25.52.17.31 0 0zm-21.7-6.25l.06-.01-.5-.64.44.65zm9.31-5.04c-.51.06-.47.19-.31.36a.4.4 0 0 0 .31-.36zm15.47 8.58c.24-.08 0-.33-.29-.59l-.35.28c.19.06.44.26.64.31zm-4.29-6.28l-.13-.44c-.09.21-.01.31.13.44zM420 330.42c.06 0 0-.05 0 0zm1.84 25.31h.67zm-1.31 4.19h-.07c.16.01.31 0 .07 0zM419 346.44s-.05-.05-.13-.07a.4.4 0 0 1 .13.07zm.38-23.65h.16zm.44.13a.44.44 0 0 1-.42-.11c-.37.05-.41.15-.26.27.41.05.37-.15.68-.16zm.67-13.92l.15.07zm-21.56 38.18a.71.71 0 0 0-.09-.07s.03.06.09.07zm20.73-36.09l.63.14a6.34 6.34 0 0 0-.63-.14zm2.85 44.67zm-2 7.96a3.85 3.85 0 0 0-.49.08zm-6.81 21.1l.24-.06h-.47a.38.38 0 0 0 .23.06zm4.7-15.55h.22c.21-.12.22-.36.15-.66l-.79.09z" fill="{{colors[0]}}"/><path d="M401.06 378.26l1.47-.89c1.05 1.81-.32 3 1.28 4.43h-.36c-.31.33 3.21-.29-.51 3.3h-.16c.05.09.36 0 0 .3l.85-.67c.46.19 1.26.26 1.45.6a2.26 2.26 0 0 1-.72.28l.47.84-.95.51c.61.15 2.71-.47 1.7.54 1.41-.62 1 .15 1.69-.11-.17.08-.42.22-.66.35a2.31 2.31 0 0 0 1.67 1.12 32.7 32.7 0 0 1 4.19-3.23c-.26.69.22.12.68-.11h-.37c.28-.44 1.21-.65 1.43-.88l-.26.07h.13a1.28 1.28 0 0 1-.37.07c-.2.05-.36.07-.33 0h.1c-.17-.12-.08-.4 0-.53l.78-.18c-1.54.07 1.86-2.24 1.84-2.58.92-.56-.4-.73 0-1.27.11-.74 1.07-.57 1.68-1.06.4-.52-.9.28-1 .11l1-.73c.15.28.59 0 .89-.09 0-.47 1.34-1.44-.25-1.27.63-.74 1.25-.86 1.28-1.12a3.25 3.25 0 0 1-.81.41c.64-.36-.19-.08-.33 0-.76-.24 2.53-2.4.79-2.17l.32-.05a17.07 17.07 0 0 1-3.27.36l.54-.27-.6-.16a1.89 1.89 0 0 1 .9-.25c-.66-.32-.05-1 0-1.55l-3.41 1.11c.74-.57 2.25-1.61 1.1-1.52l1.14-.44c2.12-1.21-1.07-.45-.44-.9l1.22-.63v.43a9.1 9.1 0 0 1 1.78-1.22.75.75 0 0 1-.18.07v-.06c-.65.05-1.12-.11-1.12-.42s-.88-.66.39-1.53h-1.35l.72-.62 1-.14a16.11 16.11 0 0 0 .68 2l.48-.06c-.05-.38-.58-.74-.51-1a3.42 3.42 0 0 1 2-.48l-1.06-.09c-.31-1.25-.34-1.26.7-2.72l-.52.18c-.34-.23-.67-.45.18-.62a3.11 3.11 0 0 1 1.93-2.35h-1.26c.05-.18 1.9-.61.15-.52l-.57-.3c.07-.24-.65-.31 0-.64l.14-.06h-.1c.5-.57-1.12.11-.45-.55.86-.27-1.6-.07-1.34-.39l1.76-.44c1-.61-.82-.54-.89-1.3a6.22 6.22 0 0 1 3.48-.57c-1.66-.2-1.08-.07-1.9-.44a4.07 4.07 0 0 1 1.43 0c.75-.44-.63-.19-.61-.49a30.24 30.24 0 0 1-3.38-.05l-.39.14c-.69-.26-1-.59-.41-1h.64l-.35-.37.82-.08-.29-.54-.21.09c-.12-.12-.42-.54 0-.8h.45c1.38-.76-.52-1.23-.7-2l.93.07c.92-.31-1.42 0-1-.36l1.13-.06c-1.5-.24.31-.39.87-.61l-1.49.15.31-.39c.48-.42 1.87-.31 2.65-.28l-1.18-.23 1.31-.1c-1.53-.16.25-.21-.59-.54.5 0 .79 0 1-.09l-1.87-.53.83.33H419c-1.47-.34.2-.51-.35-.77l.58.18c-.48-.43.34-.47.76-.72-.36.08-.88.21-1.14 0s.67-.08.88-.21c-1.28 0-2-.31-1.37-.6h.48c-.21-.07-.54-.1-.23-.23l1.42.06-1.35-.23c.39-.16-.65-.39.31-.37l.29.08.34-1.21h1.14c-1.57-.12.6-.66-1.36-.62 1.07-.22-.76-.9 1.45-.76.18-.78-2-1.24-.86-2.19 1.88-.31 1.3-1.25 1.52-1.86a22.71 22.71 0 0 1-2-3.31c2.65-.61-.79-1.9.72-2.62l-1-.29c1.67-.42-.29-1.38 1.39-2a1.94 1.94 0 0 1-.61-.37 2.33 2.33 0 0 1-.91 0c.48-.17-.06-.65 1.25-.51l.13.06c1.31.14-.56-.7.6-.84h-1.42l.27-.38.26.13c-3-2.06 1.57-2.41-1.08-4.36 1.5.4-.77-.41.9-.24 2.15-.18-.36-.82-.89-1.24a1.57 1.57 0 0 1-.3-.06l.27-.57c2.07.62-1.71-.66.05-.1 1.79-1.35.47-3.59 1.46-5.28h-.55c.18-.44-.38-1.11.54-1.32s-1.24-1-1.3-1.13c-.87-.54 1-.57.92-.42-.19-.45-2-1.17-1.12-1.59 1.79.13-1.45-1.87.55-1.51h-.16c1.54-.45-.71-1.6.72-2.12l.27.1-5.72-2.87-6.73-1-5.69.37c.13 1.45.22 2.89.38 4.32l-2.68 2.92q-.3 4.1-.42 8.17l1.46.75c-2.84 1.28 0 3.63-2 5.16l1.31.15c0 .49-.77.38-1 .48-.13 4.54 1.46 9.18-.29 13.17-.9.38-.38 1.57-1.3 1.87a3.92 3.92 0 0 1 1.43 4l-.14-.05.26.61a.93.93 0 0 1-.37 0c1.19.67.07 1.79-.38 2.67l-.15-.05c-.1 5.05 2.69 9.46 1.37 14.54-1.89 2.55 1.37 4.85 0 7.71-1.32.81.56 5.99 1.25 6.34z" fill="{{colors[0]}}"/><path d="M404.35 385.62c-.55.11-.35.09 0 0zm12.89-13.23l-.01.04.76-.25-.75.21zm1.62 6.28c.11-.32 0-.3-.23-.22-.02.11.04.19.23.22zM406 387.9c0 .17.3 0 .64-.15a2 2 0 0 1-.16-.25c-.15.12-.41.27-.48.4zm7.14-2.37l.45-.06a.54.54 0 0 0-.45.06zM437 342.09s0-.06 0 0zm-2.91 5.06l.67-.38zm-.82 1.47v.06c.07-.12.18-.24 0-.06zm-2.73-2.62h-.16zm12.74-8.15l.1.13zm.08.45a.43.43 0 0 1-.09-.42c-.21-.31-.32-.3-.36-.11.14.39.3.23.45.53zm13.01-4.64v.17a.88.88 0 0 0 0-.17zm-48.93 10.48a.83.83 0 0 0-.08-.12c-.02.06.02.1.08.12zm46.71-10.61l.07.65c-.02-.27-.05-.47-.07-.65zm-19.38 13.24l.26-.15zm-.24 2.97c-.09.18-.15.33-.2.45zm14.69 19.11c0-.07.07-.15.11-.23l-.33.38a.32.32 0 0 0 .22-.15zM438.53 355c0-.07.08-.12.12-.2 0-.23-.21-.4-.52-.53l-.38.7z" fill="{{colors[0]}}"/><path d="M435.84 374.41l.17-1.71c2.14.27 2.25 2.13 4.38 1.77l-.24.27c.06.44 1.82-2.69 2.3 2.49l-.07.14c.1 0 .25-.26.22.2v-1.09c.44-.22 1-.79 1.41-.71a2.39 2.39 0 0 1-.24.73l1 .19-.21 1.06c.51-.37 1.39-2.37 1.52-.94.43-1.48.76-.63 1-1.36-.05.18-.1.47-.15.74a2.43 2.43 0 0 0 2-.53 34.39 34.39 0 0 1 .16-5.32c.39.67.23-.08.35-.59l-.21.31c-.17-.5.26-1.35.21-1.68l-.11.24.08-.1a.89.89 0 0 1-.19.33c-.08.19-.17.32-.24.22l.02-.07c-.21.05-.39-.21-.46-.32l.36-.72c-.95 1.23-.66-2.94-1-3.16.11-1.08-.89-.18-1.09-.85-.57-.58.19-1.21.15-2-.2-.66-.33.87-.53.83v-1.25c.34.07.4-.44.49-.75-.39-.34-.42-2-1.29-.66-.25-1 0-1.56-.18-1.76a3.09 3.09 0 0 1-.14.91c.08-.75-.2.1-.17.29-.68.43-.58-3.56-1.46-2.05l.15-.28a14.94 14.94 0 0 1-1.71 2.82l.1-.61-.51.37a1.74 1.74 0 0 1 .33-.87c-.69.32-.95-.62-1.38-1l-1.08 3.44c-.06-.95-.07-2.83-.68-1.86l.29-1.19c.18-2.47-1.06.57-1.09-.21l.16-1.38.42.24a9.36 9.36 0 0 1-.06-2.2.39.39 0 0 1 0 .2h-.07c-.35.55-.78.83-1.06.63-.35-.38-1.12.3-1.18-1.28l-.78 1.1-.15-1 .48-.94c.48.31 1.61.44 2.29.73l.23-.43c-.39-.19-1 0-1.25-.23a3.1 3.1 0 0 1 .72-1.91l-.71.8c-1.34-.55-1.38-.51-2.17-2.26l-.13.53c-.41.14-.81.27-.49-.53-.31-.26-.84-.76-.62-1.05a5.42 5.42 0 0 1 .63-1.39l-.72 1c0-.09 1.09-1.64 0-.23l-.42.41c0-.1-.51.43-.09-.16l.09-.12-.08.08c.28-.48-.79.85-.43.23.62-.68-1.24 1.13-1.14.86.43-.45.88-.89 1.33-1.32.74-.78-.75.46-1 .32a27.87 27.87 0 0 1 3.19-2.27 13.56 13.56 0 0 1-1.81 1.11l1.39-.85c.76-.48-.6.36-.59.31-1.28.73-3.37 1.86-3.49 1.88l-.37.25c-.8.31-1.29.34-.73-.09l.7-.32-.48.05.91-.41h-.44l-.23.12c-.15 0-.62 0-.17-.25l.54-.18c1.58-.72-.79-.16-1.17-.47l1.22-.2c1.15-.31-1.87.33-1.32.09l1.49-.26c-2 .23.36-.19 1.11-.32l-2 .29.38-.18a28.71 28.71 0 0 1 3.55-.42c-.53 0-1.05.08-1.58.1l1.76-.15c-2.06.12.33 0-.78 0l1.34-.06h-2.49l1.1.05h-2.59c-2-.11.3-.17-.42-.25l.76.07c-.61-.15.5-.12 1.08-.13a10.94 10.94 0 0 1-1.52-.1c-.13-.05.9 0 1.19 0-1.7-.13-2.55-.35-1.72-.36l.62.08c-.26-.05-.69-.12-.27-.11l1.85.26-1.74-.3c.53 0-.76-.26.47 0l.35.08c.2-.07.41-.14.61-.19l1.4.35c-1.89-.52.78.11-1.56-.55 1.28.34-.7-.47 1.8.42.13 0-.38-.24-.73-.46s-.53-.43.09-.22c1.92.95 1.36.6 1.6.67a3.26 3.26 0 0 1-1-1.83c.45.49.64.69.69.73s0 0 0-.05-.06-.12 0-.28c.2-.56.36-1.22 1.06-.78l-.32-1c1.25 1.18 1-1 2.39.12a2 2 0 0 1 0-.71 2.72 2.72 0 0 1-.5-.76c.4.31.51-.4 1.08.79v.14c.56 1.19.3-.82 1 .1l-.73-1.21h.46v.29c.1-1.79.85-1.75 1.56-1.66s1.4.24 1.64-1.39c.36 1.51 0-.87.64.69 1.14 1.81.54-.7.68-1.35a1.41 1.41 0 0 1-.08-.3h.63c.38 2.13-.18-1.81.12 0 2 1 3.4-1.15 5.36-.88l-.21-.51c.46 0 .87-.79 1.4 0s.45-1.51.57-1.63c.19-1 .91.76.73.7.34-.34.37-2.32 1.1-1.6.48 1.75 1.28-2 1.62 0v-.17c.92 1.33 1.3-1.21 2.25 0v.29q.47-3.15 1.1-6.31l-1.11-6.71q-1.1-2.65-2.32-5.3c-1.61.59-3.19 1.22-4.73 1.91-1.41-.48-2.85-.91-4.32-1.31a76.85 76.85 0 0 0-9.11 3.5l-.11 1.67a2.6 2.6 0 0 0-3.26.2c-.93.63-1.82 1.32-3.15.92l.53 1.2c-.47.32-.8-.43-1-.58a32.19 32.19 0 0 0-3.37 2.23l-1.61 1.23-.79.63-1.32.94-2.41 1.82c-.78.6-1.63 1.13-2.38 1.72-1.48 1.19-3.17 2.22-4.69 3.33-1.29.09-2 1.94-3.19 2 .35 2.48-.55 4.36-1.22 6.45l-.12-.1a8.71 8.71 0 0 0 .05 1 .66.66 0 0 1-.37 0 2.16 2.16 0 0 1 .15 2.1c-.18.76-.66 1.59-.79 2.33l-.15-.07a13.49 13.49 0 0 0 1.81 5.91 20.7 20.7 0 0 0 3.9 4.73c3.1 2.83 6.72 5 10.46 7.84a8.24 8.24 0 0 0 1.22 1.28 3.08 3.08 0 0 0 .73.62 7.34 7.34 0 0 0 1.8.71c1.28.38 2.63.74 3.42 2.15-.16 1.45 5.14 3.06 5.85 2.73z" fill="{{colors[0]}}"/><path d="M443.79 376.5c-.28.5-.15.32 0 0zm-3.11-18.64l.03.03.24-.76-.27.73zm6.63 2.89c-.21-.31-.28-.19-.34 0s.2.12.34 0zm-.69 16.02c.14.12.23-.21.31-.58a2.48 2.48 0 0 1-.31-.05c.03.16-.02.47 0 .63zm2.82-7.02l.26-.38a.48.48 0 0 0-.26.38zm38.41-38.27s-.05 0 0 0zm9.33 15.45l.62-.25zm-.28 3.31c.1-.02.23-.09 0 0zm-4.76-8.3H492a.36.36 0 0 1 .14 0zm-7.8-14.66l.13-.1zm.44-.13a.6.6 0 0 1-.41.14c-.3.21-.29.29-.11.28.37-.17.26-.27.52-.42zm-5.51-8.08l.16-.05zm-5.19 31.59H474s0 .02.08 0zm5.46-30.05l.59-.26c-.25.1-.43.19-.59.26zm18.27 26.08l.24-.09zm-.16 6.14l-.44.22zM494 369.36l.23-.11-.44.15a.47.47 0 0 0 .21-.04zm2.64-12.03l.21-.08a.35.35 0 0 0 0-.5l-.73.32z" fill="{{colors[0]}}"/><path d="M481.51 368.79l1.29-1c1.2.82 0 2 1.61 2.45l-.34.1c-.27.3 3-1.14-.23 2.27l-.14.07c.05 0 .34-.09 0 .19l.77-.68c.44 0 1.19-.19 1.39 0a3.59 3.59 0 0 1-.66.39l.49.41-.86.6c.58-.07 2.53-1.07 1.63-.12 1.29-.8.92-.17 1.59-.55-.16.1-.39.27-.6.42a2 2 0 0 0 1.65.28 47.72 47.72 0 0 1 3.76-3.31c-.2.54.21 0 .64-.27l-.35.14c.23-.37 1.1-.78 1.29-1l-.24.12h.12a1.22 1.22 0 0 1-.35.15c-.18.09-.33.15-.31.07h.1c-.17 0-.1-.25-.07-.35l.72-.34c-1.45.48 1.6-2.06 1.54-2.3.81-.64-.45-.38-.12-.86 0-.54 1-.71 1.48-1.21.33-.49-.82.44-.92.36l.86-.79c.17.14.56-.16.83-.33 0-.33 1.11-1.39-.37-.81.51-.7 1.09-1 1.09-1.16a5 5 0 0 1-.72.53c.56-.45-.19 0-.31.13-.73.06 2.08-2.43.47-1.74l.29-.13a23.87 23.87 0 0 1-3 1.26l.48-.36-.59.08a2.88 2.88 0 0 1 .82-.45c-.67 0-.19-.68-.18-1.07l-3.06 1.71c.62-.61 1.9-1.8.84-1.37l1-.67c1.81-1.5-1.08 0-.55-.46l1.05-.82.1.28a11.27 11.27 0 0 1 1.48-1.41.74.74 0 0 1-.16.11h-.05c-.6.24-1.07.29-1.12.08s-.92-.15.12-1.16l-1.25.45.54-.72 1-.45c.09.35.74.78 1 1.16l.44-.2c-.12-.24-.67-.31-.65-.52a4.82 4.82 0 0 1 1.78-1l-1 .29c-.49-.76-.53-.74.16-2.09l-.45.3c-.36 0-.71-.08 0-.49-.08-.58.28-1.38 1.34-2.28l-1.16.46c0-.14 1.64-1.09 0-.41h-.61c0-.18-.67 0-.1-.44l.12-.1-.1.05c.35-.56-1 .48-.54-.21.75-.49-1.49.54-1.32.23l1.53-.94c.78-.76-.87-.06-1.11-.55a8.8 8.8 0 0 1 3.1-1.67c-1.58.48-1 .35-1.85.4a6.32 6.32 0 0 1 1.31-.55c.6-.58-.62.1-.68-.1-1.17.48-3 1.27-3.14 1.24l-.32.24c-.71.09-1.1 0-.63-.49l.58-.26-.4-.11.73-.36-.39-.25-.18.14c-.14 0-.52-.19-.2-.52l.41-.19c1.08-1-.77-.61-1.15-1.06l.88-.33c.75-.56-1.32.56-1 .16l1-.5c-1.44.45.18-.37.63-.73l-1.32.69.17-.37a6.89 6.89 0 0 1 2.36-1.25l-1.15.32 1.18-.59c-1.45.51.16-.24-.69-.12.44-.23.73-.29.88-.46l-1.86.41.86-.12-1.76.78c-1.43.38 0-.41-.52-.35l.57-.12c-.55-.08.18-.44.49-.78a2.38 2.38 0 0 1-1 .49c-.14 0 .59-.33.74-.49-1.17.52-1.87.61-1.41.17l.43-.08c-.21 0-.52.16-.28-.05l1.32-.56-1.31.42c.31-.26-.7 0 .18-.37l.29-.06-.05-.92 1-.49c-1.46.58.34-.68-1.42.18.9-.6-.95-.26 1.09-1.11-.09-.58-2.14 0-1.45-1 1.59-1 .76-1.36.76-1.84a20.81 20.81 0 0 1-2.86-1.19c2.15-1.58-1.37-.81-.27-1.94l-1 .3c1.34-1-.73-.71.51-1.87a2.85 2.85 0 0 1-.68.06 3.16 3.16 0 0 1-.79.45c.36-.33-.3-.36.91-.9h.14c1.2-.54-.75-.16.21-.79l-1.24.68.09-.36.28-.05c-3.36.2.46-2.2-2.62-2.05 1.46-.51-.83.14.68-.59 1.8-1.16-.64-.3-1.25-.28l-.29.12v-.47c2-.67-1.73.47 0-.08 1-1.67-1.1-2.29-1-3.75l-.47.28c0-.33-.82-.42-.13-1s-1.48.1-1.6 0c-1 .16.63-.85.59-.71-.36-.15-2.23.43-1.65-.28 1.58-.89-2.06-.24-.22-1.11l-.16.07c1.08-1.07-1.33-.47-.38-1.52l.27-.09-6.06 1.59-6 3.15-4.54 3.13 2.19 1.88-1.07 2.8 2.81 4.31 1.55-.31c-2 2 1.33 1.9.05 3.68l1.2-.53c.2.24-.55.57-.72.73 1.45 2.44 4.27 4.34 3.84 7.35-.68.59.1 1.05-.66 1.61 1.81.07 2.17.87 2.37 1.69h-.15l.4.25a1.66 1.66 0 0 1-.33.16c1.24-.09.49 1 .28 1.71h-.14c1.11 3 4.57 4.56 4.22 8.16-1.34 2.22 2.06 2.49 1.14 4.76-1.06.9 1.25 3.53 1.93 3.54z" fill="{{colors[0]}}"/><path d="M485.2 372.53c-.51.22-.31.15 0 0zm10.8-12.7l.68-.41zm2.32 3.84c.07-.25-.05-.21-.24-.09 0 .08.06.12.24.09zm-11.47 9.89c0 .12.29-.06.6-.27l-.17-.12c-.1.11-.28.28-.43.39zm6.65-3.56l.42-.16a.92.92 0 0 0-.42.16zm27.56-10.28c.06 0 0-.08 0 0zm-18.79 30.99l.49.46zm-4.84 3.64h-.08c.13.08.25.19.08 0zm10.68-15.96s0-.09-.05-.15a.24.24 0 0 1 .05.15zm17.24-28.49h.17zm.33.33c-.24 0-.31-.22-.33-.3-.38-.06-.47.05-.41.25.36.21.44-.05.74.05zm8.02-17.68l.12.13a.47.47 0 0 0-.12-.13zm-42.34 34.81a.61.61 0 0 0 0-.13s-.04.08 0 .13zM531.93 335l.55.33a5.64 5.64 0 0 0-.55-.33zm-29.19 56.2l.18.18zm-8.94 7.13a3.33 3.33 0 0 0-.4-.28zM467 409.84l.13.22-.12-.46a.38.38 0 0 0-.01.24zm20-7.48c.05.05.09.11.15.16.25 0 .51-.19.77-.54l-.6-.53z" fill="{{colors[0]}}"/><path d="M468.25 395.35l1.56.7c-.95 2-2.66 1.33-3.07 3.3l-.14-.33c-.2-.07.22.62.1 1.08s-.85.77-2.95-.51l-.08-.14c-.05.06.12.34-.23.05l.83.64c0 .46.23 1.22 0 1.48a2.37 2.37 0 0 1-.46-.61c-.18.21-.36.39-.54.59l-.67-.82c.07.61 1.1 2.54 0 1.68.84 1.28.08 1 .46 1.64-.12-.15-.29-.39-.44-.6a2.4 2.4 0 0 0-.74 1.76s.62.61 1.45 1.37 1.86 1.59 2.45 2.23c-.82-.08-.1.25.25.65l-.12-.37c.56.16 1 1 1.31 1.15l-.13-.23v.13a.87.87 0 0 1-.16-.35c-.09-.18-.15-.34 0-.34v.1c.11-.21.47-.23.63-.24l.37.71c-.2-.75.57-.5 1.49-.16a6.77 6.77 0 0 0 2.22.71c1 .55.81-.83 1.6-.79 1-.39 1.1.63 1.93.87.83 0-.67-.65-.49-.86l1.28.39c-.29.36.2.59.46.77.62-.31 2.42.09 1.53-1.26 1.19 0 1.64.44 2 .22-.3-.12-.67-.14-.89-.38.75.28 0-.24-.2-.26-.07-.85 4.14.1 3-1.25l.22.23c-.83-1-1.86-1.77-2.11-2.54l.59.23-.13-.66a1.37 1.37 0 0 1 .75.56c0-.86 1.11-1 1.73-1.42l-3.13-1.84c1 .13 3 .42 2.21-.43l1.13.51c2.53.58-.18-1.29.66-1.21l1.38.38-.41.45a9.24 9.24 0 0 1 2.35.22.43.43 0 0 1-.19-.08v-.08c-.45-.48-.58-1-.28-1.31.53-.36.09-1.33 1.76-1.21l-.88-1 1.07-.07.83.67c-.5.51-1 1.8-1.58 2.56l.36.32c.35-.43.39-1.21.69-1.42a2.46 2.46 0 0 1 1.76 1l-.59-.91c1-1.49 1-1.52 3.1-2.25l-.52-.2c0-.48 0-1 .72-.51a4.21 4.21 0 0 1 3.58-1l-.89-.9c.2-.14 1.91.73.6-.43l-.12-.74c.27-.2-.17-.79.62-.65h.15l-.08-.06c.89-.25-.89-.67.19-.9.87.32-1.07-1.2-.6-1.35l1.67.75c1.27 0-.09-1.16.55-2a4.56 4.56 0 0 1 3.07 1.78c-1-1.36-.72-.82-1-1.79a2.93 2.93 0 0 1 1.08.94c1 0-.28-.64 0-.95a24.66 24.66 0 0 1-2.46-2.33l-.42-.11c-.28-.76-.25-1.33.57-1.37l.5.4.06-.63.68.45.26-.77-.24-.05c0-.21.15-.86.69-.88l.36.27c1.72 0 .7-1.68 1.24-2.69l.66.66c1 .23-1.09-.92-.45-1l.93.64c-1-1.2.57-.24 1.19-.14l-1.29-.76.56-.25c.74-.18 1.74.81 2.33 1.33l-.72-1 1.11.7c-1.08-1.13.37-.1 0-1 .43.26.59.53.86.51l-1-1.76.38.89-1.53-1.16c-.89-1.27.58-.46.36-1.08l.32.54c0-.77.65-.32 1.2-.36-.35-.12-.88-.29-.95-.64s.61.31.88.29c-1-.77-1.33-1.52-.6-1.5a3.11 3.11 0 0 1 .36.31c-.11-.2-.35-.44 0-.4l1.11.89-.92-1.05c.45 0-.21-.82.57-.25l.16.27 1.26-1.22 1 .63c-1.2-1 1-.44-.63-1.5 1.06.33.1-1.48 1.81-.08.78-.84-.64-2.54 1-3.07 1.83.63 2.06-.83 2.72-1.46.3-1.88.33-3.19.77-5 2.77.52.68-2.7 2.53-2.87l-.71-.82c1.8.24.7-1.82 2.63-1.86a2.22 2.22 0 0 1-.29-.73c-.07 0-.28 0-.85-.35.56 0 .39-.84 1.48-.11l.08.14c1.1.73 0-1.11 1.11-.8l-1.3-.58.5-.37.15.27c-1.38-3.76 3-2.39 1.79-5.88 1.16 1-.46-.81 1 0 2.12.57.17-1.18-.08-1.88a1.06 1.06 0 0 1-.24-.18l.6-.63c1.58 1.51-1.21-1.41.11-.1 2.48-1.11 2.53-4.4 4.4-6.27l-.53-.17c.41-.52.22-1.54 1.22-1.54s-.68-1.61-.67-1.82c-.57-.93 1.3-.45 1.11-.3 0-.63-1.4-2-.29-2.33 1.72.62-.52-2.75 1.28-1.8l-.15-.09c1.74-.23 0-2.22 1.7-2.58a1.65 1.65 0 0 1 .22.18l-4.42-4.82-6.24-2.6-5.75-.91q-.63 2.5-1.32 5l-3.82 2.47q-2 4.43-4.21 8.81l1 1.38c-3.26.28-1.9 4-4.61 4.74l1.1.73c-.24.53-.92.07-1.19.07-2.58 4.75-4.16 10.42-8.26 13.56-1-.1-1.36 1.37-2.33 1.15a5.18 5.18 0 0 1-1.57 4.8l-.08-.13-.22.76a1 1 0 0 1-.31-.2c.48 1.36-1.23 1.78-2.22 2.34l-.08-.13c-3.67 4.74-5.05 10.72-10.19 14.3-3.38.82-3.11 5.3-6.39 6.42-.68-.21-1.77 1-2.67 2.18a7.86 7.86 0 0 0-1.63 2.87z" fill="{{colors[0]}}"/><path d="M463.82 401c-.27-.48-.19-.29 0 0zm19.17 3.45l-.04.02.69.4-.65-.42zm-6.7 6.95c.45-.14.39-.26.2-.4a.35.35 0 0 0-.2.4zm-13.9-8.51c-.14 0 0 .31.26.61a1.84 1.84 0 0 1 .18-.19c-.13-.09-.31-.31-.44-.42zm3.67 6.62l.13.43a.42.42 0 0 0-.13-.43zm-283.51-57.66s0-.07 0 0zm3.27 30.77l.63-.23zm.01 3.3v.06c.08-.1.17-.2 0-.06zm-4.37-12.43s0-.06-.13-.08a.36.36 0 0 1 .13.08zm.35-32.27l.16-.05zm.44.15a.34.34 0 0 1-.42-.12c-.37.12-.41.25-.25.41.42.03.36-.25.67-.29zm.02-19.37l.16.08zm-20.77 53.55l-.1-.1c-.01.06.04.08.1.1zM181.58 325l.64.1a5.1 5.1 0 0 0-.64-.1zm4.89 57.41l.24-.08zm.64 5.21l-.25.42zm21.41 11.92l.06-.24-.23.41a.35.35 0 0 0 .17-.17zm-18.65-8.14v-.23c-.06-.22-.27-.3-.57-.31l-.14.78z" fill="{{colors[0]}}"/><path d="M197.66 410c-.28-.52-.57-1-.89-1.56 2.59-.86 3.66.69 5.38-.61l-.09.34c.11.19.2-.61.6-.91s1.23-.07 1.84 2.23v.16c.06 0 .1-.34.15.1q-.06-.51-.15-1c.23-.37.51-1.1.8-1.17a3 3 0 0 1-.06.76l.55-.14-.13 1c.28-.52.88-2.6.85-1.32.37-1.47.51-.78.74-1.52l-.16.71a2.53 2.53 0 0 0 1.38-.86 14.81 14.81 0 0 0 .25-1.87c.11-1.12 0-2.37 0-3.25.5.62.24-.11.27-.64l-.17.34c-.28-.49 0-1.43-.16-1.73l-.06.26.06-.12a.84.84 0 0 1-.12.36c-.05.2-.12.35-.22.26v-.09c-.22.09-.5-.13-.63-.23l.19-.78c-.36.7-.76 0-1.27-.86s-1.09-1.93-1.35-2c-.44-1-1.2.13-1.81-.38-1-.28-.48-1.17-1-1.87-.67-.52.13.93-.14 1l-.78-1.11c.45-.1.2-.58.12-.89-.68-.12-1.83-1.57-2 0-.91-.73-.94-1.37-1.33-1.43.14.28.41.54.42.86-.38-.69-.16.18 0 .33-.52.71-2.85-2.77-2.84-1v-.32c-.06 1.31.18 2.57-.14 3.3l-.25-.57-.33.57a1.37 1.37 0 0 1-.15-.92c-.56.62-1.32-.09-2-.25l.76 3.54c-.63-.79-1.6-2.48-1.72-1.34l-.3-1.2c-1-2.31-.78.95-1.17.24l-.41-1.33.5.06a5.48 5.48 0 0 1-.83-2 .43.43 0 0 1 0 .2h-.06c-.13.63-.42 1-.73 1s-.94.59-1.25-.86l-.51 1.23c-.08-.31-.15-.61-.21-.91l.33-1c.35.22 1.26 0 1.84.06l.09-.48c-.36 0-.77.31-1 .17a4 4 0 0 1 .33-2l-.43 1c-.42-.11-.66-.11-.82-.31a3 3 0 0 1-.3-1.26l-.19.49c-.31.23-.6.36-.19-.4a1.31 1.31 0 0 1-.17-.88 4.12 4.12 0 0 1 .66-1.48l-.89.88c0-.12 1.21-1.5-.06-.33l-.53.22c0-.17-.62.22-.18-.36l.1-.11-.08.06c.21-.57-.89.73-.56-.06.65-.63-1.36.8-1.27.43.45-.4.9-.79 1.36-1.17.65-.8-.87 0-1.2-.53a7.68 7.68 0 0 1 3-1.8c-1.58.55-1 .4-1.85.41a5.41 5.41 0 0 1 1.32-.54c.6-.6-.63.09-.68-.14a27.53 27.53 0 0 1-3.21 1.08l-.32.26c-.76 0-1.2-.25-.71-.85l.6-.2-.43-.28.76-.28-.42-.46-.19.14c-.16-.08-.54-.47-.2-.84l.44-.11c.59-.54.4-.82 0-1.09s-.94-.56-1.1-1L182 379c.84-.48-1.42.19-1-.26l1.11-.23c-1.54 0 .24-.47.76-.78l-1.45.35.25-.48c.41-.55 1.82-.57 2.6-.62l-1.21-.14 1.29-.24c-1.55 0 .21-.25-.66-.53.49-.1.78 0 1-.19l-1.91-.46.86.32-1.92.17c-1.49-.28.15-.62-.42-.87l.59.16c-.52-.47.3-.58.69-.89-.35.11-.86.3-1.14.11-.11-.15.67-.14.87-.3-1.27.07-2-.27-1.4-.66a3.8 3.8 0 0 1 .48 0c-.21-.07-.55-.09-.25-.27h1.43l-1.37-.21c.37-.21-.68-.44.28-.47l.3.1c.08-.5.19-1 .28-1.51l1.14-.05c-1.57-.11.57-.82-1.39-.73 1.07-.3-.75-1.13 1.46-1 .16-1-2-1.56-.84-2.77 1.87-.34 1.33-1.74 1.55-2.59a43 43 0 0 1-1.98-4.66c2.66-.92-.78-2.66.76-3.71l-1-.37c1.68-.66-.27-1.91 1.39-2.88a2 2 0 0 1-.61-.49c-.05 0-.25.11-.91.1.48-.28-.06-.92 1.25-.8l.13.08c1.31.12-.56-.94.59-1.21l-1.41.1.27-.56.26.17c-3-2.66 1.56-3.5-1.14-6 1.51.41-.78-.51.9-.43 2.15-.44-.38-1.11-.91-1.63a1.64 1.64 0 0 1-.31-.06l.26-.82c2.09.65-1.72-.73.06-.14 1.74-2.08.34-5.05 1.28-7.53l-.56.07c.16-.64-.44-1.49.47-1.91s-1.29-1.18-1.36-1.38c-.89-.61 1-.94.9-.72-.21-.59-2.1-1.3-1.2-2 1.82-.11-1.57-2.33.46-2.17h-.17c1.52-.88-.82-2.07.58-3a2 2 0 0 1 .28.08l-5.92-2.83h-6.81l-5.68 1.44.7 5.47-2.55 3.97c0 3.5-.06 7-.06 10.49l1.47.85c-2.81 1.88.1 4.7-1.94 6.79l1.31.13c.05.62-.77.53-1 .68 0 5.84 1.44 11.78-.4 17.06-.88.53-.41 2.23-1.32 2.68 1.61 1.91 1.63 3.88 1.61 5.85l-.15-.06.32.89a.68.68 0 0 1-.37.05c1.25.94.26 2.67 0 4.08l-.15-.06a33.34 33.34 0 0 0 3.81 11.51 64.8 64.8 0 0 0 8 11.89 7.85 7.85 0 0 0 2.75 3 16 16 0 0 0 3.84 1.76c2.75.85 5.57 1.26 7.91 2.4a1.38 1.38 0 0 0 .71.48 7.47 7.47 0 0 0 1.32.3 16.08 16.08 0 0 0 3.49.09c2.31-.2 4.26-.71 4.51-1z" fill="{{colors[0]}}"/><path d="M205.22 408.29c-.12.55-.06.35 0 0zm-12.17-15.11l.04.01-.15-.78.11.77zm9.02-.75c-.45-.17-.47 0-.4.18a.35.35 0 0 0 .4-.18zm4.75 15.23c.06.06.16-.25.25-.61l-.19.05c0 .14-.06.42-.06.56zm2.18-7.23l.2-.4a.42.42 0 0 0-.2.4z" fill="{{colors[0]}}"/><path d="M546.88 407.77a2.57 2.57 0 0 1-.08.4l.26.13a4.72 4.72 0 0 0-.18-.53zm-1.02 1.74v.64c.79-.22.51.27 1.2-.71-.06-.4-.27-1.23-.58-1.12 0 .25.29.65.15 1-.19-.2-.12-.61-.4-.81-.27.58.17.4 0 1.05zm.58.89a.77.77 0 0 0-.33-.18c.12.08.2.43.33.18zm-.02.42c-.14.4-.26-.08-.32 0l.33.59zm-.6 1.66v.2c0 .06.02-.11 0-.2zm-.3.82c.24-.08.22-.33.26-.62-.23.16-.45-.18-.22-.5s.37-.25.28-.65l-.41.35c-.22.6.09 1.12.09 1.42z" fill="{{colors[2]}}"/><path d="M545.82 412.48c0-.07 0-.14.07-.22a.19.19 0 0 0-.07.22zm.35-.81l.01-.23h-.16l.15.23zm-1.33 2.92c-.33-.31.57-.87.29-1.15-.23.52-.76.73-.92.5l-.19.59c.04.27.46.24.82.06zm-1.64.41a.29.29 0 0 1 0 .16c.01-.11.03-.16 0-.16z" fill="{{colors[2]}}"/><path d="M541.82 417.81c.21-.46.46-.9.64-1.37 0 .2.18.26 0 .54.47-.44.29-.7.66-1.07.44.14-.57.73-.08.74.23-.29.59-.74.45-1.21l.58-.31-.5-.1c-.25.11 0 .6-.33.53s-.1-.28 0-.44c-.13.37-.91.56-1.33 1.17s.09.97-.09 1.52zm-.41-.33l-.2-.06.22.13-.02-.07zm-.74 1.52l.36-.73a.5.5 0 0 1 .29 0c-.09-.06-.07-.33-.16-.37-.54-.09-.58.71-.84 1-1 .51-.11-.21-.69-.27.23-.17.32-.09.64-.34-.79.06-1.15.87-1.41 1.23.12 0 .23.05.38-.12l-.25.38c.55.08.93-.08 1.68-.78zm1.01-.91c-.19.21-.29.26-.35.23.13.04.26.03.35-.23zm-2.99 1.66s.11-.05.17-.14a.34.34 0 0 0-.17.14zm.64.15a3.14 3.14 0 0 1-.46.28l.3.05c.05-.06.23-.23.16-.33zm-19.04 6.86c.08.15.29.22.69.09 0 .25-.54.3-.76.48.57 0 0 .26.23.46.61-.08.81-.46 1.46-.54a.24.24 0 0 0 .12.23 9.74 9.74 0 0 1 2.79-.84 7.76 7.76 0 0 0 2-.68 64.11 64.11 0 0 0 7.82-2.93l.16-.59c.23.13.6-.32.67 0a1.21 1.21 0 0 0-.44.22c.74.09 1.42-.79 2.12-1.06-.12 0-.42-.3-.27-.47.21.46.73-.44 1.22-.1.69-.3-.22-.38.45-.74-.11-.29-.68.29-.92.18.06-.33.62-.3.41-.54-1 .59-2.66 2.21-4.29 3.19l.06-.33a4.92 4.92 0 0 1-3.09 1.05c.26.19-1.36.37-1 .89a1.66 1.66 0 0 0-.68.06v.21c-.47.15-.49-.16-1 0 .43.13.07.33 0 .58-.71-.06-1.5-.08-2.12-.17a.58.58 0 0 0 .36.2c-.4 0-.27.24-.35.35-.36.11-.41-.22-.44-.39-.69.09-.82.78-1.37.71l.23.21c-.67.25-1.33.08-2.08.35-.45-.27.56-.45.84-.68-.17 0-.51 0-.64-.07-.28.25-.78.63-1.15.89.21-.48-.76-.23-1.03-.22z" fill="{{colors[2]}}"/><path d="M522.38 426.11a1.59 1.59 0 0 0 .19-.2.52.52 0 0 1-.25.09.15.15 0 0 0 .06.11zm-2.09.65c-.1 0-.07 0 0 0zm4.63-.12h-.23zm.25-1.33a4.39 4.39 0 0 0 .66.12c-.1-.1-.18-.17-.66-.12zm4.63-1.15c.13-.09 0-.14.08-.26-.28.1-.35.22-.08.26zm-8.27 2.07l-.56.21-.2.12.76-.33zm-11.83 3.18c.56.26 1.33 0 2 0 1.18-.29.07-.7 1.2-.87l-.12.68c1.14-.14 2.77-.29 3.64-1 .1.06.31.13 0 .27.75-.14.24-1 1.27-.93-.86.58.37.33.19.78l-.14.07c.63-.16 1.43-.53 1.85-.58 0-.17-.42-.35.13-.48-.23 0-.18-.19-.19-.36-.54.29-.87.23-1.18.52-.36-.16.2-.11-.16-.27l-.43.29c-.35 0 .32-.28-.22-.23 0 .14-.45.35-.87.38l.11-.1c-.31.14-.78.1-.57.43l-.43-.3.1.24c-.89 0-1.3-.51-2.39 0 .28 0 .05.2-.09.26.5.12.56-.26 1-.36.1.24-.62.64-.06.71-.63-.2-1.12.18-1.46-.4-.72 0-1 .37-1.71.31v-.09c-.09.42-.61-.12-1.12.35l.4.05c0 .17-.19.2-.45.26 0-.07 0-.07-.07-.14-.05.31-.88.42-1 .52a3.89 3.89 0 0 0 1.17-.38c-.1.15-.05.39-.4.37z" fill="{{colors[2]}}"/><path d="M517 427.4l-.2.17a.31.31 0 0 0 .2-.17zm-10.64 1.75c-.47 0 .11-.26-.33-.36-.46.24.56.38.13.72-.3-.16-.75.19-.94.2.2-.18.06-.57 0-.64-.17.11-.59-.06-.89-.06.76.21-.63.18.07.41 0 .24-.74.44-1 .28 0-.17.25-.15.44-.16.14-.33-.49-.15-.61-.44-.69.48-3 .55-2.32 1.23.25.13.46-.05.72-.1-.75-.1 0-.37 0-.5.33.1.86-.15.75.11l-.49.29a35.56 35.56 0 0 0 5.7-.35h-.81c.08-.2.46-.24.75-.35l-.43-.44c.24 0 .45-.07.45.1.26-.22.13-.33-.06-.48.59-.12.71.05 1.14-.29-1-.31-.81.38-2 .13zm2.16-.42l-.22.25.35-.15-.13-.1z" fill="{{colors[2]}}"/><path d="M508.22 429.79c0-.11.13-.16.11-.26-.47-.04-.41.1-.11.26zm-5.67-.68l-.6.11.4.07c-.02-.1.13-.15.2-.18zm-4.19 1.35a5.48 5.48 0 0 1 2.15-.07c.45-.31-.24-.57-.05-.85-.47-.06-.39.46-.88.57-.19-.26-.71.07-1.18 0a.25.25 0 0 1-.04.35zm-2.89-.97c-.38 0-.77.2-1.07.07 0-.17.27-.23.5-.18-.15-.38-.42.06-.83-.2 0 0 .18.11.07.19-1-.1-.58.3-1.91.08-.2.1-.39.1-.36.35-.75-.33-.37-.32-1.27-.61 0 .15.32.49.31.8-1.28-.45-1.32.07-2.14-.26a.81.81 0 0 1 .43-.06c-.11-.44-.69.09-1.15 0v-.37a2.92 2.92 0 0 1-1.69 0l.12-.19c-1.08.27-2.35.22-3.27.43l-.51-.2c-1.25.37 1.28.05.38.67-.18-.68-.64.27-1.38 0-.36-.25.72-.19.32-.48-.13.37-.38.13-.75.26.05-.34-.81 0-.61-.38-.44.22-.86.51-1.28.77a1.15 1.15 0 0 0-.91 0c.73-.09-.13.52.7.56a15.47 15.47 0 0 1 4.61-.49c.14-.47.95-.06 1.17-.45 0 .15.16.27.2.41.95-.1-.24-.25 0-.42.42-.06.76.21.73.38.68 0 .07-.13.42-.38l.45.5a36.11 36.11 0 0 1 7.41-.2l-.18-.31c1.11.18 1.85-.68 2.83 0l.33-.28c-.18.16.2.47-.09.69.3-.11.62 0 .93-.1l-.55-.14a.65.65 0 0 1 .94.11c.82-.33-.5-.53-.69-.79-1.15.59-1.17-.54-2.27-.3-.66.24.1.36.06.52zm1.44.85l.17-.09a.7.7 0 0 0-.17.09zm-18.4-.07l-.32.06c-.1.1.07.02.32-.06z" fill="{{colors[2]}}"/><path fill="{{colors[2]}}" d="M498.4 430.13v-.01l-.01.01h.01zm.54-.78l-.31-.01.06.14.25-.13zm-23.73 1.03v.17a.17.17 0 0 0 0-.17zm-8.61 2.5l.18-.07a.34.34 0 0 0-.18.07z"/><path d="M453.68 449.13a4.85 4.85 0 0 0 .22 1.83l-.16-.06c0 .32.2 1.32.56.71l-.12-.16c-.16-.74.33-.49.51-1 0-.67-.57-1.16-.28-1.72 0-.26.2-.19.3-.09.17-.57-.24-.91-.21-1.34.61.08.69-.37.72-.93s0-1.28.6-1.52a11.86 11.86 0 0 0 .65-1.94c.08.48.38-.56.61-.25-.5-.54 1.3-1.56.71-2.15.82-.6 0-.07.86-.81.08.07 0 .21-.07.28.42-.22.14-.79.69-.79.68-.59-.08-.28.14-.83.77-.58.66-.3 1.29-.38-.22-.37.3-.64.54-1.07-.12 0-.65.41-.44 0 .94-.6.54-.75 1.34-1.47.7.08-.85.63.12.39-.41.58-.82.85-.88 1.33a18.52 18.52 0 0 0 2.22-1.87c.5-.2-.12.33.27.16.92-.26 1-1.13 1.79-1.32v.3c.24-.55 1.56-.6 2.28-1.12-.15-.08-.25-.12-.17-.25.21.6 1-.82 2-.62-.2-.35.55-.82 1.06-1 .22.05.22.22.25.32-.91 0-.69.67-1.29 1 .49-.36 1.45-.44 1.85-.86l-.1.35c.77-.18.48-.9 1.37-.79v.24c1.64-.38 3.62-.43 4.88-1.06.1-.2-.65-.55-.71-.69a10 10 0 0 0-1.75 1l-.07-.35c-.09.27-.78.57-.34.67-.45.28-.44-.23-1 .09 0-.37.3-.48.24-.79l-.46.29c.12-.18-.33-.06-.21-.24-.81.65-1.33.07-2.22.58l.54-.09c.05.2-.25.27-.46.4-.33-.21-.47-.12-1-.09-.36.28-.47.71-1 .88 0-.42-1 .08-1.2-.16 0 .42-1 .57-1 .81-.26.2-.67.33-.75.13 0 0 .11-.1.19-.15l-.29.11v-.1c-.26.1-.14.36-.55.32 0-.09.13-.16.26-.26-.73.2-.89 1.12-1.6 1.09 0 .22-.76.65-.38.92-.28 0-.38-.34-.89 0-.12.47-.64.29-.9.75.3-.68-.06-.08.19-.71-.43.14-.68.9-1.32 1.29-.11 0-.17-.11-.29-.13-.15.26-.21.67-.59.64l.18.17a7.91 7.91 0 0 1-1.5 1c0 .26-.09.51-.11.77a2.53 2.53 0 0 0-1.35 2.28c-.18.25-.49.59-.58.53a3.46 3.46 0 0 1 0-.38c-.25.37-.79.71-.58 1.13-.13.45-.44.14-.64.43a3.16 3.16 0 0 1-.67 1.68c-.35.52-.48 1.05-.14 1.32a7.66 7.66 0 0 1 .33-.72 8.06 8.06 0 0 0 .48-.93c0 .22.23.15.13.4-.29.65-.66.91-.77 1.64l-.48-.26c-.94.99.13 2.43-.85 3.22z" fill="{{colors[2]}}"/><path d="M457.3 440.45a4.49 4.49 0 0 0-.53.29l.23.08a.56.56 0 0 1 .3-.37zm-.3.37a1.32 1.32 0 0 0-.08.33.65.65 0 0 0 .13-.31zm-3.51 10.43a1.21 1.21 0 0 0-.07.58.92.92 0 0 0 .07-.58zm.1.63a2.6 2.6 0 0 1 .1-.25l-.06-.05c-.02.1-.03.2-.04.3zm2.59 15.12c.18.24.38.47.57.7-.11.19.39 1 0 .83.52.35.54 1.5.93.92-1-2.24-1.69-5.56-2.7-8.24l.32.41c-.75-1.37.14-2.06-.93-3.1l.47.1c.06-.67-.78-1.21-.37-2l-.18.09c0-.19.05-.27 0-.46l-.08.09a1.83 1.83 0 0 1-.08-1.28c.14 0 .07.22.11.37.14-.23-.18-.6-.19-1s.21 0 .27 0c-.23-1.14.33-1.62-.34-2.46-.12-.09-.24.28-.29-.14a3.6 3.6 0 0 0 .16 2.06v-.19c.65.54-.14.42.17 1.29-.28-.22-.29-.61-.44-.76-.47 1 .43 1.44-.19 2.15v-.07c-.05.15.1.42.18.64.08-.08.1-.31.15-.47.08.23.38.32.52.39-.27.28.17.32.07.75-.26.17-.28-.32-.44-.46l.23.48c.06.45-.25.48-.37.72.24.36.12-.24.44 0a6.27 6.27 0 0 0 .63 3.51c-.11-.32-.31-.05-.36-.47 0 .16.22.65.43.61a5 5 0 0 1 .37 2.18l.16-.23c.47.43.08 1.38.56 2.24.13.28.69.38.75.94-.23.05-.3-.24-.53-.14zm1.55 3l-.38-.18c0 .34.55.6.7.47-.14-.19-.12-.52-.29-.5s-.13.09-.03.21zm2.53 5.82c.11.08.2 0 .29 0a12.11 12.11 0 0 1-1.39-3.23c-.1-.45-.52-.36-.83-.85l.17-.34c-.29-.22-.33-1.21-.66-.73 0 .05.3.18.33.45H458l.28.54-.27-.1c0 .88.79.31 1 1.31l-.39.16a4 4 0 0 1 .54 1.54s.19-.08.06-.15.07-.31.21-.29c.73.79-.29 0-.14.68.61.68 1.57 2.06 1.5 2.64 0-.48.55-.06.76.37 0 .27-.29 0-.44 0 .07.22.06.43.23.6 0-.37.43-.34.79 0-.3-1.05-1.41-1.53-1.87-2.6z" fill="{{colors[2]}}"/><path d="M460.73 476a.29.29 0 0 0-.18-.14c.07.14.15.28.21.42z" fill="{{colors[2]}}"/></svg>