<svg xmlns="http://www.w3.org/2000/svg" viewBox="0 0 800 800" preserveAspectRatio="none"><path fill="none" stroke="{{colors[0]}}" stroke-width="24" stroke-linecap="round" stroke-miterlimit="10" d="M552.4 591.9L524 619.2"/><path d="M256.8 81.9c53.1 1.1 105.7 21.6 146 61.5 84.9-77.6 217.9-73.7 298.1 9.7 40.7 42.4 60.4 97.5 59.3 152.3-1.1 53.1-21.6 105.7-61.5 146l-3.8 3.8-95.1 90.6M485.4 656.3l-90.8 87.2c-1.3 1.3-2.6 2.5-3.9 3.7l-3.8-3.8L98.5 443.2c-1.3-1.3-2.5-2.6-3.7-3.9-77.6-84.9-73.7-217.9 9.7-298.1" fill="none" stroke="{{colors[0]}}" stroke-width="24" stroke-linecap="round" stroke-linejoin="round" stroke-miterlimit="10"/><path d="M620.2 144.6s52.9 25.1 61.5 74.2" fill="none" stroke="{{colors[0]}}" stroke-width="24" stroke-linecap="round" stroke-miterlimit="10"/><path fill="none" stroke="{{colors[0]}}" stroke-width="24" stroke-linecap="round" stroke-linejoin="round" stroke-miterlimit="10" d="M128.9 98.2h92.8m-46.4 46.4V51.7"/></svg>